G04*
G04 #@! TF.GenerationSoftware,Altium Limited,Altium Designer,23.8.1 (32)*
G04*
G04 Layer_Color=255*
%FSLAX44Y44*%
%MOMM*%
G71*
G04*
G04 #@! TF.SameCoordinates,B3540FD7-C173-429B-8219-2738AE0D0CCA*
G04*
G04*
G04 #@! TF.FilePolarity,Positive*
G04*
G01*
G75*
%ADD24C,1.5000*%
%ADD25R,1.5000X1.5000*%
%ADD26C,1.1938*%
%ADD27C,2.5400*%
%ADD28R,1.5000X1.5000*%
D24*
X669500Y688000D02*
D03*
X376200Y28000D02*
D03*
X401600D02*
D03*
X427000D02*
D03*
X315000Y509200D02*
D03*
X340400D02*
D03*
X315000Y483800D02*
D03*
X340400D02*
D03*
X315000Y458400D02*
D03*
X340400D02*
D03*
X315000Y433000D02*
D03*
X340400D02*
D03*
X315000Y407600D02*
D03*
X340400D02*
D03*
X315000Y382200D02*
D03*
X340400D02*
D03*
X315000Y356800D02*
D03*
X340400D02*
D03*
X315000Y331400D02*
D03*
X340400D02*
D03*
X315000Y306000D02*
D03*
X340400D02*
D03*
X315000Y280600D02*
D03*
X340400D02*
D03*
X315000Y255200D02*
D03*
X340400D02*
D03*
X315000Y229800D02*
D03*
X340400D02*
D03*
X315000Y204400D02*
D03*
X340400D02*
D03*
X315000Y179000D02*
D03*
X340400D02*
D03*
X315000Y153600D02*
D03*
X340400D02*
D03*
X315000Y128200D02*
D03*
X340400D02*
D03*
X315000Y102800D02*
D03*
X340400D02*
D03*
X315000Y77400D02*
D03*
X340400D02*
D03*
X315000Y52000D02*
D03*
X340400D02*
D03*
X315000Y26600D02*
D03*
X593500Y586000D02*
D03*
X819000Y52800D02*
D03*
Y78200D02*
D03*
Y103600D02*
D03*
Y129000D02*
D03*
Y154400D02*
D03*
Y179800D02*
D03*
Y205200D02*
D03*
X507600Y90000D02*
D03*
X533000D02*
D03*
X543000Y27000D02*
D03*
X517600D02*
D03*
X492200D02*
D03*
X836930Y283210D02*
D03*
Y308610D02*
D03*
Y334010D02*
D03*
Y359410D02*
D03*
Y384810D02*
D03*
Y410210D02*
D03*
Y435610D02*
D03*
X835660Y638810D02*
D03*
Y613410D02*
D03*
Y588010D02*
D03*
Y562610D02*
D03*
Y537210D02*
D03*
Y511810D02*
D03*
Y486410D02*
D03*
X854000Y52600D02*
D03*
Y78000D02*
D03*
Y103400D02*
D03*
Y128800D02*
D03*
Y154200D02*
D03*
Y179600D02*
D03*
Y205000D02*
D03*
X604400Y63000D02*
D03*
X629800D02*
D03*
X655200D02*
D03*
X680600D02*
D03*
X706000D02*
D03*
X731400D02*
D03*
X756800D02*
D03*
X604520Y26670D02*
D03*
X629920D02*
D03*
X655320D02*
D03*
X680720D02*
D03*
X706120D02*
D03*
X731520D02*
D03*
X756920D02*
D03*
X783000Y258000D02*
D03*
D25*
X598500Y688000D02*
D03*
X452400Y28000D02*
D03*
X664500Y586000D02*
D03*
X558400Y90000D02*
D03*
X568400Y27000D02*
D03*
X782200Y63000D02*
D03*
X782320Y26670D02*
D03*
D26*
X649000Y192740D02*
D03*
Y114000D02*
D03*
Y406044D02*
D03*
Y327304D02*
D03*
Y512696D02*
D03*
Y433956D02*
D03*
Y619348D02*
D03*
Y540608D02*
D03*
Y726000D02*
D03*
Y647260D02*
D03*
Y220652D02*
D03*
Y299392D02*
D03*
D27*
X402620Y153370D02*
D03*
Y366674D02*
D03*
Y473326D02*
D03*
Y579978D02*
D03*
Y686630D02*
D03*
Y260022D02*
D03*
D28*
X340400Y26600D02*
D03*
X819000Y27400D02*
D03*
X836930Y257810D02*
D03*
X835660Y664210D02*
D03*
X854000Y27200D02*
D03*
X783000Y283400D02*
D03*
M02*
