G04*
G04 #@! TF.GenerationSoftware,Altium Limited,Altium Designer,23.8.1 (32)*
G04*
G04 Layer_Color=255*
%FSLAX44Y44*%
%MOMM*%
G71*
G04*
G04 #@! TF.SameCoordinates,B3540FD7-C173-429B-8219-2738AE0D0CCA*
G04*
G04*
G04 #@! TF.FilePolarity,Positive*
G04*
G01*
G75*
%ADD24C,1.5000*%
%ADD25R,1.5000X1.5000*%
%ADD26C,1.1938*%
%ADD27C,2.5400*%
%ADD28R,1.5000X1.5000*%
G04:AMPARAMS|DCode=41|XSize=0.95mm|YSize=3.85mm|CornerRadius=0.0522mm|HoleSize=0mm|Usage=FLASHONLY|Rotation=0.000|XOffset=0mm|YOffset=0mm|HoleType=Round|Shape=RoundedRectangle|*
%AMROUNDEDRECTD41*
21,1,0.9500,3.7455,0,0,0.0*
21,1,0.8455,3.8500,0,0,0.0*
1,1,0.1045,0.4228,-1.8728*
1,1,0.1045,-0.4228,-1.8728*
1,1,0.1045,-0.4228,1.8728*
1,1,0.1045,0.4228,1.8728*
%
%ADD41ROUNDEDRECTD41*%
G04:AMPARAMS|DCode=42|XSize=10.7mm|YSize=7.7mm|CornerRadius=0.0385mm|HoleSize=0mm|Usage=FLASHONLY|Rotation=0.000|XOffset=0mm|YOffset=0mm|HoleType=Round|Shape=RoundedRectangle|*
%AMROUNDEDRECTD42*
21,1,10.7000,7.6230,0,0,0.0*
21,1,10.6230,7.7000,0,0,0.0*
1,1,0.0770,5.3115,-3.8115*
1,1,0.0770,-5.3115,-3.8115*
1,1,0.0770,-5.3115,3.8115*
1,1,0.0770,5.3115,3.8115*
%
%ADD42ROUNDEDRECTD42*%
%ADD43R,0.8000X0.8000*%
%ADD44R,0.8500X1.3000*%
%ADD45R,0.6600X0.4570*%
%ADD46R,0.7000X0.9000*%
G04:AMPARAMS|DCode=47|XSize=0.45mm|YSize=1.6mm|CornerRadius=0.0495mm|HoleSize=0mm|Usage=FLASHONLY|Rotation=180.000|XOffset=0mm|YOffset=0mm|HoleType=Round|Shape=RoundedRectangle|*
%AMROUNDEDRECTD47*
21,1,0.4500,1.5010,0,0,180.0*
21,1,0.3510,1.6000,0,0,180.0*
1,1,0.0990,-0.1755,0.7505*
1,1,0.0990,0.1755,0.7505*
1,1,0.0990,0.1755,-0.7505*
1,1,0.0990,-0.1755,-0.7505*
%
%ADD47ROUNDEDRECTD47*%
%ADD48R,0.8000X0.8000*%
%ADD49R,2.2000X2.0000*%
%ADD50R,1.4000X1.5000*%
%ADD51R,0.9000X0.7000*%
%ADD52O,2.6000X0.7000*%
%ADD53R,1.0160X1.1176*%
%ADD54O,2.0000X0.6000*%
%ADD55R,1.3000X0.8500*%
%ADD56R,1.1176X1.0160*%
G04:AMPARAMS|DCode=57|XSize=1mm|YSize=2.05mm|CornerRadius=0.05mm|HoleSize=0mm|Usage=FLASHONLY|Rotation=180.000|XOffset=0mm|YOffset=0mm|HoleType=Round|Shape=RoundedRectangle|*
%AMROUNDEDRECTD57*
21,1,1.0000,1.9500,0,0,180.0*
21,1,0.9000,2.0500,0,0,180.0*
1,1,0.1000,-0.4500,0.9750*
1,1,0.1000,0.4500,0.9750*
1,1,0.1000,0.4500,-0.9750*
1,1,0.1000,-0.4500,-0.9750*
%
%ADD57ROUNDEDRECTD57*%
G04:AMPARAMS|DCode=58|XSize=3.25mm|YSize=2.05mm|CornerRadius=0.0513mm|HoleSize=0mm|Usage=FLASHONLY|Rotation=180.000|XOffset=0mm|YOffset=0mm|HoleType=Round|Shape=RoundedRectangle|*
%AMROUNDEDRECTD58*
21,1,3.2500,1.9475,0,0,180.0*
21,1,3.1475,2.0500,0,0,180.0*
1,1,0.1025,-1.5738,0.9738*
1,1,0.1025,1.5738,0.9738*
1,1,0.1025,1.5738,-0.9738*
1,1,0.1025,-1.5738,-0.9738*
%
%ADD58ROUNDEDRECTD58*%
%ADD59O,2.2000X0.6000*%
%ADD60R,1.2000X1.4000*%
%ADD61R,0.7000X0.6000*%
D24*
X669500Y688000D02*
D03*
X376200Y28000D02*
D03*
X401600D02*
D03*
X427000D02*
D03*
X315000Y509200D02*
D03*
X340400D02*
D03*
X315000Y483800D02*
D03*
X340400D02*
D03*
X315000Y458400D02*
D03*
X340400D02*
D03*
X315000Y433000D02*
D03*
X340400D02*
D03*
X315000Y407600D02*
D03*
X340400D02*
D03*
X315000Y382200D02*
D03*
X340400D02*
D03*
X315000Y356800D02*
D03*
X340400D02*
D03*
X315000Y331400D02*
D03*
X340400D02*
D03*
X315000Y306000D02*
D03*
X340400D02*
D03*
X315000Y280600D02*
D03*
X340400D02*
D03*
X315000Y255200D02*
D03*
X340400D02*
D03*
X315000Y229800D02*
D03*
X340400D02*
D03*
X315000Y204400D02*
D03*
X340400D02*
D03*
X315000Y179000D02*
D03*
X340400D02*
D03*
X315000Y153600D02*
D03*
X340400D02*
D03*
X315000Y128200D02*
D03*
X340400D02*
D03*
X315000Y102800D02*
D03*
X340400D02*
D03*
X315000Y77400D02*
D03*
X340400D02*
D03*
X315000Y52000D02*
D03*
X340400D02*
D03*
X315000Y26600D02*
D03*
X593500Y586000D02*
D03*
X819000Y52800D02*
D03*
Y78200D02*
D03*
Y103600D02*
D03*
Y129000D02*
D03*
Y154400D02*
D03*
Y179800D02*
D03*
Y205200D02*
D03*
X507600Y90000D02*
D03*
X533000D02*
D03*
X543000Y27000D02*
D03*
X517600D02*
D03*
X492200D02*
D03*
X836930Y283210D02*
D03*
Y308610D02*
D03*
Y334010D02*
D03*
Y359410D02*
D03*
Y384810D02*
D03*
Y410210D02*
D03*
Y435610D02*
D03*
X835660Y638810D02*
D03*
Y613410D02*
D03*
Y588010D02*
D03*
Y562610D02*
D03*
Y537210D02*
D03*
Y511810D02*
D03*
Y486410D02*
D03*
X854000Y52600D02*
D03*
Y78000D02*
D03*
Y103400D02*
D03*
Y128800D02*
D03*
Y154200D02*
D03*
Y179600D02*
D03*
Y205000D02*
D03*
X604400Y63000D02*
D03*
X629800D02*
D03*
X655200D02*
D03*
X680600D02*
D03*
X706000D02*
D03*
X731400D02*
D03*
X756800D02*
D03*
X604520Y26670D02*
D03*
X629920D02*
D03*
X655320D02*
D03*
X680720D02*
D03*
X706120D02*
D03*
X731520D02*
D03*
X756920D02*
D03*
X783000Y258000D02*
D03*
D25*
X598500Y688000D02*
D03*
X452400Y28000D02*
D03*
X664500Y586000D02*
D03*
X558400Y90000D02*
D03*
X568400Y27000D02*
D03*
X782200Y63000D02*
D03*
X782320Y26670D02*
D03*
D26*
X649000Y192740D02*
D03*
Y114000D02*
D03*
Y406044D02*
D03*
Y327304D02*
D03*
Y512696D02*
D03*
Y433956D02*
D03*
Y619348D02*
D03*
Y540608D02*
D03*
Y726000D02*
D03*
Y647260D02*
D03*
Y220652D02*
D03*
Y299392D02*
D03*
D27*
X402620Y153370D02*
D03*
Y366674D02*
D03*
Y473326D02*
D03*
Y579978D02*
D03*
Y686630D02*
D03*
Y260022D02*
D03*
D28*
X340400Y26600D02*
D03*
X819000Y27400D02*
D03*
X836930Y257810D02*
D03*
X835660Y664210D02*
D03*
X854000Y27200D02*
D03*
X783000Y283400D02*
D03*
D41*
X523400Y559000D02*
D03*
X498000D02*
D03*
X472600D02*
D03*
D42*
X498000Y664000D02*
D03*
D43*
X776000Y701000D02*
D03*
X760000D02*
D03*
D44*
X777000Y682000D02*
D03*
X760000D02*
D03*
D45*
X715720Y682650D02*
D03*
Y695350D02*
D03*
Y701700D02*
D03*
Y689000D02*
D03*
X702000Y701700D02*
D03*
Y695350D02*
D03*
Y689000D02*
D03*
Y682650D02*
D03*
D46*
X774000Y588000D02*
D03*
X760000D02*
D03*
X493000Y465000D02*
D03*
X479000D02*
D03*
X568000Y177000D02*
D03*
X582000D02*
D03*
X760000Y570000D02*
D03*
X774000D02*
D03*
X429000Y221000D02*
D03*
X443000D02*
D03*
X736000Y256000D02*
D03*
X750000D02*
D03*
X751001Y238000D02*
D03*
X737000D02*
D03*
X736000Y279000D02*
D03*
X750000D02*
D03*
X695000Y260000D02*
D03*
X709000D02*
D03*
X445000Y344000D02*
D03*
X431000D02*
D03*
X445000Y276000D02*
D03*
X431000D02*
D03*
X709000Y238000D02*
D03*
X723000D02*
D03*
X750000Y296000D02*
D03*
X736000D02*
D03*
D47*
X692250Y650500D02*
D03*
X698750D02*
D03*
X705250D02*
D03*
X711750D02*
D03*
X718250D02*
D03*
X724750D02*
D03*
X731250D02*
D03*
X737750D02*
D03*
X692250Y589500D02*
D03*
X698750D02*
D03*
X705250D02*
D03*
X711750D02*
D03*
X718250D02*
D03*
X724750D02*
D03*
X731250D02*
D03*
X737750D02*
D03*
D48*
X671000Y658000D02*
D03*
Y642000D02*
D03*
D49*
X533000Y510000D02*
D03*
Y478000D02*
D03*
X578000Y510000D02*
D03*
Y478000D02*
D03*
D50*
X477000Y515000D02*
D03*
X496000D02*
D03*
X477000Y495000D02*
D03*
X496000D02*
D03*
D51*
X429000Y254000D02*
D03*
Y240000D02*
D03*
X801000Y487000D02*
D03*
Y501000D02*
D03*
X444000Y240000D02*
D03*
Y254000D02*
D03*
X602000Y165000D02*
D03*
Y179000D02*
D03*
D52*
X571000Y325800D02*
D03*
Y313100D02*
D03*
Y300400D02*
D03*
Y287700D02*
D03*
Y275000D02*
D03*
Y262300D02*
D03*
Y249600D02*
D03*
Y236900D02*
D03*
Y224200D02*
D03*
X479000Y325800D02*
D03*
Y313100D02*
D03*
Y300400D02*
D03*
Y287700D02*
D03*
Y275000D02*
D03*
Y262300D02*
D03*
Y249600D02*
D03*
Y236900D02*
D03*
Y224200D02*
D03*
D53*
X624000Y192728D02*
D03*
Y210000D02*
D03*
X602000Y219272D02*
D03*
Y202000D02*
D03*
D54*
X777000Y525550D02*
D03*
Y512850D02*
D03*
Y500150D02*
D03*
Y487450D02*
D03*
Y474750D02*
D03*
Y462050D02*
D03*
Y449350D02*
D03*
Y436650D02*
D03*
Y423950D02*
D03*
Y411250D02*
D03*
Y398550D02*
D03*
Y385850D02*
D03*
Y373150D02*
D03*
Y360450D02*
D03*
X687000Y525550D02*
D03*
Y512850D02*
D03*
Y500150D02*
D03*
Y487450D02*
D03*
Y474750D02*
D03*
Y462050D02*
D03*
Y449350D02*
D03*
Y436650D02*
D03*
Y423950D02*
D03*
Y411250D02*
D03*
Y398550D02*
D03*
Y385850D02*
D03*
Y373150D02*
D03*
Y360450D02*
D03*
D55*
X672000Y624000D02*
D03*
Y607000D02*
D03*
D56*
X775636Y552000D02*
D03*
X758364D02*
D03*
D57*
X470000Y440750D02*
D03*
X493000D02*
D03*
X516000D02*
D03*
D58*
X493000Y377250D02*
D03*
D59*
X607000Y241950D02*
D03*
Y254650D02*
D03*
Y267350D02*
D03*
Y280050D02*
D03*
X655000Y241950D02*
D03*
Y254650D02*
D03*
Y267350D02*
D03*
Y280050D02*
D03*
D60*
X429000Y320000D02*
D03*
Y298000D02*
D03*
X445000D02*
D03*
Y320000D02*
D03*
D61*
X695000Y299500D02*
D03*
Y280500D02*
D03*
X715000Y290000D02*
D03*
M02*
