G04*
G04 #@! TF.GenerationSoftware,Altium Limited,Altium Designer,23.8.1 (32)*
G04*
G04 Layer_Color=16711935*
%FSLAX44Y44*%
%MOMM*%
G71*
G04*
G04 #@! TF.SameCoordinates,B3540FD7-C173-429B-8219-2738AE0D0CCA*
G04*
G04*
G04 #@! TF.FilePolarity,Positive*
G04*
G01*
G75*
%ADD94C,0.1000*%
D94*
X703500Y633500D02*
G03*
X703500Y633500I-5000J0D01*
G01*
X501000Y225250D02*
G03*
X501000Y225250I-5000J0D01*
G01*
X708000Y361500D02*
G03*
X708000Y361500I-5000J0D01*
G01*
X625000Y245000D02*
G03*
X625000Y245000I-5000J0D01*
G01*
X444750Y589000D02*
X551250D01*
X444750Y685500D02*
X551250D01*
Y589000D02*
Y685500D01*
X444750Y589000D02*
Y685500D01*
X759500Y705500D02*
X776500D01*
X759500Y696500D02*
X776500D01*
Y705500D01*
X759500Y696500D02*
Y705500D01*
X779500Y675250D02*
Y688750D01*
X757500Y675250D02*
Y688750D01*
X779500D01*
X757500Y675250D02*
X779500D01*
X716985Y677050D02*
Y707300D01*
X700735Y677050D02*
X716985D01*
X700735D02*
Y707300D01*
X716985D01*
X775750Y583250D02*
Y592750D01*
X758251Y583250D02*
Y592750D01*
X775750D01*
X758251Y583250D02*
X775750D01*
X689500Y642500D02*
X740500D01*
X689500Y597500D02*
X740500D01*
X689500D02*
Y642500D01*
X740500Y597500D02*
Y642500D01*
X666500Y658500D02*
X675500D01*
X666500Y641500D02*
X675500D01*
X666500D02*
Y658500D01*
X675500Y641500D02*
Y658500D01*
X476000Y508250D02*
X497000D01*
X476000Y521750D02*
X497000D01*
X476000Y508250D02*
Y521750D01*
X497000Y508250D02*
Y521750D01*
X494750Y460250D02*
Y469750D01*
X477250Y460250D02*
Y469750D01*
X494750D01*
X477250Y460250D02*
X494750D01*
X424250Y255750D02*
X433750D01*
X424250Y238250D02*
X433750D01*
X424250D02*
Y255750D01*
X433750Y238250D02*
Y255750D01*
X487000Y333750D02*
X563000D01*
X487000Y216250D02*
X563000D01*
Y333750D01*
X487000Y216250D02*
Y333750D01*
X566500Y172250D02*
X583500D01*
X566500Y181750D02*
X583500D01*
X566500Y172250D02*
Y181750D01*
X583500Y172250D02*
Y181750D01*
X694000Y533500D02*
X770000D01*
X694000Y352500D02*
X770000D01*
Y533500D01*
X694000Y352500D02*
Y533500D01*
X665250Y626500D02*
X678750D01*
X665250Y604500D02*
X678750D01*
X665250D02*
Y626500D01*
X678750Y604500D02*
Y626500D01*
X758250Y565250D02*
X775750D01*
X758250Y574750D02*
X775750D01*
X758250Y565250D02*
Y574750D01*
X775750Y565250D02*
Y574750D01*
X459500Y427500D02*
X526500D01*
X459500Y390500D02*
X526500D01*
X459500D02*
Y427500D01*
X526500Y390500D02*
Y427500D01*
X805750Y485250D02*
Y502750D01*
X796250Y485250D02*
Y502750D01*
Y485250D02*
X805750D01*
X796250Y502750D02*
X805750D01*
X476000Y488250D02*
X497000D01*
X476000Y501750D02*
X497000D01*
X476000Y488250D02*
Y501750D01*
X497000Y488250D02*
Y501750D01*
X427250Y216250D02*
X444750D01*
X427250Y225750D02*
X444750D01*
X427250Y216250D02*
Y225750D01*
X444750Y216250D02*
Y225750D01*
X611000Y236000D02*
Y286000D01*
X651000Y236000D02*
Y286000D01*
X611000Y236000D02*
X651000D01*
X611000Y286000D02*
X651000D01*
X424500Y325000D02*
X449500D01*
Y293000D02*
Y325000D01*
X424500Y293000D02*
X449500D01*
X424500D02*
Y325000D01*
X734500Y251250D02*
X751500D01*
X734500Y260750D02*
X751500D01*
X734500Y251250D02*
Y260750D01*
X751500Y251250D02*
Y260750D01*
X735501Y242750D02*
X752500D01*
X735501Y233250D02*
X752500D01*
Y242750D01*
X735501Y233250D02*
Y242750D01*
X734500Y274250D02*
X751500D01*
X734500Y283750D02*
X751500D01*
X734500Y274250D02*
Y283750D01*
X751500Y274250D02*
Y283750D01*
X693500Y255250D02*
X710500D01*
X693500Y264750D02*
X710500D01*
X693500Y255250D02*
Y264750D01*
X710500Y255250D02*
Y264750D01*
X711500Y275500D02*
Y304500D01*
X698500D02*
X711500D01*
X698500Y275500D02*
X711500D01*
X698500D02*
Y304500D01*
X446750Y339250D02*
Y348750D01*
X429250Y339250D02*
Y348750D01*
X446750D01*
X429250Y339250D02*
X446750D01*
Y271250D02*
Y280750D01*
X429250Y271250D02*
Y280750D01*
X446750D01*
X429250Y271250D02*
X446750D01*
X707250Y233250D02*
Y242750D01*
X724750Y233250D02*
Y242750D01*
X707250Y233250D02*
X724750D01*
X707250Y242750D02*
X724750D01*
X751750Y291250D02*
Y300750D01*
X734250Y291250D02*
Y300750D01*
X751750D01*
X734250Y291250D02*
X751750D01*
X448750Y238251D02*
Y255750D01*
X439250Y238251D02*
Y255750D01*
Y238251D02*
X448750D01*
X439250Y255750D02*
X448750D01*
X597250Y163250D02*
X606750D01*
X597250Y180750D02*
X606750D01*
Y163250D02*
Y180750D01*
X597250Y163250D02*
Y180750D01*
M02*
