G04*
G04 #@! TF.GenerationSoftware,Altium Limited,Altium Designer,23.8.1 (32)*
G04*
G04 Layer_Color=16711935*
%FSLAX44Y44*%
%MOMM*%
G71*
G04*
G04 #@! TF.SameCoordinates,B3540FD7-C173-429B-8219-2738AE0D0CCA*
G04*
G04*
G04 #@! TF.FilePolarity,Negative*
G04*
G01*
G75*
%ADD13C,1.7032*%
%ADD14R,1.7032X1.7032*%
%ADD15C,1.3970*%
%ADD16C,2.7432*%
%ADD17R,1.7032X1.7032*%
%ADD18C,1.7272*%
%ADD19C,1.2192*%
%ADD20C,1.4732*%
G04:AMPARAMS|DCode=64|XSize=1.1532mm|YSize=4.0532mm|CornerRadius=0.1539mm|HoleSize=0mm|Usage=FLASHONLY|Rotation=0.000|XOffset=0mm|YOffset=0mm|HoleType=Round|Shape=RoundedRectangle|*
%AMROUNDEDRECTD64*
21,1,1.1532,3.7455,0,0,0.0*
21,1,0.8455,4.0532,0,0,0.0*
1,1,0.3077,0.4228,-1.8728*
1,1,0.3077,-0.4228,-1.8728*
1,1,0.3077,-0.4228,1.8728*
1,1,0.3077,0.4228,1.8728*
%
%ADD64ROUNDEDRECTD64*%
G04:AMPARAMS|DCode=65|XSize=10.9032mm|YSize=7.9032mm|CornerRadius=0.1401mm|HoleSize=0mm|Usage=FLASHONLY|Rotation=0.000|XOffset=0mm|YOffset=0mm|HoleType=Round|Shape=RoundedRectangle|*
%AMROUNDEDRECTD65*
21,1,10.9032,7.6230,0,0,0.0*
21,1,10.6230,7.9032,0,0,0.0*
1,1,0.2802,5.3115,-3.8115*
1,1,0.2802,-5.3115,-3.8115*
1,1,0.2802,-5.3115,3.8115*
1,1,0.2802,5.3115,3.8115*
%
%ADD65ROUNDEDRECTD65*%
%ADD66R,1.0032X1.0032*%
%ADD67R,1.0532X1.5032*%
%ADD68R,0.8632X0.6602*%
%ADD69R,0.9032X1.1032*%
G04:AMPARAMS|DCode=70|XSize=0.6532mm|YSize=1.8032mm|CornerRadius=0.1511mm|HoleSize=0mm|Usage=FLASHONLY|Rotation=180.000|XOffset=0mm|YOffset=0mm|HoleType=Round|Shape=RoundedRectangle|*
%AMROUNDEDRECTD70*
21,1,0.6532,1.5010,0,0,180.0*
21,1,0.3510,1.8032,0,0,180.0*
1,1,0.3022,-0.1755,0.7505*
1,1,0.3022,0.1755,0.7505*
1,1,0.3022,0.1755,-0.7505*
1,1,0.3022,-0.1755,-0.7505*
%
%ADD70ROUNDEDRECTD70*%
%ADD71R,1.0032X1.0032*%
%ADD72R,2.4032X2.2032*%
%ADD73R,1.6032X1.7032*%
%ADD74R,1.1032X0.9032*%
%ADD75O,2.8032X0.9032*%
%ADD76R,1.2192X1.3208*%
%ADD77O,2.2032X0.8032*%
%ADD78R,1.5032X1.0532*%
%ADD79R,1.3208X1.2192*%
G04:AMPARAMS|DCode=80|XSize=1.2032mm|YSize=2.2532mm|CornerRadius=0.1516mm|HoleSize=0mm|Usage=FLASHONLY|Rotation=180.000|XOffset=0mm|YOffset=0mm|HoleType=Round|Shape=RoundedRectangle|*
%AMROUNDEDRECTD80*
21,1,1.2032,1.9500,0,0,180.0*
21,1,0.9000,2.2532,0,0,180.0*
1,1,0.3032,-0.4500,0.9750*
1,1,0.3032,0.4500,0.9750*
1,1,0.3032,0.4500,-0.9750*
1,1,0.3032,-0.4500,-0.9750*
%
%ADD80ROUNDEDRECTD80*%
G04:AMPARAMS|DCode=81|XSize=3.4532mm|YSize=2.2532mm|CornerRadius=0.1529mm|HoleSize=0mm|Usage=FLASHONLY|Rotation=180.000|XOffset=0mm|YOffset=0mm|HoleType=Round|Shape=RoundedRectangle|*
%AMROUNDEDRECTD81*
21,1,3.4532,1.9475,0,0,180.0*
21,1,3.1475,2.2532,0,0,180.0*
1,1,0.3057,-1.5738,0.9738*
1,1,0.3057,1.5738,0.9738*
1,1,0.3057,1.5738,-0.9738*
1,1,0.3057,-1.5738,-0.9738*
%
%ADD81ROUNDEDRECTD81*%
%ADD82O,2.4032X0.8032*%
%ADD83R,1.4032X1.6032*%
%ADD84R,0.9032X0.8032*%
%ADD85R,1.3220X1.2960*%
D13*
X669500Y688000D02*
D03*
X376200Y28000D02*
D03*
X401600D02*
D03*
X427000D02*
D03*
X315000Y509200D02*
D03*
X340400D02*
D03*
X315000Y483800D02*
D03*
X340400D02*
D03*
X315000Y458400D02*
D03*
X340400D02*
D03*
X315000Y433000D02*
D03*
X340400D02*
D03*
X315000Y407600D02*
D03*
X340400D02*
D03*
X315000Y382200D02*
D03*
X340400D02*
D03*
X315000Y356800D02*
D03*
X340400D02*
D03*
X315000Y331400D02*
D03*
X340400D02*
D03*
X315000Y306000D02*
D03*
X340400D02*
D03*
X315000Y280600D02*
D03*
X340400D02*
D03*
X315000Y255200D02*
D03*
X340400D02*
D03*
X315000Y229800D02*
D03*
X340400D02*
D03*
X315000Y204400D02*
D03*
X340400D02*
D03*
X315000Y179000D02*
D03*
X340400D02*
D03*
X315000Y153600D02*
D03*
X340400D02*
D03*
X315000Y128200D02*
D03*
X340400D02*
D03*
X315000Y102800D02*
D03*
X340400D02*
D03*
X315000Y77400D02*
D03*
X340400D02*
D03*
X315000Y52000D02*
D03*
X340400D02*
D03*
X315000Y26600D02*
D03*
X593500Y586000D02*
D03*
X819000Y52800D02*
D03*
Y78200D02*
D03*
Y103600D02*
D03*
Y129000D02*
D03*
Y154400D02*
D03*
Y179800D02*
D03*
Y205200D02*
D03*
X507600Y90000D02*
D03*
X533000D02*
D03*
X543000Y27000D02*
D03*
X517600D02*
D03*
X492200D02*
D03*
X836930Y283210D02*
D03*
Y308610D02*
D03*
Y334010D02*
D03*
Y359410D02*
D03*
Y384810D02*
D03*
Y410210D02*
D03*
Y435610D02*
D03*
X835660Y638810D02*
D03*
Y613410D02*
D03*
Y588010D02*
D03*
Y562610D02*
D03*
Y537210D02*
D03*
Y511810D02*
D03*
Y486410D02*
D03*
X854000Y52600D02*
D03*
Y78000D02*
D03*
Y103400D02*
D03*
Y128800D02*
D03*
Y154200D02*
D03*
Y179600D02*
D03*
Y205000D02*
D03*
X604400Y63000D02*
D03*
X629800D02*
D03*
X655200D02*
D03*
X680600D02*
D03*
X706000D02*
D03*
X731400D02*
D03*
X756800D02*
D03*
X604520Y26670D02*
D03*
X629920D02*
D03*
X655320D02*
D03*
X680720D02*
D03*
X706120D02*
D03*
X731520D02*
D03*
X756920D02*
D03*
X783000Y258000D02*
D03*
D14*
X598500Y688000D02*
D03*
X452400Y28000D02*
D03*
X664500Y586000D02*
D03*
X558400Y90000D02*
D03*
X568400Y27000D02*
D03*
X782200Y63000D02*
D03*
X782320Y26670D02*
D03*
D15*
X649000Y192740D02*
D03*
Y114000D02*
D03*
Y406044D02*
D03*
Y327304D02*
D03*
Y512696D02*
D03*
Y433956D02*
D03*
Y619348D02*
D03*
Y540608D02*
D03*
Y726000D02*
D03*
Y647260D02*
D03*
Y220652D02*
D03*
Y299392D02*
D03*
D16*
X402620Y153370D02*
D03*
Y366674D02*
D03*
Y473326D02*
D03*
Y579978D02*
D03*
Y686630D02*
D03*
Y260022D02*
D03*
D17*
X340400Y26600D02*
D03*
X819000Y27400D02*
D03*
X836930Y257810D02*
D03*
X835660Y664210D02*
D03*
X854000Y27200D02*
D03*
X783000Y283400D02*
D03*
D18*
X403606Y334518D02*
D03*
X427990Y495300D02*
D03*
X412750Y406400D02*
D03*
D19*
X629666Y264160D02*
D03*
X439420Y204470D02*
D03*
X745661Y563443D02*
D03*
X662940Y462280D02*
D03*
X452120Y440690D02*
D03*
X361950Y303530D02*
D03*
X543741Y458289D02*
D03*
X543304Y229220D02*
D03*
X613000Y314000D02*
D03*
X760000Y661000D02*
D03*
X617220Y228600D02*
D03*
X558000Y199263D02*
D03*
X480060Y208280D02*
D03*
X609600Y477520D02*
D03*
X518160Y248920D02*
D03*
X577850Y356870D02*
D03*
X538000Y278000D02*
D03*
X541000Y351000D02*
D03*
X537000Y294000D02*
D03*
X562610Y375920D02*
D03*
X730250Y553720D02*
D03*
X373000Y390000D02*
D03*
X549000Y531000D02*
D03*
X699770Y669290D02*
D03*
X364490Y407670D02*
D03*
X744220Y671830D02*
D03*
X290830Y306070D02*
D03*
X402353Y51161D02*
D03*
X798869Y469884D02*
D03*
X364000Y254000D02*
D03*
X500000Y350000D02*
D03*
X489000Y416000D02*
D03*
X498000Y592000D02*
D03*
X514000Y661000D02*
D03*
X410000Y235000D02*
D03*
X624000Y177000D02*
D03*
X697000Y168000D02*
D03*
X542000Y177000D02*
D03*
X457000Y205000D02*
D03*
X626000Y526000D02*
D03*
X801000Y517000D02*
D03*
X702000Y611000D02*
D03*
X700124Y563124D02*
D03*
X732000Y705840D02*
D03*
X729000Y686000D02*
D03*
D20*
X754380Y638810D02*
D03*
X713287Y541000D02*
D03*
Y521000D02*
D03*
X712000Y460000D02*
D03*
X713287Y500000D02*
D03*
X711779Y479969D02*
D03*
X694000Y318000D02*
D03*
X315000Y546000D02*
D03*
X804000Y663000D02*
D03*
Y639000D02*
D03*
Y612000D02*
D03*
Y587000D02*
D03*
D64*
X523400Y559000D02*
D03*
X498000D02*
D03*
X472600D02*
D03*
D65*
X498000Y664000D02*
D03*
D66*
X776000Y701000D02*
D03*
X760000D02*
D03*
D67*
X777000Y682000D02*
D03*
X760000D02*
D03*
D68*
X715720Y682650D02*
D03*
Y695350D02*
D03*
Y701700D02*
D03*
Y689000D02*
D03*
X702000Y701700D02*
D03*
Y695350D02*
D03*
Y689000D02*
D03*
Y682650D02*
D03*
D69*
X774000Y588000D02*
D03*
X760000D02*
D03*
X493000Y465000D02*
D03*
X479000D02*
D03*
X568000Y177000D02*
D03*
X582000D02*
D03*
X760000Y570000D02*
D03*
X774000D02*
D03*
X429000Y221000D02*
D03*
X443000D02*
D03*
X736000Y256000D02*
D03*
X750000D02*
D03*
X751001Y238000D02*
D03*
X737000D02*
D03*
X736000Y279000D02*
D03*
X750000D02*
D03*
X695000Y260000D02*
D03*
X709000D02*
D03*
X445000Y344000D02*
D03*
X431000D02*
D03*
X445000Y276000D02*
D03*
X431000D02*
D03*
X709000Y238000D02*
D03*
X723000D02*
D03*
X750000Y296000D02*
D03*
X736000D02*
D03*
D70*
X692250Y650500D02*
D03*
X698750D02*
D03*
X705250D02*
D03*
X711750D02*
D03*
X718250D02*
D03*
X724750D02*
D03*
X731250D02*
D03*
X737750D02*
D03*
X692250Y589500D02*
D03*
X698750D02*
D03*
X705250D02*
D03*
X711750D02*
D03*
X718250D02*
D03*
X724750D02*
D03*
X731250D02*
D03*
X737750D02*
D03*
D71*
X671000Y658000D02*
D03*
Y642000D02*
D03*
D72*
X533000Y510000D02*
D03*
Y478000D02*
D03*
X578000Y510000D02*
D03*
Y478000D02*
D03*
D73*
X477000Y515000D02*
D03*
X496000D02*
D03*
X477000Y495000D02*
D03*
X496000D02*
D03*
D74*
X429000Y254000D02*
D03*
Y240000D02*
D03*
X801000Y487000D02*
D03*
Y501000D02*
D03*
X444000Y240000D02*
D03*
Y254000D02*
D03*
X602000Y165000D02*
D03*
Y179000D02*
D03*
D75*
X571000Y325800D02*
D03*
Y313100D02*
D03*
Y300400D02*
D03*
Y287700D02*
D03*
Y275000D02*
D03*
Y262300D02*
D03*
Y249600D02*
D03*
Y236900D02*
D03*
Y224200D02*
D03*
X479000Y325800D02*
D03*
Y313100D02*
D03*
Y300400D02*
D03*
Y287700D02*
D03*
Y275000D02*
D03*
Y262300D02*
D03*
Y249600D02*
D03*
Y236900D02*
D03*
Y224200D02*
D03*
D76*
X624000Y192728D02*
D03*
Y210000D02*
D03*
X602000Y219272D02*
D03*
Y202000D02*
D03*
D77*
X777000Y525550D02*
D03*
Y512850D02*
D03*
Y500150D02*
D03*
Y487450D02*
D03*
Y474750D02*
D03*
Y462050D02*
D03*
Y449350D02*
D03*
Y436650D02*
D03*
Y423950D02*
D03*
Y411250D02*
D03*
Y398550D02*
D03*
Y385850D02*
D03*
Y373150D02*
D03*
Y360450D02*
D03*
X687000Y525550D02*
D03*
Y512850D02*
D03*
Y500150D02*
D03*
Y487450D02*
D03*
Y474750D02*
D03*
Y462050D02*
D03*
Y449350D02*
D03*
Y436650D02*
D03*
Y423950D02*
D03*
Y411250D02*
D03*
Y398550D02*
D03*
Y385850D02*
D03*
Y373150D02*
D03*
Y360450D02*
D03*
D78*
X672000Y624000D02*
D03*
Y607000D02*
D03*
D79*
X775636Y552000D02*
D03*
X758364D02*
D03*
D80*
X470000Y440750D02*
D03*
X493000D02*
D03*
X516000D02*
D03*
D81*
X493000Y377250D02*
D03*
D82*
X607000Y241950D02*
D03*
Y254650D02*
D03*
Y267350D02*
D03*
Y280050D02*
D03*
X655000Y241950D02*
D03*
Y254650D02*
D03*
Y267350D02*
D03*
Y280050D02*
D03*
D83*
X429000Y320000D02*
D03*
Y298000D02*
D03*
X445000D02*
D03*
Y320000D02*
D03*
D84*
X695000Y299500D02*
D03*
Y280500D02*
D03*
X715000Y290000D02*
D03*
D85*
X704290Y685825D02*
D03*
Y698525D02*
D03*
M02*
