G04*
G04 #@! TF.GenerationSoftware,Altium Limited,Altium Designer,23.8.1 (32)*
G04*
G04 Layer_Color=32768*
%FSLAX44Y44*%
%MOMM*%
G71*
G04*
G04 #@! TF.SameCoordinates,B3540FD7-C173-429B-8219-2738AE0D0CCA*
G04*
G04*
G04 #@! TF.FilePolarity,Positive*
G04*
G01*
G75*
%ADD94C,0.1000*%
%ADD97C,0.0500*%
D94*
X498000Y616000D02*
Y626000D01*
X493000Y621000D02*
X503000D01*
X768000Y696500D02*
Y705500D01*
X763500Y701000D02*
X772500D01*
X752750Y707500D02*
X783250D01*
X752750Y694500D02*
X783250D01*
Y707500D01*
X752750Y694500D02*
Y707500D01*
X763500Y682000D02*
X773500D01*
X768500Y677000D02*
Y687000D01*
X703860Y692175D02*
X713860D01*
X708860Y687175D02*
Y697175D01*
X715000Y615000D02*
Y625000D01*
X710000Y620000D02*
X720000D01*
X664500Y665250D02*
X677500D01*
X664500Y634750D02*
X677500D01*
X664500D02*
Y665250D01*
X677500Y634750D02*
Y665250D01*
X671000Y645500D02*
Y654500D01*
X666500Y650000D02*
X675500D01*
X486500Y510000D02*
Y520000D01*
X481500Y515000D02*
X491500D01*
X525000Y270000D02*
Y280000D01*
X520000Y275000D02*
X530000D01*
X732000Y438000D02*
Y448000D01*
X727000Y443000D02*
X737000D01*
X672000Y610500D02*
Y620500D01*
X667000Y615500D02*
X677000D01*
X493000Y404000D02*
Y414000D01*
X488000Y409000D02*
X498000D01*
X486500Y490000D02*
Y500000D01*
X481500Y495000D02*
X491500D01*
X626000Y261000D02*
X636000D01*
X631000Y256000D02*
Y266000D01*
X437000Y304000D02*
Y314000D01*
X432000Y309000D02*
X442000D01*
X705000Y287500D02*
Y292500D01*
X702500Y290000D02*
X707500D01*
D97*
X443500Y539000D02*
X552500D01*
X443500Y703000D02*
X552500D01*
Y539000D02*
Y703000D01*
X443500Y539000D02*
Y703000D01*
X782500Y674500D02*
Y689500D01*
X754500Y674500D02*
Y689500D01*
X782500D01*
X754500Y674500D02*
X782500D01*
X697700Y708300D02*
X720020D01*
Y676050D02*
Y708300D01*
X697700Y676050D02*
X720020D01*
X697700D02*
Y708300D01*
X778500Y582500D02*
Y593500D01*
X755500Y582500D02*
Y593500D01*
X778500D01*
X755500Y582500D02*
X778500D01*
X762250Y588000D02*
X771750D01*
X767000Y583250D02*
Y592750D01*
X684500Y663500D02*
X745500D01*
X684500Y576500D02*
X745500D01*
X684500D02*
Y663500D01*
X745500Y576500D02*
Y663500D01*
X465000Y502500D02*
X508000D01*
X465000Y527500D02*
X508000D01*
X465000Y502500D02*
Y527500D01*
X508000Y502500D02*
Y527500D01*
X497500Y459500D02*
Y470500D01*
X474500Y459500D02*
Y470500D01*
X497500D01*
X474500Y459500D02*
X497500D01*
X481250Y465000D02*
X490750D01*
X486000Y460250D02*
Y469750D01*
X423500Y258500D02*
X434500D01*
X423500Y235500D02*
X434500D01*
X423500D02*
Y258500D01*
X434500Y235500D02*
Y258500D01*
X429000Y242250D02*
Y251750D01*
X424250Y247000D02*
X433750D01*
X461000Y339000D02*
X589000D01*
X461000Y211000D02*
X589000D01*
Y339000D01*
X461000Y211000D02*
Y339000D01*
X575000Y172250D02*
Y181750D01*
X570250Y177000D02*
X579750D01*
X563500Y171500D02*
X586500D01*
X563500Y182500D02*
X586500D01*
X563500Y171500D02*
Y182500D01*
X586500Y171500D02*
Y182500D01*
X676000Y534500D02*
X788000D01*
X676000Y351500D02*
X788000D01*
Y534500D01*
X676000Y351500D02*
Y534500D01*
X664500Y629500D02*
X679500D01*
X664500Y601500D02*
X679500D01*
X664500D02*
Y629500D01*
X679500Y601500D02*
Y629500D01*
X767000Y565250D02*
Y574750D01*
X762250Y570000D02*
X771750D01*
X755500Y564500D02*
X778500D01*
X755500Y575500D02*
X778500D01*
X755500Y564500D02*
Y575500D01*
X778500Y564500D02*
Y575500D01*
X454500Y456000D02*
X531500D01*
X454500Y362000D02*
X531500D01*
X454500D02*
Y456000D01*
X531500Y362000D02*
Y456000D01*
X796250Y494000D02*
X805750D01*
X801000Y489250D02*
Y498750D01*
X806500Y482500D02*
Y505500D01*
X795500Y482500D02*
Y505500D01*
Y482500D02*
X806500D01*
X795500Y505500D02*
X806500D01*
X465000Y482500D02*
X508000D01*
X465000Y507500D02*
X508000D01*
X465000Y482500D02*
Y507500D01*
X508000Y482500D02*
Y507500D01*
X436000Y216250D02*
Y225750D01*
X431250Y221000D02*
X440750D01*
X424500Y215500D02*
X447500D01*
X424500Y226500D02*
X447500D01*
X424500Y215500D02*
Y226500D01*
X447500Y215500D02*
Y226500D01*
X593500Y233500D02*
Y288500D01*
X668500Y233500D02*
Y288500D01*
X593500Y233500D02*
X668500D01*
X593500Y288500D02*
X668500D01*
X422000Y328000D02*
X452000D01*
Y290000D02*
Y328000D01*
X422000Y290000D02*
X452000D01*
X422000D02*
Y328000D01*
X743000Y251250D02*
Y260750D01*
X738251Y256000D02*
X747750D01*
X731500Y250500D02*
X754500D01*
X731500Y261500D02*
X754500D01*
X731500Y250500D02*
Y261500D01*
X754500Y250500D02*
Y261500D01*
X744000Y233250D02*
Y242750D01*
X739251Y238000D02*
X748750D01*
X732500Y243500D02*
X755501D01*
X732500Y232500D02*
X755501D01*
Y243500D01*
X732500Y232500D02*
Y243500D01*
X743000Y274250D02*
Y283750D01*
X738250Y279000D02*
X747750D01*
X731500Y273500D02*
X754500D01*
X731500Y284500D02*
X754500D01*
X731500Y273500D02*
Y284500D01*
X754500Y273500D02*
Y284500D01*
X702000Y255250D02*
Y264750D01*
X697251Y260000D02*
X706750D01*
X690500Y254500D02*
X713500D01*
X690500Y265500D02*
X713500D01*
X690500Y254500D02*
Y265500D01*
X713500Y254500D02*
Y265500D01*
X690500Y274500D02*
Y305500D01*
Y274500D02*
X719500D01*
X690500Y305500D02*
X719500D01*
Y274500D02*
Y305500D01*
X449500Y338500D02*
Y349500D01*
X426500Y338500D02*
Y349500D01*
X449500D01*
X426500Y338500D02*
X449500D01*
X433250Y344000D02*
X442750D01*
X438000Y339250D02*
Y348750D01*
X449500Y270500D02*
Y281500D01*
X426500Y270500D02*
Y281500D01*
X449500D01*
X426500Y270500D02*
X449500D01*
X433250Y276000D02*
X442750D01*
X438000Y271250D02*
Y280750D01*
X704500Y232500D02*
Y243500D01*
X727500Y232500D02*
Y243500D01*
X704500Y232500D02*
X727500D01*
X704500Y243500D02*
X727500D01*
X711250Y238000D02*
X720750D01*
X716000Y233250D02*
Y242750D01*
X754500Y290500D02*
Y301500D01*
X731500Y290500D02*
Y301500D01*
X754500D01*
X731500Y290500D02*
X754500D01*
X738250Y296000D02*
X747750D01*
X743000Y291250D02*
Y300750D01*
X439250Y247000D02*
X448750D01*
X444000Y242250D02*
Y251750D01*
X449500Y235500D02*
Y258500D01*
X438500Y235500D02*
Y258500D01*
Y235500D02*
X449500D01*
X438500Y258500D02*
X449500D01*
X596500Y160500D02*
X607500D01*
X596500Y183500D02*
X607500D01*
Y160500D02*
Y183500D01*
X596500Y160500D02*
Y183500D01*
X602000Y167250D02*
Y176750D01*
X597250Y172000D02*
X606750D01*
M02*
