G04*
G04 #@! TF.GenerationSoftware,Altium Limited,Altium Designer,23.8.1 (32)*
G04*
G04 Layer_Color=8388736*
%FSLAX44Y44*%
%MOMM*%
G71*
G04*
G04 #@! TF.SameCoordinates,B3540FD7-C173-429B-8219-2738AE0D0CCA*
G04*
G04*
G04 #@! TF.FilePolarity,Negative*
G04*
G01*
G75*
%ADD13C,1.7032*%
%ADD14R,1.7032X1.7032*%
%ADD15C,1.3970*%
%ADD16C,2.7432*%
%ADD17R,1.7032X1.7032*%
%ADD18C,1.7272*%
%ADD19C,1.2192*%
%ADD20C,1.4732*%
D13*
X669500Y688000D02*
D03*
X376200Y28000D02*
D03*
X401600D02*
D03*
X427000D02*
D03*
X315000Y509200D02*
D03*
X340400D02*
D03*
X315000Y483800D02*
D03*
X340400D02*
D03*
X315000Y458400D02*
D03*
X340400D02*
D03*
X315000Y433000D02*
D03*
X340400D02*
D03*
X315000Y407600D02*
D03*
X340400D02*
D03*
X315000Y382200D02*
D03*
X340400D02*
D03*
X315000Y356800D02*
D03*
X340400D02*
D03*
X315000Y331400D02*
D03*
X340400D02*
D03*
X315000Y306000D02*
D03*
X340400D02*
D03*
X315000Y280600D02*
D03*
X340400D02*
D03*
X315000Y255200D02*
D03*
X340400D02*
D03*
X315000Y229800D02*
D03*
X340400D02*
D03*
X315000Y204400D02*
D03*
X340400D02*
D03*
X315000Y179000D02*
D03*
X340400D02*
D03*
X315000Y153600D02*
D03*
X340400D02*
D03*
X315000Y128200D02*
D03*
X340400D02*
D03*
X315000Y102800D02*
D03*
X340400D02*
D03*
X315000Y77400D02*
D03*
X340400D02*
D03*
X315000Y52000D02*
D03*
X340400D02*
D03*
X315000Y26600D02*
D03*
X593500Y586000D02*
D03*
X819000Y52800D02*
D03*
Y78200D02*
D03*
Y103600D02*
D03*
Y129000D02*
D03*
Y154400D02*
D03*
Y179800D02*
D03*
Y205200D02*
D03*
X507600Y90000D02*
D03*
X533000D02*
D03*
X543000Y27000D02*
D03*
X517600D02*
D03*
X492200D02*
D03*
X836930Y283210D02*
D03*
Y308610D02*
D03*
Y334010D02*
D03*
Y359410D02*
D03*
Y384810D02*
D03*
Y410210D02*
D03*
Y435610D02*
D03*
X835660Y638810D02*
D03*
Y613410D02*
D03*
Y588010D02*
D03*
Y562610D02*
D03*
Y537210D02*
D03*
Y511810D02*
D03*
Y486410D02*
D03*
X854000Y52600D02*
D03*
Y78000D02*
D03*
Y103400D02*
D03*
Y128800D02*
D03*
Y154200D02*
D03*
Y179600D02*
D03*
Y205000D02*
D03*
X604400Y63000D02*
D03*
X629800D02*
D03*
X655200D02*
D03*
X680600D02*
D03*
X706000D02*
D03*
X731400D02*
D03*
X756800D02*
D03*
X604520Y26670D02*
D03*
X629920D02*
D03*
X655320D02*
D03*
X680720D02*
D03*
X706120D02*
D03*
X731520D02*
D03*
X756920D02*
D03*
X783000Y258000D02*
D03*
D14*
X598500Y688000D02*
D03*
X452400Y28000D02*
D03*
X664500Y586000D02*
D03*
X558400Y90000D02*
D03*
X568400Y27000D02*
D03*
X782200Y63000D02*
D03*
X782320Y26670D02*
D03*
D15*
X649000Y192740D02*
D03*
Y114000D02*
D03*
Y406044D02*
D03*
Y327304D02*
D03*
Y512696D02*
D03*
Y433956D02*
D03*
Y619348D02*
D03*
Y540608D02*
D03*
Y726000D02*
D03*
Y647260D02*
D03*
Y220652D02*
D03*
Y299392D02*
D03*
D16*
X402620Y153370D02*
D03*
Y366674D02*
D03*
Y473326D02*
D03*
Y579978D02*
D03*
Y686630D02*
D03*
Y260022D02*
D03*
D17*
X340400Y26600D02*
D03*
X819000Y27400D02*
D03*
X836930Y257810D02*
D03*
X835660Y664210D02*
D03*
X854000Y27200D02*
D03*
X783000Y283400D02*
D03*
D18*
X403606Y334518D02*
D03*
X427990Y495300D02*
D03*
X412750Y406400D02*
D03*
D19*
X629666Y264160D02*
D03*
X439420Y204470D02*
D03*
X745661Y563443D02*
D03*
X662940Y462280D02*
D03*
X452120Y440690D02*
D03*
X361950Y303530D02*
D03*
X543741Y458289D02*
D03*
X543304Y229220D02*
D03*
X613000Y314000D02*
D03*
X760000Y661000D02*
D03*
X617220Y228600D02*
D03*
X558000Y199263D02*
D03*
X480060Y208280D02*
D03*
X609600Y477520D02*
D03*
X518160Y248920D02*
D03*
X577850Y356870D02*
D03*
X538000Y278000D02*
D03*
X541000Y351000D02*
D03*
X537000Y294000D02*
D03*
X562610Y375920D02*
D03*
X730250Y553720D02*
D03*
X373000Y390000D02*
D03*
X549000Y531000D02*
D03*
X699770Y669290D02*
D03*
X364490Y407670D02*
D03*
X744220Y671830D02*
D03*
X290830Y306070D02*
D03*
X402353Y51161D02*
D03*
X798869Y469884D02*
D03*
X364000Y254000D02*
D03*
X500000Y350000D02*
D03*
X489000Y416000D02*
D03*
X498000Y592000D02*
D03*
X514000Y661000D02*
D03*
X410000Y235000D02*
D03*
X624000Y177000D02*
D03*
X697000Y168000D02*
D03*
X542000Y177000D02*
D03*
X457000Y205000D02*
D03*
X626000Y526000D02*
D03*
X801000Y517000D02*
D03*
X702000Y611000D02*
D03*
X700124Y563124D02*
D03*
X732000Y705840D02*
D03*
X729000Y686000D02*
D03*
D20*
X754380Y638810D02*
D03*
X713287Y541000D02*
D03*
Y521000D02*
D03*
X712000Y460000D02*
D03*
X713287Y500000D02*
D03*
X711779Y479969D02*
D03*
X694000Y318000D02*
D03*
X315000Y546000D02*
D03*
X804000Y663000D02*
D03*
Y639000D02*
D03*
Y612000D02*
D03*
Y587000D02*
D03*
M02*
