G04*
G04 #@! TF.GenerationSoftware,Altium Limited,Altium Designer,23.8.1 (32)*
G04*
G04 Layer_Physical_Order=6*
G04 Layer_Color=16711680*
%FSLAX44Y44*%
%MOMM*%
G71*
G04*
G04 #@! TF.SameCoordinates,B3540FD7-C173-429B-8219-2738AE0D0CCA*
G04*
G04*
G04 #@! TF.FilePolarity,Positive*
G04*
G01*
G75*
%ADD12C,0.2540*%
%ADD21C,0.7620*%
%ADD22C,0.5080*%
%ADD23C,1.0160*%
%ADD24C,1.5000*%
%ADD25R,1.5000X1.5000*%
%ADD26C,1.1938*%
%ADD27C,2.5400*%
%ADD28R,1.5000X1.5000*%
%ADD29C,1.5240*%
%ADD30C,1.0160*%
%ADD31C,1.2700*%
G04:AMPARAMS|DCode=41|XSize=0.95mm|YSize=3.85mm|CornerRadius=0.0522mm|HoleSize=0mm|Usage=FLASHONLY|Rotation=0.000|XOffset=0mm|YOffset=0mm|HoleType=Round|Shape=RoundedRectangle|*
%AMROUNDEDRECTD41*
21,1,0.9500,3.7455,0,0,0.0*
21,1,0.8455,3.8500,0,0,0.0*
1,1,0.1045,0.4228,-1.8728*
1,1,0.1045,-0.4228,-1.8728*
1,1,0.1045,-0.4228,1.8728*
1,1,0.1045,0.4228,1.8728*
%
%ADD41ROUNDEDRECTD41*%
G04:AMPARAMS|DCode=42|XSize=10.7mm|YSize=7.7mm|CornerRadius=0.0385mm|HoleSize=0mm|Usage=FLASHONLY|Rotation=0.000|XOffset=0mm|YOffset=0mm|HoleType=Round|Shape=RoundedRectangle|*
%AMROUNDEDRECTD42*
21,1,10.7000,7.6230,0,0,0.0*
21,1,10.6230,7.7000,0,0,0.0*
1,1,0.0770,5.3115,-3.8115*
1,1,0.0770,-5.3115,-3.8115*
1,1,0.0770,-5.3115,3.8115*
1,1,0.0770,5.3115,3.8115*
%
%ADD42ROUNDEDRECTD42*%
%ADD43R,0.8000X0.8000*%
%ADD44R,0.8500X1.3000*%
%ADD45R,0.6600X0.4570*%
%ADD46R,0.7000X0.9000*%
G04:AMPARAMS|DCode=47|XSize=0.45mm|YSize=1.6mm|CornerRadius=0.0495mm|HoleSize=0mm|Usage=FLASHONLY|Rotation=180.000|XOffset=0mm|YOffset=0mm|HoleType=Round|Shape=RoundedRectangle|*
%AMROUNDEDRECTD47*
21,1,0.4500,1.5010,0,0,180.0*
21,1,0.3510,1.6000,0,0,180.0*
1,1,0.0990,-0.1755,0.7505*
1,1,0.0990,0.1755,0.7505*
1,1,0.0990,0.1755,-0.7505*
1,1,0.0990,-0.1755,-0.7505*
%
%ADD47ROUNDEDRECTD47*%
%ADD48R,0.8000X0.8000*%
%ADD49R,2.2000X2.0000*%
%ADD50R,1.4000X1.5000*%
%ADD51R,0.9000X0.7000*%
%ADD52O,2.6000X0.7000*%
%ADD53R,1.0160X1.1176*%
%ADD54O,2.0000X0.6000*%
%ADD55R,1.3000X0.8500*%
%ADD56R,1.1176X1.0160*%
G04:AMPARAMS|DCode=57|XSize=1mm|YSize=2.05mm|CornerRadius=0.05mm|HoleSize=0mm|Usage=FLASHONLY|Rotation=180.000|XOffset=0mm|YOffset=0mm|HoleType=Round|Shape=RoundedRectangle|*
%AMROUNDEDRECTD57*
21,1,1.0000,1.9500,0,0,180.0*
21,1,0.9000,2.0500,0,0,180.0*
1,1,0.1000,-0.4500,0.9750*
1,1,0.1000,0.4500,0.9750*
1,1,0.1000,0.4500,-0.9750*
1,1,0.1000,-0.4500,-0.9750*
%
%ADD57ROUNDEDRECTD57*%
G04:AMPARAMS|DCode=58|XSize=3.25mm|YSize=2.05mm|CornerRadius=0.0513mm|HoleSize=0mm|Usage=FLASHONLY|Rotation=180.000|XOffset=0mm|YOffset=0mm|HoleType=Round|Shape=RoundedRectangle|*
%AMROUNDEDRECTD58*
21,1,3.2500,1.9475,0,0,180.0*
21,1,3.1475,2.0500,0,0,180.0*
1,1,0.1025,-1.5738,0.9738*
1,1,0.1025,1.5738,0.9738*
1,1,0.1025,1.5738,-0.9738*
1,1,0.1025,-1.5738,-0.9738*
%
%ADD58ROUNDEDRECTD58*%
%ADD59O,2.2000X0.6000*%
%ADD60R,1.2000X1.4000*%
%ADD61R,0.7000X0.6000*%
%ADD62C,0.3810*%
%ADD63R,1.1180X1.0920*%
G36*
X875538Y761359D02*
X875538Y7918D01*
X874268Y6858D01*
X278269D01*
X277373Y7758D01*
X281432Y757428D01*
X281432Y761749D01*
X874640Y762256D01*
X875538Y761359D01*
D02*
G37*
%LPC*%
G36*
X649000Y733429D02*
X647077Y733176D01*
X645285Y732434D01*
X643747Y731254D01*
X642566Y729715D01*
X641824Y727923D01*
X641571Y726000D01*
X641824Y724077D01*
X642566Y722285D01*
X643747Y720747D01*
X645285Y719566D01*
X647077Y718824D01*
X649000Y718570D01*
X650923Y718824D01*
X652715Y719566D01*
X654253Y720747D01*
X655434Y722285D01*
X656176Y724077D01*
X656430Y726000D01*
X656176Y727923D01*
X655434Y729715D01*
X654253Y731254D01*
X652715Y732434D01*
X650923Y733176D01*
X649000Y733429D01*
D02*
G37*
G36*
X781397Y706397D02*
X770603D01*
Y695603D01*
X773281D01*
Y689897D01*
X771353D01*
Y674103D01*
X782647D01*
Y689897D01*
X778719D01*
Y695603D01*
X781397D01*
Y706397D01*
D02*
G37*
G36*
X844557Y673107D02*
X826763D01*
Y665719D01*
X811259D01*
X810767Y666907D01*
X809525Y668525D01*
X807907Y669767D01*
X806022Y670548D01*
X804000Y670814D01*
X801978Y670548D01*
X800093Y669767D01*
X798475Y668525D01*
X797233Y666907D01*
X796452Y665022D01*
X796186Y663000D01*
X796452Y660978D01*
X797233Y659093D01*
X798475Y657475D01*
X800093Y656233D01*
X801978Y655452D01*
X804000Y655186D01*
X806022Y655452D01*
X807907Y656233D01*
X809525Y657475D01*
X810767Y659093D01*
X811259Y660281D01*
X826763D01*
Y655313D01*
X844557D01*
Y673107D01*
D02*
G37*
G36*
X613000Y733014D02*
X398000D01*
X396464Y732709D01*
X395162Y731838D01*
X369162Y705838D01*
X368291Y704536D01*
X367986Y703000D01*
Y503946D01*
X368291Y502410D01*
X369162Y501108D01*
X390168Y480101D01*
X388886Y477006D01*
X388401Y473326D01*
X388886Y469646D01*
X390306Y466217D01*
X392566Y463272D01*
X395511Y461012D01*
X398940Y459592D01*
X402620Y459107D01*
X406300Y459592D01*
X409729Y461012D01*
X412674Y463272D01*
X414934Y466217D01*
X416354Y469646D01*
X416839Y473326D01*
X416354Y477006D01*
X414934Y480435D01*
X412674Y483380D01*
X409729Y485640D01*
X406300Y487060D01*
X402620Y487545D01*
X398940Y487060D01*
X395845Y485778D01*
X376014Y505609D01*
Y701337D01*
X399663Y724986D01*
X611337D01*
X616986Y719337D01*
Y698000D01*
X617291Y696464D01*
X618162Y695162D01*
X628162Y685162D01*
X629464Y684291D01*
X631000Y683986D01*
X661533D01*
X661729Y683513D01*
X663155Y681655D01*
X665013Y680229D01*
X667178Y679332D01*
X669500Y679026D01*
X671823Y679332D01*
X673987Y680229D01*
X675845Y681655D01*
X677272Y683513D01*
X678168Y685677D01*
X678474Y688000D01*
X678168Y690323D01*
X677972Y690795D01*
X684863Y697686D01*
X697188D01*
Y693065D01*
X697303Y692787D01*
Y691563D01*
X697188Y691285D01*
Y686664D01*
X688650D01*
X687114Y686359D01*
X685812Y685488D01*
X669622Y669298D01*
X668751Y667996D01*
X668706Y667767D01*
X667328Y667349D01*
X660838Y673838D01*
X659536Y674709D01*
X658000Y675014D01*
X634000D01*
X632464Y674709D01*
X631162Y673838D01*
X624162Y666838D01*
X623291Y665536D01*
X622986Y664000D01*
Y621163D01*
X596295Y594472D01*
X595822Y594668D01*
X593500Y594974D01*
X591177Y594668D01*
X589013Y593772D01*
X587154Y592346D01*
X585728Y590487D01*
X584832Y588323D01*
X584526Y586000D01*
X584832Y583677D01*
X585728Y581513D01*
X587154Y579655D01*
X589013Y578229D01*
X591177Y577332D01*
X593500Y577026D01*
X595822Y577332D01*
X597987Y578229D01*
X599845Y579655D01*
X601271Y581513D01*
X602168Y583677D01*
X602474Y586000D01*
X602168Y588323D01*
X601972Y588795D01*
X629838Y616662D01*
X630709Y617964D01*
X631014Y619500D01*
Y662337D01*
X635663Y666986D01*
X656337D01*
X665603Y657720D01*
Y652603D01*
X676397D01*
Y659072D01*
X676474Y659460D01*
Y664797D01*
X690313Y678636D01*
X702000D01*
X703091Y678853D01*
X709801D01*
X709880Y678853D01*
X711023Y678968D01*
X711023Y678968D01*
X713281D01*
Y674126D01*
X709827Y670673D01*
X709238Y669790D01*
X709031Y668750D01*
Y663484D01*
X707762Y663351D01*
X707173Y664233D01*
X705379Y666026D01*
X705871Y666763D01*
X706374Y669290D01*
X705871Y671817D01*
X704440Y673960D01*
X702297Y675391D01*
X699770Y675894D01*
X697243Y675391D01*
X695100Y673960D01*
X693669Y671817D01*
X693166Y669290D01*
X693669Y666763D01*
X695100Y664620D01*
X697243Y663189D01*
X699770Y662686D01*
X700819Y662895D01*
X702121Y661593D01*
X702021Y660689D01*
X702002Y660668D01*
X700820Y659871D01*
X700505Y659934D01*
X696995D01*
X696257Y659787D01*
X695500Y659430D01*
X694743Y659787D01*
X694005Y659934D01*
X690495D01*
X689757Y659787D01*
X689131Y659369D01*
X688713Y658743D01*
X688566Y658005D01*
Y652073D01*
X688542Y652036D01*
X688236Y650500D01*
Y632750D01*
X688542Y631214D01*
X689412Y629911D01*
X693162Y626162D01*
X694464Y625291D01*
X696000Y624986D01*
X723000D01*
X724536Y625291D01*
X725838Y626162D01*
X731000Y631323D01*
X755986Y606337D01*
Y593897D01*
X755103D01*
Y590054D01*
X751586D01*
X750050Y589749D01*
X748747Y588878D01*
X747732Y587863D01*
X746861Y586560D01*
X746556Y585024D01*
Y583323D01*
X743902Y580669D01*
X743639Y580709D01*
X742600Y581995D01*
Y588230D01*
X739020D01*
Y578901D01*
X739505D01*
X740689Y579136D01*
X741237Y579502D01*
X742152Y578586D01*
X741952Y578287D01*
X741647Y576751D01*
Y568551D01*
X740991Y568113D01*
X739560Y565970D01*
X739057Y563443D01*
X739201Y562717D01*
X738396Y561735D01*
X737746D01*
X735758Y563260D01*
X733101Y564361D01*
X730250Y564736D01*
X727399Y564361D01*
X724742Y563260D01*
X722460Y561510D01*
X720710Y559228D01*
X719609Y556571D01*
X719234Y553720D01*
X719609Y550869D01*
X720710Y548212D01*
X722460Y545930D01*
X724742Y544180D01*
X727399Y543079D01*
X729705Y542775D01*
X730138Y542596D01*
X732657Y542265D01*
X746934D01*
Y541078D01*
X759209D01*
X759695Y539905D01*
X737077Y517287D01*
X736488Y516405D01*
X735219Y516537D01*
Y519500D01*
X735012Y520541D01*
X734423Y521423D01*
X719489Y536357D01*
X720054Y537093D01*
X720835Y538978D01*
X721101Y541000D01*
X720835Y543022D01*
X720054Y544907D01*
X718812Y546525D01*
X717194Y547767D01*
X715309Y548548D01*
X713287Y548814D01*
X711265Y548548D01*
X709380Y547767D01*
X707762Y546525D01*
X706645Y545069D01*
X706060Y545113D01*
X705375Y545421D01*
Y547698D01*
X714734Y557057D01*
X715604Y558360D01*
X715910Y559896D01*
Y564104D01*
X715604Y565640D01*
X714734Y566943D01*
X703165Y578512D01*
X703207Y579829D01*
X703495Y580066D01*
X707005D01*
X707743Y580213D01*
X708369Y580631D01*
X708631D01*
X709257Y580213D01*
X709995Y580066D01*
X713505D01*
X714243Y580213D01*
X714869Y580631D01*
X715131D01*
X715757Y580213D01*
X716495Y580066D01*
X720005D01*
X720743Y580213D01*
X721369Y580631D01*
X721631D01*
X722257Y580213D01*
X722995Y580066D01*
X726505D01*
X727243Y580213D01*
X727869Y580631D01*
X728131D01*
X728757Y580213D01*
X729495Y580066D01*
X733005D01*
X733560Y580177D01*
X733807Y579807D01*
X734811Y579136D01*
X735995Y578901D01*
X736480D01*
Y589500D01*
X737750D01*
Y590770D01*
X742600D01*
Y597005D01*
X742364Y598189D01*
X741764Y599087D01*
Y606250D01*
X741459Y607786D01*
X740589Y609088D01*
X735838Y613838D01*
X734536Y614709D01*
X733000Y615014D01*
X708525D01*
X707435Y616435D01*
X705843Y617656D01*
X703989Y618424D01*
X703270Y618519D01*
Y611000D01*
X702000D01*
Y609730D01*
X694481D01*
X694576Y609011D01*
X695038Y607895D01*
X694736Y606375D01*
Y600084D01*
X694005Y598934D01*
X690495D01*
X689757Y598787D01*
X689131Y598369D01*
X688713Y597743D01*
X688566Y597005D01*
Y591493D01*
X687087Y590014D01*
X673397D01*
Y594897D01*
X668514D01*
Y600087D01*
X669780Y601353D01*
X679897D01*
Y612647D01*
X664103D01*
Y607030D01*
X661662Y604588D01*
X660791Y603286D01*
X660486Y601750D01*
Y594897D01*
X655603D01*
Y593604D01*
X640000D01*
X637473Y593101D01*
X635330Y591670D01*
X612265Y568604D01*
X581735D01*
X577604Y572735D01*
Y595265D01*
X603170Y620830D01*
X604601Y622973D01*
X605104Y625500D01*
Y679103D01*
X607397D01*
Y696897D01*
X602514D01*
Y707500D01*
X602209Y709036D01*
X601338Y710339D01*
X592838Y718838D01*
X591536Y719709D01*
X590000Y720014D01*
X431990D01*
X430454Y719709D01*
X429152Y718838D01*
X409395Y699082D01*
X406300Y700364D01*
X402620Y700849D01*
X398940Y700364D01*
X395511Y698944D01*
X392566Y696684D01*
X390306Y693739D01*
X388886Y690310D01*
X388401Y686630D01*
X388886Y682950D01*
X390306Y679521D01*
X392566Y676576D01*
X395511Y674316D01*
X398606Y673034D01*
Y641380D01*
X398912Y639844D01*
X399782Y638541D01*
X445162Y593162D01*
X446464Y592291D01*
X448000Y591986D01*
X461337D01*
X468586Y584737D01*
Y579685D01*
X468372D01*
X467623Y579536D01*
X466989Y579111D01*
X466564Y578476D01*
X466415Y577727D01*
Y540272D01*
X466564Y539524D01*
X466989Y538889D01*
X467623Y538464D01*
X468372Y538315D01*
X470786D01*
Y523897D01*
X468603D01*
Y506103D01*
X472486D01*
Y503897D01*
X468603D01*
Y501754D01*
X434391D01*
X432537Y503176D01*
X430344Y504085D01*
X427990Y504395D01*
X425636Y504085D01*
X423443Y503176D01*
X421559Y501731D01*
X420114Y499847D01*
X419205Y497654D01*
X418895Y495300D01*
X419205Y492946D01*
X420114Y490753D01*
X421559Y488869D01*
X423443Y487424D01*
X425636Y486515D01*
X427990Y486205D01*
X430344Y486515D01*
X432537Y487424D01*
X434000Y488546D01*
X468603D01*
Y486103D01*
X476587D01*
X477018Y484833D01*
X476412Y484368D01*
X473022Y480978D01*
X471678Y479227D01*
X471328Y478382D01*
X470834Y477188D01*
X470591Y475342D01*
X469658D01*
Y471126D01*
X467813Y470362D01*
X466062Y469018D01*
X464022Y466978D01*
X462678Y465227D01*
X462328Y464383D01*
X461833Y463188D01*
X461545Y461000D01*
Y455485D01*
X460928Y455072D01*
X459526Y452975D01*
X459077Y450719D01*
X457938Y449992D01*
X457628Y450230D01*
X454971Y451331D01*
X452120Y451706D01*
X449269Y451331D01*
X446612Y450230D01*
X444330Y448480D01*
X442580Y446198D01*
X441479Y443541D01*
X441104Y440690D01*
X441479Y437839D01*
X442580Y435182D01*
X444330Y432900D01*
X446612Y431150D01*
X449269Y430049D01*
X452120Y429674D01*
X454971Y430049D01*
X457628Y431150D01*
X457910Y431366D01*
X459098Y430677D01*
X459526Y428526D01*
X460928Y426428D01*
X463025Y425026D01*
X465500Y424534D01*
X474500D01*
X476974Y425026D01*
X479072Y426428D01*
X480474Y428526D01*
X480966Y431000D01*
Y450500D01*
X480474Y452975D01*
X480097Y453538D01*
X480696Y454658D01*
X487312D01*
X487437Y453388D01*
X487314Y453364D01*
X486308Y452692D01*
X485636Y451686D01*
X485401Y450500D01*
Y442020D01*
X493000D01*
X500600D01*
Y450500D01*
X500364Y451686D01*
X499692Y452692D01*
X498686Y453364D01*
X497500Y453600D01*
X497014D01*
Y457960D01*
X499040D01*
Y463730D01*
X493000D01*
Y466270D01*
X499040D01*
Y469936D01*
X502940D01*
X503186Y469834D01*
X505374Y469546D01*
X516158D01*
Y462158D01*
X524546D01*
Y461410D01*
X524834Y459222D01*
X525328Y458027D01*
X525678Y457183D01*
X527022Y455432D01*
X531232Y451222D01*
X532983Y449878D01*
X535022Y449034D01*
X537210Y448746D01*
X538086Y448861D01*
X538233Y448749D01*
X540890Y447648D01*
X543741Y447273D01*
X546592Y447648D01*
X549249Y448749D01*
X551531Y450499D01*
X553281Y452781D01*
X554382Y455438D01*
X554757Y458289D01*
X554382Y461140D01*
X553281Y463797D01*
X551531Y466079D01*
X549842Y467374D01*
Y493842D01*
X516158D01*
Y486454D01*
X507418D01*
X507172Y486556D01*
X505540Y486771D01*
Y493730D01*
X496000D01*
Y496270D01*
X505540D01*
Y504960D01*
X505540D01*
Y508396D01*
X519460D01*
Y497460D01*
X531730D01*
Y510000D01*
X534270D01*
Y497460D01*
X546540D01*
Y503396D01*
X564460D01*
Y497460D01*
X576730D01*
Y510000D01*
Y522540D01*
X564460D01*
Y516604D01*
X551603D01*
X551116Y517777D01*
X553670Y520330D01*
X555101Y522473D01*
X555604Y525000D01*
Y527089D01*
X555656Y527157D01*
X556424Y529011D01*
X556519Y529730D01*
X541481D01*
X541576Y529011D01*
X542190Y527529D01*
X537201Y522540D01*
X534309D01*
Y529000D01*
X534309Y529000D01*
X533905Y531032D01*
X532754Y532754D01*
X532754Y532754D01*
X529248Y536260D01*
X529237Y536288D01*
X529478Y537826D01*
X529835Y538064D01*
X530512Y539077D01*
X530750Y540272D01*
Y557730D01*
X516050D01*
Y540272D01*
X516288Y539077D01*
X516964Y538064D01*
X517691Y537579D01*
Y535000D01*
X517691Y535000D01*
X518095Y532968D01*
X519246Y531246D01*
X523691Y526801D01*
Y522540D01*
X519460D01*
Y521604D01*
X505540D01*
Y525040D01*
X497270D01*
Y515000D01*
X494730D01*
Y525040D01*
X486460D01*
Y524396D01*
X485397Y523897D01*
X478814D01*
Y556800D01*
X478785Y556948D01*
Y577727D01*
X478636Y578476D01*
X478211Y579111D01*
X477576Y579536D01*
X476828Y579685D01*
X476614D01*
Y586400D01*
X476309Y587936D01*
X475438Y589238D01*
X465838Y598838D01*
X464536Y599709D01*
X463000Y600014D01*
X449663D01*
X406634Y643043D01*
Y673034D01*
X409729Y674316D01*
X412674Y676576D01*
X414934Y679521D01*
X416354Y682950D01*
X416839Y686630D01*
X416354Y690310D01*
X415072Y693405D01*
X433653Y711986D01*
X588337D01*
X594486Y705837D01*
Y696897D01*
X589603D01*
Y679103D01*
X591896D01*
Y628235D01*
X566330Y602670D01*
X564899Y600527D01*
X564396Y598000D01*
Y570000D01*
X564899Y567473D01*
X566330Y565330D01*
X574330Y557330D01*
X576473Y555899D01*
X579000Y555396D01*
X615000D01*
X617527Y555899D01*
X619670Y557330D01*
X642735Y580396D01*
X655603D01*
Y577103D01*
X673397D01*
Y581986D01*
X688236D01*
Y572373D01*
X688542Y570836D01*
X689412Y569534D01*
X693902Y565044D01*
X693520Y563124D01*
X694023Y560597D01*
X695454Y558454D01*
X697597Y557023D01*
X700124Y556520D01*
X701276Y556749D01*
X701902Y555579D01*
X698522Y552199D01*
X697652Y550896D01*
X697346Y549360D01*
Y530130D01*
X696076Y529451D01*
X695716Y529692D01*
X694000Y530033D01*
X692309D01*
Y539000D01*
X692309Y539000D01*
X691905Y541032D01*
X690754Y542754D01*
X667754Y565754D01*
X666032Y566905D01*
X664000Y567309D01*
X664000Y567309D01*
X643000D01*
X643000Y567309D01*
X640968Y566905D01*
X639246Y565754D01*
X622246Y548754D01*
X621095Y547032D01*
X620691Y545000D01*
X620691Y545000D01*
Y529713D01*
X619899Y528527D01*
X619396Y526000D01*
X619899Y523473D01*
X621330Y521330D01*
X623473Y519899D01*
X626000Y519396D01*
X628527Y519899D01*
X630670Y521330D01*
X632101Y523473D01*
X632604Y526000D01*
X632101Y528527D01*
X631309Y529713D01*
Y542801D01*
X645199Y556691D01*
X661801D01*
X681691Y536801D01*
Y530033D01*
X680000D01*
X678285Y529692D01*
X676830Y528720D01*
X675858Y527266D01*
X675517Y525550D01*
X675858Y523834D01*
X676830Y522380D01*
X678285Y521408D01*
X680000Y521067D01*
X684337D01*
X684968Y520645D01*
X687000Y520241D01*
X689032Y520645D01*
X689663Y521067D01*
X694000D01*
X695716Y521408D01*
X696076Y521649D01*
X697346Y520970D01*
Y517430D01*
X696076Y516751D01*
X695716Y516992D01*
X694000Y517333D01*
X689663D01*
X689032Y517755D01*
X687000Y518159D01*
X669850D01*
X669850Y518159D01*
X667818Y517755D01*
X666096Y516604D01*
X519246Y369754D01*
X518095Y368032D01*
X517691Y366000D01*
X517691Y366000D01*
Y271000D01*
X517691Y271000D01*
X518095Y268968D01*
X519246Y267246D01*
X527946Y258546D01*
X529668Y257395D01*
X531700Y256991D01*
X531700Y256991D01*
X571000D01*
X572589Y257307D01*
X580500D01*
X582411Y257687D01*
X584030Y258769D01*
X585113Y260389D01*
X585164Y260646D01*
X586553Y261122D01*
X587749Y260204D01*
X589788Y259360D01*
X591976Y259072D01*
X593764D01*
X594443Y257802D01*
X593782Y256812D01*
X593604Y255920D01*
X607000D01*
Y254650D01*
X608270D01*
Y249002D01*
X615000D01*
X617162Y249431D01*
X618994Y250656D01*
X619098Y250812D01*
X623011D01*
X624547Y251117D01*
X625849Y251988D01*
X630437Y256576D01*
X631655Y256736D01*
X633509Y257504D01*
X635101Y258725D01*
X636091Y260016D01*
X637361Y259660D01*
Y236076D01*
X622077Y220793D01*
X621488Y219911D01*
X621281Y218870D01*
Y216985D01*
X617523D01*
Y203015D01*
X630477D01*
Y216985D01*
X627757D01*
X627231Y218255D01*
X642003Y233027D01*
X642003Y233027D01*
X642592Y233909D01*
X642799Y234950D01*
X642799Y234950D01*
Y238057D01*
X643204Y238341D01*
X644069Y238620D01*
X645284Y237808D01*
X647000Y237467D01*
X663000D01*
X664716Y237808D01*
X666170Y238780D01*
X666471Y239231D01*
X670950D01*
X671991Y239438D01*
X672873Y240027D01*
X688930Y256084D01*
X690103Y255598D01*
Y254103D01*
X699897D01*
Y265897D01*
X690103D01*
Y262719D01*
X689000D01*
X687959Y262512D01*
X687077Y261923D01*
X669824Y244669D01*
X666471D01*
X666170Y245120D01*
X664716Y246092D01*
X663000Y246433D01*
X647000D01*
X645284Y246092D01*
X644069Y245280D01*
X643204Y245559D01*
X642799Y245843D01*
Y250758D01*
X643204Y251041D01*
X644069Y251320D01*
X645284Y250508D01*
X647000Y250167D01*
X663000D01*
X664716Y250508D01*
X666170Y251480D01*
X666471Y251931D01*
X671650D01*
X672691Y252138D01*
X673573Y252727D01*
X685923Y265077D01*
X686512Y265959D01*
X686719Y267000D01*
Y275874D01*
X688626Y277781D01*
X690103D01*
Y276103D01*
X699897D01*
Y277781D01*
X701500D01*
X702541Y277988D01*
X703423Y278577D01*
X706923Y282077D01*
X706923Y282077D01*
X707512Y282959D01*
X707691Y283859D01*
X708839Y284387D01*
X709749Y283952D01*
X709986Y283799D01*
Y273663D01*
X707122Y270798D01*
X706251Y269496D01*
X705946Y267960D01*
Y267040D01*
X702960D01*
Y261270D01*
X709000D01*
X715040D01*
Y267040D01*
X715040Y267040D01*
X715040D01*
X715693Y268016D01*
X716838Y269162D01*
X717709Y270464D01*
X718014Y272000D01*
Y284460D01*
X721040D01*
Y289863D01*
X723163Y291986D01*
X729960D01*
Y288960D01*
X734730D01*
Y296000D01*
X736000D01*
Y297270D01*
X742040D01*
X742040Y303040D01*
X743210Y303281D01*
X769874D01*
X779587Y293567D01*
X779061Y292297D01*
X774103D01*
Y286119D01*
X772400D01*
X771359Y285912D01*
X770477Y285323D01*
X755374Y270219D01*
X738719D01*
Y273103D01*
X740897D01*
Y284897D01*
X731103D01*
Y273103D01*
X733280D01*
Y261897D01*
X731103D01*
Y250103D01*
X740897D01*
Y261897D01*
X738719D01*
Y264781D01*
X756500D01*
X757541Y264988D01*
X758423Y265577D01*
X772833Y279987D01*
X774103Y279461D01*
Y274503D01*
X791897D01*
Y292297D01*
X785719D01*
Y294000D01*
X785512Y295041D01*
X784923Y295923D01*
X784923Y295923D01*
X772923Y307923D01*
X772041Y308512D01*
X771000Y308719D01*
X714000D01*
X714000Y308719D01*
X712959Y308512D01*
X712077Y307923D01*
X703077Y298923D01*
X702488Y298041D01*
X702281Y297000D01*
Y285126D01*
X701167Y284013D01*
X699897Y284539D01*
Y284897D01*
X690103D01*
Y283219D01*
X687500D01*
X686459Y283012D01*
X685577Y282423D01*
X682077Y278923D01*
X681488Y278041D01*
X681281Y277000D01*
Y268126D01*
X670524Y257369D01*
X666471D01*
X666170Y257820D01*
X664716Y258792D01*
X663000Y259133D01*
X647000D01*
X645284Y258792D01*
X644069Y257980D01*
X643204Y258259D01*
X642799Y258543D01*
Y263458D01*
X643204Y263741D01*
X644069Y264020D01*
X645284Y263208D01*
X647000Y262867D01*
X663000D01*
X664716Y263208D01*
X666170Y264180D01*
X666471Y264631D01*
X670350D01*
X671391Y264838D01*
X672273Y265427D01*
X678923Y272077D01*
X678923Y272077D01*
X679512Y272959D01*
X679719Y274000D01*
X679719Y274000D01*
Y292874D01*
X683626Y296781D01*
X690103D01*
Y295103D01*
X699897D01*
Y303897D01*
X697219D01*
Y310948D01*
X697907Y311233D01*
X699525Y312475D01*
X700767Y314093D01*
X701548Y315978D01*
X701814Y318000D01*
X701548Y320022D01*
X700767Y321907D01*
X699525Y323525D01*
X697907Y324767D01*
X696022Y325548D01*
X694000Y325814D01*
X691978Y325548D01*
X690093Y324767D01*
X688475Y323525D01*
X687233Y321907D01*
X686452Y320022D01*
X686186Y318000D01*
X686452Y315978D01*
X687233Y314093D01*
X688475Y312475D01*
X690093Y311233D01*
X691781Y310534D01*
Y303897D01*
X690103D01*
Y302219D01*
X682500D01*
X682500Y302219D01*
X681460Y302012D01*
X680577Y301423D01*
X675077Y295923D01*
X674488Y295041D01*
X674281Y294000D01*
Y275126D01*
X669224Y270069D01*
X666471D01*
X666170Y270520D01*
X664716Y271492D01*
X663000Y271833D01*
X647000D01*
X645284Y271492D01*
X644069Y270680D01*
X643204Y270959D01*
X642799Y271243D01*
Y273812D01*
X642592Y274853D01*
X642003Y275735D01*
X635765Y281973D01*
X634883Y282562D01*
X633842Y282769D01*
X630868D01*
X630788Y282888D01*
X629486Y283759D01*
X627950Y284064D01*
X616907D01*
X616716Y284192D01*
X615000Y284533D01*
X599000D01*
X598436Y284421D01*
X597454Y285227D01*
Y286498D01*
X614082Y303126D01*
X615851Y303359D01*
X618508Y304460D01*
X620790Y306210D01*
X622540Y308492D01*
X623641Y311149D01*
X624016Y314000D01*
X623641Y316851D01*
X622540Y319508D01*
X620790Y321790D01*
X618508Y323540D01*
X615851Y324641D01*
X613000Y325016D01*
X610149Y324641D01*
X607492Y323540D01*
X605210Y321790D01*
X603460Y319508D01*
X602359Y316851D01*
X602126Y315082D01*
X586625Y299581D01*
X585454Y300207D01*
X585493Y300400D01*
X585113Y302311D01*
X584030Y303930D01*
X582411Y305013D01*
X580500Y305393D01*
X561500D01*
X559589Y305013D01*
X557969Y303930D01*
X557828Y303719D01*
X548126D01*
X543719Y308126D01*
Y345027D01*
X545670Y346330D01*
X547101Y348473D01*
X547604Y351000D01*
X547101Y353527D01*
X545670Y355670D01*
X543527Y357101D01*
X541000Y357604D01*
X538473Y357101D01*
X536330Y355670D01*
X534899Y353527D01*
X534396Y351000D01*
X534899Y348473D01*
X536330Y346330D01*
X538281Y345027D01*
Y307000D01*
X538488Y305959D01*
X539077Y305077D01*
X545077Y299077D01*
X545077Y299077D01*
X545959Y298488D01*
X547000Y298281D01*
X547000Y298281D01*
X557026D01*
X557969Y296870D01*
X559589Y295787D01*
X561500Y295407D01*
X580500D01*
X581070Y295520D01*
X581786Y294368D01*
X581678Y294227D01*
X581002Y292593D01*
X580500Y292693D01*
X561500D01*
X559589Y292313D01*
X557969Y291231D01*
X557427Y290419D01*
X544426D01*
X543146Y291699D01*
X543604Y294000D01*
X543101Y296527D01*
X541670Y298670D01*
X539527Y300101D01*
X537000Y300604D01*
X534473Y300101D01*
X532330Y298670D01*
X530899Y296527D01*
X530396Y294000D01*
X530899Y291473D01*
X532330Y289330D01*
X534473Y287899D01*
X537000Y287396D01*
X539301Y287854D01*
X541377Y285777D01*
X542259Y285188D01*
X543300Y284981D01*
X543300Y284981D01*
X557427D01*
X557969Y284170D01*
X559589Y283087D01*
X561500Y282707D01*
X580500D01*
X580546Y282670D01*
Y280030D01*
X580500Y279993D01*
X561500D01*
X559589Y279613D01*
X557969Y278531D01*
X557427Y277719D01*
X544834D01*
X544604Y278000D01*
X544101Y280527D01*
X542670Y282670D01*
X540527Y284101D01*
X538000Y284604D01*
X535473Y284101D01*
X533330Y282670D01*
X531899Y280527D01*
X531396Y278000D01*
X531899Y275473D01*
X533330Y273330D01*
X535473Y271899D01*
X538000Y271396D01*
X540527Y271899D01*
X541099Y272281D01*
X557427D01*
X557969Y271469D01*
X559589Y270387D01*
X561500Y270007D01*
X580500D01*
X580622Y269919D01*
X580806Y268527D01*
X580758Y268333D01*
X580570Y268031D01*
X579882Y267293D01*
X572589D01*
X571000Y267609D01*
X533899D01*
X528309Y273199D01*
Y363801D01*
X672049Y507541D01*
X687000D01*
X689032Y507945D01*
X689663Y508367D01*
X694000D01*
X695716Y508708D01*
X696076Y508949D01*
X697346Y508270D01*
Y504730D01*
X696076Y504051D01*
X695716Y504292D01*
X694000Y504633D01*
X680000D01*
X678285Y504292D01*
X676830Y503320D01*
X676529Y502869D01*
X670330D01*
X670330Y502869D01*
X669289Y502662D01*
X668407Y502073D01*
X668407Y502073D01*
X612757Y446423D01*
X612168Y445541D01*
X611961Y444500D01*
Y429116D01*
X564911Y382066D01*
X562610Y382524D01*
X560083Y382021D01*
X557940Y380590D01*
X556509Y378447D01*
X556006Y375920D01*
X556509Y373393D01*
X557940Y371250D01*
X560083Y369819D01*
X562610Y369316D01*
X565137Y369819D01*
X567280Y371250D01*
X568711Y373393D01*
X569214Y375920D01*
X568756Y378221D01*
X616603Y426067D01*
X617192Y426949D01*
X617399Y427990D01*
X617399Y427990D01*
Y443374D01*
X671456Y497431D01*
X676529D01*
X676830Y496980D01*
X678285Y496008D01*
X680000Y495667D01*
X694000D01*
X695716Y496008D01*
X696076Y496249D01*
X697346Y495570D01*
Y492030D01*
X696076Y491351D01*
X695716Y491592D01*
X694000Y491933D01*
X680000D01*
X678285Y491592D01*
X676830Y490620D01*
X676529Y490169D01*
X669060D01*
X668019Y489962D01*
X667137Y489373D01*
X621647Y443883D01*
X621058Y443001D01*
X620851Y441960D01*
Y424036D01*
X575927Y379113D01*
X575338Y378231D01*
X575131Y377190D01*
Y362843D01*
X573180Y361540D01*
X571749Y359397D01*
X571246Y356870D01*
X571749Y354343D01*
X573180Y352200D01*
X575323Y350769D01*
X577850Y350266D01*
X580377Y350769D01*
X582520Y352200D01*
X583951Y354343D01*
X584454Y356870D01*
X583951Y359397D01*
X582520Y361540D01*
X580569Y362843D01*
Y376064D01*
X625493Y420987D01*
X625493Y420987D01*
X626082Y421869D01*
X626289Y422910D01*
Y440834D01*
X650937Y465481D01*
X652196Y465135D01*
X652286Y465035D01*
X651924Y462280D01*
X652299Y459429D01*
X653400Y456772D01*
X655150Y454490D01*
X657432Y452740D01*
X660089Y451639D01*
X662940Y451264D01*
X665791Y451639D01*
X667422Y452315D01*
X675346D01*
X675945Y451194D01*
X675858Y451065D01*
X675517Y449350D01*
X675858Y447634D01*
X676830Y446180D01*
X678285Y445208D01*
X680000Y444867D01*
X694000D01*
X695716Y445208D01*
X697170Y446180D01*
X697471Y446631D01*
X701524D01*
X744281Y403874D01*
Y363160D01*
X744488Y362119D01*
X745077Y361237D01*
X755430Y350885D01*
X755011Y349507D01*
X754604Y349426D01*
X742799Y361231D01*
Y401920D01*
X742592Y402961D01*
X742003Y403843D01*
X707273Y438573D01*
X706391Y439162D01*
X705350Y439369D01*
X697471D01*
X697170Y439820D01*
X695716Y440792D01*
X694000Y441133D01*
X680000D01*
X678285Y440792D01*
X676830Y439820D01*
X675858Y438366D01*
X675517Y436650D01*
X675858Y434934D01*
X676830Y433480D01*
X678285Y432508D01*
X680000Y432167D01*
X694000D01*
X695716Y432508D01*
X697170Y433480D01*
X697471Y433931D01*
X704224D01*
X710546Y427608D01*
X710392Y427273D01*
X709798Y426561D01*
X709000Y426719D01*
X697438D01*
X697170Y427120D01*
X695716Y428092D01*
X694000Y428433D01*
X680000D01*
X678285Y428092D01*
X676830Y427120D01*
X675858Y425666D01*
X675517Y423950D01*
X675858Y422234D01*
X676830Y420780D01*
X678285Y419808D01*
X680000Y419467D01*
X694000D01*
X695716Y419808D01*
X697170Y420780D01*
X697505Y421281D01*
X707874D01*
X732281Y396874D01*
Y394545D01*
X731011Y394019D01*
X712107Y412923D01*
X711225Y413512D01*
X710184Y413719D01*
X697638D01*
X697170Y414420D01*
X695716Y415392D01*
X694000Y415733D01*
X680000D01*
X678285Y415392D01*
X676830Y414420D01*
X675858Y412966D01*
X675517Y411250D01*
X675858Y409534D01*
X676830Y408080D01*
X678285Y407108D01*
X680000Y406767D01*
X694000D01*
X695716Y407108D01*
X697170Y408080D01*
X697304Y408281D01*
X709058D01*
X714799Y402539D01*
X714273Y401269D01*
X697471D01*
X697170Y401720D01*
X695716Y402692D01*
X694000Y403033D01*
X680000D01*
X678285Y402692D01*
X676830Y401720D01*
X675858Y400266D01*
X675517Y398550D01*
X675858Y396834D01*
X676830Y395380D01*
X678285Y394408D01*
X680000Y394067D01*
X694000D01*
X695716Y394408D01*
X697170Y395380D01*
X697471Y395831D01*
X714324D01*
X722121Y388034D01*
Y380521D01*
X720851Y379995D01*
X713073Y387773D01*
X712191Y388362D01*
X711150Y388569D01*
X697471D01*
X697170Y389020D01*
X695716Y389992D01*
X694000Y390333D01*
X680000D01*
X678285Y389992D01*
X676830Y389020D01*
X675858Y387565D01*
X675517Y385850D01*
X675858Y384134D01*
X676830Y382680D01*
X678285Y381708D01*
X680000Y381367D01*
X694000D01*
X695716Y381708D01*
X697170Y382680D01*
X697471Y383131D01*
X710024D01*
X717041Y376114D01*
Y344240D01*
X717248Y343200D01*
X717837Y342317D01*
X736325Y323829D01*
X735799Y322559D01*
X734286D01*
X712719Y344127D01*
Y369000D01*
X712512Y370041D01*
X711923Y370923D01*
X711923Y370923D01*
X707773Y375073D01*
X706891Y375662D01*
X705850Y375869D01*
X697471D01*
X697170Y376320D01*
X695716Y377292D01*
X694000Y377633D01*
X680000D01*
X678285Y377292D01*
X676830Y376320D01*
X675858Y374865D01*
X675517Y373150D01*
X675858Y371434D01*
X676830Y369980D01*
X678285Y369008D01*
X680000Y368667D01*
X694000D01*
X695716Y369008D01*
X697170Y369980D01*
X697471Y370431D01*
X704724D01*
X707281Y367874D01*
Y343000D01*
X707488Y341960D01*
X708077Y341077D01*
X730405Y318749D01*
X729879Y317479D01*
X720366D01*
X689719Y348126D01*
Y355967D01*
X694000D01*
X695716Y356308D01*
X697170Y357280D01*
X698142Y358734D01*
X698483Y360450D01*
X698142Y362165D01*
X697170Y363620D01*
X695716Y364592D01*
X694000Y364933D01*
X680000D01*
X678285Y364592D01*
X676830Y363620D01*
X675858Y362165D01*
X675517Y360450D01*
X675858Y358734D01*
X676830Y357280D01*
X678285Y356308D01*
X680000Y355967D01*
X684281D01*
Y347000D01*
X684488Y345959D01*
X685077Y345077D01*
X717317Y312837D01*
X717317Y312837D01*
X718199Y312248D01*
X719240Y312041D01*
X719240Y312041D01*
X784114D01*
X797281Y298874D01*
Y275000D01*
X797488Y273959D01*
X798077Y273077D01*
X815267Y255887D01*
X816149Y255298D01*
X817190Y255091D01*
X817190Y255091D01*
X828033D01*
Y248913D01*
X845827D01*
Y266707D01*
X828033D01*
Y260529D01*
X818316D01*
X802719Y276126D01*
Y300000D01*
X802719Y300000D01*
X802561Y300798D01*
X803276Y301393D01*
X803608Y301546D01*
X823867Y281287D01*
X824749Y280698D01*
X825790Y280491D01*
X828426D01*
X829158Y278723D01*
X830585Y276865D01*
X832443Y275438D01*
X834607Y274542D01*
X836930Y274236D01*
X839253Y274542D01*
X841417Y275438D01*
X843275Y276865D01*
X844702Y278723D01*
X845598Y280887D01*
X845904Y283210D01*
X845598Y285533D01*
X844702Y287697D01*
X843275Y289555D01*
X841417Y290982D01*
X839253Y291878D01*
X836930Y292184D01*
X834607Y291878D01*
X832443Y290982D01*
X830585Y289555D01*
X829158Y287697D01*
X828426Y285929D01*
X826916D01*
X808105Y304740D01*
X808731Y305911D01*
X808831Y305891D01*
X828426D01*
X829158Y304123D01*
X830585Y302265D01*
X832443Y300839D01*
X834607Y299942D01*
X836930Y299636D01*
X839253Y299942D01*
X841417Y300839D01*
X843275Y302265D01*
X844702Y304123D01*
X845598Y306287D01*
X845904Y308610D01*
X845598Y310933D01*
X844702Y313097D01*
X843275Y314955D01*
X841417Y316381D01*
X839253Y317278D01*
X836930Y317584D01*
X834607Y317278D01*
X832443Y316381D01*
X830585Y314955D01*
X829158Y313097D01*
X828426Y311329D01*
X809958D01*
X795276Y326011D01*
X795802Y327281D01*
X829548D01*
X830589Y327488D01*
X830710Y327569D01*
X832443Y326239D01*
X834607Y325342D01*
X836930Y325036D01*
X839253Y325342D01*
X841417Y326239D01*
X843275Y327665D01*
X844702Y329523D01*
X845598Y331687D01*
X845904Y334010D01*
X845598Y336333D01*
X844702Y338497D01*
X843275Y340355D01*
X841417Y341782D01*
X839253Y342678D01*
X836930Y342984D01*
X834607Y342678D01*
X832443Y341782D01*
X830585Y340355D01*
X829158Y338497D01*
X828262Y336333D01*
X827956Y334010D01*
X828000Y333674D01*
X827163Y332719D01*
X805216D01*
X804831Y333989D01*
X804843Y333997D01*
X826746Y355901D01*
X828754D01*
X829158Y354923D01*
X830585Y353065D01*
X832443Y351638D01*
X834607Y350742D01*
X836930Y350436D01*
X839253Y350742D01*
X841417Y351638D01*
X843275Y353065D01*
X844702Y354923D01*
X845598Y357087D01*
X845904Y359410D01*
X845598Y361733D01*
X844702Y363897D01*
X843275Y365755D01*
X841417Y367182D01*
X839253Y368078D01*
X836930Y368384D01*
X834607Y368078D01*
X832443Y367182D01*
X830585Y365755D01*
X829158Y363897D01*
X828262Y361733D01*
X828210Y361339D01*
X825620D01*
X825620Y361339D01*
X824822Y361181D01*
X824228Y361893D01*
X824073Y362228D01*
X829196Y367350D01*
X829196Y367350D01*
X829785Y368232D01*
X829992Y369273D01*
Y374027D01*
X832840Y376874D01*
X834607Y376142D01*
X836930Y375836D01*
X839253Y376142D01*
X841417Y377038D01*
X843275Y378465D01*
X844702Y380323D01*
X845598Y382487D01*
X845904Y384810D01*
X845598Y387133D01*
X844702Y389297D01*
X843275Y391155D01*
X841417Y392581D01*
X839253Y393478D01*
X836930Y393784D01*
X834607Y393478D01*
X832443Y392581D01*
X830585Y391155D01*
X829158Y389297D01*
X828262Y387133D01*
X827956Y384810D01*
X828262Y382487D01*
X828994Y380720D01*
X826182Y377908D01*
X824912Y378434D01*
Y394347D01*
X832840Y402274D01*
X834607Y401542D01*
X836930Y401236D01*
X839253Y401542D01*
X841417Y402439D01*
X843275Y403865D01*
X844702Y405723D01*
X845598Y407887D01*
X845904Y410210D01*
X845598Y412533D01*
X844702Y414697D01*
X843275Y416555D01*
X841417Y417981D01*
X839253Y418878D01*
X836930Y419184D01*
X834607Y418878D01*
X832443Y417981D01*
X830585Y416555D01*
X829158Y414697D01*
X828262Y412533D01*
X827956Y410210D01*
X828262Y407887D01*
X828994Y406120D01*
X821102Y398228D01*
X819832Y398754D01*
Y414667D01*
X832840Y427674D01*
X834607Y426942D01*
X836930Y426636D01*
X839253Y426942D01*
X841417Y427839D01*
X843275Y429265D01*
X844702Y431123D01*
X845598Y433287D01*
X845904Y435610D01*
X845598Y437933D01*
X844702Y440097D01*
X843275Y441955D01*
X841417Y443382D01*
X839253Y444278D01*
X836930Y444584D01*
X834607Y444278D01*
X832443Y443382D01*
X830585Y441955D01*
X829158Y440097D01*
X828262Y437933D01*
X827956Y435610D01*
X828262Y433287D01*
X828994Y431520D01*
X816022Y418548D01*
X814752Y419074D01*
Y439907D01*
X837583Y462737D01*
X838172Y463619D01*
X838379Y464660D01*
Y477906D01*
X840147Y478638D01*
X842005Y480065D01*
X843431Y481923D01*
X844328Y484087D01*
X844634Y486410D01*
X844328Y488733D01*
X843431Y490897D01*
X842005Y492755D01*
X840147Y494182D01*
X837983Y495078D01*
X835660Y495384D01*
X833337Y495078D01*
X831173Y494182D01*
X829315Y492755D01*
X827888Y490897D01*
X826992Y488733D01*
X826686Y486410D01*
X826992Y484087D01*
X827888Y481923D01*
X829315Y480065D01*
X831173Y478638D01*
X832941Y477906D01*
Y465786D01*
X825989Y458835D01*
X824719Y459361D01*
Y502874D01*
X824960Y503115D01*
X826312D01*
X827353Y503321D01*
X828235Y503911D01*
X829583Y505259D01*
X831173Y504039D01*
X833337Y503142D01*
X835660Y502836D01*
X837983Y503142D01*
X840147Y504039D01*
X842005Y505465D01*
X843431Y507323D01*
X844328Y509487D01*
X844634Y511810D01*
X844328Y514133D01*
X843431Y516297D01*
X842005Y518155D01*
X840147Y519581D01*
X837983Y520478D01*
X835660Y520784D01*
X833337Y520478D01*
X831173Y519581D01*
X829315Y518155D01*
X827888Y516297D01*
X826992Y514133D01*
X826686Y511810D01*
X826891Y510258D01*
X825186Y508553D01*
X823834D01*
X823834Y508553D01*
X822793Y508346D01*
X821911Y507757D01*
X821911Y507757D01*
X820909Y506755D01*
X819639Y507281D01*
Y517344D01*
X831570Y529274D01*
X833337Y528542D01*
X835660Y528236D01*
X837983Y528542D01*
X840147Y529439D01*
X842005Y530865D01*
X843431Y532723D01*
X844328Y534887D01*
X844634Y537210D01*
X844328Y539533D01*
X843431Y541697D01*
X842005Y543555D01*
X840147Y544981D01*
X837983Y545878D01*
X835660Y546184D01*
X833337Y545878D01*
X831173Y544981D01*
X829315Y543555D01*
X827888Y541697D01*
X826992Y539533D01*
X826686Y537210D01*
X826992Y534887D01*
X827724Y533120D01*
X815829Y521225D01*
X814559Y521751D01*
Y537664D01*
X831570Y554674D01*
X833337Y553942D01*
X835660Y553636D01*
X837983Y553942D01*
X840147Y554838D01*
X842005Y556265D01*
X843431Y558123D01*
X844328Y560287D01*
X844634Y562610D01*
X844328Y564933D01*
X843431Y567097D01*
X842005Y568955D01*
X840147Y570382D01*
X837983Y571278D01*
X835660Y571584D01*
X833337Y571278D01*
X831173Y570382D01*
X829315Y568955D01*
X827888Y567097D01*
X826992Y564933D01*
X826686Y562610D01*
X826992Y560287D01*
X827724Y558520D01*
X809917Y540713D01*
X809328Y539831D01*
X809121Y538790D01*
Y520625D01*
X807851Y520373D01*
X807656Y520843D01*
X806435Y522435D01*
X804843Y523656D01*
X802989Y524424D01*
X801587Y524608D01*
X799309Y526886D01*
Y562000D01*
X798905Y564032D01*
X797754Y565754D01*
X789754Y573754D01*
X788032Y574905D01*
X786000Y575309D01*
X786000Y575309D01*
X780040D01*
Y577040D01*
X779309D01*
Y580960D01*
X780041D01*
Y586730D01*
X774000D01*
Y588000D01*
D01*
Y586730D01*
X767961D01*
Y580960D01*
X766946Y580342D01*
X756192D01*
X755388Y581612D01*
X755584Y582026D01*
X759040D01*
X759428Y582103D01*
X764897D01*
Y593897D01*
X764014D01*
Y608000D01*
X763709Y609536D01*
X762838Y610838D01*
X735524Y638153D01*
X735574Y639554D01*
X735995Y639900D01*
X736480D01*
Y650500D01*
Y661099D01*
X735995D01*
X734811Y660864D01*
X733807Y660193D01*
X733560Y659823D01*
X733005Y659934D01*
X729495D01*
X728907Y659817D01*
X727790Y660552D01*
X727687Y661612D01*
X735186Y669111D01*
X738247D01*
X739550Y667160D01*
X741693Y665729D01*
X744220Y665226D01*
X746747Y665729D01*
X748890Y667160D01*
X750321Y669303D01*
X750824Y671830D01*
X750321Y674357D01*
X748890Y676500D01*
X746747Y677931D01*
X744220Y678434D01*
X741693Y677931D01*
X739550Y676500D01*
X738247Y674549D01*
X735763D01*
X735237Y675819D01*
X739813Y680395D01*
X739813Y680395D01*
X740402Y681277D01*
X740609Y682318D01*
X740609Y682318D01*
Y689682D01*
X740402Y690723D01*
X739813Y691605D01*
X734222Y697196D01*
X734181Y697411D01*
X734182Y697439D01*
X734440Y698603D01*
X735843Y699184D01*
X737435Y700405D01*
X738656Y701997D01*
X739424Y703851D01*
X739519Y704570D01*
X732000D01*
Y707110D01*
X739519D01*
X739424Y707829D01*
X738656Y709683D01*
X737863Y710716D01*
X738490Y711986D01*
X740337D01*
X740986Y711337D01*
Y703000D01*
X741291Y701464D01*
X742162Y700162D01*
X744162Y698162D01*
X745464Y697291D01*
X747000Y696986D01*
X754603D01*
Y695603D01*
X765397D01*
Y706397D01*
X754603D01*
Y705014D01*
X749014D01*
Y713000D01*
X748709Y714536D01*
X747838Y715838D01*
X744838Y718838D01*
X743536Y719709D01*
X742000Y720014D01*
X707000D01*
X705464Y719709D01*
X704162Y718838D01*
X699162Y713838D01*
X698291Y712536D01*
X697986Y711000D01*
Y705714D01*
X683200D01*
X681664Y705409D01*
X680362Y704538D01*
X672295Y696472D01*
X671823Y696668D01*
X669500Y696974D01*
X667178Y696668D01*
X665013Y695771D01*
X663155Y694345D01*
X661729Y692487D01*
X661533Y692014D01*
X632663D01*
X625014Y699663D01*
Y721000D01*
X624709Y722536D01*
X623838Y723838D01*
X615838Y731838D01*
X614536Y732709D01*
X613000Y733014D01*
D02*
G37*
G36*
X765647Y689897D02*
X754353D01*
Y674103D01*
X755986D01*
Y666108D01*
X755330Y665670D01*
X753899Y663527D01*
X753396Y661000D01*
X753899Y658473D01*
X755330Y656330D01*
X757473Y654899D01*
X760000Y654396D01*
X762527Y654899D01*
X764670Y656330D01*
X766101Y658473D01*
X766604Y661000D01*
X766101Y663527D01*
X764670Y665670D01*
X764014Y666108D01*
Y674103D01*
X765647D01*
Y689897D01*
D02*
G37*
G36*
X835660Y647784D02*
X833337Y647478D01*
X831173Y646581D01*
X829315Y645155D01*
X827888Y643297D01*
X827196Y641624D01*
X811298D01*
X810767Y642907D01*
X809525Y644525D01*
X807907Y645767D01*
X806022Y646548D01*
X804000Y646814D01*
X801978Y646548D01*
X800093Y645767D01*
X798475Y644525D01*
X797233Y642907D01*
X796452Y641022D01*
X796186Y639000D01*
X796452Y636978D01*
X797233Y635093D01*
X798475Y633475D01*
X800093Y632233D01*
X801978Y631452D01*
X804000Y631186D01*
X806022Y631452D01*
X807907Y632233D01*
X809525Y633475D01*
X810767Y635093D01*
X811220Y636186D01*
X827117D01*
X827888Y634323D01*
X829315Y632465D01*
X831173Y631039D01*
X833337Y630142D01*
X835660Y629836D01*
X837983Y630142D01*
X840147Y631039D01*
X842005Y632465D01*
X843431Y634323D01*
X844328Y636487D01*
X844634Y638810D01*
X844328Y641133D01*
X843431Y643297D01*
X842005Y645155D01*
X840147Y646581D01*
X837983Y647478D01*
X835660Y647784D01*
D02*
G37*
G36*
X755650Y647609D02*
Y640080D01*
X763179D01*
X763041Y641131D01*
X762145Y643293D01*
X760720Y645150D01*
X758863Y646575D01*
X756701Y647471D01*
X755650Y647609D01*
D02*
G37*
G36*
X739505Y661099D02*
X739020D01*
Y650500D01*
Y639900D01*
X739505D01*
X740689Y640136D01*
X741693Y640807D01*
X742364Y641811D01*
X742522Y642604D01*
X744909D01*
X745913Y641600D01*
X745719Y641131D01*
X745581Y640080D01*
X753110D01*
Y647609D01*
X752059Y647471D01*
X751590Y647277D01*
X749410Y649456D01*
X748108Y650327D01*
X746572Y650632D01*
X742600D01*
Y658005D01*
X742364Y659189D01*
X741693Y660193D01*
X740689Y660864D01*
X739505Y661099D01*
D02*
G37*
G36*
X649000Y654689D02*
X647077Y654436D01*
X645285Y653694D01*
X643747Y652514D01*
X642566Y650975D01*
X641824Y649183D01*
X641571Y647260D01*
X641824Y645337D01*
X642566Y643545D01*
X643747Y642007D01*
X645285Y640826D01*
X647077Y640084D01*
X649000Y639830D01*
X650923Y640084D01*
X652715Y640826D01*
X654253Y642007D01*
X655434Y643545D01*
X656176Y645337D01*
X656430Y647260D01*
X656176Y649183D01*
X655434Y650975D01*
X654253Y652514D01*
X652715Y653694D01*
X650923Y654436D01*
X649000Y654689D01*
D02*
G37*
G36*
X763179Y637540D02*
X755650D01*
Y630010D01*
X756701Y630149D01*
X758863Y631045D01*
X760720Y632470D01*
X762145Y634327D01*
X763041Y636489D01*
X763179Y637540D01*
D02*
G37*
G36*
X753110D02*
X745581D01*
X745719Y636489D01*
X746615Y634327D01*
X748040Y632470D01*
X749897Y631045D01*
X752059Y630149D01*
X753110Y630010D01*
Y637540D01*
D02*
G37*
G36*
X551115Y708464D02*
X444885D01*
X442455Y707981D01*
X440396Y706604D01*
X439019Y704545D01*
X438536Y702115D01*
Y625885D01*
X439019Y623455D01*
X440396Y621396D01*
X442455Y620019D01*
X444885Y619536D01*
X551115D01*
X553545Y620019D01*
X555604Y621396D01*
X556981Y623455D01*
X557464Y625885D01*
Y702115D01*
X556981Y704545D01*
X555604Y706604D01*
X553545Y707981D01*
X551115Y708464D01*
D02*
G37*
G36*
X676397Y647397D02*
X665603D01*
Y636603D01*
X667486D01*
Y629647D01*
X664103D01*
Y618353D01*
X679897D01*
Y629647D01*
X675514D01*
Y636603D01*
X676397D01*
Y647397D01*
D02*
G37*
G36*
X835660Y622384D02*
X833337Y622078D01*
X831173Y621181D01*
X829315Y619755D01*
X827888Y617897D01*
X826992Y615733D01*
X826951Y615424D01*
X810967D01*
X810767Y615907D01*
X809525Y617525D01*
X807907Y618767D01*
X806022Y619548D01*
X804000Y619814D01*
X801978Y619548D01*
X800093Y618767D01*
X798475Y617525D01*
X797233Y615907D01*
X796452Y614022D01*
X796186Y612000D01*
X796452Y609978D01*
X797233Y608093D01*
X798475Y606475D01*
X800093Y605233D01*
X801978Y604452D01*
X804000Y604186D01*
X806022Y604452D01*
X807907Y605233D01*
X809525Y606475D01*
X810767Y608093D01*
X811548Y609978D01*
X811549Y609986D01*
X827448D01*
X827888Y608923D01*
X829315Y607065D01*
X831173Y605639D01*
X833337Y604742D01*
X835660Y604436D01*
X837983Y604742D01*
X840147Y605639D01*
X842005Y607065D01*
X843431Y608923D01*
X844328Y611087D01*
X844634Y613410D01*
X844328Y615733D01*
X843431Y617897D01*
X842005Y619755D01*
X840147Y621181D01*
X837983Y622078D01*
X835660Y622384D01*
D02*
G37*
G36*
X700730Y618519D02*
X700011Y618424D01*
X698157Y617656D01*
X696565Y616435D01*
X695344Y614843D01*
X694576Y612989D01*
X694481Y612270D01*
X700730D01*
Y618519D01*
D02*
G37*
G36*
X649000Y626777D02*
X647077Y626524D01*
X645285Y625782D01*
X643747Y624602D01*
X642566Y623063D01*
X641824Y621271D01*
X641571Y619348D01*
X641824Y617425D01*
X642566Y615633D01*
X643747Y614095D01*
X645285Y612914D01*
X647077Y612172D01*
X649000Y611918D01*
X650923Y612172D01*
X652715Y612914D01*
X654253Y614095D01*
X655434Y615633D01*
X656176Y617425D01*
X656430Y619348D01*
X656176Y621271D01*
X655434Y623063D01*
X654253Y624602D01*
X652715Y625782D01*
X650923Y626524D01*
X649000Y626777D01*
D02*
G37*
G36*
X835660Y596984D02*
X833337Y596678D01*
X831173Y595782D01*
X829315Y594355D01*
X827888Y592497D01*
X826992Y590333D01*
X826978Y590224D01*
X811050D01*
X810767Y590907D01*
X809525Y592525D01*
X807907Y593767D01*
X806022Y594548D01*
X804000Y594814D01*
X801978Y594548D01*
X800093Y593767D01*
X798475Y592525D01*
X797233Y590907D01*
X796452Y589022D01*
X796186Y587000D01*
X796452Y584978D01*
X797233Y583093D01*
X798475Y581475D01*
X800093Y580233D01*
X801978Y579452D01*
X804000Y579186D01*
X806022Y579452D01*
X807907Y580233D01*
X809525Y581475D01*
X810767Y583093D01*
X811468Y584786D01*
X827365D01*
X827888Y583523D01*
X829315Y581665D01*
X831173Y580238D01*
X833337Y579342D01*
X835660Y579036D01*
X837983Y579342D01*
X840147Y580238D01*
X842005Y581665D01*
X843431Y583523D01*
X844328Y585687D01*
X844634Y588010D01*
X844328Y590333D01*
X843431Y592497D01*
X842005Y594355D01*
X840147Y595782D01*
X837983Y596678D01*
X835660Y596984D01*
D02*
G37*
G36*
X780041Y595040D02*
X775270D01*
Y589270D01*
X780041D01*
Y595040D01*
D02*
G37*
G36*
X772730D02*
X767961D01*
Y589270D01*
X772730D01*
Y595040D01*
D02*
G37*
G36*
X403890Y595167D02*
Y581248D01*
X417809D01*
X417640Y582966D01*
X416768Y585838D01*
X415353Y588486D01*
X413448Y590806D01*
X411128Y592711D01*
X408480Y594126D01*
X405608Y594997D01*
X403890Y595167D01*
D02*
G37*
G36*
X401350D02*
X399632Y594997D01*
X396760Y594126D01*
X394112Y592711D01*
X391792Y590806D01*
X389887Y588486D01*
X388472Y585838D01*
X387601Y582966D01*
X387431Y581248D01*
X401350D01*
Y595167D01*
D02*
G37*
G36*
X417809Y578708D02*
X403890D01*
Y564789D01*
X405608Y564958D01*
X408480Y565830D01*
X411128Y567245D01*
X413448Y569150D01*
X415353Y571470D01*
X416768Y574118D01*
X417640Y576990D01*
X417809Y578708D01*
D02*
G37*
G36*
X401350D02*
X387431D01*
X387601Y576990D01*
X388472Y574118D01*
X389887Y571470D01*
X391792Y569150D01*
X394112Y567245D01*
X396760Y565830D01*
X399632Y564958D01*
X401350Y564789D01*
Y578708D01*
D02*
G37*
G36*
X527627Y580850D02*
X524670D01*
Y560270D01*
X530750D01*
Y577727D01*
X530512Y578922D01*
X529835Y579935D01*
X528822Y580612D01*
X527627Y580850D01*
D02*
G37*
G36*
X522130D02*
X519173D01*
X517978Y580612D01*
X516964Y579935D01*
X516288Y578922D01*
X516050Y577727D01*
Y560270D01*
X522130D01*
Y580850D01*
D02*
G37*
G36*
X315000Y553814D02*
X312978Y553548D01*
X311093Y552767D01*
X309475Y551525D01*
X308233Y549907D01*
X307452Y548022D01*
X307186Y546000D01*
X307452Y543978D01*
X308233Y542093D01*
X309475Y540475D01*
X311093Y539233D01*
X312978Y538452D01*
X315000Y538186D01*
X317022Y538452D01*
X318907Y539233D01*
X320525Y540475D01*
X321767Y542093D01*
X322548Y543978D01*
X322814Y546000D01*
X322548Y548022D01*
X321767Y549907D01*
X320525Y551525D01*
X318907Y552767D01*
X317022Y553548D01*
X315000Y553814D01*
D02*
G37*
G36*
X498000Y603016D02*
X495149Y602641D01*
X492492Y601540D01*
X490210Y599790D01*
X488460Y597508D01*
X487359Y594851D01*
X486984Y592000D01*
Y559000D01*
X487283Y556725D01*
Y540272D01*
X487777Y537789D01*
X489184Y535684D01*
X491289Y534277D01*
X493773Y533783D01*
X502228D01*
X504711Y534277D01*
X506816Y535684D01*
X508223Y537789D01*
X508717Y540272D01*
Y556725D01*
X509016Y559000D01*
Y592000D01*
X508641Y594851D01*
X507540Y597508D01*
X505790Y599790D01*
X503508Y601540D01*
X500851Y602641D01*
X498000Y603016D01*
D02*
G37*
G36*
X649000Y548037D02*
X647077Y547784D01*
X645285Y547042D01*
X643747Y545862D01*
X642566Y544323D01*
X641824Y542531D01*
X641571Y540608D01*
X641824Y538685D01*
X642566Y536893D01*
X643747Y535354D01*
X645285Y534174D01*
X647077Y533432D01*
X649000Y533178D01*
X650923Y533432D01*
X652715Y534174D01*
X654253Y535354D01*
X655434Y536893D01*
X656176Y538685D01*
X656430Y540608D01*
X656176Y542531D01*
X655434Y544323D01*
X654253Y545862D01*
X652715Y547042D01*
X650923Y547784D01*
X649000Y548037D01*
D02*
G37*
G36*
X550270Y538519D02*
Y532270D01*
X556519D01*
X556424Y532989D01*
X555656Y534843D01*
X554435Y536435D01*
X552843Y537656D01*
X550989Y538424D01*
X550270Y538519D01*
D02*
G37*
G36*
X547730D02*
X547011Y538424D01*
X545157Y537656D01*
X543565Y536435D01*
X542344Y534843D01*
X541576Y532989D01*
X541481Y532270D01*
X547730D01*
Y538519D01*
D02*
G37*
G36*
X591540Y522540D02*
X579270D01*
Y511270D01*
X591540D01*
Y522540D01*
D02*
G37*
G36*
X341670Y519159D02*
Y510470D01*
X350359D01*
X350182Y511821D01*
X349170Y514263D01*
X347561Y516361D01*
X345463Y517970D01*
X343021Y518982D01*
X341670Y519159D01*
D02*
G37*
G36*
X339130D02*
X337779Y518982D01*
X335337Y517970D01*
X333239Y516361D01*
X331630Y514263D01*
X330618Y511821D01*
X330441Y510470D01*
X339130D01*
Y519159D01*
D02*
G37*
G36*
X649000Y520126D02*
X647077Y519872D01*
X645285Y519130D01*
X643747Y517949D01*
X642566Y516411D01*
X641824Y514619D01*
X641571Y512696D01*
X641824Y510773D01*
X642566Y508981D01*
X643747Y507443D01*
X645285Y506262D01*
X647077Y505520D01*
X649000Y505266D01*
X650923Y505520D01*
X652715Y506262D01*
X654253Y507443D01*
X655434Y508981D01*
X656176Y510773D01*
X656430Y512696D01*
X656176Y514619D01*
X655434Y516411D01*
X654253Y517949D01*
X652715Y519130D01*
X650923Y519872D01*
X649000Y520126D01*
D02*
G37*
G36*
X315000Y518174D02*
X312677Y517868D01*
X310513Y516972D01*
X308655Y515545D01*
X307229Y513687D01*
X306332Y511523D01*
X306026Y509200D01*
X306332Y506877D01*
X307229Y504713D01*
X308655Y502855D01*
X310513Y501428D01*
X312677Y500532D01*
X315000Y500226D01*
X317323Y500532D01*
X319487Y501428D01*
X321345Y502855D01*
X322771Y504713D01*
X323668Y506877D01*
X323974Y509200D01*
X323668Y511523D01*
X322771Y513687D01*
X321345Y515545D01*
X319487Y516972D01*
X317323Y517868D01*
X315000Y518174D01*
D02*
G37*
G36*
X350359Y507930D02*
X341670D01*
Y499241D01*
X343021Y499418D01*
X345463Y500430D01*
X347561Y502039D01*
X349170Y504137D01*
X350182Y506579D01*
X350359Y507930D01*
D02*
G37*
G36*
X339130D02*
X330441D01*
X330618Y506579D01*
X331630Y504137D01*
X333239Y502039D01*
X335337Y500430D01*
X337779Y499418D01*
X339130Y499241D01*
Y507930D01*
D02*
G37*
G36*
X591540Y508730D02*
X579270D01*
Y497460D01*
X591540D01*
Y508730D01*
D02*
G37*
G36*
X340400Y492774D02*
X338077Y492468D01*
X335913Y491572D01*
X334055Y490145D01*
X332629Y488287D01*
X331732Y486123D01*
X331426Y483800D01*
X331732Y481477D01*
X332629Y479313D01*
X334055Y477455D01*
X335913Y476029D01*
X338077Y475132D01*
X340400Y474826D01*
X342723Y475132D01*
X344887Y476029D01*
X346745Y477455D01*
X348172Y479313D01*
X349068Y481477D01*
X349374Y483800D01*
X349068Y486123D01*
X348172Y488287D01*
X346745Y490145D01*
X344887Y491572D01*
X342723Y492468D01*
X340400Y492774D01*
D02*
G37*
G36*
X590397Y489397D02*
X565603D01*
Y466603D01*
X573986D01*
Y463663D01*
X555087Y444764D01*
X522434D01*
Y450500D01*
X522287Y451240D01*
X521868Y451868D01*
X521240Y452287D01*
X520500Y452434D01*
X511500D01*
X510760Y452287D01*
X510133Y451868D01*
X509713Y451240D01*
X509566Y450500D01*
Y431000D01*
X509713Y430260D01*
X510133Y429632D01*
X510760Y429213D01*
X511500Y429066D01*
X520500D01*
X521240Y429213D01*
X521868Y429632D01*
X522287Y430260D01*
X522434Y431000D01*
Y436736D01*
X556750D01*
X558286Y437041D01*
X559588Y437912D01*
X580838Y459162D01*
X581709Y460464D01*
X582014Y462000D01*
Y466603D01*
X590397D01*
Y473986D01*
X604172D01*
X604930Y472850D01*
X607073Y471419D01*
X609600Y470916D01*
X612127Y471419D01*
X614270Y472850D01*
X615701Y474993D01*
X616204Y477520D01*
X615701Y480047D01*
X614270Y482190D01*
X612127Y483621D01*
X609600Y484124D01*
X607073Y483621D01*
X604930Y482190D01*
X604813Y482014D01*
X590397D01*
Y489397D01*
D02*
G37*
G36*
X340400Y467374D02*
X338077Y467068D01*
X335913Y466171D01*
X334055Y464745D01*
X332629Y462887D01*
X331732Y460723D01*
X331426Y458400D01*
X331732Y456077D01*
X332629Y453913D01*
X334055Y452055D01*
X335913Y450629D01*
X338077Y449732D01*
X340400Y449426D01*
X342723Y449732D01*
X344887Y450629D01*
X346745Y452055D01*
X348172Y453913D01*
X349068Y456077D01*
X349374Y458400D01*
X349068Y460723D01*
X348172Y462887D01*
X346745Y464745D01*
X344887Y466171D01*
X342723Y467068D01*
X340400Y467374D01*
D02*
G37*
G36*
X315000D02*
X312677Y467068D01*
X310513Y466171D01*
X308655Y464745D01*
X307229Y462887D01*
X306332Y460723D01*
X306026Y458400D01*
X306332Y456077D01*
X307229Y453913D01*
X308655Y452055D01*
X310513Y450629D01*
X312677Y449732D01*
X315000Y449426D01*
X317323Y449732D01*
X319487Y450629D01*
X321345Y452055D01*
X322771Y453913D01*
X323668Y456077D01*
X323974Y458400D01*
X323668Y460723D01*
X322771Y462887D01*
X321345Y464745D01*
X319487Y466171D01*
X317323Y467068D01*
X315000Y467374D01*
D02*
G37*
G36*
X316270Y442959D02*
Y434270D01*
X324959D01*
X324782Y435621D01*
X323770Y438063D01*
X322161Y440161D01*
X320063Y441770D01*
X317621Y442782D01*
X316270Y442959D01*
D02*
G37*
G36*
X313730D02*
X312379Y442782D01*
X309937Y441770D01*
X307839Y440161D01*
X306230Y438063D01*
X305218Y435621D01*
X305041Y434270D01*
X313730D01*
Y442959D01*
D02*
G37*
G36*
X649000Y441386D02*
X647077Y441132D01*
X645285Y440390D01*
X643747Y439210D01*
X642566Y437671D01*
X641824Y435879D01*
X641571Y433956D01*
X641824Y432033D01*
X642566Y430241D01*
X643747Y428703D01*
X645285Y427522D01*
X647077Y426780D01*
X649000Y426526D01*
X650923Y426780D01*
X652715Y427522D01*
X654253Y428703D01*
X655434Y430241D01*
X656176Y432033D01*
X656430Y433956D01*
X656176Y435879D01*
X655434Y437671D01*
X654253Y439210D01*
X652715Y440390D01*
X650923Y441132D01*
X649000Y441386D01*
D02*
G37*
G36*
X340400Y441974D02*
X338077Y441668D01*
X335913Y440771D01*
X334055Y439345D01*
X332629Y437487D01*
X331732Y435323D01*
X331426Y433000D01*
X331732Y430677D01*
X332629Y428513D01*
X334055Y426655D01*
X335913Y425229D01*
X338077Y424332D01*
X340400Y424026D01*
X342723Y424332D01*
X344887Y425229D01*
X346745Y426655D01*
X348172Y428513D01*
X349068Y430677D01*
X349374Y433000D01*
X349068Y435323D01*
X348172Y437487D01*
X346745Y439345D01*
X344887Y440771D01*
X342723Y441668D01*
X340400Y441974D01*
D02*
G37*
G36*
X324959Y431730D02*
X316270D01*
Y423041D01*
X317621Y423218D01*
X320063Y424230D01*
X322161Y425839D01*
X323770Y427937D01*
X324782Y430379D01*
X324959Y431730D01*
D02*
G37*
G36*
X313730D02*
X305041D01*
X305218Y430379D01*
X306230Y427937D01*
X307839Y425839D01*
X309937Y424230D01*
X312379Y423218D01*
X313730Y423041D01*
Y431730D01*
D02*
G37*
G36*
X649000Y413474D02*
X647077Y413220D01*
X645285Y412478D01*
X643747Y411297D01*
X642566Y409759D01*
X641824Y407967D01*
X641571Y406044D01*
X641824Y404121D01*
X642566Y402329D01*
X643747Y400790D01*
X645285Y399610D01*
X647077Y398868D01*
X649000Y398615D01*
X650923Y398868D01*
X652715Y399610D01*
X654253Y400790D01*
X655434Y402329D01*
X656176Y404121D01*
X656430Y406044D01*
X656176Y407967D01*
X655434Y409759D01*
X654253Y411297D01*
X652715Y412478D01*
X650923Y413220D01*
X649000Y413474D01*
D02*
G37*
G36*
X340400Y416574D02*
X338077Y416268D01*
X335913Y415372D01*
X334055Y413945D01*
X332629Y412087D01*
X331732Y409923D01*
X331426Y407600D01*
X331732Y405277D01*
X332629Y403113D01*
X334055Y401255D01*
X335913Y399828D01*
X338077Y398932D01*
X337883Y397689D01*
X328756D01*
X322936Y403510D01*
X323668Y405277D01*
X323974Y407600D01*
X323668Y409923D01*
X322771Y412087D01*
X321345Y413945D01*
X319487Y415372D01*
X317323Y416268D01*
X315000Y416574D01*
X312677Y416268D01*
X310513Y415372D01*
X308655Y413945D01*
X307229Y412087D01*
X306332Y409923D01*
X306026Y407600D01*
X306332Y405277D01*
X307229Y403113D01*
X308655Y401255D01*
X310513Y399828D01*
X312677Y398932D01*
X315000Y398626D01*
X317323Y398932D01*
X319090Y399664D01*
X325707Y393047D01*
X326589Y392458D01*
X327630Y392251D01*
X338851D01*
X338934Y390981D01*
X338077Y390868D01*
X335913Y389972D01*
X334055Y388545D01*
X332629Y386687D01*
X331732Y384523D01*
X331426Y382200D01*
X331732Y379877D01*
X332629Y377713D01*
X334055Y375855D01*
X335913Y374428D01*
X338077Y373532D01*
X340400Y373226D01*
X342723Y373532D01*
X344887Y374428D01*
X346745Y375855D01*
X348172Y377713D01*
X349068Y379877D01*
X349374Y382200D01*
X349068Y384523D01*
X348172Y386687D01*
X346745Y388545D01*
X344887Y389972D01*
X342723Y390868D01*
X341866Y390981D01*
X341949Y392251D01*
X354904D01*
X359077Y388077D01*
X359959Y387488D01*
X361000Y387281D01*
X361000Y387281D01*
X367027D01*
X368330Y385330D01*
X370473Y383899D01*
X373000Y383396D01*
X375527Y383899D01*
X377670Y385330D01*
X379101Y387473D01*
X379604Y390000D01*
X379101Y392527D01*
X377670Y394670D01*
X375527Y396101D01*
X373000Y396604D01*
X370473Y396101D01*
X368330Y394670D01*
X367027Y392719D01*
X362126D01*
X357953Y396893D01*
X357071Y397482D01*
X356030Y397689D01*
X342917D01*
X342723Y398932D01*
X344887Y399828D01*
X346745Y401255D01*
X348172Y403113D01*
X348918Y404916D01*
X358540D01*
X359820Y403000D01*
X361963Y401569D01*
X364490Y401066D01*
X367017Y401569D01*
X369160Y403000D01*
X370591Y405143D01*
X371094Y407670D01*
X370591Y410197D01*
X369160Y412340D01*
X367017Y413771D01*
X364490Y414274D01*
X361963Y413771D01*
X359820Y412340D01*
X358494Y410354D01*
X348889D01*
X348172Y412087D01*
X346745Y413945D01*
X344887Y415372D01*
X342723Y416268D01*
X340400Y416574D01*
D02*
G37*
G36*
X412750Y415495D02*
X410396Y415185D01*
X408203Y414276D01*
X406319Y412831D01*
X404874Y410947D01*
X403965Y408754D01*
X403885Y408144D01*
X369980Y374240D01*
X368549Y372097D01*
X368046Y369570D01*
Y312436D01*
X368549Y309909D01*
X369980Y307766D01*
X393100Y284646D01*
Y270486D01*
X392566Y270076D01*
X390306Y267131D01*
X388886Y263702D01*
X388401Y260022D01*
X388886Y256342D01*
X390306Y252913D01*
X392566Y249968D01*
X395511Y247708D01*
X398940Y246288D01*
X402620Y245803D01*
X404969Y246113D01*
X405301Y244875D01*
X404492Y244540D01*
X402210Y242790D01*
X400460Y240508D01*
X399359Y237851D01*
X398984Y235000D01*
X399359Y232149D01*
X400460Y229492D01*
X402210Y227210D01*
X403417Y226284D01*
X402986Y225014D01*
X377663D01*
X371838Y230838D01*
X370536Y231709D01*
X369000Y232014D01*
X349082D01*
X349068Y232123D01*
X348172Y234287D01*
X346745Y236145D01*
X344887Y237572D01*
X342723Y238468D01*
X340400Y238774D01*
X338077Y238468D01*
X335913Y237572D01*
X334055Y236145D01*
X332629Y234287D01*
X331732Y232123D01*
X331426Y229800D01*
X331732Y227477D01*
X332629Y225313D01*
X334055Y223455D01*
X335913Y222029D01*
X338077Y221132D01*
X340400Y220826D01*
X342723Y221132D01*
X344887Y222029D01*
X346745Y223455D01*
X347153Y223986D01*
X367337D01*
X373162Y218162D01*
X374464Y217291D01*
X376000Y216986D01*
X424103D01*
Y215103D01*
X433897D01*
Y226897D01*
X424103D01*
Y225014D01*
X417014D01*
X416583Y226284D01*
X417790Y227210D01*
X419540Y229492D01*
X420023Y230658D01*
X439342D01*
Y230658D01*
X451691D01*
Y208713D01*
X450899Y207527D01*
X450396Y205000D01*
X450899Y202473D01*
X452330Y200330D01*
X454473Y198899D01*
X456080Y198579D01*
X455955Y197309D01*
X444691D01*
X444260Y198579D01*
X444855Y199035D01*
X446076Y200627D01*
X446844Y202481D01*
X446939Y203200D01*
X431901D01*
X431996Y202481D01*
X432764Y200627D01*
X433985Y199035D01*
X434580Y198579D01*
X434149Y197309D01*
X393000D01*
X393000Y197309D01*
X390968Y196905D01*
X389246Y195754D01*
X371246Y177754D01*
X370095Y176032D01*
X369691Y174000D01*
X369691Y174000D01*
Y118199D01*
X359801Y108309D01*
X347387D01*
X346745Y109145D01*
X344887Y110571D01*
X342723Y111468D01*
X340400Y111774D01*
X338077Y111468D01*
X335913Y110571D01*
X334055Y109145D01*
X332629Y107287D01*
X331732Y105123D01*
X331426Y102800D01*
X331732Y100477D01*
X332629Y98313D01*
X334055Y96455D01*
X335913Y95028D01*
X338077Y94132D01*
X340400Y93826D01*
X342723Y94132D01*
X344887Y95028D01*
X346745Y96455D01*
X347694Y97691D01*
X362000D01*
X362000Y97691D01*
X364032Y98095D01*
X365754Y99246D01*
X378754Y112246D01*
X379905Y113968D01*
X380309Y116000D01*
Y171801D01*
X395199Y186691D01*
X482000D01*
X482000Y186691D01*
X484032Y187095D01*
X485754Y188246D01*
X532294Y234786D01*
X541799Y244291D01*
X571000D01*
X572589Y244607D01*
X580500D01*
X582411Y244987D01*
X584030Y246070D01*
X585113Y247689D01*
X585493Y249600D01*
X585113Y251511D01*
X584030Y253130D01*
X582411Y254213D01*
X580500Y254593D01*
X572589D01*
X571000Y254909D01*
X539600D01*
X537568Y254505D01*
X535846Y253354D01*
X535846Y253354D01*
X526709Y244217D01*
X524306Y246619D01*
X524764Y248920D01*
X524261Y251447D01*
X522830Y253590D01*
X520687Y255021D01*
X518160Y255524D01*
X515633Y255021D01*
X513490Y253590D01*
X512059Y251447D01*
X511556Y248920D01*
X512059Y246393D01*
X513490Y244250D01*
X515633Y242819D01*
X518160Y242316D01*
X520461Y242774D01*
X522863Y240371D01*
X486569Y204077D01*
X485582Y204887D01*
X486161Y205753D01*
X486664Y208280D01*
X486161Y210807D01*
X484730Y212950D01*
X483014Y214096D01*
Y219207D01*
X488500D01*
X490411Y219587D01*
X492031Y220669D01*
X493113Y222289D01*
X493493Y224200D01*
X493113Y226111D01*
X492031Y227731D01*
X490411Y228813D01*
X488500Y229193D01*
X469500D01*
X467589Y228813D01*
X465970Y227731D01*
X464887Y226111D01*
X464507Y224200D01*
X464887Y222289D01*
X465970Y220669D01*
X467589Y219587D01*
X469500Y219207D01*
X474986D01*
Y212344D01*
X473959Y210807D01*
X473456Y208280D01*
X473959Y205753D01*
X475390Y203610D01*
X477533Y202179D01*
X480060Y201676D01*
X482587Y202179D01*
X483453Y202758D01*
X484263Y201771D01*
X479801Y197309D01*
X458045D01*
X457920Y198579D01*
X459527Y198899D01*
X461670Y200330D01*
X463101Y202473D01*
X463604Y205000D01*
X463101Y207527D01*
X462309Y208713D01*
Y229801D01*
X463789Y231281D01*
X478690D01*
X478690Y231281D01*
X480722Y231685D01*
X481054Y231907D01*
X488500D01*
X490411Y232287D01*
X492031Y233370D01*
X493113Y234989D01*
X493493Y236900D01*
X493113Y238811D01*
X492031Y240431D01*
X490411Y241513D01*
X488500Y241893D01*
X480589D01*
X479000Y242209D01*
X477442Y241899D01*
X461590D01*
X461590Y241899D01*
X459558Y241495D01*
X457836Y240344D01*
X457836Y240344D01*
X455515Y238023D01*
X454342Y238509D01*
Y249342D01*
X451040D01*
Y252731D01*
X444000D01*
Y255271D01*
X451040D01*
Y260040D01*
X449325D01*
X448799Y261311D01*
X451088Y263600D01*
X451088Y263600D01*
X452239Y265322D01*
X452643Y267354D01*
Y273666D01*
X452239Y275698D01*
X451088Y277420D01*
X451040Y277468D01*
Y283040D01*
X450309D01*
Y288460D01*
X453540D01*
Y296730D01*
X445000D01*
Y299270D01*
X453540D01*
Y305875D01*
X454810Y305884D01*
X461627Y299067D01*
X462509Y298478D01*
X463550Y298271D01*
X465033D01*
X465970Y296870D01*
X467589Y295787D01*
X469500Y295407D01*
X488500D01*
X490411Y295787D01*
X492031Y296870D01*
X493113Y298489D01*
X493493Y300400D01*
X493113Y302311D01*
X492031Y303930D01*
X490411Y305013D01*
X488500Y305393D01*
X469500D01*
X467589Y305013D01*
X465970Y303930D01*
X465899Y303824D01*
X464634Y303752D01*
X457853Y310533D01*
X456971Y311122D01*
X455930Y311329D01*
X453554D01*
X452397Y311603D01*
X452397Y312599D01*
Y317055D01*
X453667Y317187D01*
X459087Y311767D01*
X459969Y311178D01*
X461010Y310971D01*
X461010Y310971D01*
X465033D01*
X465970Y309569D01*
X467589Y308487D01*
X469500Y308107D01*
X488500D01*
X490411Y308487D01*
X492031Y309569D01*
X493113Y311189D01*
X493493Y313100D01*
X493113Y315011D01*
X492031Y316630D01*
X490411Y317713D01*
X488500Y318093D01*
X469500D01*
X467589Y317713D01*
X465970Y316630D01*
X465822Y316409D01*
X462136D01*
X456623Y321923D01*
X455740Y322513D01*
X454700Y322719D01*
X452397D01*
Y328397D01*
X447719D01*
Y338103D01*
X449897D01*
Y349897D01*
X440103D01*
Y338103D01*
X442281D01*
Y328397D01*
X437847Y328397D01*
X437540Y329540D01*
X437296D01*
X437296Y329540D01*
X434309D01*
Y336960D01*
X437040D01*
Y342730D01*
X431000D01*
Y345270D01*
X437040D01*
Y351040D01*
X437040Y351040D01*
X437040D01*
X437040Y351040D01*
X437331Y352189D01*
X437972Y352831D01*
X449921D01*
X461066Y341686D01*
X461066Y341686D01*
X462788Y340535D01*
X464820Y340131D01*
X464820Y340131D01*
X472337D01*
X473691Y338777D01*
Y331958D01*
X469500D01*
X467143Y331490D01*
X465145Y330155D01*
X463811Y328157D01*
X463594Y327070D01*
X479000D01*
Y325800D01*
D01*
Y327070D01*
X494406D01*
X494190Y328157D01*
X492855Y330155D01*
X490857Y331490D01*
X488500Y331958D01*
X484309D01*
Y340976D01*
X483905Y343008D01*
X482754Y344730D01*
X482754Y344730D01*
X478290Y349194D01*
X476568Y350345D01*
X474536Y350749D01*
X474536Y350749D01*
X467019D01*
X455874Y361894D01*
X454152Y363045D01*
X452120Y363449D01*
X452120Y363449D01*
X435773D01*
X433742Y363045D01*
X432019Y361894D01*
X432019Y361894D01*
X427556Y357430D01*
X426405Y355708D01*
X426001Y353676D01*
X426001Y353676D01*
Y351040D01*
X424960D01*
Y344946D01*
X424095Y343652D01*
X423691Y341620D01*
X423691Y341620D01*
Y329540D01*
X420460D01*
Y329540D01*
X419222Y329616D01*
X413783Y335055D01*
X413504Y337170D01*
X412481Y339642D01*
X410852Y341764D01*
X408730Y343393D01*
X406258Y344417D01*
X404876Y344599D01*
Y334518D01*
Y324437D01*
X405623Y324536D01*
X411269Y318891D01*
X410385Y317568D01*
X409981Y315536D01*
X409981Y315536D01*
Y276860D01*
X409981Y276860D01*
X410385Y274828D01*
X411536Y273106D01*
X416331Y268311D01*
Y267354D01*
X416331Y267354D01*
X416437Y266821D01*
X415216Y266451D01*
X414934Y267131D01*
X412674Y270076D01*
X409729Y272336D01*
X406308Y273753D01*
Y287382D01*
X405805Y289909D01*
X404374Y292052D01*
X381254Y315171D01*
Y366835D01*
X390364Y375945D01*
X391321Y375105D01*
X390306Y373783D01*
X388886Y370354D01*
X388401Y366674D01*
X388886Y362994D01*
X390306Y359565D01*
X392566Y356620D01*
X395511Y354360D01*
X398940Y352940D01*
X402620Y352455D01*
X406300Y352940D01*
X409729Y354360D01*
X412674Y356620D01*
X414934Y359565D01*
X416354Y362994D01*
X416839Y366674D01*
X416354Y370354D01*
X414934Y373783D01*
X412674Y376728D01*
X409729Y378988D01*
X406300Y380408D01*
X402620Y380893D01*
X398940Y380408D01*
X395511Y378988D01*
X394189Y377973D01*
X393349Y378930D01*
X411844Y397425D01*
X412750Y397305D01*
X415104Y397615D01*
X417297Y398524D01*
X419181Y399969D01*
X420626Y401853D01*
X421535Y404046D01*
X421845Y406400D01*
X421535Y408754D01*
X420626Y410947D01*
X419181Y412831D01*
X417297Y414276D01*
X415104Y415185D01*
X412750Y415495D01*
D02*
G37*
G36*
X316270Y392159D02*
Y383470D01*
X324959D01*
X324782Y384821D01*
X323770Y387263D01*
X322161Y389361D01*
X320063Y390970D01*
X317621Y391982D01*
X316270Y392159D01*
D02*
G37*
G36*
X313730D02*
X312379Y391982D01*
X309937Y390970D01*
X307839Y389361D01*
X306230Y387263D01*
X305218Y384821D01*
X305041Y383470D01*
X313730D01*
Y392159D01*
D02*
G37*
G36*
X500600Y439480D02*
X493000D01*
X485401D01*
Y431000D01*
X485636Y429814D01*
X486308Y428808D01*
X486396Y428750D01*
Y423169D01*
X485157Y422656D01*
X483565Y421435D01*
X482344Y419843D01*
X481576Y417989D01*
X481481Y417270D01*
X489000D01*
Y414730D01*
X481481D01*
X481576Y414011D01*
X482344Y412157D01*
X483565Y410565D01*
X483691Y410469D01*
Y390100D01*
X477262D01*
X476072Y389863D01*
X475062Y389188D01*
X474387Y388178D01*
X474150Y386987D01*
Y378520D01*
X493000D01*
X511850D01*
Y386987D01*
X511613Y388178D01*
X510938Y389188D01*
X509929Y389863D01*
X508737Y390100D01*
X494309D01*
Y410469D01*
X494435Y410565D01*
X495656Y412157D01*
X496424Y414011D01*
X496435Y414096D01*
X497670Y415330D01*
X499101Y417473D01*
X499604Y420000D01*
Y428750D01*
X499692Y428808D01*
X500364Y429814D01*
X500600Y431000D01*
Y439480D01*
D02*
G37*
G36*
X324959Y380930D02*
X316270D01*
Y372241D01*
X317621Y372418D01*
X320063Y373430D01*
X322161Y375039D01*
X323770Y377137D01*
X324782Y379579D01*
X324959Y380930D01*
D02*
G37*
G36*
X313730D02*
X305041D01*
X305218Y379579D01*
X306230Y377137D01*
X307839Y375039D01*
X309937Y373430D01*
X312379Y372418D01*
X313730Y372241D01*
Y380930D01*
D02*
G37*
G36*
X511850Y375980D02*
X494270D01*
Y364400D01*
X508737D01*
X509929Y364637D01*
X510938Y365312D01*
X511613Y366321D01*
X511850Y367513D01*
Y375980D01*
D02*
G37*
G36*
X491730D02*
X474150D01*
Y367513D01*
X474387Y366321D01*
X475062Y365312D01*
X476072Y364637D01*
X477262Y364400D01*
X491730D01*
Y375980D01*
D02*
G37*
G36*
X340400Y365774D02*
X338077Y365468D01*
X335913Y364571D01*
X334055Y363145D01*
X332629Y361287D01*
X331732Y359123D01*
X331426Y356800D01*
X331732Y354477D01*
X332629Y352313D01*
X334055Y350455D01*
X335913Y349029D01*
X338077Y348132D01*
X340400Y347826D01*
X342723Y348132D01*
X344887Y349029D01*
X346745Y350455D01*
X348172Y352313D01*
X349068Y354477D01*
X349374Y356800D01*
X349068Y359123D01*
X348172Y361287D01*
X346745Y363145D01*
X344887Y364571D01*
X342723Y365468D01*
X340400Y365774D01*
D02*
G37*
G36*
X315000D02*
X312677Y365468D01*
X310513Y364571D01*
X308655Y363145D01*
X307229Y361287D01*
X306332Y359123D01*
X306026Y356800D01*
X306332Y354477D01*
X307229Y352313D01*
X308655Y350455D01*
X310513Y349029D01*
X312677Y348132D01*
X315000Y347826D01*
X317323Y348132D01*
X319487Y349029D01*
X321345Y350455D01*
X322771Y352313D01*
X323668Y354477D01*
X323974Y356800D01*
X323668Y359123D01*
X322771Y361287D01*
X321345Y363145D01*
X319487Y364571D01*
X317323Y365468D01*
X315000Y365774D01*
D02*
G37*
G36*
X350000Y532719D02*
X312000D01*
X310959Y532512D01*
X310077Y531923D01*
X310077Y531923D01*
X298077Y519923D01*
X297488Y519041D01*
X297281Y518000D01*
Y486000D01*
X297488Y484959D01*
X298077Y484077D01*
X300077Y482077D01*
X300959Y481488D01*
X302000Y481281D01*
X306413D01*
X307229Y479313D01*
X308655Y477455D01*
X310513Y476029D01*
X312677Y475132D01*
X315000Y474826D01*
X317323Y475132D01*
X319487Y476029D01*
X321345Y477455D01*
X322771Y479313D01*
X323668Y481477D01*
X323974Y483800D01*
X323668Y486123D01*
X322771Y488287D01*
X321345Y490145D01*
X319487Y491572D01*
X317323Y492468D01*
X315000Y492774D01*
X312677Y492468D01*
X310513Y491572D01*
X308655Y490145D01*
X307229Y488287D01*
X306579Y486719D01*
X303126D01*
X302719Y487126D01*
Y516874D01*
X313126Y527281D01*
X348874D01*
X355281Y520874D01*
Y481000D01*
X355488Y479959D01*
X356077Y479077D01*
X460281Y374874D01*
Y364000D01*
X460488Y362959D01*
X461077Y362077D01*
X465077Y358077D01*
X465959Y357488D01*
X467000Y357281D01*
X467000Y357281D01*
X488874D01*
X493854Y352301D01*
X493396Y350000D01*
X493899Y347473D01*
X495330Y345330D01*
X497473Y343899D01*
X500000Y343396D01*
X502527Y343899D01*
X504670Y345330D01*
X506101Y347473D01*
X506604Y350000D01*
X506101Y352527D01*
X504670Y354670D01*
X502527Y356101D01*
X500000Y356604D01*
X497699Y356146D01*
X491923Y361923D01*
X491041Y362512D01*
X490000Y362719D01*
X468126D01*
X465719Y365126D01*
Y376000D01*
X465512Y377041D01*
X464923Y377923D01*
X360719Y482126D01*
Y522000D01*
X360512Y523041D01*
X359923Y523923D01*
X351923Y531923D01*
X351041Y532512D01*
X350000Y532719D01*
D02*
G37*
G36*
X402336Y344599D02*
X400954Y344417D01*
X398482Y343393D01*
X396360Y341764D01*
X394731Y339642D01*
X393708Y337170D01*
X393526Y335788D01*
X402336D01*
Y344599D01*
D02*
G37*
G36*
X341670Y341359D02*
Y332670D01*
X350359D01*
X350182Y334021D01*
X349170Y336463D01*
X347561Y338561D01*
X345463Y340170D01*
X343021Y341182D01*
X341670Y341359D01*
D02*
G37*
G36*
X339130D02*
X337779Y341182D01*
X335337Y340170D01*
X333239Y338561D01*
X331630Y336463D01*
X330618Y334021D01*
X330441Y332670D01*
X339130D01*
Y341359D01*
D02*
G37*
G36*
X402336Y333248D02*
X393526D01*
X393708Y331866D01*
X394731Y329394D01*
X396360Y327272D01*
X398482Y325643D01*
X400954Y324619D01*
X402336Y324437D01*
Y333248D01*
D02*
G37*
G36*
X315000Y340374D02*
X312677Y340068D01*
X310513Y339171D01*
X308655Y337745D01*
X307229Y335887D01*
X306332Y333723D01*
X306026Y331400D01*
X306332Y329077D01*
X307229Y326913D01*
X308655Y325055D01*
X310513Y323629D01*
X312677Y322732D01*
X315000Y322426D01*
X317323Y322732D01*
X319487Y323629D01*
X321345Y325055D01*
X322771Y326913D01*
X323668Y329077D01*
X323974Y331400D01*
X323668Y333723D01*
X322771Y335887D01*
X321345Y337745D01*
X319487Y339171D01*
X317323Y340068D01*
X315000Y340374D01*
D02*
G37*
G36*
X350359Y330130D02*
X341670D01*
Y321441D01*
X343021Y321618D01*
X345463Y322630D01*
X347561Y324239D01*
X349170Y326337D01*
X350182Y328779D01*
X350359Y330130D01*
D02*
G37*
G36*
X339130D02*
X330441D01*
X330618Y328779D01*
X331630Y326337D01*
X333239Y324239D01*
X335337Y322630D01*
X337779Y321618D01*
X339130Y321441D01*
Y330130D01*
D02*
G37*
G36*
X580500Y330793D02*
X561500D01*
X559589Y330413D01*
X557969Y329330D01*
X556887Y327711D01*
X556507Y325800D01*
X556887Y323889D01*
X557969Y322270D01*
X559589Y321187D01*
X561500Y320807D01*
X580500D01*
X582411Y321187D01*
X584030Y322270D01*
X585113Y323889D01*
X585493Y325800D01*
X585113Y327711D01*
X584030Y329330D01*
X582411Y330413D01*
X580500Y330793D01*
D02*
G37*
G36*
X649000Y334734D02*
X647077Y334480D01*
X645285Y333738D01*
X643747Y332557D01*
X642566Y331019D01*
X641824Y329227D01*
X641571Y327304D01*
X641824Y325381D01*
X642566Y323589D01*
X643747Y322051D01*
X645285Y320870D01*
X647077Y320128D01*
X649000Y319874D01*
X650923Y320128D01*
X652715Y320870D01*
X654253Y322051D01*
X655434Y323589D01*
X656176Y325381D01*
X656430Y327304D01*
X656176Y329227D01*
X655434Y331019D01*
X654253Y332557D01*
X652715Y333738D01*
X650923Y334480D01*
X649000Y334734D01*
D02*
G37*
G36*
X494406Y324530D02*
X480270D01*
Y319642D01*
X488500D01*
X490857Y320111D01*
X492855Y321445D01*
X494190Y323443D01*
X494406Y324530D01*
D02*
G37*
G36*
X477730D02*
X463594D01*
X463811Y323443D01*
X465145Y321445D01*
X467143Y320111D01*
X469500Y319642D01*
X477730D01*
Y324530D01*
D02*
G37*
G36*
X315000Y314974D02*
X312677Y314668D01*
X310513Y313771D01*
X308655Y312345D01*
X307229Y310487D01*
X306511Y308754D01*
X296826D01*
X295500Y310740D01*
X293357Y312171D01*
X290830Y312674D01*
X288303Y312171D01*
X286160Y310740D01*
X284729Y308597D01*
X284226Y306070D01*
X284729Y303543D01*
X286160Y301400D01*
X288303Y299969D01*
X290830Y299466D01*
X293357Y299969D01*
X295500Y301400D01*
X296779Y303316D01*
X306482D01*
X307229Y301513D01*
X308655Y299655D01*
X310513Y298228D01*
X312677Y297332D01*
X315000Y297026D01*
X317323Y297332D01*
X319487Y298228D01*
X321345Y299655D01*
X322771Y301513D01*
X323668Y303677D01*
X323974Y306000D01*
X323668Y308323D01*
X322771Y310487D01*
X321345Y312345D01*
X319487Y313771D01*
X317323Y314668D01*
X315000Y314974D01*
D02*
G37*
G36*
X580500Y318093D02*
X561500D01*
X559589Y317713D01*
X557969Y316630D01*
X556887Y315011D01*
X556507Y313100D01*
X556887Y311189D01*
X557969Y309569D01*
X559589Y308487D01*
X561500Y308107D01*
X580500D01*
X582411Y308487D01*
X584030Y309569D01*
X585113Y311189D01*
X585493Y313100D01*
X585113Y315011D01*
X584030Y316630D01*
X582411Y317713D01*
X580500Y318093D01*
D02*
G37*
G36*
X340400Y314974D02*
X338077Y314668D01*
X335913Y313771D01*
X334055Y312345D01*
X332629Y310487D01*
X331732Y308323D01*
X331426Y306000D01*
X331732Y303677D01*
X332629Y301513D01*
X334055Y299655D01*
X335913Y298228D01*
X338077Y297332D01*
X340400Y297026D01*
X342723Y297332D01*
X344887Y298228D01*
X346745Y299655D01*
X347633Y300811D01*
X355977D01*
X357280Y298860D01*
X359423Y297429D01*
X361950Y296926D01*
X364477Y297429D01*
X366620Y298860D01*
X368051Y301003D01*
X368554Y303530D01*
X368051Y306057D01*
X366620Y308200D01*
X364477Y309631D01*
X361950Y310134D01*
X359423Y309631D01*
X357280Y308200D01*
X355977Y306249D01*
X349341D01*
X349068Y308323D01*
X348172Y310487D01*
X346745Y312345D01*
X344887Y313771D01*
X342723Y314668D01*
X340400Y314974D01*
D02*
G37*
G36*
X649000Y306822D02*
X647077Y306568D01*
X645285Y305826D01*
X643747Y304646D01*
X642566Y303107D01*
X641824Y301315D01*
X641571Y299392D01*
X641824Y297469D01*
X642566Y295677D01*
X643747Y294139D01*
X645285Y292958D01*
X647077Y292216D01*
X649000Y291963D01*
X650923Y292216D01*
X652715Y292958D01*
X654253Y294139D01*
X655434Y295677D01*
X656176Y297469D01*
X656430Y299392D01*
X656176Y301315D01*
X655434Y303107D01*
X654253Y304646D01*
X652715Y305826D01*
X650923Y306568D01*
X649000Y306822D01*
D02*
G37*
G36*
X742040Y294730D02*
X737270D01*
Y288960D01*
X742040D01*
Y294730D01*
D02*
G37*
G36*
X488500Y292693D02*
X469500D01*
X467589Y292313D01*
X465970Y291231D01*
X464887Y289611D01*
X464507Y287700D01*
X464887Y285789D01*
X465970Y284170D01*
X467589Y283087D01*
X469500Y282707D01*
X488500D01*
X490411Y283087D01*
X492031Y284170D01*
X493113Y285789D01*
X493493Y287700D01*
X493113Y289611D01*
X492031Y291231D01*
X490411Y292313D01*
X488500Y292693D01*
D02*
G37*
G36*
X663000Y284533D02*
X647000D01*
X645284Y284192D01*
X643830Y283220D01*
X642858Y281766D01*
X642517Y280050D01*
X642858Y278334D01*
X643830Y276880D01*
X645284Y275908D01*
X647000Y275567D01*
X663000D01*
X664716Y275908D01*
X666170Y276880D01*
X667142Y278334D01*
X667483Y280050D01*
X667142Y281766D01*
X666170Y283220D01*
X664716Y284192D01*
X663000Y284533D01*
D02*
G37*
G36*
X754897Y301897D02*
X745103D01*
Y290103D01*
X747281D01*
Y284897D01*
X745103D01*
Y273103D01*
X754897D01*
Y284897D01*
X752719D01*
Y290103D01*
X754897D01*
Y301897D01*
D02*
G37*
G36*
X340400Y289574D02*
X338077Y289268D01*
X335913Y288372D01*
X334055Y286945D01*
X332629Y285087D01*
X331732Y282923D01*
X331426Y280600D01*
X331732Y278277D01*
X332629Y276113D01*
X334055Y274255D01*
X335913Y272829D01*
X338077Y271932D01*
X340400Y271626D01*
X342723Y271932D01*
X344887Y272829D01*
X346745Y274255D01*
X348172Y276113D01*
X349068Y278277D01*
X349374Y280600D01*
X349068Y282923D01*
X348172Y285087D01*
X346745Y286945D01*
X344887Y288372D01*
X342723Y289268D01*
X340400Y289574D01*
D02*
G37*
G36*
X315000D02*
X312677Y289268D01*
X310513Y288372D01*
X308655Y286945D01*
X307229Y285087D01*
X306332Y282923D01*
X306026Y280600D01*
X306332Y278277D01*
X307229Y276113D01*
X308655Y274255D01*
X310513Y272829D01*
X312677Y271932D01*
X315000Y271626D01*
X317323Y271932D01*
X319487Y272829D01*
X321345Y274255D01*
X322771Y276113D01*
X323668Y278277D01*
X323974Y280600D01*
X323668Y282923D01*
X322771Y285087D01*
X321345Y286945D01*
X319487Y288372D01*
X317323Y289268D01*
X315000Y289574D01*
D02*
G37*
G36*
X488500Y279993D02*
X469500D01*
X467589Y279613D01*
X465970Y278531D01*
X464887Y276911D01*
X464507Y275000D01*
X464887Y273089D01*
X465970Y271469D01*
X467589Y270387D01*
X469500Y270007D01*
X488500D01*
X490411Y270387D01*
X492031Y271469D01*
X493113Y273089D01*
X493493Y275000D01*
X493113Y276911D01*
X492031Y278531D01*
X490411Y279613D01*
X488500Y279993D01*
D02*
G37*
G36*
X783000Y266974D02*
X780677Y266668D01*
X778513Y265772D01*
X776655Y264345D01*
X775229Y262487D01*
X774496Y260719D01*
X761000D01*
X759959Y260512D01*
X759077Y259923D01*
X757874Y258719D01*
X754897D01*
Y261897D01*
X745103D01*
Y250103D01*
X747781D01*
Y243897D01*
X746104D01*
Y232103D01*
X755898D01*
Y243897D01*
X753220D01*
Y250103D01*
X754897D01*
Y253281D01*
X759000D01*
X760041Y253488D01*
X760923Y254077D01*
X762126Y255281D01*
X774496D01*
X775229Y253513D01*
X776655Y251655D01*
X778513Y250229D01*
X780677Y249332D01*
X783000Y249026D01*
X785323Y249332D01*
X787487Y250229D01*
X789345Y251655D01*
X790771Y253513D01*
X791668Y255677D01*
X791974Y258000D01*
X791668Y260323D01*
X790771Y262487D01*
X789345Y264345D01*
X787487Y265772D01*
X785323Y266668D01*
X783000Y266974D01*
D02*
G37*
G36*
X488500Y267293D02*
X469500D01*
X467589Y266913D01*
X465970Y265830D01*
X464887Y264211D01*
X464507Y262300D01*
X464887Y260389D01*
X465970Y258769D01*
X467589Y257687D01*
X469500Y257307D01*
X488500D01*
X490411Y257687D01*
X492031Y258769D01*
X493113Y260389D01*
X493493Y262300D01*
X493113Y264211D01*
X492031Y265830D01*
X490411Y266913D01*
X488500Y267293D01*
D02*
G37*
G36*
X316270Y265159D02*
Y256470D01*
X324959D01*
X324782Y257821D01*
X323770Y260263D01*
X322161Y262361D01*
X320063Y263970D01*
X317621Y264982D01*
X316270Y265159D01*
D02*
G37*
G36*
X313730D02*
X312379Y264982D01*
X309937Y263970D01*
X307839Y262361D01*
X306230Y260263D01*
X305218Y257821D01*
X305041Y256470D01*
X313730D01*
Y265159D01*
D02*
G37*
G36*
X605730Y253380D02*
X593604D01*
X593782Y252488D01*
X595006Y250656D01*
X596838Y249431D01*
X599000Y249002D01*
X605730D01*
Y253380D01*
D02*
G37*
G36*
X340400Y264174D02*
X338077Y263868D01*
X335913Y262971D01*
X334055Y261545D01*
X332629Y259687D01*
X331732Y257523D01*
X331426Y255200D01*
X331732Y252877D01*
X332629Y250713D01*
X334055Y248855D01*
X335913Y247428D01*
X338077Y246532D01*
X340400Y246226D01*
X342723Y246532D01*
X344887Y247428D01*
X346745Y248855D01*
X348172Y250713D01*
X348655Y251881D01*
X357818D01*
X357899Y251473D01*
X359330Y249330D01*
X361473Y247899D01*
X364000Y247396D01*
X366527Y247899D01*
X368670Y249330D01*
X370101Y251473D01*
X370604Y254000D01*
X370101Y256527D01*
X368670Y258670D01*
X366527Y260101D01*
X364000Y260604D01*
X361473Y260101D01*
X359330Y258670D01*
X358428Y257319D01*
X349095D01*
X349068Y257523D01*
X348172Y259687D01*
X346745Y261545D01*
X344887Y262971D01*
X342723Y263868D01*
X340400Y264174D01*
D02*
G37*
G36*
X324959Y253930D02*
X316270D01*
Y245241D01*
X317621Y245418D01*
X320063Y246430D01*
X322161Y248039D01*
X323770Y250137D01*
X324782Y252579D01*
X324959Y253930D01*
D02*
G37*
G36*
X313730D02*
X305041D01*
X305218Y252579D01*
X306230Y250137D01*
X307839Y248039D01*
X309937Y246430D01*
X312379Y245418D01*
X313730Y245241D01*
Y253930D01*
D02*
G37*
G36*
X488500Y254593D02*
X469500D01*
X467589Y254213D01*
X465970Y253130D01*
X464887Y251511D01*
X464507Y249600D01*
X464887Y247689D01*
X465970Y246070D01*
X467589Y244987D01*
X469500Y244607D01*
X488500D01*
X490411Y244987D01*
X492031Y246070D01*
X493113Y247689D01*
X493493Y249600D01*
X493113Y251511D01*
X492031Y253130D01*
X490411Y254213D01*
X488500Y254593D01*
D02*
G37*
G36*
X741897Y243897D02*
X732103D01*
Y240719D01*
X727897D01*
Y243897D01*
X718103D01*
Y232103D01*
X727897D01*
Y235281D01*
X732103D01*
Y232103D01*
X741897D01*
Y243897D01*
D02*
G37*
G36*
X715040Y258730D02*
X709000D01*
X702960D01*
Y252960D01*
X704986D01*
Y245040D01*
X702960D01*
Y239270D01*
X709000D01*
X715040D01*
Y245040D01*
X713014D01*
Y252960D01*
X715040D01*
Y258730D01*
D02*
G37*
G36*
X449040Y228040D02*
X444270D01*
Y222270D01*
X449040D01*
Y228040D01*
D02*
G37*
G36*
X441730D02*
X436960D01*
Y222270D01*
X441730D01*
Y228040D01*
D02*
G37*
G36*
X615000Y246433D02*
X599000D01*
X597284Y246092D01*
X595830Y245120D01*
X594858Y243666D01*
X594517Y241950D01*
X594858Y240234D01*
X595830Y238780D01*
X597284Y237808D01*
X599000Y237467D01*
X611162D01*
Y232019D01*
X611289Y231381D01*
X611119Y231127D01*
X610616Y228600D01*
X611119Y226073D01*
X612550Y223930D01*
X614693Y222499D01*
X617220Y221996D01*
X619747Y222499D01*
X621890Y223930D01*
X623321Y226073D01*
X623824Y228600D01*
X623321Y231127D01*
X621890Y233270D01*
X619747Y234701D01*
X619190Y234812D01*
Y240477D01*
X619483Y241950D01*
X619142Y243666D01*
X618170Y245120D01*
X616716Y246092D01*
X615000Y246433D01*
D02*
G37*
G36*
X315000Y238774D02*
X312677Y238468D01*
X310513Y237572D01*
X308655Y236145D01*
X307229Y234287D01*
X306332Y232123D01*
X306026Y229800D01*
X306332Y227477D01*
X307229Y225313D01*
X308655Y223455D01*
X310513Y222029D01*
X312677Y221132D01*
X315000Y220826D01*
X317323Y221132D01*
X319487Y222029D01*
X321345Y223455D01*
X322771Y225313D01*
X323668Y227477D01*
X323974Y229800D01*
X323668Y232123D01*
X322771Y234287D01*
X321345Y236145D01*
X319487Y237572D01*
X317323Y238468D01*
X315000Y238774D01*
D02*
G37*
G36*
X649000Y228082D02*
X647077Y227828D01*
X645285Y227086D01*
X643747Y225905D01*
X642566Y224367D01*
X641824Y222575D01*
X641571Y220652D01*
X641824Y218729D01*
X642566Y216937D01*
X643747Y215399D01*
X645285Y214218D01*
X647077Y213476D01*
X649000Y213223D01*
X650923Y213476D01*
X652715Y214218D01*
X654253Y215399D01*
X655434Y216937D01*
X656176Y218729D01*
X656430Y220652D01*
X656176Y222575D01*
X655434Y224367D01*
X654253Y225905D01*
X652715Y227086D01*
X650923Y227828D01*
X649000Y228082D01*
D02*
G37*
G36*
X571000Y242209D02*
X569411Y241893D01*
X561500D01*
X559589Y241513D01*
X557969Y240431D01*
X556887Y238811D01*
X556507Y236900D01*
X556887Y234989D01*
X557969Y233370D01*
X559589Y232287D01*
X561500Y231907D01*
X568946D01*
X569278Y231685D01*
X571310Y231281D01*
X582991D01*
X595523Y218749D01*
Y212287D01*
X608477D01*
Y226257D01*
X603031D01*
X588944Y240344D01*
X587222Y241495D01*
X585190Y241899D01*
X585190Y241899D01*
X572558D01*
X571000Y242209D01*
D02*
G37*
G36*
X449040Y219730D02*
X443000D01*
X436960D01*
Y213960D01*
X437691D01*
Y211928D01*
X437431Y211894D01*
X435577Y211126D01*
X433985Y209905D01*
X432764Y208313D01*
X431996Y206459D01*
X431901Y205740D01*
X447260D01*
X447905Y206706D01*
X448309Y208738D01*
Y213960D01*
X449040D01*
Y219730D01*
D02*
G37*
G36*
X543304Y235824D02*
X540777Y235321D01*
X538634Y233890D01*
X537203Y231747D01*
X536700Y229220D01*
X537203Y226693D01*
X538634Y224550D01*
X540777Y223119D01*
X543304Y222616D01*
X545831Y223119D01*
X546904Y223836D01*
X548463Y222277D01*
X549345Y221688D01*
X550386Y221481D01*
X550386Y221481D01*
X557427D01*
X557969Y220669D01*
X559589Y219587D01*
X561500Y219207D01*
X566986D01*
Y212000D01*
X567291Y210464D01*
X568162Y209162D01*
X569323Y208000D01*
X566337Y205014D01*
X561051D01*
X560527Y205364D01*
X558000Y205867D01*
X555473Y205364D01*
X553330Y203933D01*
X551899Y201790D01*
X551396Y199263D01*
X551899Y196736D01*
X553330Y194593D01*
X555473Y193162D01*
X558000Y192659D01*
X560527Y193162D01*
X562670Y194593D01*
X564101Y196736D01*
X564151Y196986D01*
X568000D01*
X569536Y197291D01*
X570838Y198162D01*
X575000Y202323D01*
X578162Y199162D01*
X579464Y198291D01*
X581000Y197986D01*
X595523D01*
Y195015D01*
X597986D01*
Y183897D01*
X596103D01*
Y174104D01*
X607897D01*
Y183897D01*
X606014D01*
Y195015D01*
X608477D01*
Y208985D01*
X595523D01*
Y206014D01*
X582663D01*
X575014Y213663D01*
Y219207D01*
X580500D01*
X582411Y219587D01*
X584030Y220669D01*
X585113Y222289D01*
X585493Y224200D01*
X585113Y226111D01*
X584030Y227731D01*
X582411Y228813D01*
X580500Y229193D01*
X561500D01*
X559589Y228813D01*
X557969Y227731D01*
X557427Y226919D01*
X551512D01*
X549792Y228639D01*
X549908Y229220D01*
X549405Y231747D01*
X547974Y233890D01*
X545831Y235321D01*
X543304Y235824D01*
D02*
G37*
G36*
X340400Y213374D02*
X338077Y213068D01*
X335913Y212171D01*
X334055Y210745D01*
X332629Y208887D01*
X331732Y206723D01*
X331426Y204400D01*
X331732Y202077D01*
X332629Y199913D01*
X334055Y198055D01*
X335913Y196628D01*
X338077Y195732D01*
X340400Y195426D01*
X342723Y195732D01*
X344887Y196628D01*
X346745Y198055D01*
X348172Y199913D01*
X349068Y202077D01*
X349374Y204400D01*
X349068Y206723D01*
X348172Y208887D01*
X346745Y210745D01*
X344887Y212171D01*
X342723Y213068D01*
X340400Y213374D01*
D02*
G37*
G36*
X315000D02*
X312677Y213068D01*
X310513Y212171D01*
X308655Y210745D01*
X307229Y208887D01*
X306332Y206723D01*
X306026Y204400D01*
X306332Y202077D01*
X307229Y199913D01*
X308655Y198055D01*
X310513Y196628D01*
X312677Y195732D01*
X315000Y195426D01*
X317323Y195732D01*
X319487Y196628D01*
X321345Y198055D01*
X322771Y199913D01*
X323668Y202077D01*
X323974Y204400D01*
X323668Y206723D01*
X322771Y208887D01*
X321345Y210745D01*
X319487Y212171D01*
X317323Y213068D01*
X315000Y213374D01*
D02*
G37*
G36*
X649000Y200170D02*
X647077Y199916D01*
X645285Y199174D01*
X643747Y197994D01*
X642566Y196455D01*
X641824Y194663D01*
X641571Y192740D01*
X641824Y190817D01*
X642566Y189025D01*
X643747Y187487D01*
X645285Y186306D01*
X647077Y185564D01*
X649000Y185310D01*
X650923Y185564D01*
X652715Y186306D01*
X654253Y187487D01*
X655434Y189025D01*
X656176Y190817D01*
X656430Y192740D01*
X656176Y194663D01*
X655434Y196455D01*
X654253Y197994D01*
X652715Y199174D01*
X650923Y199916D01*
X649000Y200170D01*
D02*
G37*
G36*
X316270Y188959D02*
Y180270D01*
X324959D01*
X324782Y181621D01*
X323770Y184063D01*
X322161Y186161D01*
X320063Y187770D01*
X317621Y188782D01*
X316270Y188959D01*
D02*
G37*
G36*
X313730D02*
X312379Y188782D01*
X309937Y187770D01*
X307839Y186161D01*
X306230Y184063D01*
X305218Y181621D01*
X305041Y180270D01*
X313730D01*
Y188959D01*
D02*
G37*
G36*
X588040Y184040D02*
X583270D01*
Y178270D01*
X588040D01*
Y184040D01*
D02*
G37*
G36*
X580730D02*
X575960D01*
Y178270D01*
X580730D01*
Y184040D01*
D02*
G37*
G36*
X715040Y236730D02*
X709000D01*
X702960D01*
Y230960D01*
X704986D01*
Y181663D01*
X698775Y175452D01*
X698270Y175519D01*
Y169270D01*
X704519D01*
X704452Y169775D01*
X711838Y177161D01*
X712708Y178464D01*
X713014Y180000D01*
Y230960D01*
X715040D01*
Y236730D01*
D02*
G37*
G36*
X542000Y183604D02*
X539473Y183101D01*
X537330Y181670D01*
X535899Y179527D01*
X535396Y177000D01*
X535899Y174473D01*
X537330Y172330D01*
X539473Y170899D01*
X542000Y170396D01*
X544527Y170899D01*
X545713Y171691D01*
X563103D01*
Y171103D01*
X572897D01*
Y174956D01*
X572905Y174968D01*
X573309Y177000D01*
X572905Y179032D01*
X572897Y179044D01*
Y182897D01*
X563103D01*
Y182309D01*
X545713D01*
X544527Y183101D01*
X542000Y183604D01*
D02*
G37*
G36*
X630477Y199713D02*
X617523D01*
Y185743D01*
X619986D01*
Y182108D01*
X619330Y181670D01*
X617899Y179527D01*
X617396Y177000D01*
X617899Y174473D01*
X619330Y172330D01*
X621473Y170899D01*
X624000Y170396D01*
X626527Y170899D01*
X628670Y172330D01*
X630101Y174473D01*
X630604Y177000D01*
X630101Y179527D01*
X628670Y181670D01*
X628014Y182108D01*
Y185743D01*
X630477D01*
Y199713D01*
D02*
G37*
G36*
X340400Y187974D02*
X338077Y187668D01*
X335913Y186772D01*
X334055Y185345D01*
X332629Y183487D01*
X331732Y181323D01*
X331426Y179000D01*
X331732Y176677D01*
X332629Y174513D01*
X334055Y172655D01*
X335913Y171229D01*
X338077Y170332D01*
X340400Y170026D01*
X342723Y170332D01*
X344887Y171229D01*
X346745Y172655D01*
X348172Y174513D01*
X349068Y176677D01*
X349374Y179000D01*
X349068Y181323D01*
X348172Y183487D01*
X346745Y185345D01*
X344887Y186772D01*
X342723Y187668D01*
X340400Y187974D01*
D02*
G37*
G36*
X324959Y177730D02*
X316270D01*
Y169041D01*
X317621Y169218D01*
X320063Y170230D01*
X322161Y171839D01*
X323770Y173937D01*
X324782Y176379D01*
X324959Y177730D01*
D02*
G37*
G36*
X313730D02*
X305041D01*
X305218Y176379D01*
X306230Y173937D01*
X307839Y171839D01*
X309937Y170230D01*
X312379Y169218D01*
X313730Y169041D01*
Y177730D01*
D02*
G37*
G36*
X695730Y175519D02*
X695011Y175424D01*
X693157Y174656D01*
X691565Y173435D01*
X690344Y171843D01*
X689576Y169989D01*
X689448Y169014D01*
X609040D01*
Y171040D01*
X603270D01*
Y165000D01*
Y158960D01*
X609040D01*
Y160986D01*
X692625D01*
X693569Y161173D01*
X695011Y160576D01*
X695730Y160481D01*
Y168000D01*
Y175519D01*
D02*
G37*
G36*
X704519Y166730D02*
X698270D01*
Y160481D01*
X698989Y160576D01*
X700843Y161344D01*
X702435Y162565D01*
X703656Y164157D01*
X704424Y166011D01*
X704519Y166730D01*
D02*
G37*
G36*
X588040Y175730D02*
X582000D01*
X575960D01*
Y169960D01*
X576778Y169029D01*
X577095Y167432D01*
X578246Y165710D01*
X582710Y161246D01*
X582710Y161246D01*
X584432Y160095D01*
X586464Y159691D01*
X594960D01*
Y158960D01*
X600730D01*
Y165000D01*
Y171040D01*
X594960D01*
Y170309D01*
X588663D01*
X588040Y170932D01*
Y175730D01*
D02*
G37*
G36*
X340400Y162574D02*
X338077Y162268D01*
X335913Y161371D01*
X334055Y159945D01*
X332629Y158087D01*
X331732Y155923D01*
X331426Y153600D01*
X331732Y151277D01*
X332629Y149113D01*
X334055Y147255D01*
X335913Y145829D01*
X338077Y144932D01*
X340400Y144626D01*
X342723Y144932D01*
X344887Y145829D01*
X346745Y147255D01*
X348172Y149113D01*
X349068Y151277D01*
X349374Y153600D01*
X349068Y155923D01*
X348172Y158087D01*
X346745Y159945D01*
X344887Y161371D01*
X342723Y162268D01*
X340400Y162574D01*
D02*
G37*
G36*
X315000D02*
X312677Y162268D01*
X310513Y161371D01*
X308655Y159945D01*
X307229Y158087D01*
X306332Y155923D01*
X306026Y153600D01*
X306332Y151277D01*
X307229Y149113D01*
X308655Y147255D01*
X310513Y145829D01*
X312677Y144932D01*
X315000Y144626D01*
X317323Y144932D01*
X319487Y145829D01*
X321345Y147255D01*
X322771Y149113D01*
X323668Y151277D01*
X323974Y153600D01*
X323668Y155923D01*
X322771Y158087D01*
X321345Y159945D01*
X319487Y161371D01*
X317323Y162268D01*
X315000Y162574D01*
D02*
G37*
G36*
X402620Y167589D02*
X398940Y167104D01*
X395511Y165684D01*
X392566Y163424D01*
X390306Y160479D01*
X388886Y157050D01*
X388401Y153370D01*
X388886Y149690D01*
X390306Y146261D01*
X392566Y143316D01*
X395511Y141056D01*
X398940Y139636D01*
X402620Y139151D01*
X406300Y139636D01*
X409729Y141056D01*
X412674Y143316D01*
X414934Y146261D01*
X416354Y149690D01*
X416839Y153370D01*
X416354Y157050D01*
X414934Y160479D01*
X412674Y163424D01*
X409729Y165684D01*
X406300Y167104D01*
X402620Y167589D01*
D02*
G37*
G36*
X341670Y138159D02*
Y129470D01*
X350359D01*
X350182Y130821D01*
X349170Y133263D01*
X347561Y135361D01*
X345463Y136970D01*
X343021Y137982D01*
X341670Y138159D01*
D02*
G37*
G36*
X339130D02*
X337779Y137982D01*
X335337Y136970D01*
X333239Y135361D01*
X331630Y133263D01*
X330618Y130821D01*
X330441Y129470D01*
X339130D01*
Y138159D01*
D02*
G37*
G36*
X315000Y137174D02*
X312677Y136868D01*
X310513Y135971D01*
X308655Y134545D01*
X307229Y132687D01*
X306332Y130523D01*
X306026Y128200D01*
X306332Y125877D01*
X307229Y123713D01*
X308655Y121855D01*
X310513Y120428D01*
X312677Y119532D01*
X315000Y119226D01*
X317323Y119532D01*
X319487Y120428D01*
X321345Y121855D01*
X322771Y123713D01*
X323668Y125877D01*
X323974Y128200D01*
X323668Y130523D01*
X322771Y132687D01*
X321345Y134545D01*
X319487Y135971D01*
X317323Y136868D01*
X315000Y137174D01*
D02*
G37*
G36*
X350359Y126930D02*
X341670D01*
Y118241D01*
X343021Y118418D01*
X345463Y119430D01*
X347561Y121039D01*
X349170Y123137D01*
X350182Y125579D01*
X350359Y126930D01*
D02*
G37*
G36*
X339130D02*
X330441D01*
X330618Y125579D01*
X331630Y123137D01*
X333239Y121039D01*
X335337Y119430D01*
X337779Y118418D01*
X339130Y118241D01*
Y126930D01*
D02*
G37*
G36*
X649000Y121430D02*
X647077Y121176D01*
X645285Y120434D01*
X643747Y119254D01*
X642566Y117715D01*
X641824Y115923D01*
X641571Y114000D01*
X641824Y112077D01*
X642566Y110285D01*
X643747Y108747D01*
X645285Y107566D01*
X647077Y106824D01*
X649000Y106571D01*
X650923Y106824D01*
X652715Y107566D01*
X654253Y108747D01*
X655434Y110285D01*
X656176Y112077D01*
X656430Y114000D01*
X656176Y115923D01*
X655434Y117715D01*
X654253Y119254D01*
X652715Y120434D01*
X650923Y121176D01*
X649000Y121430D01*
D02*
G37*
G36*
X315000Y111774D02*
X312677Y111468D01*
X310513Y110571D01*
X308655Y109145D01*
X307229Y107287D01*
X306332Y105123D01*
X306026Y102800D01*
X306332Y100477D01*
X307229Y98313D01*
X308655Y96455D01*
X310513Y95028D01*
X312677Y94132D01*
X315000Y93826D01*
X317323Y94132D01*
X319487Y95028D01*
X321345Y96455D01*
X322771Y98313D01*
X323668Y100477D01*
X323974Y102800D01*
X323668Y105123D01*
X322771Y107287D01*
X321345Y109145D01*
X319487Y110571D01*
X317323Y111468D01*
X315000Y111774D01*
D02*
G37*
G36*
X567297Y98897D02*
X549503D01*
Y81103D01*
X567297D01*
Y98897D01*
D02*
G37*
G36*
X533000Y98974D02*
X530677Y98668D01*
X528513Y97772D01*
X526655Y96345D01*
X525229Y94487D01*
X524332Y92323D01*
X524026Y90000D01*
X524332Y87677D01*
X525229Y85513D01*
X526655Y83655D01*
X528513Y82228D01*
X528976Y82037D01*
X528723Y80767D01*
X511876D01*
X511624Y82037D01*
X512087Y82228D01*
X513945Y83655D01*
X515372Y85513D01*
X516268Y87677D01*
X516574Y90000D01*
X516268Y92323D01*
X515372Y94487D01*
X513945Y96345D01*
X512087Y97772D01*
X509923Y98668D01*
X507600Y98974D01*
X505277Y98668D01*
X503113Y97772D01*
X501255Y96345D01*
X499828Y94487D01*
X498932Y92323D01*
X498626Y90000D01*
X498932Y87677D01*
X499828Y85513D01*
X501255Y83655D01*
X503113Y82228D01*
X503576Y82037D01*
X503324Y80767D01*
X348635D01*
X348172Y81887D01*
X346745Y83745D01*
X344887Y85171D01*
X342723Y86068D01*
X340400Y86374D01*
X338077Y86068D01*
X335913Y85171D01*
X334055Y83745D01*
X332629Y81887D01*
X331732Y79723D01*
X331426Y77400D01*
X331732Y75077D01*
X332629Y72913D01*
X334055Y71055D01*
X335913Y69629D01*
X338077Y68732D01*
X340400Y68426D01*
X342723Y68732D01*
X344887Y69629D01*
X346745Y71055D01*
X348172Y72913D01*
X348635Y74033D01*
X544206D01*
X565033Y53205D01*
Y35897D01*
X559503D01*
Y18103D01*
X577297D01*
Y35897D01*
X571767D01*
Y54600D01*
X571510Y55888D01*
X570781Y56981D01*
X547981Y79781D01*
X546888Y80510D01*
X545600Y80767D01*
X537276D01*
X537024Y82037D01*
X537487Y82228D01*
X539345Y83655D01*
X540771Y85513D01*
X541668Y87677D01*
X541974Y90000D01*
X541668Y92323D01*
X540771Y94487D01*
X539345Y96345D01*
X537487Y97772D01*
X535323Y98668D01*
X533000Y98974D01*
D02*
G37*
G36*
X316270Y87359D02*
Y78670D01*
X324959D01*
X324782Y80021D01*
X323770Y82463D01*
X322161Y84561D01*
X320063Y86170D01*
X317621Y87182D01*
X316270Y87359D01*
D02*
G37*
G36*
X313730D02*
X312379Y87182D01*
X309937Y86170D01*
X307839Y84561D01*
X306230Y82463D01*
X305218Y80021D01*
X305041Y78670D01*
X313730D01*
Y87359D01*
D02*
G37*
G36*
X324959Y76130D02*
X316270D01*
Y67441D01*
X317621Y67618D01*
X320063Y68630D01*
X322161Y70239D01*
X323770Y72337D01*
X324782Y74779D01*
X324959Y76130D01*
D02*
G37*
G36*
X313730D02*
X305041D01*
X305218Y74779D01*
X306230Y72337D01*
X307839Y70239D01*
X309937Y68630D01*
X312379Y67618D01*
X313730Y67441D01*
Y76130D01*
D02*
G37*
G36*
X732670Y72959D02*
Y64270D01*
X741359D01*
X741182Y65621D01*
X740170Y68063D01*
X738561Y70161D01*
X736463Y71770D01*
X734021Y72782D01*
X732670Y72959D01*
D02*
G37*
G36*
X681870D02*
Y64270D01*
X690559D01*
X690382Y65621D01*
X689370Y68063D01*
X687761Y70161D01*
X685663Y71770D01*
X683221Y72782D01*
X681870Y72959D01*
D02*
G37*
G36*
X631070D02*
Y64270D01*
X639759D01*
X639582Y65621D01*
X638570Y68063D01*
X636961Y70161D01*
X634863Y71770D01*
X632421Y72782D01*
X631070Y72959D01*
D02*
G37*
G36*
X792240Y73040D02*
X783470D01*
Y64270D01*
X792240D01*
Y73040D01*
D02*
G37*
G36*
X758070Y72959D02*
Y64270D01*
X766759D01*
X766582Y65621D01*
X765570Y68063D01*
X763961Y70161D01*
X761863Y71770D01*
X759421Y72782D01*
X758070Y72959D01*
D02*
G37*
G36*
X605670D02*
Y64270D01*
X614359D01*
X614182Y65621D01*
X613170Y68063D01*
X611561Y70161D01*
X609463Y71770D01*
X607021Y72782D01*
X605670Y72959D01*
D02*
G37*
G36*
X707270D02*
Y64270D01*
X715959D01*
X715782Y65621D01*
X714770Y68063D01*
X713161Y70161D01*
X711063Y71770D01*
X708621Y72782D01*
X707270Y72959D01*
D02*
G37*
G36*
X656470D02*
Y64270D01*
X665159D01*
X664982Y65621D01*
X663970Y68063D01*
X662361Y70161D01*
X660263Y71770D01*
X657821Y72782D01*
X656470Y72959D01*
D02*
G37*
G36*
X730130D02*
X728779Y72782D01*
X726337Y71770D01*
X724239Y70161D01*
X722630Y68063D01*
X721618Y65621D01*
X721441Y64270D01*
X730130D01*
Y72959D01*
D02*
G37*
G36*
X679330D02*
X677979Y72782D01*
X675537Y71770D01*
X673439Y70161D01*
X671830Y68063D01*
X670818Y65621D01*
X670641Y64270D01*
X679330D01*
Y72959D01*
D02*
G37*
G36*
X628530D02*
X627179Y72782D01*
X624737Y71770D01*
X622639Y70161D01*
X621030Y68063D01*
X620018Y65621D01*
X619841Y64270D01*
X628530D01*
Y72959D01*
D02*
G37*
G36*
X603130D02*
X601779Y72782D01*
X599337Y71770D01*
X597239Y70161D01*
X595630Y68063D01*
X594618Y65621D01*
X594441Y64270D01*
X603130D01*
Y72959D01*
D02*
G37*
G36*
X755530D02*
X754179Y72782D01*
X751737Y71770D01*
X749639Y70161D01*
X748030Y68063D01*
X747018Y65621D01*
X746841Y64270D01*
X755530D01*
Y72959D01*
D02*
G37*
G36*
X704730D02*
X703379Y72782D01*
X700937Y71770D01*
X698839Y70161D01*
X697230Y68063D01*
X696218Y65621D01*
X696041Y64270D01*
X704730D01*
Y72959D01*
D02*
G37*
G36*
X653930D02*
X652579Y72782D01*
X650137Y71770D01*
X648039Y70161D01*
X646430Y68063D01*
X645418Y65621D01*
X645241Y64270D01*
X653930D01*
Y72959D01*
D02*
G37*
G36*
X780930Y73040D02*
X772160D01*
Y64270D01*
X780930D01*
Y73040D01*
D02*
G37*
G36*
X766759Y61730D02*
X758070D01*
Y53041D01*
X759421Y53218D01*
X761863Y54230D01*
X763961Y55839D01*
X765570Y57937D01*
X766582Y60379D01*
X766759Y61730D01*
D02*
G37*
G36*
X741359D02*
X732670D01*
Y53041D01*
X734021Y53218D01*
X736463Y54230D01*
X738561Y55839D01*
X740170Y57937D01*
X741182Y60379D01*
X741359Y61730D01*
D02*
G37*
G36*
X715959D02*
X707270D01*
Y53041D01*
X708621Y53218D01*
X711063Y54230D01*
X713161Y55839D01*
X714770Y57937D01*
X715782Y60379D01*
X715959Y61730D01*
D02*
G37*
G36*
X690559D02*
X681870D01*
Y53041D01*
X683221Y53218D01*
X685663Y54230D01*
X687761Y55839D01*
X689370Y57937D01*
X690382Y60379D01*
X690559Y61730D01*
D02*
G37*
G36*
X665159D02*
X656470D01*
Y53041D01*
X657821Y53218D01*
X660263Y54230D01*
X662361Y55839D01*
X663970Y57937D01*
X664982Y60379D01*
X665159Y61730D01*
D02*
G37*
G36*
X639759D02*
X631070D01*
Y53041D01*
X632421Y53218D01*
X634863Y54230D01*
X636961Y55839D01*
X638570Y57937D01*
X639582Y60379D01*
X639759Y61730D01*
D02*
G37*
G36*
X614359D02*
X605670D01*
Y53041D01*
X607021Y53218D01*
X609463Y54230D01*
X611561Y55839D01*
X613170Y57937D01*
X614182Y60379D01*
X614359Y61730D01*
D02*
G37*
G36*
X755530D02*
X746841D01*
X747018Y60379D01*
X748030Y57937D01*
X749639Y55839D01*
X751737Y54230D01*
X754179Y53218D01*
X755530Y53041D01*
Y61730D01*
D02*
G37*
G36*
X730130D02*
X721441D01*
X721618Y60379D01*
X722630Y57937D01*
X724239Y55839D01*
X726337Y54230D01*
X728779Y53218D01*
X730130Y53041D01*
Y61730D01*
D02*
G37*
G36*
X704730D02*
X696041D01*
X696218Y60379D01*
X697230Y57937D01*
X698839Y55839D01*
X700937Y54230D01*
X703379Y53218D01*
X704730Y53041D01*
Y61730D01*
D02*
G37*
G36*
X679330D02*
X670641D01*
X670818Y60379D01*
X671830Y57937D01*
X673439Y55839D01*
X675537Y54230D01*
X677979Y53218D01*
X679330Y53041D01*
Y61730D01*
D02*
G37*
G36*
X653930D02*
X645241D01*
X645418Y60379D01*
X646430Y57937D01*
X648039Y55839D01*
X650137Y54230D01*
X652579Y53218D01*
X653930Y53041D01*
Y61730D01*
D02*
G37*
G36*
X628530D02*
X619841D01*
X620018Y60379D01*
X621030Y57937D01*
X622639Y55839D01*
X624737Y54230D01*
X627179Y53218D01*
X628530Y53041D01*
Y61730D01*
D02*
G37*
G36*
X603130D02*
X594441D01*
X594618Y60379D01*
X595630Y57937D01*
X597239Y55839D01*
X599337Y54230D01*
X601779Y53218D01*
X603130Y53041D01*
Y61730D01*
D02*
G37*
G36*
X792240D02*
X783470D01*
Y52960D01*
X792240D01*
Y61730D01*
D02*
G37*
G36*
X780930D02*
X772160D01*
Y52960D01*
X780930D01*
Y61730D01*
D02*
G37*
G36*
X428270Y37959D02*
Y29270D01*
X436959D01*
X436782Y30621D01*
X435770Y33063D01*
X434161Y35161D01*
X432063Y36770D01*
X429621Y37782D01*
X428270Y37959D01*
D02*
G37*
G36*
X425730D02*
X424379Y37782D01*
X421937Y36770D01*
X419839Y35161D01*
X418230Y33063D01*
X417218Y30621D01*
X417041Y29270D01*
X425730D01*
Y37959D01*
D02*
G37*
G36*
X493470Y36959D02*
Y28270D01*
X502159D01*
X501982Y29621D01*
X500970Y32063D01*
X499361Y34161D01*
X497263Y35770D01*
X494821Y36782D01*
X493470Y36959D01*
D02*
G37*
G36*
X490930Y36959D02*
X489579Y36782D01*
X487137Y35770D01*
X485039Y34161D01*
X483430Y32063D01*
X482418Y29621D01*
X482241Y28270D01*
X490930D01*
Y36959D01*
D02*
G37*
G36*
X681990Y36629D02*
Y27940D01*
X690679D01*
X690502Y29291D01*
X689490Y31733D01*
X687881Y33831D01*
X685783Y35440D01*
X683341Y36452D01*
X681990Y36629D01*
D02*
G37*
G36*
X631190D02*
Y27940D01*
X639879D01*
X639702Y29291D01*
X638690Y31733D01*
X637081Y33831D01*
X634983Y35440D01*
X632541Y36452D01*
X631190Y36629D01*
D02*
G37*
G36*
X792360Y36710D02*
X783590D01*
Y27940D01*
X792360D01*
Y36710D01*
D02*
G37*
G36*
X758190Y36629D02*
Y27940D01*
X766879D01*
X766702Y29291D01*
X765690Y31733D01*
X764081Y33831D01*
X761983Y35440D01*
X759541Y36452D01*
X758190Y36629D01*
D02*
G37*
G36*
X732790D02*
Y27940D01*
X741479D01*
X741302Y29291D01*
X740290Y31733D01*
X738681Y33831D01*
X736583Y35440D01*
X734141Y36452D01*
X732790Y36629D01*
D02*
G37*
G36*
X707390D02*
Y27940D01*
X716079D01*
X715902Y29291D01*
X714890Y31733D01*
X713281Y33831D01*
X711183Y35440D01*
X708741Y36452D01*
X707390Y36629D01*
D02*
G37*
G36*
X656590D02*
Y27940D01*
X665279D01*
X665102Y29291D01*
X664090Y31733D01*
X662481Y33831D01*
X660383Y35440D01*
X657941Y36452D01*
X656590Y36629D01*
D02*
G37*
G36*
X605790D02*
Y27940D01*
X614479D01*
X614302Y29291D01*
X613290Y31733D01*
X611681Y33831D01*
X609583Y35440D01*
X607141Y36452D01*
X605790Y36629D01*
D02*
G37*
G36*
X679450D02*
X678099Y36452D01*
X675657Y35440D01*
X673559Y33831D01*
X671950Y31733D01*
X670938Y29291D01*
X670761Y27940D01*
X679450D01*
Y36629D01*
D02*
G37*
G36*
X628650D02*
X627299Y36452D01*
X624857Y35440D01*
X622759Y33831D01*
X621150Y31733D01*
X620138Y29291D01*
X619961Y27940D01*
X628650D01*
Y36629D01*
D02*
G37*
G36*
X755650D02*
X754299Y36452D01*
X751857Y35440D01*
X749759Y33831D01*
X748150Y31733D01*
X747138Y29291D01*
X746961Y27940D01*
X755650D01*
Y36629D01*
D02*
G37*
G36*
X730250D02*
X728899Y36452D01*
X726457Y35440D01*
X724359Y33831D01*
X722750Y31733D01*
X721738Y29291D01*
X721561Y27940D01*
X730250D01*
Y36629D01*
D02*
G37*
G36*
X704850D02*
X703499Y36452D01*
X701057Y35440D01*
X698959Y33831D01*
X697350Y31733D01*
X696338Y29291D01*
X696161Y27940D01*
X704850D01*
Y36629D01*
D02*
G37*
G36*
X654050D02*
X652699Y36452D01*
X650257Y35440D01*
X648159Y33831D01*
X646550Y31733D01*
X645538Y29291D01*
X645361Y27940D01*
X654050D01*
Y36629D01*
D02*
G37*
G36*
X603250D02*
X601899Y36452D01*
X599457Y35440D01*
X597359Y33831D01*
X595750Y31733D01*
X594738Y29291D01*
X594561Y27940D01*
X603250D01*
Y36629D01*
D02*
G37*
G36*
X781050Y36710D02*
X772280D01*
Y27940D01*
X781050D01*
Y36710D01*
D02*
G37*
G36*
X461297Y36897D02*
X443503D01*
Y19103D01*
X461297D01*
Y36897D01*
D02*
G37*
G36*
X402353Y57765D02*
X399825Y57262D01*
X397683Y55830D01*
X396251Y53688D01*
X395749Y51161D01*
X396251Y48633D01*
X397683Y46491D01*
X398881Y45690D01*
Y36504D01*
X397113Y35772D01*
X395255Y34345D01*
X393829Y32487D01*
X392932Y30323D01*
X392626Y28000D01*
X392932Y25677D01*
X393829Y23513D01*
X395255Y21655D01*
X397113Y20229D01*
X399277Y19332D01*
X401600Y19026D01*
X403923Y19332D01*
X406087Y20229D01*
X407945Y21655D01*
X409371Y23513D01*
X410268Y25677D01*
X410574Y28000D01*
X410268Y30323D01*
X409371Y32487D01*
X407945Y34345D01*
X406087Y35772D01*
X404319Y36504D01*
Y44948D01*
X404880Y45059D01*
X407022Y46491D01*
X408454Y48633D01*
X408956Y51161D01*
X408454Y53688D01*
X407022Y55830D01*
X404880Y57262D01*
X402353Y57765D01*
D02*
G37*
G36*
X376200Y36974D02*
X373877Y36668D01*
X371713Y35772D01*
X369855Y34345D01*
X368428Y32487D01*
X367532Y30323D01*
X367226Y28000D01*
X367532Y25677D01*
X368428Y23513D01*
X369855Y21655D01*
X371713Y20229D01*
X373877Y19332D01*
X376200Y19026D01*
X378523Y19332D01*
X380687Y20229D01*
X382545Y21655D01*
X383971Y23513D01*
X384868Y25677D01*
X385174Y28000D01*
X384868Y30323D01*
X383971Y32487D01*
X382545Y34345D01*
X380687Y35772D01*
X378523Y36668D01*
X376200Y36974D01*
D02*
G37*
G36*
X436959Y26730D02*
X428270D01*
Y18041D01*
X429621Y18218D01*
X432063Y19230D01*
X434161Y20839D01*
X435770Y22937D01*
X436782Y25379D01*
X436959Y26730D01*
D02*
G37*
G36*
X425730D02*
X417041D01*
X417218Y25379D01*
X418230Y22937D01*
X419839Y20839D01*
X421937Y19230D01*
X424379Y18218D01*
X425730Y18041D01*
Y26730D01*
D02*
G37*
G36*
X519960Y69407D02*
X355267D01*
X353979Y69150D01*
X352886Y68421D01*
X344427Y59962D01*
X342723Y60668D01*
X340400Y60974D01*
X338077Y60668D01*
X335913Y59771D01*
X334055Y58345D01*
X332629Y56487D01*
X331732Y54323D01*
X331426Y52000D01*
X331732Y49677D01*
X332629Y47513D01*
X334055Y45655D01*
X335913Y44229D01*
X338077Y43332D01*
X340400Y43026D01*
X342723Y43332D01*
X344887Y44229D01*
X346745Y45655D01*
X348172Y47513D01*
X349068Y49677D01*
X349374Y52000D01*
X349068Y54323D01*
X348846Y54858D01*
X356661Y62673D01*
X518565D01*
X539633Y41606D01*
Y35236D01*
X538513Y34771D01*
X536655Y33345D01*
X535229Y31487D01*
X534332Y29323D01*
X534026Y27000D01*
X534332Y24677D01*
X535229Y22513D01*
X536655Y20655D01*
X538513Y19229D01*
X540677Y18332D01*
X543000Y18026D01*
X545323Y18332D01*
X547487Y19229D01*
X549345Y20655D01*
X550771Y22513D01*
X551668Y24677D01*
X551974Y27000D01*
X551668Y29323D01*
X550771Y31487D01*
X549345Y33345D01*
X547487Y34771D01*
X546367Y35236D01*
Y43000D01*
X546110Y44288D01*
X545381Y45381D01*
X522341Y68421D01*
X521248Y69150D01*
X519960Y69407D01*
D02*
G37*
G36*
X517600Y35974D02*
X515277Y35668D01*
X513113Y34771D01*
X511255Y33345D01*
X509828Y31487D01*
X508932Y29323D01*
X508626Y27000D01*
X508932Y24677D01*
X509828Y22513D01*
X511255Y20655D01*
X513113Y19229D01*
X515277Y18332D01*
X517600Y18026D01*
X519923Y18332D01*
X522087Y19229D01*
X523945Y20655D01*
X525372Y22513D01*
X526268Y24677D01*
X526574Y27000D01*
X526268Y29323D01*
X525372Y31487D01*
X523945Y33345D01*
X522087Y34771D01*
X519923Y35668D01*
X517600Y35974D01*
D02*
G37*
G36*
X349297Y35497D02*
X331503D01*
Y17703D01*
X349297D01*
Y35497D01*
D02*
G37*
G36*
X490930Y25730D02*
X482241D01*
X482418Y24379D01*
X483430Y21937D01*
X485039Y19839D01*
X487137Y18230D01*
X489579Y17218D01*
X490930Y17041D01*
Y25730D01*
D02*
G37*
G36*
X502159D02*
X493470D01*
Y17041D01*
X494821Y17218D01*
X497263Y18230D01*
X499361Y19839D01*
X500970Y21937D01*
X501982Y24379D01*
X502159Y25730D01*
D02*
G37*
G36*
X766879Y25400D02*
X758190D01*
Y16711D01*
X759541Y16888D01*
X761983Y17900D01*
X764081Y19509D01*
X765690Y21607D01*
X766702Y24049D01*
X766879Y25400D01*
D02*
G37*
G36*
X741479D02*
X732790D01*
Y16711D01*
X734141Y16888D01*
X736583Y17900D01*
X738681Y19509D01*
X740290Y21607D01*
X741302Y24049D01*
X741479Y25400D01*
D02*
G37*
G36*
X716079D02*
X707390D01*
Y16711D01*
X708741Y16888D01*
X711183Y17900D01*
X713281Y19509D01*
X714890Y21607D01*
X715902Y24049D01*
X716079Y25400D01*
D02*
G37*
G36*
X690679D02*
X681990D01*
Y16711D01*
X683341Y16888D01*
X685783Y17900D01*
X687881Y19509D01*
X689490Y21607D01*
X690502Y24049D01*
X690679Y25400D01*
D02*
G37*
G36*
X665279D02*
X656590D01*
Y16711D01*
X657941Y16888D01*
X660383Y17900D01*
X662481Y19509D01*
X664090Y21607D01*
X665102Y24049D01*
X665279Y25400D01*
D02*
G37*
G36*
X639879D02*
X631190D01*
Y16711D01*
X632541Y16888D01*
X634983Y17900D01*
X637081Y19509D01*
X638690Y21607D01*
X639702Y24049D01*
X639879Y25400D01*
D02*
G37*
G36*
X614479D02*
X605790D01*
Y16711D01*
X607141Y16888D01*
X609583Y17900D01*
X611681Y19509D01*
X613290Y21607D01*
X614302Y24049D01*
X614479Y25400D01*
D02*
G37*
G36*
X755650D02*
X746961D01*
X747138Y24049D01*
X748150Y21607D01*
X749759Y19509D01*
X751857Y17900D01*
X754299Y16888D01*
X755650Y16711D01*
Y25400D01*
D02*
G37*
G36*
X730250D02*
X721561D01*
X721738Y24049D01*
X722750Y21607D01*
X724359Y19509D01*
X726457Y17900D01*
X728899Y16888D01*
X730250Y16711D01*
Y25400D01*
D02*
G37*
G36*
X704850D02*
X696161D01*
X696338Y24049D01*
X697350Y21607D01*
X698959Y19509D01*
X701057Y17900D01*
X703499Y16888D01*
X704850Y16711D01*
Y25400D01*
D02*
G37*
G36*
X679450D02*
X670761D01*
X670938Y24049D01*
X671950Y21607D01*
X673559Y19509D01*
X675657Y17900D01*
X678099Y16888D01*
X679450Y16711D01*
Y25400D01*
D02*
G37*
G36*
X654050D02*
X645361D01*
X645538Y24049D01*
X646550Y21607D01*
X648159Y19509D01*
X650257Y17900D01*
X652699Y16888D01*
X654050Y16711D01*
Y25400D01*
D02*
G37*
G36*
X628650D02*
X619961D01*
X620138Y24049D01*
X621150Y21607D01*
X622759Y19509D01*
X624857Y17900D01*
X627299Y16888D01*
X628650Y16711D01*
Y25400D01*
D02*
G37*
G36*
X603250D02*
X594561D01*
X594738Y24049D01*
X595750Y21607D01*
X597359Y19509D01*
X599457Y17900D01*
X601899Y16888D01*
X603250Y16711D01*
Y25400D01*
D02*
G37*
G36*
X792360D02*
X783590D01*
Y16630D01*
X792360D01*
Y25400D01*
D02*
G37*
G36*
X781050D02*
X772280D01*
Y16630D01*
X781050D01*
Y25400D01*
D02*
G37*
G36*
X819000Y218657D02*
X815517Y218199D01*
X812271Y216854D01*
X809484Y214716D01*
X807346Y211929D01*
X806001Y208683D01*
X805543Y205200D01*
X806001Y201717D01*
X807346Y198471D01*
X809484Y195684D01*
X812271Y193546D01*
X813263Y193135D01*
Y191865D01*
X812271Y191454D01*
X809484Y189316D01*
X807346Y186529D01*
X806001Y183283D01*
X805543Y179800D01*
X806001Y176317D01*
X807346Y173071D01*
X809484Y170284D01*
X812271Y168146D01*
X813263Y167735D01*
Y166465D01*
X812271Y166054D01*
X809484Y163916D01*
X807346Y161129D01*
X806001Y157883D01*
X805543Y154400D01*
X806001Y150917D01*
X807346Y147671D01*
X809484Y144884D01*
X812271Y142746D01*
X813263Y142335D01*
Y141065D01*
X812271Y140654D01*
X809484Y138516D01*
X807346Y135729D01*
X806001Y132483D01*
X805543Y129000D01*
X806001Y125517D01*
X807346Y122271D01*
X809484Y119484D01*
X812271Y117346D01*
X813263Y116935D01*
Y115665D01*
X812271Y115254D01*
X809484Y113116D01*
X807346Y110329D01*
X806001Y107083D01*
X805543Y103600D01*
X806001Y100117D01*
X807346Y96871D01*
X809484Y94084D01*
X812271Y91946D01*
X813263Y91535D01*
Y90265D01*
X812271Y89854D01*
X809484Y87716D01*
X807346Y84929D01*
X806001Y81683D01*
X805543Y78200D01*
X806001Y74717D01*
X807346Y71471D01*
X809484Y68684D01*
X812271Y66546D01*
X813263Y66135D01*
Y64865D01*
X812271Y64454D01*
X809484Y62316D01*
X807346Y59529D01*
X806001Y56283D01*
X805543Y52800D01*
X806001Y49317D01*
X807346Y46071D01*
X809484Y43284D01*
X811143Y42012D01*
X810712Y40742D01*
X805658D01*
Y14058D01*
X832342D01*
Y40742D01*
X827289D01*
X826857Y42012D01*
X828516Y43284D01*
X830654Y46071D01*
X831999Y49317D01*
X832457Y52800D01*
X831999Y56283D01*
X830654Y59529D01*
X828516Y62316D01*
X825729Y64454D01*
X824737Y64865D01*
Y66135D01*
X825729Y66546D01*
X828516Y68684D01*
X830654Y71471D01*
X831999Y74717D01*
X832457Y78200D01*
X831999Y81683D01*
X830654Y84929D01*
X828516Y87716D01*
X825729Y89854D01*
X824737Y90265D01*
Y91535D01*
X825729Y91946D01*
X828516Y94084D01*
X830654Y96871D01*
X831999Y100117D01*
X832457Y103600D01*
X831999Y107083D01*
X830654Y110329D01*
X828516Y113116D01*
X825729Y115254D01*
X824737Y115665D01*
Y116935D01*
X825729Y117346D01*
X828516Y119484D01*
X830654Y122271D01*
X831999Y125517D01*
X832457Y129000D01*
X831999Y132483D01*
X830654Y135729D01*
X828516Y138516D01*
X825729Y140654D01*
X824737Y141065D01*
Y142335D01*
X825729Y142746D01*
X828516Y144884D01*
X830654Y147671D01*
X831999Y150917D01*
X832457Y154400D01*
X831999Y157883D01*
X830654Y161129D01*
X828516Y163916D01*
X825729Y166054D01*
X824737Y166465D01*
Y167735D01*
X825729Y168146D01*
X828516Y170284D01*
X830654Y173071D01*
X831999Y176317D01*
X832457Y179800D01*
X831999Y183283D01*
X830654Y186529D01*
X828516Y189316D01*
X825729Y191454D01*
X824737Y191865D01*
Y193135D01*
X825729Y193546D01*
X828516Y195684D01*
X830654Y198471D01*
X831999Y201717D01*
X832457Y205200D01*
X831999Y208683D01*
X830654Y211929D01*
X828516Y214716D01*
X825729Y216854D01*
X822483Y218199D01*
X819000Y218657D01*
D02*
G37*
G36*
X854000Y218457D02*
X850517Y217999D01*
X847271Y216654D01*
X844484Y214516D01*
X842346Y211729D01*
X841001Y208483D01*
X840543Y205000D01*
X841001Y201517D01*
X842346Y198271D01*
X844484Y195484D01*
X847271Y193346D01*
X848263Y192935D01*
Y191665D01*
X847271Y191254D01*
X844484Y189116D01*
X842346Y186329D01*
X841001Y183083D01*
X840543Y179600D01*
X841001Y176117D01*
X842346Y172871D01*
X844484Y170084D01*
X847271Y167946D01*
X848263Y167535D01*
Y166265D01*
X847271Y165854D01*
X844484Y163716D01*
X842346Y160929D01*
X841001Y157683D01*
X840543Y154200D01*
X841001Y150717D01*
X842346Y147471D01*
X844484Y144684D01*
X847271Y142546D01*
X848263Y142135D01*
Y140865D01*
X847271Y140454D01*
X844484Y138316D01*
X842346Y135529D01*
X841001Y132283D01*
X840543Y128800D01*
X841001Y125317D01*
X842346Y122071D01*
X844484Y119284D01*
X847271Y117146D01*
X848263Y116735D01*
Y115465D01*
X847271Y115054D01*
X844484Y112916D01*
X842346Y110129D01*
X841001Y106883D01*
X840543Y103400D01*
X841001Y99917D01*
X842346Y96671D01*
X844484Y93884D01*
X847271Y91746D01*
X848263Y91335D01*
Y90065D01*
X847271Y89654D01*
X844484Y87516D01*
X842346Y84729D01*
X841001Y81483D01*
X840543Y78000D01*
X841001Y74517D01*
X842346Y71271D01*
X844484Y68484D01*
X847271Y66346D01*
X848263Y65935D01*
Y64665D01*
X847271Y64254D01*
X844484Y62116D01*
X842346Y59329D01*
X841001Y56083D01*
X840543Y52600D01*
X841001Y49117D01*
X842346Y45871D01*
X844484Y43084D01*
X846143Y41812D01*
X845712Y40542D01*
X840658D01*
Y13858D01*
X867342D01*
Y40542D01*
X862289D01*
X861857Y41812D01*
X863516Y43084D01*
X865654Y45871D01*
X866999Y49117D01*
X867457Y52600D01*
X866999Y56083D01*
X865654Y59329D01*
X863516Y62116D01*
X860729Y64254D01*
X859737Y64665D01*
Y65935D01*
X860729Y66346D01*
X863516Y68484D01*
X865654Y71271D01*
X866999Y74517D01*
X867457Y78000D01*
X866999Y81483D01*
X865654Y84729D01*
X863516Y87516D01*
X860729Y89654D01*
X859737Y90065D01*
Y91335D01*
X860729Y91746D01*
X863516Y93884D01*
X865654Y96671D01*
X866999Y99917D01*
X867457Y103400D01*
X866999Y106883D01*
X865654Y110129D01*
X863516Y112916D01*
X860729Y115054D01*
X859737Y115465D01*
Y116735D01*
X860729Y117146D01*
X863516Y119284D01*
X865654Y122071D01*
X866999Y125317D01*
X867457Y128800D01*
X866999Y132283D01*
X865654Y135529D01*
X863516Y138316D01*
X860729Y140454D01*
X859737Y140865D01*
Y142135D01*
X860729Y142546D01*
X863516Y144684D01*
X865654Y147471D01*
X866999Y150717D01*
X867457Y154200D01*
X866999Y157683D01*
X865654Y160929D01*
X863516Y163716D01*
X860729Y165854D01*
X859737Y166265D01*
Y167535D01*
X860729Y167946D01*
X863516Y170084D01*
X865654Y172871D01*
X866999Y176117D01*
X867457Y179600D01*
X866999Y183083D01*
X865654Y186329D01*
X863516Y189116D01*
X860729Y191254D01*
X859737Y191665D01*
Y192935D01*
X860729Y193346D01*
X863516Y195484D01*
X865654Y198271D01*
X866999Y201517D01*
X867457Y205000D01*
X866999Y208483D01*
X865654Y211729D01*
X863516Y214516D01*
X860729Y216654D01*
X857483Y217999D01*
X854000Y218457D01*
D02*
G37*
G36*
X315000Y65457D02*
X311517Y64999D01*
X308271Y63654D01*
X305484Y61516D01*
X303346Y58729D01*
X302001Y55483D01*
X301543Y52000D01*
X302001Y48517D01*
X303346Y45271D01*
X305484Y42484D01*
X308271Y40346D01*
X309263Y39935D01*
Y38665D01*
X308271Y38254D01*
X305484Y36116D01*
X303346Y33329D01*
X302001Y30083D01*
X301543Y26600D01*
X302001Y23117D01*
X303346Y19871D01*
X305484Y17084D01*
X308271Y14946D01*
X311517Y13601D01*
X315000Y13143D01*
X318483Y13601D01*
X321729Y14946D01*
X324516Y17084D01*
X326654Y19871D01*
X327999Y23117D01*
X328457Y26600D01*
X327999Y30083D01*
X326654Y33329D01*
X324516Y36116D01*
X321729Y38254D01*
X320737Y38665D01*
Y39935D01*
X321729Y40346D01*
X324516Y42484D01*
X326654Y45271D01*
X327999Y48517D01*
X328457Y52000D01*
X327999Y55483D01*
X326654Y58729D01*
X324516Y61516D01*
X321729Y63654D01*
X318483Y64999D01*
X315000Y65457D01*
D02*
G37*
%LPD*%
G36*
X722257Y641213D02*
X722995Y641066D01*
X726505D01*
X727236Y640466D01*
Y638913D01*
X721337Y633014D01*
X697663D01*
X696264Y634412D01*
Y640466D01*
X696995Y641066D01*
X700505D01*
X701243Y641213D01*
X702000Y641569D01*
X702757Y641213D01*
X703495Y641066D01*
X707005D01*
X707743Y641213D01*
X708500Y641569D01*
X709257Y641213D01*
X709995Y641066D01*
X713505D01*
X714243Y641213D01*
X715000Y641569D01*
X715757Y641213D01*
X716495Y641066D01*
X720005D01*
X720743Y641213D01*
X721500Y641569D01*
X722257Y641213D01*
D02*
G37*
G36*
X733736Y604587D02*
Y600084D01*
X733005Y598934D01*
X729495D01*
X728757Y598787D01*
X728131Y598369D01*
X727869D01*
X727243Y598787D01*
X726505Y598934D01*
X722995D01*
X722257Y598787D01*
X721631Y598369D01*
X721369D01*
X720743Y598787D01*
X720005Y598934D01*
X716495D01*
X715757Y598787D01*
X715000Y598431D01*
X714243Y598787D01*
X713505Y598934D01*
X709995D01*
X709257Y598787D01*
X708631Y598369D01*
X708369D01*
X707743Y598787D01*
X707005Y598934D01*
X703495D01*
X702764Y600084D01*
Y603415D01*
X703989Y603576D01*
X705843Y604344D01*
X707435Y605565D01*
X708525Y606986D01*
X731337D01*
X733736Y604587D01*
D02*
G37*
G36*
X775270Y562960D02*
X780040D01*
Y564691D01*
X783801D01*
X788691Y559801D01*
Y530606D01*
X787421Y529927D01*
X786161Y530768D01*
X784000Y531198D01*
X778270D01*
Y525550D01*
X777000D01*
Y524280D01*
X764604D01*
X764781Y523388D01*
X766006Y521556D01*
X767838Y520331D01*
X770000Y519901D01*
X772986D01*
Y518498D01*
X770000D01*
X767838Y518068D01*
X766006Y516844D01*
X764781Y515011D01*
X764604Y514120D01*
X777000D01*
Y511580D01*
X764604D01*
X764781Y510688D01*
X766006Y508856D01*
X767838Y507631D01*
X770000Y507201D01*
X772986D01*
Y505798D01*
X770000D01*
X767838Y505368D01*
X766006Y504144D01*
X764781Y502311D01*
X764604Y501420D01*
X777000D01*
Y500150D01*
X778270D01*
Y494501D01*
X784000D01*
X786161Y494931D01*
X787994Y496156D01*
X788098Y496312D01*
X793960D01*
Y494960D01*
X799730D01*
Y501000D01*
X802270D01*
Y494960D01*
X807851D01*
X808040Y494960D01*
X809121Y494503D01*
Y465151D01*
X794870Y450900D01*
X794281Y450018D01*
X794074Y448977D01*
Y401269D01*
X787471D01*
X787170Y401720D01*
X785716Y402692D01*
X784000Y403033D01*
X770000D01*
X768284Y402692D01*
X766830Y401720D01*
X765858Y400266D01*
X765517Y398550D01*
X765858Y396834D01*
X766830Y395380D01*
X768284Y394408D01*
X770000Y394067D01*
X784000D01*
X785716Y394408D01*
X787170Y395380D01*
X787471Y395831D01*
X795305D01*
X796346Y396038D01*
X797228Y396627D01*
X797884Y397283D01*
X799154Y396757D01*
Y388719D01*
X787371D01*
X787170Y389020D01*
X785716Y389992D01*
X784000Y390333D01*
X770000D01*
X768284Y389992D01*
X766830Y389020D01*
X765858Y387565D01*
X765517Y385850D01*
X765858Y384134D01*
X766830Y382680D01*
X768284Y381708D01*
X770000Y381367D01*
X784000D01*
X785716Y381708D01*
X787170Y382680D01*
X787572Y383281D01*
X800385D01*
X801426Y383488D01*
X802308Y384077D01*
X802964Y384733D01*
X804234Y384207D01*
Y381079D01*
X799024Y375869D01*
X787471D01*
X787170Y376320D01*
X785716Y377292D01*
X784000Y377633D01*
X770000D01*
X768284Y377292D01*
X766830Y376320D01*
X765858Y374865D01*
X765517Y373150D01*
X765858Y371434D01*
X766830Y369980D01*
X768284Y369008D01*
X770000Y368667D01*
X784000D01*
X785716Y369008D01*
X787170Y369980D01*
X787471Y370431D01*
X800150D01*
X800488Y370498D01*
X801113Y369327D01*
X794955Y363169D01*
X787471D01*
X787170Y363620D01*
X785716Y364592D01*
X784000Y364933D01*
X770000D01*
X768284Y364592D01*
X766830Y363620D01*
X765858Y362165D01*
X765517Y360450D01*
X765858Y358734D01*
X766830Y357280D01*
X768284Y356308D01*
X770000Y355967D01*
X784000D01*
X785716Y356308D01*
X787170Y357280D01*
X787471Y357731D01*
X794905D01*
X795431Y356461D01*
X792849Y353879D01*
X760126D01*
X749719Y364286D01*
Y405000D01*
X749512Y406041D01*
X748923Y406923D01*
X704573Y451273D01*
X703691Y451862D01*
X702650Y452069D01*
X698249D01*
X697736Y452717D01*
X698087Y454172D01*
X698459Y454326D01*
X700306Y455744D01*
X701724Y457591D01*
X702615Y459742D01*
X702918Y462050D01*
X702615Y464358D01*
X701724Y466509D01*
X700306Y468356D01*
X698623Y469648D01*
X698542Y469790D01*
X698525Y470081D01*
X698728Y471037D01*
X699637Y471217D01*
X700939Y472087D01*
X704063Y475212D01*
X704444Y475328D01*
X705649Y475232D01*
X706254Y474444D01*
X707872Y473202D01*
X709757Y472421D01*
X711779Y472155D01*
X713801Y472421D01*
X715686Y473202D01*
X715844Y473324D01*
X765591Y423577D01*
X765858Y422234D01*
X766830Y420780D01*
X768284Y419808D01*
X770000Y419467D01*
X784000D01*
X785716Y419808D01*
X787170Y420780D01*
X788142Y422234D01*
X788483Y423950D01*
X788142Y425666D01*
X787170Y427120D01*
X785716Y428092D01*
X784000Y428433D01*
X770000D01*
X768687Y428172D01*
X719824Y477035D01*
X719961Y477621D01*
X721358Y478020D01*
X757031Y442347D01*
X757913Y441758D01*
X758954Y441551D01*
X761254D01*
X765623Y437182D01*
X765517Y436650D01*
X765858Y434934D01*
X766830Y433480D01*
X768284Y432508D01*
X770000Y432167D01*
X784000D01*
X785716Y432508D01*
X787170Y433480D01*
X788142Y434934D01*
X788483Y436650D01*
X788142Y438366D01*
X787170Y439820D01*
X785716Y440792D01*
X784000Y441133D01*
X770000D01*
X769468Y441027D01*
X765659Y444836D01*
X766153Y446138D01*
X766830Y446180D01*
X768284Y445208D01*
X770000Y444867D01*
X784000D01*
X785716Y445208D01*
X787170Y446180D01*
X788142Y447634D01*
X788483Y449350D01*
X788142Y451065D01*
X787170Y452520D01*
X785716Y453492D01*
X784000Y453833D01*
X770000D01*
X768284Y453492D01*
X766830Y452520D01*
X766529Y452069D01*
X762184D01*
X729639Y484614D01*
Y489776D01*
X730909Y490245D01*
X748327Y472827D01*
X749210Y472238D01*
X750250Y472031D01*
X766529D01*
X766830Y471580D01*
X768284Y470608D01*
X770000Y470267D01*
X784000D01*
X785716Y470608D01*
X787170Y471580D01*
X788142Y473034D01*
X788483Y474750D01*
X788142Y476465D01*
X787170Y477920D01*
X785716Y478892D01*
X784000Y479233D01*
X770000D01*
X768284Y478892D01*
X766830Y477920D01*
X766529Y477469D01*
X751376D01*
X735219Y493626D01*
Y498827D01*
X736488Y498959D01*
X737077Y498077D01*
X749627Y485527D01*
X750509Y484938D01*
X751550Y484731D01*
X766529D01*
X766830Y484280D01*
X768284Y483308D01*
X770000Y482967D01*
X784000D01*
X785716Y483308D01*
X787170Y484280D01*
X787321Y484506D01*
X795103D01*
Y482103D01*
X806897D01*
Y491897D01*
X795103D01*
Y489944D01*
X787622D01*
X787170Y490620D01*
X785716Y491592D01*
X784000Y491933D01*
X770000D01*
X768284Y491592D01*
X766830Y490620D01*
X766529Y490169D01*
X752676D01*
X741719Y501126D01*
Y514238D01*
X768559Y541078D01*
X769794D01*
Y542312D01*
X773004Y545523D01*
X782621D01*
Y558477D01*
X769794D01*
Y562922D01*
X771048Y562960D01*
X772730D01*
Y570000D01*
X775270D01*
Y562960D01*
D02*
G37*
G36*
X707762Y535475D02*
X709380Y534233D01*
X711265Y533452D01*
X713287Y533186D01*
X714773Y533382D01*
X729781Y518374D01*
Y508805D01*
X728511Y508335D01*
X719923Y516922D01*
X720054Y517093D01*
X720835Y518978D01*
X721101Y521000D01*
X720835Y523022D01*
X720054Y524907D01*
X718812Y526525D01*
X717194Y527767D01*
X715309Y528548D01*
X713287Y528814D01*
X711265Y528548D01*
X709380Y527767D01*
X707762Y526525D01*
X706645Y525069D01*
X706060Y525113D01*
X705375Y525421D01*
Y536579D01*
X706060Y536887D01*
X706645Y536931D01*
X707762Y535475D01*
D02*
G37*
G36*
X676830Y484280D02*
X678285Y483308D01*
X680000Y482967D01*
X694000D01*
X695716Y483308D01*
X696076Y483549D01*
X697346Y482870D01*
Y480704D01*
X696196Y479989D01*
X696076Y479985D01*
X694000Y480398D01*
X688270D01*
Y474750D01*
X687000D01*
Y473480D01*
X674604D01*
X674689Y473055D01*
X673907Y471785D01*
X668494D01*
X668448Y471820D01*
X665791Y472921D01*
X662940Y473296D01*
X660185Y472934D01*
X660085Y473024D01*
X659739Y474283D01*
X670186Y484731D01*
X676529D01*
X676830Y484280D01*
D02*
G37*
%LPC*%
G36*
X775730Y531198D02*
X770000D01*
X767838Y530768D01*
X766006Y529544D01*
X764781Y527711D01*
X764604Y526820D01*
X775730D01*
Y531198D01*
D02*
G37*
G36*
Y498880D02*
X764604D01*
X764781Y497988D01*
X766006Y496156D01*
X767838Y494931D01*
X770000Y494501D01*
X775730D01*
Y498880D01*
D02*
G37*
G36*
X798869Y476488D02*
X796342Y475985D01*
X794199Y474553D01*
X792768Y472411D01*
X792265Y469884D01*
X792722Y467583D01*
X789909Y464769D01*
X787471D01*
X787170Y465220D01*
X785716Y466192D01*
X784000Y466533D01*
X770000D01*
X768284Y466192D01*
X766830Y465220D01*
X765858Y463765D01*
X765517Y462050D01*
X765858Y460334D01*
X766830Y458880D01*
X768284Y457908D01*
X770000Y457567D01*
X784000D01*
X785716Y457908D01*
X787170Y458880D01*
X787471Y459331D01*
X791035D01*
X792076Y459538D01*
X792958Y460127D01*
X796568Y463737D01*
X798869Y463280D01*
X801396Y463783D01*
X803539Y465214D01*
X804970Y467356D01*
X805473Y469884D01*
X804970Y472411D01*
X803539Y474553D01*
X801396Y475985D01*
X798869Y476488D01*
D02*
G37*
G36*
X712000Y467814D02*
X709978Y467548D01*
X708093Y466767D01*
X706475Y465525D01*
X705233Y463907D01*
X704452Y462022D01*
X704186Y460000D01*
X704452Y457978D01*
X705233Y456093D01*
X706475Y454475D01*
X708093Y453233D01*
X709978Y452452D01*
X712000Y452186D01*
X714022Y452452D01*
X715210Y452944D01*
X758827Y409327D01*
X759709Y408738D01*
X760750Y408531D01*
X766529D01*
X766830Y408080D01*
X768284Y407108D01*
X770000Y406767D01*
X784000D01*
X785716Y407108D01*
X787170Y408080D01*
X788142Y409534D01*
X788483Y411250D01*
X788142Y412966D01*
X787170Y414420D01*
X785716Y415392D01*
X784000Y415733D01*
X770000D01*
X768284Y415392D01*
X766830Y414420D01*
X766529Y413969D01*
X761877D01*
X719056Y456790D01*
X719548Y457978D01*
X719814Y460000D01*
X719548Y462022D01*
X718767Y463907D01*
X717525Y465525D01*
X715907Y466767D01*
X714022Y467548D01*
X712000Y467814D01*
D02*
G37*
G36*
X685730Y480398D02*
X680000D01*
X677839Y479968D01*
X676006Y478744D01*
X674782Y476911D01*
X674604Y476020D01*
X685730D01*
Y480398D01*
D02*
G37*
%LPD*%
D12*
X633842Y280050D02*
X640080Y273812D01*
X627950Y280050D02*
X633842D01*
X640080Y234950D02*
Y273812D01*
X624000Y218870D02*
X640080Y234950D01*
X624000Y210000D02*
Y218870D01*
X463000Y364000D02*
Y376000D01*
X358000Y481000D02*
X463000Y376000D01*
X358000Y481000D02*
Y522000D01*
X342870Y303530D02*
X361950D01*
X340400Y306000D02*
X342870Y303530D01*
X550386Y224200D02*
X571000D01*
X545366Y229220D02*
X550386Y224200D01*
X543304Y229220D02*
X545366D01*
X723000Y238000D02*
X737000D01*
X445000Y320000D02*
X445000Y320000D01*
Y344000D01*
X478410Y300990D02*
X479000Y300400D01*
X455930Y308610D02*
X463550Y300990D01*
X478410D01*
X431800Y300800D02*
Y307122D01*
X433288Y308610D01*
X455930D01*
X429000Y298000D02*
X431800Y300800D01*
X478410Y313690D02*
X479000Y313100D01*
X461010Y313690D02*
X478410D01*
X445000Y320000D02*
X454700D01*
X461010Y313690D01*
X429000Y298000D02*
X431000Y296000D01*
Y276000D02*
Y296000D01*
X713287Y519713D02*
Y521000D01*
Y519713D02*
X726920Y506080D01*
X713287Y538896D02*
Y541000D01*
X713196Y538804D02*
X713287Y538896D01*
X713196Y538804D02*
X732500Y519500D01*
X518160Y248920D02*
X528540Y238540D01*
X577850Y356870D02*
Y377190D01*
X623570Y422910D01*
X543300Y287700D02*
X571000D01*
X537000Y294000D02*
X543300Y287700D01*
X541000Y275000D02*
X571000D01*
X538000Y278000D02*
X541000Y275000D01*
X541000Y307000D02*
Y351000D01*
Y307000D02*
X547000Y301000D01*
X623570Y422910D02*
Y441960D01*
X669060Y487450D02*
X687000D01*
X623570Y441960D02*
X669060Y487450D01*
X670330Y500150D02*
X687000D01*
X614680Y444500D02*
X670330Y500150D01*
X614680Y427990D02*
Y444500D01*
X562610Y375920D02*
X614680Y427990D01*
X547000Y301000D02*
X570400D01*
X571000Y300400D01*
X361000Y390000D02*
X373000D01*
X705250Y650500D02*
Y662310D01*
X699770Y667790D02*
X705250Y662310D01*
X699770Y667790D02*
Y669290D01*
X340400Y407600D02*
X340435Y407635D01*
X364455D01*
X364490Y407670D01*
X724750Y662520D02*
X734060Y671830D01*
X744220D01*
X724750Y650500D02*
Y662520D01*
X314965Y306035D02*
X315000Y306000D01*
X290865Y306035D02*
X314965D01*
X290830Y306070D02*
X290865Y306035D01*
X401600Y50408D02*
X402353Y51161D01*
X401600Y28000D02*
Y50408D01*
X777000Y373150D02*
X800150D01*
X806953Y379953D01*
X315000Y407600D02*
X327630Y394970D01*
X356030D02*
X361000Y390000D01*
X327630Y394970D02*
X356030D01*
X712000Y460000D02*
X760750Y411250D01*
X791035Y462050D02*
X798869Y469884D01*
X777000Y462050D02*
X791035D01*
X340400Y255200D02*
X341000Y254600D01*
X363400D01*
X364000Y254000D01*
X490000Y360000D02*
X500000Y350000D01*
X467000Y360000D02*
X490000D01*
X463000Y364000D02*
X467000Y360000D01*
X312000Y530000D02*
X350000D01*
X358000Y522000D01*
X300000Y518000D02*
X312000Y530000D01*
X300000Y486000D02*
X302000Y484000D01*
X300000Y486000D02*
Y518000D01*
X302000Y484000D02*
X314800D01*
X315000Y483800D01*
X713287Y498713D02*
X721840Y490160D01*
Y481384D02*
Y490160D01*
X726920Y483488D02*
Y506080D01*
X713287Y498713D02*
Y500000D01*
X732500Y492500D02*
Y519500D01*
X711779Y479969D02*
X713045D01*
X769064Y423950D01*
X726920Y483488D02*
X761058Y449350D01*
X732500Y492500D02*
X750250Y474750D01*
X739000Y500000D02*
Y515364D01*
Y500000D02*
X751550Y487450D01*
X750250Y474750D02*
X777000D01*
X739000Y515364D02*
X771318Y547682D01*
X776000Y683000D02*
Y701000D01*
Y683000D02*
X777000Y682000D01*
X737890Y682318D02*
Y689682D01*
X715720Y695350D02*
X732222D01*
X737890Y689682D01*
X718250Y662678D02*
X737890Y682318D01*
X718250Y650500D02*
Y662678D01*
X715720Y682650D02*
X716000Y682370D01*
Y673000D02*
Y682370D01*
X711750Y650500D02*
Y668750D01*
X716000Y673000D01*
X694500Y300000D02*
X695000Y299500D01*
X694500Y300000D02*
Y317500D01*
X694000Y318000D02*
X694500Y317500D01*
X750000Y256000D02*
X750500Y255500D01*
Y238500D02*
Y255500D01*
Y238500D02*
X751001Y238000D01*
X761000Y258000D02*
X783000D01*
X750000Y256000D02*
X759000D01*
X761000Y258000D01*
X736000Y267500D02*
Y279000D01*
Y256000D02*
Y267500D01*
X756500D01*
X772400Y283400D02*
X783000D01*
X756500Y267500D02*
X772400Y283400D01*
X736000Y256000D02*
X736000Y256000D01*
X736000Y279000D02*
X736000Y279000D01*
X783000Y283400D02*
Y294000D01*
X714000Y306000D02*
X771000D01*
X783000Y294000D01*
X705000Y297000D02*
X714000Y306000D01*
X701500Y280500D02*
X705000Y284000D01*
Y297000D01*
X695000Y280500D02*
X701500D01*
X689000Y260000D02*
X695000D01*
X670950Y241950D02*
X689000Y260000D01*
X655000Y241950D02*
X670950D01*
X750000Y296000D02*
X750000Y296000D01*
X750000Y279000D02*
Y296000D01*
X750000Y279000D02*
X750000Y279000D01*
X687500Y280500D02*
X695000D01*
X684000Y277000D02*
X687500Y280500D01*
X684000Y267000D02*
Y277000D01*
X671650Y254650D02*
X684000Y267000D01*
X655000Y254650D02*
X671650D01*
X682500Y299500D02*
X695000D01*
X677000Y294000D02*
X682500Y299500D01*
X677000Y274000D02*
Y294000D01*
X655000Y267350D02*
X670350D01*
X677000Y274000D01*
X775128Y552000D02*
X775636D01*
X771318Y548190D02*
X775128Y552000D01*
X771318Y547682D02*
Y548190D01*
X751550Y487450D02*
X777000D01*
X834450Y663000D02*
X835660Y664210D01*
X804000Y663000D02*
X834450D01*
X721840Y481384D02*
X758954Y444270D01*
X762380D02*
X770000Y436650D01*
X758954Y444270D02*
X762380D01*
X761058Y449350D02*
X777000D01*
X835565Y638905D02*
X835660Y638810D01*
X804095Y638905D02*
X835565D01*
X804000Y639000D02*
X804095Y638905D01*
X770000Y436650D02*
X777000D01*
X834955Y612705D02*
X835660Y613410D01*
X804705Y612705D02*
X834955D01*
X804000Y612000D02*
X804705Y612705D01*
X804000Y587000D02*
X804505Y587505D01*
X835155D01*
X769064Y423950D02*
X777000D01*
X835155Y587505D02*
X835660Y588010D01*
X760750Y411250D02*
X777000D01*
X811840Y538790D02*
X835660Y562610D01*
X811840Y464024D02*
Y538790D01*
X816920Y461920D02*
Y518470D01*
X835660Y537210D01*
X823834Y505834D02*
X826312D01*
X822000Y504000D02*
X823834Y505834D01*
X832288Y511810D02*
X835660D01*
X822000Y458184D02*
Y504000D01*
X826312Y505834D02*
X832288Y511810D01*
X806953Y443137D02*
X822000Y458184D01*
X801873Y446873D02*
X816920Y461920D01*
X777000Y398550D02*
X795305D01*
X796793Y400038D01*
Y448977D01*
X811840Y464024D01*
X812033Y376401D02*
Y441033D01*
X835660Y464660D02*
Y486410D01*
X801873Y387488D02*
Y446873D01*
X806953Y379953D02*
Y443137D01*
X812033Y441033D02*
X835660Y464660D01*
X800775Y487225D02*
X801000Y487000D01*
X777225Y487225D02*
X800775D01*
X777000Y487450D02*
X777225Y487225D01*
X777150Y386000D02*
X800385D01*
X801873Y387488D01*
X777000Y385850D02*
X777150Y386000D01*
X822193Y372193D02*
Y395473D01*
X796081Y360450D02*
X812033Y376401D01*
X817113Y415793D02*
X836930Y435610D01*
X796080Y346080D02*
X822193Y372193D01*
X817113Y374297D02*
Y415793D01*
X793976Y351160D02*
X817113Y374297D01*
X822193Y395473D02*
X836930Y410210D01*
X827273Y375153D02*
X836930Y384810D01*
X827273Y369273D02*
Y375153D01*
X799000Y341000D02*
X827273Y369273D01*
X754104Y346080D02*
X796080D01*
X759000Y351160D02*
X793976D01*
X752000Y341000D02*
X799000D01*
X836140Y358620D02*
X836930Y359410D01*
X802920Y335920D02*
X825620Y358620D01*
X836140D01*
X747080Y335920D02*
X802920D01*
X777000Y360450D02*
X796081D01*
X687000Y449350D02*
X702650D01*
X747000Y405000D01*
X687000Y436650D02*
X705350D01*
X740080Y360104D02*
Y401920D01*
X705350Y436650D02*
X740080Y401920D01*
X747000Y363160D02*
X759000Y351160D01*
X747000Y363160D02*
Y405000D01*
X709000Y424000D02*
X735000Y398000D01*
Y358000D02*
Y398000D01*
X687050Y424000D02*
X709000D01*
X740080Y360104D02*
X754104Y346080D01*
X735000Y358000D02*
X752000Y341000D01*
X729920Y353080D02*
X747080Y335920D01*
X719240Y314760D02*
X785240D01*
X710000Y343000D02*
X733160Y319840D01*
X724840Y350160D02*
X745000Y330000D01*
X733160Y319840D02*
X789160D01*
X833558Y334010D02*
X836930D01*
X792521Y324920D02*
X808831Y308610D01*
X739080Y324920D02*
X792521D01*
X785240Y314760D02*
X800000Y300000D01*
X745000Y330000D02*
X829548D01*
X789160Y319840D02*
X825790Y283210D01*
X829548Y330000D02*
X833558Y334010D01*
X687000Y347000D02*
X719240Y314760D01*
X719760Y344240D02*
X739080Y324920D01*
X710184Y411000D02*
X729920Y391264D01*
X719760Y344240D02*
Y377240D01*
X711150Y385850D02*
X719760Y377240D01*
X715450Y398550D02*
X724840Y389160D01*
X729920Y353080D02*
Y391264D01*
X724840Y350160D02*
Y389160D01*
X710000Y343000D02*
Y369000D01*
X705850Y373150D02*
X710000Y369000D01*
X687000Y423950D02*
X687050Y424000D01*
X687000Y411250D02*
X687250Y411000D01*
X710184D01*
X687000Y398550D02*
X715450D01*
X808831Y308610D02*
X836930D01*
X825790Y283210D02*
X836930D01*
X800000Y275000D02*
Y300000D01*
X687000Y373150D02*
X705850D01*
X687000Y385850D02*
X711150D01*
X800000Y275000D02*
X817190Y257810D01*
X687000Y360450D02*
X687000Y360450D01*
X687000Y347000D02*
Y360450D01*
X817190Y257810D02*
X836930D01*
D21*
X687000Y525550D02*
Y539000D01*
X429000Y321000D02*
Y341620D01*
X445000Y297000D02*
Y298000D01*
Y276000D02*
Y297000D01*
X443000Y208738D02*
Y221000D01*
X439420Y205157D02*
X443000Y208738D01*
X439420Y204470D02*
Y205157D01*
X461590Y236590D02*
X478690D01*
X457000Y232000D02*
X461590Y236590D01*
X457000Y205000D02*
Y232000D01*
X393000Y192000D02*
X482000D01*
X375000Y174000D02*
X393000Y192000D01*
X482000D02*
X528540Y238540D01*
X662940Y462280D02*
X663170Y462050D01*
X687000D01*
X489000Y381250D02*
X493000Y377250D01*
X489000Y381250D02*
Y416000D01*
X464820Y345440D02*
X474536D01*
X479000Y325800D02*
Y340976D01*
X474536Y345440D02*
X479000Y340976D01*
X452120Y358140D02*
X464820Y345440D01*
X435773Y358140D02*
X452120D01*
X431310Y344310D02*
Y353676D01*
X435773Y358140D01*
X431000Y344000D02*
X431310Y344310D01*
X429000Y341620D02*
X431000Y343620D01*
Y344000D01*
X415290Y276860D02*
Y315536D01*
X443620Y254000D02*
X444000D01*
X443310Y254310D02*
X443620Y254000D01*
X443310Y254310D02*
Y254690D01*
X442870Y255130D02*
X443310Y254690D01*
X442870Y255130D02*
Y262890D01*
X444000Y254000D02*
X444000Y254000D01*
X429000Y254000D02*
X444000D01*
X429000Y254000D02*
X429000Y254000D01*
X426104Y262890D02*
X442870D01*
X445000Y276000D02*
X447334Y273666D01*
Y267354D02*
Y273666D01*
X442870Y262890D02*
X447334Y267354D01*
X421640D02*
Y270510D01*
Y267354D02*
X426104Y262890D01*
X419754Y320000D02*
X429000D01*
X415290Y315536D02*
X419754Y320000D01*
X415290Y276860D02*
X421640Y270510D01*
X445000Y276000D02*
X445000Y276000D01*
X445000Y298000D02*
X445000Y298000D01*
X528540Y238540D02*
X539600Y249600D01*
X523000Y271000D02*
X531700Y262300D01*
X523000Y271000D02*
Y366000D01*
X669850Y512850D01*
X687000D01*
X732657Y552000D02*
X758364D01*
X730937Y553720D02*
X732657Y552000D01*
X730250Y553720D02*
X730937D01*
X760000Y553270D02*
Y570000D01*
X758730Y552000D02*
X760000Y553270D01*
X758364Y552000D02*
X758730D01*
X531700Y262300D02*
X571000D01*
X582000Y169464D02*
Y177000D01*
X586464Y165000D02*
X602000D01*
X582000Y169464D02*
X586464Y165000D01*
X542000Y177000D02*
X568000D01*
X478690Y236590D02*
X479000Y236900D01*
X602000Y219272D02*
Y219780D01*
X585190Y236590D02*
X602000Y219780D01*
X571310Y236590D02*
X585190D01*
X571000Y236900D02*
X571310Y236590D01*
X340400Y102800D02*
X340600Y103000D01*
X362000D01*
X375000Y116000D01*
Y174000D01*
X539600Y249600D02*
X571000D01*
X626000Y526000D02*
Y545000D01*
X643000Y562000D01*
X664000D02*
X687000Y539000D01*
X643000Y562000D02*
X664000D01*
X801000Y517000D02*
Y517687D01*
X794000Y524687D02*
X801000Y517687D01*
X794000Y524687D02*
Y562000D01*
X529000Y514000D02*
Y529000D01*
X523000Y535000D02*
X529000Y529000D01*
X523000Y535000D02*
Y558600D01*
X523400Y559000D01*
X774000Y570000D02*
X774000Y570000D01*
Y588000D01*
X774000Y588000D01*
X786000Y570000D02*
X794000Y562000D01*
X774000Y570000D02*
X786000D01*
D22*
X445000Y297000D02*
X445000Y297000D01*
X445000Y297000D02*
Y298000D01*
X629666Y261481D02*
Y264160D01*
X623011Y254826D02*
X629666Y261481D01*
X607176Y254826D02*
X623011D01*
X624000Y210000D02*
X625842Y211842D01*
X746572Y646618D02*
X754380Y638810D01*
X738040Y646618D02*
X746572D01*
X737750Y646908D02*
X738040Y646618D01*
X476500Y495000D02*
Y514500D01*
X745661Y563443D02*
Y576751D01*
X452120Y440690D02*
X469940D01*
X470000Y440750D01*
Y461000D01*
X542769Y457317D02*
X543741Y458289D01*
X533000Y461410D02*
Y478000D01*
Y461410D02*
X537210Y457200D01*
X537327Y457317D01*
X542769D01*
X589000Y290000D02*
X613000Y314000D01*
X737750Y646908D02*
Y650500D01*
X760000Y661000D02*
X760000Y661000D01*
Y682000D01*
X760000Y682000D01*
X731000Y637000D02*
X760000Y608000D01*
X731000Y637000D02*
X731250Y637250D01*
Y650500D01*
X760000Y588000D02*
Y608000D01*
X723000Y629000D02*
X731000Y637000D01*
X760000Y587000D02*
Y588000D01*
X607000Y241950D02*
X614751D01*
X615176Y241525D01*
Y232019D02*
Y241525D01*
Y232019D02*
X617220Y229975D01*
Y228600D02*
Y229975D01*
X558000Y199263D02*
Y201000D01*
X568000D01*
X575000Y208000D01*
X479000Y209340D02*
X480060Y208280D01*
X479000Y209340D02*
Y224200D01*
X750570Y581660D02*
Y585024D01*
X759040Y586040D02*
X760000Y587000D01*
X751586Y586040D02*
X759040D01*
X750570Y585024D02*
X751586Y586040D01*
X745661Y576751D02*
X750570Y581660D01*
X737750Y589500D02*
Y606250D01*
X702000Y611000D02*
X733000D01*
X737750Y606250D01*
X609120Y478000D02*
X609600Y477520D01*
X578000Y478000D02*
X609120D01*
X606824Y267526D02*
X607000Y267350D01*
X589000Y270502D02*
X591976Y267526D01*
X589000Y270502D02*
Y290000D01*
X591976Y267526D02*
X606824D01*
X496000Y495000D02*
X496000Y495000D01*
Y515000D01*
X496000Y515000D01*
X493000Y440750D02*
X493000Y440750D01*
Y465000D01*
X493000Y465000D01*
X533000Y478000D02*
X533000Y478000D01*
X505374Y478000D02*
X533000D01*
X504984Y478390D02*
X505374Y478000D01*
X482390Y478390D02*
X504984D01*
X479000Y475000D02*
X482390Y478390D01*
X479000Y465000D02*
Y475000D01*
Y464000D02*
Y465000D01*
X478040Y463040D02*
X479000Y464000D01*
X472040Y463040D02*
X478040D01*
X470000Y461000D02*
X472040Y463040D01*
X578000Y462000D02*
Y478000D01*
X516000Y440750D02*
X556750D01*
X578000Y462000D01*
X410000Y235000D02*
X411375D01*
X416374Y240000D01*
X429000D01*
X429000Y240000D01*
X575000Y208000D02*
X581000Y202000D01*
X571000Y212000D02*
X575000Y208000D01*
X624000Y177000D02*
Y192728D01*
X607000Y254650D02*
X607176Y254826D01*
X607000Y280050D02*
X627950D01*
X602000Y165000D02*
X692625D01*
X695625Y168000D01*
X697000D01*
X709000Y180000D02*
Y238000D01*
X697000Y168000D02*
X709000Y180000D01*
X709000Y260000D02*
X709000Y260000D01*
X709000Y238000D02*
Y260000D01*
X709000Y238000D02*
X709000Y238000D01*
X602000Y179000D02*
Y202000D01*
X581000D02*
X602000D01*
X571000Y212000D02*
Y224200D01*
X801000Y501000D02*
Y517000D01*
X777000Y500150D02*
X777176Y500326D01*
X800326D01*
X801000Y501000D01*
X777000Y500150D02*
Y512850D01*
Y525550D01*
X698750Y589500D02*
Y606375D01*
X702000Y609625D01*
Y611000D01*
X701360Y478186D02*
Y549360D01*
X687000Y474750D02*
X687176Y474926D01*
X698101D01*
X701360Y478186D01*
X692250Y572373D02*
Y589500D01*
X699040Y576960D02*
X711896Y564104D01*
X699040Y576960D02*
Y589210D01*
X700124Y563124D02*
Y564499D01*
X711896Y559896D02*
Y564104D01*
X701360Y549360D02*
X711896Y559896D01*
X692250Y572373D02*
X700124Y564499D01*
X698750Y589500D02*
X699040Y589210D01*
X429000Y240000D02*
X444000D01*
X444000Y240000D01*
X340400Y229800D02*
X342200Y228000D01*
X369000D01*
X376000Y221000D02*
X429000D01*
X369000Y228000D02*
X376000Y221000D01*
X664500Y586000D02*
X688750D01*
X691420Y588670D01*
X715720Y701700D02*
X719300Y705280D01*
X731440D01*
X732000Y705840D01*
X745000Y703000D02*
X747000Y701000D01*
X760000D01*
X727625Y686000D02*
X729000D01*
Y687000D01*
X724625Y689000D02*
X727625Y686000D01*
X715720Y689000D02*
X724625D01*
X714500Y290000D02*
X715000D01*
X714040Y289540D02*
X714500Y290000D01*
X714040Y289040D02*
Y289540D01*
X714000Y289000D02*
X714040Y289040D01*
X714000Y272000D02*
Y289000D01*
X709000Y260000D02*
X709960Y260960D01*
Y267960D01*
X714000Y272000D01*
X715000Y290000D02*
X715500D01*
X721500Y296000D01*
X736000D01*
X474800Y517200D02*
X477000Y515000D01*
X474800Y517200D02*
Y556800D01*
X472600Y559000D02*
X474800Y556800D01*
X476500Y514500D02*
X477000Y515000D01*
X472600Y559000D02*
Y586400D01*
X463000Y596000D02*
X472600Y586400D01*
X402620Y641380D02*
X448000Y596000D01*
X463000D01*
X402620Y641380D02*
Y686630D01*
X598500Y688000D02*
Y707500D01*
X590000Y716000D02*
X598500Y707500D01*
X431990Y716000D02*
X590000D01*
X402620Y686630D02*
X431990Y716000D01*
X372000Y503946D02*
X402620Y473326D01*
X372000Y503946D02*
Y703000D01*
X398000Y729000D02*
X613000D01*
X372000Y703000D02*
X398000Y729000D01*
X613000D02*
X621000Y721000D01*
Y698000D02*
X631000Y688000D01*
X621000Y698000D02*
Y721000D01*
X702000Y701700D02*
Y711000D01*
X707000Y716000D01*
X742000D02*
X745000Y713000D01*
X707000Y716000D02*
X742000D01*
X745000Y703000D02*
Y713000D01*
X631000Y688000D02*
X669500D01*
X627000Y664000D02*
X634000Y671000D01*
X658000D01*
X627000Y619500D02*
Y664000D01*
X669500Y688000D02*
X683200Y701700D01*
X702000D01*
X688650Y682650D02*
X702000D01*
X672460Y666460D02*
X688650Y682650D01*
X671000Y658000D02*
X672460Y659460D01*
Y666460D01*
X658000Y671000D02*
X671000Y658000D01*
X593500Y586000D02*
X627000Y619500D01*
X671500Y624500D02*
X672000Y624000D01*
X671500Y624500D02*
Y641500D01*
X671000Y642000D02*
X671500Y641500D01*
X664500Y586000D02*
Y601750D01*
X669750Y607000D01*
X672000D01*
X696000Y629000D02*
X723000D01*
X692250Y632750D02*
X696000Y629000D01*
X692250Y632750D02*
Y650500D01*
X697920D01*
D23*
X429000Y320000D02*
Y321000D01*
X428080Y321920D02*
X429000Y321000D01*
X417578Y321920D02*
X428080D01*
X404981Y334518D02*
X417578Y321920D01*
X403606Y334518D02*
X404981D01*
X476350Y495150D02*
X476500Y495000D01*
X428140Y495150D02*
X476350D01*
X427990Y495300D02*
X428140Y495150D01*
X411480Y406400D02*
X412750D01*
X374650Y369570D02*
X411480Y406400D01*
X374650Y312436D02*
Y369570D01*
X399704Y262938D02*
X402620Y260022D01*
X399704Y262938D02*
Y287382D01*
X374650Y312436D02*
X399704Y287382D01*
X549000Y525000D02*
Y531000D01*
X489000Y416000D02*
X493000Y420000D01*
Y440750D01*
X534000Y510000D02*
X549000Y525000D01*
X533000Y510000D02*
X534000D01*
X533000D02*
X533000Y510000D01*
X578000D01*
X496000Y515000D02*
X527000D01*
X528000Y514000D01*
X498000Y559000D02*
Y592000D01*
Y664000D02*
X511000D01*
X514000Y661000D01*
X663500Y587000D02*
X664500Y586000D01*
X640000Y587000D02*
X663500D01*
X579000Y562000D02*
X615000D01*
X640000Y587000D01*
X571000Y570000D02*
Y598000D01*
Y570000D02*
X579000Y562000D01*
X598500Y625500D02*
Y688000D01*
X571000Y598000D02*
X598500Y625500D01*
D24*
X669500Y688000D02*
D03*
X376200Y28000D02*
D03*
X401600D02*
D03*
X427000D02*
D03*
X315000Y509200D02*
D03*
X340400D02*
D03*
X315000Y483800D02*
D03*
X340400D02*
D03*
X315000Y458400D02*
D03*
X340400D02*
D03*
X315000Y433000D02*
D03*
X340400D02*
D03*
X315000Y407600D02*
D03*
X340400D02*
D03*
X315000Y382200D02*
D03*
X340400D02*
D03*
X315000Y356800D02*
D03*
X340400D02*
D03*
X315000Y331400D02*
D03*
X340400D02*
D03*
X315000Y306000D02*
D03*
X340400D02*
D03*
X315000Y280600D02*
D03*
X340400D02*
D03*
X315000Y255200D02*
D03*
X340400D02*
D03*
X315000Y229800D02*
D03*
X340400D02*
D03*
X315000Y204400D02*
D03*
X340400D02*
D03*
X315000Y179000D02*
D03*
X340400D02*
D03*
X315000Y153600D02*
D03*
X340400D02*
D03*
X315000Y128200D02*
D03*
X340400D02*
D03*
X315000Y102800D02*
D03*
X340400D02*
D03*
X315000Y77400D02*
D03*
X340400D02*
D03*
X315000Y52000D02*
D03*
X340400D02*
D03*
X315000Y26600D02*
D03*
X593500Y586000D02*
D03*
X819000Y52800D02*
D03*
Y78200D02*
D03*
Y103600D02*
D03*
Y129000D02*
D03*
Y154400D02*
D03*
Y179800D02*
D03*
Y205200D02*
D03*
X507600Y90000D02*
D03*
X533000D02*
D03*
X543000Y27000D02*
D03*
X517600D02*
D03*
X492200D02*
D03*
X836930Y283210D02*
D03*
Y308610D02*
D03*
Y334010D02*
D03*
Y359410D02*
D03*
Y384810D02*
D03*
Y410210D02*
D03*
Y435610D02*
D03*
X835660Y638810D02*
D03*
Y613410D02*
D03*
Y588010D02*
D03*
Y562610D02*
D03*
Y537210D02*
D03*
Y511810D02*
D03*
Y486410D02*
D03*
X854000Y52600D02*
D03*
Y78000D02*
D03*
Y103400D02*
D03*
Y128800D02*
D03*
Y154200D02*
D03*
Y179600D02*
D03*
Y205000D02*
D03*
X604400Y63000D02*
D03*
X629800D02*
D03*
X655200D02*
D03*
X680600D02*
D03*
X706000D02*
D03*
X731400D02*
D03*
X756800D02*
D03*
X604520Y26670D02*
D03*
X629920D02*
D03*
X655320D02*
D03*
X680720D02*
D03*
X706120D02*
D03*
X731520D02*
D03*
X756920D02*
D03*
X783000Y258000D02*
D03*
D25*
X598500Y688000D02*
D03*
X452400Y28000D02*
D03*
X664500Y586000D02*
D03*
X558400Y90000D02*
D03*
X568400Y27000D02*
D03*
X782200Y63000D02*
D03*
X782320Y26670D02*
D03*
D26*
X649000Y192740D02*
D03*
Y114000D02*
D03*
Y406044D02*
D03*
Y327304D02*
D03*
Y512696D02*
D03*
Y433956D02*
D03*
Y619348D02*
D03*
Y540608D02*
D03*
Y726000D02*
D03*
Y647260D02*
D03*
Y220652D02*
D03*
Y299392D02*
D03*
D27*
X402620Y153370D02*
D03*
Y366674D02*
D03*
Y473326D02*
D03*
Y579978D02*
D03*
Y686630D02*
D03*
Y260022D02*
D03*
D28*
X340400Y26600D02*
D03*
X819000Y27400D02*
D03*
X836930Y257810D02*
D03*
X835660Y664210D02*
D03*
X854000Y27200D02*
D03*
X783000Y283400D02*
D03*
D29*
X403606Y334518D02*
D03*
X427990Y495300D02*
D03*
X412750Y406400D02*
D03*
D30*
X629666Y264160D02*
D03*
X439420Y204470D02*
D03*
X745661Y563443D02*
D03*
X662940Y462280D02*
D03*
X452120Y440690D02*
D03*
X361950Y303530D02*
D03*
X543741Y458289D02*
D03*
X543304Y229220D02*
D03*
X613000Y314000D02*
D03*
X760000Y661000D02*
D03*
X617220Y228600D02*
D03*
X558000Y199263D02*
D03*
X480060Y208280D02*
D03*
X609600Y477520D02*
D03*
X518160Y248920D02*
D03*
X577850Y356870D02*
D03*
X538000Y278000D02*
D03*
X541000Y351000D02*
D03*
X537000Y294000D02*
D03*
X562610Y375920D02*
D03*
X730250Y553720D02*
D03*
X373000Y390000D02*
D03*
X549000Y531000D02*
D03*
X699770Y669290D02*
D03*
X364490Y407670D02*
D03*
X744220Y671830D02*
D03*
X290830Y306070D02*
D03*
X402353Y51161D02*
D03*
X798869Y469884D02*
D03*
X364000Y254000D02*
D03*
X500000Y350000D02*
D03*
X489000Y416000D02*
D03*
X498000Y592000D02*
D03*
X514000Y661000D02*
D03*
X410000Y235000D02*
D03*
X624000Y177000D02*
D03*
X697000Y168000D02*
D03*
X542000Y177000D02*
D03*
X457000Y205000D02*
D03*
X626000Y526000D02*
D03*
X801000Y517000D02*
D03*
X702000Y611000D02*
D03*
X700124Y563124D02*
D03*
X732000Y705840D02*
D03*
X729000Y686000D02*
D03*
D31*
X754380Y638810D02*
D03*
X713287Y541000D02*
D03*
Y521000D02*
D03*
X712000Y460000D02*
D03*
X713287Y500000D02*
D03*
X711779Y479969D02*
D03*
X694000Y318000D02*
D03*
X315000Y546000D02*
D03*
X804000Y663000D02*
D03*
Y639000D02*
D03*
Y612000D02*
D03*
Y587000D02*
D03*
D41*
X523400Y559000D02*
D03*
X498000D02*
D03*
X472600D02*
D03*
D42*
X498000Y664000D02*
D03*
D43*
X776000Y701000D02*
D03*
X760000D02*
D03*
D44*
X777000Y682000D02*
D03*
X760000D02*
D03*
D45*
X715720Y682650D02*
D03*
Y695350D02*
D03*
Y701700D02*
D03*
Y689000D02*
D03*
X702000Y701700D02*
D03*
Y695350D02*
D03*
Y689000D02*
D03*
Y682650D02*
D03*
D46*
X774000Y588000D02*
D03*
X760000D02*
D03*
X493000Y465000D02*
D03*
X479000D02*
D03*
X568000Y177000D02*
D03*
X582000D02*
D03*
X760000Y570000D02*
D03*
X774000D02*
D03*
X429000Y221000D02*
D03*
X443000D02*
D03*
X736000Y256000D02*
D03*
X750000D02*
D03*
X751001Y238000D02*
D03*
X737000D02*
D03*
X736000Y279000D02*
D03*
X750000D02*
D03*
X695000Y260000D02*
D03*
X709000D02*
D03*
X445000Y344000D02*
D03*
X431000D02*
D03*
X445000Y276000D02*
D03*
X431000D02*
D03*
X709000Y238000D02*
D03*
X723000D02*
D03*
X750000Y296000D02*
D03*
X736000D02*
D03*
D47*
X692250Y650500D02*
D03*
X698750D02*
D03*
X705250D02*
D03*
X711750D02*
D03*
X718250D02*
D03*
X724750D02*
D03*
X731250D02*
D03*
X737750D02*
D03*
X692250Y589500D02*
D03*
X698750D02*
D03*
X705250D02*
D03*
X711750D02*
D03*
X718250D02*
D03*
X724750D02*
D03*
X731250D02*
D03*
X737750D02*
D03*
D48*
X671000Y658000D02*
D03*
Y642000D02*
D03*
D49*
X533000Y510000D02*
D03*
Y478000D02*
D03*
X578000Y510000D02*
D03*
Y478000D02*
D03*
D50*
X477000Y515000D02*
D03*
X496000D02*
D03*
X477000Y495000D02*
D03*
X496000D02*
D03*
D51*
X429000Y254000D02*
D03*
Y240000D02*
D03*
X801000Y487000D02*
D03*
Y501000D02*
D03*
X444000Y240000D02*
D03*
Y254000D02*
D03*
X602000Y165000D02*
D03*
Y179000D02*
D03*
D52*
X571000Y325800D02*
D03*
Y313100D02*
D03*
Y300400D02*
D03*
Y287700D02*
D03*
Y275000D02*
D03*
Y262300D02*
D03*
Y249600D02*
D03*
Y236900D02*
D03*
Y224200D02*
D03*
X479000Y325800D02*
D03*
Y313100D02*
D03*
Y300400D02*
D03*
Y287700D02*
D03*
Y275000D02*
D03*
Y262300D02*
D03*
Y249600D02*
D03*
Y236900D02*
D03*
Y224200D02*
D03*
D53*
X624000Y192728D02*
D03*
Y210000D02*
D03*
X602000Y219272D02*
D03*
Y202000D02*
D03*
D54*
X777000Y525550D02*
D03*
Y512850D02*
D03*
Y500150D02*
D03*
Y487450D02*
D03*
Y474750D02*
D03*
Y462050D02*
D03*
Y449350D02*
D03*
Y436650D02*
D03*
Y423950D02*
D03*
Y411250D02*
D03*
Y398550D02*
D03*
Y385850D02*
D03*
Y373150D02*
D03*
Y360450D02*
D03*
X687000Y525550D02*
D03*
Y512850D02*
D03*
Y500150D02*
D03*
Y487450D02*
D03*
Y474750D02*
D03*
Y462050D02*
D03*
Y449350D02*
D03*
Y436650D02*
D03*
Y423950D02*
D03*
Y411250D02*
D03*
Y398550D02*
D03*
Y385850D02*
D03*
Y373150D02*
D03*
Y360450D02*
D03*
D55*
X672000Y624000D02*
D03*
Y607000D02*
D03*
D56*
X775636Y552000D02*
D03*
X758364D02*
D03*
D57*
X470000Y440750D02*
D03*
X493000D02*
D03*
X516000D02*
D03*
D58*
X493000Y377250D02*
D03*
D59*
X607000Y241950D02*
D03*
Y254650D02*
D03*
Y267350D02*
D03*
Y280050D02*
D03*
X655000Y241950D02*
D03*
Y254650D02*
D03*
Y267350D02*
D03*
Y280050D02*
D03*
D60*
X429000Y320000D02*
D03*
Y298000D02*
D03*
X445000D02*
D03*
Y320000D02*
D03*
D61*
X695000Y299500D02*
D03*
Y280500D02*
D03*
X715000Y290000D02*
D03*
D62*
X355267Y66040D02*
X519960D01*
X341227Y52000D02*
X355267Y66040D01*
X519960D02*
X543000Y43000D01*
X340400Y52000D02*
X341227D01*
X543000Y27000D02*
Y43000D01*
X568400Y27000D02*
Y54600D01*
X545600Y77400D02*
X568400Y54600D01*
X340400Y77400D02*
X545600D01*
D63*
X704290Y685825D02*
D03*
Y698525D02*
D03*
M02*
