G04*
G04 #@! TF.GenerationSoftware,Altium Limited,Altium Designer,23.8.1 (32)*
G04*
G04 Layer_Color=32768*
%FSLAX44Y44*%
%MOMM*%
G71*
G04*
G04 #@! TF.SameCoordinates,B3540FD7-C173-429B-8219-2738AE0D0CCA*
G04*
G04*
G04 #@! TF.FilePolarity,Positive*
G04*
G01*
G75*
%ADD95C,0.0254*%
%ADD96C,0.0250*%
%ADD97C,0.0500*%
D95*
X546964Y476516D02*
Y511515D01*
X518965D02*
X546964D01*
X518965Y476516D02*
Y511515D01*
X521964Y476516D02*
Y484516D01*
X543964D01*
Y476516D02*
Y484516D01*
X521964Y503515D02*
Y511515D01*
Y503515D02*
X543964D01*
Y511515D01*
X591964Y476516D02*
Y511515D01*
X563965D02*
X591964D01*
X563965Y476516D02*
Y511515D01*
X566964Y476516D02*
Y484516D01*
X588964D01*
Y476516D02*
Y484516D01*
X566964Y503515D02*
Y511515D01*
Y503515D02*
X588964D01*
Y511515D01*
D96*
X518960Y476520D02*
X546960D01*
X563960Y476520D02*
X591960D01*
D97*
X555165Y479332D02*
X555998Y478499D01*
Y476833D01*
X555165Y476000D01*
X551833D01*
X551000Y476833D01*
Y478499D01*
X551833Y479332D01*
X555165Y480998D02*
X555998Y481831D01*
Y483498D01*
X555165Y484331D01*
X554332D01*
X553499Y483498D01*
X552666Y484331D01*
X551833D01*
X551000Y483498D01*
Y481831D01*
X551833Y480998D01*
X552666D01*
X553499Y481831D01*
X554332Y480998D01*
X555165D01*
X553499Y481831D02*
Y483498D01*
X511000Y477000D02*
Y478666D01*
Y477833D01*
X515998D01*
X515165Y477000D01*
Y481165D02*
X515998Y481998D01*
Y483665D01*
X515165Y484498D01*
X511833D01*
X511000Y483665D01*
Y481998D01*
X511833Y481165D01*
X515165D01*
X514332Y486164D02*
X511833D01*
X511000Y486997D01*
Y489496D01*
X514332D01*
X515998Y494494D02*
Y491162D01*
X513499D01*
Y492828D01*
Y491162D01*
X511000D01*
X600165Y479332D02*
X600998Y478499D01*
Y476833D01*
X600165Y476000D01*
X596833D01*
X596000Y476833D01*
Y478499D01*
X596833Y479332D01*
X600998Y480998D02*
Y484331D01*
X600165D01*
X596833Y480998D01*
X596000D01*
X560165Y477000D02*
X560998Y477833D01*
Y479499D01*
X560165Y480332D01*
X559332D01*
X558499Y479499D01*
Y478666D01*
Y479499D01*
X557666Y480332D01*
X556833D01*
X556000Y479499D01*
Y477833D01*
X556833Y477000D01*
X560165Y481998D02*
X560998Y482831D01*
Y484497D01*
X560165Y485331D01*
X559332D01*
X558499Y484497D01*
Y483665D01*
Y484497D01*
X557666Y485331D01*
X556833D01*
X556000Y484497D01*
Y482831D01*
X556833Y481998D01*
X559332Y486997D02*
X556833D01*
X556000Y487830D01*
Y490329D01*
X559332D01*
X560998Y495327D02*
Y491995D01*
X558499D01*
Y493661D01*
Y491995D01*
X556000D01*
M02*
