G04*
G04 #@! TF.GenerationSoftware,Altium Limited,Altium Designer,23.8.1 (32)*
G04*
G04 Layer_Color=32896*
%FSLAX44Y44*%
%MOMM*%
G71*
G04*
G04 #@! TF.SameCoordinates,B3540FD7-C173-429B-8219-2738AE0D0CCA*
G04*
G04*
G04 #@! TF.FilePolarity,Positive*
G04*
G01*
G75*
%ADD10C,0.2000*%
%ADD12C,0.2540*%
%ADD87C,0.2500*%
%ADD88C,0.6000*%
%ADD89C,0.4000*%
%ADD90C,0.1270*%
%ADD91R,0.8000X1.9000*%
G36*
X528415Y377802D02*
X528507Y377788D01*
X528619Y377767D01*
X528746Y377732D01*
X528873Y377690D01*
X528999Y377633D01*
X529007D01*
X529013Y377626D01*
X529056Y377605D01*
X529119Y377563D01*
X529189Y377514D01*
X529274Y377443D01*
X529358Y377366D01*
X529443Y377274D01*
X529513Y377169D01*
X529520Y377155D01*
X529541Y377120D01*
X529569Y377056D01*
X529605Y376979D01*
X529640Y376887D01*
X529668Y376782D01*
X529689Y376662D01*
X529696Y376543D01*
Y376529D01*
Y376486D01*
X529689Y376430D01*
X529675Y376353D01*
X529654Y376261D01*
X529619Y376163D01*
X529576Y376064D01*
X529520Y375966D01*
X529513Y375952D01*
X529492Y375924D01*
X529450Y375874D01*
X529394Y375818D01*
X529323Y375755D01*
X529239Y375684D01*
X529140Y375621D01*
X529021Y375558D01*
X529028D01*
X529042Y375551D01*
X529063Y375544D01*
X529091Y375536D01*
X529168Y375508D01*
X529267Y375466D01*
X529379Y375410D01*
X529492Y375340D01*
X529598Y375248D01*
X529696Y375143D01*
X529703Y375128D01*
X529731Y375086D01*
X529773Y375016D01*
X529816Y374924D01*
X529858Y374812D01*
X529900Y374678D01*
X529928Y374523D01*
X529935Y374355D01*
Y374347D01*
Y374326D01*
Y374291D01*
X529928Y374249D01*
X529921Y374193D01*
X529907Y374129D01*
X529893Y374059D01*
X529879Y373982D01*
X529823Y373813D01*
X529780Y373721D01*
X529738Y373637D01*
X529682Y373545D01*
X529619Y373454D01*
X529548Y373362D01*
X529464Y373278D01*
X529457Y373271D01*
X529443Y373257D01*
X529415Y373236D01*
X529379Y373208D01*
X529337Y373172D01*
X529281Y373137D01*
X529218Y373095D01*
X529140Y373060D01*
X529063Y373018D01*
X528971Y372976D01*
X528880Y372940D01*
X528774Y372905D01*
X528662Y372877D01*
X528542Y372856D01*
X528423Y372842D01*
X528289Y372835D01*
X528226D01*
X528183Y372842D01*
X528127Y372849D01*
X528064Y372856D01*
X527993Y372870D01*
X527916Y372884D01*
X527747Y372926D01*
X527571Y372997D01*
X527480Y373039D01*
X527395Y373088D01*
X527311Y373151D01*
X527226Y373215D01*
X527219Y373222D01*
X527205Y373236D01*
X527184Y373257D01*
X527163Y373285D01*
X527128Y373320D01*
X527093Y373369D01*
X527051Y373419D01*
X527008Y373482D01*
X526966Y373552D01*
X526924Y373623D01*
X526847Y373792D01*
X526783Y373989D01*
X526762Y374094D01*
X526748Y374207D01*
X527346Y374284D01*
Y374277D01*
X527353Y374263D01*
X527360Y374235D01*
X527367Y374200D01*
X527374Y374157D01*
X527388Y374108D01*
X527424Y374003D01*
X527473Y373876D01*
X527536Y373756D01*
X527606Y373644D01*
X527691Y373545D01*
X527705Y373538D01*
X527733Y373510D01*
X527789Y373475D01*
X527860Y373440D01*
X527944Y373398D01*
X528050Y373362D01*
X528169Y373334D01*
X528296Y373327D01*
X528338D01*
X528366Y373334D01*
X528444Y373341D01*
X528542Y373362D01*
X528655Y373398D01*
X528774Y373447D01*
X528894Y373517D01*
X529007Y373616D01*
X529021Y373630D01*
X529056Y373672D01*
X529098Y373735D01*
X529154Y373820D01*
X529211Y373925D01*
X529253Y374045D01*
X529288Y374186D01*
X529302Y374340D01*
Y374347D01*
Y374361D01*
Y374383D01*
X529295Y374411D01*
X529288Y374488D01*
X529267Y374580D01*
X529239Y374692D01*
X529189Y374805D01*
X529119Y374917D01*
X529028Y375023D01*
X529013Y375037D01*
X528978Y375065D01*
X528922Y375107D01*
X528845Y375157D01*
X528746Y375206D01*
X528627Y375248D01*
X528493Y375276D01*
X528345Y375290D01*
X528282D01*
X528233Y375283D01*
X528169Y375276D01*
X528099Y375262D01*
X528014Y375248D01*
X527923Y375227D01*
X527993Y375755D01*
X528028D01*
X528057Y375748D01*
X528148D01*
X528226Y375762D01*
X528317Y375776D01*
X528423Y375797D01*
X528542Y375832D01*
X528655Y375881D01*
X528774Y375945D01*
X528781D01*
X528788Y375952D01*
X528824Y375980D01*
X528873Y376029D01*
X528929Y376092D01*
X528985Y376184D01*
X529035Y376289D01*
X529070Y376409D01*
X529084Y376479D01*
Y376557D01*
Y376564D01*
Y376571D01*
Y376613D01*
X529070Y376669D01*
X529056Y376747D01*
X529028Y376831D01*
X528992Y376923D01*
X528936Y377014D01*
X528859Y377099D01*
X528852Y377105D01*
X528816Y377134D01*
X528767Y377169D01*
X528704Y377211D01*
X528619Y377246D01*
X528521Y377281D01*
X528409Y377309D01*
X528282Y377317D01*
X528226D01*
X528162Y377303D01*
X528078Y377288D01*
X527986Y377260D01*
X527895Y377225D01*
X527796Y377169D01*
X527705Y377099D01*
X527698Y377091D01*
X527670Y377056D01*
X527627Y377007D01*
X527578Y376937D01*
X527529Y376845D01*
X527480Y376733D01*
X527438Y376599D01*
X527409Y376444D01*
X526811Y376550D01*
Y376557D01*
X526818Y376578D01*
X526825Y376606D01*
X526832Y376648D01*
X526847Y376697D01*
X526868Y376754D01*
X526910Y376887D01*
X526980Y377042D01*
X527065Y377197D01*
X527170Y377345D01*
X527304Y377478D01*
X527311Y377485D01*
X527325Y377492D01*
X527346Y377506D01*
X527374Y377528D01*
X527409Y377556D01*
X527459Y377584D01*
X527508Y377612D01*
X527571Y377647D01*
X527712Y377704D01*
X527874Y377760D01*
X528064Y377795D01*
X528162Y377809D01*
X528338D01*
X528415Y377802D01*
D02*
G37*
G36*
X516828Y377781D02*
X516891D01*
X517039Y377774D01*
X517193Y377753D01*
X517362Y377732D01*
X517517Y377696D01*
X517594Y377675D01*
X517658Y377654D01*
X517665D01*
X517672Y377647D01*
X517714Y377626D01*
X517777Y377598D01*
X517855Y377549D01*
X517939Y377485D01*
X518031Y377401D01*
X518115Y377303D01*
X518200Y377190D01*
Y377183D01*
X518207Y377176D01*
X518235Y377134D01*
X518263Y377063D01*
X518305Y376972D01*
X518340Y376866D01*
X518375Y376740D01*
X518396Y376606D01*
X518404Y376458D01*
Y376451D01*
Y376437D01*
Y376409D01*
X518396Y376374D01*
Y376325D01*
X518390Y376275D01*
X518361Y376156D01*
X518319Y376015D01*
X518263Y375867D01*
X518178Y375719D01*
X518122Y375649D01*
X518066Y375579D01*
X518059Y375572D01*
X518052Y375565D01*
X518031Y375544D01*
X518003Y375522D01*
X517967Y375494D01*
X517925Y375466D01*
X517869Y375431D01*
X517813Y375389D01*
X517742Y375354D01*
X517665Y375318D01*
X517580Y375276D01*
X517489Y375241D01*
X517383Y375213D01*
X517278Y375178D01*
X517158Y375157D01*
X517032Y375135D01*
X517046Y375128D01*
X517074Y375114D01*
X517116Y375086D01*
X517172Y375058D01*
X517299Y374981D01*
X517362Y374931D01*
X517419Y374889D01*
X517433Y374875D01*
X517468Y374840D01*
X517524Y374784D01*
X517594Y374713D01*
X517672Y374615D01*
X517763Y374509D01*
X517855Y374383D01*
X517953Y374242D01*
X518791Y372919D01*
X517988D01*
X517348Y373932D01*
Y373939D01*
X517334Y373954D01*
X517320Y373975D01*
X517299Y374003D01*
X517250Y374080D01*
X517186Y374179D01*
X517109Y374284D01*
X517032Y374397D01*
X516954Y374502D01*
X516884Y374601D01*
X516877Y374608D01*
X516856Y374636D01*
X516820Y374678D01*
X516771Y374727D01*
X516666Y374833D01*
X516609Y374882D01*
X516553Y374924D01*
X516546Y374931D01*
X516532Y374939D01*
X516504Y374953D01*
X516462Y374974D01*
X516419Y374995D01*
X516370Y375016D01*
X516258Y375051D01*
X516251D01*
X516236Y375058D01*
X516208D01*
X516173Y375065D01*
X516124Y375072D01*
X516068D01*
X515990Y375079D01*
X515160D01*
Y372919D01*
X514513D01*
Y377788D01*
X516771D01*
X516828Y377781D01*
D02*
G37*
G36*
X520901Y376521D02*
X520958Y376515D01*
X521028Y376500D01*
X521105Y376486D01*
X521197Y376465D01*
X521281Y376444D01*
X521380Y376409D01*
X521471Y376374D01*
X521570Y376325D01*
X521668Y376268D01*
X521767Y376205D01*
X521858Y376128D01*
X521943Y376043D01*
X521950Y376036D01*
X521964Y376022D01*
X521985Y375994D01*
X522013Y375952D01*
X522048Y375902D01*
X522083Y375846D01*
X522126Y375776D01*
X522168Y375691D01*
X522210Y375600D01*
X522252Y375501D01*
X522287Y375389D01*
X522323Y375269D01*
X522351Y375135D01*
X522372Y374995D01*
X522386Y374847D01*
X522393Y374685D01*
Y374678D01*
Y374650D01*
Y374601D01*
X522386Y374530D01*
X519747D01*
Y374523D01*
Y374502D01*
X519754Y374474D01*
Y374432D01*
X519762Y374383D01*
X519776Y374326D01*
X519797Y374200D01*
X519839Y374059D01*
X519895Y373904D01*
X519972Y373764D01*
X520071Y373637D01*
X520078D01*
X520085Y373623D01*
X520127Y373588D01*
X520191Y373538D01*
X520275Y373489D01*
X520388Y373433D01*
X520514Y373384D01*
X520655Y373348D01*
X520732Y373341D01*
X520817Y373334D01*
X520873D01*
X520936Y373341D01*
X521014Y373355D01*
X521098Y373377D01*
X521197Y373405D01*
X521288Y373447D01*
X521380Y373503D01*
X521387Y373510D01*
X521422Y373538D01*
X521464Y373581D01*
X521513Y373637D01*
X521570Y373714D01*
X521633Y373813D01*
X521696Y373925D01*
X521753Y374059D01*
X522372Y373982D01*
Y373975D01*
X522365Y373960D01*
X522358Y373932D01*
X522344Y373890D01*
X522323Y373848D01*
X522301Y373792D01*
X522245Y373672D01*
X522175Y373538D01*
X522076Y373398D01*
X521964Y373264D01*
X521823Y373137D01*
X521816D01*
X521802Y373123D01*
X521781Y373109D01*
X521753Y373088D01*
X521710Y373067D01*
X521668Y373046D01*
X521612Y373018D01*
X521549Y372990D01*
X521478Y372961D01*
X521408Y372933D01*
X521232Y372891D01*
X521035Y372856D01*
X520817Y372842D01*
X520739D01*
X520690Y372849D01*
X520627Y372856D01*
X520550Y372870D01*
X520465Y372884D01*
X520374Y372898D01*
X520177Y372954D01*
X520071Y372997D01*
X519972Y373039D01*
X519867Y373095D01*
X519768Y373158D01*
X519677Y373229D01*
X519586Y373313D01*
X519579Y373320D01*
X519565Y373334D01*
X519543Y373362D01*
X519515Y373405D01*
X519480Y373454D01*
X519445Y373510D01*
X519403Y373581D01*
X519360Y373658D01*
X519318Y373749D01*
X519276Y373848D01*
X519241Y373960D01*
X519206Y374080D01*
X519178Y374207D01*
X519156Y374347D01*
X519142Y374495D01*
X519135Y374650D01*
Y374657D01*
Y374692D01*
Y374734D01*
X519142Y374798D01*
X519149Y374875D01*
X519156Y374960D01*
X519170Y375058D01*
X519192Y375157D01*
X519248Y375382D01*
X519283Y375494D01*
X519325Y375614D01*
X519381Y375727D01*
X519445Y375832D01*
X519515Y375938D01*
X519593Y376036D01*
X519600Y376043D01*
X519614Y376057D01*
X519642Y376078D01*
X519677Y376113D01*
X519719Y376149D01*
X519776Y376191D01*
X519839Y376240D01*
X519916Y376282D01*
X519994Y376332D01*
X520085Y376374D01*
X520184Y376416D01*
X520289Y376451D01*
X520402Y376486D01*
X520521Y376507D01*
X520648Y376521D01*
X520782Y376529D01*
X520852D01*
X520901Y376521D01*
D02*
G37*
G36*
X524525D02*
X524574Y376515D01*
X524637Y376500D01*
X524708Y376486D01*
X524785Y376465D01*
X524862Y376437D01*
X524947Y376402D01*
X525031Y376360D01*
X525123Y376310D01*
X525207Y376254D01*
X525292Y376184D01*
X525376Y376106D01*
X525453Y376015D01*
Y376451D01*
X526002D01*
Y373398D01*
Y373391D01*
Y373362D01*
Y373320D01*
Y373264D01*
X525995Y373201D01*
Y373123D01*
X525988Y373039D01*
X525981Y372947D01*
X525960Y372757D01*
X525932Y372560D01*
X525911Y372469D01*
X525890Y372384D01*
X525862Y372307D01*
X525833Y372237D01*
Y372230D01*
X525826Y372223D01*
X525798Y372180D01*
X525763Y372117D01*
X525707Y372040D01*
X525629Y371955D01*
X525538Y371864D01*
X525425Y371772D01*
X525299Y371695D01*
X525292D01*
X525285Y371688D01*
X525263Y371674D01*
X525235Y371667D01*
X525200Y371646D01*
X525158Y371632D01*
X525052Y371596D01*
X524926Y371554D01*
X524771Y371526D01*
X524595Y371498D01*
X524405Y371491D01*
X524342D01*
X524300Y371498D01*
X524243D01*
X524187Y371505D01*
X524117Y371512D01*
X524039Y371526D01*
X523877Y371561D01*
X523709Y371610D01*
X523540Y371681D01*
X523385Y371779D01*
X523378Y371786D01*
X523371Y371794D01*
X523322Y371836D01*
X523265Y371899D01*
X523195Y371991D01*
X523125Y372110D01*
X523061Y372258D01*
X523040Y372342D01*
X523026Y372434D01*
X523012Y372525D01*
Y372631D01*
X523596Y372553D01*
Y372539D01*
X523603Y372511D01*
X523617Y372462D01*
X523631Y372398D01*
X523659Y372335D01*
X523694Y372272D01*
X523737Y372209D01*
X523793Y372159D01*
X523807Y372152D01*
X523835Y372131D01*
X523884Y372103D01*
X523955Y372075D01*
X524039Y372040D01*
X524145Y372012D01*
X524271Y371991D01*
X524405Y371983D01*
X524476D01*
X524546Y371991D01*
X524644Y372005D01*
X524743Y372026D01*
X524848Y372054D01*
X524954Y372096D01*
X525045Y372152D01*
X525052Y372159D01*
X525080Y372180D01*
X525123Y372223D01*
X525172Y372272D01*
X525221Y372342D01*
X525271Y372420D01*
X525320Y372511D01*
X525355Y372617D01*
Y372624D01*
X525362Y372652D01*
X525369Y372708D01*
X525376Y372779D01*
X525383Y372828D01*
Y372884D01*
X525390Y372947D01*
Y373018D01*
Y373095D01*
X525397Y373187D01*
Y373278D01*
Y373384D01*
X525390Y373377D01*
X525376Y373362D01*
X525355Y373341D01*
X525327Y373313D01*
X525292Y373278D01*
X525242Y373236D01*
X525186Y373194D01*
X525130Y373151D01*
X524982Y373067D01*
X524820Y372990D01*
X524729Y372961D01*
X524630Y372940D01*
X524525Y372926D01*
X524419Y372919D01*
X524384D01*
X524349Y372926D01*
X524300D01*
X524236Y372933D01*
X524166Y372947D01*
X524089Y372961D01*
X524004Y372982D01*
X523913Y373011D01*
X523821Y373046D01*
X523730Y373088D01*
X523631Y373137D01*
X523540Y373201D01*
X523448Y373271D01*
X523364Y373348D01*
X523286Y373440D01*
X523279Y373447D01*
X523272Y373461D01*
X523251Y373496D01*
X523223Y373531D01*
X523195Y373588D01*
X523160Y373644D01*
X523125Y373714D01*
X523089Y373799D01*
X523054Y373883D01*
X523019Y373982D01*
X522984Y374080D01*
X522956Y374193D01*
X522906Y374432D01*
X522899Y374566D01*
X522892Y374699D01*
Y374706D01*
Y374720D01*
Y374748D01*
Y374784D01*
X522899Y374833D01*
Y374882D01*
X522914Y375009D01*
X522935Y375149D01*
X522970Y375304D01*
X523012Y375466D01*
X523075Y375628D01*
Y375635D01*
X523082Y375649D01*
X523096Y375670D01*
X523111Y375698D01*
X523153Y375776D01*
X523209Y375874D01*
X523286Y375980D01*
X523378Y376085D01*
X523483Y376198D01*
X523603Y376289D01*
X523610D01*
X523617Y376296D01*
X523638Y376310D01*
X523666Y376325D01*
X523737Y376367D01*
X523835Y376409D01*
X523955Y376451D01*
X524095Y376493D01*
X524250Y376521D01*
X524419Y376529D01*
X524482D01*
X524525Y376521D01*
D02*
G37*
%LPC*%
G36*
X516694Y377246D02*
X515160D01*
Y375635D01*
X516609D01*
X516694Y375642D01*
X516792Y375649D01*
X516905Y375656D01*
X517018Y375670D01*
X517130Y375691D01*
X517229Y375719D01*
X517243Y375727D01*
X517271Y375741D01*
X517313Y375762D01*
X517369Y375790D01*
X517433Y375832D01*
X517496Y375881D01*
X517559Y375945D01*
X517608Y376015D01*
X517616Y376022D01*
X517630Y376050D01*
X517651Y376092D01*
X517679Y376149D01*
X517700Y376212D01*
X517721Y376282D01*
X517735Y376367D01*
X517742Y376451D01*
Y376458D01*
Y376465D01*
X517735Y376507D01*
X517728Y376571D01*
X517714Y376655D01*
X517679Y376740D01*
X517637Y376838D01*
X517573Y376930D01*
X517489Y377021D01*
X517475Y377028D01*
X517440Y377056D01*
X517383Y377091D01*
X517292Y377134D01*
X517186Y377176D01*
X517046Y377211D01*
X516884Y377239D01*
X516694Y377246D01*
D02*
G37*
G36*
X520789Y376036D02*
X520746D01*
X520718Y376029D01*
X520641Y376022D01*
X520550Y376001D01*
X520437Y375966D01*
X520317Y375916D01*
X520205Y375846D01*
X520092Y375755D01*
X520078Y375741D01*
X520050Y375705D01*
X520001Y375642D01*
X519951Y375558D01*
X519895Y375459D01*
X519846Y375332D01*
X519804Y375185D01*
X519783Y375023D01*
X521760D01*
Y375030D01*
Y375044D01*
X521753Y375065D01*
Y375093D01*
X521739Y375178D01*
X521717Y375269D01*
X521682Y375382D01*
X521647Y375487D01*
X521591Y375593D01*
X521527Y375684D01*
Y375691D01*
X521513Y375698D01*
X521478Y375741D01*
X521415Y375797D01*
X521330Y375860D01*
X521225Y375924D01*
X521098Y375980D01*
X520951Y376022D01*
X520873Y376029D01*
X520789Y376036D01*
D02*
G37*
G36*
X524539D02*
X524426D01*
X524398Y376029D01*
X524321Y376022D01*
X524229Y375994D01*
X524117Y375959D01*
X524004Y375895D01*
X523891Y375818D01*
X523835Y375762D01*
X523779Y375705D01*
Y375698D01*
X523765Y375691D01*
X523751Y375670D01*
X523737Y375642D01*
X523716Y375614D01*
X523694Y375572D01*
X523666Y375522D01*
X523645Y375466D01*
X523617Y375403D01*
X523589Y375325D01*
X523568Y375248D01*
X523547Y375164D01*
X523533Y375065D01*
X523519Y374967D01*
X523504Y374861D01*
Y374742D01*
Y374734D01*
Y374713D01*
Y374678D01*
X523512Y374629D01*
Y374573D01*
X523519Y374502D01*
X523540Y374355D01*
X523575Y374186D01*
X523617Y374024D01*
X523687Y373862D01*
X523730Y373792D01*
X523779Y373728D01*
X523793Y373714D01*
X523828Y373679D01*
X523884Y373630D01*
X523969Y373573D01*
X524067Y373510D01*
X524187Y373461D01*
X524321Y373426D01*
X524391Y373419D01*
X524468Y373412D01*
X524511D01*
X524539Y373419D01*
X524616Y373426D01*
X524715Y373454D01*
X524820Y373489D01*
X524940Y373545D01*
X525052Y373623D01*
X525109Y373672D01*
X525165Y373728D01*
Y373735D01*
X525179Y373742D01*
X525193Y373764D01*
X525207Y373792D01*
X525228Y373820D01*
X525256Y373862D01*
X525277Y373911D01*
X525306Y373975D01*
X525334Y374038D01*
X525355Y374108D01*
X525383Y374193D01*
X525404Y374284D01*
X525418Y374376D01*
X525432Y374481D01*
X525446Y374601D01*
Y374720D01*
Y374727D01*
Y374748D01*
Y374784D01*
X525439Y374826D01*
Y374882D01*
X525432Y374945D01*
X525411Y375086D01*
X525376Y375248D01*
X525327Y375410D01*
X525256Y375572D01*
X525207Y375642D01*
X525158Y375705D01*
Y375712D01*
X525144Y375719D01*
X525109Y375755D01*
X525045Y375811D01*
X524961Y375874D01*
X524862Y375930D01*
X524743Y375987D01*
X524609Y376022D01*
X524539Y376036D01*
D02*
G37*
%LPD*%
D10*
X687500Y280500D02*
G03*
X687500Y280500I-200J0D01*
G01*
X551500Y589000D02*
Y621500D01*
X444500Y589000D02*
X551500D01*
X444500D02*
Y621500D01*
X614500Y678500D02*
X653500D01*
X614500Y697500D02*
X653500D01*
Y678500D02*
Y697500D01*
X753000Y698000D02*
Y704000D01*
X768000Y687500D02*
X769000D01*
X768000Y676500D02*
X769000D01*
X766500Y591500D02*
X767500D01*
X766500Y584500D02*
X767500D01*
X689500Y638500D02*
X740500D01*
X689500Y601500D02*
X740500D01*
X689500D02*
Y638500D01*
X740500Y601500D02*
Y638500D01*
X668000Y665000D02*
X674000D01*
X485500Y468500D02*
X486500D01*
X485500Y461500D02*
X486500D01*
X425500Y246500D02*
Y247500D01*
X432500Y246500D02*
Y247500D01*
X496000Y334000D02*
X554000D01*
X496000Y216000D02*
X554000D01*
Y334000D01*
X496000Y216000D02*
Y334000D01*
X609500Y595500D02*
X648500D01*
X609500Y576500D02*
X648500D01*
X609500D02*
Y595500D01*
X701000Y533500D02*
X763000D01*
X701000Y352500D02*
X763000D01*
Y533500D01*
X701000Y352500D02*
Y533500D01*
X666500Y615000D02*
Y616000D01*
X677500Y615000D02*
Y616000D01*
X766500Y566500D02*
X767500D01*
X766500Y573500D02*
X767500D01*
X459500Y427500D02*
X526500D01*
X459500Y390500D02*
X526500D01*
X459500D02*
Y427500D01*
X526500Y390500D02*
Y427500D01*
X804500Y493500D02*
Y494500D01*
X797500Y493500D02*
Y494500D01*
X435500Y217500D02*
X436500D01*
X435500Y224500D02*
X436500D01*
X622000Y236000D02*
Y286000D01*
X640000Y236000D02*
Y286000D01*
X622000Y236000D02*
X640000D01*
X622000Y286000D02*
X640000D01*
X770300Y245300D02*
X795700D01*
Y296100D01*
X770300D02*
X795700D01*
X770300Y245300D02*
Y296100D01*
X711500Y275500D02*
Y283000D01*
X701960Y275500D02*
X711500D01*
X701960Y304500D02*
X711500D01*
X698500Y287500D02*
Y292500D01*
X711500Y297000D02*
Y304500D01*
X437500Y347500D02*
X438500D01*
X437500Y340500D02*
X438500D01*
X437500Y279500D02*
X438500D01*
X437500Y272500D02*
X438500D01*
X715500Y234500D02*
X716500D01*
X715500Y241500D02*
X716500D01*
X742500Y299500D02*
X743500D01*
X742500Y292500D02*
X743500D01*
X447500Y246500D02*
Y247500D01*
X440500Y246500D02*
Y247500D01*
X605500Y171500D02*
Y172500D01*
X598500Y171500D02*
Y172500D01*
D12*
X546000Y464000D02*
X550000Y468000D01*
X516000D02*
X520000Y464000D01*
X546000D01*
X516000Y524500D02*
X550000D01*
X516000Y468000D02*
Y524500D01*
X550000Y468000D02*
Y524500D01*
X591000Y464000D02*
X595000Y468000D01*
X561000D02*
X565000Y464000D01*
X591000D01*
X561000Y524500D02*
X595000D01*
X561000Y468000D02*
Y524500D01*
X595000Y468000D02*
Y524500D01*
X784687Y678382D02*
Y693617D01*
X792304D01*
X794844Y691078D01*
Y686000D01*
X792304Y683461D01*
X784687D01*
X789765D02*
X794844Y678382D01*
X799922Y693617D02*
Y678382D01*
X810079D01*
X825314D02*
X815157D01*
X825314Y688539D01*
Y691078D01*
X822775Y693617D01*
X817696D01*
X815157Y691078D01*
X754482Y730831D02*
Y715596D01*
X762100D01*
X764639Y718135D01*
Y728292D01*
X762100Y730831D01*
X754482D01*
X779874Y715596D02*
X769718D01*
X779874Y725753D01*
Y728292D01*
X777335Y730831D01*
X772257D01*
X769718Y728292D01*
X814696Y544383D02*
Y559618D01*
X807078D01*
X804539Y557078D01*
Y552000D01*
X807078Y549461D01*
X814696D01*
X809617D02*
X804539Y544383D01*
X791843D02*
Y559618D01*
X799461Y552000D01*
X789304D01*
X625304Y165382D02*
Y180618D01*
X632922D01*
X635461Y178078D01*
Y173000D01*
X632922Y170461D01*
X625304D01*
X630382D02*
X635461Y165382D01*
X640539Y178078D02*
X643078Y180618D01*
X648157D01*
X650696Y178078D01*
Y175539D01*
X648157Y173000D01*
X645618D01*
X648157D01*
X650696Y170461D01*
Y167922D01*
X648157Y165382D01*
X643078D01*
X640539Y167922D01*
X568843Y195382D02*
Y210618D01*
X576461D01*
X579000Y208078D01*
Y203000D01*
X576461Y200461D01*
X568843D01*
X573922D02*
X579000Y195382D01*
X584078D02*
X589157D01*
X586618D01*
Y210618D01*
X584078Y208078D01*
X397843Y318617D02*
X408000Y303382D01*
Y318617D02*
X397843Y303382D01*
X413078D02*
X418157D01*
X415618D01*
Y318617D01*
X413078Y316078D01*
X711266Y557535D02*
Y544839D01*
X708727Y542300D01*
X703649D01*
X701109Y544839D01*
Y557535D01*
X696031D02*
X690953D01*
X693492D01*
Y542300D01*
X696031D01*
X690953D01*
X683335D02*
X678257D01*
X680796D01*
Y557535D01*
X683335Y554996D01*
X606687Y320617D02*
Y307922D01*
X609226Y305382D01*
X614304D01*
X616843Y307922D01*
Y320617D01*
X632078Y318078D02*
X629539Y320617D01*
X624461D01*
X621922Y318078D01*
Y307922D01*
X624461Y305382D01*
X629539D01*
X632078Y307922D01*
X647313Y305382D02*
X637157D01*
X647313Y315539D01*
Y318078D01*
X644774Y320617D01*
X639696D01*
X637157Y318078D01*
X554774Y356618D02*
Y343922D01*
X552235Y341382D01*
X547157D01*
X544618Y343922D01*
Y356618D01*
X529382Y354078D02*
X531922Y356618D01*
X537000D01*
X539539Y354078D01*
Y343922D01*
X537000Y341382D01*
X531922D01*
X529382Y343922D01*
X524304Y341382D02*
X519226D01*
X521765D01*
Y356618D01*
X524304Y354078D01*
X711203Y676908D02*
Y664212D01*
X713743Y661673D01*
X718821D01*
X721360Y664212D01*
Y676908D01*
X726438Y661673D02*
X731517D01*
X728978D01*
Y676908D01*
X726438Y674368D01*
X445678Y716100D02*
Y731335D01*
X453296D01*
X455835Y728796D01*
Y723717D01*
X453296Y721178D01*
X445678D01*
X450756D02*
X455835Y716100D01*
X468531D02*
X463452D01*
X460913Y718639D01*
Y723717D01*
X463452Y726257D01*
X468531D01*
X471070Y723717D01*
Y721178D01*
X460913D01*
X481227Y711022D02*
X483766D01*
X486305Y713561D01*
Y726257D01*
X478687D01*
X476148Y723717D01*
Y718639D01*
X478687Y716100D01*
X486305D01*
X501540Y731335D02*
X491383D01*
Y723717D01*
X496462Y726257D01*
X499001D01*
X501540Y723717D01*
Y718639D01*
X499001Y716100D01*
X493923D01*
X491383Y718639D01*
X751618Y178608D02*
X736383D01*
Y186226D01*
X738922Y188765D01*
X744000D01*
X746540Y186226D01*
Y178608D01*
Y183687D02*
X751618Y188765D01*
X738922Y204000D02*
X736383Y201461D01*
Y196383D01*
X738922Y193843D01*
X749079D01*
X751618Y196383D01*
Y201461D01*
X749079Y204000D01*
X736383Y209078D02*
X751618D01*
Y219235D01*
Y224313D02*
Y229392D01*
Y226853D01*
X736383D01*
X738922Y224313D01*
X534304Y167383D02*
Y182617D01*
X541922D01*
X544461Y180078D01*
Y175000D01*
X541922Y172461D01*
X534304D01*
X539383D02*
X544461Y167383D01*
X559696D02*
X549539D01*
X559696Y177539D01*
Y180078D01*
X557157Y182617D01*
X552079D01*
X549539Y180078D01*
X705000Y716922D02*
Y727078D01*
X702461Y729617D01*
X697383D01*
X694843Y727078D01*
Y716922D01*
X697383Y714382D01*
X702461D01*
X699922Y719461D02*
X705000Y714382D01*
X702461D02*
X705000Y716922D01*
X710078Y714382D02*
X715157D01*
X712618D01*
Y729617D01*
X710078Y727078D01*
X781843Y303382D02*
Y318617D01*
X789461D01*
X792000Y316078D01*
Y311000D01*
X789461Y308461D01*
X781843D01*
X797078Y303382D02*
X802157D01*
X799618D01*
Y318617D01*
X797078Y316078D01*
X591340Y721401D02*
Y706166D01*
X598958D01*
X601497Y708705D01*
Y718862D01*
X598958Y721401D01*
X591340D01*
X606575D02*
X611654D01*
X609115D01*
Y706166D01*
X606575D01*
X611654D01*
X629428D02*
X619271D01*
X629428Y716323D01*
Y718862D01*
X626889Y721401D01*
X621810D01*
X619271Y718862D01*
X630505Y618618D02*
Y603382D01*
X622887D01*
X620348Y605922D01*
Y616078D01*
X622887Y618618D01*
X630505D01*
X615270D02*
X610191D01*
X612730D01*
Y603382D01*
X615270D01*
X610191D01*
X602574D02*
X597495D01*
X600034D01*
Y618618D01*
X602574Y616078D01*
X643843Y673617D02*
Y658382D01*
X651461D01*
X654000Y660922D01*
Y671078D01*
X651461Y673617D01*
X643843D01*
X659078Y658382D02*
X664157D01*
X661618D01*
Y673617D01*
X659078Y671078D01*
X418843Y417078D02*
X416304Y419618D01*
X411226D01*
X408687Y417078D01*
Y406922D01*
X411226Y404383D01*
X416304D01*
X418843Y406922D01*
X431539Y419618D02*
X426461D01*
X423922Y417078D01*
Y406922D01*
X426461Y404383D01*
X431539D01*
X434078Y406922D01*
Y417078D01*
X431539Y419618D01*
X449314Y404383D02*
X439157D01*
X449314Y414539D01*
Y417078D01*
X446774Y419618D01*
X441696D01*
X439157Y417078D01*
X391162Y289050D02*
X388623Y291590D01*
X383545D01*
X381006Y289050D01*
Y278894D01*
X383545Y276355D01*
X388623D01*
X391162Y278894D01*
X403858Y291590D02*
X398780D01*
X396241Y289050D01*
Y278894D01*
X398780Y276355D01*
X403858D01*
X406398Y278894D01*
Y289050D01*
X403858Y291590D01*
X411476Y276355D02*
X416554D01*
X414015D01*
Y291590D01*
X411476Y289050D01*
X714079Y206382D02*
X716618Y203843D01*
Y198765D01*
X714079Y196226D01*
X703922D01*
X701383Y198765D01*
Y203843D01*
X703922Y206382D01*
X716618Y211461D02*
X701383D01*
Y221618D01*
Y226696D02*
Y231774D01*
Y229235D01*
X716618D01*
X714079Y226696D01*
X739382Y319078D02*
X736843Y321618D01*
X731765D01*
X729226Y319078D01*
Y308922D01*
X731765Y306383D01*
X736843D01*
X739382Y308922D01*
X744461Y321618D02*
Y306383D01*
Y314000D01*
X754618D01*
Y321618D01*
Y306383D01*
X759696D02*
X764774D01*
X762235D01*
Y321618D01*
X759696Y319078D01*
X584843Y155078D02*
X582304Y157618D01*
X577226D01*
X574687Y155078D01*
Y144922D01*
X577226Y142382D01*
X582304D01*
X584843Y144922D01*
X589922Y155078D02*
X592461Y157618D01*
X597539D01*
X600078Y155078D01*
Y152539D01*
X597539Y150000D01*
X595000D01*
X597539D01*
X600078Y147461D01*
Y144922D01*
X597539Y142382D01*
X592461D01*
X589922Y144922D01*
X605157Y155078D02*
X607696Y157618D01*
X612774D01*
X615313Y155078D01*
Y152539D01*
X612774Y150000D01*
X610235D01*
X612774D01*
X615313Y147461D01*
Y144922D01*
X612774Y142382D01*
X607696D01*
X605157Y144922D01*
X462279Y472438D02*
X464818Y474977D01*
X469897D01*
X472436Y472438D01*
Y462282D01*
X469897Y459743D01*
X464818D01*
X462279Y462282D01*
X457201D02*
X454662Y459743D01*
X449583D01*
X447044Y462282D01*
Y472438D01*
X449583Y474977D01*
X454662D01*
X457201Y472438D01*
Y469899D01*
X454662Y467360D01*
X447044D01*
X546539Y541078D02*
X549078Y543618D01*
X554157D01*
X556696Y541078D01*
Y530922D01*
X554157Y528382D01*
X549078D01*
X546539Y530922D01*
X541461Y541078D02*
X538922Y543618D01*
X533843D01*
X531304Y541078D01*
Y538539D01*
X533843Y536000D01*
X531304Y533461D01*
Y530922D01*
X533843Y528382D01*
X538922D01*
X541461Y530922D01*
Y533461D01*
X538922Y536000D01*
X541461Y538539D01*
Y541078D01*
X538922Y536000D02*
X533843D01*
X584539Y540078D02*
X587078Y542617D01*
X592157D01*
X594696Y540078D01*
Y529922D01*
X592157Y527383D01*
X587078D01*
X584539Y529922D01*
X579461Y542617D02*
X569304D01*
Y540078D01*
X579461Y529922D01*
Y527383D01*
X412751Y210818D02*
X410212Y213358D01*
X405133D01*
X402594Y210818D01*
Y200662D01*
X405133Y198123D01*
X410212D01*
X412751Y200662D01*
X427986Y213358D02*
X422907Y210818D01*
X417829Y205740D01*
Y200662D01*
X420368Y198123D01*
X425447D01*
X427986Y200662D01*
Y203201D01*
X425447Y205740D01*
X417829D01*
X403461Y237078D02*
X400922Y239618D01*
X395843D01*
X393304Y237078D01*
Y226922D01*
X395843Y224382D01*
X400922D01*
X403461Y226922D01*
X418696Y239618D02*
X408539D01*
Y232000D01*
X413618Y234539D01*
X416157D01*
X418696Y232000D01*
Y226922D01*
X416157Y224382D01*
X411078D01*
X408539Y226922D01*
X451731Y521078D02*
X454270Y523618D01*
X459349D01*
X461888Y521078D01*
Y510922D01*
X459349Y508382D01*
X454270D01*
X451731Y510922D01*
X439035Y508382D02*
Y523618D01*
X446653Y516000D01*
X436496D01*
X454151Y488952D02*
X456690Y486412D01*
X461769D01*
X464308Y488952D01*
Y499108D01*
X461769Y501647D01*
X456690D01*
X454151Y499108D01*
X449073Y488952D02*
X446534Y486412D01*
X441455D01*
X438916Y488952D01*
Y491491D01*
X441455Y494030D01*
X443994D01*
X441455D01*
X438916Y496569D01*
Y499108D01*
X441455Y501647D01*
X446534D01*
X449073Y499108D01*
X792461Y577078D02*
X789922Y579618D01*
X784843D01*
X782304Y577078D01*
Y566922D01*
X784843Y564383D01*
X789922D01*
X792461Y566922D01*
X807696Y564383D02*
X797539D01*
X807696Y574539D01*
Y577078D01*
X805157Y579618D01*
X800078D01*
X797539Y577078D01*
X794000Y598078D02*
X791461Y600617D01*
X786383D01*
X783843Y598078D01*
Y587922D01*
X786383Y585382D01*
X791461D01*
X794000Y587922D01*
X799078Y585382D02*
X804157D01*
X801618D01*
Y600617D01*
X799078Y598078D01*
D87*
X534900Y559000D02*
G03*
X534900Y559000I-1250J0D01*
G01*
X725770Y701925D02*
G03*
X725770Y701925I-1250J0D01*
G01*
X685750Y650500D02*
G03*
X685750Y650500I-1250J0D01*
G01*
X480250Y215200D02*
G03*
X480250Y215200I-1250J0D01*
G01*
X688250Y351950D02*
G03*
X688250Y351950I-1250J0D01*
G01*
X460750Y440750D02*
G03*
X460750Y440750I-1250J0D01*
G01*
X608250Y233450D02*
G03*
X608250Y233450I-1250J0D01*
G01*
X446250Y332500D02*
G03*
X446250Y332500I-1250J0D01*
G01*
D88*
X702500Y628500D02*
G03*
X702500Y628500I-3000J0D01*
G01*
X509000Y226000D02*
G03*
X509000Y226000I-3000J0D01*
G01*
X714000Y362500D02*
G03*
X714000Y362500I-3000J0D01*
G01*
D89*
X632000Y244000D02*
G03*
X632000Y244000I-2000J0D01*
G01*
D90*
X615872Y218636D02*
X632128D01*
X615872Y184092D02*
X632128D01*
Y212540D02*
Y218636D01*
X615872Y212540D02*
Y218636D01*
X632128Y184092D02*
Y190188D01*
X615872Y184092D02*
Y190188D01*
X749728Y560128D02*
X755824D01*
X749728Y543872D02*
X755824D01*
X778176Y560128D02*
X784272D01*
X778176Y543872D02*
X784272D01*
X749728D02*
Y560128D01*
X784272Y543872D02*
Y560128D01*
X593872Y193364D02*
X610128D01*
X593872Y227908D02*
X610128D01*
X593872Y193364D02*
Y199460D01*
X610128Y193364D02*
Y199460D01*
X593872Y221812D02*
Y227908D01*
X610128Y221812D02*
Y227908D01*
D91*
X617500Y688000D02*
D03*
X645500Y586000D02*
D03*
M02*
