G04*
G04 #@! TF.GenerationSoftware,Altium Limited,Altium Designer,23.8.1 (32)*
G04*
G04 Layer_Physical_Order=1*
G04 Layer_Color=255*
%FSLAX44Y44*%
%MOMM*%
G71*
G04*
G04 #@! TF.SameCoordinates,B3540FD7-C173-429B-8219-2738AE0D0CCA*
G04*
G04*
G04 #@! TF.FilePolarity,Positive*
G04*
G01*
G75*
%ADD12C,0.2540*%
%ADD21C,0.7620*%
%ADD22C,0.5080*%
%ADD23C,1.0160*%
%ADD24C,1.5000*%
%ADD25R,1.5000X1.5000*%
%ADD26C,1.1938*%
%ADD27C,2.5400*%
%ADD28R,1.5000X1.5000*%
%ADD29C,1.5240*%
%ADD30C,1.0160*%
%ADD31C,1.2700*%
G36*
X873574Y760353D02*
Y-3469D01*
X276304D01*
X275408Y-2569D01*
X279152Y760741D01*
X872675Y761251D01*
X873574Y760353D01*
D02*
G37*
%LPC*%
G36*
X649000Y733429D02*
X647077Y733176D01*
X645285Y732434D01*
X643747Y731254D01*
X642566Y729715D01*
X641824Y727923D01*
X641571Y726000D01*
X641824Y724077D01*
X642566Y722285D01*
X643747Y720747D01*
X645285Y719566D01*
X647077Y718824D01*
X649000Y718570D01*
X650923Y718824D01*
X652715Y719566D01*
X654253Y720747D01*
X655434Y722285D01*
X656176Y724077D01*
X656430Y726000D01*
X656176Y727923D01*
X655434Y729715D01*
X654253Y731254D01*
X652715Y732434D01*
X650923Y733176D01*
X649000Y733429D01*
D02*
G37*
G36*
X733270Y713359D02*
Y707110D01*
X739519D01*
X739424Y707829D01*
X738656Y709683D01*
X737435Y711275D01*
X735843Y712496D01*
X733989Y713264D01*
X733270Y713359D01*
D02*
G37*
G36*
X730730D02*
X730011Y713264D01*
X728157Y712496D01*
X726565Y711275D01*
X725344Y709683D01*
X724576Y707829D01*
X724481Y707110D01*
X730730D01*
Y713359D01*
D02*
G37*
G36*
X739519Y704570D02*
X733270D01*
Y698321D01*
X733989Y698416D01*
X735843Y699184D01*
X737435Y700405D01*
X738656Y701997D01*
X739424Y703851D01*
X739519Y704570D01*
D02*
G37*
G36*
X730730D02*
X724481D01*
X724576Y703851D01*
X725344Y701997D01*
X726565Y700405D01*
X728157Y699184D01*
X730011Y698416D01*
X730730Y698321D01*
Y704570D01*
D02*
G37*
G36*
X730270Y693519D02*
Y687270D01*
X736519D01*
X736424Y687989D01*
X735656Y689843D01*
X734435Y691435D01*
X732843Y692656D01*
X730989Y693424D01*
X730270Y693519D01*
D02*
G37*
G36*
X727730D02*
X727011Y693424D01*
X725157Y692656D01*
X723565Y691435D01*
X722344Y689843D01*
X721576Y687989D01*
X721481Y687270D01*
X727730D01*
Y693519D01*
D02*
G37*
G36*
X607397Y696897D02*
X589603D01*
Y679103D01*
X607397D01*
Y696897D01*
D02*
G37*
G36*
X669500Y696974D02*
X667178Y696668D01*
X665013Y695771D01*
X663155Y694345D01*
X661729Y692487D01*
X660832Y690323D01*
X660526Y688000D01*
X660832Y685677D01*
X661729Y683513D01*
X663155Y681655D01*
X665013Y680229D01*
X667178Y679332D01*
X669500Y679026D01*
X671823Y679332D01*
X673987Y680229D01*
X675845Y681655D01*
X677272Y683513D01*
X678168Y685677D01*
X678474Y688000D01*
X678168Y690323D01*
X677272Y692487D01*
X675845Y694345D01*
X673987Y695771D01*
X671823Y696668D01*
X669500Y696974D01*
D02*
G37*
G36*
X736519Y684730D02*
X730270D01*
Y678481D01*
X730989Y678576D01*
X732843Y679344D01*
X734435Y680565D01*
X735656Y682157D01*
X736424Y684011D01*
X736519Y684730D01*
D02*
G37*
G36*
X727730D02*
X721481D01*
X721576Y684011D01*
X722344Y682157D01*
X723565Y680565D01*
X725157Y679344D01*
X727011Y678576D01*
X727730Y678481D01*
Y684730D01*
D02*
G37*
G36*
X402620Y700849D02*
X398940Y700364D01*
X395511Y698944D01*
X392566Y696684D01*
X390306Y693739D01*
X388886Y690310D01*
X388401Y686630D01*
X388886Y682950D01*
X390306Y679521D01*
X392566Y676576D01*
X395511Y674316D01*
X398940Y672896D01*
X402620Y672411D01*
X406300Y672896D01*
X409729Y674316D01*
X412674Y676576D01*
X414934Y679521D01*
X416354Y682950D01*
X416839Y686630D01*
X416354Y690310D01*
X414934Y693739D01*
X412674Y696684D01*
X409729Y698944D01*
X406300Y700364D01*
X402620Y700849D01*
D02*
G37*
G36*
X744220Y678434D02*
X741693Y677931D01*
X739550Y676500D01*
X738119Y674357D01*
X737616Y671830D01*
X738119Y669303D01*
X739550Y667160D01*
X741693Y665729D01*
X744220Y665226D01*
X746747Y665729D01*
X748890Y667160D01*
X750321Y669303D01*
X750824Y671830D01*
X750321Y674357D01*
X748890Y676500D01*
X746747Y677931D01*
X744220Y678434D01*
D02*
G37*
G36*
X699770Y675894D02*
X697243Y675391D01*
X695100Y673960D01*
X693669Y671817D01*
X693166Y669290D01*
X693624Y666989D01*
X673522Y646887D01*
X672932Y646005D01*
X672725Y644965D01*
Y634706D01*
X657671Y619651D01*
X656330Y620106D01*
X656176Y621271D01*
X655434Y623063D01*
X654253Y624602D01*
X652715Y625782D01*
X650923Y626524D01*
X649000Y626777D01*
X647077Y626524D01*
X645285Y625782D01*
X643747Y624602D01*
X642566Y623063D01*
X641824Y621271D01*
X641571Y619348D01*
X641824Y617425D01*
X642566Y615633D01*
X643747Y614095D01*
X645285Y612914D01*
X647077Y612172D01*
X648242Y612018D01*
X648697Y610677D01*
X642111Y604091D01*
X591212D01*
X590171Y603884D01*
X589289Y603295D01*
X576899Y590905D01*
X576310Y590023D01*
X576103Y588982D01*
Y538083D01*
X545489Y507469D01*
X476810D01*
X475769Y507262D01*
X474887Y506673D01*
X387260Y419045D01*
X386670Y418163D01*
X386463Y417122D01*
Y396353D01*
X380768Y390658D01*
X379390Y391076D01*
X379101Y392527D01*
X377670Y394670D01*
X375527Y396101D01*
X373000Y396604D01*
X370473Y396101D01*
X368330Y394670D01*
X366899Y392527D01*
X366396Y390000D01*
X366899Y387473D01*
X368330Y385330D01*
X370473Y383899D01*
X371924Y383610D01*
X372342Y382232D01*
X368750Y378639D01*
X364346D01*
X360063Y382923D01*
X359181Y383512D01*
X358140Y383719D01*
X349174D01*
X349068Y384523D01*
X348172Y386687D01*
X346745Y388545D01*
X344887Y389972D01*
X342723Y390868D01*
X340400Y391174D01*
X338077Y390868D01*
X335913Y389972D01*
X334055Y388545D01*
X332629Y386687D01*
X331732Y384523D01*
X331426Y382200D01*
X331732Y379877D01*
X332629Y377713D01*
X334055Y375855D01*
X335913Y374428D01*
X338077Y373532D01*
X340400Y373226D01*
X342723Y373532D01*
X344887Y374428D01*
X346745Y375855D01*
X348172Y377713D01*
X348407Y378281D01*
X357014D01*
X361297Y373997D01*
X362179Y373408D01*
X363220Y373201D01*
X363220Y373201D01*
X369876D01*
X370916Y373408D01*
X371799Y373997D01*
X391105Y393304D01*
X391695Y394186D01*
X391902Y395227D01*
Y415996D01*
X477936Y502030D01*
X546615D01*
X547655Y502237D01*
X548538Y502827D01*
X580745Y535034D01*
X580745Y535034D01*
X581334Y535916D01*
X581542Y536957D01*
X581541Y536957D01*
Y587856D01*
X584482Y590796D01*
X585558Y590077D01*
X584832Y588323D01*
X584526Y586000D01*
X584832Y583677D01*
X585728Y581513D01*
X587154Y579655D01*
X589013Y578229D01*
X589486Y578033D01*
Y530392D01*
X549517Y490424D01*
X522356D01*
X520820Y490119D01*
X519518Y489248D01*
X409395Y379126D01*
X406300Y380408D01*
X402620Y380893D01*
X398940Y380408D01*
X395511Y378988D01*
X392566Y376728D01*
X390306Y373783D01*
X388886Y370354D01*
X388401Y366674D01*
X388886Y362994D01*
X390306Y359565D01*
X392566Y356620D01*
X395511Y354360D01*
X398940Y352940D01*
X402620Y352455D01*
X406300Y352940D01*
X409729Y354360D01*
X412674Y356620D01*
X414934Y359565D01*
X416354Y362994D01*
X416839Y366674D01*
X416354Y370354D01*
X415072Y373449D01*
X524019Y482396D01*
X551180D01*
X552716Y482701D01*
X554018Y483572D01*
X596338Y525891D01*
X597208Y527194D01*
X597514Y528730D01*
Y578033D01*
X597987Y578229D01*
X599845Y579655D01*
X601271Y581513D01*
X602168Y583677D01*
X602474Y586000D01*
X602168Y588323D01*
X601271Y590487D01*
X599845Y592346D01*
X597987Y593772D01*
X595822Y594668D01*
X593500Y594974D01*
X591177Y594668D01*
X589423Y593941D01*
X588704Y595018D01*
X592338Y598653D01*
X643237D01*
X644278Y598860D01*
X645160Y599449D01*
X677367Y631656D01*
X677367Y631657D01*
X677957Y632539D01*
X678164Y633579D01*
X678164Y633579D01*
Y643838D01*
X697469Y663144D01*
X699770Y662686D01*
X702297Y663189D01*
X704440Y664620D01*
X705871Y666763D01*
X706374Y669290D01*
X705871Y671817D01*
X704440Y673960D01*
X702297Y675391D01*
X699770Y675894D01*
D02*
G37*
G36*
X844557Y673107D02*
X826763D01*
Y655313D01*
X844557D01*
Y673107D01*
D02*
G37*
G36*
X804000Y670814D02*
X801978Y670548D01*
X800093Y669767D01*
X798475Y668525D01*
X797233Y666907D01*
X796452Y665022D01*
X796186Y663000D01*
X796452Y660978D01*
X797233Y659093D01*
X798475Y657475D01*
X800093Y656233D01*
X801978Y655452D01*
X804000Y655186D01*
X806022Y655452D01*
X807907Y656233D01*
X809525Y657475D01*
X810767Y659093D01*
X811548Y660978D01*
X811814Y663000D01*
X811548Y665022D01*
X810767Y666907D01*
X809525Y668525D01*
X807907Y669767D01*
X806022Y670548D01*
X804000Y670814D01*
D02*
G37*
G36*
X514000Y672016D02*
X511149Y671641D01*
X508492Y670540D01*
X506210Y668790D01*
X504460Y666508D01*
X503359Y663851D01*
X502984Y661000D01*
X503359Y658149D01*
X504460Y655492D01*
X506210Y653210D01*
X508492Y651460D01*
X511149Y650359D01*
X514000Y649984D01*
X516851Y650359D01*
X519508Y651460D01*
X521790Y653210D01*
X523540Y655492D01*
X524641Y658149D01*
X525016Y661000D01*
X524641Y663851D01*
X523540Y666508D01*
X521790Y668790D01*
X519508Y670540D01*
X516851Y671641D01*
X514000Y672016D01*
D02*
G37*
G36*
X755650Y647609D02*
Y640080D01*
X763179D01*
X763041Y641131D01*
X762145Y643293D01*
X760720Y645150D01*
X758863Y646575D01*
X756701Y647471D01*
X755650Y647609D01*
D02*
G37*
G36*
X753110D02*
X752059Y647471D01*
X749897Y646575D01*
X748040Y645150D01*
X746615Y643293D01*
X745719Y641131D01*
X745581Y640080D01*
X753110D01*
Y647609D01*
D02*
G37*
G36*
X649000Y654689D02*
X647077Y654436D01*
X645285Y653694D01*
X643747Y652514D01*
X642566Y650975D01*
X641824Y649183D01*
X641571Y647260D01*
X641824Y645337D01*
X642566Y643545D01*
X643747Y642007D01*
X645285Y640826D01*
X647077Y640084D01*
X649000Y639830D01*
X650923Y640084D01*
X652715Y640826D01*
X654253Y642007D01*
X655434Y643545D01*
X656176Y645337D01*
X656430Y647260D01*
X656176Y649183D01*
X655434Y650975D01*
X654253Y652514D01*
X652715Y653694D01*
X650923Y654436D01*
X649000Y654689D01*
D02*
G37*
G36*
X804000Y646814D02*
X801978Y646548D01*
X800093Y645767D01*
X798475Y644525D01*
X797233Y642907D01*
X796452Y641022D01*
X796186Y639000D01*
X796452Y636978D01*
X797233Y635093D01*
X798475Y633475D01*
X800093Y632233D01*
X801978Y631452D01*
X804000Y631186D01*
X806022Y631452D01*
X807907Y632233D01*
X809525Y633475D01*
X810767Y635093D01*
X811548Y636978D01*
X811814Y639000D01*
X811548Y641022D01*
X810767Y642907D01*
X809525Y644525D01*
X807907Y645767D01*
X806022Y646548D01*
X804000Y646814D01*
D02*
G37*
G36*
X763179Y637540D02*
X755650D01*
Y630010D01*
X756701Y630149D01*
X758863Y631045D01*
X760720Y632470D01*
X762145Y634327D01*
X763041Y636489D01*
X763179Y637540D01*
D02*
G37*
G36*
X753110D02*
X745581D01*
X745719Y636489D01*
X746615Y634327D01*
X748040Y632470D01*
X749897Y631045D01*
X752059Y630149D01*
X753110Y630010D01*
Y637540D01*
D02*
G37*
G36*
X835660Y647784D02*
X833337Y647478D01*
X831173Y646581D01*
X829315Y645155D01*
X827888Y643297D01*
X826992Y641133D01*
X826686Y638810D01*
X826992Y636487D01*
X827888Y634323D01*
X829315Y632465D01*
X831173Y631039D01*
X833337Y630142D01*
X835660Y629836D01*
X837983Y630142D01*
X840147Y631039D01*
X842005Y632465D01*
X843431Y634323D01*
X844328Y636487D01*
X844634Y638810D01*
X844328Y641133D01*
X843431Y643297D01*
X842005Y645155D01*
X840147Y646581D01*
X837983Y647478D01*
X835660Y647784D01*
D02*
G37*
G36*
X703270Y618519D02*
Y612270D01*
X709519D01*
X709424Y612989D01*
X708656Y614843D01*
X707435Y616435D01*
X705843Y617656D01*
X703989Y618424D01*
X703270Y618519D01*
D02*
G37*
G36*
X700730D02*
X700011Y618424D01*
X698157Y617656D01*
X696565Y616435D01*
X695344Y614843D01*
X694576Y612989D01*
X694481Y612270D01*
X700730D01*
Y618519D01*
D02*
G37*
G36*
X835660Y622384D02*
X833337Y622078D01*
X831173Y621181D01*
X829315Y619755D01*
X827888Y617897D01*
X826992Y615733D01*
X826686Y613410D01*
X826992Y611087D01*
X827888Y608923D01*
X829315Y607065D01*
X831173Y605639D01*
X833337Y604742D01*
X835660Y604436D01*
X837983Y604742D01*
X840147Y605639D01*
X842005Y607065D01*
X843431Y608923D01*
X844328Y611087D01*
X844634Y613410D01*
X844328Y615733D01*
X843431Y617897D01*
X842005Y619755D01*
X840147Y621181D01*
X837983Y622078D01*
X835660Y622384D01*
D02*
G37*
G36*
X804000Y619814D02*
X801978Y619548D01*
X800093Y618767D01*
X798475Y617525D01*
X797233Y615907D01*
X796452Y614022D01*
X796186Y612000D01*
X796452Y609978D01*
X797233Y608093D01*
X798475Y606475D01*
X800093Y605233D01*
X801978Y604452D01*
X804000Y604186D01*
X806022Y604452D01*
X807907Y605233D01*
X809525Y606475D01*
X810767Y608093D01*
X811548Y609978D01*
X811814Y612000D01*
X811548Y614022D01*
X810767Y615907D01*
X809525Y617525D01*
X807907Y618767D01*
X806022Y619548D01*
X804000Y619814D01*
D02*
G37*
G36*
X709519Y609730D02*
X703270D01*
Y603481D01*
X703989Y603576D01*
X705843Y604344D01*
X707435Y605565D01*
X708656Y607157D01*
X709424Y609011D01*
X709519Y609730D01*
D02*
G37*
G36*
X700730D02*
X694481D01*
X694576Y609011D01*
X695344Y607157D01*
X696565Y605565D01*
X698157Y604344D01*
X700011Y603576D01*
X700730Y603481D01*
Y609730D01*
D02*
G37*
G36*
X403890Y595167D02*
Y581248D01*
X417809D01*
X417640Y582966D01*
X416768Y585838D01*
X415353Y588486D01*
X413448Y590806D01*
X411128Y592711D01*
X408480Y594126D01*
X405608Y594997D01*
X403890Y595167D01*
D02*
G37*
G36*
X401350D02*
X399632Y594997D01*
X396760Y594126D01*
X394112Y592711D01*
X391792Y590806D01*
X389887Y588486D01*
X388472Y585838D01*
X387601Y582966D01*
X387431Y581248D01*
X401350D01*
Y595167D01*
D02*
G37*
G36*
X498000Y603016D02*
X495149Y602641D01*
X492492Y601540D01*
X490210Y599790D01*
X488460Y597508D01*
X487359Y594851D01*
X486984Y592000D01*
X487359Y589149D01*
X488460Y586492D01*
X490210Y584210D01*
X492492Y582460D01*
X495149Y581359D01*
X498000Y580984D01*
X500851Y581359D01*
X503508Y582460D01*
X505790Y584210D01*
X507540Y586492D01*
X508641Y589149D01*
X509016Y592000D01*
X508641Y594851D01*
X507540Y597508D01*
X505790Y599790D01*
X503508Y601540D01*
X500851Y602641D01*
X498000Y603016D01*
D02*
G37*
G36*
X804000Y594814D02*
X801978Y594548D01*
X800093Y593767D01*
X798475Y592525D01*
X797233Y590907D01*
X796452Y589022D01*
X796186Y587000D01*
X796452Y584978D01*
X797233Y583093D01*
X798475Y581475D01*
X800093Y580233D01*
X801978Y579452D01*
X804000Y579186D01*
X806022Y579452D01*
X807907Y580233D01*
X809525Y581475D01*
X810767Y583093D01*
X811548Y584978D01*
X811814Y587000D01*
X811548Y589022D01*
X810767Y590907D01*
X809525Y592525D01*
X807907Y593767D01*
X806022Y594548D01*
X804000Y594814D01*
D02*
G37*
G36*
X835660Y596984D02*
X833337Y596678D01*
X831173Y595782D01*
X829315Y594355D01*
X827888Y592497D01*
X826992Y590333D01*
X826686Y588010D01*
X826992Y585687D01*
X827888Y583523D01*
X829315Y581665D01*
X831173Y580238D01*
X833337Y579342D01*
X835660Y579036D01*
X837983Y579342D01*
X840147Y580238D01*
X842005Y581665D01*
X843431Y583523D01*
X844328Y585687D01*
X844634Y588010D01*
X844328Y590333D01*
X843431Y592497D01*
X842005Y594355D01*
X840147Y595782D01*
X837983Y596678D01*
X835660Y596984D01*
D02*
G37*
G36*
X673397Y594897D02*
X655603D01*
Y577103D01*
X673397D01*
Y594897D01*
D02*
G37*
G36*
X760000Y667604D02*
X757473Y667101D01*
X755330Y665670D01*
X753899Y663527D01*
X753396Y661000D01*
X753899Y658473D01*
X755330Y656330D01*
X757473Y654899D01*
X760000Y654396D01*
X760773Y654550D01*
X765606Y649717D01*
Y605283D01*
X728624Y568300D01*
X704035D01*
X702651Y569225D01*
X700124Y569728D01*
X697597Y569225D01*
X695454Y567794D01*
X694023Y565651D01*
X693520Y563124D01*
X694023Y560597D01*
X695454Y558454D01*
X697597Y557023D01*
X700124Y556520D01*
X702651Y557023D01*
X704794Y558454D01*
X706008Y560272D01*
X720094D01*
X720616Y559002D01*
X719609Y556571D01*
X719234Y553720D01*
X719609Y550869D01*
X720710Y548212D01*
X722460Y545930D01*
X724742Y544180D01*
X727399Y543079D01*
X730250Y542704D01*
X733101Y543079D01*
X735758Y544180D01*
X738040Y545930D01*
X738936Y547098D01*
X740206Y546667D01*
Y453783D01*
X733667Y447244D01*
X662063D01*
X658302Y451004D01*
X659022Y452081D01*
X660089Y451639D01*
X662940Y451264D01*
X665791Y451639D01*
X668448Y452740D01*
X670730Y454490D01*
X672480Y456772D01*
X673581Y459429D01*
X673956Y462280D01*
X673581Y465131D01*
X672480Y467788D01*
X670730Y470070D01*
X668448Y471820D01*
X665791Y472921D01*
X662940Y473296D01*
X660089Y472921D01*
X657432Y471820D01*
X655150Y470070D01*
X653400Y467788D01*
X652299Y465131D01*
X651924Y462280D01*
X652299Y459429D01*
X652741Y458362D01*
X651664Y457642D01*
X628948Y480358D01*
X627646Y481229D01*
X626110Y481534D01*
X614708D01*
X614270Y482190D01*
X612127Y483621D01*
X609600Y484124D01*
X607073Y483621D01*
X604930Y482190D01*
X603499Y480047D01*
X602996Y477520D01*
X603499Y474993D01*
X604930Y472850D01*
X606881Y471547D01*
Y357996D01*
X586087Y337203D01*
X585498Y336321D01*
X585291Y335280D01*
Y295766D01*
X540149Y250625D01*
X539560Y249743D01*
X539353Y248702D01*
Y234370D01*
X538634Y233890D01*
X537203Y231747D01*
X536700Y229220D01*
X537203Y226693D01*
X538634Y224550D01*
X540777Y223119D01*
X543304Y222616D01*
X545831Y223119D01*
X547974Y224550D01*
X549405Y226693D01*
X549908Y229220D01*
X549405Y231747D01*
X547974Y233890D01*
X545831Y235321D01*
X544791Y235528D01*
Y247576D01*
X589933Y292717D01*
X590522Y293599D01*
X590729Y294640D01*
Y334154D01*
X611523Y354947D01*
X611523Y354947D01*
X612112Y355829D01*
X612319Y356870D01*
X612319Y356870D01*
Y471547D01*
X614270Y472850D01*
X614708Y473506D01*
X624447D01*
X657562Y440392D01*
X658864Y439521D01*
X660400Y439216D01*
X735330D01*
X736866Y439521D01*
X738168Y440392D01*
X747058Y449282D01*
X747929Y450584D01*
X748234Y452120D01*
Y557373D01*
X750331Y558773D01*
X751762Y560916D01*
X752265Y563443D01*
X751762Y565970D01*
X750331Y568113D01*
X748188Y569544D01*
X745661Y570047D01*
X743134Y569544D01*
X742783Y569310D01*
X741973Y570296D01*
X772458Y600782D01*
X773329Y602084D01*
X773634Y603620D01*
Y651380D01*
X773329Y652916D01*
X772458Y654218D01*
X766450Y660227D01*
X766604Y661000D01*
X766101Y663527D01*
X764670Y665670D01*
X762527Y667101D01*
X760000Y667604D01*
D02*
G37*
G36*
X417809Y578708D02*
X403890D01*
Y564789D01*
X405608Y564958D01*
X408480Y565830D01*
X411128Y567245D01*
X413448Y569150D01*
X415353Y571470D01*
X416768Y574118D01*
X417640Y576990D01*
X417809Y578708D01*
D02*
G37*
G36*
X401350D02*
X387431D01*
X387601Y576990D01*
X388472Y574118D01*
X389887Y571470D01*
X391792Y569150D01*
X394112Y567245D01*
X396760Y565830D01*
X399632Y564958D01*
X401350Y564789D01*
Y578708D01*
D02*
G37*
G36*
X835660Y571584D02*
X833337Y571278D01*
X831173Y570382D01*
X829315Y568955D01*
X827888Y567097D01*
X826992Y564933D01*
X826686Y562610D01*
X826992Y560287D01*
X827888Y558123D01*
X829315Y556265D01*
X831173Y554838D01*
X833337Y553942D01*
X835660Y553636D01*
X837983Y553942D01*
X840147Y554838D01*
X842005Y556265D01*
X843431Y558123D01*
X844328Y560287D01*
X844634Y562610D01*
X844328Y564933D01*
X843431Y567097D01*
X842005Y568955D01*
X840147Y570382D01*
X837983Y571278D01*
X835660Y571584D01*
D02*
G37*
G36*
X315000Y553814D02*
X312978Y553548D01*
X311093Y552767D01*
X309475Y551525D01*
X308233Y549907D01*
X307452Y548022D01*
X307186Y546000D01*
X307452Y543978D01*
X307944Y542790D01*
X290077Y524923D01*
X289488Y524041D01*
X289281Y523000D01*
Y470000D01*
X289488Y468959D01*
X290077Y468077D01*
X301677Y456477D01*
X301677Y456477D01*
X302559Y455888D01*
X303600Y455681D01*
X306496D01*
X307229Y453913D01*
X308655Y452055D01*
X310513Y450629D01*
X312677Y449732D01*
X315000Y449426D01*
X317323Y449732D01*
X319487Y450629D01*
X321345Y452055D01*
X322771Y453913D01*
X323668Y456077D01*
X323974Y458400D01*
X323668Y460723D01*
X322771Y462887D01*
X321345Y464745D01*
X319487Y466171D01*
X317323Y467068D01*
X315000Y467374D01*
X312677Y467068D01*
X310513Y466171D01*
X308655Y464745D01*
X307229Y462887D01*
X306496Y461119D01*
X304726D01*
X294719Y471126D01*
Y521874D01*
X311790Y538944D01*
X312978Y538452D01*
X315000Y538186D01*
X317022Y538452D01*
X318907Y539233D01*
X320525Y540475D01*
X321767Y542093D01*
X322548Y543978D01*
X322814Y546000D01*
X322548Y548022D01*
X321767Y549907D01*
X320525Y551525D01*
X318907Y552767D01*
X317022Y553548D01*
X315000Y553814D01*
D02*
G37*
G36*
X713287Y548814D02*
X711265Y548548D01*
X709380Y547767D01*
X707762Y546525D01*
X706520Y544907D01*
X705739Y543022D01*
X705473Y541000D01*
X705739Y538978D01*
X706520Y537093D01*
X707762Y535475D01*
X709380Y534233D01*
X711265Y533452D01*
X713287Y533186D01*
X715309Y533452D01*
X717194Y534233D01*
X718812Y535475D01*
X720054Y537093D01*
X720835Y538978D01*
X721101Y541000D01*
X720835Y543022D01*
X720054Y544907D01*
X718812Y546525D01*
X717194Y547767D01*
X715309Y548548D01*
X713287Y548814D01*
D02*
G37*
G36*
X649000Y548037D02*
X647077Y547784D01*
X645285Y547042D01*
X643747Y545862D01*
X642566Y544323D01*
X641824Y542531D01*
X641571Y540608D01*
X641824Y538685D01*
X642566Y536893D01*
X643747Y535354D01*
X645285Y534174D01*
X647077Y533432D01*
X649000Y533178D01*
X650923Y533432D01*
X652715Y534174D01*
X654253Y535354D01*
X655434Y536893D01*
X656176Y538685D01*
X656430Y540608D01*
X656176Y542531D01*
X655434Y544323D01*
X654253Y545862D01*
X652715Y547042D01*
X650923Y547784D01*
X649000Y548037D01*
D02*
G37*
G36*
X550270Y538519D02*
Y532270D01*
X556519D01*
X556424Y532989D01*
X555656Y534843D01*
X554435Y536435D01*
X552843Y537656D01*
X550989Y538424D01*
X550270Y538519D01*
D02*
G37*
G36*
X547730D02*
X547011Y538424D01*
X545157Y537656D01*
X543565Y536435D01*
X542344Y534843D01*
X541576Y532989D01*
X541481Y532270D01*
X547730D01*
Y538519D01*
D02*
G37*
G36*
X835660Y546184D02*
X833337Y545878D01*
X831173Y544981D01*
X829315Y543555D01*
X827888Y541697D01*
X826992Y539533D01*
X826686Y537210D01*
X826992Y534887D01*
X827888Y532723D01*
X829315Y530865D01*
X831173Y529439D01*
X833337Y528542D01*
X835660Y528236D01*
X837983Y528542D01*
X840147Y529439D01*
X842005Y530865D01*
X843431Y532723D01*
X844328Y534887D01*
X844634Y537210D01*
X844328Y539533D01*
X843431Y541697D01*
X842005Y543555D01*
X840147Y544981D01*
X837983Y545878D01*
X835660Y546184D01*
D02*
G37*
G36*
X556519Y529730D02*
X550270D01*
Y523481D01*
X550989Y523576D01*
X552843Y524344D01*
X554435Y525565D01*
X555656Y527157D01*
X556424Y529011D01*
X556519Y529730D01*
D02*
G37*
G36*
X547730D02*
X541481D01*
X541576Y529011D01*
X542344Y527157D01*
X543565Y525565D01*
X545157Y524344D01*
X547011Y523576D01*
X547730Y523481D01*
Y529730D01*
D02*
G37*
G36*
X802270Y524519D02*
Y518270D01*
X808519D01*
X808424Y518989D01*
X807656Y520843D01*
X806435Y522435D01*
X804843Y523656D01*
X802989Y524424D01*
X802270Y524519D01*
D02*
G37*
G36*
X799730D02*
X799011Y524424D01*
X797157Y523656D01*
X795565Y522435D01*
X794344Y520843D01*
X793576Y518989D01*
X793481Y518270D01*
X799730D01*
Y524519D01*
D02*
G37*
G36*
X713287Y528814D02*
X711265Y528548D01*
X709380Y527767D01*
X707762Y526525D01*
X706520Y524907D01*
X705739Y523022D01*
X705473Y521000D01*
X705739Y518978D01*
X706520Y517093D01*
X707762Y515475D01*
X709380Y514233D01*
X711265Y513452D01*
X713287Y513186D01*
X715309Y513452D01*
X717194Y514233D01*
X718812Y515475D01*
X720054Y517093D01*
X720835Y518978D01*
X721101Y521000D01*
X720835Y523022D01*
X720054Y524907D01*
X718812Y526525D01*
X717194Y527767D01*
X715309Y528548D01*
X713287Y528814D01*
D02*
G37*
G36*
X341670Y519159D02*
Y510470D01*
X350359D01*
X350182Y511821D01*
X349170Y514263D01*
X347561Y516361D01*
X345463Y517970D01*
X343021Y518982D01*
X341670Y519159D01*
D02*
G37*
G36*
X339130D02*
X337779Y518982D01*
X335337Y517970D01*
X333239Y516361D01*
X331630Y514263D01*
X330618Y511821D01*
X330441Y510470D01*
X339130D01*
Y519159D01*
D02*
G37*
G36*
X808519Y515730D02*
X802270D01*
Y509481D01*
X802989Y509576D01*
X804843Y510344D01*
X806435Y511565D01*
X807656Y513157D01*
X808424Y515011D01*
X808519Y515730D01*
D02*
G37*
G36*
X799730D02*
X793481D01*
X793576Y515011D01*
X794344Y513157D01*
X795565Y511565D01*
X797157Y510344D01*
X799011Y509576D01*
X799730Y509481D01*
Y515730D01*
D02*
G37*
G36*
X649000Y520126D02*
X647077Y519872D01*
X645285Y519130D01*
X643747Y517949D01*
X642566Y516411D01*
X641824Y514619D01*
X641571Y512696D01*
X641824Y510773D01*
X642566Y508981D01*
X643747Y507443D01*
X645285Y506262D01*
X647077Y505520D01*
X649000Y505266D01*
X650923Y505520D01*
X652715Y506262D01*
X654253Y507443D01*
X655434Y508981D01*
X656176Y510773D01*
X656430Y512696D01*
X656176Y514619D01*
X655434Y516411D01*
X654253Y517949D01*
X652715Y519130D01*
X650923Y519872D01*
X649000Y520126D01*
D02*
G37*
G36*
X835660Y520784D02*
X833337Y520478D01*
X831173Y519581D01*
X829315Y518155D01*
X827888Y516297D01*
X826992Y514133D01*
X826686Y511810D01*
X826992Y509487D01*
X827888Y507323D01*
X829315Y505465D01*
X831173Y504039D01*
X833337Y503142D01*
X835660Y502836D01*
X837983Y503142D01*
X840147Y504039D01*
X842005Y505465D01*
X843431Y507323D01*
X844328Y509487D01*
X844634Y511810D01*
X844328Y514133D01*
X843431Y516297D01*
X842005Y518155D01*
X840147Y519581D01*
X837983Y520478D01*
X835660Y520784D01*
D02*
G37*
G36*
X315000Y518174D02*
X312677Y517868D01*
X310513Y516972D01*
X308655Y515545D01*
X307229Y513687D01*
X306332Y511523D01*
X306026Y509200D01*
X306332Y506877D01*
X307229Y504713D01*
X308655Y502855D01*
X310513Y501428D01*
X312677Y500532D01*
X315000Y500226D01*
X317323Y500532D01*
X319487Y501428D01*
X321345Y502855D01*
X322771Y504713D01*
X323668Y506877D01*
X323974Y509200D01*
X323668Y511523D01*
X322771Y513687D01*
X321345Y515545D01*
X319487Y516972D01*
X317323Y517868D01*
X315000Y518174D01*
D02*
G37*
G36*
X350359Y507930D02*
X341670D01*
Y499241D01*
X343021Y499418D01*
X345463Y500430D01*
X347561Y502039D01*
X349170Y504137D01*
X350182Y506579D01*
X350359Y507930D01*
D02*
G37*
G36*
X339130D02*
X330441D01*
X330618Y506579D01*
X331630Y504137D01*
X333239Y502039D01*
X335337Y500430D01*
X337779Y499418D01*
X339130Y499241D01*
Y507930D01*
D02*
G37*
G36*
X713287Y507814D02*
X711265Y507548D01*
X709380Y506767D01*
X707762Y505525D01*
X706520Y503907D01*
X705739Y502022D01*
X705473Y500000D01*
X705739Y497978D01*
X706520Y496093D01*
X707762Y494475D01*
X709380Y493233D01*
X711265Y492452D01*
X713287Y492186D01*
X715309Y492452D01*
X717194Y493233D01*
X718812Y494475D01*
X720054Y496093D01*
X720835Y497978D01*
X721101Y500000D01*
X720835Y502022D01*
X720054Y503907D01*
X718812Y505525D01*
X717194Y506767D01*
X715309Y507548D01*
X713287Y507814D01*
D02*
G37*
G36*
X427990Y504395D02*
X425636Y504085D01*
X423443Y503176D01*
X421559Y501731D01*
X420114Y499847D01*
X419205Y497654D01*
X418895Y495300D01*
X419205Y492946D01*
X420114Y490753D01*
X421559Y488869D01*
X423443Y487424D01*
X425636Y486515D01*
X427990Y486205D01*
X430344Y486515D01*
X432537Y487424D01*
X434421Y488869D01*
X435866Y490753D01*
X436775Y492946D01*
X437085Y495300D01*
X436775Y497654D01*
X435866Y499847D01*
X434421Y501731D01*
X432537Y503176D01*
X430344Y504085D01*
X427990Y504395D01*
D02*
G37*
G36*
X835660Y495384D02*
X833337Y495078D01*
X831173Y494182D01*
X829315Y492755D01*
X827888Y490897D01*
X826992Y488733D01*
X826686Y486410D01*
X826992Y484087D01*
X827888Y481923D01*
X829315Y480065D01*
X831173Y478638D01*
X833337Y477742D01*
X835660Y477436D01*
X837983Y477742D01*
X840147Y478638D01*
X842005Y480065D01*
X843431Y481923D01*
X844328Y484087D01*
X844634Y486410D01*
X844328Y488733D01*
X843431Y490897D01*
X842005Y492755D01*
X840147Y494182D01*
X837983Y495078D01*
X835660Y495384D01*
D02*
G37*
G36*
X340400Y492774D02*
X338077Y492468D01*
X335913Y491572D01*
X334055Y490145D01*
X332629Y488287D01*
X331732Y486123D01*
X331426Y483800D01*
X331732Y481477D01*
X332629Y479313D01*
X334055Y477455D01*
X335913Y476029D01*
X338077Y475132D01*
X340400Y474826D01*
X342723Y475132D01*
X344887Y476029D01*
X346745Y477455D01*
X348172Y479313D01*
X349068Y481477D01*
X349374Y483800D01*
X349068Y486123D01*
X348172Y488287D01*
X346745Y490145D01*
X344887Y491572D01*
X342723Y492468D01*
X340400Y492774D01*
D02*
G37*
G36*
X315000D02*
X312677Y492468D01*
X310513Y491572D01*
X308655Y490145D01*
X307229Y488287D01*
X306332Y486123D01*
X306026Y483800D01*
X306332Y481477D01*
X307229Y479313D01*
X308655Y477455D01*
X310513Y476029D01*
X312677Y475132D01*
X315000Y474826D01*
X317323Y475132D01*
X319487Y476029D01*
X321345Y477455D01*
X322771Y479313D01*
X323668Y481477D01*
X323974Y483800D01*
X323668Y486123D01*
X322771Y488287D01*
X321345Y490145D01*
X319487Y491572D01*
X317323Y492468D01*
X315000Y492774D01*
D02*
G37*
G36*
X711779Y487783D02*
X709757Y487517D01*
X707872Y486736D01*
X706254Y485494D01*
X705012Y483876D01*
X704231Y481991D01*
X703965Y479969D01*
X704231Y477947D01*
X705012Y476062D01*
X706254Y474444D01*
X707872Y473202D01*
X709757Y472421D01*
X711779Y472155D01*
X713801Y472421D01*
X715686Y473202D01*
X717304Y474444D01*
X718546Y476062D01*
X719327Y477947D01*
X719593Y479969D01*
X719327Y481991D01*
X718546Y483876D01*
X717304Y485494D01*
X715686Y486736D01*
X713801Y487517D01*
X711779Y487783D01*
D02*
G37*
G36*
X798869Y476488D02*
X796342Y475985D01*
X794199Y474553D01*
X792768Y472411D01*
X792265Y469884D01*
X792768Y467356D01*
X794199Y465214D01*
X796342Y463783D01*
X798869Y463280D01*
X801396Y463783D01*
X803539Y465214D01*
X804970Y467356D01*
X805473Y469884D01*
X804970Y472411D01*
X803539Y474553D01*
X801396Y475985D01*
X798869Y476488D01*
D02*
G37*
G36*
X626000Y532604D02*
X623473Y532101D01*
X621330Y530670D01*
X619899Y528527D01*
X619621Y527129D01*
X554971Y462479D01*
X553725Y462726D01*
X553281Y463797D01*
X551531Y466079D01*
X549249Y467829D01*
X546592Y468930D01*
X543741Y469305D01*
X540890Y468930D01*
X538233Y467829D01*
X535951Y466079D01*
X534201Y463797D01*
X533100Y461140D01*
X532725Y458289D01*
X533100Y455438D01*
X534201Y452781D01*
X535951Y450499D01*
X538233Y448749D01*
X539304Y448305D01*
X539551Y447060D01*
X401719Y309227D01*
X378401Y285909D01*
X347541D01*
X346745Y286945D01*
X344887Y288372D01*
X342723Y289268D01*
X340400Y289574D01*
X338077Y289268D01*
X335913Y288372D01*
X334055Y286945D01*
X332629Y285087D01*
X331732Y282923D01*
X331426Y280600D01*
X331732Y278277D01*
X332629Y276113D01*
X334055Y274255D01*
X335913Y272829D01*
X338077Y271932D01*
X340400Y271626D01*
X342723Y271932D01*
X344887Y272829D01*
X346745Y274255D01*
X347541Y275291D01*
X380600D01*
X380600Y275291D01*
X382632Y275695D01*
X384354Y276846D01*
X409227Y301719D01*
X627129Y519621D01*
X628527Y519899D01*
X630670Y521330D01*
X632101Y523473D01*
X632604Y526000D01*
X632101Y528527D01*
X630670Y530670D01*
X628527Y532101D01*
X626000Y532604D01*
D02*
G37*
G36*
X402620Y487545D02*
X398940Y487060D01*
X395511Y485640D01*
X392566Y483380D01*
X390306Y480435D01*
X388886Y477006D01*
X388401Y473326D01*
X388886Y469646D01*
X390306Y466217D01*
X392566Y463272D01*
X395511Y461012D01*
X398940Y459592D01*
X402620Y459107D01*
X406300Y459592D01*
X409729Y461012D01*
X412674Y463272D01*
X414934Y466217D01*
X416354Y469646D01*
X416839Y473326D01*
X416354Y477006D01*
X414934Y480435D01*
X412674Y483380D01*
X409729Y485640D01*
X406300Y487060D01*
X402620Y487545D01*
D02*
G37*
G36*
X712000Y467814D02*
X709978Y467548D01*
X708093Y466767D01*
X706475Y465525D01*
X705233Y463907D01*
X704452Y462022D01*
X704186Y460000D01*
X704452Y457978D01*
X705233Y456093D01*
X706475Y454475D01*
X708093Y453233D01*
X709978Y452452D01*
X712000Y452186D01*
X714022Y452452D01*
X715907Y453233D01*
X717525Y454475D01*
X718767Y456093D01*
X719548Y457978D01*
X719814Y460000D01*
X719548Y462022D01*
X718767Y463907D01*
X717525Y465525D01*
X715907Y466767D01*
X714022Y467548D01*
X712000Y467814D01*
D02*
G37*
G36*
X340400Y467374D02*
X338077Y467068D01*
X335913Y466171D01*
X334055Y464745D01*
X332629Y462887D01*
X331732Y460723D01*
X331426Y458400D01*
X331732Y456077D01*
X332629Y453913D01*
X334055Y452055D01*
X335913Y450629D01*
X338077Y449732D01*
X340400Y449426D01*
X342723Y449732D01*
X344887Y450629D01*
X346745Y452055D01*
X348172Y453913D01*
X349068Y456077D01*
X349374Y458400D01*
X349068Y460723D01*
X348172Y462887D01*
X346745Y464745D01*
X344887Y466171D01*
X342723Y467068D01*
X340400Y467374D01*
D02*
G37*
G36*
X316270Y442959D02*
Y434270D01*
X324959D01*
X324782Y435621D01*
X323770Y438063D01*
X322161Y440161D01*
X320063Y441770D01*
X317621Y442782D01*
X316270Y442959D01*
D02*
G37*
G36*
X313730D02*
X312379Y442782D01*
X309937Y441770D01*
X307839Y440161D01*
X306230Y438063D01*
X305218Y435621D01*
X305041Y434270D01*
X313730D01*
Y442959D01*
D02*
G37*
G36*
X452120Y451706D02*
X449269Y451331D01*
X446612Y450230D01*
X444330Y448480D01*
X442580Y446198D01*
X441479Y443541D01*
X441104Y440690D01*
X441479Y437839D01*
X442580Y435182D01*
X444330Y432900D01*
X446612Y431150D01*
X449269Y430049D01*
X452120Y429674D01*
X454971Y430049D01*
X457628Y431150D01*
X459910Y432900D01*
X461660Y435182D01*
X462761Y437839D01*
X463136Y440690D01*
X462761Y443541D01*
X461660Y446198D01*
X459910Y448480D01*
X457628Y450230D01*
X454971Y451331D01*
X452120Y451706D01*
D02*
G37*
G36*
X836930Y444584D02*
X834607Y444278D01*
X832443Y443382D01*
X830585Y441955D01*
X829158Y440097D01*
X828262Y437933D01*
X827956Y435610D01*
X828262Y433287D01*
X829158Y431123D01*
X830585Y429265D01*
X832443Y427839D01*
X834607Y426942D01*
X836930Y426636D01*
X839253Y426942D01*
X841417Y427839D01*
X843275Y429265D01*
X844702Y431123D01*
X845598Y433287D01*
X845904Y435610D01*
X845598Y437933D01*
X844702Y440097D01*
X843275Y441955D01*
X841417Y443382D01*
X839253Y444278D01*
X836930Y444584D01*
D02*
G37*
G36*
X649000Y441386D02*
X647077Y441132D01*
X645285Y440390D01*
X643747Y439210D01*
X642566Y437671D01*
X641824Y435879D01*
X641571Y433956D01*
X641824Y432033D01*
X642566Y430241D01*
X643747Y428703D01*
X645285Y427522D01*
X647077Y426780D01*
X649000Y426526D01*
X650923Y426780D01*
X652715Y427522D01*
X654253Y428703D01*
X655434Y430241D01*
X656176Y432033D01*
X656430Y433956D01*
X656176Y435879D01*
X655434Y437671D01*
X654253Y439210D01*
X652715Y440390D01*
X650923Y441132D01*
X649000Y441386D01*
D02*
G37*
G36*
X340400Y441974D02*
X338077Y441668D01*
X335913Y440771D01*
X334055Y439345D01*
X332629Y437487D01*
X331732Y435323D01*
X331426Y433000D01*
X331732Y430677D01*
X332629Y428513D01*
X334055Y426655D01*
X335913Y425229D01*
X338077Y424332D01*
X340400Y424026D01*
X342723Y424332D01*
X344887Y425229D01*
X346745Y426655D01*
X348172Y428513D01*
X349068Y430677D01*
X349374Y433000D01*
X349068Y435323D01*
X348172Y437487D01*
X346745Y439345D01*
X344887Y440771D01*
X342723Y441668D01*
X340400Y441974D01*
D02*
G37*
G36*
X324959Y431730D02*
X316270D01*
Y423041D01*
X317621Y423218D01*
X320063Y424230D01*
X322161Y425839D01*
X323770Y427937D01*
X324782Y430379D01*
X324959Y431730D01*
D02*
G37*
G36*
X313730D02*
X305041D01*
X305218Y430379D01*
X306230Y427937D01*
X307839Y425839D01*
X309937Y424230D01*
X312379Y423218D01*
X313730Y423041D01*
Y431730D01*
D02*
G37*
G36*
X490270Y423519D02*
Y417270D01*
X496519D01*
X496424Y417989D01*
X495656Y419843D01*
X494435Y421435D01*
X492843Y422656D01*
X490989Y423424D01*
X490270Y423519D01*
D02*
G37*
G36*
X487730D02*
X487011Y423424D01*
X485157Y422656D01*
X483565Y421435D01*
X482344Y419843D01*
X481576Y417989D01*
X481481Y417270D01*
X487730D01*
Y423519D01*
D02*
G37*
G36*
X496519Y414730D02*
X490270D01*
Y408481D01*
X490989Y408576D01*
X492843Y409344D01*
X494435Y410565D01*
X495656Y412157D01*
X496424Y414011D01*
X496519Y414730D01*
D02*
G37*
G36*
X487730D02*
X481481D01*
X481576Y414011D01*
X482344Y412157D01*
X483565Y410565D01*
X485157Y409344D01*
X487011Y408576D01*
X487730Y408481D01*
Y414730D01*
D02*
G37*
G36*
X836930Y419184D02*
X834607Y418878D01*
X832443Y417981D01*
X830585Y416555D01*
X829158Y414697D01*
X828262Y412533D01*
X827956Y410210D01*
X828262Y407887D01*
X829158Y405723D01*
X830585Y403865D01*
X832443Y402439D01*
X834607Y401542D01*
X836930Y401236D01*
X839253Y401542D01*
X841417Y402439D01*
X843275Y403865D01*
X844702Y405723D01*
X845598Y407887D01*
X845904Y410210D01*
X845598Y412533D01*
X844702Y414697D01*
X843275Y416555D01*
X841417Y417981D01*
X839253Y418878D01*
X836930Y419184D01*
D02*
G37*
G36*
X364490Y414274D02*
X361963Y413771D01*
X359820Y412340D01*
X358389Y410197D01*
X357886Y407670D01*
X358389Y405143D01*
X359820Y403000D01*
X361963Y401569D01*
X364490Y401066D01*
X367017Y401569D01*
X369160Y403000D01*
X370591Y405143D01*
X371094Y407670D01*
X370591Y410197D01*
X369160Y412340D01*
X367017Y413771D01*
X364490Y414274D01*
D02*
G37*
G36*
X340400Y416574D02*
X338077Y416268D01*
X335913Y415372D01*
X334055Y413945D01*
X332629Y412087D01*
X331732Y409923D01*
X331426Y407600D01*
X331732Y405277D01*
X332629Y403113D01*
X334055Y401255D01*
X335913Y399828D01*
X338077Y398932D01*
X340400Y398626D01*
X342723Y398932D01*
X344887Y399828D01*
X346745Y401255D01*
X348172Y403113D01*
X349068Y405277D01*
X349374Y407600D01*
X349068Y409923D01*
X348172Y412087D01*
X346745Y413945D01*
X344887Y415372D01*
X342723Y416268D01*
X340400Y416574D01*
D02*
G37*
G36*
X315000D02*
X312677Y416268D01*
X310513Y415372D01*
X308655Y413945D01*
X307229Y412087D01*
X306332Y409923D01*
X306026Y407600D01*
X306332Y405277D01*
X307229Y403113D01*
X308655Y401255D01*
X310513Y399828D01*
X312677Y398932D01*
X315000Y398626D01*
X317323Y398932D01*
X319487Y399828D01*
X321345Y401255D01*
X322771Y403113D01*
X323668Y405277D01*
X323974Y407600D01*
X323668Y409923D01*
X322771Y412087D01*
X321345Y413945D01*
X319487Y415372D01*
X317323Y416268D01*
X315000Y416574D01*
D02*
G37*
G36*
X649000Y413474D02*
X647077Y413220D01*
X645285Y412478D01*
X643747Y411297D01*
X642566Y409759D01*
X641824Y407967D01*
X641571Y406044D01*
X641824Y404121D01*
X642566Y402329D01*
X643747Y400790D01*
X645285Y399610D01*
X647077Y398868D01*
X649000Y398615D01*
X650923Y398868D01*
X652715Y399610D01*
X654253Y400790D01*
X655434Y402329D01*
X656176Y404121D01*
X656430Y406044D01*
X656176Y407967D01*
X655434Y409759D01*
X654253Y411297D01*
X652715Y412478D01*
X650923Y413220D01*
X649000Y413474D01*
D02*
G37*
G36*
X412750Y415495D02*
X410396Y415185D01*
X408203Y414276D01*
X406319Y412831D01*
X404874Y410947D01*
X403965Y408754D01*
X403655Y406400D01*
X403965Y404046D01*
X404874Y401853D01*
X406319Y399969D01*
X408203Y398524D01*
X410396Y397615D01*
X412750Y397305D01*
X415104Y397615D01*
X417297Y398524D01*
X419181Y399969D01*
X420626Y401853D01*
X421535Y404046D01*
X421845Y406400D01*
X421535Y408754D01*
X420626Y410947D01*
X419181Y412831D01*
X417297Y414276D01*
X415104Y415185D01*
X412750Y415495D01*
D02*
G37*
G36*
X316270Y392159D02*
Y383470D01*
X324959D01*
X324782Y384821D01*
X323770Y387263D01*
X322161Y389361D01*
X320063Y390970D01*
X317621Y391982D01*
X316270Y392159D01*
D02*
G37*
G36*
X313730D02*
X312379Y391982D01*
X309937Y390970D01*
X307839Y389361D01*
X306230Y387263D01*
X305218Y384821D01*
X305041Y383470D01*
X313730D01*
Y392159D01*
D02*
G37*
G36*
X836930Y393784D02*
X834607Y393478D01*
X832443Y392581D01*
X830585Y391155D01*
X829158Y389297D01*
X828262Y387133D01*
X827956Y384810D01*
X828262Y382487D01*
X829158Y380323D01*
X830585Y378465D01*
X832443Y377038D01*
X834607Y376142D01*
X836930Y375836D01*
X839253Y376142D01*
X841417Y377038D01*
X843275Y378465D01*
X844702Y380323D01*
X845598Y382487D01*
X845904Y384810D01*
X845598Y387133D01*
X844702Y389297D01*
X843275Y391155D01*
X841417Y392581D01*
X839253Y393478D01*
X836930Y393784D01*
D02*
G37*
G36*
X324959Y380930D02*
X316270D01*
Y372241D01*
X317621Y372418D01*
X320063Y373430D01*
X322161Y375039D01*
X323770Y377137D01*
X324782Y379579D01*
X324959Y380930D01*
D02*
G37*
G36*
X313730D02*
X305041D01*
X305218Y379579D01*
X306230Y377137D01*
X307839Y375039D01*
X309937Y373430D01*
X312379Y372418D01*
X313730Y372241D01*
Y380930D01*
D02*
G37*
G36*
X562610Y382524D02*
X560083Y382021D01*
X557940Y380590D01*
X556509Y378447D01*
X556006Y375920D01*
X556509Y373393D01*
X557940Y371250D01*
X560083Y369819D01*
X562610Y369316D01*
X565137Y369819D01*
X567280Y371250D01*
X568711Y373393D01*
X569214Y375920D01*
X568711Y378447D01*
X567280Y380590D01*
X565137Y382021D01*
X562610Y382524D01*
D02*
G37*
G36*
X541000Y357604D02*
X538473Y357101D01*
X536330Y355670D01*
X535027Y353719D01*
X505305D01*
X504670Y354670D01*
X502527Y356101D01*
X500000Y356604D01*
X497473Y356101D01*
X495330Y354670D01*
X493899Y352527D01*
X493396Y350000D01*
X493899Y347473D01*
X495330Y345330D01*
X497473Y343899D01*
X500000Y343396D01*
X502527Y343899D01*
X504670Y345330D01*
X506101Y347473D01*
X506262Y348281D01*
X535027D01*
X536330Y346330D01*
X538473Y344899D01*
X541000Y344396D01*
X543527Y344899D01*
X545670Y346330D01*
X547101Y348473D01*
X547604Y351000D01*
X547101Y353527D01*
X545670Y355670D01*
X543527Y357101D01*
X541000Y357604D01*
D02*
G37*
G36*
X836930Y368384D02*
X834607Y368078D01*
X832443Y367182D01*
X830585Y365755D01*
X829158Y363897D01*
X828262Y361733D01*
X827956Y359410D01*
X828262Y357087D01*
X829158Y354923D01*
X830585Y353065D01*
X832443Y351638D01*
X834607Y350742D01*
X836930Y350436D01*
X839253Y350742D01*
X841417Y351638D01*
X843275Y353065D01*
X844702Y354923D01*
X845598Y357087D01*
X845904Y359410D01*
X845598Y361733D01*
X844702Y363897D01*
X843275Y365755D01*
X841417Y367182D01*
X839253Y368078D01*
X836930Y368384D01*
D02*
G37*
G36*
X577850Y363474D02*
X575323Y362971D01*
X573180Y361540D01*
X571749Y359397D01*
X571246Y356870D01*
X571704Y354569D01*
X555134Y337999D01*
X518160D01*
X517119Y337792D01*
X516237Y337203D01*
X508617Y329583D01*
X508028Y328701D01*
X507821Y327660D01*
Y257810D01*
X508028Y256769D01*
X508617Y255887D01*
X512459Y252046D01*
X512059Y251447D01*
X511556Y248920D01*
X512059Y246393D01*
X513490Y244250D01*
X515633Y242819D01*
X518160Y242316D01*
X520687Y242819D01*
X522830Y244250D01*
X524261Y246393D01*
X524764Y248920D01*
X524261Y251447D01*
X522830Y253590D01*
X520687Y255021D01*
X518160Y255524D01*
X516919Y255277D01*
X513259Y258936D01*
Y326534D01*
X519286Y332561D01*
X556260D01*
X557301Y332768D01*
X558183Y333357D01*
X575549Y350724D01*
X577850Y350266D01*
X580377Y350769D01*
X582520Y352200D01*
X583951Y354343D01*
X584454Y356870D01*
X583951Y359397D01*
X582520Y361540D01*
X580377Y362971D01*
X577850Y363474D01*
D02*
G37*
G36*
X340400Y365774D02*
X338077Y365468D01*
X335913Y364571D01*
X334055Y363145D01*
X332629Y361287D01*
X331732Y359123D01*
X331426Y356800D01*
X331732Y354477D01*
X332629Y352313D01*
X334055Y350455D01*
X335913Y349029D01*
X338077Y348132D01*
X340400Y347826D01*
X342723Y348132D01*
X344887Y349029D01*
X346745Y350455D01*
X348172Y352313D01*
X349068Y354477D01*
X349374Y356800D01*
X349068Y359123D01*
X348172Y361287D01*
X346745Y363145D01*
X344887Y364571D01*
X342723Y365468D01*
X340400Y365774D01*
D02*
G37*
G36*
X315000D02*
X312677Y365468D01*
X310513Y364571D01*
X308655Y363145D01*
X307229Y361287D01*
X306332Y359123D01*
X306026Y356800D01*
X306332Y354477D01*
X307229Y352313D01*
X308655Y350455D01*
X310513Y349029D01*
X312677Y348132D01*
X315000Y347826D01*
X317323Y348132D01*
X319487Y349029D01*
X321345Y350455D01*
X322771Y352313D01*
X323668Y354477D01*
X323974Y356800D01*
X323668Y359123D01*
X322771Y361287D01*
X321345Y363145D01*
X319487Y364571D01*
X317323Y365468D01*
X315000Y365774D01*
D02*
G37*
G36*
X404876Y344599D02*
Y335788D01*
X413686D01*
X413504Y337170D01*
X412481Y339642D01*
X410852Y341764D01*
X408730Y343393D01*
X406258Y344417D01*
X404876Y344599D01*
D02*
G37*
G36*
X402336D02*
X400954Y344417D01*
X398482Y343393D01*
X396360Y341764D01*
X394731Y339642D01*
X393708Y337170D01*
X393526Y335788D01*
X402336D01*
Y344599D01*
D02*
G37*
G36*
X341670Y341359D02*
Y332670D01*
X350359D01*
X350182Y334021D01*
X349170Y336463D01*
X347561Y338561D01*
X345463Y340170D01*
X343021Y341182D01*
X341670Y341359D01*
D02*
G37*
G36*
X339130D02*
X337779Y341182D01*
X335337Y340170D01*
X333239Y338561D01*
X331630Y336463D01*
X330618Y334021D01*
X330441Y332670D01*
X339130D01*
Y341359D01*
D02*
G37*
G36*
X836930Y342984D02*
X834607Y342678D01*
X832443Y341782D01*
X830585Y340355D01*
X829158Y338497D01*
X828262Y336333D01*
X827956Y334010D01*
X828262Y331687D01*
X829158Y329523D01*
X830585Y327665D01*
X832443Y326239D01*
X834607Y325342D01*
X836930Y325036D01*
X839253Y325342D01*
X841417Y326239D01*
X843275Y327665D01*
X844702Y329523D01*
X845598Y331687D01*
X845904Y334010D01*
X845598Y336333D01*
X844702Y338497D01*
X843275Y340355D01*
X841417Y341782D01*
X839253Y342678D01*
X836930Y342984D01*
D02*
G37*
G36*
X413686Y333248D02*
X404876D01*
Y324437D01*
X406258Y324619D01*
X408730Y325643D01*
X410852Y327272D01*
X412481Y329394D01*
X413504Y331866D01*
X413686Y333248D01*
D02*
G37*
G36*
X402336D02*
X393526D01*
X393708Y331866D01*
X394731Y329394D01*
X396360Y327272D01*
X398482Y325643D01*
X400954Y324619D01*
X402336Y324437D01*
Y333248D01*
D02*
G37*
G36*
X315000Y340374D02*
X312677Y340068D01*
X310513Y339171D01*
X308655Y337745D01*
X307229Y335887D01*
X306332Y333723D01*
X306026Y331400D01*
X306332Y329077D01*
X307229Y326913D01*
X308655Y325055D01*
X310513Y323629D01*
X312677Y322732D01*
X315000Y322426D01*
X317323Y322732D01*
X319487Y323629D01*
X321345Y325055D01*
X322771Y326913D01*
X323668Y329077D01*
X323974Y331400D01*
X323668Y333723D01*
X322771Y335887D01*
X321345Y337745D01*
X319487Y339171D01*
X317323Y340068D01*
X315000Y340374D01*
D02*
G37*
G36*
X350359Y330130D02*
X341670D01*
Y321441D01*
X343021Y321618D01*
X345463Y322630D01*
X347561Y324239D01*
X349170Y326337D01*
X350182Y328779D01*
X350359Y330130D01*
D02*
G37*
G36*
X339130D02*
X330441D01*
X330618Y328779D01*
X331630Y326337D01*
X333239Y324239D01*
X335337Y322630D01*
X337779Y321618D01*
X339130Y321441D01*
Y330130D01*
D02*
G37*
G36*
X649000Y334734D02*
X647077Y334480D01*
X645285Y333738D01*
X643747Y332557D01*
X642566Y331019D01*
X641824Y329227D01*
X641571Y327304D01*
X641824Y325381D01*
X642566Y323589D01*
X643747Y322051D01*
X645285Y320870D01*
X647077Y320128D01*
X649000Y319874D01*
X650923Y320128D01*
X652715Y320870D01*
X654253Y322051D01*
X655434Y323589D01*
X656176Y325381D01*
X656430Y327304D01*
X656176Y329227D01*
X655434Y331019D01*
X654253Y332557D01*
X652715Y333738D01*
X650923Y334480D01*
X649000Y334734D01*
D02*
G37*
G36*
X613000Y325016D02*
X610149Y324641D01*
X607492Y323540D01*
X605210Y321790D01*
X603460Y319508D01*
X602359Y316851D01*
X601984Y314000D01*
X602359Y311149D01*
X603460Y308492D01*
X605210Y306210D01*
X607492Y304460D01*
X610149Y303359D01*
X613000Y302984D01*
X615851Y303359D01*
X618508Y304460D01*
X620790Y306210D01*
X622540Y308492D01*
X623641Y311149D01*
X624016Y314000D01*
X623641Y316851D01*
X622540Y319508D01*
X620790Y321790D01*
X618508Y323540D01*
X615851Y324641D01*
X613000Y325016D01*
D02*
G37*
G36*
X836930Y317584D02*
X834607Y317278D01*
X832443Y316381D01*
X830585Y314955D01*
X829158Y313097D01*
X828262Y310933D01*
X827956Y308610D01*
X828262Y306287D01*
X829158Y304123D01*
X830585Y302265D01*
X832443Y300839D01*
X834607Y299942D01*
X836930Y299636D01*
X839253Y299942D01*
X841417Y300839D01*
X843275Y302265D01*
X844702Y304123D01*
X845598Y306287D01*
X845904Y308610D01*
X845598Y310933D01*
X844702Y313097D01*
X843275Y314955D01*
X841417Y316381D01*
X839253Y317278D01*
X836930Y317584D01*
D02*
G37*
G36*
X290830Y312674D02*
X288303Y312171D01*
X286160Y310740D01*
X284729Y308597D01*
X284226Y306070D01*
X284729Y303543D01*
X286160Y301400D01*
X288303Y299969D01*
X290830Y299466D01*
X293357Y299969D01*
X295500Y301400D01*
X296931Y303543D01*
X297434Y306070D01*
X296931Y308597D01*
X295500Y310740D01*
X293357Y312171D01*
X290830Y312674D01*
D02*
G37*
G36*
X340400Y314974D02*
X338077Y314668D01*
X335913Y313771D01*
X334055Y312345D01*
X332629Y310487D01*
X331732Y308323D01*
X331426Y306000D01*
X331732Y303677D01*
X332629Y301513D01*
X334055Y299655D01*
X335913Y298228D01*
X338077Y297332D01*
X340400Y297026D01*
X342723Y297332D01*
X344887Y298228D01*
X346745Y299655D01*
X348172Y301513D01*
X349068Y303677D01*
X349374Y306000D01*
X349068Y308323D01*
X348172Y310487D01*
X346745Y312345D01*
X344887Y313771D01*
X342723Y314668D01*
X340400Y314974D01*
D02*
G37*
G36*
X315000D02*
X312677Y314668D01*
X310513Y313771D01*
X308655Y312345D01*
X307229Y310487D01*
X306332Y308323D01*
X306026Y306000D01*
X306332Y303677D01*
X307229Y301513D01*
X308655Y299655D01*
X310513Y298228D01*
X312677Y297332D01*
X315000Y297026D01*
X317323Y297332D01*
X319487Y298228D01*
X321345Y299655D01*
X322771Y301513D01*
X323668Y303677D01*
X323974Y306000D01*
X323668Y308323D01*
X322771Y310487D01*
X321345Y312345D01*
X319487Y313771D01*
X317323Y314668D01*
X315000Y314974D01*
D02*
G37*
G36*
X361950Y310134D02*
X359423Y309631D01*
X357280Y308200D01*
X355849Y306057D01*
X355346Y303530D01*
X355849Y301003D01*
X357280Y298860D01*
X359423Y297429D01*
X361950Y296926D01*
X364477Y297429D01*
X366620Y298860D01*
X368051Y301003D01*
X368554Y303530D01*
X368051Y306057D01*
X366620Y308200D01*
X364477Y309631D01*
X361950Y310134D01*
D02*
G37*
G36*
X649000Y306822D02*
X647077Y306568D01*
X645285Y305826D01*
X643747Y304646D01*
X642566Y303107D01*
X641824Y301315D01*
X641571Y299392D01*
X641824Y297469D01*
X642566Y295677D01*
X643747Y294139D01*
X645285Y292958D01*
X647077Y292216D01*
X649000Y291963D01*
X650923Y292216D01*
X652715Y292958D01*
X654253Y294139D01*
X655434Y295677D01*
X656176Y297469D01*
X656430Y299392D01*
X656176Y301315D01*
X655434Y303107D01*
X654253Y304646D01*
X652715Y305826D01*
X650923Y306568D01*
X649000Y306822D01*
D02*
G37*
G36*
X537000Y300604D02*
X534473Y300101D01*
X532330Y298670D01*
X530899Y296527D01*
X530396Y294000D01*
X530899Y291473D01*
X532330Y289330D01*
X534473Y287899D01*
X537000Y287396D01*
X539527Y287899D01*
X541670Y289330D01*
X543101Y291473D01*
X543604Y294000D01*
X543101Y296527D01*
X541670Y298670D01*
X539527Y300101D01*
X537000Y300604D01*
D02*
G37*
G36*
X791897Y292297D02*
X774103D01*
Y274503D01*
X791897D01*
Y292297D01*
D02*
G37*
G36*
X836930Y292184D02*
X834607Y291878D01*
X832443Y290982D01*
X830585Y289555D01*
X829158Y287697D01*
X828262Y285533D01*
X827956Y283210D01*
X828262Y280887D01*
X829158Y278723D01*
X830585Y276865D01*
X832443Y275438D01*
X834607Y274542D01*
X836930Y274236D01*
X839253Y274542D01*
X841417Y275438D01*
X843275Y276865D01*
X844702Y278723D01*
X845598Y280887D01*
X845904Y283210D01*
X845598Y285533D01*
X844702Y287697D01*
X843275Y289555D01*
X841417Y290982D01*
X839253Y291878D01*
X836930Y292184D01*
D02*
G37*
G36*
X315000Y289574D02*
X312677Y289268D01*
X310513Y288372D01*
X308655Y286945D01*
X307229Y285087D01*
X306332Y282923D01*
X306026Y280600D01*
X306332Y278277D01*
X307229Y276113D01*
X308655Y274255D01*
X310513Y272829D01*
X312677Y271932D01*
X315000Y271626D01*
X317323Y271932D01*
X319487Y272829D01*
X321345Y274255D01*
X322771Y276113D01*
X323668Y278277D01*
X323974Y280600D01*
X323668Y282923D01*
X322771Y285087D01*
X321345Y286945D01*
X319487Y288372D01*
X317323Y289268D01*
X315000Y289574D01*
D02*
G37*
G36*
X538000Y284604D02*
X535473Y284101D01*
X533330Y282670D01*
X531899Y280527D01*
X531396Y278000D01*
X531899Y275473D01*
X533330Y273330D01*
X535473Y271899D01*
X538000Y271396D01*
X540527Y271899D01*
X542670Y273330D01*
X544101Y275473D01*
X544604Y278000D01*
X544101Y280527D01*
X542670Y282670D01*
X540527Y284101D01*
X538000Y284604D01*
D02*
G37*
G36*
X630936Y271679D02*
Y265430D01*
X637185D01*
X637090Y266149D01*
X636322Y268003D01*
X635101Y269595D01*
X633509Y270816D01*
X631655Y271584D01*
X630936Y271679D01*
D02*
G37*
G36*
X628396D02*
X627677Y271584D01*
X625823Y270816D01*
X624231Y269595D01*
X623010Y268003D01*
X622242Y266149D01*
X622147Y265430D01*
X628396D01*
Y271679D01*
D02*
G37*
G36*
X637185Y262890D02*
X630936D01*
Y256641D01*
X631655Y256736D01*
X633509Y257504D01*
X635101Y258725D01*
X636322Y260317D01*
X637090Y262171D01*
X637185Y262890D01*
D02*
G37*
G36*
X628396D02*
X622147D01*
X622242Y262171D01*
X623010Y260317D01*
X624231Y258725D01*
X625823Y257504D01*
X627677Y256736D01*
X628396Y256641D01*
Y262890D01*
D02*
G37*
G36*
X316270Y265159D02*
Y256470D01*
X324959D01*
X324782Y257821D01*
X323770Y260263D01*
X322161Y262361D01*
X320063Y263970D01*
X317621Y264982D01*
X316270Y265159D01*
D02*
G37*
G36*
X313730D02*
X312379Y264982D01*
X309937Y263970D01*
X307839Y262361D01*
X306230Y260263D01*
X305218Y257821D01*
X305041Y256470D01*
X313730D01*
Y265159D01*
D02*
G37*
G36*
X845827Y266707D02*
X828033D01*
Y248913D01*
X845827D01*
Y266707D01*
D02*
G37*
G36*
X364000Y260604D02*
X361473Y260101D01*
X359330Y258670D01*
X357899Y256527D01*
X357396Y254000D01*
X357899Y251473D01*
X359330Y249330D01*
X361473Y247899D01*
X364000Y247396D01*
X366527Y247899D01*
X368670Y249330D01*
X370101Y251473D01*
X370604Y254000D01*
X370101Y256527D01*
X368670Y258670D01*
X366527Y260101D01*
X364000Y260604D01*
D02*
G37*
G36*
X340400Y264174D02*
X338077Y263868D01*
X335913Y262971D01*
X334055Y261545D01*
X332629Y259687D01*
X331732Y257523D01*
X331426Y255200D01*
X331732Y252877D01*
X332629Y250713D01*
X334055Y248855D01*
X335913Y247428D01*
X338077Y246532D01*
X340400Y246226D01*
X342723Y246532D01*
X344887Y247428D01*
X346745Y248855D01*
X348172Y250713D01*
X349068Y252877D01*
X349374Y255200D01*
X349068Y257523D01*
X348172Y259687D01*
X346745Y261545D01*
X344887Y262971D01*
X342723Y263868D01*
X340400Y264174D01*
D02*
G37*
G36*
X324959Y253930D02*
X316270D01*
Y245241D01*
X317621Y245418D01*
X320063Y246430D01*
X322161Y248039D01*
X323770Y250137D01*
X324782Y252579D01*
X324959Y253930D01*
D02*
G37*
G36*
X313730D02*
X305041D01*
X305218Y252579D01*
X306230Y250137D01*
X307839Y248039D01*
X309937Y246430D01*
X312379Y245418D01*
X313730Y245241D01*
Y253930D01*
D02*
G37*
G36*
X694000Y325814D02*
X691978Y325548D01*
X690093Y324767D01*
X688475Y323525D01*
X687233Y321907D01*
X686452Y320022D01*
X686186Y318000D01*
X686452Y315978D01*
X687233Y314093D01*
X688475Y312475D01*
X690093Y311233D01*
X691978Y310452D01*
X694000Y310186D01*
X696022Y310452D01*
X697907Y311233D01*
X699525Y312475D01*
X700767Y314093D01*
X701259Y315281D01*
X781874D01*
X807281Y289874D01*
Y250126D01*
X798874Y241719D01*
X789127D01*
X785719Y245127D01*
Y249496D01*
X787487Y250229D01*
X789345Y251655D01*
X790771Y253513D01*
X791668Y255677D01*
X791974Y258000D01*
X791668Y260323D01*
X790771Y262487D01*
X789345Y264345D01*
X787487Y265772D01*
X785323Y266668D01*
X783000Y266974D01*
X780677Y266668D01*
X778513Y265772D01*
X776655Y264345D01*
X775229Y262487D01*
X774332Y260323D01*
X774026Y258000D01*
X774332Y255677D01*
X775229Y253513D01*
X776655Y251655D01*
X778513Y250229D01*
X780281Y249496D01*
Y244000D01*
X780488Y242960D01*
X781077Y242078D01*
X786077Y237077D01*
X786077Y237077D01*
X786960Y236488D01*
X788000Y236281D01*
X800000D01*
X801041Y236488D01*
X801923Y237077D01*
X811923Y247077D01*
X812512Y247959D01*
X812719Y249000D01*
Y291000D01*
X812719Y291000D01*
X812512Y292041D01*
X811923Y292923D01*
X784923Y319923D01*
X784041Y320512D01*
X783000Y320719D01*
X701259D01*
X700767Y321907D01*
X699525Y323525D01*
X697907Y324767D01*
X696022Y325548D01*
X694000Y325814D01*
D02*
G37*
G36*
X402620Y274241D02*
X398940Y273756D01*
X395511Y272336D01*
X392566Y270076D01*
X390306Y267131D01*
X388886Y263702D01*
X388401Y260022D01*
X388886Y256342D01*
X390303Y252920D01*
X380330Y242948D01*
X378899Y240805D01*
X378396Y238278D01*
Y175114D01*
X378899Y172587D01*
X380330Y170444D01*
X390303Y160472D01*
X388886Y157050D01*
X388401Y153370D01*
X388886Y149690D01*
X390306Y146261D01*
X392566Y143316D01*
X395511Y141056D01*
X398940Y139636D01*
X402620Y139151D01*
X406300Y139636D01*
X409729Y141056D01*
X412674Y143316D01*
X414934Y146261D01*
X416354Y149690D01*
X416839Y153370D01*
X416354Y157050D01*
X414934Y160479D01*
X412674Y163424D01*
X409729Y165684D01*
X406300Y167104D01*
X402620Y167589D01*
X401953Y167501D01*
X391604Y177850D01*
Y235543D01*
X401953Y245891D01*
X402620Y245803D01*
X404969Y246113D01*
X405301Y244875D01*
X404492Y244540D01*
X402210Y242790D01*
X400460Y240508D01*
X399359Y237851D01*
X398984Y235000D01*
X399359Y232149D01*
X400460Y229492D01*
X402210Y227210D01*
X404492Y225460D01*
X407149Y224359D01*
X410000Y223984D01*
X412851Y224359D01*
X415508Y225460D01*
X417790Y227210D01*
X419540Y229492D01*
X420641Y232149D01*
X421016Y235000D01*
X420641Y237851D01*
X419540Y240508D01*
X417790Y242790D01*
X415508Y244540D01*
X412851Y245641D01*
X410000Y246016D01*
X408480Y245816D01*
X408148Y247053D01*
X409729Y247708D01*
X412674Y249968D01*
X414934Y252913D01*
X416354Y256342D01*
X416839Y260022D01*
X416354Y263702D01*
X414934Y267131D01*
X412674Y270076D01*
X409729Y272336D01*
X406300Y273756D01*
X402620Y274241D01*
D02*
G37*
G36*
X617220Y235204D02*
X614693Y234701D01*
X612550Y233270D01*
X611119Y231127D01*
X610616Y228600D01*
X611119Y226073D01*
X612550Y223930D01*
X614693Y222499D01*
X617220Y221996D01*
X619747Y222499D01*
X621890Y223930D01*
X623321Y226073D01*
X623824Y228600D01*
X623321Y231127D01*
X621890Y233270D01*
X619747Y234701D01*
X617220Y235204D01*
D02*
G37*
G36*
X315000Y238774D02*
X312677Y238468D01*
X310513Y237572D01*
X308655Y236145D01*
X307229Y234287D01*
X306332Y232123D01*
X306026Y229800D01*
X306332Y227477D01*
X307229Y225313D01*
X308655Y223455D01*
X310513Y222029D01*
X312677Y221132D01*
X315000Y220826D01*
X317323Y221132D01*
X319487Y222029D01*
X321345Y223455D01*
X322771Y225313D01*
X323668Y227477D01*
X323974Y229800D01*
X323668Y232123D01*
X322771Y234287D01*
X321345Y236145D01*
X319487Y237572D01*
X317323Y238468D01*
X315000Y238774D01*
D02*
G37*
G36*
X649000Y228082D02*
X647077Y227828D01*
X645285Y227086D01*
X643747Y225905D01*
X642566Y224367D01*
X641824Y222575D01*
X641571Y220652D01*
X641824Y218729D01*
X642566Y216937D01*
X643747Y215399D01*
X645285Y214218D01*
X647077Y213476D01*
X649000Y213223D01*
X650923Y213476D01*
X652715Y214218D01*
X654253Y215399D01*
X655434Y216937D01*
X656176Y218729D01*
X656430Y220652D01*
X656176Y222575D01*
X655434Y224367D01*
X654253Y225905D01*
X652715Y227086D01*
X650923Y227828D01*
X649000Y228082D01*
D02*
G37*
G36*
X440690Y211989D02*
Y205740D01*
X446939D01*
X446844Y206459D01*
X446076Y208313D01*
X444855Y209905D01*
X443263Y211126D01*
X441409Y211894D01*
X440690Y211989D01*
D02*
G37*
G36*
X438150D02*
X437431Y211894D01*
X435577Y211126D01*
X433985Y209905D01*
X432764Y208313D01*
X431996Y206459D01*
X431901Y205740D01*
X438150D01*
Y211989D01*
D02*
G37*
G36*
X480060Y214884D02*
X477533Y214381D01*
X475390Y212950D01*
X473959Y210807D01*
X473456Y208280D01*
X473959Y205753D01*
X475390Y203610D01*
X477533Y202179D01*
X480060Y201676D01*
X482587Y202179D01*
X484730Y203610D01*
X486161Y205753D01*
X486664Y208280D01*
X486161Y210807D01*
X484730Y212950D01*
X482587Y214381D01*
X480060Y214884D01*
D02*
G37*
G36*
X457000Y211604D02*
X454473Y211101D01*
X452330Y209670D01*
X450899Y207527D01*
X450396Y205000D01*
X450899Y202473D01*
X452330Y200330D01*
X454473Y198899D01*
X457000Y198396D01*
X459527Y198899D01*
X461670Y200330D01*
X463101Y202473D01*
X463604Y205000D01*
X463101Y207527D01*
X461670Y209670D01*
X459527Y211101D01*
X457000Y211604D01*
D02*
G37*
G36*
X446939Y203200D02*
X440690D01*
Y196951D01*
X441409Y197046D01*
X443263Y197814D01*
X444855Y199035D01*
X446076Y200627D01*
X446844Y202481D01*
X446939Y203200D01*
D02*
G37*
G36*
X438150D02*
X431901D01*
X431996Y202481D01*
X432764Y200627D01*
X433985Y199035D01*
X435577Y197814D01*
X437431Y197046D01*
X438150Y196951D01*
Y203200D01*
D02*
G37*
G36*
X340400Y213374D02*
X338077Y213068D01*
X335913Y212171D01*
X334055Y210745D01*
X332629Y208887D01*
X331732Y206723D01*
X331426Y204400D01*
X331732Y202077D01*
X332629Y199913D01*
X334055Y198055D01*
X335913Y196628D01*
X338077Y195732D01*
X340400Y195426D01*
X342723Y195732D01*
X344887Y196628D01*
X346745Y198055D01*
X348172Y199913D01*
X349068Y202077D01*
X349374Y204400D01*
X349068Y206723D01*
X348172Y208887D01*
X346745Y210745D01*
X344887Y212171D01*
X342723Y213068D01*
X340400Y213374D01*
D02*
G37*
G36*
X315000D02*
X312677Y213068D01*
X310513Y212171D01*
X308655Y210745D01*
X307229Y208887D01*
X306332Y206723D01*
X306026Y204400D01*
X306332Y202077D01*
X307229Y199913D01*
X308655Y198055D01*
X310513Y196628D01*
X312677Y195732D01*
X315000Y195426D01*
X317323Y195732D01*
X319487Y196628D01*
X321345Y198055D01*
X322771Y199913D01*
X323668Y202077D01*
X323974Y204400D01*
X323668Y206723D01*
X322771Y208887D01*
X321345Y210745D01*
X319487Y212171D01*
X317323Y213068D01*
X315000Y213374D01*
D02*
G37*
G36*
X649000Y200170D02*
X647077Y199916D01*
X645285Y199174D01*
X643747Y197994D01*
X642566Y196455D01*
X641824Y194663D01*
X641571Y192740D01*
X641824Y190817D01*
X642566Y189025D01*
X643747Y187487D01*
X645285Y186306D01*
X647077Y185564D01*
X649000Y185310D01*
X650923Y185564D01*
X652715Y186306D01*
X654253Y187487D01*
X655434Y189025D01*
X656176Y190817D01*
X656430Y192740D01*
X656176Y194663D01*
X655434Y196455D01*
X654253Y197994D01*
X652715Y199174D01*
X650923Y199916D01*
X649000Y200170D01*
D02*
G37*
G36*
X316270Y188959D02*
Y180270D01*
X324959D01*
X324782Y181621D01*
X323770Y184063D01*
X322161Y186161D01*
X320063Y187770D01*
X317621Y188782D01*
X316270Y188959D01*
D02*
G37*
G36*
X313730D02*
X312379Y188782D01*
X309937Y187770D01*
X307839Y186161D01*
X306230Y184063D01*
X305218Y181621D01*
X305041Y180270D01*
X313730D01*
Y188959D01*
D02*
G37*
G36*
X624000Y183604D02*
X621473Y183101D01*
X619330Y181670D01*
X617899Y179527D01*
X617396Y177000D01*
X617899Y174473D01*
X619330Y172330D01*
X621473Y170899D01*
X624000Y170396D01*
X626527Y170899D01*
X628670Y172330D01*
X630101Y174473D01*
X630604Y177000D01*
X630101Y179527D01*
X628670Y181670D01*
X626527Y183101D01*
X624000Y183604D01*
D02*
G37*
G36*
X542000D02*
X539473Y183101D01*
X537330Y181670D01*
X535899Y179527D01*
X535396Y177000D01*
X535899Y174473D01*
X537330Y172330D01*
X539473Y170899D01*
X542000Y170396D01*
X544527Y170899D01*
X546670Y172330D01*
X548101Y174473D01*
X548604Y177000D01*
X548101Y179527D01*
X546670Y181670D01*
X544527Y183101D01*
X542000Y183604D01*
D02*
G37*
G36*
X340400Y187974D02*
X338077Y187668D01*
X335913Y186772D01*
X334055Y185345D01*
X332629Y183487D01*
X331732Y181323D01*
X331426Y179000D01*
X331732Y176677D01*
X332629Y174513D01*
X334055Y172655D01*
X335913Y171229D01*
X338077Y170332D01*
X340400Y170026D01*
X342723Y170332D01*
X344887Y171229D01*
X346745Y172655D01*
X348172Y174513D01*
X349068Y176677D01*
X349374Y179000D01*
X349068Y181323D01*
X348172Y183487D01*
X346745Y185345D01*
X344887Y186772D01*
X342723Y187668D01*
X340400Y187974D01*
D02*
G37*
G36*
X698270Y175519D02*
Y169270D01*
X704519D01*
X704424Y169989D01*
X703656Y171843D01*
X702435Y173435D01*
X700843Y174656D01*
X698989Y175424D01*
X698270Y175519D01*
D02*
G37*
G36*
X695730D02*
X695011Y175424D01*
X693157Y174656D01*
X691565Y173435D01*
X690344Y171843D01*
X689576Y169989D01*
X689481Y169270D01*
X695730D01*
Y175519D01*
D02*
G37*
G36*
X324959Y177730D02*
X316270D01*
Y169041D01*
X317621Y169218D01*
X320063Y170230D01*
X322161Y171839D01*
X323770Y173937D01*
X324782Y176379D01*
X324959Y177730D01*
D02*
G37*
G36*
X313730D02*
X305041D01*
X305218Y176379D01*
X306230Y173937D01*
X307839Y171839D01*
X309937Y170230D01*
X312379Y169218D01*
X313730Y169041D01*
Y177730D01*
D02*
G37*
G36*
X704519Y166730D02*
X698270D01*
Y160481D01*
X698989Y160576D01*
X700843Y161344D01*
X702435Y162565D01*
X703656Y164157D01*
X704424Y166011D01*
X704519Y166730D01*
D02*
G37*
G36*
X695730D02*
X689481D01*
X689576Y166011D01*
X690344Y164157D01*
X691565Y162565D01*
X693157Y161344D01*
X695011Y160576D01*
X695730Y160481D01*
Y166730D01*
D02*
G37*
G36*
X340400Y162574D02*
X338077Y162268D01*
X335913Y161371D01*
X334055Y159945D01*
X332629Y158087D01*
X331732Y155923D01*
X331426Y153600D01*
X331732Y151277D01*
X332629Y149113D01*
X334055Y147255D01*
X335913Y145829D01*
X338077Y144932D01*
X340400Y144626D01*
X342723Y144932D01*
X344887Y145829D01*
X346745Y147255D01*
X348172Y149113D01*
X349068Y151277D01*
X349374Y153600D01*
X349068Y155923D01*
X348172Y158087D01*
X346745Y159945D01*
X344887Y161371D01*
X342723Y162268D01*
X340400Y162574D01*
D02*
G37*
G36*
X315000D02*
X312677Y162268D01*
X310513Y161371D01*
X308655Y159945D01*
X307229Y158087D01*
X306332Y155923D01*
X306026Y153600D01*
X306332Y151277D01*
X307229Y149113D01*
X308655Y147255D01*
X310513Y145829D01*
X312677Y144932D01*
X315000Y144626D01*
X317323Y144932D01*
X319487Y145829D01*
X321345Y147255D01*
X322771Y149113D01*
X323668Y151277D01*
X323974Y153600D01*
X323668Y155923D01*
X322771Y158087D01*
X321345Y159945D01*
X319487Y161371D01*
X317323Y162268D01*
X315000Y162574D01*
D02*
G37*
G36*
X341670Y138159D02*
Y129470D01*
X350359D01*
X350182Y130821D01*
X349170Y133263D01*
X347561Y135361D01*
X345463Y136970D01*
X343021Y137982D01*
X341670Y138159D01*
D02*
G37*
G36*
X339130D02*
X337779Y137982D01*
X335337Y136970D01*
X333239Y135361D01*
X331630Y133263D01*
X330618Y130821D01*
X330441Y129470D01*
X339130D01*
Y138159D01*
D02*
G37*
G36*
X315000Y137174D02*
X312677Y136868D01*
X310513Y135971D01*
X308655Y134545D01*
X307229Y132687D01*
X306332Y130523D01*
X306026Y128200D01*
X306332Y125877D01*
X307229Y123713D01*
X308655Y121855D01*
X310513Y120428D01*
X312677Y119532D01*
X315000Y119226D01*
X317323Y119532D01*
X319487Y120428D01*
X321345Y121855D01*
X322771Y123713D01*
X323668Y125877D01*
X323974Y128200D01*
X323668Y130523D01*
X322771Y132687D01*
X321345Y134545D01*
X319487Y135971D01*
X317323Y136868D01*
X315000Y137174D01*
D02*
G37*
G36*
X350359Y126930D02*
X341670D01*
Y118241D01*
X343021Y118418D01*
X345463Y119430D01*
X347561Y121039D01*
X349170Y123137D01*
X350182Y125579D01*
X350359Y126930D01*
D02*
G37*
G36*
X339130D02*
X330441D01*
X330618Y125579D01*
X331630Y123137D01*
X333239Y121039D01*
X335337Y119430D01*
X337779Y118418D01*
X339130Y118241D01*
Y126930D01*
D02*
G37*
G36*
X649000Y121430D02*
X647077Y121176D01*
X645285Y120434D01*
X643747Y119254D01*
X642566Y117715D01*
X641824Y115923D01*
X641571Y114000D01*
X641824Y112077D01*
X642566Y110285D01*
X643747Y108747D01*
X645285Y107566D01*
X647077Y106824D01*
X649000Y106571D01*
X650923Y106824D01*
X652715Y107566D01*
X654253Y108747D01*
X655434Y110285D01*
X656176Y112077D01*
X656430Y114000D01*
X656176Y115923D01*
X655434Y117715D01*
X654253Y119254D01*
X652715Y120434D01*
X650923Y121176D01*
X649000Y121430D01*
D02*
G37*
G36*
X340400Y111774D02*
X338077Y111468D01*
X335913Y110571D01*
X334055Y109145D01*
X332629Y107287D01*
X331732Y105123D01*
X331426Y102800D01*
X331732Y100477D01*
X332629Y98313D01*
X334055Y96455D01*
X335913Y95028D01*
X338077Y94132D01*
X340400Y93826D01*
X342723Y94132D01*
X344887Y95028D01*
X346745Y96455D01*
X348172Y98313D01*
X349068Y100477D01*
X349374Y102800D01*
X349068Y105123D01*
X348172Y107287D01*
X346745Y109145D01*
X344887Y110571D01*
X342723Y111468D01*
X340400Y111774D01*
D02*
G37*
G36*
X315000D02*
X312677Y111468D01*
X310513Y110571D01*
X308655Y109145D01*
X307229Y107287D01*
X306332Y105123D01*
X306026Y102800D01*
X306332Y100477D01*
X307229Y98313D01*
X308655Y96455D01*
X310513Y95028D01*
X312677Y94132D01*
X315000Y93826D01*
X317323Y94132D01*
X319487Y95028D01*
X321345Y96455D01*
X322771Y98313D01*
X323668Y100477D01*
X323974Y102800D01*
X323668Y105123D01*
X322771Y107287D01*
X321345Y109145D01*
X319487Y110571D01*
X317323Y111468D01*
X315000Y111774D01*
D02*
G37*
G36*
X567297Y98897D02*
X549503D01*
Y81103D01*
X567297D01*
Y98897D01*
D02*
G37*
G36*
X533000Y98974D02*
X530677Y98668D01*
X528513Y97772D01*
X526655Y96345D01*
X525229Y94487D01*
X524332Y92323D01*
X524026Y90000D01*
X524332Y87677D01*
X525229Y85513D01*
X526655Y83655D01*
X528513Y82228D01*
X530677Y81332D01*
X533000Y81026D01*
X535323Y81332D01*
X537487Y82228D01*
X539345Y83655D01*
X540771Y85513D01*
X541668Y87677D01*
X541974Y90000D01*
X541668Y92323D01*
X540771Y94487D01*
X539345Y96345D01*
X537487Y97772D01*
X535323Y98668D01*
X533000Y98974D01*
D02*
G37*
G36*
X507600D02*
X505277Y98668D01*
X503113Y97772D01*
X501255Y96345D01*
X499828Y94487D01*
X498932Y92323D01*
X498626Y90000D01*
X498932Y87677D01*
X499828Y85513D01*
X501255Y83655D01*
X503113Y82228D01*
X505277Y81332D01*
X507600Y81026D01*
X509923Y81332D01*
X512087Y82228D01*
X513945Y83655D01*
X515372Y85513D01*
X516268Y87677D01*
X516574Y90000D01*
X516268Y92323D01*
X515372Y94487D01*
X513945Y96345D01*
X512087Y97772D01*
X509923Y98668D01*
X507600Y98974D01*
D02*
G37*
G36*
X316270Y87359D02*
Y78670D01*
X324959D01*
X324782Y80021D01*
X323770Y82463D01*
X322161Y84561D01*
X320063Y86170D01*
X317621Y87182D01*
X316270Y87359D01*
D02*
G37*
G36*
X313730D02*
X312379Y87182D01*
X309937Y86170D01*
X307839Y84561D01*
X306230Y82463D01*
X305218Y80021D01*
X305041Y78670D01*
X313730D01*
Y87359D01*
D02*
G37*
G36*
X340400Y86374D02*
X338077Y86068D01*
X335913Y85171D01*
X334055Y83745D01*
X332629Y81887D01*
X331732Y79723D01*
X331426Y77400D01*
X331732Y75077D01*
X332629Y72913D01*
X334055Y71055D01*
X335913Y69629D01*
X338077Y68732D01*
X340400Y68426D01*
X342723Y68732D01*
X344887Y69629D01*
X346745Y71055D01*
X348172Y72913D01*
X349068Y75077D01*
X349374Y77400D01*
X349068Y79723D01*
X348172Y81887D01*
X346745Y83745D01*
X344887Y85171D01*
X342723Y86068D01*
X340400Y86374D01*
D02*
G37*
G36*
X324959Y76130D02*
X316270D01*
Y67441D01*
X317621Y67618D01*
X320063Y68630D01*
X322161Y70239D01*
X323770Y72337D01*
X324782Y74779D01*
X324959Y76130D01*
D02*
G37*
G36*
X313730D02*
X305041D01*
X305218Y74779D01*
X306230Y72337D01*
X307839Y70239D01*
X309937Y68630D01*
X312379Y67618D01*
X313730Y67441D01*
Y76130D01*
D02*
G37*
G36*
X732670Y72959D02*
Y64270D01*
X741359D01*
X741182Y65621D01*
X740170Y68063D01*
X738561Y70161D01*
X736463Y71770D01*
X734021Y72782D01*
X732670Y72959D01*
D02*
G37*
G36*
X681870D02*
Y64270D01*
X690559D01*
X690382Y65621D01*
X689370Y68063D01*
X687761Y70161D01*
X685663Y71770D01*
X683221Y72782D01*
X681870Y72959D01*
D02*
G37*
G36*
X631070D02*
Y64270D01*
X639759D01*
X639582Y65621D01*
X638570Y68063D01*
X636961Y70161D01*
X634863Y71770D01*
X632421Y72782D01*
X631070Y72959D01*
D02*
G37*
G36*
X792240Y73040D02*
X783470D01*
Y64270D01*
X792240D01*
Y73040D01*
D02*
G37*
G36*
X758070Y72959D02*
Y64270D01*
X766759D01*
X766582Y65621D01*
X765570Y68063D01*
X763961Y70161D01*
X761863Y71770D01*
X759421Y72782D01*
X758070Y72959D01*
D02*
G37*
G36*
X605670D02*
Y64270D01*
X614359D01*
X614182Y65621D01*
X613170Y68063D01*
X611561Y70161D01*
X609463Y71770D01*
X607021Y72782D01*
X605670Y72959D01*
D02*
G37*
G36*
X707270D02*
Y64270D01*
X715959D01*
X715782Y65621D01*
X714770Y68063D01*
X713161Y70161D01*
X711063Y71770D01*
X708621Y72782D01*
X707270Y72959D01*
D02*
G37*
G36*
X656470D02*
Y64270D01*
X665159D01*
X664982Y65621D01*
X663970Y68063D01*
X662361Y70161D01*
X660263Y71770D01*
X657821Y72782D01*
X656470Y72959D01*
D02*
G37*
G36*
X730130D02*
X728779Y72782D01*
X726337Y71770D01*
X724239Y70161D01*
X722630Y68063D01*
X721618Y65621D01*
X721441Y64270D01*
X730130D01*
Y72959D01*
D02*
G37*
G36*
X679330D02*
X677979Y72782D01*
X675537Y71770D01*
X673439Y70161D01*
X671830Y68063D01*
X670818Y65621D01*
X670641Y64270D01*
X679330D01*
Y72959D01*
D02*
G37*
G36*
X628530D02*
X627179Y72782D01*
X624737Y71770D01*
X622639Y70161D01*
X621030Y68063D01*
X620018Y65621D01*
X619841Y64270D01*
X628530D01*
Y72959D01*
D02*
G37*
G36*
X603130D02*
X601779Y72782D01*
X599337Y71770D01*
X597239Y70161D01*
X595630Y68063D01*
X594618Y65621D01*
X594441Y64270D01*
X603130D01*
Y72959D01*
D02*
G37*
G36*
X755530D02*
X754179Y72782D01*
X751737Y71770D01*
X749639Y70161D01*
X748030Y68063D01*
X747018Y65621D01*
X746841Y64270D01*
X755530D01*
Y72959D01*
D02*
G37*
G36*
X704730D02*
X703379Y72782D01*
X700937Y71770D01*
X698839Y70161D01*
X697230Y68063D01*
X696218Y65621D01*
X696041Y64270D01*
X704730D01*
Y72959D01*
D02*
G37*
G36*
X653930D02*
X652579Y72782D01*
X650137Y71770D01*
X648039Y70161D01*
X646430Y68063D01*
X645418Y65621D01*
X645241Y64270D01*
X653930D01*
Y72959D01*
D02*
G37*
G36*
X780930Y73040D02*
X772160D01*
Y64270D01*
X780930D01*
Y73040D01*
D02*
G37*
G36*
X766759Y61730D02*
X758070D01*
Y53041D01*
X759421Y53218D01*
X761863Y54230D01*
X763961Y55839D01*
X765570Y57937D01*
X766582Y60379D01*
X766759Y61730D01*
D02*
G37*
G36*
X741359D02*
X732670D01*
Y53041D01*
X734021Y53218D01*
X736463Y54230D01*
X738561Y55839D01*
X740170Y57937D01*
X741182Y60379D01*
X741359Y61730D01*
D02*
G37*
G36*
X715959D02*
X707270D01*
Y53041D01*
X708621Y53218D01*
X711063Y54230D01*
X713161Y55839D01*
X714770Y57937D01*
X715782Y60379D01*
X715959Y61730D01*
D02*
G37*
G36*
X690559D02*
X681870D01*
Y53041D01*
X683221Y53218D01*
X685663Y54230D01*
X687761Y55839D01*
X689370Y57937D01*
X690382Y60379D01*
X690559Y61730D01*
D02*
G37*
G36*
X665159D02*
X656470D01*
Y53041D01*
X657821Y53218D01*
X660263Y54230D01*
X662361Y55839D01*
X663970Y57937D01*
X664982Y60379D01*
X665159Y61730D01*
D02*
G37*
G36*
X639759D02*
X631070D01*
Y53041D01*
X632421Y53218D01*
X634863Y54230D01*
X636961Y55839D01*
X638570Y57937D01*
X639582Y60379D01*
X639759Y61730D01*
D02*
G37*
G36*
X614359D02*
X605670D01*
Y53041D01*
X607021Y53218D01*
X609463Y54230D01*
X611561Y55839D01*
X613170Y57937D01*
X614182Y60379D01*
X614359Y61730D01*
D02*
G37*
G36*
X755530D02*
X746841D01*
X747018Y60379D01*
X748030Y57937D01*
X749639Y55839D01*
X751737Y54230D01*
X754179Y53218D01*
X755530Y53041D01*
Y61730D01*
D02*
G37*
G36*
X730130D02*
X721441D01*
X721618Y60379D01*
X722630Y57937D01*
X724239Y55839D01*
X726337Y54230D01*
X728779Y53218D01*
X730130Y53041D01*
Y61730D01*
D02*
G37*
G36*
X704730D02*
X696041D01*
X696218Y60379D01*
X697230Y57937D01*
X698839Y55839D01*
X700937Y54230D01*
X703379Y53218D01*
X704730Y53041D01*
Y61730D01*
D02*
G37*
G36*
X679330D02*
X670641D01*
X670818Y60379D01*
X671830Y57937D01*
X673439Y55839D01*
X675537Y54230D01*
X677979Y53218D01*
X679330Y53041D01*
Y61730D01*
D02*
G37*
G36*
X653930D02*
X645241D01*
X645418Y60379D01*
X646430Y57937D01*
X648039Y55839D01*
X650137Y54230D01*
X652579Y53218D01*
X653930Y53041D01*
Y61730D01*
D02*
G37*
G36*
X628530D02*
X619841D01*
X620018Y60379D01*
X621030Y57937D01*
X622639Y55839D01*
X624737Y54230D01*
X627179Y53218D01*
X628530Y53041D01*
Y61730D01*
D02*
G37*
G36*
X603130D02*
X594441D01*
X594618Y60379D01*
X595630Y57937D01*
X597239Y55839D01*
X599337Y54230D01*
X601779Y53218D01*
X603130Y53041D01*
Y61730D01*
D02*
G37*
G36*
X792240D02*
X783470D01*
Y52960D01*
X792240D01*
Y61730D01*
D02*
G37*
G36*
X780930D02*
X772160D01*
Y52960D01*
X780930D01*
Y61730D01*
D02*
G37*
G36*
X402353Y57765D02*
X399825Y57262D01*
X397683Y55830D01*
X396251Y53688D01*
X395749Y51161D01*
X396251Y48633D01*
X397683Y46491D01*
X399825Y45059D01*
X402353Y44557D01*
X404880Y45059D01*
X407022Y46491D01*
X408454Y48633D01*
X408956Y51161D01*
X408454Y53688D01*
X407022Y55830D01*
X404880Y57262D01*
X402353Y57765D01*
D02*
G37*
G36*
X340400Y60974D02*
X338077Y60668D01*
X335913Y59771D01*
X334055Y58345D01*
X332629Y56487D01*
X331732Y54323D01*
X331426Y52000D01*
X331732Y49677D01*
X332629Y47513D01*
X334055Y45655D01*
X335913Y44229D01*
X338077Y43332D01*
X340400Y43026D01*
X342723Y43332D01*
X344887Y44229D01*
X346745Y45655D01*
X348172Y47513D01*
X349068Y49677D01*
X349374Y52000D01*
X349068Y54323D01*
X348172Y56487D01*
X346745Y58345D01*
X344887Y59771D01*
X342723Y60668D01*
X340400Y60974D01*
D02*
G37*
G36*
X428270Y37959D02*
Y29270D01*
X436959D01*
X436782Y30621D01*
X435770Y33063D01*
X434161Y35161D01*
X432063Y36770D01*
X429621Y37782D01*
X428270Y37959D01*
D02*
G37*
G36*
X425730D02*
X424379Y37782D01*
X421937Y36770D01*
X419839Y35161D01*
X418230Y33063D01*
X417218Y30621D01*
X417041Y29270D01*
X425730D01*
Y37959D01*
D02*
G37*
G36*
X493470Y36959D02*
Y28270D01*
X502159D01*
X501982Y29621D01*
X500970Y32063D01*
X499361Y34161D01*
X497263Y35770D01*
X494821Y36782D01*
X493470Y36959D01*
D02*
G37*
G36*
X490930Y36959D02*
X489579Y36782D01*
X487137Y35770D01*
X485039Y34161D01*
X483430Y32063D01*
X482418Y29621D01*
X482241Y28270D01*
X490930D01*
Y36959D01*
D02*
G37*
G36*
X681990Y36629D02*
Y27940D01*
X690679D01*
X690502Y29291D01*
X689490Y31733D01*
X687881Y33831D01*
X685783Y35440D01*
X683341Y36452D01*
X681990Y36629D01*
D02*
G37*
G36*
X631190D02*
Y27940D01*
X639879D01*
X639702Y29291D01*
X638690Y31733D01*
X637081Y33831D01*
X634983Y35440D01*
X632541Y36452D01*
X631190Y36629D01*
D02*
G37*
G36*
X792360Y36710D02*
X783590D01*
Y27940D01*
X792360D01*
Y36710D01*
D02*
G37*
G36*
X758190Y36629D02*
Y27940D01*
X766879D01*
X766702Y29291D01*
X765690Y31733D01*
X764081Y33831D01*
X761983Y35440D01*
X759541Y36452D01*
X758190Y36629D01*
D02*
G37*
G36*
X732790D02*
Y27940D01*
X741479D01*
X741302Y29291D01*
X740290Y31733D01*
X738681Y33831D01*
X736583Y35440D01*
X734141Y36452D01*
X732790Y36629D01*
D02*
G37*
G36*
X707390D02*
Y27940D01*
X716079D01*
X715902Y29291D01*
X714890Y31733D01*
X713281Y33831D01*
X711183Y35440D01*
X708741Y36452D01*
X707390Y36629D01*
D02*
G37*
G36*
X656590D02*
Y27940D01*
X665279D01*
X665102Y29291D01*
X664090Y31733D01*
X662481Y33831D01*
X660383Y35440D01*
X657941Y36452D01*
X656590Y36629D01*
D02*
G37*
G36*
X605790D02*
Y27940D01*
X614479D01*
X614302Y29291D01*
X613290Y31733D01*
X611681Y33831D01*
X609583Y35440D01*
X607141Y36452D01*
X605790Y36629D01*
D02*
G37*
G36*
X679450D02*
X678099Y36452D01*
X675657Y35440D01*
X673559Y33831D01*
X671950Y31733D01*
X670938Y29291D01*
X670761Y27940D01*
X679450D01*
Y36629D01*
D02*
G37*
G36*
X628650D02*
X627299Y36452D01*
X624857Y35440D01*
X622759Y33831D01*
X621150Y31733D01*
X620138Y29291D01*
X619961Y27940D01*
X628650D01*
Y36629D01*
D02*
G37*
G36*
X755650D02*
X754299Y36452D01*
X751857Y35440D01*
X749759Y33831D01*
X748150Y31733D01*
X747138Y29291D01*
X746961Y27940D01*
X755650D01*
Y36629D01*
D02*
G37*
G36*
X730250D02*
X728899Y36452D01*
X726457Y35440D01*
X724359Y33831D01*
X722750Y31733D01*
X721738Y29291D01*
X721561Y27940D01*
X730250D01*
Y36629D01*
D02*
G37*
G36*
X704850D02*
X703499Y36452D01*
X701057Y35440D01*
X698959Y33831D01*
X697350Y31733D01*
X696338Y29291D01*
X696161Y27940D01*
X704850D01*
Y36629D01*
D02*
G37*
G36*
X654050D02*
X652699Y36452D01*
X650257Y35440D01*
X648159Y33831D01*
X646550Y31733D01*
X645538Y29291D01*
X645361Y27940D01*
X654050D01*
Y36629D01*
D02*
G37*
G36*
X603250D02*
X601899Y36452D01*
X599457Y35440D01*
X597359Y33831D01*
X595750Y31733D01*
X594738Y29291D01*
X594561Y27940D01*
X603250D01*
Y36629D01*
D02*
G37*
G36*
X781050Y36710D02*
X772280D01*
Y27940D01*
X781050D01*
Y36710D01*
D02*
G37*
G36*
X401600Y36974D02*
X399277Y36668D01*
X397113Y35772D01*
X395255Y34345D01*
X393829Y32487D01*
X392932Y30323D01*
X392626Y28000D01*
X392932Y25677D01*
X393829Y23513D01*
X395255Y21655D01*
X397113Y20229D01*
X399277Y19332D01*
X401600Y19026D01*
X403923Y19332D01*
X406087Y20229D01*
X407945Y21655D01*
X409371Y23513D01*
X410268Y25677D01*
X410574Y28000D01*
X410268Y30323D01*
X409371Y32487D01*
X407945Y34345D01*
X406087Y35772D01*
X403923Y36668D01*
X401600Y36974D01*
D02*
G37*
G36*
X376200D02*
X373877Y36668D01*
X371713Y35772D01*
X369855Y34345D01*
X368428Y32487D01*
X367532Y30323D01*
X367226Y28000D01*
X367532Y25677D01*
X368428Y23513D01*
X369855Y21655D01*
X371713Y20229D01*
X373877Y19332D01*
X376200Y19026D01*
X378523Y19332D01*
X380687Y20229D01*
X382545Y21655D01*
X383971Y23513D01*
X384868Y25677D01*
X385174Y28000D01*
X384868Y30323D01*
X383971Y32487D01*
X382545Y34345D01*
X380687Y35772D01*
X378523Y36668D01*
X376200Y36974D01*
D02*
G37*
G36*
X577297Y35897D02*
X559503D01*
Y18103D01*
X577297D01*
Y35897D01*
D02*
G37*
G36*
X436959Y26730D02*
X428270D01*
Y18041D01*
X429621Y18218D01*
X432063Y19230D01*
X434161Y20839D01*
X435770Y22937D01*
X436782Y25379D01*
X436959Y26730D01*
D02*
G37*
G36*
X425730D02*
X417041D01*
X417218Y25379D01*
X418230Y22937D01*
X419839Y20839D01*
X421937Y19230D01*
X424379Y18218D01*
X425730Y18041D01*
Y26730D01*
D02*
G37*
G36*
X543000Y35974D02*
X540677Y35668D01*
X538513Y34771D01*
X536655Y33345D01*
X535229Y31487D01*
X534332Y29323D01*
X534026Y27000D01*
X534332Y24677D01*
X535229Y22513D01*
X536655Y20655D01*
X538513Y19229D01*
X540677Y18332D01*
X543000Y18026D01*
X545323Y18332D01*
X547487Y19229D01*
X549345Y20655D01*
X550771Y22513D01*
X551668Y24677D01*
X551974Y27000D01*
X551668Y29323D01*
X550771Y31487D01*
X549345Y33345D01*
X547487Y34771D01*
X545323Y35668D01*
X543000Y35974D01*
D02*
G37*
G36*
X490930Y25730D02*
X482241D01*
X482418Y24379D01*
X483430Y21937D01*
X485039Y19839D01*
X487137Y18230D01*
X489579Y17218D01*
X490930Y17041D01*
Y25730D01*
D02*
G37*
G36*
X502159D02*
X493470D01*
Y17041D01*
X494821Y17218D01*
X497263Y18230D01*
X499361Y19839D01*
X500970Y21937D01*
X501982Y24379D01*
X502159Y25730D01*
D02*
G37*
G36*
X766879Y25400D02*
X758190D01*
Y16711D01*
X759541Y16888D01*
X761983Y17900D01*
X764081Y19509D01*
X765690Y21607D01*
X766702Y24049D01*
X766879Y25400D01*
D02*
G37*
G36*
X741479D02*
X732790D01*
Y16711D01*
X734141Y16888D01*
X736583Y17900D01*
X738681Y19509D01*
X740290Y21607D01*
X741302Y24049D01*
X741479Y25400D01*
D02*
G37*
G36*
X716079D02*
X707390D01*
Y16711D01*
X708741Y16888D01*
X711183Y17900D01*
X713281Y19509D01*
X714890Y21607D01*
X715902Y24049D01*
X716079Y25400D01*
D02*
G37*
G36*
X690679D02*
X681990D01*
Y16711D01*
X683341Y16888D01*
X685783Y17900D01*
X687881Y19509D01*
X689490Y21607D01*
X690502Y24049D01*
X690679Y25400D01*
D02*
G37*
G36*
X665279D02*
X656590D01*
Y16711D01*
X657941Y16888D01*
X660383Y17900D01*
X662481Y19509D01*
X664090Y21607D01*
X665102Y24049D01*
X665279Y25400D01*
D02*
G37*
G36*
X639879D02*
X631190D01*
Y16711D01*
X632541Y16888D01*
X634983Y17900D01*
X637081Y19509D01*
X638690Y21607D01*
X639702Y24049D01*
X639879Y25400D01*
D02*
G37*
G36*
X614479D02*
X605790D01*
Y16711D01*
X607141Y16888D01*
X609583Y17900D01*
X611681Y19509D01*
X613290Y21607D01*
X614302Y24049D01*
X614479Y25400D01*
D02*
G37*
G36*
X755650D02*
X746961D01*
X747138Y24049D01*
X748150Y21607D01*
X749759Y19509D01*
X751857Y17900D01*
X754299Y16888D01*
X755650Y16711D01*
Y25400D01*
D02*
G37*
G36*
X730250D02*
X721561D01*
X721738Y24049D01*
X722750Y21607D01*
X724359Y19509D01*
X726457Y17900D01*
X728899Y16888D01*
X730250Y16711D01*
Y25400D01*
D02*
G37*
G36*
X704850D02*
X696161D01*
X696338Y24049D01*
X697350Y21607D01*
X698959Y19509D01*
X701057Y17900D01*
X703499Y16888D01*
X704850Y16711D01*
Y25400D01*
D02*
G37*
G36*
X679450D02*
X670761D01*
X670938Y24049D01*
X671950Y21607D01*
X673559Y19509D01*
X675657Y17900D01*
X678099Y16888D01*
X679450Y16711D01*
Y25400D01*
D02*
G37*
G36*
X654050D02*
X645361D01*
X645538Y24049D01*
X646550Y21607D01*
X648159Y19509D01*
X650257Y17900D01*
X652699Y16888D01*
X654050Y16711D01*
Y25400D01*
D02*
G37*
G36*
X628650D02*
X619961D01*
X620138Y24049D01*
X621150Y21607D01*
X622759Y19509D01*
X624857Y17900D01*
X627299Y16888D01*
X628650Y16711D01*
Y25400D01*
D02*
G37*
G36*
X603250D02*
X594561D01*
X594738Y24049D01*
X595750Y21607D01*
X597359Y19509D01*
X599457Y17900D01*
X601899Y16888D01*
X603250Y16711D01*
Y25400D01*
D02*
G37*
G36*
X792360D02*
X783590D01*
Y16630D01*
X792360D01*
Y25400D01*
D02*
G37*
G36*
X781050D02*
X772280D01*
Y16630D01*
X781050D01*
Y25400D01*
D02*
G37*
G36*
X558000Y205867D02*
X555473Y205364D01*
X553330Y203933D01*
X551899Y201790D01*
X551396Y199263D01*
X551899Y196736D01*
X552691Y195550D01*
Y124656D01*
X552691Y124656D01*
X553095Y122625D01*
X554246Y120902D01*
X579691Y95457D01*
Y16663D01*
X578337Y15309D01*
X536799D01*
X526403Y25705D01*
X526574Y27000D01*
X526268Y29323D01*
X525372Y31487D01*
X523945Y33345D01*
X522087Y34771D01*
X519923Y35668D01*
X517600Y35974D01*
X515277Y35668D01*
X513113Y34771D01*
X511255Y33345D01*
X509828Y31487D01*
X508932Y29323D01*
X508626Y27000D01*
X508932Y24677D01*
X509828Y22513D01*
X511255Y20655D01*
X513113Y19229D01*
X515277Y18332D01*
X517600Y18026D01*
X518895Y18197D01*
X530846Y6246D01*
X530846Y6246D01*
X532568Y5095D01*
X534600Y4691D01*
X580536D01*
X580536Y4691D01*
X582568Y5095D01*
X584290Y6246D01*
X588754Y10710D01*
X588754Y10710D01*
X589905Y12432D01*
X590309Y14464D01*
Y97656D01*
X590309Y97656D01*
X589905Y99688D01*
X588754Y101410D01*
X588754Y101410D01*
X563309Y126855D01*
Y195550D01*
X564101Y196736D01*
X564604Y199263D01*
X564101Y201790D01*
X562670Y203933D01*
X560527Y205364D01*
X558000Y205867D01*
D02*
G37*
G36*
X819000Y218657D02*
X815517Y218199D01*
X812271Y216854D01*
X809484Y214716D01*
X807346Y211929D01*
X806001Y208683D01*
X805543Y205200D01*
X806001Y201717D01*
X807346Y198471D01*
X809265Y195971D01*
Y189029D01*
X807346Y186529D01*
X806001Y183283D01*
X805543Y179800D01*
X806001Y176317D01*
X807346Y173071D01*
X809265Y170571D01*
Y163629D01*
X807346Y161129D01*
X806001Y157883D01*
X805543Y154400D01*
X806001Y150917D01*
X807346Y147671D01*
X809265Y145171D01*
Y138229D01*
X807346Y135729D01*
X806001Y132483D01*
X805543Y129000D01*
X806001Y125517D01*
X807346Y122271D01*
X809265Y119771D01*
Y112829D01*
X807346Y110329D01*
X806001Y107083D01*
X805543Y103600D01*
X806001Y100117D01*
X807346Y96871D01*
X809265Y94371D01*
Y87429D01*
X807346Y84929D01*
X806001Y81683D01*
X805543Y78200D01*
X806001Y74717D01*
X807346Y71471D01*
X809265Y68971D01*
Y62029D01*
X807346Y59529D01*
X806001Y56283D01*
X805543Y52800D01*
X806001Y49317D01*
X807346Y46071D01*
X809265Y43571D01*
Y40742D01*
X805658D01*
Y14058D01*
X832342D01*
Y40742D01*
X828735D01*
Y43571D01*
X830654Y46071D01*
X831999Y49317D01*
X832457Y52800D01*
X831999Y56283D01*
X830654Y59529D01*
X828735Y62029D01*
Y68971D01*
X830654Y71471D01*
X831999Y74717D01*
X832457Y78200D01*
X831999Y81683D01*
X830654Y84929D01*
X828735Y87429D01*
Y94371D01*
X830654Y96871D01*
X831999Y100117D01*
X832457Y103600D01*
X831999Y107083D01*
X830654Y110329D01*
X828735Y112829D01*
Y119771D01*
X830654Y122271D01*
X831999Y125517D01*
X832457Y129000D01*
X831999Y132483D01*
X830654Y135729D01*
X828735Y138229D01*
Y145171D01*
X830654Y147671D01*
X831999Y150917D01*
X832457Y154400D01*
X831999Y157883D01*
X830654Y161129D01*
X828735Y163629D01*
Y170571D01*
X830654Y173071D01*
X831999Y176317D01*
X832457Y179800D01*
X831999Y183283D01*
X830654Y186529D01*
X828735Y189029D01*
Y195971D01*
X830654Y198471D01*
X831999Y201717D01*
X832457Y205200D01*
X831999Y208683D01*
X830654Y211929D01*
X828516Y214716D01*
X825729Y216854D01*
X822483Y218199D01*
X819000Y218657D01*
D02*
G37*
G36*
X854000Y218457D02*
X850517Y217999D01*
X847271Y216654D01*
X844484Y214516D01*
X842346Y211729D01*
X841001Y208483D01*
X840543Y205000D01*
X841001Y201517D01*
X842346Y198271D01*
X844265Y195771D01*
Y188829D01*
X842346Y186329D01*
X841001Y183083D01*
X840543Y179600D01*
X841001Y176117D01*
X842346Y172871D01*
X844265Y170371D01*
Y163429D01*
X842346Y160929D01*
X841001Y157683D01*
X840543Y154200D01*
X841001Y150717D01*
X842346Y147471D01*
X844265Y144971D01*
Y138029D01*
X842346Y135529D01*
X841001Y132283D01*
X840543Y128800D01*
X841001Y125317D01*
X842346Y122071D01*
X844265Y119571D01*
Y112629D01*
X842346Y110129D01*
X841001Y106883D01*
X840543Y103400D01*
X841001Y99917D01*
X842346Y96671D01*
X844265Y94171D01*
Y87229D01*
X842346Y84729D01*
X841001Y81483D01*
X840543Y78000D01*
X841001Y74517D01*
X842346Y71271D01*
X844265Y68771D01*
Y61829D01*
X842346Y59329D01*
X841001Y56083D01*
X840543Y52600D01*
X841001Y49117D01*
X842346Y45871D01*
X844265Y43371D01*
Y40542D01*
X840658D01*
Y13858D01*
X867342D01*
Y40542D01*
X863735D01*
Y43371D01*
X865654Y45871D01*
X866999Y49117D01*
X867457Y52600D01*
X866999Y56083D01*
X865654Y59329D01*
X863735Y61829D01*
Y68771D01*
X865654Y71271D01*
X866999Y74517D01*
X867457Y78000D01*
X866999Y81483D01*
X865654Y84729D01*
X863735Y87229D01*
Y94171D01*
X865654Y96671D01*
X866999Y99917D01*
X867457Y103400D01*
X866999Y106883D01*
X865654Y110129D01*
X863735Y112629D01*
Y119571D01*
X865654Y122071D01*
X866999Y125317D01*
X867457Y128800D01*
X866999Y132283D01*
X865654Y135529D01*
X863735Y138029D01*
Y144971D01*
X865654Y147471D01*
X866999Y150717D01*
X867457Y154200D01*
X866999Y157683D01*
X865654Y160929D01*
X863735Y163429D01*
Y170371D01*
X865654Y172871D01*
X866999Y176117D01*
X867457Y179600D01*
X866999Y183083D01*
X865654Y186329D01*
X863735Y188829D01*
Y195771D01*
X865654Y198271D01*
X866999Y201517D01*
X867457Y205000D01*
X866999Y208483D01*
X865654Y211729D01*
X863516Y214516D01*
X860729Y216654D01*
X857483Y217999D01*
X854000Y218457D01*
D02*
G37*
G36*
X315000Y65457D02*
X311517Y64999D01*
X308271Y63654D01*
X305484Y61516D01*
X303346Y58729D01*
X302001Y55483D01*
X301543Y52000D01*
X302001Y48517D01*
X303346Y45271D01*
X305484Y42484D01*
X308271Y40346D01*
X309263Y39935D01*
Y38665D01*
X308271Y38254D01*
X305484Y36116D01*
X303346Y33329D01*
X302001Y30083D01*
X301543Y26600D01*
X302001Y23117D01*
X303346Y19871D01*
X305484Y17084D01*
X308271Y14946D01*
X311517Y13601D01*
X315000Y13143D01*
X318483Y13601D01*
X321729Y14946D01*
X324516Y17084D01*
X326654Y19871D01*
X327999Y23117D01*
X328457Y26600D01*
X327999Y30083D01*
X326654Y33329D01*
X324516Y36116D01*
X321729Y38254D01*
X320737Y38665D01*
Y39935D01*
X321729Y40346D01*
X324516Y42484D01*
X326654Y45271D01*
X327999Y48517D01*
X328457Y52000D01*
X327999Y55483D01*
X326654Y58729D01*
X324516Y61516D01*
X321729Y63654D01*
X318483Y64999D01*
X315000Y65457D01*
D02*
G37*
G36*
X340400Y238774D02*
X338077Y238468D01*
X335913Y237572D01*
X334055Y236145D01*
X332629Y234287D01*
X331732Y232123D01*
X331426Y229800D01*
X331732Y227477D01*
X332629Y225313D01*
X334055Y223455D01*
X335913Y222029D01*
X338077Y221132D01*
X340400Y220826D01*
X342723Y221132D01*
X344887Y222029D01*
X346745Y223455D01*
X347541Y224491D01*
X360001D01*
X363691Y220801D01*
Y48199D01*
X351091Y35599D01*
X344090D01*
X343577Y35497D01*
X331503D01*
Y17703D01*
X341789D01*
X352246Y7246D01*
X352246Y7246D01*
X353968Y6095D01*
X356000Y5691D01*
X356000Y5691D01*
X435400D01*
X435400Y5691D01*
X437432Y6095D01*
X439154Y7246D01*
X451011Y19103D01*
X461297D01*
Y36897D01*
X443503D01*
Y26611D01*
X433201Y16309D01*
X358199D01*
X350700Y23808D01*
X351186Y24981D01*
X353290D01*
X353290Y24981D01*
X355322Y25385D01*
X357044Y26536D01*
X372754Y42246D01*
X372754Y42246D01*
X373905Y43968D01*
X374309Y46000D01*
X374309Y46000D01*
Y223000D01*
X374309Y223000D01*
X373905Y225032D01*
X372754Y226754D01*
X372754Y226754D01*
X365954Y233554D01*
X364232Y234705D01*
X362200Y235109D01*
X362200Y235109D01*
X347541D01*
X346745Y236145D01*
X344887Y237572D01*
X342723Y238468D01*
X340400Y238774D01*
D02*
G37*
%LPD*%
D12*
X389183Y395227D02*
Y417122D01*
X476810Y504750D02*
X546615D01*
X389183Y417122D02*
X476810Y504750D01*
X369876Y375920D02*
X389183Y395227D01*
X363220Y375920D02*
X369876D01*
X542072Y248702D02*
X588010Y294640D01*
X542072Y230452D02*
X543304Y229220D01*
X542072Y230452D02*
Y248702D01*
X588010Y294640D02*
Y335280D01*
X609600Y356870D02*
Y477520D01*
X588010Y335280D02*
X609600Y356870D01*
X643237Y601372D02*
X675445Y633579D01*
X591212Y601372D02*
X643237D01*
X546615Y504750D02*
X578822Y536957D01*
Y588982D01*
X518160Y248920D02*
Y250190D01*
X510540Y257810D02*
X518160Y250190D01*
X510540Y257810D02*
Y327660D01*
X518160Y335280D01*
X556260D02*
X577850Y356870D01*
X518160Y335280D02*
X556260D01*
X501000Y351000D02*
X541000D01*
X500000Y350000D02*
X501000Y351000D01*
X340400Y382200D02*
X341600Y381000D01*
X358140D01*
X363220Y375920D01*
X675445Y633579D02*
Y644965D01*
X578822Y588982D02*
X591212Y601372D01*
X675445Y644965D02*
X699770Y669290D01*
X800000Y239000D02*
X810000Y249000D01*
X788000Y239000D02*
X800000D01*
X783000Y244000D02*
X788000Y239000D01*
X783000Y244000D02*
Y258000D01*
X810000Y249000D02*
Y291000D01*
X694000Y318000D02*
X783000D01*
X810000Y291000D01*
X303600Y458400D02*
X315000D01*
X292000Y470000D02*
X303600Y458400D01*
X292000Y470000D02*
Y523000D01*
X315000Y546000D01*
X836740Y258000D02*
X836930Y257810D01*
D21*
X405473Y305473D02*
X626000Y526000D01*
X380600Y280600D02*
X405473Y305473D01*
X558000Y124656D02*
Y199263D01*
X353290Y30290D02*
X369000Y46000D01*
Y223000D01*
X362200Y229800D02*
X369000Y223000D01*
X340400Y229800D02*
X362200D01*
X344090Y30290D02*
X353290D01*
X340400Y26600D02*
X344090Y30290D01*
X340400Y280600D02*
X380600D01*
X340400Y26600D02*
X356000Y11000D01*
X435400D01*
X452400Y28000D01*
X517600Y27000D02*
X534600Y10000D01*
X580536D02*
X585000Y14464D01*
X534600Y10000D02*
X580536D01*
X585000Y14464D02*
Y97656D01*
X558000Y124656D02*
X585000Y97656D01*
X819000Y179800D02*
Y205200D01*
Y154400D02*
Y179800D01*
Y129000D02*
Y154400D01*
Y103600D02*
Y129000D01*
Y78200D02*
Y103600D01*
Y52800D02*
Y78200D01*
Y27400D02*
Y52800D01*
X854000Y179600D02*
Y205000D01*
Y154200D02*
Y179600D01*
Y128800D02*
Y154200D01*
Y103400D02*
Y128800D01*
Y78000D02*
Y103400D01*
Y52600D02*
Y78000D01*
Y27200D02*
Y52600D01*
D22*
X730286Y564286D02*
X769620Y603620D01*
X760000Y661000D02*
X769620Y651380D01*
Y603620D02*
Y651380D01*
X744220Y562002D02*
X745661Y563443D01*
X609600Y477520D02*
X626110D01*
X660400Y443230D01*
X735330D01*
X593500Y528730D02*
Y586000D01*
X551180Y486410D02*
X593500Y528730D01*
X402620Y366674D02*
X522356Y486410D01*
X551180D01*
X744220Y452120D02*
Y562002D01*
X735330Y443230D02*
X744220Y452120D01*
X700124Y563124D02*
X701286Y564286D01*
X730286D01*
D23*
X402620Y255898D02*
Y260022D01*
X385000Y238278D02*
X402620Y255898D01*
X385000Y175114D02*
Y238278D01*
X402620Y153370D02*
Y157494D01*
X385000Y175114D02*
X402620Y157494D01*
D24*
X669500Y688000D02*
D03*
X376200Y28000D02*
D03*
X401600D02*
D03*
X427000D02*
D03*
X315000Y509200D02*
D03*
X340400D02*
D03*
X315000Y483800D02*
D03*
X340400D02*
D03*
X315000Y458400D02*
D03*
X340400D02*
D03*
X315000Y433000D02*
D03*
X340400D02*
D03*
X315000Y407600D02*
D03*
X340400D02*
D03*
X315000Y382200D02*
D03*
X340400D02*
D03*
X315000Y356800D02*
D03*
X340400D02*
D03*
X315000Y331400D02*
D03*
X340400D02*
D03*
X315000Y306000D02*
D03*
X340400D02*
D03*
X315000Y280600D02*
D03*
X340400D02*
D03*
X315000Y255200D02*
D03*
X340400D02*
D03*
X315000Y229800D02*
D03*
X340400D02*
D03*
X315000Y204400D02*
D03*
X340400D02*
D03*
X315000Y179000D02*
D03*
X340400D02*
D03*
X315000Y153600D02*
D03*
X340400D02*
D03*
X315000Y128200D02*
D03*
X340400D02*
D03*
X315000Y102800D02*
D03*
X340400D02*
D03*
X315000Y77400D02*
D03*
X340400D02*
D03*
X315000Y52000D02*
D03*
X340400D02*
D03*
X315000Y26600D02*
D03*
X593500Y586000D02*
D03*
X819000Y52800D02*
D03*
Y78200D02*
D03*
Y103600D02*
D03*
Y129000D02*
D03*
Y154400D02*
D03*
Y179800D02*
D03*
Y205200D02*
D03*
X507600Y90000D02*
D03*
X533000D02*
D03*
X543000Y27000D02*
D03*
X517600D02*
D03*
X492200D02*
D03*
X836930Y283210D02*
D03*
Y308610D02*
D03*
Y334010D02*
D03*
Y359410D02*
D03*
Y384810D02*
D03*
Y410210D02*
D03*
Y435610D02*
D03*
X835660Y638810D02*
D03*
Y613410D02*
D03*
Y588010D02*
D03*
Y562610D02*
D03*
Y537210D02*
D03*
Y511810D02*
D03*
Y486410D02*
D03*
X854000Y52600D02*
D03*
Y78000D02*
D03*
Y103400D02*
D03*
Y128800D02*
D03*
Y154200D02*
D03*
Y179600D02*
D03*
Y205000D02*
D03*
X604400Y63000D02*
D03*
X629800D02*
D03*
X655200D02*
D03*
X680600D02*
D03*
X706000D02*
D03*
X731400D02*
D03*
X756800D02*
D03*
X604520Y26670D02*
D03*
X629920D02*
D03*
X655320D02*
D03*
X680720D02*
D03*
X706120D02*
D03*
X731520D02*
D03*
X756920D02*
D03*
X783000Y258000D02*
D03*
D25*
X598500Y688000D02*
D03*
X452400Y28000D02*
D03*
X664500Y586000D02*
D03*
X558400Y90000D02*
D03*
X568400Y27000D02*
D03*
X782200Y63000D02*
D03*
X782320Y26670D02*
D03*
D26*
X649000Y192740D02*
D03*
Y114000D02*
D03*
Y406044D02*
D03*
Y327304D02*
D03*
Y512696D02*
D03*
Y433956D02*
D03*
Y619348D02*
D03*
Y540608D02*
D03*
Y726000D02*
D03*
Y647260D02*
D03*
Y220652D02*
D03*
Y299392D02*
D03*
D27*
X402620Y153370D02*
D03*
Y366674D02*
D03*
Y473326D02*
D03*
Y579978D02*
D03*
Y686630D02*
D03*
Y260022D02*
D03*
D28*
X340400Y26600D02*
D03*
X819000Y27400D02*
D03*
X836930Y257810D02*
D03*
X835660Y664210D02*
D03*
X854000Y27200D02*
D03*
X783000Y283400D02*
D03*
D29*
X403606Y334518D02*
D03*
X427990Y495300D02*
D03*
X412750Y406400D02*
D03*
D30*
X629666Y264160D02*
D03*
X439420Y204470D02*
D03*
X745661Y563443D02*
D03*
X662940Y462280D02*
D03*
X452120Y440690D02*
D03*
X361950Y303530D02*
D03*
X543741Y458289D02*
D03*
X543304Y229220D02*
D03*
X613000Y314000D02*
D03*
X760000Y661000D02*
D03*
X617220Y228600D02*
D03*
X558000Y199263D02*
D03*
X480060Y208280D02*
D03*
X609600Y477520D02*
D03*
X518160Y248920D02*
D03*
X577850Y356870D02*
D03*
X538000Y278000D02*
D03*
X541000Y351000D02*
D03*
X537000Y294000D02*
D03*
X562610Y375920D02*
D03*
X730250Y553720D02*
D03*
X373000Y390000D02*
D03*
X549000Y531000D02*
D03*
X699770Y669290D02*
D03*
X364490Y407670D02*
D03*
X744220Y671830D02*
D03*
X290830Y306070D02*
D03*
X402353Y51161D02*
D03*
X798869Y469884D02*
D03*
X364000Y254000D02*
D03*
X500000Y350000D02*
D03*
X489000Y416000D02*
D03*
X498000Y592000D02*
D03*
X514000Y661000D02*
D03*
X410000Y235000D02*
D03*
X624000Y177000D02*
D03*
X697000Y168000D02*
D03*
X542000Y177000D02*
D03*
X457000Y205000D02*
D03*
X626000Y526000D02*
D03*
X801000Y517000D02*
D03*
X702000Y611000D02*
D03*
X700124Y563124D02*
D03*
X732000Y705840D02*
D03*
X729000Y686000D02*
D03*
D31*
X754380Y638810D02*
D03*
X713287Y541000D02*
D03*
Y521000D02*
D03*
X712000Y460000D02*
D03*
X713287Y500000D02*
D03*
X711779Y479969D02*
D03*
X694000Y318000D02*
D03*
X315000Y546000D02*
D03*
X804000Y663000D02*
D03*
Y639000D02*
D03*
Y612000D02*
D03*
Y587000D02*
D03*
M02*
