G04*
G04 #@! TF.GenerationSoftware,Altium Limited,Altium Designer,20.2.8 (258)*
G04*
G04 Layer_Physical_Order=2*
G04 Layer_Color=16711680*
%FSLAX24Y24*%
%MOIN*%
G70*
G04*
G04 #@! TF.SameCoordinates,2D8D9C66-5576-4C64-8BDA-EEC9A906AE53*
G04*
G04*
G04 #@! TF.FilePolarity,Positive*
G04*
G01*
G75*
%ADD63C,0.0350*%
%ADD64C,0.0150*%
%ADD65C,0.0200*%
%ADD69C,0.0700*%
%ADD70C,0.1000*%
%ADD71C,0.0470*%
%ADD72C,0.0591*%
%ADD73R,0.0591X0.0591*%
%ADD74R,0.0591X0.0591*%
%ADD75C,0.2441*%
%ADD76C,0.0300*%
%ADD77C,0.0800*%
G36*
X39948Y102D02*
X102D01*
Y39898D01*
X39948D01*
Y102D01*
D02*
G37*
%LPC*%
G36*
X27345Y39297D02*
X27100D01*
Y38950D01*
X27447D01*
Y39195D01*
X27439Y39234D01*
X27417Y39267D01*
X27384Y39289D01*
X27345Y39297D01*
D02*
G37*
G36*
X22100Y39292D02*
Y38950D01*
X22442D01*
X22435Y39003D01*
X22395Y39099D01*
X22332Y39182D01*
X22249Y39245D01*
X22153Y39285D01*
X22100Y39292D01*
D02*
G37*
G36*
X9100D02*
Y38950D01*
X9442D01*
X9435Y39003D01*
X9395Y39099D01*
X9332Y39182D01*
X9249Y39245D01*
X9153Y39285D01*
X9100Y39292D01*
D02*
G37*
G36*
X6100D02*
Y38950D01*
X6442D01*
X6435Y39003D01*
X6395Y39099D01*
X6332Y39182D01*
X6249Y39245D01*
X6153Y39285D01*
X6100Y39292D01*
D02*
G37*
G36*
X4100D02*
Y38950D01*
X4442D01*
X4435Y39003D01*
X4395Y39099D01*
X4332Y39182D01*
X4249Y39245D01*
X4153Y39285D01*
X4100Y39292D01*
D02*
G37*
G36*
X26100D02*
Y38950D01*
X26442D01*
X26435Y39003D01*
X26395Y39099D01*
X26332Y39182D01*
X26249Y39245D01*
X26153Y39285D01*
X26100Y39292D01*
D02*
G37*
G36*
X25100D02*
Y38950D01*
X25442D01*
X25435Y39003D01*
X25395Y39099D01*
X25332Y39182D01*
X25249Y39245D01*
X25153Y39285D01*
X25100Y39292D01*
D02*
G37*
G36*
X24100D02*
Y38950D01*
X24442D01*
X24435Y39003D01*
X24395Y39099D01*
X24332Y39182D01*
X24249Y39245D01*
X24153Y39285D01*
X24100Y39292D01*
D02*
G37*
G36*
X21100D02*
Y38950D01*
X21442D01*
X21435Y39003D01*
X21395Y39099D01*
X21332Y39182D01*
X21249Y39245D01*
X21153Y39285D01*
X21100Y39292D01*
D02*
G37*
G36*
X20100D02*
Y38950D01*
X20442D01*
X20435Y39003D01*
X20395Y39099D01*
X20332Y39182D01*
X20249Y39245D01*
X20153Y39285D01*
X20100Y39292D01*
D02*
G37*
G36*
X11345Y39297D02*
X11100D01*
Y38950D01*
X11447D01*
Y39195D01*
X11439Y39234D01*
X11417Y39267D01*
X11384Y39289D01*
X11345Y39297D01*
D02*
G37*
G36*
X8100Y39292D02*
Y38950D01*
X8442D01*
X8435Y39003D01*
X8395Y39099D01*
X8332Y39182D01*
X8249Y39245D01*
X8153Y39285D01*
X8100Y39292D01*
D02*
G37*
G36*
X7100D02*
Y38950D01*
X7442D01*
X7435Y39003D01*
X7395Y39099D01*
X7332Y39182D01*
X7249Y39245D01*
X7153Y39285D01*
X7100Y39292D01*
D02*
G37*
G36*
X23100D02*
Y38950D01*
X23442D01*
X23435Y39003D01*
X23395Y39099D01*
X23332Y39182D01*
X23249Y39245D01*
X23153Y39285D01*
X23100Y39292D01*
D02*
G37*
G36*
X10100D02*
Y38950D01*
X10442D01*
X10435Y39003D01*
X10395Y39099D01*
X10332Y39182D01*
X10249Y39245D01*
X10153Y39285D01*
X10100Y39292D01*
D02*
G37*
G36*
X5100D02*
Y38950D01*
X5442D01*
X5435Y39003D01*
X5395Y39099D01*
X5332Y39182D01*
X5249Y39245D01*
X5153Y39285D01*
X5100Y39292D01*
D02*
G37*
G36*
X22000D02*
X21947Y39285D01*
X21851Y39245D01*
X21768Y39182D01*
X21705Y39099D01*
X21665Y39003D01*
X21658Y38950D01*
X22000D01*
Y39292D01*
D02*
G37*
G36*
X9000D02*
X8947Y39285D01*
X8851Y39245D01*
X8768Y39182D01*
X8705Y39099D01*
X8665Y39003D01*
X8658Y38950D01*
X9000D01*
Y39292D01*
D02*
G37*
G36*
X4000D02*
X3947Y39285D01*
X3851Y39245D01*
X3768Y39182D01*
X3705Y39099D01*
X3665Y39003D01*
X3658Y38950D01*
X4000D01*
Y39292D01*
D02*
G37*
G36*
X24000D02*
X23947Y39285D01*
X23851Y39245D01*
X23768Y39182D01*
X23705Y39099D01*
X23665Y39003D01*
X23658Y38950D01*
X24000D01*
Y39292D01*
D02*
G37*
G36*
X20000D02*
X19947Y39285D01*
X19851Y39245D01*
X19768Y39182D01*
X19705Y39099D01*
X19665Y39003D01*
X19658Y38950D01*
X20000D01*
Y39292D01*
D02*
G37*
G36*
X7000D02*
X6947Y39285D01*
X6851Y39245D01*
X6768Y39182D01*
X6705Y39099D01*
X6665Y39003D01*
X6658Y38950D01*
X7000D01*
Y39292D01*
D02*
G37*
G36*
X6000D02*
X5947Y39285D01*
X5851Y39245D01*
X5768Y39182D01*
X5705Y39099D01*
X5665Y39003D01*
X5658Y38950D01*
X6000D01*
Y39292D01*
D02*
G37*
G36*
X26000D02*
X25947Y39285D01*
X25851Y39245D01*
X25768Y39182D01*
X25705Y39099D01*
X25665Y39003D01*
X25658Y38950D01*
X26000D01*
Y39292D01*
D02*
G37*
G36*
X25000D02*
X24947Y39285D01*
X24851Y39245D01*
X24768Y39182D01*
X24705Y39099D01*
X24665Y39003D01*
X24658Y38950D01*
X25000D01*
Y39292D01*
D02*
G37*
G36*
X21000D02*
X20947Y39285D01*
X20851Y39245D01*
X20768Y39182D01*
X20705Y39099D01*
X20665Y39003D01*
X20658Y38950D01*
X21000D01*
Y39292D01*
D02*
G37*
G36*
X8000D02*
X7947Y39285D01*
X7851Y39245D01*
X7768Y39182D01*
X7705Y39099D01*
X7665Y39003D01*
X7658Y38950D01*
X8000D01*
Y39292D01*
D02*
G37*
G36*
X23000D02*
X22947Y39285D01*
X22851Y39245D01*
X22768Y39182D01*
X22705Y39099D01*
X22665Y39003D01*
X22658Y38950D01*
X23000D01*
Y39292D01*
D02*
G37*
G36*
X10000D02*
X9947Y39285D01*
X9851Y39245D01*
X9768Y39182D01*
X9705Y39099D01*
X9665Y39003D01*
X9658Y38950D01*
X10000D01*
Y39292D01*
D02*
G37*
G36*
X5000D02*
X4947Y39285D01*
X4851Y39245D01*
X4768Y39182D01*
X4705Y39099D01*
X4665Y39003D01*
X4658Y38950D01*
X5000D01*
Y39292D01*
D02*
G37*
G36*
X27000Y39297D02*
X26755D01*
X26716Y39289D01*
X26683Y39267D01*
X26661Y39234D01*
X26653Y39195D01*
Y38950D01*
X27000D01*
Y39297D01*
D02*
G37*
G36*
X11000D02*
X10755D01*
X10716Y39289D01*
X10683Y39267D01*
X10661Y39234D01*
X10653Y39195D01*
Y38950D01*
X11000D01*
Y39297D01*
D02*
G37*
G36*
X26442Y38850D02*
X26100D01*
Y38508D01*
X26153Y38515D01*
X26249Y38555D01*
X26332Y38618D01*
X26395Y38701D01*
X26435Y38797D01*
X26442Y38850D01*
D02*
G37*
G36*
X25442D02*
X25100D01*
Y38508D01*
X25153Y38515D01*
X25249Y38555D01*
X25332Y38618D01*
X25395Y38701D01*
X25435Y38797D01*
X25442Y38850D01*
D02*
G37*
G36*
X24442D02*
X24100D01*
Y38508D01*
X24153Y38515D01*
X24249Y38555D01*
X24332Y38618D01*
X24395Y38701D01*
X24435Y38797D01*
X24442Y38850D01*
D02*
G37*
G36*
X23442D02*
X23100D01*
Y38508D01*
X23153Y38515D01*
X23249Y38555D01*
X23332Y38618D01*
X23395Y38701D01*
X23435Y38797D01*
X23442Y38850D01*
D02*
G37*
G36*
X22442D02*
X22100D01*
Y38508D01*
X22153Y38515D01*
X22249Y38555D01*
X22332Y38618D01*
X22395Y38701D01*
X22435Y38797D01*
X22442Y38850D01*
D02*
G37*
G36*
X21442D02*
X21100D01*
Y38508D01*
X21153Y38515D01*
X21249Y38555D01*
X21332Y38618D01*
X21395Y38701D01*
X21435Y38797D01*
X21442Y38850D01*
D02*
G37*
G36*
X20442D02*
X20100D01*
Y38508D01*
X20153Y38515D01*
X20249Y38555D01*
X20332Y38618D01*
X20395Y38701D01*
X20435Y38797D01*
X20442Y38850D01*
D02*
G37*
G36*
X10442D02*
X10100D01*
Y38508D01*
X10153Y38515D01*
X10249Y38555D01*
X10332Y38618D01*
X10395Y38701D01*
X10435Y38797D01*
X10442Y38850D01*
D02*
G37*
G36*
X9442D02*
X9100D01*
Y38508D01*
X9153Y38515D01*
X9249Y38555D01*
X9332Y38618D01*
X9395Y38701D01*
X9435Y38797D01*
X9442Y38850D01*
D02*
G37*
G36*
X8442D02*
X8100D01*
Y38508D01*
X8153Y38515D01*
X8249Y38555D01*
X8332Y38618D01*
X8395Y38701D01*
X8435Y38797D01*
X8442Y38850D01*
D02*
G37*
G36*
X7442D02*
X7100D01*
Y38508D01*
X7153Y38515D01*
X7249Y38555D01*
X7332Y38618D01*
X7395Y38701D01*
X7435Y38797D01*
X7442Y38850D01*
D02*
G37*
G36*
X6442D02*
X6100D01*
Y38508D01*
X6153Y38515D01*
X6249Y38555D01*
X6332Y38618D01*
X6395Y38701D01*
X6435Y38797D01*
X6442Y38850D01*
D02*
G37*
G36*
X5442D02*
X5100D01*
Y38508D01*
X5153Y38515D01*
X5249Y38555D01*
X5332Y38618D01*
X5395Y38701D01*
X5435Y38797D01*
X5442Y38850D01*
D02*
G37*
G36*
X4442D02*
X4100D01*
Y38508D01*
X4153Y38515D01*
X4249Y38555D01*
X4332Y38618D01*
X4395Y38701D01*
X4435Y38797D01*
X4442Y38850D01*
D02*
G37*
G36*
X26000D02*
X25658D01*
X25665Y38797D01*
X25705Y38701D01*
X25768Y38618D01*
X25851Y38555D01*
X25947Y38515D01*
X26000Y38508D01*
Y38850D01*
D02*
G37*
G36*
X25000D02*
X24658D01*
X24665Y38797D01*
X24705Y38701D01*
X24768Y38618D01*
X24851Y38555D01*
X24947Y38515D01*
X25000Y38508D01*
Y38850D01*
D02*
G37*
G36*
X24000D02*
X23658D01*
X23665Y38797D01*
X23705Y38701D01*
X23768Y38618D01*
X23851Y38555D01*
X23947Y38515D01*
X24000Y38508D01*
Y38850D01*
D02*
G37*
G36*
X23000D02*
X22658D01*
X22665Y38797D01*
X22705Y38701D01*
X22768Y38618D01*
X22851Y38555D01*
X22947Y38515D01*
X23000Y38508D01*
Y38850D01*
D02*
G37*
G36*
X22000D02*
X21658D01*
X21665Y38797D01*
X21705Y38701D01*
X21768Y38618D01*
X21851Y38555D01*
X21947Y38515D01*
X22000Y38508D01*
Y38850D01*
D02*
G37*
G36*
X21000D02*
X20658D01*
X20665Y38797D01*
X20705Y38701D01*
X20768Y38618D01*
X20851Y38555D01*
X20947Y38515D01*
X21000Y38508D01*
Y38850D01*
D02*
G37*
G36*
X20000D02*
X19658D01*
X19665Y38797D01*
X19705Y38701D01*
X19768Y38618D01*
X19851Y38555D01*
X19947Y38515D01*
X20000Y38508D01*
Y38850D01*
D02*
G37*
G36*
X10000D02*
X9658D01*
X9665Y38797D01*
X9705Y38701D01*
X9768Y38618D01*
X9851Y38555D01*
X9947Y38515D01*
X10000Y38508D01*
Y38850D01*
D02*
G37*
G36*
X9000D02*
X8658D01*
X8665Y38797D01*
X8705Y38701D01*
X8768Y38618D01*
X8851Y38555D01*
X8947Y38515D01*
X9000Y38508D01*
Y38850D01*
D02*
G37*
G36*
X8000D02*
X7658D01*
X7665Y38797D01*
X7705Y38701D01*
X7768Y38618D01*
X7851Y38555D01*
X7947Y38515D01*
X8000Y38508D01*
Y38850D01*
D02*
G37*
G36*
X7000D02*
X6658D01*
X6665Y38797D01*
X6705Y38701D01*
X6768Y38618D01*
X6851Y38555D01*
X6947Y38515D01*
X7000Y38508D01*
Y38850D01*
D02*
G37*
G36*
X6000D02*
X5658D01*
X5665Y38797D01*
X5705Y38701D01*
X5768Y38618D01*
X5851Y38555D01*
X5947Y38515D01*
X6000Y38508D01*
Y38850D01*
D02*
G37*
G36*
X5000D02*
X4658D01*
X4665Y38797D01*
X4705Y38701D01*
X4768Y38618D01*
X4851Y38555D01*
X4947Y38515D01*
X5000Y38508D01*
Y38850D01*
D02*
G37*
G36*
X4000D02*
X3658D01*
X3665Y38797D01*
X3705Y38701D01*
X3768Y38618D01*
X3851Y38555D01*
X3947Y38515D01*
X4000Y38508D01*
Y38850D01*
D02*
G37*
G36*
X27447D02*
X27100D01*
Y38503D01*
X27345D01*
X27384Y38511D01*
X27417Y38533D01*
X27439Y38566D01*
X27447Y38605D01*
Y38850D01*
D02*
G37*
G36*
X27000D02*
X26653D01*
Y38605D01*
X26661Y38566D01*
X26683Y38533D01*
X26716Y38511D01*
X26755Y38503D01*
X27000D01*
Y38850D01*
D02*
G37*
G36*
X11447D02*
X11100D01*
Y38503D01*
X11345D01*
X11384Y38511D01*
X11417Y38533D01*
X11439Y38566D01*
X11447Y38605D01*
Y38850D01*
D02*
G37*
G36*
X11000D02*
X10653D01*
Y38605D01*
X10661Y38566D01*
X10683Y38533D01*
X10716Y38511D01*
X10755Y38503D01*
X11000D01*
Y38850D01*
D02*
G37*
G36*
X27345Y38297D02*
X26755D01*
X26716Y38289D01*
X26683Y38267D01*
X26661Y38234D01*
X26653Y38195D01*
Y37605D01*
X26661Y37566D01*
X26683Y37533D01*
X26716Y37511D01*
X26755Y37503D01*
X27345D01*
X27384Y37511D01*
X27417Y37533D01*
X27439Y37566D01*
X27447Y37605D01*
Y38195D01*
X27439Y38234D01*
X27417Y38267D01*
X27384Y38289D01*
X27345Y38297D01*
D02*
G37*
G36*
X26050Y38299D02*
X25947Y38285D01*
X25851Y38245D01*
X25768Y38182D01*
X25705Y38099D01*
X25665Y38003D01*
X25651Y37900D01*
X25665Y37797D01*
X25705Y37701D01*
X25768Y37618D01*
X25851Y37555D01*
X25947Y37515D01*
X26050Y37501D01*
X26153Y37515D01*
X26249Y37555D01*
X26332Y37618D01*
X26395Y37701D01*
X26435Y37797D01*
X26449Y37900D01*
X26435Y38003D01*
X26395Y38099D01*
X26332Y38182D01*
X26249Y38245D01*
X26153Y38285D01*
X26050Y38299D01*
D02*
G37*
G36*
X25050D02*
X24947Y38285D01*
X24851Y38245D01*
X24768Y38182D01*
X24705Y38099D01*
X24665Y38003D01*
X24651Y37900D01*
X24665Y37797D01*
X24705Y37701D01*
X24768Y37618D01*
X24851Y37555D01*
X24947Y37515D01*
X25050Y37501D01*
X25153Y37515D01*
X25249Y37555D01*
X25332Y37618D01*
X25395Y37701D01*
X25435Y37797D01*
X25449Y37900D01*
X25435Y38003D01*
X25395Y38099D01*
X25332Y38182D01*
X25249Y38245D01*
X25153Y38285D01*
X25050Y38299D01*
D02*
G37*
G36*
X24050D02*
X23947Y38285D01*
X23851Y38245D01*
X23768Y38182D01*
X23705Y38099D01*
X23665Y38003D01*
X23651Y37900D01*
X23665Y37797D01*
X23705Y37701D01*
X23768Y37618D01*
X23851Y37555D01*
X23947Y37515D01*
X24050Y37501D01*
X24153Y37515D01*
X24249Y37555D01*
X24332Y37618D01*
X24395Y37701D01*
X24435Y37797D01*
X24449Y37900D01*
X24435Y38003D01*
X24395Y38099D01*
X24332Y38182D01*
X24249Y38245D01*
X24153Y38285D01*
X24050Y38299D01*
D02*
G37*
G36*
X23050D02*
X22947Y38285D01*
X22851Y38245D01*
X22768Y38182D01*
X22705Y38099D01*
X22665Y38003D01*
X22651Y37900D01*
X22665Y37797D01*
X22705Y37701D01*
X22768Y37618D01*
X22851Y37555D01*
X22947Y37515D01*
X23050Y37501D01*
X23153Y37515D01*
X23249Y37555D01*
X23332Y37618D01*
X23395Y37701D01*
X23435Y37797D01*
X23449Y37900D01*
X23435Y38003D01*
X23395Y38099D01*
X23332Y38182D01*
X23249Y38245D01*
X23153Y38285D01*
X23050Y38299D01*
D02*
G37*
G36*
X22050D02*
X21947Y38285D01*
X21851Y38245D01*
X21768Y38182D01*
X21705Y38099D01*
X21665Y38003D01*
X21651Y37900D01*
X21665Y37797D01*
X21705Y37701D01*
X21768Y37618D01*
X21851Y37555D01*
X21947Y37515D01*
X22050Y37501D01*
X22153Y37515D01*
X22249Y37555D01*
X22332Y37618D01*
X22395Y37701D01*
X22435Y37797D01*
X22449Y37900D01*
X22435Y38003D01*
X22395Y38099D01*
X22332Y38182D01*
X22249Y38245D01*
X22153Y38285D01*
X22050Y38299D01*
D02*
G37*
G36*
X21050D02*
X20947Y38285D01*
X20851Y38245D01*
X20768Y38182D01*
X20705Y38099D01*
X20665Y38003D01*
X20651Y37900D01*
X20665Y37797D01*
X20705Y37701D01*
X20768Y37618D01*
X20851Y37555D01*
X20947Y37515D01*
X21050Y37501D01*
X21153Y37515D01*
X21249Y37555D01*
X21332Y37618D01*
X21395Y37701D01*
X21435Y37797D01*
X21449Y37900D01*
X21435Y38003D01*
X21395Y38099D01*
X21332Y38182D01*
X21249Y38245D01*
X21153Y38285D01*
X21050Y38299D01*
D02*
G37*
G36*
X26050Y37299D02*
X25947Y37285D01*
X25851Y37245D01*
X25768Y37182D01*
X25705Y37099D01*
X25665Y37003D01*
X25651Y36900D01*
X25665Y36797D01*
X25705Y36701D01*
X25768Y36618D01*
X25851Y36555D01*
X25947Y36515D01*
X26050Y36501D01*
X26153Y36515D01*
X26249Y36555D01*
X26332Y36618D01*
X26395Y36701D01*
X26435Y36797D01*
X26449Y36900D01*
X26435Y37003D01*
X26395Y37099D01*
X26332Y37182D01*
X26249Y37245D01*
X26153Y37285D01*
X26050Y37299D01*
D02*
G37*
G36*
X25050D02*
X24947Y37285D01*
X24851Y37245D01*
X24768Y37182D01*
X24705Y37099D01*
X24665Y37003D01*
X24651Y36900D01*
X24665Y36797D01*
X24705Y36701D01*
X24768Y36618D01*
X24851Y36555D01*
X24947Y36515D01*
X25050Y36501D01*
X25153Y36515D01*
X25249Y36555D01*
X25332Y36618D01*
X25395Y36701D01*
X25435Y36797D01*
X25449Y36900D01*
X25435Y37003D01*
X25395Y37099D01*
X25332Y37182D01*
X25249Y37245D01*
X25153Y37285D01*
X25050Y37299D01*
D02*
G37*
G36*
X24050D02*
X23947Y37285D01*
X23851Y37245D01*
X23768Y37182D01*
X23705Y37099D01*
X23665Y37003D01*
X23651Y36900D01*
X23665Y36797D01*
X23705Y36701D01*
X23768Y36618D01*
X23851Y36555D01*
X23947Y36515D01*
X24050Y36501D01*
X24153Y36515D01*
X24249Y36555D01*
X24332Y36618D01*
X24395Y36701D01*
X24435Y36797D01*
X24449Y36900D01*
X24435Y37003D01*
X24395Y37099D01*
X24332Y37182D01*
X24249Y37245D01*
X24153Y37285D01*
X24050Y37299D01*
D02*
G37*
G36*
X23050D02*
X22947Y37285D01*
X22851Y37245D01*
X22768Y37182D01*
X22705Y37099D01*
X22665Y37003D01*
X22651Y36900D01*
X22665Y36797D01*
X22705Y36701D01*
X22768Y36618D01*
X22851Y36555D01*
X22947Y36515D01*
X23050Y36501D01*
X23153Y36515D01*
X23249Y36555D01*
X23332Y36618D01*
X23395Y36701D01*
X23435Y36797D01*
X23449Y36900D01*
X23435Y37003D01*
X23395Y37099D01*
X23332Y37182D01*
X23249Y37245D01*
X23153Y37285D01*
X23050Y37299D01*
D02*
G37*
G36*
X22050D02*
X21947Y37285D01*
X21851Y37245D01*
X21768Y37182D01*
X21705Y37099D01*
X21665Y37003D01*
X21651Y36900D01*
X21665Y36797D01*
X21705Y36701D01*
X21768Y36618D01*
X21851Y36555D01*
X21947Y36515D01*
X22050Y36501D01*
X22153Y36515D01*
X22249Y36555D01*
X22332Y36618D01*
X22395Y36701D01*
X22435Y36797D01*
X22449Y36900D01*
X22435Y37003D01*
X22395Y37099D01*
X22332Y37182D01*
X22249Y37245D01*
X22153Y37285D01*
X22050Y37299D01*
D02*
G37*
G36*
X21050D02*
X20947Y37285D01*
X20851Y37245D01*
X20768Y37182D01*
X20705Y37099D01*
X20665Y37003D01*
X20651Y36900D01*
X20665Y36797D01*
X20705Y36701D01*
X20768Y36618D01*
X20851Y36555D01*
X20947Y36515D01*
X21050Y36501D01*
X21153Y36515D01*
X21249Y36555D01*
X21332Y36618D01*
X21395Y36701D01*
X21435Y36797D01*
X21449Y36900D01*
X21435Y37003D01*
X21395Y37099D01*
X21332Y37182D01*
X21249Y37245D01*
X21153Y37285D01*
X21050Y37299D01*
D02*
G37*
G36*
X20050D02*
X19947Y37285D01*
X19851Y37245D01*
X19768Y37182D01*
X19705Y37099D01*
X19665Y37003D01*
X19651Y36900D01*
X19665Y36797D01*
X19705Y36701D01*
X19768Y36618D01*
X19851Y36555D01*
X19947Y36515D01*
X20050Y36501D01*
X20153Y36515D01*
X20249Y36555D01*
X20332Y36618D01*
X20395Y36701D01*
X20435Y36797D01*
X20449Y36900D01*
X20435Y37003D01*
X20395Y37099D01*
X20332Y37182D01*
X20249Y37245D01*
X20153Y37285D01*
X20050Y37299D01*
D02*
G37*
G36*
X9050D02*
X8947Y37285D01*
X8851Y37245D01*
X8768Y37182D01*
X8705Y37099D01*
X8665Y37003D01*
X8651Y36900D01*
X8665Y36797D01*
X8705Y36701D01*
X8768Y36618D01*
X8851Y36555D01*
X8947Y36515D01*
X9050Y36501D01*
X9153Y36515D01*
X9249Y36555D01*
X9332Y36618D01*
X9395Y36701D01*
X9435Y36797D01*
X9449Y36900D01*
X9435Y37003D01*
X9395Y37099D01*
X9332Y37182D01*
X9249Y37245D01*
X9153Y37285D01*
X9050Y37299D01*
D02*
G37*
G36*
X8050D02*
X7947Y37285D01*
X7851Y37245D01*
X7768Y37182D01*
X7705Y37099D01*
X7665Y37003D01*
X7651Y36900D01*
X7665Y36797D01*
X7705Y36701D01*
X7768Y36618D01*
X7851Y36555D01*
X7947Y36515D01*
X8050Y36501D01*
X8153Y36515D01*
X8249Y36555D01*
X8332Y36618D01*
X8395Y36701D01*
X8435Y36797D01*
X8449Y36900D01*
X8435Y37003D01*
X8395Y37099D01*
X8332Y37182D01*
X8249Y37245D01*
X8153Y37285D01*
X8050Y37299D01*
D02*
G37*
G36*
X7050D02*
X6947Y37285D01*
X6851Y37245D01*
X6768Y37182D01*
X6705Y37099D01*
X6665Y37003D01*
X6651Y36900D01*
X6665Y36797D01*
X6705Y36701D01*
X6768Y36618D01*
X6851Y36555D01*
X6947Y36515D01*
X7050Y36501D01*
X7153Y36515D01*
X7249Y36555D01*
X7332Y36618D01*
X7395Y36701D01*
X7435Y36797D01*
X7449Y36900D01*
X7435Y37003D01*
X7395Y37099D01*
X7332Y37182D01*
X7249Y37245D01*
X7153Y37285D01*
X7050Y37299D01*
D02*
G37*
G36*
X6050D02*
X5947Y37285D01*
X5851Y37245D01*
X5768Y37182D01*
X5705Y37099D01*
X5665Y37003D01*
X5651Y36900D01*
X5665Y36797D01*
X5705Y36701D01*
X5768Y36618D01*
X5851Y36555D01*
X5947Y36515D01*
X6050Y36501D01*
X6153Y36515D01*
X6249Y36555D01*
X6332Y36618D01*
X6395Y36701D01*
X6435Y36797D01*
X6449Y36900D01*
X6435Y37003D01*
X6395Y37099D01*
X6332Y37182D01*
X6249Y37245D01*
X6153Y37285D01*
X6050Y37299D01*
D02*
G37*
G36*
X5050D02*
X4947Y37285D01*
X4851Y37245D01*
X4768Y37182D01*
X4705Y37099D01*
X4665Y37003D01*
X4651Y36900D01*
X4665Y36797D01*
X4705Y36701D01*
X4768Y36618D01*
X4851Y36555D01*
X4947Y36515D01*
X5050Y36501D01*
X5153Y36515D01*
X5249Y36555D01*
X5332Y36618D01*
X5395Y36701D01*
X5435Y36797D01*
X5449Y36900D01*
X5435Y37003D01*
X5395Y37099D01*
X5332Y37182D01*
X5249Y37245D01*
X5153Y37285D01*
X5050Y37299D01*
D02*
G37*
G36*
X4050D02*
X3947Y37285D01*
X3851Y37245D01*
X3768Y37182D01*
X3705Y37099D01*
X3665Y37003D01*
X3651Y36900D01*
X3665Y36797D01*
X3705Y36701D01*
X3768Y36618D01*
X3851Y36555D01*
X3947Y36515D01*
X4050Y36501D01*
X4153Y36515D01*
X4249Y36555D01*
X4332Y36618D01*
X4395Y36701D01*
X4435Y36797D01*
X4449Y36900D01*
X4435Y37003D01*
X4395Y37099D01*
X4332Y37182D01*
X4249Y37245D01*
X4153Y37285D01*
X4050Y37299D01*
D02*
G37*
G36*
X27345Y37297D02*
X26755D01*
X26716Y37289D01*
X26683Y37267D01*
X26661Y37234D01*
X26653Y37195D01*
Y36605D01*
X26661Y36566D01*
X26683Y36533D01*
X26716Y36511D01*
X26755Y36503D01*
X26775D01*
X26794Y36457D01*
X26426Y36088D01*
X20830D01*
X20830Y36088D01*
X20762Y36075D01*
X20704Y36036D01*
X20704Y36036D01*
X19746Y35078D01*
X19161D01*
X19160Y35080D01*
X19078Y35136D01*
X18980Y35155D01*
X18882Y35136D01*
X18800Y35080D01*
X18744Y34998D01*
X18725Y34900D01*
X18744Y34802D01*
X18800Y34720D01*
X18882Y34664D01*
X18980Y34645D01*
X19078Y34664D01*
X19160Y34720D01*
X19161Y34722D01*
X19820D01*
X19888Y34735D01*
X19946Y34774D01*
X20904Y35732D01*
X26500D01*
X26568Y35745D01*
X26626Y35784D01*
X27176Y36334D01*
X27176Y36334D01*
X27215Y36392D01*
X27228Y36460D01*
Y36503D01*
X27345D01*
X27384Y36511D01*
X27417Y36533D01*
X27439Y36566D01*
X27447Y36605D01*
Y37195D01*
X27439Y37234D01*
X27417Y37267D01*
X27384Y37289D01*
X27345Y37297D01*
D02*
G37*
G36*
X35050Y36192D02*
X35040Y36190D01*
X35030D01*
X34966Y36177D01*
X34963Y36176D01*
X34962Y36176D01*
X34938Y36171D01*
X34902Y36156D01*
X34902Y36156D01*
X34882Y36143D01*
X34881Y36143D01*
X34879Y36141D01*
X34824Y36104D01*
X34796Y36076D01*
X34796Y36076D01*
X34759Y36021D01*
X34757Y36019D01*
X34757Y36018D01*
X34744Y35998D01*
X34744Y35998D01*
X34729Y35962D01*
X34724Y35938D01*
X34724Y35937D01*
X34723Y35934D01*
X34710Y35870D01*
Y35830D01*
X34723Y35766D01*
X34724Y35763D01*
X34724Y35762D01*
X34729Y35738D01*
X34744Y35702D01*
X34744Y35702D01*
X34757Y35682D01*
X34757Y35681D01*
X34759Y35679D01*
X34796Y35624D01*
X34824Y35596D01*
X34824Y35596D01*
X34879Y35559D01*
X34881Y35557D01*
X34882Y35557D01*
X34902Y35544D01*
X34902Y35544D01*
X34938Y35529D01*
X34962Y35524D01*
X34963Y35524D01*
X34966Y35523D01*
X35030Y35510D01*
X35040D01*
X35050Y35508D01*
X35060Y35510D01*
X35070D01*
X35134Y35523D01*
X35137Y35524D01*
X35138Y35524D01*
X35162Y35529D01*
X35198Y35544D01*
X35198Y35544D01*
X35218Y35557D01*
X35219Y35557D01*
X35221Y35559D01*
X35276Y35596D01*
X35304Y35624D01*
X35304Y35624D01*
X35341Y35679D01*
X35343Y35681D01*
X35343Y35682D01*
X35356Y35702D01*
X35356Y35702D01*
X35371Y35738D01*
X35376Y35762D01*
X35376Y35763D01*
X35377Y35766D01*
X35390Y35830D01*
Y35870D01*
X35377Y35934D01*
X35376Y35937D01*
X35376Y35938D01*
X35371Y35962D01*
X35356Y35998D01*
X35356Y35998D01*
X35343Y36018D01*
X35343Y36019D01*
X35341Y36021D01*
X35304Y36076D01*
X35276Y36104D01*
X35276Y36104D01*
X35221Y36141D01*
X35219Y36143D01*
X35218Y36143D01*
X35198Y36156D01*
X35198Y36156D01*
X35162Y36171D01*
X35138Y36176D01*
X35137Y36176D01*
X35134Y36177D01*
X35070Y36190D01*
X35060D01*
X35050Y36192D01*
D02*
G37*
G36*
X23250Y34696D02*
X23147Y34683D01*
X23051Y34643D01*
X22968Y34580D01*
X22905Y34497D01*
X22865Y34401D01*
X22851Y34298D01*
X22865Y34194D01*
X22905Y34098D01*
X22968Y34016D01*
X23051Y33952D01*
X23147Y33913D01*
X23250Y33899D01*
X23353Y33913D01*
X23449Y33952D01*
X23532Y34016D01*
X23595Y34098D01*
X23635Y34194D01*
X23649Y34298D01*
X23635Y34401D01*
X23595Y34497D01*
X23532Y34580D01*
X23449Y34643D01*
X23353Y34683D01*
X23250Y34696D01*
D02*
G37*
G36*
X25350Y34903D02*
X25232Y34891D01*
X25119Y34857D01*
X25015Y34801D01*
X24924Y34726D01*
X24849Y34635D01*
X24793Y34531D01*
X24759Y34418D01*
X24747Y34300D01*
X24759Y34182D01*
X24793Y34069D01*
X24849Y33965D01*
X24924Y33874D01*
X25015Y33799D01*
X25119Y33743D01*
X25232Y33709D01*
X25350Y33697D01*
X25468Y33709D01*
X25581Y33743D01*
X25685Y33799D01*
X25776Y33874D01*
X25851Y33965D01*
X25907Y34069D01*
X25941Y34182D01*
X25953Y34300D01*
X25941Y34418D01*
X25907Y34531D01*
X25851Y34635D01*
X25776Y34726D01*
X25685Y34801D01*
X25581Y34857D01*
X25468Y34891D01*
X25350Y34903D01*
D02*
G37*
G36*
X20050Y38404D02*
X4050D01*
X3919Y38387D01*
X3798Y38337D01*
X3693Y38257D01*
X3613Y38152D01*
X3563Y38031D01*
X3546Y37900D01*
X3563Y37769D01*
X3613Y37648D01*
X3693Y37543D01*
X3798Y37463D01*
X3919Y37413D01*
X4050Y37396D01*
X10337D01*
X10364Y37346D01*
X10351Y37278D01*
Y37230D01*
X10301Y37206D01*
X10249Y37245D01*
X10153Y37285D01*
X10050Y37299D01*
X9947Y37285D01*
X9851Y37245D01*
X9768Y37182D01*
X9705Y37099D01*
X9665Y37003D01*
X9651Y36900D01*
X9665Y36797D01*
X9705Y36701D01*
X9768Y36618D01*
X9851Y36555D01*
X9947Y36515D01*
X10050Y36501D01*
X10153Y36515D01*
X10249Y36555D01*
X10301Y36594D01*
X10351Y36570D01*
Y36405D01*
X10366Y36327D01*
X10411Y36261D01*
X10846Y35825D01*
Y34355D01*
X10814Y34308D01*
X10795Y34210D01*
X10814Y34112D01*
X10826Y34095D01*
Y30745D01*
X10795Y30698D01*
X10775Y30600D01*
X10795Y30502D01*
X10850Y30420D01*
X10932Y30364D01*
X11030Y30345D01*
X11128Y30364D01*
X11210Y30420D01*
X11265Y30502D01*
X11285Y30600D01*
X11265Y30698D01*
X11234Y30745D01*
Y34035D01*
X11286Y34112D01*
X11305Y34210D01*
X11286Y34308D01*
X11254Y34355D01*
Y35909D01*
X11238Y35987D01*
X11194Y36054D01*
X10795Y36453D01*
X10816Y36503D01*
X11345D01*
X11384Y36511D01*
X11417Y36533D01*
X11439Y36566D01*
X11447Y36605D01*
Y37195D01*
X11439Y37234D01*
X11417Y37267D01*
X11384Y37289D01*
X11345Y37297D01*
X11281D01*
X11244Y37347D01*
X11254Y37395D01*
Y37396D01*
X15696D01*
Y34585D01*
X15664Y34538D01*
X15645Y34440D01*
X15664Y34342D01*
X15720Y34260D01*
X15802Y34204D01*
X15858Y34193D01*
X16496Y33556D01*
X16562Y33512D01*
X16640Y33496D01*
X18895D01*
X18942Y33465D01*
X19040Y33445D01*
X19138Y33465D01*
X19220Y33520D01*
X19275Y33602D01*
X19295Y33700D01*
X19275Y33798D01*
X19220Y33880D01*
X19138Y33935D01*
X19040Y33955D01*
X18942Y33935D01*
X18895Y33904D01*
X16724D01*
X16147Y34482D01*
X16135Y34538D01*
X16104Y34585D01*
Y37396D01*
X20050D01*
X20181Y37413D01*
X20302Y37463D01*
X20407Y37543D01*
X20487Y37648D01*
X20537Y37769D01*
X20554Y37900D01*
X20537Y38031D01*
X20487Y38152D01*
X20407Y38257D01*
X20302Y38337D01*
X20181Y38387D01*
X20050Y38404D01*
D02*
G37*
G36*
X35050Y33092D02*
X35040Y33090D01*
X35030D01*
X34966Y33077D01*
X34963Y33076D01*
X34962Y33076D01*
X34938Y33071D01*
X34902Y33056D01*
X34902Y33056D01*
X34882Y33043D01*
X34881Y33043D01*
X34879Y33041D01*
X34824Y33004D01*
X34796Y32976D01*
X34796Y32976D01*
X34759Y32921D01*
X34757Y32919D01*
X34757Y32918D01*
X34744Y32898D01*
X34744Y32898D01*
X34729Y32862D01*
X34724Y32838D01*
X34724Y32837D01*
X34723Y32834D01*
X34710Y32770D01*
Y32730D01*
X34723Y32666D01*
X34724Y32663D01*
X34724Y32662D01*
X34729Y32638D01*
X34744Y32602D01*
X34744Y32602D01*
X34757Y32582D01*
X34757Y32581D01*
X34759Y32579D01*
X34796Y32524D01*
X34824Y32496D01*
X34824Y32496D01*
X34879Y32459D01*
X34881Y32457D01*
X34882Y32457D01*
X34902Y32444D01*
X34902Y32444D01*
X34938Y32429D01*
X34962Y32424D01*
X34963Y32424D01*
X34966Y32423D01*
X35030Y32410D01*
X35040D01*
X35050Y32408D01*
X35060Y32410D01*
X35070D01*
X35134Y32423D01*
X35137Y32424D01*
X35138Y32424D01*
X35162Y32429D01*
X35198Y32444D01*
X35198Y32444D01*
X35218Y32457D01*
X35219Y32457D01*
X35221Y32459D01*
X35276Y32496D01*
X35304Y32524D01*
X35304Y32524D01*
X35341Y32579D01*
X35343Y32581D01*
X35343Y32582D01*
X35356Y32602D01*
X35356Y32602D01*
X35371Y32638D01*
X35376Y32662D01*
X35376Y32663D01*
X35377Y32666D01*
X35390Y32730D01*
Y32770D01*
X35377Y32834D01*
X35376Y32837D01*
X35376Y32838D01*
X35371Y32862D01*
X35356Y32898D01*
X35356Y32898D01*
X35343Y32918D01*
X35343Y32919D01*
X35341Y32921D01*
X35304Y32976D01*
X35276Y33004D01*
X35276Y33004D01*
X35221Y33041D01*
X35219Y33043D01*
X35218Y33043D01*
X35198Y33056D01*
X35198Y33056D01*
X35162Y33071D01*
X35138Y33076D01*
X35137Y33076D01*
X35134Y33077D01*
X35070Y33090D01*
X35060D01*
X35050Y33092D01*
D02*
G37*
G36*
X7530Y33335D02*
X7432Y33315D01*
X7350Y33260D01*
X7295Y33178D01*
X7275Y33080D01*
X7295Y32982D01*
X7350Y32900D01*
X7352Y32899D01*
Y32300D01*
X7304Y32285D01*
X7300Y32290D01*
X7218Y32345D01*
X7120Y32365D01*
X7022Y32345D01*
X6940Y32290D01*
X6885Y32208D01*
X6865Y32110D01*
X6885Y32012D01*
X6940Y31930D01*
X6942Y31929D01*
Y19003D01*
X6852Y18986D01*
X6770Y18930D01*
X6715Y18848D01*
X6695Y18750D01*
X6715Y18652D01*
X6770Y18570D01*
X6852Y18514D01*
X6950Y18495D01*
X7048Y18514D01*
X7130Y18570D01*
X7185Y18652D01*
X7205Y18750D01*
X7204Y18752D01*
X7246Y18794D01*
X7246Y18794D01*
X7285Y18852D01*
X7298Y18920D01*
Y31884D01*
X7302Y31887D01*
X7352Y31861D01*
Y18701D01*
X7350Y18700D01*
X7295Y18618D01*
X7275Y18520D01*
X7295Y18422D01*
X7350Y18340D01*
X7432Y18284D01*
X7530Y18265D01*
X7628Y18284D01*
X7710Y18340D01*
X7765Y18422D01*
X7785Y18520D01*
X7765Y18618D01*
X7710Y18700D01*
X7708Y18701D01*
Y32899D01*
X7710Y32900D01*
X7765Y32982D01*
X7785Y33080D01*
X7765Y33178D01*
X7710Y33260D01*
X7628Y33315D01*
X7530Y33335D01*
D02*
G37*
G36*
X23545Y32002D02*
X22955D01*
X22877Y31986D01*
X22811Y31942D01*
X22766Y31876D01*
X22751Y31798D01*
Y31207D01*
X22766Y31129D01*
X22811Y31063D01*
X22877Y31019D01*
X22955Y31003D01*
X23545D01*
X23623Y31019D01*
X23689Y31063D01*
X23734Y31129D01*
X23749Y31207D01*
Y31798D01*
X23734Y31876D01*
X23689Y31942D01*
X23623Y31986D01*
X23545Y32002D01*
D02*
G37*
G36*
X25350Y31903D02*
X25213Y31890D01*
X25081Y31850D01*
X24959Y31785D01*
X24853Y31697D01*
X24765Y31591D01*
X24700Y31469D01*
X24660Y31337D01*
X24647Y31200D01*
X24660Y31063D01*
X24700Y30931D01*
X24765Y30809D01*
X24853Y30703D01*
X24959Y30615D01*
X25081Y30550D01*
X25213Y30510D01*
X25350Y30497D01*
X25487Y30510D01*
X25619Y30550D01*
X25741Y30615D01*
X25847Y30703D01*
X25935Y30809D01*
X26000Y30931D01*
X26040Y31063D01*
X26053Y31200D01*
X26040Y31337D01*
X26000Y31469D01*
X25935Y31591D01*
X25847Y31697D01*
X25741Y31785D01*
X25619Y31850D01*
X25487Y31890D01*
X25350Y31903D01*
D02*
G37*
G36*
X19810Y30245D02*
Y30050D01*
X20005D01*
X19995Y30098D01*
X19940Y30180D01*
X19858Y30236D01*
X19810Y30245D01*
D02*
G37*
G36*
X19710D02*
X19662Y30236D01*
X19580Y30180D01*
X19525Y30098D01*
X19515Y30050D01*
X19710D01*
Y30245D01*
D02*
G37*
G36*
X20005Y29950D02*
X19810D01*
Y29755D01*
X19858Y29764D01*
X19940Y29820D01*
X19995Y29902D01*
X20005Y29950D01*
D02*
G37*
G36*
X19710D02*
X19515D01*
X19525Y29902D01*
X19580Y29820D01*
X19662Y29764D01*
X19710Y29755D01*
Y29950D01*
D02*
G37*
G36*
X35050Y29992D02*
X35040Y29990D01*
X35030D01*
X34966Y29977D01*
X34963Y29976D01*
X34962Y29976D01*
X34938Y29971D01*
X34902Y29956D01*
X34902Y29956D01*
X34882Y29943D01*
X34881Y29943D01*
X34879Y29941D01*
X34824Y29904D01*
X34796Y29876D01*
X34796Y29876D01*
X34759Y29821D01*
X34757Y29819D01*
X34757Y29818D01*
X34744Y29798D01*
X34744Y29798D01*
X34729Y29762D01*
X34724Y29738D01*
X34724Y29737D01*
X34723Y29734D01*
X34710Y29670D01*
Y29630D01*
X34723Y29566D01*
X34724Y29563D01*
X34724Y29562D01*
X34729Y29538D01*
X34744Y29502D01*
X34744Y29502D01*
X34757Y29482D01*
X34757Y29481D01*
X34759Y29479D01*
X34796Y29424D01*
X34824Y29396D01*
X34824Y29396D01*
X34879Y29359D01*
X34881Y29357D01*
X34882Y29357D01*
X34902Y29344D01*
X34902Y29344D01*
X34938Y29329D01*
X34962Y29324D01*
X34963Y29324D01*
X34966Y29323D01*
X35030Y29310D01*
X35040D01*
X35050Y29308D01*
X35060Y29310D01*
X35070D01*
X35134Y29323D01*
X35137Y29324D01*
X35138Y29324D01*
X35162Y29329D01*
X35198Y29344D01*
X35198Y29344D01*
X35218Y29357D01*
X35219Y29357D01*
X35221Y29359D01*
X35276Y29396D01*
X35304Y29424D01*
X35304Y29424D01*
X35341Y29479D01*
X35343Y29481D01*
X35343Y29482D01*
X35356Y29502D01*
X35356Y29502D01*
X35371Y29538D01*
X35376Y29562D01*
X35376Y29563D01*
X35377Y29566D01*
X35390Y29630D01*
Y29670D01*
X35377Y29734D01*
X35376Y29737D01*
X35376Y29738D01*
X35371Y29762D01*
X35356Y29798D01*
X35356Y29798D01*
X35343Y29818D01*
X35343Y29819D01*
X35341Y29821D01*
X35304Y29876D01*
X35276Y29904D01*
X35276Y29904D01*
X35221Y29941D01*
X35219Y29943D01*
X35218Y29943D01*
X35198Y29956D01*
X35198Y29956D01*
X35162Y29971D01*
X35138Y29976D01*
X35137Y29976D01*
X35134Y29977D01*
X35070Y29990D01*
X35060D01*
X35050Y29992D01*
D02*
G37*
G36*
X19390Y29482D02*
X19318Y29473D01*
X19251Y29445D01*
X19194Y29401D01*
X19150Y29344D01*
X19122Y29277D01*
X19113Y29205D01*
Y28765D01*
X18534Y28186D01*
X18490Y28129D01*
X18462Y28062D01*
X18453Y27990D01*
X18462Y27918D01*
X18490Y27851D01*
X18534Y27794D01*
X18591Y27750D01*
X18658Y27722D01*
X18730Y27713D01*
X18802Y27722D01*
X18869Y27750D01*
X18926Y27794D01*
X19586Y28454D01*
X19630Y28511D01*
X19658Y28578D01*
X19667Y28650D01*
Y29205D01*
X19658Y29277D01*
X19630Y29344D01*
X19586Y29401D01*
X19529Y29445D01*
X19462Y29473D01*
X19390Y29482D01*
D02*
G37*
G36*
X23350Y28496D02*
X23247Y28483D01*
X23151Y28443D01*
X23068Y28380D01*
X23005Y28297D01*
X22965Y28201D01*
X22951Y28098D01*
X22965Y27994D01*
X23005Y27898D01*
X23068Y27816D01*
X23151Y27752D01*
X23247Y27713D01*
X23350Y27699D01*
X23453Y27713D01*
X23549Y27752D01*
X23632Y27816D01*
X23695Y27898D01*
X23735Y27994D01*
X23749Y28098D01*
X23735Y28201D01*
X23695Y28297D01*
X23632Y28380D01*
X23549Y28443D01*
X23453Y28483D01*
X23350Y28496D01*
D02*
G37*
G36*
X25350Y28703D02*
X25232Y28691D01*
X25119Y28657D01*
X25015Y28601D01*
X24924Y28526D01*
X24849Y28435D01*
X24793Y28331D01*
X24759Y28218D01*
X24747Y28100D01*
X24759Y27982D01*
X24793Y27869D01*
X24849Y27765D01*
X24924Y27674D01*
X25015Y27599D01*
X25119Y27543D01*
X25232Y27509D01*
X25350Y27497D01*
X25468Y27509D01*
X25581Y27543D01*
X25685Y27599D01*
X25776Y27674D01*
X25851Y27765D01*
X25907Y27869D01*
X25941Y27982D01*
X25953Y28100D01*
X25941Y28218D01*
X25907Y28331D01*
X25851Y28435D01*
X25776Y28526D01*
X25685Y28601D01*
X25581Y28657D01*
X25468Y28691D01*
X25350Y28703D01*
D02*
G37*
G36*
X13000Y31705D02*
X12902Y31686D01*
X12820Y31630D01*
X12765Y31548D01*
X12745Y31450D01*
X12765Y31352D01*
X12820Y31270D01*
X12833Y31261D01*
Y27435D01*
X12795Y27378D01*
X12775Y27280D01*
X12795Y27182D01*
X12850Y27100D01*
X12932Y27044D01*
X13030Y27025D01*
X13128Y27044D01*
X13210Y27100D01*
X13266Y27182D01*
X13285Y27280D01*
X13266Y27378D01*
X13210Y27460D01*
X13190Y27474D01*
Y31284D01*
X13235Y31352D01*
X13255Y31450D01*
X13235Y31548D01*
X13180Y31630D01*
X13098Y31686D01*
X13000Y31705D01*
D02*
G37*
G36*
X16000Y29155D02*
X15902Y29135D01*
X15820Y29080D01*
X15764Y28998D01*
X15745Y28900D01*
X15764Y28802D01*
X15820Y28720D01*
X15822Y28719D01*
Y27345D01*
X15800Y27330D01*
X15745Y27248D01*
X15725Y27150D01*
X15745Y27052D01*
X15800Y26970D01*
X15882Y26915D01*
X15980Y26895D01*
X16078Y26915D01*
X16160Y26970D01*
X16215Y27052D01*
X16235Y27150D01*
X16215Y27248D01*
X16178Y27303D01*
Y28719D01*
X16180Y28720D01*
X16236Y28802D01*
X16255Y28900D01*
X16236Y28998D01*
X16180Y29080D01*
X16098Y29135D01*
X16000Y29155D01*
D02*
G37*
G36*
X3180Y27025D02*
Y26830D01*
X3375D01*
X3365Y26878D01*
X3310Y26960D01*
X3228Y27016D01*
X3180Y27025D01*
D02*
G37*
G36*
X3080D02*
X3032Y27016D01*
X2950Y26960D01*
X2894Y26878D01*
X2885Y26830D01*
X3080D01*
Y27025D01*
D02*
G37*
G36*
X3375Y26730D02*
X3180D01*
Y26535D01*
X3228Y26544D01*
X3310Y26600D01*
X3365Y26682D01*
X3375Y26730D01*
D02*
G37*
G36*
X3080D02*
X2885D01*
X2894Y26682D01*
X2950Y26600D01*
X3032Y26544D01*
X3080Y26535D01*
Y26730D01*
D02*
G37*
G36*
X20000Y34585D02*
X19902Y34565D01*
X19820Y34510D01*
X19764Y34428D01*
X19745Y34330D01*
X19764Y34232D01*
X19820Y34150D01*
X19902Y34095D01*
X20000Y34075D01*
X20002Y34076D01*
X20462Y33616D01*
Y26958D01*
X20450Y26950D01*
X20394Y26868D01*
X20375Y26770D01*
X20394Y26672D01*
X20450Y26590D01*
X20532Y26535D01*
X20630Y26515D01*
X20728Y26535D01*
X20810Y26590D01*
X20865Y26672D01*
X20885Y26770D01*
X20865Y26868D01*
X20818Y26938D01*
Y33690D01*
X20818Y33690D01*
X20805Y33758D01*
X20766Y33816D01*
X20766Y33816D01*
X20254Y34328D01*
X20255Y34330D01*
X20236Y34428D01*
X20180Y34510D01*
X20098Y34565D01*
X20000Y34585D01*
D02*
G37*
G36*
X35060Y26912D02*
X35050Y26910D01*
X35040D01*
X34976Y26897D01*
X34973Y26896D01*
X34972Y26896D01*
X34948Y26891D01*
X34912Y26876D01*
X34912Y26876D01*
X34892Y26863D01*
X34891Y26863D01*
X34889Y26861D01*
X34834Y26824D01*
X34806Y26796D01*
X34806Y26796D01*
X34769Y26741D01*
X34767Y26739D01*
X34767Y26738D01*
X34754Y26718D01*
X34754Y26718D01*
X34748Y26705D01*
X34744Y26698D01*
X34744Y26698D01*
X34729Y26662D01*
X34724Y26638D01*
X34724Y26637D01*
X34723Y26634D01*
X34710Y26570D01*
Y26530D01*
X34723Y26466D01*
X34724Y26463D01*
X34724Y26462D01*
X34729Y26438D01*
X34744Y26402D01*
X34744Y26402D01*
X34757Y26382D01*
X34757Y26381D01*
X34759Y26379D01*
X34796Y26324D01*
X34824Y26296D01*
X34824Y26296D01*
X34879Y26259D01*
X34881Y26257D01*
X34882Y26257D01*
X34902Y26244D01*
X34902Y26244D01*
X34938Y26229D01*
X34962Y26224D01*
X34963Y26224D01*
X34966Y26223D01*
X35030Y26210D01*
X35040D01*
X35050Y26208D01*
X35060Y26210D01*
X35070D01*
X35134Y26223D01*
X35137Y26224D01*
X35138Y26224D01*
X35162Y26229D01*
X35198Y26244D01*
X35198Y26244D01*
X35218Y26257D01*
X35219Y26257D01*
X35221Y26259D01*
X35276Y26296D01*
X35304Y26324D01*
X35304Y26324D01*
X35341Y26379D01*
X35343Y26381D01*
X35343Y26382D01*
X35356Y26402D01*
X35356Y26402D01*
X35362Y26415D01*
X35366Y26422D01*
X35366Y26422D01*
X35381Y26458D01*
X35386Y26482D01*
X35386Y26483D01*
X35387Y26486D01*
X35400Y26550D01*
Y26590D01*
X35387Y26654D01*
X35386Y26657D01*
X35386Y26658D01*
X35381Y26682D01*
X35366Y26718D01*
X35366Y26718D01*
X35353Y26738D01*
X35353Y26739D01*
X35351Y26741D01*
X35314Y26796D01*
X35286Y26824D01*
X35286Y26824D01*
X35231Y26861D01*
X35229Y26863D01*
X35228Y26863D01*
X35208Y26876D01*
X35208Y26876D01*
X35172Y26891D01*
X35148Y26896D01*
X35147Y26896D01*
X35144Y26897D01*
X35080Y26910D01*
X35070D01*
X35060Y26912D01*
D02*
G37*
G36*
X1010Y27930D02*
X881Y27913D01*
X760Y27863D01*
X657Y27783D01*
X577Y27680D01*
X527Y27559D01*
X510Y27430D01*
X527Y27301D01*
X577Y27180D01*
X657Y27077D01*
X760Y26997D01*
X804Y26979D01*
X794Y26929D01*
X715D01*
X637Y26914D01*
X571Y26869D01*
X526Y26803D01*
X511Y26725D01*
Y26135D01*
X526Y26057D01*
X571Y25991D01*
X637Y25946D01*
X715Y25931D01*
X1305D01*
X1383Y25946D01*
X1449Y25991D01*
X1494Y26057D01*
X1509Y26135D01*
Y26725D01*
X1494Y26803D01*
X1449Y26869D01*
X1383Y26914D01*
X1305Y26929D01*
X1226D01*
X1216Y26979D01*
X1260Y26997D01*
X1363Y27077D01*
X1443Y27180D01*
X1493Y27301D01*
X1510Y27430D01*
X1493Y27559D01*
X1443Y27680D01*
X1363Y27783D01*
X1260Y27863D01*
X1139Y27913D01*
X1010Y27930D01*
D02*
G37*
G36*
X19630Y25838D02*
X19532Y25825D01*
X19441Y25788D01*
X19363Y25727D01*
X19302Y25649D01*
X19265Y25558D01*
X19252Y25460D01*
X19265Y25362D01*
X19302Y25271D01*
X19363Y25193D01*
X19362Y25192D01*
X19501Y25078D01*
X19659Y24993D01*
X19832Y24941D01*
X20011Y24923D01*
Y24924D01*
X22870D01*
X22911Y24863D01*
X22977Y24819D01*
X23055Y24803D01*
X23645D01*
X23723Y24819D01*
X23789Y24863D01*
X23834Y24929D01*
X23849Y25007D01*
Y25598D01*
X23834Y25676D01*
X23789Y25742D01*
X23723Y25786D01*
X23645Y25802D01*
X23055D01*
X22977Y25786D01*
X22911Y25742D01*
X22870Y25681D01*
X20011D01*
X20007Y25680D01*
X19949Y25692D01*
X19898Y25726D01*
X19897Y25727D01*
Y25727D01*
X19819Y25788D01*
X19728Y25825D01*
X19630Y25838D01*
D02*
G37*
G36*
X25360Y25723D02*
X25223Y25710D01*
X25091Y25670D01*
X24969Y25605D01*
X24863Y25517D01*
X24775Y25411D01*
X24710Y25289D01*
X24670Y25157D01*
X24657Y25020D01*
X24670Y24883D01*
X24710Y24751D01*
X24775Y24629D01*
X24863Y24523D01*
X24969Y24435D01*
X25091Y24370D01*
X25223Y24330D01*
X25360Y24317D01*
X25497Y24330D01*
X25629Y24370D01*
X25751Y24435D01*
X25857Y24523D01*
X25945Y24629D01*
X26010Y24751D01*
X26050Y24883D01*
X26063Y25020D01*
X26050Y25157D01*
X26010Y25289D01*
X25945Y25411D01*
X25857Y25517D01*
X25751Y25605D01*
X25629Y25670D01*
X25497Y25710D01*
X25360Y25723D01*
D02*
G37*
G36*
X35060Y23812D02*
X35050Y23810D01*
X35040D01*
X34976Y23797D01*
X34973Y23796D01*
X34972Y23796D01*
X34948Y23791D01*
X34912Y23776D01*
X34912Y23776D01*
X34892Y23763D01*
X34891Y23763D01*
X34889Y23761D01*
X34834Y23724D01*
X34806Y23696D01*
X34806Y23696D01*
X34769Y23641D01*
X34767Y23639D01*
X34767Y23638D01*
X34754Y23618D01*
X34754Y23618D01*
X34739Y23582D01*
X34734Y23558D01*
X34734Y23557D01*
X34733Y23554D01*
X34720Y23490D01*
Y23450D01*
X34733Y23386D01*
X34734Y23383D01*
X34734Y23382D01*
X34739Y23358D01*
X34754Y23322D01*
X34754Y23322D01*
X34767Y23302D01*
X34767Y23301D01*
X34769Y23299D01*
X34806Y23244D01*
X34834Y23216D01*
X34834Y23216D01*
X34889Y23179D01*
X34891Y23177D01*
X34892Y23177D01*
X34912Y23164D01*
X34912Y23164D01*
X34948Y23149D01*
X34972Y23144D01*
X34973Y23144D01*
X34976Y23143D01*
X35040Y23130D01*
X35050D01*
X35060Y23128D01*
X35070Y23130D01*
X35080D01*
X35144Y23143D01*
X35147Y23144D01*
X35148Y23144D01*
X35172Y23149D01*
X35208Y23164D01*
X35208Y23164D01*
X35228Y23177D01*
X35229Y23177D01*
X35231Y23179D01*
X35286Y23216D01*
X35314Y23244D01*
X35314Y23244D01*
X35351Y23299D01*
X35353Y23301D01*
X35353Y23302D01*
X35366Y23322D01*
X35366Y23322D01*
X35381Y23358D01*
X35386Y23382D01*
X35386Y23383D01*
X35387Y23386D01*
X35400Y23450D01*
Y23490D01*
X35387Y23554D01*
X35386Y23557D01*
X35386Y23558D01*
X35381Y23582D01*
X35366Y23618D01*
X35366Y23618D01*
X35353Y23638D01*
X35353Y23639D01*
X35351Y23641D01*
X35314Y23696D01*
X35286Y23724D01*
X35286Y23724D01*
X35231Y23761D01*
X35229Y23763D01*
X35228Y23763D01*
X35208Y23776D01*
X35208Y23776D01*
X35172Y23791D01*
X35148Y23796D01*
X35147Y23796D01*
X35144Y23797D01*
X35080Y23810D01*
X35070D01*
X35060Y23812D01*
D02*
G37*
G36*
X37241Y22577D02*
X37034Y22560D01*
X36832Y22512D01*
X36640Y22432D01*
X36463Y22324D01*
X36305Y22189D01*
X36170Y22031D01*
X36061Y21853D01*
X35982Y21661D01*
X35933Y21459D01*
X35917Y21252D01*
X35933Y21045D01*
X35982Y20843D01*
X36061Y20651D01*
X36170Y20473D01*
X36305Y20315D01*
X36463Y20180D01*
X36640Y20072D01*
X36832Y19992D01*
X37034Y19944D01*
X37241Y19927D01*
X37449Y19944D01*
X37651Y19992D01*
X37843Y20072D01*
X38020Y20180D01*
X38178Y20315D01*
X38313Y20473D01*
X38422Y20651D01*
X38501Y20843D01*
X38550Y21045D01*
X38566Y21252D01*
X38550Y21459D01*
X38501Y21661D01*
X38422Y21853D01*
X38313Y22031D01*
X38178Y22189D01*
X38020Y22324D01*
X37843Y22432D01*
X37651Y22512D01*
X37449Y22560D01*
X37241Y22577D01*
D02*
G37*
G36*
X14407D02*
X14199Y22560D01*
X13997Y22512D01*
X13805Y22432D01*
X13628Y22324D01*
X13470Y22189D01*
X13335Y22031D01*
X13226Y21853D01*
X13147Y21661D01*
X13098Y21459D01*
X13082Y21252D01*
X13098Y21045D01*
X13147Y20843D01*
X13226Y20651D01*
X13335Y20473D01*
X13470Y20315D01*
X13628Y20180D01*
X13805Y20072D01*
X13997Y19992D01*
X14199Y19944D01*
X14407Y19927D01*
X14614Y19944D01*
X14816Y19992D01*
X15008Y20072D01*
X15185Y20180D01*
X15343Y20315D01*
X15478Y20473D01*
X15587Y20651D01*
X15666Y20843D01*
X15715Y21045D01*
X15731Y21252D01*
X15715Y21459D01*
X15666Y21661D01*
X15587Y21853D01*
X15478Y22031D01*
X15343Y22189D01*
X15185Y22324D01*
X15008Y22432D01*
X14816Y22512D01*
X14614Y22560D01*
X14407Y22577D01*
D02*
G37*
G36*
X35040Y19512D02*
X35030Y19510D01*
X35020D01*
X34956Y19497D01*
X34953Y19496D01*
X34952Y19496D01*
X34928Y19491D01*
X34892Y19476D01*
X34892Y19476D01*
X34872Y19463D01*
X34871Y19463D01*
X34869Y19461D01*
X34814Y19424D01*
X34786Y19396D01*
X34786Y19396D01*
X34749Y19341D01*
X34747Y19339D01*
X34747Y19338D01*
X34734Y19318D01*
X34734Y19318D01*
X34719Y19282D01*
X34714Y19258D01*
X34714Y19257D01*
X34713Y19254D01*
X34700Y19190D01*
Y19150D01*
X34713Y19086D01*
X34714Y19083D01*
X34714Y19082D01*
X34719Y19058D01*
X34734Y19022D01*
X34734Y19022D01*
X34747Y19002D01*
X34747Y19001D01*
X34749Y18999D01*
X34786Y18944D01*
X34814Y18916D01*
X34814Y18916D01*
X34869Y18879D01*
X34871Y18877D01*
X34872Y18877D01*
X34892Y18864D01*
X34892Y18864D01*
X34928Y18849D01*
X34952Y18844D01*
X34953Y18844D01*
X34956Y18843D01*
X35020Y18830D01*
X35030D01*
X35040Y18828D01*
X35050Y18830D01*
X35060D01*
X35124Y18843D01*
X35127Y18844D01*
X35128Y18844D01*
X35152Y18849D01*
X35188Y18864D01*
X35188Y18864D01*
X35208Y18877D01*
X35209Y18877D01*
X35211Y18879D01*
X35266Y18916D01*
X35294Y18944D01*
X35294Y18944D01*
X35331Y18999D01*
X35333Y19001D01*
X35333Y19002D01*
X35346Y19022D01*
X35346Y19022D01*
X35361Y19058D01*
X35366Y19082D01*
X35366Y19083D01*
X35367Y19086D01*
X35380Y19150D01*
Y19190D01*
X35367Y19254D01*
X35366Y19257D01*
X35366Y19258D01*
X35361Y19282D01*
X35346Y19318D01*
X35346Y19318D01*
X35333Y19338D01*
X35333Y19339D01*
X35331Y19341D01*
X35294Y19396D01*
X35266Y19424D01*
X35266Y19424D01*
X35211Y19461D01*
X35209Y19463D01*
X35208Y19463D01*
X35188Y19476D01*
X35188Y19476D01*
X35152Y19491D01*
X35128Y19496D01*
X35127Y19496D01*
X35124Y19497D01*
X35060Y19510D01*
X35050D01*
X35040Y19512D01*
D02*
G37*
G36*
X5990Y32855D02*
X5892Y32836D01*
X5810Y32780D01*
X5755Y32698D01*
X5735Y32600D01*
X5755Y32502D01*
X5772Y32477D01*
Y18521D01*
X5770Y18520D01*
X5715Y18438D01*
X5695Y18340D01*
X5715Y18242D01*
X5770Y18160D01*
X5852Y18104D01*
X5950Y18085D01*
X6048Y18104D01*
X6130Y18160D01*
X6185Y18242D01*
X6205Y18340D01*
X6185Y18438D01*
X6130Y18520D01*
X6128Y18521D01*
Y32392D01*
X6170Y32420D01*
X6225Y32502D01*
X6245Y32600D01*
X6225Y32698D01*
X6170Y32780D01*
X6088Y32836D01*
X5990Y32855D01*
D02*
G37*
G36*
X25340Y18323D02*
X25203Y18310D01*
X25071Y18270D01*
X24949Y18205D01*
X24843Y18117D01*
X24755Y18011D01*
X24690Y17889D01*
X24650Y17757D01*
X24637Y17620D01*
X24650Y17483D01*
X24690Y17351D01*
X24755Y17229D01*
X24843Y17123D01*
X24949Y17035D01*
X25071Y16970D01*
X25203Y16930D01*
X25340Y16917D01*
X25477Y16930D01*
X25609Y16970D01*
X25731Y17035D01*
X25837Y17123D01*
X25925Y17229D01*
X25990Y17351D01*
X26030Y17483D01*
X26043Y17620D01*
X26030Y17757D01*
X25990Y17889D01*
X25925Y18011D01*
X25837Y18117D01*
X25731Y18205D01*
X25609Y18270D01*
X25477Y18310D01*
X25340Y18323D01*
D02*
G37*
G36*
X11100Y14892D02*
Y14550D01*
X11442D01*
X11435Y14603D01*
X11395Y14699D01*
X11332Y14782D01*
X11249Y14845D01*
X11153Y14885D01*
X11100Y14892D01*
D02*
G37*
G36*
X25400Y15098D02*
Y14550D01*
X25948D01*
X25941Y14618D01*
X25907Y14731D01*
X25851Y14835D01*
X25776Y14926D01*
X25685Y15001D01*
X25581Y15057D01*
X25468Y15091D01*
X25400Y15098D01*
D02*
G37*
G36*
X25300D02*
X25232Y15091D01*
X25119Y15057D01*
X25015Y15001D01*
X24924Y14926D01*
X24849Y14835D01*
X24793Y14731D01*
X24759Y14618D01*
X24752Y14550D01*
X25300D01*
Y15098D01*
D02*
G37*
G36*
X11000Y14892D02*
X10947Y14885D01*
X10851Y14845D01*
X10768Y14782D01*
X10705Y14699D01*
X10665Y14603D01*
X10658Y14550D01*
X11000D01*
Y14892D01*
D02*
G37*
G36*
X11442Y14450D02*
X11100D01*
Y14108D01*
X11153Y14115D01*
X11249Y14155D01*
X11332Y14218D01*
X11395Y14301D01*
X11435Y14397D01*
X11442Y14450D01*
D02*
G37*
G36*
X11000D02*
X10658D01*
X10665Y14397D01*
X10705Y14301D01*
X10768Y14218D01*
X10851Y14155D01*
X10947Y14115D01*
X11000Y14108D01*
Y14450D01*
D02*
G37*
G36*
X12345Y14897D02*
X11755D01*
X11716Y14889D01*
X11683Y14867D01*
X11661Y14834D01*
X11653Y14795D01*
Y14205D01*
X11661Y14166D01*
X11683Y14133D01*
X11716Y14111D01*
X11755Y14103D01*
X12345D01*
X12384Y14111D01*
X12417Y14133D01*
X12439Y14166D01*
X12447Y14205D01*
Y14795D01*
X12439Y14834D01*
X12417Y14867D01*
X12384Y14889D01*
X12345Y14897D01*
D02*
G37*
G36*
X9050Y14899D02*
X8947Y14885D01*
X8851Y14845D01*
X8768Y14782D01*
X8705Y14699D01*
X8665Y14603D01*
X8651Y14500D01*
X8665Y14397D01*
X8705Y14301D01*
X8768Y14218D01*
X8851Y14155D01*
X8947Y14115D01*
X9050Y14101D01*
X9153Y14115D01*
X9249Y14155D01*
X9332Y14218D01*
X9395Y14301D01*
X9435Y14397D01*
X9449Y14500D01*
X9435Y14603D01*
X9395Y14699D01*
X9332Y14782D01*
X9249Y14845D01*
X9153Y14885D01*
X9050Y14899D01*
D02*
G37*
G36*
X25948Y14450D02*
X25400D01*
Y13902D01*
X25468Y13909D01*
X25581Y13943D01*
X25685Y13999D01*
X25776Y14074D01*
X25851Y14165D01*
X25907Y14269D01*
X25941Y14382D01*
X25948Y14450D01*
D02*
G37*
G36*
X25300D02*
X24752D01*
X24759Y14382D01*
X24793Y14269D01*
X24849Y14165D01*
X24924Y14074D01*
X25015Y13999D01*
X25119Y13943D01*
X25232Y13909D01*
X25300Y13902D01*
Y14450D01*
D02*
G37*
G36*
X35040Y16412D02*
X35030Y16410D01*
X35020D01*
X34956Y16397D01*
X34953Y16396D01*
X34952Y16396D01*
X34928Y16391D01*
X34892Y16376D01*
X34892Y16376D01*
X34872Y16363D01*
X34871Y16363D01*
X34869Y16361D01*
X34814Y16324D01*
X34786Y16296D01*
X34786Y16296D01*
X34749Y16241D01*
X34747Y16239D01*
X34747Y16238D01*
X34734Y16218D01*
X34734Y16218D01*
X34719Y16182D01*
X34714Y16158D01*
X34714Y16157D01*
X34713Y16154D01*
X34700Y16090D01*
Y16050D01*
X34713Y15986D01*
X34714Y15983D01*
X34714Y15982D01*
X34719Y15958D01*
X34734Y15922D01*
X34734Y15922D01*
X34738Y15915D01*
X34744Y15902D01*
X34744Y15902D01*
X34757Y15882D01*
X34757Y15881D01*
X34754Y15862D01*
X34737Y15832D01*
X26610D01*
X26571Y15824D01*
X26538Y15802D01*
X26516Y15769D01*
X26508Y15730D01*
Y13402D01*
X23082D01*
Y15727D01*
X23078Y15748D01*
X23074Y15766D01*
X23074Y15766D01*
X23074Y15766D01*
X23062Y15784D01*
X23052Y15799D01*
X23052Y15799D01*
X23052Y15799D01*
X23034Y15811D01*
X23019Y15821D01*
X23019Y15821D01*
X23019Y15821D01*
X22999Y15825D01*
X22980Y15829D01*
X13430Y15832D01*
X13411Y15828D01*
X13392Y15825D01*
X13392Y15824D01*
X13391Y15824D01*
X13375Y15813D01*
X13359Y15803D01*
X13358Y15802D01*
X13358Y15802D01*
X13347Y15786D01*
X13336Y15770D01*
X13336Y15770D01*
X13336Y15769D01*
X13332Y15750D01*
X13328Y15731D01*
X13219Y6804D01*
X13216Y6802D01*
X13178Y6767D01*
X10327D01*
Y8215D01*
X10332Y8218D01*
X10395Y8301D01*
X10435Y8397D01*
X10449Y8500D01*
X10435Y8603D01*
X10395Y8699D01*
X10332Y8782D01*
X10249Y8845D01*
X10153Y8885D01*
X10050Y8899D01*
X9947Y8885D01*
X9851Y8845D01*
X9808Y8813D01*
X9758Y8837D01*
Y13956D01*
X9926Y14124D01*
X9947Y14115D01*
X10050Y14101D01*
X10153Y14115D01*
X10249Y14155D01*
X10332Y14218D01*
X10395Y14301D01*
X10435Y14397D01*
X10449Y14500D01*
X10435Y14603D01*
X10395Y14699D01*
X10332Y14782D01*
X10249Y14845D01*
X10153Y14885D01*
X10050Y14899D01*
X9947Y14885D01*
X9851Y14845D01*
X9768Y14782D01*
X9705Y14699D01*
X9665Y14603D01*
X9651Y14500D01*
X9665Y14397D01*
X9674Y14376D01*
X9454Y14156D01*
X9415Y14098D01*
X9401Y14030D01*
Y12934D01*
X9351Y12896D01*
X9345Y12897D01*
X8755D01*
X8716Y12889D01*
X8683Y12867D01*
X8661Y12834D01*
X8653Y12795D01*
Y12205D01*
X8661Y12166D01*
X8683Y12133D01*
X8716Y12111D01*
X8755Y12103D01*
X9345D01*
X9351Y12104D01*
X9401Y12066D01*
Y11774D01*
X9351Y11757D01*
X9332Y11782D01*
X9249Y11845D01*
X9153Y11885D01*
X9050Y11899D01*
X8947Y11885D01*
X8851Y11845D01*
X8768Y11782D01*
X8705Y11699D01*
X8665Y11603D01*
X8651Y11500D01*
X8665Y11397D01*
X8705Y11301D01*
X8768Y11218D01*
X8851Y11155D01*
X8947Y11115D01*
X9050Y11101D01*
X9153Y11115D01*
X9249Y11155D01*
X9332Y11218D01*
X9351Y11243D01*
X9401Y11226D01*
Y10774D01*
X9351Y10757D01*
X9332Y10782D01*
X9249Y10845D01*
X9153Y10885D01*
X9050Y10899D01*
X8947Y10885D01*
X8851Y10845D01*
X8768Y10782D01*
X8705Y10699D01*
X8665Y10603D01*
X8651Y10500D01*
X8665Y10397D01*
X8705Y10301D01*
X8768Y10218D01*
X8851Y10155D01*
X8947Y10115D01*
X9050Y10101D01*
X9153Y10115D01*
X9249Y10155D01*
X9332Y10218D01*
X9351Y10243D01*
X9401Y10226D01*
Y8774D01*
X9351Y8757D01*
X9332Y8782D01*
X9249Y8845D01*
X9153Y8885D01*
X9100Y8892D01*
Y8500D01*
Y8108D01*
X9153Y8115D01*
X9249Y8155D01*
X9332Y8218D01*
X9351Y8243D01*
X9401Y8226D01*
Y3925D01*
X9380Y3910D01*
X9325Y3828D01*
X9305Y3730D01*
X9325Y3632D01*
X9380Y3550D01*
X9462Y3494D01*
X9560Y3475D01*
X9658Y3494D01*
X9740Y3550D01*
X9795Y3632D01*
X9815Y3730D01*
X9795Y3828D01*
X9758Y3883D01*
Y6345D01*
X9808Y6355D01*
X9810Y6351D01*
X9854Y6294D01*
X9911Y6250D01*
X9978Y6222D01*
X10050Y6213D01*
X17598D01*
X17613Y6163D01*
X17550Y6120D01*
X17494Y6038D01*
X17475Y5940D01*
X17494Y5842D01*
X17542Y5772D01*
Y2987D01*
X17492Y2963D01*
X17449Y2995D01*
X17353Y3035D01*
X17250Y3049D01*
X17147Y3035D01*
X17051Y2995D01*
X16968Y2932D01*
X16905Y2849D01*
X16865Y2753D01*
X16851Y2650D01*
X16865Y2547D01*
X16905Y2451D01*
X16968Y2368D01*
X17051Y2305D01*
X17147Y2265D01*
X17250Y2251D01*
X17353Y2265D01*
X17449Y2305D01*
X17492Y2337D01*
X17542Y2313D01*
Y2180D01*
X17555Y2111D01*
X17594Y2054D01*
X17874Y1774D01*
X17865Y1753D01*
X17851Y1650D01*
X17865Y1547D01*
X17905Y1451D01*
X17968Y1368D01*
X18051Y1305D01*
X18147Y1265D01*
X18250Y1251D01*
X18353Y1265D01*
X18449Y1305D01*
X18532Y1368D01*
X18595Y1451D01*
X18635Y1547D01*
X18649Y1650D01*
X18635Y1753D01*
X18595Y1849D01*
X18532Y1932D01*
X18449Y1995D01*
X18353Y2035D01*
X18250Y2049D01*
X18147Y2035D01*
X18126Y2026D01*
X17899Y2254D01*
Y2376D01*
X17949Y2393D01*
X17968Y2368D01*
X18051Y2305D01*
X18147Y2265D01*
X18250Y2251D01*
X18353Y2265D01*
X18449Y2305D01*
X18532Y2368D01*
X18595Y2451D01*
X18635Y2547D01*
X18649Y2650D01*
X18635Y2753D01*
X18595Y2849D01*
X18532Y2932D01*
X18449Y2995D01*
X18353Y3035D01*
X18250Y3049D01*
X18147Y3035D01*
X18051Y2995D01*
X17968Y2932D01*
X17949Y2907D01*
X17899Y2924D01*
Y5752D01*
X17910Y5760D01*
X17966Y5842D01*
X17985Y5940D01*
X17966Y6038D01*
X17910Y6120D01*
X17847Y6163D01*
X17862Y6213D01*
X19728D01*
X19743Y6163D01*
X19710Y6140D01*
X19655Y6058D01*
X19635Y5960D01*
X19655Y5862D01*
X19710Y5780D01*
X19712Y5779D01*
Y3010D01*
X19725Y2942D01*
X19764Y2884D01*
X19874Y2774D01*
X19865Y2753D01*
X19851Y2650D01*
X19865Y2547D01*
X19905Y2451D01*
X19968Y2368D01*
X20051Y2305D01*
X20147Y2265D01*
X20250Y2251D01*
X20353Y2265D01*
X20449Y2305D01*
X20492Y2337D01*
X20542Y2313D01*
Y2194D01*
X20374Y2026D01*
X20353Y2035D01*
X20250Y2049D01*
X20147Y2035D01*
X20051Y1995D01*
X19968Y1932D01*
X19905Y1849D01*
X19865Y1753D01*
X19851Y1650D01*
X19865Y1547D01*
X19905Y1451D01*
X19968Y1368D01*
X20051Y1305D01*
X20147Y1265D01*
X20250Y1251D01*
X20353Y1265D01*
X20449Y1305D01*
X20532Y1368D01*
X20595Y1451D01*
X20635Y1547D01*
X20649Y1650D01*
X20635Y1753D01*
X20626Y1774D01*
X20846Y1994D01*
X20846Y1994D01*
X20885Y2052D01*
X20899Y2120D01*
X20899Y2120D01*
Y2376D01*
X20949Y2393D01*
X20968Y2368D01*
X21051Y2305D01*
X21147Y2265D01*
X21250Y2251D01*
X21353Y2265D01*
X21449Y2305D01*
X21532Y2368D01*
X21595Y2451D01*
X21635Y2547D01*
X21649Y2650D01*
X21635Y2753D01*
X21595Y2849D01*
X21563Y2891D01*
X21646Y2974D01*
X21685Y3032D01*
X21698Y3100D01*
X21698Y3100D01*
Y5759D01*
X21700Y5760D01*
X21755Y5842D01*
X21775Y5940D01*
X21755Y6038D01*
X21700Y6120D01*
X21637Y6163D01*
X21652Y6213D01*
X32580D01*
X32652Y6222D01*
X32666Y6228D01*
X32722Y6224D01*
X32733Y6207D01*
X32744Y6191D01*
X32744Y6191D01*
X32744Y6191D01*
X32760Y6180D01*
X32777Y6169D01*
X32777Y6169D01*
X32777Y6169D01*
X32796Y6165D01*
X32816Y6161D01*
X36410Y6158D01*
X36410Y6158D01*
X36410Y6158D01*
X36429Y6162D01*
X36449Y6165D01*
X36449Y6166D01*
X36449Y6166D01*
X36465Y6176D01*
X36482Y6188D01*
X36482Y6188D01*
X36482Y6188D01*
X36632Y6338D01*
X36654Y6371D01*
X36662Y6410D01*
Y15730D01*
X36654Y15769D01*
X36632Y15802D01*
X36599Y15824D01*
X36560Y15832D01*
X35363D01*
X35346Y15862D01*
X35343Y15881D01*
X35343Y15882D01*
X35356Y15902D01*
X35356Y15902D01*
X35371Y15938D01*
X35376Y15962D01*
X35376Y15963D01*
X35377Y15966D01*
X35390Y16030D01*
Y16070D01*
X35377Y16134D01*
X35376Y16137D01*
X35376Y16138D01*
X35371Y16162D01*
X35356Y16198D01*
X35356Y16198D01*
X35352Y16205D01*
X35346Y16218D01*
X35346Y16218D01*
X35333Y16238D01*
X35333Y16239D01*
X35331Y16241D01*
X35294Y16296D01*
X35266Y16324D01*
X35266Y16324D01*
X35211Y16361D01*
X35209Y16363D01*
X35208Y16363D01*
X35188Y16376D01*
X35188Y16376D01*
X35152Y16391D01*
X35128Y16396D01*
X35127Y16396D01*
X35124Y16397D01*
X35060Y16410D01*
X35050D01*
X35040Y16412D01*
D02*
G37*
G36*
X38170Y12715D02*
Y12520D01*
X38365D01*
X38356Y12568D01*
X38300Y12650D01*
X38218Y12706D01*
X38170Y12715D01*
D02*
G37*
G36*
X38070D02*
X38022Y12706D01*
X37940Y12650D01*
X37885Y12568D01*
X37875Y12520D01*
X38070D01*
Y12715D01*
D02*
G37*
G36*
X38365Y12420D02*
X38170D01*
Y12225D01*
X38218Y12234D01*
X38300Y12290D01*
X38356Y12372D01*
X38365Y12420D01*
D02*
G37*
G36*
X38070D02*
X37875D01*
X37885Y12372D01*
X37940Y12290D01*
X38022Y12234D01*
X38070Y12225D01*
Y12420D01*
D02*
G37*
G36*
X38190Y11715D02*
Y11520D01*
X38385D01*
X38375Y11568D01*
X38320Y11650D01*
X38238Y11705D01*
X38190Y11715D01*
D02*
G37*
G36*
X38090D02*
X38042Y11705D01*
X37960Y11650D01*
X37905Y11568D01*
X37895Y11520D01*
X38090D01*
Y11715D01*
D02*
G37*
G36*
X38385Y11420D02*
X38190D01*
Y11225D01*
X38238Y11235D01*
X38320Y11290D01*
X38375Y11372D01*
X38385Y11420D01*
D02*
G37*
G36*
X38090D02*
X37895D01*
X37905Y11372D01*
X37960Y11290D01*
X38042Y11235D01*
X38090Y11225D01*
Y11420D01*
D02*
G37*
G36*
X38180Y9105D02*
Y8910D01*
X38375D01*
X38365Y8958D01*
X38310Y9040D01*
X38228Y9095D01*
X38180Y9105D01*
D02*
G37*
G36*
X38080D02*
X38032Y9095D01*
X37950Y9040D01*
X37894Y8958D01*
X37885Y8910D01*
X38080D01*
Y9105D01*
D02*
G37*
G36*
X38375Y8810D02*
X38180D01*
Y8615D01*
X38228Y8625D01*
X38310Y8680D01*
X38365Y8762D01*
X38375Y8810D01*
D02*
G37*
G36*
X38080D02*
X37885D01*
X37894Y8762D01*
X37950Y8680D01*
X38032Y8625D01*
X38080Y8615D01*
Y8810D01*
D02*
G37*
G36*
X9000Y8892D02*
X8947Y8885D01*
X8851Y8845D01*
X8768Y8782D01*
X8705Y8699D01*
X8665Y8603D01*
X8658Y8550D01*
X9000D01*
Y8892D01*
D02*
G37*
G36*
Y8450D02*
X8658D01*
X8665Y8397D01*
X8705Y8301D01*
X8768Y8218D01*
X8851Y8155D01*
X8947Y8115D01*
X9000Y8108D01*
Y8450D01*
D02*
G37*
G36*
X12345Y8897D02*
X11755D01*
X11716Y8889D01*
X11683Y8867D01*
X11661Y8834D01*
X11653Y8795D01*
Y8205D01*
X11661Y8166D01*
X11683Y8133D01*
X11716Y8111D01*
X11755Y8103D01*
X12345D01*
X12384Y8111D01*
X12417Y8133D01*
X12439Y8166D01*
X12447Y8205D01*
Y8795D01*
X12439Y8834D01*
X12417Y8867D01*
X12384Y8889D01*
X12345Y8897D01*
D02*
G37*
G36*
X11050Y8899D02*
X10947Y8885D01*
X10851Y8845D01*
X10768Y8782D01*
X10705Y8699D01*
X10665Y8603D01*
X10651Y8500D01*
X10665Y8397D01*
X10705Y8301D01*
X10768Y8218D01*
X10851Y8155D01*
X10947Y8115D01*
X11050Y8101D01*
X11153Y8115D01*
X11249Y8155D01*
X11332Y8218D01*
X11395Y8301D01*
X11435Y8397D01*
X11449Y8500D01*
X11435Y8603D01*
X11395Y8699D01*
X11332Y8782D01*
X11249Y8845D01*
X11153Y8885D01*
X11050Y8899D01*
D02*
G37*
G36*
X38020Y8165D02*
Y7970D01*
X38215D01*
X38205Y8018D01*
X38150Y8100D01*
X38068Y8155D01*
X38020Y8165D01*
D02*
G37*
G36*
X37920D02*
X37872Y8155D01*
X37790Y8100D01*
X37734Y8018D01*
X37725Y7970D01*
X37920D01*
Y8165D01*
D02*
G37*
G36*
X38215Y7870D02*
X38020D01*
Y7675D01*
X38068Y7685D01*
X38150Y7740D01*
X38205Y7822D01*
X38215Y7870D01*
D02*
G37*
G36*
X37920D02*
X37725D01*
X37734Y7822D01*
X37790Y7740D01*
X37872Y7685D01*
X37920Y7675D01*
Y7870D01*
D02*
G37*
G36*
X24290Y4055D02*
X24192Y4035D01*
X24110Y3980D01*
X24055Y3898D01*
X24035Y3800D01*
X24055Y3702D01*
X24110Y3620D01*
X24112Y3619D01*
Y3020D01*
X24051Y2995D01*
X23998Y2955D01*
X23948Y2980D01*
Y3369D01*
X23950Y3370D01*
X24005Y3452D01*
X24025Y3550D01*
X24005Y3648D01*
X23950Y3730D01*
X23868Y3785D01*
X23770Y3805D01*
X23672Y3785D01*
X23590Y3730D01*
X23535Y3648D01*
X23515Y3550D01*
X23535Y3452D01*
X23590Y3370D01*
X23592Y3369D01*
Y2932D01*
X23544Y2916D01*
X23532Y2932D01*
X23449Y2995D01*
X23353Y3035D01*
X23300Y3042D01*
Y2650D01*
Y2258D01*
X23353Y2265D01*
X23449Y2305D01*
X23532Y2368D01*
X23544Y2384D01*
X23592Y2368D01*
Y2080D01*
X23605Y2012D01*
X23644Y1954D01*
X23863Y1735D01*
X23851Y1650D01*
X23865Y1547D01*
X23905Y1451D01*
X23968Y1368D01*
X24051Y1305D01*
X24147Y1265D01*
X24250Y1251D01*
X24353Y1265D01*
X24449Y1305D01*
X24532Y1368D01*
X24595Y1451D01*
X24635Y1547D01*
X24649Y1650D01*
X24635Y1753D01*
X24595Y1849D01*
X24532Y1932D01*
X24449Y1995D01*
X24353Y2035D01*
X24250Y2049D01*
X24147Y2035D01*
X24091Y2012D01*
X23948Y2154D01*
Y2320D01*
X23998Y2345D01*
X24051Y2305D01*
X24147Y2265D01*
X24250Y2251D01*
X24353Y2265D01*
X24449Y2305D01*
X24532Y2368D01*
X24595Y2451D01*
X24635Y2547D01*
X24649Y2650D01*
X24635Y2753D01*
X24595Y2849D01*
X24532Y2932D01*
X24468Y2981D01*
Y3619D01*
X24470Y3620D01*
X24525Y3702D01*
X24545Y3800D01*
X24525Y3898D01*
X24470Y3980D01*
X24388Y4035D01*
X24290Y4055D01*
D02*
G37*
G36*
X31300Y3042D02*
Y2700D01*
X31642D01*
X31635Y2753D01*
X31595Y2849D01*
X31532Y2932D01*
X31449Y2995D01*
X31353Y3035D01*
X31300Y3042D01*
D02*
G37*
G36*
X16300D02*
Y2700D01*
X16642D01*
X16635Y2753D01*
X16595Y2849D01*
X16532Y2932D01*
X16449Y2995D01*
X16353Y3035D01*
X16300Y3042D01*
D02*
G37*
G36*
X31200D02*
X31147Y3035D01*
X31051Y2995D01*
X30968Y2932D01*
X30905Y2849D01*
X30865Y2753D01*
X30858Y2700D01*
X31200D01*
Y3042D01*
D02*
G37*
G36*
X16200D02*
X16147Y3035D01*
X16051Y2995D01*
X15968Y2932D01*
X15905Y2849D01*
X15865Y2753D01*
X15858Y2700D01*
X16200D01*
Y3042D01*
D02*
G37*
G36*
X23200D02*
X23147Y3035D01*
X23051Y2995D01*
X22968Y2932D01*
X22905Y2849D01*
X22865Y2753D01*
X22858Y2700D01*
X23200D01*
Y3042D01*
D02*
G37*
G36*
X31642Y2600D02*
X31300D01*
Y2258D01*
X31353Y2265D01*
X31449Y2305D01*
X31532Y2368D01*
X31595Y2451D01*
X31635Y2547D01*
X31642Y2600D01*
D02*
G37*
G36*
X16642D02*
X16300D01*
Y2258D01*
X16353Y2265D01*
X16449Y2305D01*
X16532Y2368D01*
X16595Y2451D01*
X16635Y2547D01*
X16642Y2600D01*
D02*
G37*
G36*
X31200D02*
X30858D01*
X30865Y2547D01*
X30905Y2451D01*
X30968Y2368D01*
X31051Y2305D01*
X31147Y2265D01*
X31200Y2258D01*
Y2600D01*
D02*
G37*
G36*
X23200D02*
X22858D01*
X22865Y2547D01*
X22905Y2451D01*
X22968Y2368D01*
X23051Y2305D01*
X23147Y2265D01*
X23200Y2258D01*
Y2600D01*
D02*
G37*
G36*
X16200D02*
X15858D01*
X15865Y2547D01*
X15905Y2451D01*
X15968Y2368D01*
X16051Y2305D01*
X16147Y2265D01*
X16200Y2258D01*
Y2600D01*
D02*
G37*
G36*
X31710Y3875D02*
X31612Y3855D01*
X31530Y3800D01*
X31474Y3718D01*
X31455Y3620D01*
X31474Y3522D01*
X31530Y3440D01*
X31612Y3385D01*
X31710Y3365D01*
X31808Y3385D01*
X31855Y3416D01*
X34736D01*
X35046Y3106D01*
Y3047D01*
X34955D01*
X34916Y3039D01*
X34883Y3017D01*
X34861Y2984D01*
X34853Y2945D01*
Y2355D01*
X34861Y2316D01*
X34883Y2283D01*
X34916Y2261D01*
X34955Y2253D01*
X35545D01*
X35584Y2261D01*
X35617Y2283D01*
X35639Y2316D01*
X35647Y2355D01*
Y2945D01*
X35639Y2984D01*
X35617Y3017D01*
X35584Y3039D01*
X35545Y3047D01*
X35454D01*
Y3190D01*
X35438Y3268D01*
X35394Y3334D01*
X34964Y3764D01*
X34898Y3808D01*
X34820Y3824D01*
X31855D01*
X31808Y3855D01*
X31710Y3875D01*
D02*
G37*
G36*
X34250Y3049D02*
X34147Y3035D01*
X34051Y2995D01*
X33968Y2932D01*
X33905Y2849D01*
X33865Y2753D01*
X33851Y2650D01*
X33865Y2547D01*
X33905Y2451D01*
X33968Y2368D01*
X34051Y2305D01*
X34147Y2265D01*
X34250Y2251D01*
X34353Y2265D01*
X34449Y2305D01*
X34532Y2368D01*
X34595Y2451D01*
X34635Y2547D01*
X34649Y2650D01*
X34635Y2753D01*
X34595Y2849D01*
X34532Y2932D01*
X34449Y2995D01*
X34353Y3035D01*
X34250Y3049D01*
D02*
G37*
G36*
X33250D02*
X33147Y3035D01*
X33051Y2995D01*
X32968Y2932D01*
X32905Y2849D01*
X32865Y2753D01*
X32851Y2650D01*
X32865Y2547D01*
X32905Y2451D01*
X32968Y2368D01*
X33051Y2305D01*
X33147Y2265D01*
X33250Y2251D01*
X33353Y2265D01*
X33449Y2305D01*
X33532Y2368D01*
X33595Y2451D01*
X33635Y2547D01*
X33649Y2650D01*
X33635Y2753D01*
X33595Y2849D01*
X33532Y2932D01*
X33449Y2995D01*
X33353Y3035D01*
X33250Y3049D01*
D02*
G37*
G36*
X32250D02*
X32147Y3035D01*
X32051Y2995D01*
X31968Y2932D01*
X31905Y2849D01*
X31865Y2753D01*
X31851Y2650D01*
X31865Y2547D01*
X31905Y2451D01*
X31968Y2368D01*
X32051Y2305D01*
X32147Y2265D01*
X32250Y2251D01*
X32353Y2265D01*
X32449Y2305D01*
X32532Y2368D01*
X32595Y2451D01*
X32635Y2547D01*
X32649Y2650D01*
X32635Y2753D01*
X32595Y2849D01*
X32532Y2932D01*
X32449Y2995D01*
X32353Y3035D01*
X32250Y3049D01*
D02*
G37*
G36*
X30250D02*
X30147Y3035D01*
X30051Y2995D01*
X29968Y2932D01*
X29905Y2849D01*
X29865Y2753D01*
X29851Y2650D01*
X29865Y2547D01*
X29905Y2451D01*
X29968Y2368D01*
X30051Y2305D01*
X30147Y2265D01*
X30250Y2251D01*
X30353Y2265D01*
X30449Y2305D01*
X30532Y2368D01*
X30595Y2451D01*
X30635Y2547D01*
X30649Y2650D01*
X30635Y2753D01*
X30595Y2849D01*
X30532Y2932D01*
X30449Y2995D01*
X30353Y3035D01*
X30250Y3049D01*
D02*
G37*
G36*
X29250D02*
X29147Y3035D01*
X29051Y2995D01*
X28968Y2932D01*
X28905Y2849D01*
X28865Y2753D01*
X28851Y2650D01*
X28865Y2547D01*
X28905Y2451D01*
X28968Y2368D01*
X29051Y2305D01*
X29147Y2265D01*
X29250Y2251D01*
X29353Y2265D01*
X29449Y2305D01*
X29532Y2368D01*
X29595Y2451D01*
X29635Y2547D01*
X29649Y2650D01*
X29635Y2753D01*
X29595Y2849D01*
X29532Y2932D01*
X29449Y2995D01*
X29353Y3035D01*
X29250Y3049D01*
D02*
G37*
G36*
X28250D02*
X28147Y3035D01*
X28051Y2995D01*
X27968Y2932D01*
X27905Y2849D01*
X27865Y2753D01*
X27851Y2650D01*
X27865Y2547D01*
X27905Y2451D01*
X27968Y2368D01*
X28051Y2305D01*
X28147Y2265D01*
X28250Y2251D01*
X28353Y2265D01*
X28449Y2305D01*
X28532Y2368D01*
X28595Y2451D01*
X28635Y2547D01*
X28649Y2650D01*
X28635Y2753D01*
X28595Y2849D01*
X28532Y2932D01*
X28449Y2995D01*
X28353Y3035D01*
X28250Y3049D01*
D02*
G37*
G36*
X27250D02*
X27147Y3035D01*
X27051Y2995D01*
X26968Y2932D01*
X26905Y2849D01*
X26865Y2753D01*
X26851Y2650D01*
X26865Y2547D01*
X26905Y2451D01*
X26968Y2368D01*
X27051Y2305D01*
X27147Y2265D01*
X27250Y2251D01*
X27353Y2265D01*
X27449Y2305D01*
X27532Y2368D01*
X27595Y2451D01*
X27635Y2547D01*
X27649Y2650D01*
X27635Y2753D01*
X27595Y2849D01*
X27532Y2932D01*
X27449Y2995D01*
X27353Y3035D01*
X27250Y3049D01*
D02*
G37*
G36*
X26260Y3935D02*
X26162Y3916D01*
X26080Y3860D01*
X26024Y3778D01*
X26005Y3680D01*
X26024Y3582D01*
X26080Y3500D01*
X26092Y3492D01*
Y3012D01*
X26051Y2995D01*
X25968Y2932D01*
X25905Y2849D01*
X25865Y2753D01*
X25851Y2650D01*
X25865Y2547D01*
X25905Y2451D01*
X25968Y2368D01*
X26051Y2305D01*
X26147Y2265D01*
X26250Y2251D01*
X26353Y2265D01*
X26449Y2305D01*
X26532Y2368D01*
X26595Y2451D01*
X26635Y2547D01*
X26649Y2650D01*
X26635Y2753D01*
X26595Y2849D01*
X26532Y2932D01*
X26449Y2995D01*
X26448Y2996D01*
Y3512D01*
X26495Y3582D01*
X26515Y3680D01*
X26495Y3778D01*
X26440Y3860D01*
X26358Y3916D01*
X26260Y3935D01*
D02*
G37*
G36*
X25310Y4695D02*
X25212Y4676D01*
X25130Y4620D01*
X25075Y4538D01*
X25055Y4440D01*
X25072Y4357D01*
Y3004D01*
X25051Y2995D01*
X24968Y2932D01*
X24905Y2849D01*
X24865Y2753D01*
X24851Y2650D01*
X24865Y2547D01*
X24905Y2451D01*
X24968Y2368D01*
X25051Y2305D01*
X25147Y2265D01*
X25250Y2251D01*
X25353Y2265D01*
X25449Y2305D01*
X25532Y2368D01*
X25595Y2451D01*
X25635Y2547D01*
X25649Y2650D01*
X25635Y2753D01*
X25595Y2849D01*
X25532Y2932D01*
X25449Y2995D01*
X25428Y3004D01*
Y4218D01*
X25490Y4260D01*
X25545Y4342D01*
X25565Y4440D01*
X25545Y4538D01*
X25490Y4620D01*
X25408Y4676D01*
X25310Y4695D01*
D02*
G37*
G36*
X22250Y3049D02*
X22147Y3035D01*
X22051Y2995D01*
X21968Y2932D01*
X21905Y2849D01*
X21865Y2753D01*
X21851Y2650D01*
X21865Y2547D01*
X21905Y2451D01*
X21968Y2368D01*
X22051Y2305D01*
X22147Y2265D01*
X22250Y2251D01*
X22353Y2265D01*
X22449Y2305D01*
X22532Y2368D01*
X22595Y2451D01*
X22635Y2547D01*
X22649Y2650D01*
X22635Y2753D01*
X22595Y2849D01*
X22532Y2932D01*
X22449Y2995D01*
X22353Y3035D01*
X22250Y3049D01*
D02*
G37*
G36*
X19250D02*
X19147Y3035D01*
X19051Y2995D01*
X18968Y2932D01*
X18905Y2849D01*
X18865Y2753D01*
X18851Y2650D01*
X18865Y2547D01*
X18905Y2451D01*
X18968Y2368D01*
X19051Y2305D01*
X19147Y2265D01*
X19250Y2251D01*
X19353Y2265D01*
X19449Y2305D01*
X19532Y2368D01*
X19595Y2451D01*
X19635Y2547D01*
X19649Y2650D01*
X19635Y2753D01*
X19595Y2849D01*
X19532Y2932D01*
X19449Y2995D01*
X19353Y3035D01*
X19250Y3049D01*
D02*
G37*
G36*
X33300Y2042D02*
Y1700D01*
X33642D01*
X33635Y1753D01*
X33595Y1849D01*
X33532Y1932D01*
X33449Y1995D01*
X33353Y2035D01*
X33300Y2042D01*
D02*
G37*
G36*
X26300D02*
Y1700D01*
X26642D01*
X26635Y1753D01*
X26595Y1849D01*
X26532Y1932D01*
X26449Y1995D01*
X26353Y2035D01*
X26300Y2042D01*
D02*
G37*
G36*
X29300D02*
Y1700D01*
X29642D01*
X29635Y1753D01*
X29595Y1849D01*
X29532Y1932D01*
X29449Y1995D01*
X29353Y2035D01*
X29300Y2042D01*
D02*
G37*
G36*
X21300D02*
Y1700D01*
X21642D01*
X21635Y1753D01*
X21595Y1849D01*
X21532Y1932D01*
X21449Y1995D01*
X21353Y2035D01*
X21300Y2042D01*
D02*
G37*
G36*
X19300D02*
Y1700D01*
X19642D01*
X19635Y1753D01*
X19595Y1849D01*
X19532Y1932D01*
X19449Y1995D01*
X19353Y2035D01*
X19300Y2042D01*
D02*
G37*
G36*
X33200D02*
X33147Y2035D01*
X33051Y1995D01*
X32968Y1932D01*
X32905Y1849D01*
X32865Y1753D01*
X32858Y1700D01*
X33200D01*
Y2042D01*
D02*
G37*
G36*
X26200D02*
X26147Y2035D01*
X26051Y1995D01*
X25968Y1932D01*
X25905Y1849D01*
X25865Y1753D01*
X25858Y1700D01*
X26200D01*
Y2042D01*
D02*
G37*
G36*
X29200D02*
X29147Y2035D01*
X29051Y1995D01*
X28968Y1932D01*
X28905Y1849D01*
X28865Y1753D01*
X28858Y1700D01*
X29200D01*
Y2042D01*
D02*
G37*
G36*
X21200D02*
X21147Y2035D01*
X21051Y1995D01*
X20968Y1932D01*
X20905Y1849D01*
X20865Y1753D01*
X20858Y1700D01*
X21200D01*
Y2042D01*
D02*
G37*
G36*
X19200D02*
X19147Y2035D01*
X19051Y1995D01*
X18968Y1932D01*
X18905Y1849D01*
X18865Y1753D01*
X18858Y1700D01*
X19200D01*
Y2042D01*
D02*
G37*
G36*
X33642Y1600D02*
X33300D01*
Y1258D01*
X33353Y1265D01*
X33449Y1305D01*
X33532Y1368D01*
X33595Y1451D01*
X33635Y1547D01*
X33642Y1600D01*
D02*
G37*
G36*
X29642D02*
X29300D01*
Y1258D01*
X29353Y1265D01*
X29449Y1305D01*
X29532Y1368D01*
X29595Y1451D01*
X29635Y1547D01*
X29642Y1600D01*
D02*
G37*
G36*
X26642D02*
X26300D01*
Y1258D01*
X26353Y1265D01*
X26449Y1305D01*
X26532Y1368D01*
X26595Y1451D01*
X26635Y1547D01*
X26642Y1600D01*
D02*
G37*
G36*
X21642D02*
X21300D01*
Y1258D01*
X21353Y1265D01*
X21449Y1305D01*
X21532Y1368D01*
X21595Y1451D01*
X21635Y1547D01*
X21642Y1600D01*
D02*
G37*
G36*
X19642D02*
X19300D01*
Y1258D01*
X19353Y1265D01*
X19449Y1305D01*
X19532Y1368D01*
X19595Y1451D01*
X19635Y1547D01*
X19642Y1600D01*
D02*
G37*
G36*
X33200D02*
X32858D01*
X32865Y1547D01*
X32905Y1451D01*
X32968Y1368D01*
X33051Y1305D01*
X33147Y1265D01*
X33200Y1258D01*
Y1600D01*
D02*
G37*
G36*
X29200D02*
X28858D01*
X28865Y1547D01*
X28905Y1451D01*
X28968Y1368D01*
X29051Y1305D01*
X29147Y1265D01*
X29200Y1258D01*
Y1600D01*
D02*
G37*
G36*
X26200D02*
X25858D01*
X25865Y1547D01*
X25905Y1451D01*
X25968Y1368D01*
X26051Y1305D01*
X26147Y1265D01*
X26200Y1258D01*
Y1600D01*
D02*
G37*
G36*
X21200D02*
X20858D01*
X20865Y1547D01*
X20905Y1451D01*
X20968Y1368D01*
X21051Y1305D01*
X21147Y1265D01*
X21200Y1258D01*
Y1600D01*
D02*
G37*
G36*
X19200D02*
X18858D01*
X18865Y1547D01*
X18905Y1451D01*
X18968Y1368D01*
X19051Y1305D01*
X19147Y1265D01*
X19200Y1258D01*
Y1600D01*
D02*
G37*
G36*
X35250Y2049D02*
X35147Y2035D01*
X35051Y1995D01*
X34968Y1932D01*
X34905Y1849D01*
X34865Y1753D01*
X34851Y1650D01*
X34865Y1547D01*
X34905Y1451D01*
X34968Y1368D01*
X35051Y1305D01*
X35147Y1265D01*
X35250Y1251D01*
X35353Y1265D01*
X35449Y1305D01*
X35532Y1368D01*
X35595Y1451D01*
X35635Y1547D01*
X35649Y1650D01*
X35635Y1753D01*
X35595Y1849D01*
X35532Y1932D01*
X35449Y1995D01*
X35353Y2035D01*
X35250Y2049D01*
D02*
G37*
G36*
X34250D02*
X34147Y2035D01*
X34051Y1995D01*
X33968Y1932D01*
X33905Y1849D01*
X33865Y1753D01*
X33851Y1650D01*
X33865Y1547D01*
X33905Y1451D01*
X33968Y1368D01*
X34051Y1305D01*
X34147Y1265D01*
X34250Y1251D01*
X34353Y1265D01*
X34449Y1305D01*
X34532Y1368D01*
X34595Y1451D01*
X34635Y1547D01*
X34649Y1650D01*
X34635Y1753D01*
X34595Y1849D01*
X34532Y1932D01*
X34449Y1995D01*
X34353Y2035D01*
X34250Y2049D01*
D02*
G37*
G36*
X32250D02*
X32147Y2035D01*
X32051Y1995D01*
X31968Y1932D01*
X31905Y1849D01*
X31865Y1753D01*
X31851Y1650D01*
X31865Y1547D01*
X31905Y1451D01*
X31968Y1368D01*
X32051Y1305D01*
X32147Y1265D01*
X32250Y1251D01*
X32353Y1265D01*
X32449Y1305D01*
X32532Y1368D01*
X32595Y1451D01*
X32635Y1547D01*
X32649Y1650D01*
X32635Y1753D01*
X32595Y1849D01*
X32532Y1932D01*
X32449Y1995D01*
X32353Y2035D01*
X32250Y2049D01*
D02*
G37*
G36*
X31250D02*
X31147Y2035D01*
X31051Y1995D01*
X30968Y1932D01*
X30905Y1849D01*
X30865Y1753D01*
X30851Y1650D01*
X30865Y1547D01*
X30905Y1451D01*
X30968Y1368D01*
X31051Y1305D01*
X31147Y1265D01*
X31250Y1251D01*
X31353Y1265D01*
X31449Y1305D01*
X31532Y1368D01*
X31595Y1451D01*
X31635Y1547D01*
X31649Y1650D01*
X31635Y1753D01*
X31595Y1849D01*
X31532Y1932D01*
X31449Y1995D01*
X31353Y2035D01*
X31250Y2049D01*
D02*
G37*
G36*
X30250D02*
X30147Y2035D01*
X30051Y1995D01*
X29968Y1932D01*
X29905Y1849D01*
X29865Y1753D01*
X29851Y1650D01*
X29865Y1547D01*
X29905Y1451D01*
X29968Y1368D01*
X30051Y1305D01*
X30147Y1265D01*
X30250Y1251D01*
X30353Y1265D01*
X30449Y1305D01*
X30532Y1368D01*
X30595Y1451D01*
X30635Y1547D01*
X30649Y1650D01*
X30635Y1753D01*
X30595Y1849D01*
X30532Y1932D01*
X30449Y1995D01*
X30353Y2035D01*
X30250Y2049D01*
D02*
G37*
G36*
X28250D02*
X28147Y2035D01*
X28051Y1995D01*
X27968Y1932D01*
X27905Y1849D01*
X27865Y1753D01*
X27851Y1650D01*
X27865Y1547D01*
X27905Y1451D01*
X27968Y1368D01*
X28051Y1305D01*
X28147Y1265D01*
X28250Y1251D01*
X28353Y1265D01*
X28449Y1305D01*
X28532Y1368D01*
X28595Y1451D01*
X28635Y1547D01*
X28649Y1650D01*
X28635Y1753D01*
X28595Y1849D01*
X28532Y1932D01*
X28449Y1995D01*
X28353Y2035D01*
X28250Y2049D01*
D02*
G37*
G36*
X27250D02*
X27147Y2035D01*
X27051Y1995D01*
X26968Y1932D01*
X26905Y1849D01*
X26865Y1753D01*
X26851Y1650D01*
X26865Y1547D01*
X26905Y1451D01*
X26968Y1368D01*
X27051Y1305D01*
X27147Y1265D01*
X27250Y1251D01*
X27353Y1265D01*
X27449Y1305D01*
X27532Y1368D01*
X27595Y1451D01*
X27635Y1547D01*
X27649Y1650D01*
X27635Y1753D01*
X27595Y1849D01*
X27532Y1932D01*
X27449Y1995D01*
X27353Y2035D01*
X27250Y2049D01*
D02*
G37*
G36*
X25250D02*
X25147Y2035D01*
X25051Y1995D01*
X24968Y1932D01*
X24905Y1849D01*
X24865Y1753D01*
X24851Y1650D01*
X24865Y1547D01*
X24905Y1451D01*
X24968Y1368D01*
X25051Y1305D01*
X25147Y1265D01*
X25250Y1251D01*
X25353Y1265D01*
X25449Y1305D01*
X25532Y1368D01*
X25595Y1451D01*
X25635Y1547D01*
X25649Y1650D01*
X25635Y1753D01*
X25595Y1849D01*
X25532Y1932D01*
X25449Y1995D01*
X25353Y2035D01*
X25250Y2049D01*
D02*
G37*
G36*
X23250D02*
X23147Y2035D01*
X23051Y1995D01*
X22968Y1932D01*
X22905Y1849D01*
X22865Y1753D01*
X22851Y1650D01*
X22865Y1547D01*
X22905Y1451D01*
X22968Y1368D01*
X23051Y1305D01*
X23147Y1265D01*
X23250Y1251D01*
X23353Y1265D01*
X23449Y1305D01*
X23532Y1368D01*
X23595Y1451D01*
X23635Y1547D01*
X23649Y1650D01*
X23635Y1753D01*
X23595Y1849D01*
X23532Y1932D01*
X23449Y1995D01*
X23353Y2035D01*
X23250Y2049D01*
D02*
G37*
G36*
X22250D02*
X22147Y2035D01*
X22051Y1995D01*
X21968Y1932D01*
X21905Y1849D01*
X21865Y1753D01*
X21851Y1650D01*
X21865Y1547D01*
X21905Y1451D01*
X21968Y1368D01*
X22051Y1305D01*
X22147Y1265D01*
X22250Y1251D01*
X22353Y1265D01*
X22449Y1305D01*
X22532Y1368D01*
X22595Y1451D01*
X22635Y1547D01*
X22649Y1650D01*
X22635Y1753D01*
X22595Y1849D01*
X22532Y1932D01*
X22449Y1995D01*
X22353Y2035D01*
X22250Y2049D01*
D02*
G37*
G36*
X17250D02*
X17147Y2035D01*
X17051Y1995D01*
X16968Y1932D01*
X16905Y1849D01*
X16865Y1753D01*
X16851Y1650D01*
X16865Y1547D01*
X16905Y1451D01*
X16968Y1368D01*
X17051Y1305D01*
X17147Y1265D01*
X17250Y1251D01*
X17353Y1265D01*
X17449Y1305D01*
X17532Y1368D01*
X17595Y1451D01*
X17635Y1547D01*
X17649Y1650D01*
X17635Y1753D01*
X17595Y1849D01*
X17532Y1932D01*
X17449Y1995D01*
X17353Y2035D01*
X17250Y2049D01*
D02*
G37*
G36*
X16250D02*
X16147Y2035D01*
X16051Y1995D01*
X15968Y1932D01*
X15905Y1849D01*
X15865Y1753D01*
X15851Y1650D01*
X15865Y1547D01*
X15905Y1451D01*
X15968Y1368D01*
X16051Y1305D01*
X16147Y1265D01*
X16250Y1251D01*
X16353Y1265D01*
X16449Y1305D01*
X16532Y1368D01*
X16595Y1451D01*
X16635Y1547D01*
X16649Y1650D01*
X16635Y1753D01*
X16595Y1849D01*
X16532Y1932D01*
X16449Y1995D01*
X16353Y2035D01*
X16250Y2049D01*
D02*
G37*
G36*
X37241Y3285D02*
X37034Y3269D01*
X36832Y3220D01*
X36640Y3141D01*
X36463Y3032D01*
X36305Y2897D01*
X36170Y2739D01*
X36061Y2562D01*
X35982Y2370D01*
X35933Y2168D01*
X35917Y1961D01*
X35933Y1753D01*
X35982Y1551D01*
X36061Y1359D01*
X36170Y1182D01*
X36305Y1024D01*
X36463Y889D01*
X36640Y780D01*
X36832Y701D01*
X37034Y652D01*
X37241Y636D01*
X37449Y652D01*
X37651Y701D01*
X37843Y780D01*
X38020Y889D01*
X38178Y1024D01*
X38313Y1182D01*
X38422Y1359D01*
X38501Y1551D01*
X38550Y1753D01*
X38566Y1961D01*
X38550Y2168D01*
X38501Y2370D01*
X38422Y2562D01*
X38313Y2739D01*
X38178Y2897D01*
X38020Y3032D01*
X37843Y3141D01*
X37651Y3220D01*
X37449Y3269D01*
X37241Y3285D01*
D02*
G37*
G36*
X14407D02*
X14199Y3269D01*
X13997Y3220D01*
X13805Y3141D01*
X13628Y3032D01*
X13470Y2897D01*
X13335Y2739D01*
X13226Y2562D01*
X13147Y2370D01*
X13098Y2168D01*
X13082Y1961D01*
X13098Y1753D01*
X13147Y1551D01*
X13226Y1359D01*
X13335Y1182D01*
X13470Y1024D01*
X13628Y889D01*
X13805Y780D01*
X13997Y701D01*
X14199Y652D01*
X14407Y636D01*
X14614Y652D01*
X14816Y701D01*
X15008Y780D01*
X15185Y889D01*
X15343Y1024D01*
X15478Y1182D01*
X15587Y1359D01*
X15666Y1551D01*
X15715Y1753D01*
X15731Y1961D01*
X15715Y2168D01*
X15666Y2370D01*
X15587Y2562D01*
X15478Y2739D01*
X15343Y2897D01*
X15185Y3032D01*
X15008Y3141D01*
X14816Y3220D01*
X14614Y3269D01*
X14407Y3285D01*
D02*
G37*
G36*
X11050Y5515D02*
X10952Y5495D01*
X10870Y5440D01*
X10814Y5358D01*
X10795Y5260D01*
X10814Y5162D01*
X10870Y5080D01*
X10872Y5079D01*
Y710D01*
X10885Y642D01*
X10888Y637D01*
X10885Y620D01*
X10905Y522D01*
X10960Y440D01*
X11042Y384D01*
X11140Y365D01*
X11238Y384D01*
X11320Y440D01*
X11375Y522D01*
X11395Y620D01*
X11375Y718D01*
X11320Y800D01*
X11238Y855D01*
X11228Y857D01*
Y5079D01*
X11230Y5080D01*
X11286Y5162D01*
X11305Y5260D01*
X11286Y5358D01*
X11230Y5440D01*
X11148Y5495D01*
X11050Y5515D01*
D02*
G37*
%LPD*%
G36*
X36560Y6410D02*
X36410Y6260D01*
X32816Y6263D01*
X32795Y6313D01*
X33836Y7354D01*
X33880Y7411D01*
X33908Y7478D01*
X33917Y7550D01*
X33908Y7622D01*
X33880Y7689D01*
X33836Y7746D01*
X33779Y7790D01*
X33712Y7818D01*
X33640Y7827D01*
X33568Y7818D01*
X33501Y7790D01*
X33444Y7746D01*
X32465Y6767D01*
X13356D01*
X13320Y6803D01*
X13430Y15730D01*
X22980Y15727D01*
Y13300D01*
X26610D01*
Y15730D01*
X34935D01*
X34938Y15729D01*
X34962Y15724D01*
X34963Y15724D01*
X34966Y15723D01*
X35030Y15710D01*
X35040D01*
X35050Y15708D01*
X35060Y15710D01*
X35070D01*
X35134Y15723D01*
X35137Y15724D01*
X35138Y15724D01*
X35162Y15729D01*
X35165Y15730D01*
X36560D01*
Y6410D01*
D02*
G37*
G36*
X20483Y6163D02*
X20450Y6140D01*
X20394Y6058D01*
X20375Y5960D01*
X20394Y5862D01*
X20450Y5780D01*
X20462Y5772D01*
Y3045D01*
X20462Y3044D01*
X20418Y3008D01*
X20353Y3035D01*
X20250Y3049D01*
X20147Y3035D01*
X20126Y3026D01*
X20068Y3084D01*
Y5779D01*
X20070Y5780D01*
X20126Y5862D01*
X20145Y5960D01*
X20126Y6058D01*
X20070Y6140D01*
X20037Y6163D01*
X20052Y6213D01*
X20468D01*
X20483Y6163D01*
D02*
G37*
G36*
X21403D02*
X21340Y6120D01*
X21284Y6038D01*
X21265Y5940D01*
X21284Y5842D01*
X21340Y5760D01*
X21342Y5759D01*
Y3174D01*
X21211Y3044D01*
X21147Y3035D01*
X21051Y2995D01*
X20968Y2932D01*
X20949Y2907D01*
X20899Y2924D01*
Y2965D01*
X20885Y3033D01*
X20846Y3091D01*
X20846Y3091D01*
X20818Y3119D01*
Y5792D01*
X20865Y5862D01*
X20885Y5960D01*
X20865Y6058D01*
X20810Y6140D01*
X20777Y6163D01*
X20792Y6213D01*
X21388D01*
X21403Y6163D01*
D02*
G37*
%LPC*%
G36*
X35050Y13292D02*
X35040Y13290D01*
X35030D01*
X34966Y13277D01*
X34963Y13276D01*
X34962Y13276D01*
X34938Y13271D01*
X34902Y13256D01*
X34902Y13256D01*
X34882Y13243D01*
X34881Y13243D01*
X34879Y13241D01*
X34824Y13204D01*
X34796Y13176D01*
X34796Y13176D01*
X34759Y13121D01*
X34757Y13119D01*
X34757Y13118D01*
X34744Y13098D01*
X34744Y13098D01*
X34729Y13062D01*
X34724Y13038D01*
X34724Y13037D01*
X34723Y13034D01*
X34710Y12970D01*
Y12930D01*
X34723Y12866D01*
X34724Y12863D01*
X34724Y12862D01*
X34729Y12838D01*
X34744Y12802D01*
X34744Y12802D01*
X34757Y12782D01*
X34757Y12781D01*
X34759Y12779D01*
X34796Y12724D01*
X34824Y12696D01*
X34824Y12696D01*
X34879Y12659D01*
X34881Y12657D01*
X34882Y12657D01*
X34902Y12644D01*
X34902Y12644D01*
X34938Y12629D01*
X34962Y12624D01*
X34963Y12624D01*
X34966Y12623D01*
X35030Y12610D01*
X35040D01*
X35050Y12608D01*
X35060Y12610D01*
X35070D01*
X35134Y12623D01*
X35137Y12624D01*
X35138Y12624D01*
X35162Y12629D01*
X35198Y12644D01*
X35198Y12644D01*
X35218Y12657D01*
X35219Y12657D01*
X35221Y12659D01*
X35276Y12696D01*
X35304Y12724D01*
X35304Y12724D01*
X35341Y12779D01*
X35343Y12781D01*
X35343Y12782D01*
X35356Y12802D01*
X35356Y12802D01*
X35371Y12838D01*
X35376Y12862D01*
X35376Y12863D01*
X35377Y12866D01*
X35390Y12930D01*
Y12970D01*
X35377Y13034D01*
X35376Y13037D01*
X35376Y13038D01*
X35371Y13062D01*
X35356Y13098D01*
X35356Y13098D01*
X35343Y13118D01*
X35343Y13119D01*
X35341Y13121D01*
X35304Y13176D01*
X35276Y13204D01*
X35276Y13204D01*
X35221Y13241D01*
X35219Y13243D01*
X35218Y13243D01*
X35198Y13256D01*
X35198Y13256D01*
X35162Y13271D01*
X35138Y13276D01*
X35137Y13276D01*
X35134Y13277D01*
X35070Y13290D01*
X35060D01*
X35050Y13292D01*
D02*
G37*
%LPD*%
D63*
X19630Y25460D02*
G03*
X20011Y25302I381J381D01*
G01*
X18730Y27990D02*
X19390Y28650D01*
X20011Y25302D02*
X23350D01*
X10050Y6490D02*
Y8500D01*
Y6490D02*
X32580D01*
X33640Y7550D01*
X19390Y28650D02*
Y29205D01*
D64*
X17720Y2180D02*
X18250Y1650D01*
X20250D02*
X20720Y2120D01*
Y2965D01*
X20000Y34330D02*
X20640Y33690D01*
X21160Y2740D02*
X21250Y2650D01*
X7530Y18520D02*
Y33080D01*
X5950Y32600D02*
X5990D01*
X7120Y18920D02*
Y32110D01*
X6950Y18750D02*
X7120Y18920D01*
X5950Y18340D02*
Y32600D01*
X24200Y1650D02*
X24250D01*
X23770Y2080D02*
X24200Y1650D01*
X23770Y2080D02*
Y3550D01*
X9580Y14030D02*
X10050Y14500D01*
X13000Y31450D02*
X13011Y31439D01*
X9580Y3750D02*
Y14030D01*
X9560Y3730D02*
X9580Y3750D01*
X24250Y2650D02*
X24290Y2690D01*
X26250Y2650D02*
X26270Y2670D01*
X11050Y710D02*
X11140Y620D01*
X20640Y26770D02*
Y33690D01*
X13011Y27280D02*
Y31439D01*
X16000Y27170D02*
Y28900D01*
X15980Y27150D02*
X16000Y27170D01*
X17720Y2180D02*
Y5940D01*
X24290Y2690D02*
Y3800D01*
X26260Y3680D02*
X26270Y3670D01*
X26280Y3660D01*
X26270Y2670D02*
Y3670D01*
X25250Y2650D02*
Y4380D01*
X25310Y4440D01*
X19890Y3010D02*
Y5960D01*
Y3010D02*
X20250Y2650D01*
X21160Y2740D02*
X21520Y3100D01*
Y5940D01*
X20640Y3045D02*
X20720Y2965D01*
X20640Y3045D02*
Y5960D01*
X11050Y710D02*
Y5260D01*
X18980Y34900D02*
X19820D01*
X20830Y35910D01*
X26500D01*
X27050Y36460D01*
Y36900D01*
D65*
X11050Y37395D02*
Y37900D01*
X10672Y37395D02*
X11050D01*
X10555Y37278D02*
X10672Y37395D01*
X10555Y36405D02*
Y37278D01*
Y36405D02*
X11050Y35909D01*
Y34210D02*
Y35909D01*
X11030Y30600D02*
Y34190D01*
X11050Y34210D01*
X31710Y3620D02*
X34820D01*
X35250Y3190D01*
Y2650D02*
Y3190D01*
X16640Y33700D02*
X19040D01*
X15900Y34440D02*
X16640Y33700D01*
X15900Y34440D02*
Y37700D01*
X15700Y37900D02*
X15900Y37700D01*
D69*
X25360Y13760D02*
Y15950D01*
D70*
X25350Y34300D02*
D03*
Y31200D02*
D03*
Y28100D02*
D03*
X25360Y25020D02*
D03*
X25350Y14500D02*
D03*
X25340Y17620D02*
D03*
D71*
X35050Y35850D02*
D03*
Y32750D02*
D03*
D03*
Y29650D02*
D03*
D03*
Y26550D02*
D03*
X35060Y26570D02*
D03*
Y23470D02*
D03*
X35050Y16050D02*
D03*
Y12950D02*
D03*
X35040Y19170D02*
D03*
Y16070D02*
D03*
D72*
X9050Y14500D02*
D03*
X10050D02*
D03*
X11050D02*
D03*
X10050Y36900D02*
D03*
X9050D02*
D03*
X8050D02*
D03*
X4050D02*
D03*
X5050D02*
D03*
X6050D02*
D03*
X7050D02*
D03*
X26050D02*
D03*
X25050D02*
D03*
X24050D02*
D03*
X23050D02*
D03*
X22050D02*
D03*
X21050D02*
D03*
X20050D02*
D03*
X10050Y37900D02*
D03*
X9050D02*
D03*
X8050D02*
D03*
X7050D02*
D03*
X6050D02*
D03*
X5050D02*
D03*
X4050D02*
D03*
X26050D02*
D03*
X25050D02*
D03*
X24050D02*
D03*
X23050D02*
D03*
X22050D02*
D03*
X21050D02*
D03*
X20050D02*
D03*
X10050Y38900D02*
D03*
X9050D02*
D03*
X8050D02*
D03*
X7050D02*
D03*
X6050D02*
D03*
X5050D02*
D03*
X4050D02*
D03*
X23250Y34298D02*
D03*
X23350Y28098D02*
D03*
X26050Y38900D02*
D03*
X25050D02*
D03*
X24050D02*
D03*
X23050D02*
D03*
X22050D02*
D03*
X21050D02*
D03*
X20050D02*
D03*
X9050Y8500D02*
D03*
X10050D02*
D03*
X11050D02*
D03*
X9050Y11500D02*
D03*
Y10500D02*
D03*
X16250Y1650D02*
D03*
Y2650D02*
D03*
X17250Y1650D02*
D03*
Y2650D02*
D03*
X18250Y1650D02*
D03*
Y2650D02*
D03*
X19250Y1650D02*
D03*
Y2650D02*
D03*
X20250Y1650D02*
D03*
Y2650D02*
D03*
X21250Y1650D02*
D03*
Y2650D02*
D03*
X22250Y1650D02*
D03*
Y2650D02*
D03*
X23250Y1650D02*
D03*
Y2650D02*
D03*
X24250Y1650D02*
D03*
Y2650D02*
D03*
X25250Y1650D02*
D03*
Y2650D02*
D03*
X26250Y1650D02*
D03*
Y2650D02*
D03*
X27250Y1650D02*
D03*
Y2650D02*
D03*
X28250Y1650D02*
D03*
Y2650D02*
D03*
X29250Y1650D02*
D03*
Y2650D02*
D03*
X30250Y1650D02*
D03*
Y2650D02*
D03*
X31250Y1650D02*
D03*
Y2650D02*
D03*
X32250Y1650D02*
D03*
Y2650D02*
D03*
X33250Y1650D02*
D03*
Y2650D02*
D03*
X34250Y1650D02*
D03*
Y2650D02*
D03*
X35250Y1650D02*
D03*
X1010Y27430D02*
D03*
D73*
X12050Y14500D02*
D03*
X11050Y36900D02*
D03*
X27050D02*
D03*
X11050Y37900D02*
D03*
X27050D02*
D03*
X11050Y38900D02*
D03*
X27050D02*
D03*
X12050Y8500D02*
D03*
X35250Y2650D02*
D03*
D74*
X23250Y31502D02*
D03*
X23350Y25302D02*
D03*
X9050Y12500D02*
D03*
X1010Y26430D02*
D03*
D75*
X37241Y1961D02*
D03*
X14407D02*
D03*
Y21252D02*
D03*
X37241D02*
D03*
D76*
X20000Y34330D02*
D03*
X7530Y18520D02*
D03*
Y33080D02*
D03*
X5950Y18340D02*
D03*
X5990Y32600D02*
D03*
X7120Y32110D02*
D03*
X6950Y18750D02*
D03*
X23770Y3550D02*
D03*
X13000Y31450D02*
D03*
X9560Y3730D02*
D03*
X11140Y620D02*
D03*
X18730Y27990D02*
D03*
X20630Y26770D02*
D03*
X19630Y25460D02*
D03*
X13030Y27280D02*
D03*
X16000Y28900D02*
D03*
X15980Y27150D02*
D03*
X24290Y3800D02*
D03*
X26260Y3680D02*
D03*
X25310Y4440D02*
D03*
X17730Y5940D02*
D03*
X19890Y5960D02*
D03*
X21520Y5940D02*
D03*
X20630Y5960D02*
D03*
X33640Y7550D02*
D03*
X11050Y5260D02*
D03*
X18980Y34900D02*
D03*
X11050Y34210D02*
D03*
X11030Y30600D02*
D03*
X31710Y3620D02*
D03*
X19390Y29205D02*
D03*
X19760Y30000D02*
D03*
X19040Y33700D02*
D03*
X15900Y34440D02*
D03*
X37970Y7920D02*
D03*
X38130Y8860D02*
D03*
X38120Y12470D02*
D03*
X38140Y11470D02*
D03*
X3130Y26780D02*
D03*
D77*
X4050Y37900D02*
X5050D01*
X6050D01*
X7050D01*
X8050D01*
X9050D01*
X10050D01*
X11050D01*
X15700D01*
X20050D01*
M02*
