G04*
G04 #@! TF.GenerationSoftware,Altium Limited,Altium Designer,20.2.8 (258)*
G04*
G04 Layer_Color=8388736*
%FSLAX24Y24*%
%MOIN*%
G70*
G04*
G04 #@! TF.SameCoordinates,2D8D9C66-5576-4C64-8BDA-EEC9A906AE53*
G04*
G04*
G04 #@! TF.FilePolarity,Negative*
G04*
G01*
G75*
%ADD36R,0.0356X0.0434*%
%ADD37R,0.0946X0.0867*%
%ADD38R,0.0592X0.0415*%
%ADD39R,0.0395X0.0395*%
%ADD40R,0.0434X0.0356*%
%ADD41R,0.0631X0.0671*%
%ADD42R,0.0356X0.0316*%
%ADD43R,0.0340X0.0260*%
G04:AMPARAMS|DCode=44|XSize=25.7mil|YSize=71mil|CornerRadius=5.9mil|HoleSize=0mil|Usage=FLASHONLY|Rotation=0.000|XOffset=0mil|YOffset=0mil|HoleType=Round|Shape=RoundedRectangle|*
%AMROUNDEDRECTD44*
21,1,0.0257,0.0591,0,0,0.0*
21,1,0.0138,0.0710,0,0,0.0*
1,1,0.0119,0.0069,-0.0295*
1,1,0.0119,-0.0069,-0.0295*
1,1,0.0119,-0.0069,0.0295*
1,1,0.0119,0.0069,0.0295*
%
%ADD44ROUNDEDRECTD44*%
%ADD45O,0.0356X0.1104*%
%ADD46O,0.0946X0.0316*%
%ADD47O,0.0867X0.0316*%
%ADD48R,0.0631X0.0552*%
%ADD49R,0.0867X0.0946*%
G04:AMPARAMS|DCode=50|XSize=136mil|YSize=88.7mil|CornerRadius=6mil|HoleSize=0mil|Usage=FLASHONLY|Rotation=90.000|XOffset=0mil|YOffset=0mil|HoleType=Round|Shape=RoundedRectangle|*
%AMROUNDEDRECTD50*
21,1,0.1360,0.0767,0,0,90.0*
21,1,0.1239,0.0887,0,0,90.0*
1,1,0.0120,0.0383,0.0620*
1,1,0.0120,0.0383,-0.0620*
1,1,0.0120,-0.0383,-0.0620*
1,1,0.0120,-0.0383,0.0620*
%
%ADD50ROUNDEDRECTD50*%
G04:AMPARAMS|DCode=51|XSize=47.4mil|YSize=88.7mil|CornerRadius=6mil|HoleSize=0mil|Usage=FLASHONLY|Rotation=90.000|XOffset=0mil|YOffset=0mil|HoleType=Round|Shape=RoundedRectangle|*
%AMROUNDEDRECTD51*
21,1,0.0474,0.0768,0,0,90.0*
21,1,0.0354,0.0887,0,0,90.0*
1,1,0.0119,0.0384,0.0177*
1,1,0.0119,0.0384,-0.0177*
1,1,0.0119,-0.0384,-0.0177*
1,1,0.0119,-0.0384,0.0177*
%
%ADD51ROUNDEDRECTD51*%
G04:AMPARAMS|DCode=52|XSize=429.3mil|YSize=311.2mil|CornerRadius=5.5mil|HoleSize=0mil|Usage=FLASHONLY|Rotation=270.000|XOffset=0mil|YOffset=0mil|HoleType=Round|Shape=RoundedRectangle|*
%AMROUNDEDRECTD52*
21,1,0.4293,0.3001,0,0,270.0*
21,1,0.4182,0.3112,0,0,270.0*
1,1,0.0110,-0.1501,-0.2091*
1,1,0.0110,-0.1501,0.2091*
1,1,0.0110,0.1501,0.2091*
1,1,0.0110,0.1501,-0.2091*
%
%ADD52ROUNDEDRECTD52*%
G04:AMPARAMS|DCode=53|XSize=45.4mil|YSize=159.6mil|CornerRadius=6.1mil|HoleSize=0mil|Usage=FLASHONLY|Rotation=270.000|XOffset=0mil|YOffset=0mil|HoleType=Round|Shape=RoundedRectangle|*
%AMROUNDEDRECTD53*
21,1,0.0454,0.1475,0,0,270.0*
21,1,0.0333,0.1596,0,0,270.0*
1,1,0.0121,-0.0737,-0.0166*
1,1,0.0121,-0.0737,0.0166*
1,1,0.0121,0.0737,0.0166*
1,1,0.0121,0.0737,-0.0166*
%
%ADD53ROUNDEDRECTD53*%
%ADD54R,0.0520X0.0510*%
%ADD55C,0.1080*%
%ADD56C,0.0550*%
%ADD57C,0.0671*%
%ADD58R,0.0671X0.0671*%
%ADD59R,0.0671X0.0671*%
%ADD60C,0.2521*%
%ADD61C,0.0380*%
D36*
X33854Y11070D02*
D03*
X34406D02*
D03*
X4126Y21900D02*
D03*
X3574D02*
D03*
X6026D02*
D03*
X5474D02*
D03*
X10826Y27250D02*
D03*
X10274D02*
D03*
X35826Y3900D02*
D03*
X35274D02*
D03*
X34664Y550D02*
D03*
X35216D02*
D03*
X12616Y15620D02*
D03*
X12064D02*
D03*
X8526Y15900D02*
D03*
X7974D02*
D03*
X7399Y23500D02*
D03*
X7950D02*
D03*
Y22650D02*
D03*
X7399D02*
D03*
D37*
X23660Y13090D02*
D03*
Y11830D02*
D03*
D38*
X21950Y32835D02*
D03*
Y32165D02*
D03*
Y26535D02*
D03*
Y25865D02*
D03*
D39*
Y33585D02*
D03*
Y34215D02*
D03*
Y27485D02*
D03*
Y28115D02*
D03*
D40*
X5550Y28976D02*
D03*
Y28424D02*
D03*
X5540Y25266D02*
D03*
Y24714D02*
D03*
X9850Y17736D02*
D03*
Y17184D02*
D03*
X13000Y33604D02*
D03*
Y34156D02*
D03*
X7350Y25024D02*
D03*
Y25576D02*
D03*
X5530Y26416D02*
D03*
Y25864D02*
D03*
X5550Y27726D02*
D03*
Y27174D02*
D03*
X2380Y26614D02*
D03*
Y27166D02*
D03*
X19820Y33164D02*
D03*
Y33716D02*
D03*
X19080Y33176D02*
D03*
Y32624D02*
D03*
D41*
X32156Y10930D02*
D03*
X32904D02*
D03*
X32216Y12070D02*
D03*
X32964D02*
D03*
D42*
X4584Y27154D02*
D03*
Y26406D02*
D03*
X3796Y26780D02*
D03*
D43*
X20480Y29625D02*
D03*
Y30125D02*
D03*
Y30375D02*
D03*
Y29875D02*
D03*
X21020Y30375D02*
D03*
Y30125D02*
D03*
Y29875D02*
D03*
Y29625D02*
D03*
D44*
X18846Y29401D02*
D03*
X18590D02*
D03*
X18334D02*
D03*
X18078D02*
D03*
X17822D02*
D03*
X17566D02*
D03*
X17310D02*
D03*
X17054D02*
D03*
X18846Y26999D02*
D03*
X18590D02*
D03*
X18334D02*
D03*
X18078D02*
D03*
X17822D02*
D03*
X17566D02*
D03*
X17310D02*
D03*
X17054D02*
D03*
D45*
X4450Y17189D02*
D03*
X4950D02*
D03*
X5450D02*
D03*
X5950D02*
D03*
X6450D02*
D03*
X6950D02*
D03*
X7450D02*
D03*
X7950D02*
D03*
X8450D02*
D03*
X4450Y20811D02*
D03*
X4950D02*
D03*
X5450D02*
D03*
X5950D02*
D03*
X6450D02*
D03*
X6950D02*
D03*
X7450D02*
D03*
X7950D02*
D03*
X8450D02*
D03*
D46*
X7355Y27750D02*
D03*
Y27250D02*
D03*
Y26750D02*
D03*
Y26250D02*
D03*
X9245Y27750D02*
D03*
Y27250D02*
D03*
Y26750D02*
D03*
Y26250D02*
D03*
D47*
X17822Y31650D02*
D03*
Y32150D02*
D03*
Y32650D02*
D03*
Y33150D02*
D03*
Y33650D02*
D03*
Y34150D02*
D03*
Y34650D02*
D03*
Y35150D02*
D03*
Y35650D02*
D03*
Y36150D02*
D03*
Y36650D02*
D03*
Y37150D02*
D03*
Y37650D02*
D03*
Y38150D02*
D03*
X14278Y31650D02*
D03*
Y32150D02*
D03*
Y32650D02*
D03*
Y33150D02*
D03*
Y33650D02*
D03*
Y34150D02*
D03*
Y34650D02*
D03*
Y35150D02*
D03*
Y35650D02*
D03*
Y36150D02*
D03*
Y36650D02*
D03*
Y37150D02*
D03*
Y37650D02*
D03*
Y38150D02*
D03*
D48*
X4117Y22585D02*
D03*
X4983D02*
D03*
Y23215D02*
D03*
X4117D02*
D03*
D49*
X36900Y7550D02*
D03*
X35640D02*
D03*
D50*
X38140Y10170D02*
D03*
D51*
X35640Y9264D02*
D03*
Y10170D02*
D03*
Y11076D02*
D03*
D52*
X27097Y8920D02*
D03*
D53*
X31231Y9920D02*
D03*
Y8920D02*
D03*
Y7920D02*
D03*
D54*
X20930Y29750D02*
D03*
Y30250D02*
D03*
D55*
X25350Y34300D02*
D03*
Y31200D02*
D03*
Y28100D02*
D03*
X25360Y25020D02*
D03*
X25350Y14500D02*
D03*
X25340Y17620D02*
D03*
D56*
X35050Y35850D02*
D03*
Y32750D02*
D03*
D03*
Y29650D02*
D03*
D03*
Y26550D02*
D03*
X35060Y26570D02*
D03*
Y23470D02*
D03*
X35050Y16050D02*
D03*
Y12950D02*
D03*
X35040Y19170D02*
D03*
Y16070D02*
D03*
D57*
X9050Y14500D02*
D03*
X10050D02*
D03*
X11050D02*
D03*
X10050Y36900D02*
D03*
X9050D02*
D03*
X8050D02*
D03*
X4050D02*
D03*
X5050D02*
D03*
X6050D02*
D03*
X7050D02*
D03*
X26050D02*
D03*
X25050D02*
D03*
X24050D02*
D03*
X23050D02*
D03*
X22050D02*
D03*
X21050D02*
D03*
X20050D02*
D03*
X10050Y37900D02*
D03*
X9050D02*
D03*
X8050D02*
D03*
X7050D02*
D03*
X6050D02*
D03*
X5050D02*
D03*
X4050D02*
D03*
X26050D02*
D03*
X25050D02*
D03*
X24050D02*
D03*
X23050D02*
D03*
X22050D02*
D03*
X21050D02*
D03*
X20050D02*
D03*
X10050Y38900D02*
D03*
X9050D02*
D03*
X8050D02*
D03*
X7050D02*
D03*
X6050D02*
D03*
X5050D02*
D03*
X4050D02*
D03*
X23250Y34298D02*
D03*
X23350Y28098D02*
D03*
X26050Y38900D02*
D03*
X25050D02*
D03*
X24050D02*
D03*
X23050D02*
D03*
X22050D02*
D03*
X21050D02*
D03*
X20050D02*
D03*
X9050Y8500D02*
D03*
X10050D02*
D03*
X11050D02*
D03*
X9050Y11500D02*
D03*
Y10500D02*
D03*
X16250Y1650D02*
D03*
Y2650D02*
D03*
X17250Y1650D02*
D03*
Y2650D02*
D03*
X18250Y1650D02*
D03*
Y2650D02*
D03*
X19250Y1650D02*
D03*
Y2650D02*
D03*
X20250Y1650D02*
D03*
Y2650D02*
D03*
X21250Y1650D02*
D03*
Y2650D02*
D03*
X22250Y1650D02*
D03*
Y2650D02*
D03*
X23250Y1650D02*
D03*
Y2650D02*
D03*
X24250Y1650D02*
D03*
Y2650D02*
D03*
X25250Y1650D02*
D03*
Y2650D02*
D03*
X26250Y1650D02*
D03*
Y2650D02*
D03*
X27250Y1650D02*
D03*
Y2650D02*
D03*
X28250Y1650D02*
D03*
Y2650D02*
D03*
X29250Y1650D02*
D03*
Y2650D02*
D03*
X30250Y1650D02*
D03*
Y2650D02*
D03*
X31250Y1650D02*
D03*
Y2650D02*
D03*
X32250Y1650D02*
D03*
Y2650D02*
D03*
X33250Y1650D02*
D03*
Y2650D02*
D03*
X34250Y1650D02*
D03*
Y2650D02*
D03*
X35250Y1650D02*
D03*
X1010Y27430D02*
D03*
D58*
X12050Y14500D02*
D03*
X11050Y36900D02*
D03*
X27050D02*
D03*
X11050Y37900D02*
D03*
X27050D02*
D03*
X11050Y38900D02*
D03*
X27050D02*
D03*
X12050Y8500D02*
D03*
X35250Y2650D02*
D03*
D59*
X23250Y31502D02*
D03*
X23350Y25302D02*
D03*
X9050Y12500D02*
D03*
X1010Y26430D02*
D03*
D60*
X37241Y1961D02*
D03*
X14407D02*
D03*
Y21252D02*
D03*
X37241D02*
D03*
D61*
X20000Y34330D02*
D03*
X7530Y18520D02*
D03*
Y33080D02*
D03*
X5950Y18340D02*
D03*
X5990Y32600D02*
D03*
X7120Y32110D02*
D03*
X6950Y18750D02*
D03*
X23770Y3550D02*
D03*
X13000Y31450D02*
D03*
X9560Y3730D02*
D03*
X11140Y620D02*
D03*
X18730Y27990D02*
D03*
X20630Y26770D02*
D03*
X19630Y25460D02*
D03*
X13030Y27280D02*
D03*
X16000Y28900D02*
D03*
X15980Y27150D02*
D03*
X24290Y3800D02*
D03*
X26260Y3680D02*
D03*
X25310Y4440D02*
D03*
X17730Y5940D02*
D03*
X19890Y5960D02*
D03*
X21520Y5940D02*
D03*
X20630Y5960D02*
D03*
X33640Y7550D02*
D03*
X11050Y5260D02*
D03*
X18980Y34900D02*
D03*
X11050Y34210D02*
D03*
X11030Y30600D02*
D03*
X31710Y3620D02*
D03*
X19390Y29205D02*
D03*
X19760Y30000D02*
D03*
X19040Y33700D02*
D03*
X15900Y34440D02*
D03*
X37970Y7920D02*
D03*
X38130Y8860D02*
D03*
X38120Y12470D02*
D03*
X38140Y11470D02*
D03*
X3130Y26780D02*
D03*
M02*
