G04*
G04 #@! TF.GenerationSoftware,Altium Limited,Altium Designer,20.2.8 (258)*
G04*
G04 Layer_Color=16711935*
%FSLAX24Y24*%
%MOIN*%
G70*
G04*
G04 #@! TF.SameCoordinates,2D8D9C66-5576-4C64-8BDA-EEC9A906AE53*
G04*
G04*
G04 #@! TF.FilePolarity,Positive*
G04*
G01*
G75*
%ADD79C,0.0039*%
D79*
X18796Y28732D02*
G03*
X18796Y28732I-197J0D01*
G01*
X8606Y20142D02*
G03*
X8606Y20142I-197J0D01*
G01*
X8930Y26370D02*
G03*
X8930Y26370I-197J0D01*
G01*
X15105Y38109D02*
G03*
X15105Y38109I-197J0D01*
G01*
X33786Y10883D02*
Y11257D01*
X34474Y10883D02*
Y11257D01*
X33786D02*
X34474D01*
X33786Y10883D02*
X34474D01*
X21684Y32933D02*
X22216D01*
X21684Y32067D02*
X22216D01*
Y32933D01*
X21684Y32067D02*
Y32933D01*
X21773Y33565D02*
Y34235D01*
X22127Y33565D02*
Y34235D01*
X21773Y33565D02*
X22127D01*
X21773Y34235D02*
X22127D01*
X4194Y21713D02*
Y22087D01*
X3506Y21713D02*
Y22087D01*
Y21713D02*
X4194D01*
X3506Y22087D02*
X4194D01*
X6094Y21713D02*
Y22087D01*
X5406Y21713D02*
Y22087D01*
Y21713D02*
X6094D01*
X5406Y22087D02*
X6094D01*
X5363Y29044D02*
X5737D01*
X5363Y28356D02*
X5737D01*
Y29044D01*
X5363Y28356D02*
Y29044D01*
X5353Y25334D02*
X5727D01*
X5353Y24646D02*
X5727D01*
Y25334D01*
X5353Y24646D02*
Y25334D01*
X9663Y17804D02*
X10037D01*
X9663Y17116D02*
X10037D01*
Y17804D01*
X9663Y17116D02*
Y17804D01*
X10894Y27063D02*
Y27437D01*
X10206Y27063D02*
Y27437D01*
Y27063D02*
X10894D01*
X10206Y27437D02*
X10894D01*
X35894Y3713D02*
Y4087D01*
X35206Y3713D02*
Y4087D01*
Y3713D02*
X35894D01*
X35206Y4087D02*
X35894D01*
X34596Y363D02*
Y737D01*
X35284Y363D02*
Y737D01*
X34596D02*
X35284D01*
X34596Y363D02*
X35284D01*
X32117Y11196D02*
X32943D01*
X32117Y10664D02*
X32943D01*
X32117D02*
Y11196D01*
X32943Y10664D02*
Y11196D01*
X12813Y33536D02*
X13187D01*
X12813Y34224D02*
X13187D01*
X12813Y33536D02*
Y34224D01*
X13187Y33536D02*
Y34224D01*
X12684Y15433D02*
Y15807D01*
X11996Y15433D02*
Y15807D01*
Y15433D02*
X12684D01*
X11996Y15807D02*
X12684D01*
X7915Y15713D02*
X8585D01*
X7915Y16087D02*
X8585D01*
Y15713D02*
Y16087D01*
X7915Y15713D02*
Y16087D01*
X7340Y23313D02*
Y23687D01*
X8009Y23313D02*
Y23687D01*
X7340D02*
X8009D01*
X7340Y23313D02*
X8009D01*
X7340Y22463D02*
X8009D01*
X7340Y22837D02*
X8009D01*
Y22463D02*
Y22837D01*
X7340Y22463D02*
Y22837D01*
X7163Y24965D02*
X7537D01*
X7163Y25635D02*
X7537D01*
X7163Y24965D02*
Y25635D01*
X7537Y24965D02*
Y25635D01*
X5717Y25805D02*
Y26475D01*
X5343Y25805D02*
Y26475D01*
X5717D01*
X5343Y25805D02*
X5717D01*
X5363Y27785D02*
X5737D01*
X5363Y27115D02*
X5737D01*
Y27785D01*
X5363Y27115D02*
Y27785D01*
X2193Y26555D02*
Y27225D01*
X2567Y26555D02*
Y27225D01*
X2193Y26555D02*
X2567D01*
X2193Y27225D02*
X2567D01*
X19633Y33105D02*
X20007D01*
X19633Y33775D02*
X20007D01*
X19633Y33105D02*
Y33775D01*
X20007Y33105D02*
Y33775D01*
X19267Y32556D02*
Y33244D01*
X18893Y32556D02*
Y33244D01*
X19267D01*
X18893Y32556D02*
X19267D01*
X32177Y12336D02*
X33003D01*
X32177Y11804D02*
X33003D01*
X32177D02*
Y12336D01*
X33003Y11804D02*
Y12336D01*
X21773Y27465D02*
Y28135D01*
X22127Y27465D02*
Y28135D01*
X21773Y27465D02*
X22127D01*
X21773Y28135D02*
X22127D01*
X3934Y26209D02*
Y27351D01*
X4446D01*
X3934Y26209D02*
X4446D01*
Y27351D01*
X20430Y29405D02*
Y30595D01*
Y29405D02*
X21070D01*
Y30595D01*
X20430D02*
X21070D01*
X21684Y26633D02*
X22216D01*
X21684Y25767D02*
X22216D01*
Y26633D01*
X21684Y25767D02*
Y26633D01*
X16946Y29086D02*
X18954D01*
X16946Y27314D02*
X18954D01*
Y29086D01*
X16946Y27314D02*
Y29086D01*
X4137Y17504D02*
Y20496D01*
X8763Y17504D02*
Y20496D01*
X4137Y17504D02*
X8763D01*
X4137Y20496D02*
X8763D01*
X7513Y27984D02*
X9087D01*
X7513Y26016D02*
X9087D01*
X7513D02*
Y27984D01*
X9087Y26016D02*
Y27984D01*
X14554Y31337D02*
X17546D01*
X14554Y38463D02*
X17546D01*
Y31337D02*
Y38463D01*
X14554Y31337D02*
Y38463D01*
X3920Y23392D02*
X5180D01*
Y22408D02*
Y23392D01*
X3920Y22408D02*
X5180D01*
X3920D02*
Y23392D01*
X36162Y8851D02*
X37618D01*
X36162Y11489D02*
X37618D01*
Y8851D02*
Y11489D01*
X36162Y8851D02*
Y11489D01*
X26251Y11016D02*
X30050D01*
X26251Y6824D02*
X30050D01*
X26251D02*
Y11016D01*
X30050Y6824D02*
Y11016D01*
M02*
