G04*
G04 #@! TF.GenerationSoftware,Altium Limited,Altium Designer,20.2.8 (258)*
G04*
G04 Layer_Color=32768*
%FSLAX24Y24*%
%MOIN*%
G70*
G04*
G04 #@! TF.SameCoordinates,2D8D9C66-5576-4C64-8BDA-EEC9A906AE53*
G04*
G04*
G04 #@! TF.FilePolarity,Positive*
G04*
G01*
G75*
%ADD82C,0.0010*%
%ADD83C,0.0010*%
%ADD84C,0.0020*%
D82*
X23110Y11772D02*
Y13150D01*
X24213D01*
Y11772D02*
Y13150D01*
X24094Y11772D02*
Y12087D01*
X23228D02*
X24094D01*
X23228Y11772D02*
Y12087D01*
X24094Y12835D02*
Y13150D01*
X23228Y12835D02*
X24094D01*
X23228D02*
Y13150D01*
X35582Y8100D02*
X36960D01*
Y6997D02*
Y8100D01*
X35582Y6997D02*
X36960D01*
X35582Y7116D02*
X35897D01*
Y7982D01*
X35582D02*
X35897D01*
X36645Y7116D02*
X36960D01*
X36645D02*
Y7982D01*
X36960D01*
D83*
X23110Y11772D02*
X24213D01*
X35582Y6997D02*
Y8100D01*
D84*
X22787Y11883D02*
X22755Y11850D01*
Y11784D01*
X22787Y11751D01*
X22919D01*
X22951Y11784D01*
Y11850D01*
X22919Y11883D01*
X22787Y11948D02*
X22755Y11981D01*
Y12047D01*
X22787Y12079D01*
X22820D01*
X22853Y12047D01*
X22886Y12079D01*
X22919D01*
X22951Y12047D01*
Y11981D01*
X22919Y11948D01*
X22886D01*
X22853Y11981D01*
X22820Y11948D01*
X22787D01*
X22853Y11981D02*
Y12047D01*
X24526Y11791D02*
Y11856D01*
Y11824D01*
X24329D01*
X24362Y11791D01*
Y11955D02*
X24329Y11988D01*
Y12053D01*
X24362Y12086D01*
X24493D01*
X24526Y12053D01*
Y11988D01*
X24493Y11955D01*
X24362D01*
X24395Y12151D02*
X24493D01*
X24526Y12184D01*
Y12283D01*
X24395D01*
X24329Y12479D02*
Y12348D01*
X24428D01*
Y12414D01*
Y12348D01*
X24526D01*
X35693Y8423D02*
X35660Y8455D01*
X35594D01*
X35561Y8423D01*
Y8291D01*
X35594Y8259D01*
X35660D01*
X35693Y8291D01*
X35758Y8455D02*
X35889D01*
Y8423D01*
X35758Y8291D01*
Y8259D01*
X35601Y6848D02*
X35634Y6881D01*
X35699D01*
X35732Y6848D01*
Y6815D01*
X35699Y6782D01*
X35666D01*
X35699D01*
X35732Y6749D01*
Y6717D01*
X35699Y6684D01*
X35634D01*
X35601Y6717D01*
X35797Y6848D02*
X35830Y6881D01*
X35896D01*
X35929Y6848D01*
Y6815D01*
X35896Y6782D01*
X35863D01*
X35896D01*
X35929Y6749D01*
Y6717D01*
X35896Y6684D01*
X35830D01*
X35797Y6717D01*
X35994Y6815D02*
Y6717D01*
X36027Y6684D01*
X36125D01*
Y6815D01*
X36322Y6881D02*
X36191D01*
Y6782D01*
X36257D01*
X36191D01*
Y6684D01*
M02*
