G04*
G04 #@! TF.GenerationSoftware,Altium Limited,Altium Designer,20.2.8 (258)*
G04*
G04 Layer_Color=16711935*
%FSLAX24Y24*%
%MOIN*%
G70*
G04*
G04 #@! TF.SameCoordinates,2D8D9C66-5576-4C64-8BDA-EEC9A906AE53*
G04*
G04*
G04 #@! TF.FilePolarity,Negative*
G04*
G01*
G75*
%ADD55C,0.1080*%
%ADD56C,0.0550*%
%ADD57C,0.0671*%
%ADD58R,0.0671X0.0671*%
%ADD59R,0.0671X0.0671*%
%ADD60C,0.2521*%
%ADD61C,0.0380*%
D55*
X25350Y34300D02*
D03*
Y31200D02*
D03*
Y28100D02*
D03*
X25360Y25020D02*
D03*
X25350Y14500D02*
D03*
X25340Y17620D02*
D03*
D56*
X35050Y35850D02*
D03*
Y32750D02*
D03*
D03*
Y29650D02*
D03*
D03*
Y26550D02*
D03*
X35060Y26570D02*
D03*
Y23470D02*
D03*
X35050Y16050D02*
D03*
Y12950D02*
D03*
X35040Y19170D02*
D03*
Y16070D02*
D03*
D57*
X9050Y14500D02*
D03*
X10050D02*
D03*
X11050D02*
D03*
X10050Y36900D02*
D03*
X9050D02*
D03*
X8050D02*
D03*
X4050D02*
D03*
X5050D02*
D03*
X6050D02*
D03*
X7050D02*
D03*
X26050D02*
D03*
X25050D02*
D03*
X24050D02*
D03*
X23050D02*
D03*
X22050D02*
D03*
X21050D02*
D03*
X20050D02*
D03*
X10050Y37900D02*
D03*
X9050D02*
D03*
X8050D02*
D03*
X7050D02*
D03*
X6050D02*
D03*
X5050D02*
D03*
X4050D02*
D03*
X26050D02*
D03*
X25050D02*
D03*
X24050D02*
D03*
X23050D02*
D03*
X22050D02*
D03*
X21050D02*
D03*
X20050D02*
D03*
X10050Y38900D02*
D03*
X9050D02*
D03*
X8050D02*
D03*
X7050D02*
D03*
X6050D02*
D03*
X5050D02*
D03*
X4050D02*
D03*
X23250Y34298D02*
D03*
X23350Y28098D02*
D03*
X26050Y38900D02*
D03*
X25050D02*
D03*
X24050D02*
D03*
X23050D02*
D03*
X22050D02*
D03*
X21050D02*
D03*
X20050D02*
D03*
X9050Y8500D02*
D03*
X10050D02*
D03*
X11050D02*
D03*
X9050Y11500D02*
D03*
Y10500D02*
D03*
X16250Y1650D02*
D03*
Y2650D02*
D03*
X17250Y1650D02*
D03*
Y2650D02*
D03*
X18250Y1650D02*
D03*
Y2650D02*
D03*
X19250Y1650D02*
D03*
Y2650D02*
D03*
X20250Y1650D02*
D03*
Y2650D02*
D03*
X21250Y1650D02*
D03*
Y2650D02*
D03*
X22250Y1650D02*
D03*
Y2650D02*
D03*
X23250Y1650D02*
D03*
Y2650D02*
D03*
X24250Y1650D02*
D03*
Y2650D02*
D03*
X25250Y1650D02*
D03*
Y2650D02*
D03*
X26250Y1650D02*
D03*
Y2650D02*
D03*
X27250Y1650D02*
D03*
Y2650D02*
D03*
X28250Y1650D02*
D03*
Y2650D02*
D03*
X29250Y1650D02*
D03*
Y2650D02*
D03*
X30250Y1650D02*
D03*
Y2650D02*
D03*
X31250Y1650D02*
D03*
Y2650D02*
D03*
X32250Y1650D02*
D03*
Y2650D02*
D03*
X33250Y1650D02*
D03*
Y2650D02*
D03*
X34250Y1650D02*
D03*
Y2650D02*
D03*
X35250Y1650D02*
D03*
X1010Y27430D02*
D03*
D58*
X12050Y14500D02*
D03*
X11050Y36900D02*
D03*
X27050D02*
D03*
X11050Y37900D02*
D03*
X27050D02*
D03*
X11050Y38900D02*
D03*
X27050D02*
D03*
X12050Y8500D02*
D03*
X35250Y2650D02*
D03*
D59*
X23250Y31502D02*
D03*
X23350Y25302D02*
D03*
X9050Y12500D02*
D03*
X1010Y26430D02*
D03*
D60*
X37241Y1961D02*
D03*
X14407D02*
D03*
Y21252D02*
D03*
X37241D02*
D03*
D61*
X20000Y34330D02*
D03*
X7530Y18520D02*
D03*
Y33080D02*
D03*
X5950Y18340D02*
D03*
X5990Y32600D02*
D03*
X7120Y32110D02*
D03*
X6950Y18750D02*
D03*
X23770Y3550D02*
D03*
X13000Y31450D02*
D03*
X9560Y3730D02*
D03*
X11140Y620D02*
D03*
X18730Y27990D02*
D03*
X20630Y26770D02*
D03*
X19630Y25460D02*
D03*
X13030Y27280D02*
D03*
X16000Y28900D02*
D03*
X15980Y27150D02*
D03*
X24290Y3800D02*
D03*
X26260Y3680D02*
D03*
X25310Y4440D02*
D03*
X17730Y5940D02*
D03*
X19890Y5960D02*
D03*
X21520Y5940D02*
D03*
X20630Y5960D02*
D03*
X33640Y7550D02*
D03*
X11050Y5260D02*
D03*
X18980Y34900D02*
D03*
X11050Y34210D02*
D03*
X11030Y30600D02*
D03*
X31710Y3620D02*
D03*
X19390Y29205D02*
D03*
X19760Y30000D02*
D03*
X19040Y33700D02*
D03*
X15900Y34440D02*
D03*
X37970Y7920D02*
D03*
X38130Y8860D02*
D03*
X38120Y12470D02*
D03*
X38140Y11470D02*
D03*
X3130Y26780D02*
D03*
M02*
