G04*
G04 #@! TF.GenerationSoftware,Altium Limited,Altium Designer,20.2.8 (258)*
G04*
G04 Layer_Color=8421504*
%FSLAX24Y24*%
%MOIN*%
G70*
G04*
G04 #@! TF.SameCoordinates,2D8D9C66-5576-4C64-8BDA-EEC9A906AE53*
G04*
G04*
G04 #@! TF.FilePolarity,Positive*
G04*
G01*
G75*
%ADD17R,0.0276X0.0354*%
%ADD18R,0.0866X0.0787*%
%ADD19R,0.0512X0.0335*%
%ADD20R,0.0315X0.0315*%
%ADD21R,0.0354X0.0276*%
%ADD22R,0.0551X0.0591*%
%ADD23R,0.0236X0.0197*%
%ADD24R,0.0260X0.0180*%
G04:AMPARAMS|DCode=25|XSize=17.7mil|YSize=63mil|CornerRadius=1.9mil|HoleSize=0mil|Usage=FLASHONLY|Rotation=0.000|XOffset=0mil|YOffset=0mil|HoleType=Round|Shape=RoundedRectangle|*
%AMROUNDEDRECTD25*
21,1,0.0177,0.0591,0,0,0.0*
21,1,0.0138,0.0630,0,0,0.0*
1,1,0.0039,0.0069,-0.0295*
1,1,0.0039,-0.0069,-0.0295*
1,1,0.0039,-0.0069,0.0295*
1,1,0.0039,0.0069,0.0295*
%
%ADD25ROUNDEDRECTD25*%
%ADD26O,0.0276X0.1024*%
%ADD27O,0.0866X0.0236*%
%ADD28O,0.0787X0.0236*%
%ADD29R,0.0551X0.0472*%
%ADD30R,0.0787X0.0866*%
G04:AMPARAMS|DCode=31|XSize=128mil|YSize=80.7mil|CornerRadius=2mil|HoleSize=0mil|Usage=FLASHONLY|Rotation=90.000|XOffset=0mil|YOffset=0mil|HoleType=Round|Shape=RoundedRectangle|*
%AMROUNDEDRECTD31*
21,1,0.1280,0.0767,0,0,90.0*
21,1,0.1239,0.0807,0,0,90.0*
1,1,0.0040,0.0383,0.0620*
1,1,0.0040,0.0383,-0.0620*
1,1,0.0040,-0.0383,-0.0620*
1,1,0.0040,-0.0383,0.0620*
%
%ADD31ROUNDEDRECTD31*%
G04:AMPARAMS|DCode=32|XSize=39.4mil|YSize=80.7mil|CornerRadius=2mil|HoleSize=0mil|Usage=FLASHONLY|Rotation=90.000|XOffset=0mil|YOffset=0mil|HoleType=Round|Shape=RoundedRectangle|*
%AMROUNDEDRECTD32*
21,1,0.0394,0.0768,0,0,90.0*
21,1,0.0354,0.0807,0,0,90.0*
1,1,0.0039,0.0384,0.0177*
1,1,0.0039,0.0384,-0.0177*
1,1,0.0039,-0.0384,-0.0177*
1,1,0.0039,-0.0384,0.0177*
%
%ADD32ROUNDEDRECTD32*%
G04:AMPARAMS|DCode=33|XSize=421.3mil|YSize=303.2mil|CornerRadius=1.5mil|HoleSize=0mil|Usage=FLASHONLY|Rotation=270.000|XOffset=0mil|YOffset=0mil|HoleType=Round|Shape=RoundedRectangle|*
%AMROUNDEDRECTD33*
21,1,0.4213,0.3001,0,0,270.0*
21,1,0.4182,0.3032,0,0,270.0*
1,1,0.0030,-0.1501,-0.2091*
1,1,0.0030,-0.1501,0.2091*
1,1,0.0030,0.1501,0.2091*
1,1,0.0030,0.1501,-0.2091*
%
%ADD33ROUNDEDRECTD33*%
G04:AMPARAMS|DCode=34|XSize=37.4mil|YSize=151.6mil|CornerRadius=2.1mil|HoleSize=0mil|Usage=FLASHONLY|Rotation=270.000|XOffset=0mil|YOffset=0mil|HoleType=Round|Shape=RoundedRectangle|*
%AMROUNDEDRECTD34*
21,1,0.0374,0.1475,0,0,270.0*
21,1,0.0333,0.1516,0,0,270.0*
1,1,0.0041,-0.0737,-0.0166*
1,1,0.0041,-0.0737,0.0166*
1,1,0.0041,0.0737,0.0166*
1,1,0.0041,0.0737,-0.0166*
%
%ADD34ROUNDEDRECTD34*%
%ADD35R,0.0440X0.0430*%
D17*
X33854Y11070D02*
D03*
X34406D02*
D03*
X4126Y21900D02*
D03*
X3574D02*
D03*
X6026D02*
D03*
X5474D02*
D03*
X10826Y27250D02*
D03*
X10274D02*
D03*
X35826Y3900D02*
D03*
X35274D02*
D03*
X34664Y550D02*
D03*
X35216D02*
D03*
X12616Y15620D02*
D03*
X12064D02*
D03*
X8526Y15900D02*
D03*
X7974D02*
D03*
X7399Y23500D02*
D03*
X7950D02*
D03*
Y22650D02*
D03*
X7399D02*
D03*
D18*
X23660Y13090D02*
D03*
Y11830D02*
D03*
D19*
X21950Y32835D02*
D03*
Y32165D02*
D03*
Y26535D02*
D03*
Y25865D02*
D03*
D20*
Y33585D02*
D03*
Y34215D02*
D03*
Y27485D02*
D03*
Y28115D02*
D03*
D21*
X5550Y28976D02*
D03*
Y28424D02*
D03*
X5540Y25266D02*
D03*
Y24714D02*
D03*
X9850Y17736D02*
D03*
Y17184D02*
D03*
X13000Y33604D02*
D03*
Y34156D02*
D03*
X7350Y25024D02*
D03*
Y25576D02*
D03*
X5530Y26416D02*
D03*
Y25864D02*
D03*
X5550Y27726D02*
D03*
Y27174D02*
D03*
X2380Y26614D02*
D03*
Y27166D02*
D03*
X19820Y33164D02*
D03*
Y33716D02*
D03*
X19080Y33176D02*
D03*
Y32624D02*
D03*
D22*
X32156Y10930D02*
D03*
X32904D02*
D03*
X32216Y12070D02*
D03*
X32964D02*
D03*
D23*
X4584Y27154D02*
D03*
Y26406D02*
D03*
X3796Y26780D02*
D03*
D24*
X20480Y29625D02*
D03*
Y30125D02*
D03*
Y30375D02*
D03*
Y29875D02*
D03*
X21020Y30375D02*
D03*
Y30125D02*
D03*
Y29875D02*
D03*
Y29625D02*
D03*
D25*
X18846Y29401D02*
D03*
X18590D02*
D03*
X18334D02*
D03*
X18078D02*
D03*
X17822D02*
D03*
X17566D02*
D03*
X17310D02*
D03*
X17054D02*
D03*
X18846Y26999D02*
D03*
X18590D02*
D03*
X18334D02*
D03*
X18078D02*
D03*
X17822D02*
D03*
X17566D02*
D03*
X17310D02*
D03*
X17054D02*
D03*
D26*
X4450Y17189D02*
D03*
X4950D02*
D03*
X5450D02*
D03*
X5950D02*
D03*
X6450D02*
D03*
X6950D02*
D03*
X7450D02*
D03*
X7950D02*
D03*
X8450D02*
D03*
X4450Y20811D02*
D03*
X4950D02*
D03*
X5450D02*
D03*
X5950D02*
D03*
X6450D02*
D03*
X6950D02*
D03*
X7450D02*
D03*
X7950D02*
D03*
X8450D02*
D03*
D27*
X7355Y27750D02*
D03*
Y27250D02*
D03*
Y26750D02*
D03*
Y26250D02*
D03*
X9245Y27750D02*
D03*
Y27250D02*
D03*
Y26750D02*
D03*
Y26250D02*
D03*
D28*
X17822Y31650D02*
D03*
Y32150D02*
D03*
Y32650D02*
D03*
Y33150D02*
D03*
Y33650D02*
D03*
Y34150D02*
D03*
Y34650D02*
D03*
Y35150D02*
D03*
Y35650D02*
D03*
Y36150D02*
D03*
Y36650D02*
D03*
Y37150D02*
D03*
Y37650D02*
D03*
Y38150D02*
D03*
X14278Y31650D02*
D03*
Y32150D02*
D03*
Y32650D02*
D03*
Y33150D02*
D03*
Y33650D02*
D03*
Y34150D02*
D03*
Y34650D02*
D03*
Y35150D02*
D03*
Y35650D02*
D03*
Y36150D02*
D03*
Y36650D02*
D03*
Y37150D02*
D03*
Y37650D02*
D03*
Y38150D02*
D03*
D29*
X4117Y22585D02*
D03*
X4983D02*
D03*
Y23215D02*
D03*
X4117D02*
D03*
D30*
X36900Y7550D02*
D03*
X35640D02*
D03*
D31*
X38140Y10170D02*
D03*
D32*
X35640Y9264D02*
D03*
Y10170D02*
D03*
Y11076D02*
D03*
D33*
X27097Y8920D02*
D03*
D34*
X31231Y9920D02*
D03*
Y8920D02*
D03*
Y7920D02*
D03*
D35*
X20930Y29750D02*
D03*
Y30250D02*
D03*
M02*
