G04*
G04 #@! TF.GenerationSoftware,Altium Limited,Altium Designer,20.2.8 (258)*
G04*
G04 Layer_Color=255*
%FSLAX24Y24*%
%MOIN*%
G70*
G04*
G04 #@! TF.SameCoordinates,2D8D9C66-5576-4C64-8BDA-EEC9A906AE53*
G04*
G04*
G04 #@! TF.FilePolarity,Positive*
G04*
G01*
G75*
%ADD70C,0.1000*%
%ADD71C,0.0470*%
%ADD72C,0.0591*%
%ADD73R,0.0591X0.0591*%
%ADD74R,0.0591X0.0591*%
D70*
X25350Y34300D02*
D03*
Y31200D02*
D03*
Y28100D02*
D03*
X25360Y25020D02*
D03*
X25350Y14500D02*
D03*
X25340Y17620D02*
D03*
D71*
X35050Y35850D02*
D03*
Y32750D02*
D03*
D03*
Y29650D02*
D03*
D03*
Y26550D02*
D03*
X35060Y26570D02*
D03*
Y23470D02*
D03*
X35050Y16050D02*
D03*
Y12950D02*
D03*
X35040Y19170D02*
D03*
Y16070D02*
D03*
D72*
X9050Y14500D02*
D03*
X10050D02*
D03*
X11050D02*
D03*
X10050Y36900D02*
D03*
X9050D02*
D03*
X8050D02*
D03*
X4050D02*
D03*
X5050D02*
D03*
X6050D02*
D03*
X7050D02*
D03*
X26050D02*
D03*
X25050D02*
D03*
X24050D02*
D03*
X23050D02*
D03*
X22050D02*
D03*
X21050D02*
D03*
X20050D02*
D03*
X10050Y37900D02*
D03*
X9050D02*
D03*
X8050D02*
D03*
X7050D02*
D03*
X6050D02*
D03*
X5050D02*
D03*
X4050D02*
D03*
X26050D02*
D03*
X25050D02*
D03*
X24050D02*
D03*
X23050D02*
D03*
X22050D02*
D03*
X21050D02*
D03*
X20050D02*
D03*
X10050Y38900D02*
D03*
X9050D02*
D03*
X8050D02*
D03*
X7050D02*
D03*
X6050D02*
D03*
X5050D02*
D03*
X4050D02*
D03*
X23250Y34298D02*
D03*
X23350Y28098D02*
D03*
X26050Y38900D02*
D03*
X25050D02*
D03*
X24050D02*
D03*
X23050D02*
D03*
X22050D02*
D03*
X21050D02*
D03*
X20050D02*
D03*
X9050Y8500D02*
D03*
X10050D02*
D03*
X11050D02*
D03*
X9050Y11500D02*
D03*
Y10500D02*
D03*
X16250Y1650D02*
D03*
Y2650D02*
D03*
X17250Y1650D02*
D03*
Y2650D02*
D03*
X18250Y1650D02*
D03*
Y2650D02*
D03*
X19250Y1650D02*
D03*
Y2650D02*
D03*
X20250Y1650D02*
D03*
Y2650D02*
D03*
X21250Y1650D02*
D03*
Y2650D02*
D03*
X22250Y1650D02*
D03*
Y2650D02*
D03*
X23250Y1650D02*
D03*
Y2650D02*
D03*
X24250Y1650D02*
D03*
Y2650D02*
D03*
X25250Y1650D02*
D03*
Y2650D02*
D03*
X26250Y1650D02*
D03*
Y2650D02*
D03*
X27250Y1650D02*
D03*
Y2650D02*
D03*
X28250Y1650D02*
D03*
Y2650D02*
D03*
X29250Y1650D02*
D03*
Y2650D02*
D03*
X30250Y1650D02*
D03*
Y2650D02*
D03*
X31250Y1650D02*
D03*
Y2650D02*
D03*
X32250Y1650D02*
D03*
Y2650D02*
D03*
X33250Y1650D02*
D03*
Y2650D02*
D03*
X34250Y1650D02*
D03*
Y2650D02*
D03*
X35250Y1650D02*
D03*
X1010Y27430D02*
D03*
D73*
X12050Y14500D02*
D03*
X11050Y36900D02*
D03*
X27050D02*
D03*
X11050Y37900D02*
D03*
X27050D02*
D03*
X11050Y38900D02*
D03*
X27050D02*
D03*
X12050Y8500D02*
D03*
X35250Y2650D02*
D03*
D74*
X23250Y31502D02*
D03*
X23350Y25302D02*
D03*
X9050Y12500D02*
D03*
X1010Y26430D02*
D03*
M02*
