G04*
G04 #@! TF.GenerationSoftware,Altium Limited,Altium Designer,20.2.8 (258)*
G04*
G04 Layer_Physical_Order=1*
G04 Layer_Color=255*
%FSLAX24Y24*%
%MOIN*%
G70*
G04*
G04 #@! TF.SameCoordinates,2D8D9C66-5576-4C64-8BDA-EEC9A906AE53*
G04*
G04*
G04 #@! TF.FilePolarity,Positive*
G04*
G01*
G75*
%ADD14C,0.0100*%
%ADD17R,0.0276X0.0354*%
%ADD18R,0.0866X0.0787*%
%ADD19R,0.0512X0.0335*%
%ADD20R,0.0315X0.0315*%
%ADD21R,0.0354X0.0276*%
%ADD22R,0.0551X0.0591*%
%ADD24R,0.0260X0.0180*%
G04:AMPARAMS|DCode=25|XSize=17.7mil|YSize=63mil|CornerRadius=1.9mil|HoleSize=0mil|Usage=FLASHONLY|Rotation=0.000|XOffset=0mil|YOffset=0mil|HoleType=Round|Shape=RoundedRectangle|*
%AMROUNDEDRECTD25*
21,1,0.0177,0.0591,0,0,0.0*
21,1,0.0138,0.0630,0,0,0.0*
1,1,0.0039,0.0069,-0.0295*
1,1,0.0039,-0.0069,-0.0295*
1,1,0.0039,-0.0069,0.0295*
1,1,0.0039,0.0069,0.0295*
%
%ADD25ROUNDEDRECTD25*%
%ADD26O,0.0276X0.1024*%
%ADD27O,0.0866X0.0236*%
%ADD28O,0.0787X0.0236*%
%ADD29R,0.0551X0.0472*%
%ADD30R,0.0787X0.0866*%
G04:AMPARAMS|DCode=31|XSize=128mil|YSize=80.7mil|CornerRadius=2mil|HoleSize=0mil|Usage=FLASHONLY|Rotation=90.000|XOffset=0mil|YOffset=0mil|HoleType=Round|Shape=RoundedRectangle|*
%AMROUNDEDRECTD31*
21,1,0.1280,0.0767,0,0,90.0*
21,1,0.1239,0.0807,0,0,90.0*
1,1,0.0040,0.0383,0.0620*
1,1,0.0040,0.0383,-0.0620*
1,1,0.0040,-0.0383,-0.0620*
1,1,0.0040,-0.0383,0.0620*
%
%ADD31ROUNDEDRECTD31*%
G04:AMPARAMS|DCode=32|XSize=39.4mil|YSize=80.7mil|CornerRadius=2mil|HoleSize=0mil|Usage=FLASHONLY|Rotation=90.000|XOffset=0mil|YOffset=0mil|HoleType=Round|Shape=RoundedRectangle|*
%AMROUNDEDRECTD32*
21,1,0.0394,0.0768,0,0,90.0*
21,1,0.0354,0.0807,0,0,90.0*
1,1,0.0039,0.0384,0.0177*
1,1,0.0039,0.0384,-0.0177*
1,1,0.0039,-0.0384,-0.0177*
1,1,0.0039,-0.0384,0.0177*
%
%ADD32ROUNDEDRECTD32*%
G04:AMPARAMS|DCode=33|XSize=421.3mil|YSize=303.2mil|CornerRadius=1.5mil|HoleSize=0mil|Usage=FLASHONLY|Rotation=270.000|XOffset=0mil|YOffset=0mil|HoleType=Round|Shape=RoundedRectangle|*
%AMROUNDEDRECTD33*
21,1,0.4213,0.3001,0,0,270.0*
21,1,0.4182,0.3032,0,0,270.0*
1,1,0.0030,-0.1501,-0.2091*
1,1,0.0030,-0.1501,0.2091*
1,1,0.0030,0.1501,0.2091*
1,1,0.0030,0.1501,-0.2091*
%
%ADD33ROUNDEDRECTD33*%
G04:AMPARAMS|DCode=34|XSize=37.4mil|YSize=151.6mil|CornerRadius=2.1mil|HoleSize=0mil|Usage=FLASHONLY|Rotation=270.000|XOffset=0mil|YOffset=0mil|HoleType=Round|Shape=RoundedRectangle|*
%AMROUNDEDRECTD34*
21,1,0.0374,0.1475,0,0,270.0*
21,1,0.0333,0.1516,0,0,270.0*
1,1,0.0041,-0.0737,-0.0166*
1,1,0.0041,-0.0737,0.0166*
1,1,0.0041,0.0737,0.0166*
1,1,0.0041,0.0737,-0.0166*
%
%ADD34ROUNDEDRECTD34*%
%ADD35R,0.0440X0.0430*%
%ADD62R,0.0276X0.0236*%
%ADD63C,0.0350*%
%ADD64C,0.0150*%
%ADD65C,0.0200*%
%ADD66C,0.0250*%
%ADD67C,0.0300*%
%ADD68C,0.0600*%
%ADD69C,0.0700*%
%ADD70C,0.1000*%
%ADD71C,0.0470*%
%ADD72C,0.0591*%
%ADD73R,0.0591X0.0591*%
%ADD74R,0.0591X0.0591*%
%ADD75C,0.2441*%
%ADD76C,0.0300*%
G36*
X18303Y39785D02*
X18294Y38357D01*
X18255Y38325D01*
X18240Y38328D01*
X18223D01*
X18182Y38355D01*
X18097Y38372D01*
X17546D01*
X17461Y38355D01*
X17389Y38307D01*
X17341Y38235D01*
X17324Y38150D01*
X17341Y38065D01*
X17389Y37993D01*
X17461Y37945D01*
X17546Y37928D01*
X18097D01*
X18182Y37945D01*
X18189Y37949D01*
X19364Y36774D01*
X19422Y36735D01*
X19490Y36722D01*
X19490Y36722D01*
X19690D01*
X19711Y36681D01*
X19683Y36643D01*
X19632Y36653D01*
X19346D01*
X18312Y37687D01*
X18303Y37735D01*
X18254Y37807D01*
X18182Y37855D01*
X18097Y37872D01*
X17546D01*
X17461Y37855D01*
X17389Y37807D01*
X17341Y37735D01*
X17324Y37650D01*
X17341Y37565D01*
X17389Y37493D01*
X17461Y37445D01*
X17546Y37428D01*
X18021D01*
X18024Y37422D01*
X17997Y37372D01*
X17546D01*
X17461Y37355D01*
X17389Y37307D01*
X17341Y37235D01*
X17324Y37150D01*
X17341Y37065D01*
X17389Y36993D01*
X17461Y36945D01*
X17546Y36928D01*
X18021D01*
X18024Y36922D01*
X17997Y36872D01*
X17546D01*
X17461Y36855D01*
X17389Y36807D01*
X17341Y36735D01*
X17324Y36650D01*
X17341Y36565D01*
X17389Y36493D01*
X17461Y36445D01*
X17546Y36428D01*
X18021D01*
X18024Y36422D01*
X17997Y36372D01*
X17546D01*
X17461Y36355D01*
X17389Y36307D01*
X17341Y36235D01*
X17324Y36150D01*
X17341Y36065D01*
X17389Y35993D01*
X17461Y35945D01*
X17546Y35928D01*
X18021D01*
X18024Y35922D01*
X17997Y35872D01*
X17546D01*
X17461Y35855D01*
X17389Y35807D01*
X17341Y35735D01*
X17324Y35650D01*
X17341Y35565D01*
X17389Y35493D01*
X17461Y35445D01*
X17546Y35428D01*
X18044D01*
X18047Y35422D01*
X18021Y35372D01*
X17546D01*
X17461Y35355D01*
X17389Y35307D01*
X17341Y35235D01*
X17324Y35150D01*
X17341Y35065D01*
X17389Y34993D01*
X17461Y34945D01*
X17546Y34928D01*
X17997D01*
X18024Y34878D01*
X18021Y34872D01*
X17546D01*
X17461Y34855D01*
X17389Y34807D01*
X17341Y34735D01*
X17324Y34650D01*
X17341Y34565D01*
X17389Y34493D01*
X17461Y34445D01*
X17546Y34428D01*
X18097D01*
X18182Y34445D01*
X18254Y34493D01*
X18303Y34565D01*
X18312Y34613D01*
X18421Y34722D01*
X18799D01*
X18800Y34720D01*
X18882Y34664D01*
X18980Y34645D01*
X19078Y34664D01*
X19160Y34720D01*
X19216Y34802D01*
X19235Y34900D01*
X19228Y34933D01*
X19260Y34972D01*
X21384D01*
Y34492D01*
X21215D01*
X21143Y34483D01*
X21076Y34455D01*
X21019Y34411D01*
X20744Y34136D01*
X20700Y34079D01*
X20672Y34012D01*
X20663Y33940D01*
Y30606D01*
X20613Y30566D01*
X20610Y30567D01*
X20530D01*
Y30375D01*
X20430D01*
Y30567D01*
X20350D01*
X20311Y30559D01*
X20278Y30537D01*
X20256Y30504D01*
X20248Y30465D01*
Y30408D01*
X20202Y30389D01*
X19964Y30626D01*
X19906Y30665D01*
X19838Y30678D01*
X18066D01*
X18066Y30678D01*
X17998Y30665D01*
X17940Y30626D01*
X17709Y30395D01*
X17671Y30337D01*
X17657Y30269D01*
Y29785D01*
X17635Y29767D01*
X17497D01*
X17470Y29762D01*
X17447Y29746D01*
X17429D01*
X17406Y29762D01*
X17379Y29767D01*
X17241D01*
X17222Y29763D01*
X17210Y29782D01*
X17170Y29809D01*
X17123Y29818D01*
X17104D01*
Y29401D01*
Y28983D01*
X17123D01*
X17132Y28977D01*
Y28287D01*
X12610D01*
X12538Y28278D01*
X12471Y28250D01*
X12414Y28206D01*
X11504Y27296D01*
X11460Y27239D01*
X11432Y27172D01*
X11423Y27100D01*
Y18765D01*
X11184Y18526D01*
X11140Y18469D01*
X11112Y18402D01*
X11103Y18330D01*
Y17517D01*
X10154D01*
X10140Y17535D01*
X10123Y17567D01*
X10129Y17598D01*
Y17686D01*
X9571D01*
Y17598D01*
X9577Y17567D01*
X9560Y17535D01*
X9546Y17517D01*
X8692D01*
Y17563D01*
X8674Y17656D01*
X8621Y17734D01*
X8543Y17787D01*
X8450Y17805D01*
X8357Y17787D01*
X8279Y17734D01*
X8226Y17656D01*
X8225Y17653D01*
X8175D01*
X8174Y17656D01*
X8121Y17734D01*
X8043Y17787D01*
X7950Y17805D01*
X7857Y17787D01*
X7779Y17734D01*
X7726Y17656D01*
X7725Y17653D01*
X7675D01*
X7674Y17656D01*
X7628Y17724D01*
Y18285D01*
X7710Y18340D01*
X7765Y18422D01*
X7785Y18520D01*
X7765Y18618D01*
X7710Y18700D01*
X7628Y18756D01*
X7530Y18775D01*
X7432Y18756D01*
X7350Y18700D01*
X7295Y18618D01*
X7275Y18520D01*
X7281Y18489D01*
X7272Y18440D01*
Y17724D01*
X7226Y17656D01*
X7225Y17653D01*
X7175D01*
X7174Y17656D01*
X7128Y17724D01*
Y18569D01*
X7130Y18570D01*
X7185Y18652D01*
X7205Y18750D01*
X7185Y18848D01*
X7130Y18930D01*
X7048Y18986D01*
X6950Y19005D01*
X6852Y18986D01*
X6770Y18930D01*
X6715Y18848D01*
X6695Y18750D01*
X6715Y18652D01*
X6770Y18570D01*
X6772Y18569D01*
Y17724D01*
X6726Y17656D01*
X6725Y17653D01*
X6675D01*
X6674Y17656D01*
X6621Y17734D01*
X6543Y17787D01*
X6450Y17805D01*
X6357Y17787D01*
X6279Y17734D01*
X6226Y17656D01*
X6225Y17653D01*
X6175D01*
X6174Y17656D01*
X6128Y17724D01*
Y18159D01*
X6130Y18160D01*
X6185Y18242D01*
X6205Y18340D01*
X6185Y18438D01*
X6130Y18520D01*
X6048Y18576D01*
X5950Y18595D01*
X5852Y18576D01*
X5770Y18520D01*
X5715Y18438D01*
X5695Y18340D01*
X5715Y18242D01*
X5770Y18160D01*
X5772Y18159D01*
Y17724D01*
X5726Y17656D01*
X5725Y17653D01*
X5675D01*
X5674Y17656D01*
X5621Y17734D01*
X5543Y17787D01*
X5450Y17805D01*
X5357Y17787D01*
X5279Y17734D01*
X5226Y17656D01*
X5225Y17653D01*
X5175D01*
X5174Y17656D01*
X5121Y17734D01*
X5043Y17787D01*
X4950Y17805D01*
X4857Y17787D01*
X4779Y17734D01*
X4726Y17656D01*
X4725Y17653D01*
X4675D01*
X4674Y17656D01*
X4621Y17734D01*
X4543Y17787D01*
X4450Y17805D01*
X4357Y17787D01*
X4279Y17734D01*
X4226Y17656D01*
X4208Y17563D01*
Y16815D01*
X4226Y16722D01*
X4279Y16644D01*
X4357Y16591D01*
X4450Y16573D01*
X4543Y16591D01*
X4621Y16644D01*
X4674Y16722D01*
X4675Y16725D01*
X4725D01*
X4726Y16722D01*
X4779Y16644D01*
X4857Y16591D01*
X4950Y16573D01*
X5043Y16591D01*
X5121Y16644D01*
X5174Y16722D01*
X5175Y16725D01*
X5225D01*
X5226Y16722D01*
X5272Y16654D01*
Y5580D01*
X5285Y5512D01*
X5324Y5454D01*
X7548Y3230D01*
X7606Y3191D01*
X7674Y3178D01*
X7674Y3178D01*
X13770D01*
X13784Y3128D01*
X13628Y3032D01*
X13470Y2897D01*
X13335Y2739D01*
X13226Y2562D01*
X13147Y2370D01*
X13098Y2168D01*
X13082Y1961D01*
X13098Y1753D01*
X13147Y1551D01*
X13226Y1359D01*
X13335Y1182D01*
X13470Y1024D01*
X13628Y889D01*
X13784Y794D01*
X13770Y744D01*
X11358D01*
X11320Y800D01*
X11238Y855D01*
X11140Y875D01*
X11042Y855D01*
X10960Y800D01*
X10905Y718D01*
X10885Y620D01*
X10905Y522D01*
X10960Y440D01*
X11042Y384D01*
X11140Y365D01*
X11238Y384D01*
X11241Y387D01*
X33025D01*
X33093Y400D01*
X33151Y439D01*
X33846Y1134D01*
X33846Y1134D01*
X33885Y1192D01*
X33899Y1260D01*
Y1376D01*
X33949Y1393D01*
X33968Y1368D01*
X34051Y1305D01*
X34147Y1265D01*
X34250Y1251D01*
X34353Y1265D01*
X34449Y1305D01*
X34532Y1368D01*
X34592Y1446D01*
X34908D01*
X34968Y1368D01*
X35046Y1308D01*
Y823D01*
X35039Y821D01*
X35006Y799D01*
X34984Y766D01*
X34976Y727D01*
Y373D01*
X34984Y334D01*
X35006Y301D01*
X35039Y279D01*
X35078Y271D01*
X35353D01*
X35392Y279D01*
X35404Y286D01*
X38950D01*
X39028Y302D01*
X39094Y346D01*
X39294Y546D01*
X39338Y612D01*
X39354Y690D01*
Y4488D01*
X39930D01*
Y110D01*
X220D01*
X212Y102D01*
X110D01*
Y39820D01*
X18268D01*
X18303Y39785D01*
D02*
G37*
G36*
X21148Y37480D02*
X21152Y37471D01*
X21154Y37461D01*
X21159Y37453D01*
X21163Y37443D01*
X21170Y37436D01*
X21176Y37428D01*
X21184Y37422D01*
X21191Y37415D01*
X21201Y37411D01*
X21209Y37406D01*
X21219Y37404D01*
X21228Y37400D01*
X21238D01*
X21248Y37398D01*
X21384D01*
Y37192D01*
X21336Y37176D01*
X21332Y37182D01*
X21249Y37245D01*
X21153Y37285D01*
X21050Y37299D01*
X20947Y37285D01*
X20851Y37245D01*
X20768Y37182D01*
X20705Y37099D01*
X20665Y37003D01*
X20651Y36900D01*
X20665Y36797D01*
X20674Y36776D01*
X20506Y36608D01*
X20387D01*
X20363Y36658D01*
X20395Y36701D01*
X20435Y36797D01*
X20449Y36900D01*
X20435Y37003D01*
X20395Y37099D01*
X20332Y37182D01*
X20249Y37245D01*
X20153Y37285D01*
X20050Y37299D01*
X19947Y37285D01*
X19851Y37245D01*
X19768Y37182D01*
X19705Y37099D01*
X19696Y37078D01*
X19564D01*
X19290Y37352D01*
X19310Y37398D01*
X19852D01*
X19862Y37400D01*
X19872D01*
X19881Y37404D01*
X19891Y37406D01*
X19899Y37411D01*
X19909Y37415D01*
X19916Y37422D01*
X19924Y37428D01*
X19930Y37436D01*
X19937Y37443D01*
X19941Y37453D01*
X19946Y37461D01*
X19948Y37471D01*
X19952Y37480D01*
X19959Y37513D01*
X20050Y37501D01*
X20141Y37513D01*
X20148Y37480D01*
X20152Y37471D01*
X20154Y37461D01*
X20159Y37453D01*
X20163Y37443D01*
X20170Y37436D01*
X20176Y37428D01*
X20184Y37422D01*
X20191Y37415D01*
X20201Y37411D01*
X20209Y37406D01*
X20219Y37404D01*
X20228Y37400D01*
X20238D01*
X20248Y37398D01*
X20852D01*
X20862Y37400D01*
X20872D01*
X20881Y37404D01*
X20891Y37406D01*
X20899Y37411D01*
X20909Y37415D01*
X20916Y37422D01*
X20924Y37428D01*
X20930Y37436D01*
X20937Y37443D01*
X20941Y37453D01*
X20946Y37461D01*
X20948Y37471D01*
X20952Y37480D01*
X20959Y37513D01*
X21050Y37501D01*
X21141Y37513D01*
X21148Y37480D01*
D02*
G37*
G36*
X39948Y4590D02*
X26182Y4590D01*
X25096Y5676D01*
X25038Y5715D01*
X24970Y5728D01*
X21737D01*
X21713Y5778D01*
X21755Y5842D01*
X21775Y5940D01*
X21755Y6038D01*
X21700Y6120D01*
X21618Y6175D01*
X21598Y6179D01*
Y6630D01*
X21584Y6698D01*
X21545Y6756D01*
X18108Y10193D01*
Y16826D01*
X21545Y20263D01*
X21584Y20321D01*
X21598Y20389D01*
Y25151D01*
X21648Y25168D01*
X21683Y25123D01*
X21770Y25035D01*
X21849Y24975D01*
X21940Y24937D01*
X22038Y24924D01*
X22506D01*
Y17630D01*
Y16080D01*
X22522Y16002D01*
X22566Y15936D01*
X22632Y15892D01*
X22710Y15876D01*
X24520D01*
X29026Y15876D01*
X29026Y12490D01*
Y10070D01*
X29042Y9992D01*
X29086Y9926D01*
X29756Y9256D01*
X29822Y9212D01*
X29900Y9196D01*
X30362D01*
X30388Y9146D01*
X30380Y9133D01*
X30371Y9086D01*
Y8970D01*
X31231D01*
X32091D01*
Y9086D01*
X32082Y9133D01*
X32073Y9146D01*
X32100Y9196D01*
X32320D01*
X32398Y9212D01*
X32464Y9256D01*
X32624Y9416D01*
X32668Y9482D01*
X32684Y9560D01*
X32668Y9638D01*
X32654Y9660D01*
Y10518D01*
X32702Y10533D01*
X33180D01*
X33219Y10541D01*
X33252Y10563D01*
X33274Y10596D01*
X33282Y10635D01*
Y10815D01*
X33600D01*
Y10286D01*
X33619Y10188D01*
X33674Y10105D01*
X33790Y9990D01*
X33872Y9935D01*
X33970Y9915D01*
X35164D01*
X35170Y9907D01*
X35209Y9880D01*
X35256Y9871D01*
X36024D01*
X36071Y9880D01*
X36110Y9907D01*
X36116Y9915D01*
X37634D01*
Y9550D01*
X37643Y9504D01*
X37670Y9464D01*
X37710Y9437D01*
X37737Y9432D01*
Y8337D01*
X37433Y8033D01*
X37373Y8044D01*
X37366Y8055D01*
X37333Y8077D01*
X37294Y8085D01*
X36506D01*
X36467Y8077D01*
X36434Y8055D01*
X36412Y8022D01*
X36404Y7983D01*
Y7117D01*
X36412Y7078D01*
X36434Y7045D01*
X36467Y7023D01*
X36496Y7017D01*
Y6637D01*
X36463Y6603D01*
X31847D01*
X31634Y6816D01*
Y7631D01*
X31968D01*
X32015Y7640D01*
X32055Y7667D01*
X32082Y7707D01*
X32091Y7754D01*
Y8086D01*
X32082Y8133D01*
X32055Y8173D01*
X32015Y8200D01*
X31968Y8209D01*
X30494D01*
X30447Y8200D01*
X30407Y8173D01*
X30380Y8133D01*
X30371Y8086D01*
Y7754D01*
X30380Y7707D01*
X30407Y7667D01*
X30447Y7640D01*
X30494Y7631D01*
X30827D01*
Y6649D01*
X30827Y6649D01*
X30841Y6545D01*
X30882Y6447D01*
X30946Y6364D01*
X31395Y5915D01*
X31395Y5915D01*
X31406Y5906D01*
D01*
X31478Y5851D01*
X31576Y5810D01*
X31680Y5797D01*
X31680Y5797D01*
X36630D01*
X36630Y5797D01*
X36734Y5810D01*
X36832Y5851D01*
X36915Y5915D01*
X37185Y6185D01*
X37185Y6185D01*
X37249Y6268D01*
X37290Y6366D01*
X37303Y6470D01*
X37303Y6470D01*
Y7017D01*
X37333Y7023D01*
X37366Y7045D01*
X37388Y7078D01*
X37396Y7117D01*
Y7147D01*
X37520D01*
X37520Y7147D01*
X37624Y7160D01*
X37722Y7201D01*
X37805Y7265D01*
X38425Y7885D01*
X38425Y7885D01*
X38489Y7968D01*
X38530Y8066D01*
X38543Y8170D01*
Y9432D01*
X38570Y9437D01*
X38610Y9464D01*
X38637Y9504D01*
X38646Y9550D01*
Y10790D01*
X38637Y10836D01*
X38610Y10876D01*
X38570Y10903D01*
X38543Y10908D01*
Y12680D01*
X38530Y12784D01*
X38489Y12882D01*
X38425Y12965D01*
X38342Y13029D01*
X38244Y13070D01*
X38140Y13083D01*
X38036Y13070D01*
X37938Y13029D01*
X37855Y12965D01*
X37791Y12882D01*
X37750Y12784D01*
X37737Y12680D01*
Y10908D01*
X37710Y10903D01*
X37670Y10876D01*
X37643Y10836D01*
X37634Y10790D01*
Y10425D01*
X36116D01*
X36110Y10433D01*
X36071Y10460D01*
X36024Y10469D01*
X35256D01*
X35209Y10460D01*
X35170Y10433D01*
X35164Y10425D01*
X34109D01*
Y11070D01*
X34094Y11146D01*
Y11247D01*
X34086Y11286D01*
X34064Y11319D01*
X34031Y11341D01*
X33992Y11349D01*
X33717D01*
X33678Y11341D01*
X33653Y11325D01*
X33219D01*
Y11673D01*
X33240D01*
X33279Y11681D01*
X33312Y11703D01*
X33334Y11736D01*
X33342Y11775D01*
Y12365D01*
X33334Y12404D01*
X33312Y12437D01*
X33279Y12459D01*
X33240Y12467D01*
X32688D01*
X32654Y12510D01*
Y15800D01*
X32638Y15878D01*
X32594Y15944D01*
X29434Y19104D01*
X29434Y32230D01*
X29418Y32308D01*
X29374Y32374D01*
X29308Y32418D01*
X29230Y32434D01*
X22710Y32434D01*
X22632Y32418D01*
X22566Y32374D01*
X22522Y32308D01*
X22506Y32230D01*
Y31881D01*
X22428D01*
X22413Y31898D01*
X22396Y31927D01*
X22410Y31998D01*
Y32333D01*
X22394Y32411D01*
X22350Y32477D01*
X22284Y32521D01*
X22258Y32526D01*
X22252Y32547D01*
X22253Y32578D01*
X22278Y32595D01*
X22300Y32628D01*
X22308Y32667D01*
Y33002D01*
X22300Y33041D01*
X22278Y33074D01*
X22245Y33096D01*
X22206Y33104D01*
X22154D01*
Y33338D01*
X22180Y33355D01*
X22202Y33389D01*
X22209Y33428D01*
Y33743D01*
X22202Y33782D01*
X22180Y33815D01*
X22146Y33837D01*
X22107Y33844D01*
X21793D01*
X21753Y33837D01*
X21720Y33815D01*
X21698Y33782D01*
X21691Y33743D01*
Y33428D01*
X21698Y33389D01*
X21720Y33355D01*
X21746Y33338D01*
Y33104D01*
X21694D01*
X21655Y33096D01*
X21622Y33074D01*
X21600Y33041D01*
X21592Y33002D01*
Y32667D01*
X21600Y32628D01*
X21622Y32595D01*
X21647Y32578D01*
X21648Y32547D01*
X21642Y32526D01*
X21616Y32521D01*
X21550Y32477D01*
X21535Y32455D01*
X21485Y32470D01*
Y33938D01*
X21950D01*
X22022Y33947D01*
X22042Y33956D01*
X22107D01*
X22146Y33963D01*
X22180Y33985D01*
X22202Y34018D01*
X22202Y34020D01*
X22965D01*
X22968Y34016D01*
X23051Y33952D01*
X23147Y33913D01*
X23250Y33899D01*
X23353Y33913D01*
X23449Y33952D01*
X23532Y34016D01*
X23535Y34020D01*
X24819D01*
X24849Y33965D01*
X24924Y33874D01*
X25015Y33799D01*
X25119Y33743D01*
X25232Y33709D01*
X25350Y33697D01*
X25468Y33709D01*
X25581Y33743D01*
X25685Y33799D01*
X25776Y33874D01*
X25851Y33965D01*
X25907Y34069D01*
X25941Y34182D01*
X25953Y34300D01*
X25941Y34418D01*
X25907Y34531D01*
X25851Y34635D01*
X25776Y34726D01*
X25685Y34801D01*
X25581Y34857D01*
X25468Y34891D01*
X25350Y34903D01*
X25232Y34891D01*
X25119Y34857D01*
X25015Y34801D01*
X24924Y34726D01*
X24849Y34635D01*
X24817Y34575D01*
X23535D01*
X23532Y34580D01*
X23449Y34643D01*
X23353Y34683D01*
X23250Y34696D01*
X23147Y34683D01*
X23051Y34643D01*
X22968Y34580D01*
X22965Y34575D01*
X22033D01*
X21961Y34566D01*
X21894Y34538D01*
X21837Y34494D01*
X21835Y34492D01*
X21485D01*
Y34972D01*
X22080D01*
X22148Y34985D01*
X22206Y35024D01*
X22384Y35202D01*
X24530D01*
X24598Y35215D01*
X24656Y35254D01*
X25926Y36524D01*
X25947Y36515D01*
X26050Y36501D01*
X26153Y36515D01*
X26249Y36555D01*
X26332Y36618D01*
X26395Y36701D01*
X26435Y36797D01*
X26449Y36900D01*
X26435Y37003D01*
X26395Y37099D01*
X26332Y37182D01*
X26249Y37245D01*
X26153Y37285D01*
X26050Y37299D01*
X25947Y37285D01*
X25851Y37245D01*
X25768Y37182D01*
X25705Y37099D01*
X25665Y37003D01*
X25651Y36900D01*
X25665Y36797D01*
X25674Y36776D01*
X24456Y35558D01*
X24031D01*
X24011Y35608D01*
X24926Y36524D01*
X24947Y36515D01*
X25050Y36501D01*
X25153Y36515D01*
X25249Y36555D01*
X25332Y36618D01*
X25395Y36701D01*
X25435Y36797D01*
X25449Y36900D01*
X25435Y37003D01*
X25395Y37099D01*
X25332Y37182D01*
X25249Y37245D01*
X25153Y37285D01*
X25050Y37299D01*
X24947Y37285D01*
X24851Y37245D01*
X24768Y37182D01*
X24705Y37099D01*
X24665Y37003D01*
X24651Y36900D01*
X24665Y36797D01*
X24674Y36776D01*
X23796Y35898D01*
X23368D01*
X23353Y35929D01*
X23351Y35948D01*
X23926Y36524D01*
X23947Y36515D01*
X24050Y36501D01*
X24153Y36515D01*
X24249Y36555D01*
X24332Y36618D01*
X24395Y36701D01*
X24435Y36797D01*
X24449Y36900D01*
X24435Y37003D01*
X24395Y37099D01*
X24332Y37182D01*
X24249Y37245D01*
X24153Y37285D01*
X24050Y37299D01*
X23947Y37285D01*
X23851Y37245D01*
X23768Y37182D01*
X23705Y37099D01*
X23665Y37003D01*
X23651Y36900D01*
X23665Y36797D01*
X23674Y36776D01*
X23146Y36248D01*
X22716D01*
X22697Y36295D01*
X22926Y36524D01*
X22947Y36515D01*
X23050Y36501D01*
X23153Y36515D01*
X23249Y36555D01*
X23332Y36618D01*
X23395Y36701D01*
X23435Y36797D01*
X23449Y36900D01*
X23435Y37003D01*
X23395Y37099D01*
X23332Y37182D01*
X23249Y37245D01*
X23153Y37285D01*
X23050Y37299D01*
X22947Y37285D01*
X22851Y37245D01*
X22768Y37182D01*
X22705Y37099D01*
X22665Y37003D01*
X22651Y36900D01*
X22665Y36797D01*
X22674Y36776D01*
X22396Y36498D01*
X22244D01*
X22234Y36548D01*
X22249Y36555D01*
X22332Y36618D01*
X22395Y36701D01*
X22435Y36797D01*
X22449Y36900D01*
X22435Y37003D01*
X22395Y37099D01*
X22332Y37182D01*
X22249Y37245D01*
X22153Y37285D01*
X22050Y37299D01*
X21947Y37285D01*
X21851Y37245D01*
X21768Y37182D01*
X21705Y37099D01*
X21665Y37003D01*
X21651Y36900D01*
X21665Y36797D01*
X21674Y36776D01*
X21532Y36634D01*
X21485Y36653D01*
Y37500D01*
X21248D01*
X21238Y37550D01*
X21249Y37555D01*
X21332Y37618D01*
X21395Y37701D01*
X21435Y37797D01*
X21442Y37850D01*
X21050D01*
Y37900D01*
D01*
Y37850D01*
X20658D01*
X20665Y37797D01*
X20705Y37701D01*
X20768Y37618D01*
X20851Y37555D01*
X20862Y37550D01*
X20852Y37500D01*
X20248D01*
X20238Y37550D01*
X20249Y37555D01*
X20332Y37618D01*
X20395Y37701D01*
X20435Y37797D01*
X20442Y37850D01*
X20050D01*
Y37900D01*
D01*
Y37850D01*
X19658D01*
X19665Y37797D01*
X19705Y37701D01*
X19768Y37618D01*
X19851Y37555D01*
X19862Y37550D01*
X19852Y37500D01*
X19142D01*
X18395Y38247D01*
X18406Y39898D01*
X39948D01*
Y4590D01*
D02*
G37*
G36*
X19262Y29646D02*
X19230Y29607D01*
X19203Y29625D01*
X19135Y29638D01*
X18986D01*
Y29696D01*
X18980Y29723D01*
X18965Y29746D01*
X18942Y29762D01*
X18915Y29767D01*
X18777D01*
X18749Y29762D01*
X18726Y29746D01*
X18709D01*
X18686Y29762D01*
X18659Y29767D01*
X18521D01*
X18494Y29762D01*
X18471Y29746D01*
X18453D01*
X18430Y29762D01*
X18403Y29767D01*
X18265D01*
X18264Y29768D01*
Y30072D01*
X18836D01*
X19262Y29646D01*
D02*
G37*
G36*
X21384Y32470D02*
X21384Y32465D01*
X21384Y32460D01*
X21388Y32446D01*
X21391Y32431D01*
X21394Y32427D01*
X21396Y32422D01*
X21405Y32411D01*
X21413Y32398D01*
X21418Y32396D01*
X21421Y32392D01*
X21434Y32385D01*
X21446Y32376D01*
X21451Y32375D01*
X21456Y32373D01*
X21496Y32361D01*
X21490Y32333D01*
Y31998D01*
X21506Y31920D01*
X21550Y31854D01*
X21572Y31839D01*
Y31800D01*
X21585Y31702D01*
X21622Y31611D01*
X21683Y31533D01*
X21980Y31235D01*
X22059Y31175D01*
X22150Y31137D01*
X22248Y31124D01*
X22506D01*
Y28493D01*
X22516Y28442D01*
X22481Y28392D01*
X21470D01*
X21227Y28635D01*
Y29720D01*
X21218Y29792D01*
X21190Y29859D01*
X21172Y29883D01*
Y29965D01*
X21165Y29980D01*
X21165Y30020D01*
X21172Y30035D01*
Y30090D01*
X21180Y30101D01*
X21208Y30168D01*
X21217Y30240D01*
Y33825D01*
X21330Y33938D01*
X21384D01*
Y32470D01*
D02*
G37*
G36*
X19877Y27581D02*
Y25768D01*
X19832Y25746D01*
X19812Y25761D01*
X19383Y26190D01*
Y26719D01*
X19383Y26719D01*
X19373Y26798D01*
X19343Y26871D01*
X19295Y26933D01*
X19295Y26933D01*
X19254Y26974D01*
X19191Y27022D01*
X19133Y27046D01*
X19080Y27125D01*
X19026Y27179D01*
X18986Y27206D01*
Y27295D01*
X18980Y27322D01*
X18965Y27345D01*
X18942Y27360D01*
X18915Y27366D01*
X18777D01*
X18758Y27362D01*
X18745Y27381D01*
X18705Y27407D01*
X18659Y27417D01*
X18640D01*
Y27141D01*
X18610Y27097D01*
X18591Y26999D01*
X18610Y26902D01*
X18640Y26857D01*
Y26582D01*
X18659D01*
X18705Y26591D01*
X18731Y26608D01*
X18760Y26580D01*
X18778Y26567D01*
Y26148D01*
X18764Y26114D01*
X18753Y26029D01*
X18764Y25944D01*
X18797Y25865D01*
X18849Y25797D01*
X19297Y25349D01*
X19324Y25283D01*
X19380Y25210D01*
X19453Y25154D01*
X19539Y25119D01*
X19630Y25107D01*
X19721Y25119D01*
X19807Y25154D01*
X19832Y25174D01*
X19877Y25152D01*
Y21279D01*
X16464Y17866D01*
X16425Y17808D01*
X16412Y17740D01*
Y9260D01*
X16425Y9192D01*
X16464Y9134D01*
X19636Y5962D01*
X19635Y5960D01*
X19655Y5862D01*
X19710Y5780D01*
X19715Y5776D01*
X19700Y5728D01*
X17946D01*
X17923Y5778D01*
X17966Y5842D01*
X17985Y5940D01*
X17966Y6038D01*
X17910Y6120D01*
X17828Y6175D01*
X17730Y6195D01*
X17728Y6194D01*
X16158Y7764D01*
Y26969D01*
X16160Y26970D01*
X16215Y27052D01*
X16235Y27150D01*
X16215Y27248D01*
X16160Y27330D01*
X16078Y27385D01*
X15980Y27405D01*
X15882Y27385D01*
X15800Y27330D01*
X15745Y27248D01*
X15725Y27150D01*
X15745Y27052D01*
X15800Y26970D01*
X15802Y26969D01*
Y7690D01*
X15815Y7622D01*
X15854Y7564D01*
X17476Y5942D01*
X17475Y5940D01*
X17494Y5842D01*
X17537Y5778D01*
X17514Y5728D01*
X12304D01*
X12228Y5804D01*
Y8103D01*
X12345D01*
X12384Y8111D01*
X12417Y8133D01*
X12439Y8166D01*
X12447Y8205D01*
Y8795D01*
X12439Y8834D01*
X12417Y8867D01*
X12384Y8889D01*
X12345Y8897D01*
X11755D01*
X11738Y8911D01*
Y9236D01*
X13137Y10635D01*
X13137Y10635D01*
X13176Y10693D01*
X13190Y10761D01*
X13190Y10761D01*
Y19370D01*
X13176Y19438D01*
X13137Y19496D01*
X12668Y19965D01*
Y22516D01*
X13137Y22985D01*
X13176Y23043D01*
X13190Y23111D01*
Y27086D01*
X13210Y27100D01*
X13266Y27182D01*
X13285Y27280D01*
X13266Y27378D01*
X13210Y27460D01*
X13128Y27515D01*
X13030Y27535D01*
X12932Y27515D01*
X12850Y27460D01*
X12795Y27378D01*
X12775Y27280D01*
X12795Y27182D01*
X12833Y27125D01*
Y23185D01*
X12364Y22716D01*
X12325Y22658D01*
X12312Y22590D01*
Y19891D01*
X12325Y19823D01*
X12364Y19765D01*
X12833Y19296D01*
Y15925D01*
X12817Y15911D01*
X12783Y15893D01*
X12753Y15899D01*
X12666D01*
Y15620D01*
Y15341D01*
X12753D01*
X12783Y15347D01*
X12817Y15329D01*
X12833Y15315D01*
Y10835D01*
X11434Y9436D01*
X11395Y9378D01*
X11382Y9310D01*
Y8795D01*
X11334Y8779D01*
X11332Y8782D01*
X11249Y8845D01*
X11153Y8885D01*
X11050Y8899D01*
X10947Y8885D01*
X10851Y8845D01*
X10768Y8782D01*
X10705Y8699D01*
X10665Y8603D01*
X10651Y8500D01*
X10665Y8397D01*
X10705Y8301D01*
X10768Y8218D01*
X10851Y8155D01*
X10872Y8146D01*
Y5441D01*
X10870Y5440D01*
X10814Y5358D01*
X10795Y5260D01*
X10814Y5162D01*
X10870Y5080D01*
X10952Y5024D01*
X11050Y5005D01*
X11148Y5024D01*
X11230Y5080D01*
X11286Y5162D01*
X11305Y5260D01*
X11286Y5358D01*
X11230Y5440D01*
X11228Y5441D01*
Y8146D01*
X11249Y8155D01*
X11332Y8218D01*
X11334Y8221D01*
X11382Y8205D01*
Y5530D01*
X11395Y5462D01*
X11434Y5404D01*
X11764Y5074D01*
X11764Y5074D01*
X11822Y5035D01*
X11890Y5022D01*
X24476D01*
X24535Y4962D01*
X24511Y4916D01*
X24475Y4923D01*
X8809D01*
X7628Y6104D01*
Y16654D01*
X7674Y16722D01*
X7675Y16725D01*
X7725D01*
X7726Y16722D01*
X7772Y16654D01*
Y16154D01*
X7765Y16149D01*
X7742Y16116D01*
X7735Y16077D01*
Y15723D01*
X7742Y15684D01*
X7765Y15651D01*
X7798Y15629D01*
X7837Y15621D01*
X8112D01*
X8151Y15629D01*
X8184Y15651D01*
X8206Y15684D01*
X8214Y15723D01*
Y16077D01*
X8206Y16116D01*
X8184Y16149D01*
X8151Y16171D01*
X8128Y16176D01*
Y16654D01*
X8174Y16722D01*
X8175Y16725D01*
X8225D01*
X8226Y16722D01*
X8279Y16644D01*
X8322Y16615D01*
Y16153D01*
X8316Y16149D01*
X8294Y16116D01*
X8286Y16077D01*
Y15723D01*
X8294Y15684D01*
X8316Y15651D01*
X8349Y15629D01*
X8388Y15621D01*
X8663D01*
X8702Y15629D01*
X8735Y15651D01*
X8758Y15684D01*
X8765Y15723D01*
Y16077D01*
X8758Y16116D01*
X8735Y16149D01*
X8730Y16153D01*
Y16963D01*
X9619D01*
X9634Y16952D01*
X9673Y16945D01*
X10027D01*
X10066Y16952D01*
X10081Y16963D01*
X11315D01*
X11773Y16505D01*
Y14897D01*
X11755D01*
X11716Y14889D01*
X11683Y14867D01*
X11661Y14834D01*
X11653Y14795D01*
Y14205D01*
X11661Y14166D01*
X11683Y14133D01*
X11716Y14111D01*
X11755Y14103D01*
X11773D01*
Y12265D01*
X9854Y10346D01*
X9810Y10289D01*
X9782Y10222D01*
X9773Y10150D01*
Y8785D01*
X9768Y8782D01*
X9705Y8699D01*
X9665Y8603D01*
X9651Y8500D01*
X9665Y8397D01*
X9705Y8301D01*
X9768Y8218D01*
X9851Y8155D01*
X9947Y8115D01*
X10050Y8101D01*
X10153Y8115D01*
X10249Y8155D01*
X10332Y8218D01*
X10395Y8301D01*
X10435Y8397D01*
X10449Y8500D01*
X10435Y8603D01*
X10395Y8699D01*
X10332Y8782D01*
X10327Y8785D01*
Y10035D01*
X12246Y11954D01*
X12290Y12011D01*
X12318Y12078D01*
X12327Y12150D01*
Y14103D01*
X12345D01*
X12384Y14111D01*
X12417Y14133D01*
X12439Y14166D01*
X12447Y14205D01*
Y14795D01*
X12439Y14834D01*
X12417Y14867D01*
X12384Y14889D01*
X12345Y14897D01*
X12327D01*
Y15430D01*
X12377Y15435D01*
X12384Y15404D01*
X12406Y15371D01*
X12439Y15349D01*
X12478Y15341D01*
X12566D01*
Y15620D01*
Y15899D01*
X12478D01*
X12439Y15891D01*
X12406Y15869D01*
X12384Y15836D01*
X12377Y15805D01*
X12327Y15810D01*
Y16620D01*
X12318Y16692D01*
X12290Y16759D01*
X12246Y16816D01*
X11657Y17405D01*
Y18215D01*
X11896Y18454D01*
X11940Y18511D01*
X11968Y18578D01*
X11977Y18650D01*
Y26985D01*
X12725Y27733D01*
X18633D01*
X18658Y27722D01*
X18730Y27713D01*
X18802Y27722D01*
X18869Y27750D01*
X18926Y27794D01*
X18970Y27851D01*
X18998Y27918D01*
X19007Y27990D01*
X18998Y28062D01*
X18970Y28129D01*
X18945Y28162D01*
X18970Y28212D01*
X19246D01*
X19877Y27581D01*
D02*
G37*
G36*
X29230Y19020D02*
X32450Y15800D01*
Y12467D01*
X32266D01*
Y12070D01*
Y11673D01*
X32450D01*
Y11342D01*
X32432Y11327D01*
X32206D01*
Y10930D01*
Y10533D01*
X32432D01*
X32450Y10518D01*
Y9590D01*
X32480Y9560D01*
X32320Y9400D01*
X29900D01*
X29230Y10070D01*
Y12490D01*
X29230Y16080D01*
X24520Y16080D01*
X22710D01*
Y17630D01*
Y27737D01*
X23007D01*
X23100Y27665D01*
X23221Y27615D01*
X23350Y27598D01*
X23479Y27615D01*
X23600Y27665D01*
X23671Y27719D01*
X24760D01*
X24765Y27709D01*
X24853Y27603D01*
X24959Y27515D01*
X25081Y27450D01*
X25213Y27410D01*
X25350Y27397D01*
X25487Y27410D01*
X25619Y27450D01*
X25741Y27515D01*
X25847Y27603D01*
X25935Y27709D01*
X26000Y27831D01*
X26040Y27963D01*
X26053Y28100D01*
X26040Y28237D01*
X26000Y28369D01*
X25935Y28491D01*
X25847Y28597D01*
X25741Y28685D01*
X25619Y28750D01*
X25487Y28790D01*
X25350Y28803D01*
X25213Y28790D01*
X25081Y28750D01*
X24959Y28685D01*
X24853Y28597D01*
X24765Y28491D01*
X24757Y28476D01*
X23671D01*
X23600Y28530D01*
X23479Y28580D01*
X23350Y28597D01*
X23221Y28580D01*
X23100Y28530D01*
X23052Y28493D01*
X22710D01*
Y32230D01*
X29230Y32230D01*
X29230Y19020D01*
D02*
G37*
G36*
X20782Y27029D02*
X20750Y26990D01*
X20728Y27006D01*
X20630Y27025D01*
X20532Y27006D01*
X20450Y26950D01*
X20394Y26868D01*
X20375Y26770D01*
X20394Y26672D01*
X20450Y26590D01*
X20452Y26589D01*
Y20904D01*
X17134Y17586D01*
X17095Y17528D01*
X17082Y17460D01*
Y9980D01*
X17095Y9912D01*
X17134Y9854D01*
X20452Y6536D01*
Y6141D01*
X20450Y6140D01*
X20394Y6058D01*
X20375Y5960D01*
X20394Y5862D01*
X20450Y5780D01*
X20455Y5776D01*
X20440Y5728D01*
X20080D01*
X20065Y5776D01*
X20070Y5780D01*
X20126Y5862D01*
X20145Y5960D01*
X20126Y6058D01*
X20070Y6140D01*
X19988Y6195D01*
X19890Y6215D01*
X19888Y6214D01*
X16768Y9334D01*
Y17666D01*
X20181Y21079D01*
X20220Y21137D01*
X20233Y21205D01*
X20233Y21205D01*
Y27512D01*
X20280Y27532D01*
X20782Y27029D01*
D02*
G37*
G36*
X20673Y29504D02*
Y28520D01*
X20682Y28448D01*
X20710Y28381D01*
X20754Y28324D01*
X21159Y27919D01*
X21216Y27875D01*
X21283Y27847D01*
X21355Y27838D01*
X22481D01*
X22516Y27788D01*
X22506Y27737D01*
Y25681D01*
X22424D01*
X22410Y25698D01*
Y26033D01*
X22394Y26111D01*
X22350Y26177D01*
X22284Y26221D01*
X22258Y26226D01*
X22252Y26247D01*
X22253Y26278D01*
X22278Y26295D01*
X22300Y26328D01*
X22308Y26367D01*
Y26702D01*
X22300Y26741D01*
X22278Y26774D01*
X22245Y26796D01*
X22206Y26804D01*
X22154D01*
Y27238D01*
X22180Y27255D01*
X22202Y27289D01*
X22209Y27328D01*
Y27643D01*
X22202Y27682D01*
X22180Y27715D01*
X22146Y27737D01*
X22107Y27744D01*
X21793D01*
X21753Y27737D01*
X21720Y27715D01*
X21698Y27682D01*
X21691Y27643D01*
Y27328D01*
X21698Y27289D01*
X21720Y27255D01*
X21746Y27238D01*
Y26804D01*
X21694D01*
X21655Y26796D01*
X21622Y26774D01*
X21613Y26760D01*
X21558Y26755D01*
X21555Y26756D01*
X21545Y26771D01*
X21545Y26771D01*
X19450Y28866D01*
X19396Y28902D01*
X19396Y28922D01*
X19403Y28953D01*
X19488Y28970D01*
X19570Y29025D01*
X19626Y29108D01*
X19645Y29205D01*
X19628Y29291D01*
X19631Y29302D01*
X19646Y29324D01*
X19661Y29339D01*
X20116D01*
X20184Y29353D01*
X20242Y29392D01*
X20297Y29447D01*
X20480D01*
X20548Y29460D01*
X20606Y29499D01*
X20618Y29517D01*
X20625Y29520D01*
X20673Y29504D01*
D02*
G37*
G36*
X38218Y12970D02*
X38290Y12940D01*
X38353Y12893D01*
X38400Y12830D01*
X38430Y12758D01*
X38441Y12673D01*
Y11492D01*
X38391Y11487D01*
X38375Y11568D01*
X38320Y11650D01*
X38238Y11705D01*
X38190Y11715D01*
Y11470D01*
X38090D01*
Y11715D01*
X38042Y11705D01*
X37960Y11650D01*
X37905Y11568D01*
X37889Y11487D01*
X37839Y11492D01*
Y12328D01*
X37848Y12336D01*
X37915Y12327D01*
X37940Y12290D01*
X38022Y12234D01*
X38070Y12225D01*
Y12470D01*
Y12715D01*
X38022Y12706D01*
X37940Y12650D01*
X37915Y12613D01*
X37848Y12604D01*
X37839Y12612D01*
Y12673D01*
X37850Y12758D01*
X37880Y12830D01*
X37927Y12893D01*
X37990Y12940D01*
X38062Y12970D01*
X38140Y12981D01*
X38218Y12970D01*
D02*
G37*
G36*
X33904Y10791D02*
X33992D01*
X34007Y10778D01*
Y10425D01*
X34015Y10386D01*
X34037Y10353D01*
X34070Y10331D01*
X34109Y10323D01*
X35134D01*
Y10220D01*
X35640D01*
X36146D01*
Y10323D01*
X37634D01*
Y10220D01*
X38140D01*
Y10170D01*
X38190D01*
Y9428D01*
X38441D01*
Y8177D01*
X38430Y8092D01*
X38400Y8020D01*
X38348Y7952D01*
X38266Y7869D01*
X38265Y7870D01*
X38020D01*
Y7625D01*
X38021Y7624D01*
X37738Y7342D01*
X37670Y7290D01*
X37598Y7260D01*
X37513Y7249D01*
X37396D01*
Y7500D01*
X36950D01*
Y7015D01*
X37201D01*
Y6477D01*
X37190Y6392D01*
X37160Y6320D01*
X37108Y6252D01*
X36848Y5992D01*
X36780Y5940D01*
X36708Y5910D01*
X36623Y5899D01*
X31687D01*
X31602Y5910D01*
X31530Y5940D01*
X31462Y5992D01*
X31456Y5998D01*
X31022Y6431D01*
X30971Y6499D01*
X30966Y6509D01*
X30941Y6571D01*
X30929Y6656D01*
Y7631D01*
X31181D01*
Y7920D01*
X31281D01*
Y7631D01*
X31532D01*
Y6816D01*
X31540Y6777D01*
X31562Y6744D01*
X31775Y6531D01*
X31808Y6509D01*
X31847Y6501D01*
X36463D01*
X36502Y6509D01*
X36524Y6524D01*
X36535Y6531D01*
X36569Y6565D01*
Y6565D01*
X36569D01*
X36580Y6581D01*
X36591Y6598D01*
Y6598D01*
X36591Y6598D01*
X36595Y6622D01*
X36598Y6637D01*
Y6637D01*
Y6637D01*
Y7015D01*
X36850D01*
Y7550D01*
X36900D01*
Y7600D01*
X37396D01*
Y7896D01*
X37433Y7931D01*
X37443Y7933D01*
X37454Y7934D01*
X37463Y7937D01*
X37472Y7939D01*
X37481Y7945D01*
X37491Y7949D01*
X37497Y7956D01*
X37505Y7961D01*
X37809Y8265D01*
X37831Y8298D01*
X37839Y8337D01*
Y8788D01*
X37889Y8793D01*
X37894Y8762D01*
X37950Y8680D01*
X38032Y8625D01*
X38080Y8615D01*
Y8860D01*
Y9105D01*
X38032Y9095D01*
X37950Y9040D01*
X37894Y8958D01*
X37889Y8927D01*
X37839Y8932D01*
Y9428D01*
X38090D01*
Y10120D01*
X37634D01*
Y10017D01*
X36146D01*
Y10120D01*
X35640D01*
X35134D01*
Y10017D01*
X33980D01*
X33912Y10031D01*
X33855Y10069D01*
X33753Y10170D01*
X33715Y10228D01*
X33701Y10296D01*
Y10778D01*
X33717Y10791D01*
X33804D01*
Y11070D01*
X33904D01*
Y10791D01*
D02*
G37*
G36*
X21241Y26571D02*
Y20463D01*
X17804Y17026D01*
X17765Y16968D01*
X17752Y16900D01*
Y10119D01*
X17765Y10051D01*
X17804Y9993D01*
X21241Y6556D01*
Y6041D01*
X21254Y5973D01*
X21268Y5953D01*
X21265Y5940D01*
X21284Y5842D01*
X21327Y5778D01*
X21304Y5728D01*
X20820D01*
X20805Y5776D01*
X20810Y5780D01*
X20865Y5862D01*
X20885Y5960D01*
X20865Y6058D01*
X20810Y6140D01*
X20808Y6141D01*
Y6610D01*
X20808Y6610D01*
X20795Y6678D01*
X20756Y6736D01*
X20756Y6736D01*
X17438Y10054D01*
Y17386D01*
X20756Y20704D01*
X20756Y20704D01*
X20795Y20762D01*
X20808Y20830D01*
X20808Y20830D01*
Y26589D01*
X20810Y26590D01*
X20865Y26672D01*
X20885Y26770D01*
X20865Y26868D01*
X20850Y26890D01*
X20889Y26922D01*
X21241Y26571D01*
D02*
G37*
G36*
X11872Y5730D02*
X11885Y5662D01*
X11924Y5604D01*
X12099Y5428D01*
X12097Y5409D01*
X12082Y5378D01*
X11964D01*
X11738Y5604D01*
Y8089D01*
X11755Y8103D01*
X11872D01*
Y5730D01*
D02*
G37*
G36*
X6726Y16722D02*
X6779Y16644D01*
X6857Y16591D01*
X6950Y16573D01*
X7043Y16591D01*
X7121Y16644D01*
X7174Y16722D01*
X7175Y16725D01*
X7225D01*
X7226Y16722D01*
X7272Y16654D01*
Y6030D01*
X7285Y5962D01*
X7324Y5904D01*
X8523Y4705D01*
X8504Y4658D01*
X8174D01*
X6628Y6204D01*
Y16654D01*
X6674Y16722D01*
X6675Y16725D01*
X6725D01*
X6726Y16722D01*
D02*
G37*
G36*
X25984Y4283D02*
X25964Y4233D01*
X25533D01*
X25506Y4283D01*
X25545Y4342D01*
X25565Y4440D01*
X25545Y4538D01*
X25490Y4620D01*
X25408Y4676D01*
X25310Y4695D01*
X25308Y4694D01*
X24681Y5322D01*
X24683Y5341D01*
X24698Y5372D01*
X24896D01*
X25984Y4283D01*
D02*
G37*
G36*
X6226Y16722D02*
X6272Y16654D01*
Y6130D01*
X6285Y6062D01*
X6324Y6004D01*
X7974Y4354D01*
X7974Y4354D01*
X8032Y4315D01*
X8100Y4302D01*
X24086D01*
X24125Y4263D01*
X24113Y4240D01*
X24096Y4221D01*
X24035Y4233D01*
X7769D01*
X6128Y5874D01*
Y16654D01*
X6174Y16722D01*
X6175Y16725D01*
X6225D01*
X6226Y16722D01*
D02*
G37*
G36*
X5726D02*
X5772Y16654D01*
Y5800D01*
X5785Y5732D01*
X5824Y5674D01*
X7569Y3929D01*
X7569Y3929D01*
X7627Y3890D01*
X7695Y3877D01*
X7695Y3877D01*
X9298D01*
X9326Y3836D01*
X9324Y3827D01*
X9305Y3730D01*
X9325Y3632D01*
X9357Y3585D01*
X9330Y3535D01*
X7748D01*
X5628Y5654D01*
Y16654D01*
X5674Y16722D01*
X5675Y16725D01*
X5725D01*
X5726Y16722D01*
D02*
G37*
G36*
X38946Y774D02*
X38866Y694D01*
X37764D01*
X37754Y744D01*
X37843Y780D01*
X38020Y889D01*
X38178Y1024D01*
X38313Y1182D01*
X38422Y1359D01*
X38501Y1551D01*
X38550Y1753D01*
X38566Y1961D01*
X38550Y2168D01*
X38501Y2370D01*
X38422Y2562D01*
X38313Y2739D01*
X38178Y2897D01*
X38020Y3032D01*
X37843Y3141D01*
X37651Y3220D01*
X37449Y3269D01*
X37241Y3285D01*
X37034Y3269D01*
X36832Y3220D01*
X36640Y3141D01*
X36463Y3032D01*
X36305Y2897D01*
X36170Y2739D01*
X36061Y2562D01*
X35982Y2370D01*
X35933Y2168D01*
X35917Y1961D01*
X35933Y1753D01*
X35982Y1551D01*
X36061Y1359D01*
X36170Y1182D01*
X36305Y1024D01*
X36463Y889D01*
X36640Y780D01*
X36728Y744D01*
X36718Y694D01*
X35455D01*
Y727D01*
X35454Y734D01*
Y1308D01*
X35532Y1368D01*
X35595Y1451D01*
X35635Y1547D01*
X35649Y1650D01*
X35635Y1753D01*
X35595Y1849D01*
X35532Y1932D01*
X35449Y1995D01*
X35353Y2035D01*
X35250Y2049D01*
X35147Y2035D01*
X35051Y1995D01*
X34968Y1932D01*
X34908Y1854D01*
X34592D01*
X34532Y1932D01*
X34449Y1995D01*
X34353Y2035D01*
X34250Y2049D01*
X34147Y2035D01*
X34051Y1995D01*
X33968Y1932D01*
X33949Y1907D01*
X33899Y1924D01*
Y2086D01*
X34098Y2285D01*
X34147Y2265D01*
X34250Y2251D01*
X34353Y2265D01*
X34449Y2305D01*
X34532Y2368D01*
X34595Y2451D01*
X34635Y2547D01*
X34649Y2650D01*
X34635Y2753D01*
X34595Y2849D01*
X34532Y2932D01*
X34449Y2995D01*
X34353Y3035D01*
X34250Y3049D01*
X34147Y3035D01*
X34051Y2995D01*
X33968Y2932D01*
X33905Y2849D01*
X33865Y2753D01*
X33851Y2650D01*
X33864Y2556D01*
X33594Y2286D01*
X33555Y2229D01*
X33542Y2160D01*
Y1987D01*
X33492Y1963D01*
X33449Y1995D01*
X33353Y2035D01*
X33300Y2042D01*
Y1650D01*
Y1258D01*
X33353Y1265D01*
X33436Y1299D01*
X33465Y1257D01*
X32951Y744D01*
X15044D01*
X15029Y794D01*
X15185Y889D01*
X15343Y1024D01*
X15478Y1182D01*
X15587Y1359D01*
X15666Y1551D01*
X15715Y1753D01*
X15731Y1961D01*
X15715Y2168D01*
X15666Y2370D01*
X15587Y2562D01*
X15478Y2739D01*
X15343Y2897D01*
X15185Y3032D01*
X15029Y3128D01*
X15044Y3178D01*
X16135D01*
X16218Y3095D01*
X16200Y3042D01*
X16147Y3035D01*
X16051Y2995D01*
X15968Y2932D01*
X15905Y2849D01*
X15865Y2753D01*
X15858Y2700D01*
X16250D01*
Y2650D01*
X16300D01*
Y2258D01*
X16353Y2265D01*
X16449Y2305D01*
X16532Y2368D01*
X16551Y2393D01*
X16601Y2376D01*
Y2120D01*
X16615Y2052D01*
X16654Y1994D01*
X16874Y1774D01*
X16865Y1753D01*
X16851Y1650D01*
X16865Y1547D01*
X16905Y1451D01*
X16968Y1368D01*
X17051Y1305D01*
X17147Y1265D01*
X17250Y1251D01*
X17353Y1265D01*
X17449Y1305D01*
X17532Y1368D01*
X17595Y1451D01*
X17635Y1547D01*
X17649Y1650D01*
X17635Y1753D01*
X17595Y1849D01*
X17532Y1932D01*
X17449Y1995D01*
X17353Y2035D01*
X17250Y2049D01*
X17147Y2035D01*
X17126Y2026D01*
X16958Y2194D01*
Y2313D01*
X17008Y2337D01*
X17051Y2305D01*
X17147Y2265D01*
X17250Y2251D01*
X17353Y2265D01*
X17449Y2305D01*
X17532Y2368D01*
X17595Y2451D01*
X17635Y2547D01*
X17649Y2650D01*
X17635Y2753D01*
X17595Y2849D01*
X17532Y2932D01*
X17449Y2995D01*
X17353Y3035D01*
X17250Y3049D01*
X17147Y3035D01*
X17051Y2995D01*
X16968Y2932D01*
X16960Y2921D01*
X16935Y2917D01*
X16897Y2921D01*
X16335Y3482D01*
X16306Y3502D01*
X16321Y3552D01*
X23514D01*
X23515Y3550D01*
X23535Y3452D01*
X23590Y3370D01*
X23672Y3314D01*
X23770Y3295D01*
X23868Y3314D01*
X23950Y3370D01*
X24005Y3452D01*
X24025Y3550D01*
X24005Y3648D01*
X23950Y3730D01*
X23868Y3785D01*
X23786Y3802D01*
X23770Y3827D01*
X23788Y3869D01*
X23796Y3877D01*
X23961D01*
X24036Y3802D01*
X24035Y3800D01*
X24055Y3702D01*
X24110Y3620D01*
X24192Y3564D01*
X24290Y3545D01*
X24388Y3564D01*
X24470Y3620D01*
X24525Y3702D01*
X24540Y3777D01*
X24593Y3795D01*
X24834Y3554D01*
X24892Y3515D01*
X24960Y3502D01*
X24960Y3502D01*
X26079D01*
X26080Y3500D01*
X26162Y3444D01*
X26260Y3425D01*
X26358Y3444D01*
X26440Y3500D01*
X26495Y3582D01*
X26515Y3680D01*
X26495Y3778D01*
X26463Y3827D01*
X26489Y3877D01*
X31495D01*
X31520Y3827D01*
X31518Y3824D01*
X27570D01*
X27492Y3808D01*
X27426Y3764D01*
X27106Y3444D01*
X27062Y3378D01*
X27046Y3300D01*
Y2992D01*
X26968Y2932D01*
X26905Y2849D01*
X26865Y2753D01*
X26851Y2650D01*
X26865Y2547D01*
X26905Y2451D01*
X26968Y2368D01*
X27051Y2305D01*
X27147Y2265D01*
X27250Y2251D01*
X27353Y2265D01*
X27449Y2305D01*
X27532Y2368D01*
X27595Y2451D01*
X27635Y2547D01*
X27649Y2650D01*
X27635Y2753D01*
X27595Y2849D01*
X27532Y2932D01*
X27454Y2992D01*
Y3216D01*
X27654Y3416D01*
X31565D01*
X31612Y3385D01*
X31710Y3365D01*
X31808Y3385D01*
X31890Y3440D01*
X31946Y3522D01*
X31965Y3620D01*
X31946Y3718D01*
X31890Y3800D01*
X31851Y3827D01*
X31866Y3877D01*
X31981D01*
X32072Y3786D01*
Y3004D01*
X32051Y2995D01*
X31968Y2932D01*
X31905Y2849D01*
X31865Y2753D01*
X31851Y2650D01*
X31865Y2547D01*
X31905Y2451D01*
X31968Y2368D01*
X32051Y2305D01*
X32147Y2265D01*
X32250Y2251D01*
X32353Y2265D01*
X32449Y2305D01*
X32532Y2368D01*
X32595Y2451D01*
X32635Y2547D01*
X32649Y2650D01*
X32635Y2753D01*
X32595Y2849D01*
X32532Y2932D01*
X32449Y2995D01*
X32428Y3004D01*
Y3860D01*
X32428Y3860D01*
X32415Y3928D01*
X32376Y3986D01*
X32376Y3986D01*
X32211Y4152D01*
X32231Y4202D01*
X32856D01*
X33072Y3986D01*
Y3004D01*
X33051Y2995D01*
X32968Y2932D01*
X32905Y2849D01*
X32865Y2753D01*
X32851Y2650D01*
X32865Y2547D01*
X32905Y2451D01*
X32968Y2368D01*
X33051Y2305D01*
X33147Y2265D01*
X33250Y2251D01*
X33353Y2265D01*
X33449Y2305D01*
X33532Y2368D01*
X33595Y2451D01*
X33635Y2547D01*
X33649Y2650D01*
X33635Y2753D01*
X33595Y2849D01*
X33532Y2932D01*
X33449Y2995D01*
X33428Y3004D01*
Y4060D01*
X33415Y4128D01*
X33376Y4186D01*
X33376Y4186D01*
X33120Y4442D01*
X33140Y4488D01*
X38946D01*
Y774D01*
D02*
G37*
%LPC*%
G36*
X9100Y39292D02*
Y38950D01*
X9442D01*
X9435Y39003D01*
X9395Y39099D01*
X9332Y39182D01*
X9249Y39245D01*
X9153Y39285D01*
X9100Y39292D01*
D02*
G37*
G36*
X6100D02*
Y38950D01*
X6442D01*
X6435Y39003D01*
X6395Y39099D01*
X6332Y39182D01*
X6249Y39245D01*
X6153Y39285D01*
X6100Y39292D01*
D02*
G37*
G36*
X4100D02*
Y38950D01*
X4442D01*
X4435Y39003D01*
X4395Y39099D01*
X4332Y39182D01*
X4249Y39245D01*
X4153Y39285D01*
X4100Y39292D01*
D02*
G37*
G36*
X11345Y39297D02*
X11100D01*
Y38950D01*
X11447D01*
Y39195D01*
X11439Y39234D01*
X11417Y39267D01*
X11384Y39289D01*
X11345Y39297D01*
D02*
G37*
G36*
X8100Y39292D02*
Y38950D01*
X8442D01*
X8435Y39003D01*
X8395Y39099D01*
X8332Y39182D01*
X8249Y39245D01*
X8153Y39285D01*
X8100Y39292D01*
D02*
G37*
G36*
X7100D02*
Y38950D01*
X7442D01*
X7435Y39003D01*
X7395Y39099D01*
X7332Y39182D01*
X7249Y39245D01*
X7153Y39285D01*
X7100Y39292D01*
D02*
G37*
G36*
X10100D02*
Y38950D01*
X10442D01*
X10435Y39003D01*
X10395Y39099D01*
X10332Y39182D01*
X10249Y39245D01*
X10153Y39285D01*
X10100Y39292D01*
D02*
G37*
G36*
X5100D02*
Y38950D01*
X5442D01*
X5435Y39003D01*
X5395Y39099D01*
X5332Y39182D01*
X5249Y39245D01*
X5153Y39285D01*
X5100Y39292D01*
D02*
G37*
G36*
X9000D02*
X8947Y39285D01*
X8851Y39245D01*
X8768Y39182D01*
X8705Y39099D01*
X8665Y39003D01*
X8658Y38950D01*
X9000D01*
Y39292D01*
D02*
G37*
G36*
X4000D02*
X3947Y39285D01*
X3851Y39245D01*
X3768Y39182D01*
X3705Y39099D01*
X3665Y39003D01*
X3658Y38950D01*
X4000D01*
Y39292D01*
D02*
G37*
G36*
X7000D02*
X6947Y39285D01*
X6851Y39245D01*
X6768Y39182D01*
X6705Y39099D01*
X6665Y39003D01*
X6658Y38950D01*
X7000D01*
Y39292D01*
D02*
G37*
G36*
X6000D02*
X5947Y39285D01*
X5851Y39245D01*
X5768Y39182D01*
X5705Y39099D01*
X5665Y39003D01*
X5658Y38950D01*
X6000D01*
Y39292D01*
D02*
G37*
G36*
X8000D02*
X7947Y39285D01*
X7851Y39245D01*
X7768Y39182D01*
X7705Y39099D01*
X7665Y39003D01*
X7658Y38950D01*
X8000D01*
Y39292D01*
D02*
G37*
G36*
X10000D02*
X9947Y39285D01*
X9851Y39245D01*
X9768Y39182D01*
X9705Y39099D01*
X9665Y39003D01*
X9658Y38950D01*
X10000D01*
Y39292D01*
D02*
G37*
G36*
X5000D02*
X4947Y39285D01*
X4851Y39245D01*
X4768Y39182D01*
X4705Y39099D01*
X4665Y39003D01*
X4658Y38950D01*
X5000D01*
Y39292D01*
D02*
G37*
G36*
X11000Y39297D02*
X10755D01*
X10716Y39289D01*
X10683Y39267D01*
X10661Y39234D01*
X10653Y39195D01*
Y38950D01*
X11000D01*
Y39297D01*
D02*
G37*
G36*
X10442Y38850D02*
X10100D01*
Y38508D01*
X10153Y38515D01*
X10249Y38555D01*
X10332Y38618D01*
X10395Y38701D01*
X10435Y38797D01*
X10442Y38850D01*
D02*
G37*
G36*
X9442D02*
X9100D01*
Y38508D01*
X9153Y38515D01*
X9249Y38555D01*
X9332Y38618D01*
X9395Y38701D01*
X9435Y38797D01*
X9442Y38850D01*
D02*
G37*
G36*
X8442D02*
X8100D01*
Y38508D01*
X8153Y38515D01*
X8249Y38555D01*
X8332Y38618D01*
X8395Y38701D01*
X8435Y38797D01*
X8442Y38850D01*
D02*
G37*
G36*
X7442D02*
X7100D01*
Y38508D01*
X7153Y38515D01*
X7249Y38555D01*
X7332Y38618D01*
X7395Y38701D01*
X7435Y38797D01*
X7442Y38850D01*
D02*
G37*
G36*
X6442D02*
X6100D01*
Y38508D01*
X6153Y38515D01*
X6249Y38555D01*
X6332Y38618D01*
X6395Y38701D01*
X6435Y38797D01*
X6442Y38850D01*
D02*
G37*
G36*
X5442D02*
X5100D01*
Y38508D01*
X5153Y38515D01*
X5249Y38555D01*
X5332Y38618D01*
X5395Y38701D01*
X5435Y38797D01*
X5442Y38850D01*
D02*
G37*
G36*
X4442D02*
X4100D01*
Y38508D01*
X4153Y38515D01*
X4249Y38555D01*
X4332Y38618D01*
X4395Y38701D01*
X4435Y38797D01*
X4442Y38850D01*
D02*
G37*
G36*
X10000D02*
X9658D01*
X9665Y38797D01*
X9705Y38701D01*
X9768Y38618D01*
X9851Y38555D01*
X9947Y38515D01*
X10000Y38508D01*
Y38850D01*
D02*
G37*
G36*
X9000D02*
X8658D01*
X8665Y38797D01*
X8705Y38701D01*
X8768Y38618D01*
X8851Y38555D01*
X8947Y38515D01*
X9000Y38508D01*
Y38850D01*
D02*
G37*
G36*
X8000D02*
X7658D01*
X7665Y38797D01*
X7705Y38701D01*
X7768Y38618D01*
X7851Y38555D01*
X7947Y38515D01*
X8000Y38508D01*
Y38850D01*
D02*
G37*
G36*
X7000D02*
X6658D01*
X6665Y38797D01*
X6705Y38701D01*
X6768Y38618D01*
X6851Y38555D01*
X6947Y38515D01*
X7000Y38508D01*
Y38850D01*
D02*
G37*
G36*
X6000D02*
X5658D01*
X5665Y38797D01*
X5705Y38701D01*
X5768Y38618D01*
X5851Y38555D01*
X5947Y38515D01*
X6000Y38508D01*
Y38850D01*
D02*
G37*
G36*
X5000D02*
X4658D01*
X4665Y38797D01*
X4705Y38701D01*
X4768Y38618D01*
X4851Y38555D01*
X4947Y38515D01*
X5000Y38508D01*
Y38850D01*
D02*
G37*
G36*
X4000D02*
X3658D01*
X3665Y38797D01*
X3705Y38701D01*
X3768Y38618D01*
X3851Y38555D01*
X3947Y38515D01*
X4000Y38508D01*
Y38850D01*
D02*
G37*
G36*
X11447D02*
X11100D01*
Y38503D01*
X11345D01*
X11384Y38511D01*
X11417Y38533D01*
X11439Y38566D01*
X11447Y38605D01*
Y38850D01*
D02*
G37*
G36*
X11000D02*
X10653D01*
Y38605D01*
X10661Y38566D01*
X10683Y38533D01*
X10716Y38511D01*
X10755Y38503D01*
X11000D01*
Y38850D01*
D02*
G37*
G36*
X14554Y38372D02*
X14003D01*
X13918Y38355D01*
X13877Y38328D01*
X12300D01*
X12300Y38328D01*
X12232Y38315D01*
X12174Y38276D01*
X11496Y37598D01*
X11487Y37599D01*
X11447Y37620D01*
Y38195D01*
X11439Y38234D01*
X11417Y38267D01*
X11384Y38289D01*
X11345Y38297D01*
X10755D01*
X10716Y38289D01*
X10683Y38267D01*
X10661Y38234D01*
X10653Y38195D01*
Y37605D01*
X10661Y37566D01*
X10683Y37533D01*
X10716Y37511D01*
X10755Y37503D01*
X11330D01*
X11351Y37463D01*
X11352Y37454D01*
X11195Y37297D01*
X10755D01*
X10716Y37289D01*
X10683Y37267D01*
X10661Y37234D01*
X10653Y37195D01*
Y36608D01*
X10594D01*
X10426Y36776D01*
X10435Y36797D01*
X10449Y36900D01*
X10435Y37003D01*
X10395Y37099D01*
X10332Y37182D01*
X10249Y37245D01*
X10153Y37285D01*
X10050Y37299D01*
X9947Y37285D01*
X9851Y37245D01*
X9768Y37182D01*
X9705Y37099D01*
X9665Y37003D01*
X9651Y36900D01*
X9665Y36797D01*
X9705Y36701D01*
X9768Y36618D01*
X9851Y36555D01*
X9947Y36515D01*
X10050Y36501D01*
X10153Y36515D01*
X10174Y36524D01*
X10293Y36404D01*
X10274Y36358D01*
X9844D01*
X9426Y36776D01*
X9435Y36797D01*
X9449Y36900D01*
X9435Y37003D01*
X9395Y37099D01*
X9332Y37182D01*
X9249Y37245D01*
X9153Y37285D01*
X9050Y37299D01*
X8947Y37285D01*
X8851Y37245D01*
X8768Y37182D01*
X8705Y37099D01*
X8665Y37003D01*
X8651Y36900D01*
X8665Y36797D01*
X8705Y36701D01*
X8768Y36618D01*
X8851Y36555D01*
X8947Y36515D01*
X9050Y36501D01*
X9153Y36515D01*
X9174Y36524D01*
X9543Y36154D01*
X9524Y36108D01*
X9094D01*
X8426Y36776D01*
X8435Y36797D01*
X8449Y36900D01*
X8435Y37003D01*
X8395Y37099D01*
X8332Y37182D01*
X8249Y37245D01*
X8153Y37285D01*
X8050Y37299D01*
X7947Y37285D01*
X7851Y37245D01*
X7768Y37182D01*
X7705Y37099D01*
X7665Y37003D01*
X7651Y36900D01*
X7665Y36797D01*
X7705Y36701D01*
X7768Y36618D01*
X7851Y36555D01*
X7947Y36515D01*
X8050Y36501D01*
X8153Y36515D01*
X8174Y36524D01*
X8793Y35904D01*
X8774Y35858D01*
X8344D01*
X7426Y36776D01*
X7435Y36797D01*
X7449Y36900D01*
X7435Y37003D01*
X7395Y37099D01*
X7332Y37182D01*
X7249Y37245D01*
X7153Y37285D01*
X7050Y37299D01*
X6947Y37285D01*
X6851Y37245D01*
X6768Y37182D01*
X6705Y37099D01*
X6665Y37003D01*
X6651Y36900D01*
X6665Y36797D01*
X6705Y36701D01*
X6768Y36618D01*
X6851Y36555D01*
X6947Y36515D01*
X7050Y36501D01*
X7153Y36515D01*
X7174Y36524D01*
X8043Y35654D01*
X8024Y35608D01*
X7594D01*
X6426Y36776D01*
X6435Y36797D01*
X6449Y36900D01*
X6435Y37003D01*
X6395Y37099D01*
X6332Y37182D01*
X6249Y37245D01*
X6153Y37285D01*
X6050Y37299D01*
X5947Y37285D01*
X5851Y37245D01*
X5768Y37182D01*
X5705Y37099D01*
X5665Y37003D01*
X5651Y36900D01*
X5665Y36797D01*
X5705Y36701D01*
X5768Y36618D01*
X5851Y36555D01*
X5947Y36515D01*
X6050Y36501D01*
X6153Y36515D01*
X6174Y36524D01*
X7323Y35375D01*
X7304Y35328D01*
X6874D01*
X5426Y36776D01*
X5435Y36797D01*
X5449Y36900D01*
X5435Y37003D01*
X5395Y37099D01*
X5332Y37182D01*
X5249Y37245D01*
X5153Y37285D01*
X5050Y37299D01*
X4947Y37285D01*
X4851Y37245D01*
X4768Y37182D01*
X4705Y37099D01*
X4665Y37003D01*
X4651Y36900D01*
X4665Y36797D01*
X4705Y36701D01*
X4768Y36618D01*
X4851Y36555D01*
X4947Y36515D01*
X5050Y36501D01*
X5153Y36515D01*
X5174Y36524D01*
X6674Y35024D01*
X6674Y35024D01*
X6732Y34985D01*
X6800Y34972D01*
X6800Y34972D01*
X13877D01*
X13918Y34945D01*
X14003Y34928D01*
X14554D01*
X14639Y34945D01*
X14711Y34993D01*
X14759Y35065D01*
X14776Y35150D01*
X14759Y35235D01*
X14711Y35307D01*
X14639Y35355D01*
X14554Y35372D01*
X14003D01*
X13918Y35355D01*
X13877Y35328D01*
X12266D01*
X12247Y35375D01*
X12344Y35472D01*
X13877D01*
X13918Y35445D01*
X14003Y35428D01*
X14554D01*
X14639Y35445D01*
X14711Y35493D01*
X14759Y35565D01*
X14776Y35650D01*
X14759Y35735D01*
X14711Y35807D01*
X14639Y35855D01*
X14554Y35872D01*
X14003D01*
X13918Y35855D01*
X13877Y35828D01*
X12412D01*
X12393Y35875D01*
X12490Y35972D01*
X13877D01*
X13918Y35945D01*
X14003Y35928D01*
X14554D01*
X14639Y35945D01*
X14711Y35993D01*
X14759Y36065D01*
X14776Y36150D01*
X14759Y36235D01*
X14711Y36307D01*
X14639Y36355D01*
X14554Y36372D01*
X14003D01*
X13918Y36355D01*
X13877Y36328D01*
X12559D01*
X12539Y36375D01*
X12636Y36472D01*
X13877D01*
X13918Y36445D01*
X14003Y36428D01*
X14554D01*
X14639Y36445D01*
X14711Y36493D01*
X14759Y36565D01*
X14776Y36650D01*
X14759Y36735D01*
X14711Y36807D01*
X14639Y36855D01*
X14554Y36872D01*
X14003D01*
X13918Y36855D01*
X13877Y36828D01*
X12705D01*
X12686Y36875D01*
X12783Y36972D01*
X13877D01*
X13918Y36945D01*
X14003Y36928D01*
X14554D01*
X14639Y36945D01*
X14711Y36993D01*
X14759Y37065D01*
X14776Y37150D01*
X14759Y37235D01*
X14711Y37307D01*
X14639Y37355D01*
X14554Y37372D01*
X14003D01*
X13918Y37355D01*
X13877Y37328D01*
X12852D01*
X12832Y37375D01*
X12929Y37472D01*
X13877D01*
X13918Y37445D01*
X14003Y37428D01*
X14554D01*
X14639Y37445D01*
X14711Y37493D01*
X14759Y37565D01*
X14776Y37650D01*
X14759Y37735D01*
X14711Y37807D01*
X14639Y37855D01*
X14554Y37872D01*
X14003D01*
X13918Y37855D01*
X13877Y37828D01*
X12855D01*
X12787Y37815D01*
X12729Y37776D01*
X12729Y37776D01*
X11561Y36608D01*
X11447D01*
Y37045D01*
X12374Y37972D01*
X13877D01*
X13918Y37945D01*
X14003Y37928D01*
X14554D01*
X14639Y37945D01*
X14711Y37993D01*
X14759Y38065D01*
X14776Y38150D01*
X14759Y38235D01*
X14711Y38307D01*
X14639Y38355D01*
X14554Y38372D01*
D02*
G37*
G36*
X10050Y38299D02*
X9947Y38285D01*
X9851Y38245D01*
X9768Y38182D01*
X9705Y38099D01*
X9665Y38003D01*
X9651Y37900D01*
X9665Y37797D01*
X9705Y37701D01*
X9768Y37618D01*
X9851Y37555D01*
X9947Y37515D01*
X10050Y37501D01*
X10153Y37515D01*
X10249Y37555D01*
X10332Y37618D01*
X10395Y37701D01*
X10435Y37797D01*
X10449Y37900D01*
X10435Y38003D01*
X10395Y38099D01*
X10332Y38182D01*
X10249Y38245D01*
X10153Y38285D01*
X10050Y38299D01*
D02*
G37*
G36*
X9050D02*
X8947Y38285D01*
X8851Y38245D01*
X8768Y38182D01*
X8705Y38099D01*
X8665Y38003D01*
X8651Y37900D01*
X8665Y37797D01*
X8705Y37701D01*
X8768Y37618D01*
X8851Y37555D01*
X8947Y37515D01*
X9050Y37501D01*
X9153Y37515D01*
X9249Y37555D01*
X9332Y37618D01*
X9395Y37701D01*
X9435Y37797D01*
X9449Y37900D01*
X9435Y38003D01*
X9395Y38099D01*
X9332Y38182D01*
X9249Y38245D01*
X9153Y38285D01*
X9050Y38299D01*
D02*
G37*
G36*
X8050D02*
X7947Y38285D01*
X7851Y38245D01*
X7768Y38182D01*
X7705Y38099D01*
X7665Y38003D01*
X7651Y37900D01*
X7665Y37797D01*
X7705Y37701D01*
X7768Y37618D01*
X7851Y37555D01*
X7947Y37515D01*
X8050Y37501D01*
X8153Y37515D01*
X8249Y37555D01*
X8332Y37618D01*
X8395Y37701D01*
X8435Y37797D01*
X8449Y37900D01*
X8435Y38003D01*
X8395Y38099D01*
X8332Y38182D01*
X8249Y38245D01*
X8153Y38285D01*
X8050Y38299D01*
D02*
G37*
G36*
X7050D02*
X6947Y38285D01*
X6851Y38245D01*
X6768Y38182D01*
X6705Y38099D01*
X6665Y38003D01*
X6651Y37900D01*
X6665Y37797D01*
X6705Y37701D01*
X6768Y37618D01*
X6851Y37555D01*
X6947Y37515D01*
X7050Y37501D01*
X7153Y37515D01*
X7249Y37555D01*
X7332Y37618D01*
X7395Y37701D01*
X7435Y37797D01*
X7449Y37900D01*
X7435Y38003D01*
X7395Y38099D01*
X7332Y38182D01*
X7249Y38245D01*
X7153Y38285D01*
X7050Y38299D01*
D02*
G37*
G36*
X6050D02*
X5947Y38285D01*
X5851Y38245D01*
X5768Y38182D01*
X5705Y38099D01*
X5665Y38003D01*
X5651Y37900D01*
X5665Y37797D01*
X5705Y37701D01*
X5768Y37618D01*
X5851Y37555D01*
X5947Y37515D01*
X6050Y37501D01*
X6153Y37515D01*
X6249Y37555D01*
X6332Y37618D01*
X6395Y37701D01*
X6435Y37797D01*
X6449Y37900D01*
X6435Y38003D01*
X6395Y38099D01*
X6332Y38182D01*
X6249Y38245D01*
X6153Y38285D01*
X6050Y38299D01*
D02*
G37*
G36*
X5050D02*
X4947Y38285D01*
X4851Y38245D01*
X4768Y38182D01*
X4705Y38099D01*
X4665Y38003D01*
X4651Y37900D01*
X4665Y37797D01*
X4705Y37701D01*
X4768Y37618D01*
X4851Y37555D01*
X4947Y37515D01*
X5050Y37501D01*
X5153Y37515D01*
X5249Y37555D01*
X5332Y37618D01*
X5395Y37701D01*
X5435Y37797D01*
X5449Y37900D01*
X5435Y38003D01*
X5395Y38099D01*
X5332Y38182D01*
X5249Y38245D01*
X5153Y38285D01*
X5050Y38299D01*
D02*
G37*
G36*
X4050D02*
X3947Y38285D01*
X3851Y38245D01*
X3768Y38182D01*
X3705Y38099D01*
X3665Y38003D01*
X3651Y37900D01*
X3665Y37797D01*
X3705Y37701D01*
X3768Y37618D01*
X3851Y37555D01*
X3947Y37515D01*
X4050Y37501D01*
X4153Y37515D01*
X4249Y37555D01*
X4332Y37618D01*
X4395Y37701D01*
X4435Y37797D01*
X4449Y37900D01*
X4435Y38003D01*
X4395Y38099D01*
X4332Y38182D01*
X4249Y38245D01*
X4153Y38285D01*
X4050Y38299D01*
D02*
G37*
G36*
Y37299D02*
X3947Y37285D01*
X3851Y37245D01*
X3768Y37182D01*
X3705Y37099D01*
X3665Y37003D01*
X3651Y36900D01*
X3665Y36797D01*
X3705Y36701D01*
X3768Y36618D01*
X3851Y36555D01*
X3947Y36515D01*
X4050Y36501D01*
X4153Y36515D01*
X4174Y36524D01*
X6174Y34524D01*
X6174Y34524D01*
X6232Y34485D01*
X6300Y34472D01*
X6300Y34472D01*
X10901D01*
X10917Y34422D01*
X10870Y34390D01*
X10814Y34308D01*
X10795Y34210D01*
X10814Y34112D01*
X10870Y34030D01*
X10952Y33974D01*
X11050Y33955D01*
X11057Y33957D01*
X11110Y33946D01*
X12750D01*
X12751Y33946D01*
X12784Y33924D01*
X12823Y33916D01*
X13177D01*
X13216Y33924D01*
X13249Y33946D01*
X13250Y33946D01*
X13915D01*
X13918Y33945D01*
X14003Y33928D01*
X14554D01*
X14639Y33945D01*
X14711Y33993D01*
X14759Y34065D01*
X14776Y34150D01*
X14759Y34235D01*
X14711Y34307D01*
X14639Y34355D01*
X14554Y34372D01*
X14003D01*
X13918Y34355D01*
X13915Y34354D01*
X13257D01*
X13249Y34365D01*
X13216Y34388D01*
X13177Y34395D01*
X12823D01*
X12784Y34388D01*
X12751Y34365D01*
X12743Y34354D01*
X11255D01*
X11230Y34390D01*
X11183Y34422D01*
X11199Y34472D01*
X13877D01*
X13918Y34445D01*
X14003Y34428D01*
X14554D01*
X14639Y34445D01*
X14711Y34493D01*
X14759Y34565D01*
X14776Y34650D01*
X14759Y34735D01*
X14711Y34807D01*
X14639Y34855D01*
X14554Y34872D01*
X14003D01*
X13918Y34855D01*
X13877Y34828D01*
X6374D01*
X4426Y36776D01*
X4435Y36797D01*
X4449Y36900D01*
X4435Y37003D01*
X4395Y37099D01*
X4332Y37182D01*
X4249Y37245D01*
X4153Y37285D01*
X4050Y37299D01*
D02*
G37*
G36*
X20000Y34585D02*
X19902Y34565D01*
X19820Y34510D01*
X19819Y34508D01*
X19030D01*
X18962Y34495D01*
X18904Y34456D01*
X18904Y34456D01*
X18776Y34328D01*
X18223D01*
X18182Y34355D01*
X18097Y34372D01*
X17546D01*
X17461Y34355D01*
X17389Y34307D01*
X17341Y34235D01*
X17324Y34150D01*
X17341Y34065D01*
X17389Y33993D01*
X17461Y33945D01*
X17546Y33928D01*
X18097D01*
X18182Y33945D01*
X18223Y33972D01*
X18850D01*
X18918Y33985D01*
X18976Y34024D01*
X19104Y34152D01*
X19819D01*
X19820Y34150D01*
X19902Y34095D01*
X20000Y34075D01*
X20098Y34095D01*
X20180Y34150D01*
X20236Y34232D01*
X20255Y34330D01*
X20236Y34428D01*
X20180Y34510D01*
X20098Y34565D01*
X20000Y34585D01*
D02*
G37*
G36*
X15900Y34695D02*
X15802Y34676D01*
X15720Y34620D01*
X15664Y34538D01*
X15645Y34440D01*
X15664Y34342D01*
X15720Y34260D01*
X15802Y34204D01*
X15900Y34185D01*
X15998Y34204D01*
X16080Y34260D01*
X16135Y34342D01*
X16155Y34440D01*
X16135Y34538D01*
X16080Y34620D01*
X15998Y34676D01*
X15900Y34695D01*
D02*
G37*
G36*
X19997Y33955D02*
X19643D01*
X19604Y33948D01*
X19571Y33925D01*
X19567Y33920D01*
X19161D01*
X19138Y33935D01*
X19040Y33955D01*
X18942Y33935D01*
X18860Y33880D01*
X18805Y33798D01*
X18785Y33700D01*
X18805Y33602D01*
X18860Y33520D01*
X18942Y33465D01*
X18933Y33415D01*
X18903D01*
X18864Y33408D01*
X18831Y33385D01*
X18809Y33352D01*
X18801Y33313D01*
Y33303D01*
X18257D01*
X18254Y33307D01*
X18182Y33355D01*
X18097Y33372D01*
X17546D01*
X17461Y33355D01*
X17389Y33307D01*
X17341Y33235D01*
X17324Y33150D01*
X17341Y33065D01*
X17389Y32993D01*
X17461Y32945D01*
X17546Y32928D01*
X18097D01*
X18182Y32945D01*
X18254Y32993D01*
X18257Y32997D01*
X18810D01*
X18831Y32966D01*
X18864Y32944D01*
X18903Y32936D01*
X19257D01*
X19296Y32944D01*
X19329Y32966D01*
X19350Y32997D01*
X19547D01*
X19549Y32988D01*
X19571Y32955D01*
X19604Y32932D01*
X19643Y32925D01*
X19997D01*
X20036Y32932D01*
X20069Y32955D01*
X20091Y32988D01*
X20099Y33027D01*
Y33302D01*
X20091Y33341D01*
X20069Y33374D01*
X20036Y33396D01*
X19997Y33404D01*
X19643D01*
X19604Y33396D01*
X19571Y33374D01*
X19549Y33341D01*
X19541Y33303D01*
X19359D01*
Y33313D01*
X19351Y33352D01*
X19329Y33385D01*
X19296Y33408D01*
X19257Y33415D01*
X19147D01*
X19138Y33465D01*
X19208Y33512D01*
X19567D01*
X19571Y33506D01*
X19604Y33484D01*
X19643Y33476D01*
X19997D01*
X20036Y33484D01*
X20069Y33506D01*
X20091Y33539D01*
X20099Y33578D01*
Y33853D01*
X20091Y33892D01*
X20069Y33925D01*
X20036Y33948D01*
X19997Y33955D01*
D02*
G37*
G36*
X18097Y33872D02*
X17546D01*
X17461Y33855D01*
X17421Y33828D01*
X16660D01*
X16660Y33828D01*
X16592Y33815D01*
X16534Y33776D01*
X15874Y33116D01*
X15835Y33058D01*
X15822Y32990D01*
Y29081D01*
X15820Y29080D01*
X15764Y28998D01*
X15745Y28900D01*
X15764Y28802D01*
X15820Y28720D01*
X15902Y28665D01*
X16000Y28645D01*
X16098Y28665D01*
X16180Y28720D01*
X16236Y28802D01*
X16255Y28900D01*
X16236Y28998D01*
X16180Y29080D01*
X16178Y29081D01*
Y32916D01*
X16734Y33472D01*
X17421D01*
X17461Y33445D01*
X17546Y33428D01*
X18097D01*
X18182Y33445D01*
X18254Y33493D01*
X18303Y33565D01*
X18320Y33650D01*
X18303Y33735D01*
X18254Y33807D01*
X18182Y33855D01*
X18097Y33872D01*
D02*
G37*
G36*
X14554D02*
X14328D01*
Y33700D01*
X14766D01*
X14759Y33735D01*
X14711Y33807D01*
X14639Y33855D01*
X14554Y33872D01*
D02*
G37*
G36*
X14228D02*
X14003D01*
X13918Y33855D01*
X13845Y33807D01*
X13797Y33735D01*
X13790Y33700D01*
X14228D01*
Y33872D01*
D02*
G37*
G36*
X13177Y33844D02*
X13050D01*
Y33654D01*
X13279D01*
Y33742D01*
X13271Y33781D01*
X13249Y33814D01*
X13216Y33836D01*
X13177Y33844D01*
D02*
G37*
G36*
X12950D02*
X12823D01*
X12784Y33836D01*
X12751Y33814D01*
X12729Y33781D01*
X12721Y33742D01*
Y33654D01*
X12950D01*
Y33844D01*
D02*
G37*
G36*
X14766Y33600D02*
X14328D01*
Y33428D01*
X14554D01*
X14639Y33445D01*
X14711Y33493D01*
X14759Y33565D01*
X14766Y33600D01*
D02*
G37*
G36*
X14228D02*
X13790D01*
X13797Y33565D01*
X13845Y33493D01*
X13918Y33445D01*
X14003Y33428D01*
X14228D01*
Y33600D01*
D02*
G37*
G36*
X13279Y33554D02*
X13000D01*
X12721D01*
Y33467D01*
X12729Y33428D01*
X12751Y33395D01*
X12775Y33378D01*
X12769Y33335D01*
X12767Y33328D01*
X7600D01*
X7600Y33328D01*
X7581Y33325D01*
X7530Y33335D01*
X7432Y33315D01*
X7350Y33260D01*
X7295Y33178D01*
X7275Y33080D01*
X7295Y32982D01*
X7350Y32900D01*
X7432Y32845D01*
X7499Y32831D01*
X7513Y32828D01*
X7508Y32778D01*
X6171D01*
X6170Y32780D01*
X6088Y32836D01*
X5990Y32855D01*
X5892Y32836D01*
X5810Y32780D01*
X5755Y32698D01*
X5735Y32600D01*
X5755Y32502D01*
X5810Y32420D01*
X5892Y32364D01*
X5990Y32345D01*
X6088Y32364D01*
X6170Y32420D01*
X6171Y32422D01*
X7920D01*
X7970Y32432D01*
X13770D01*
X13838Y32445D01*
X13877Y32471D01*
X13918Y32445D01*
X14003Y32428D01*
X14554D01*
X14639Y32445D01*
X14711Y32493D01*
X14759Y32565D01*
X14776Y32650D01*
X14759Y32735D01*
X14711Y32807D01*
X14639Y32855D01*
X14554Y32872D01*
X14003D01*
X13918Y32855D01*
X13877Y32828D01*
X13810D01*
X13810Y32828D01*
X13741Y32815D01*
X13702Y32788D01*
X7930D01*
X7880Y32778D01*
X7552D01*
X7547Y32828D01*
X7561Y32831D01*
X7628Y32845D01*
X7710Y32900D01*
X7758Y32972D01*
X13877D01*
X13918Y32945D01*
X14003Y32928D01*
X14554D01*
X14639Y32945D01*
X14711Y32993D01*
X14759Y33065D01*
X14776Y33150D01*
X14759Y33235D01*
X14711Y33307D01*
X14639Y33355D01*
X14554Y33372D01*
X14003D01*
X13918Y33355D01*
X13877Y33328D01*
X13233D01*
X13231Y33335D01*
X13225Y33378D01*
X13249Y33395D01*
X13271Y33428D01*
X13279Y33467D01*
Y33554D01*
D02*
G37*
G36*
X18097Y32872D02*
X17872D01*
Y32700D01*
X18310D01*
X18303Y32735D01*
X18254Y32807D01*
X18182Y32855D01*
X18097Y32872D01*
D02*
G37*
G36*
X17772D02*
X17546D01*
X17461Y32855D01*
X17389Y32807D01*
X17341Y32735D01*
X17334Y32700D01*
X17772D01*
Y32872D01*
D02*
G37*
G36*
X19257Y32864D02*
X19130D01*
Y32674D01*
X19359D01*
Y32762D01*
X19351Y32801D01*
X19329Y32834D01*
X19296Y32856D01*
X19257Y32864D01*
D02*
G37*
G36*
X19030D02*
X18903D01*
X18864Y32856D01*
X18831Y32834D01*
X18809Y32801D01*
X18801Y32762D01*
Y32674D01*
X19030D01*
Y32864D01*
D02*
G37*
G36*
X18310Y32600D02*
X17872D01*
Y32428D01*
X18097D01*
X18182Y32445D01*
X18254Y32493D01*
X18303Y32565D01*
X18310Y32600D01*
D02*
G37*
G36*
X17772D02*
X17334D01*
X17341Y32565D01*
X17389Y32493D01*
X17461Y32445D01*
X17546Y32428D01*
X17772D01*
Y32600D01*
D02*
G37*
G36*
X19359Y32574D02*
X19130D01*
Y32385D01*
X19257D01*
X19296Y32392D01*
X19329Y32415D01*
X19351Y32448D01*
X19359Y32487D01*
Y32574D01*
D02*
G37*
G36*
X19030D02*
X18801D01*
Y32487D01*
X18809Y32448D01*
X18831Y32415D01*
X18864Y32392D01*
X18903Y32385D01*
X19030D01*
Y32574D01*
D02*
G37*
G36*
X14554Y32372D02*
X14003D01*
X13918Y32355D01*
X13877Y32328D01*
X13810D01*
X13810Y32328D01*
X13741Y32315D01*
X13702Y32288D01*
X7301D01*
X7300Y32290D01*
X7218Y32345D01*
X7120Y32365D01*
X7022Y32345D01*
X6940Y32290D01*
X6885Y32208D01*
X6865Y32110D01*
X6885Y32012D01*
X6940Y31930D01*
X7022Y31874D01*
X7120Y31855D01*
X7218Y31874D01*
X7300Y31930D01*
X7301Y31932D01*
X13770D01*
X13838Y31945D01*
X13877Y31971D01*
X13918Y31945D01*
X14003Y31928D01*
X14554D01*
X14639Y31945D01*
X14711Y31993D01*
X14759Y32065D01*
X14776Y32150D01*
X14759Y32235D01*
X14711Y32307D01*
X14639Y32355D01*
X14554Y32372D01*
D02*
G37*
G36*
X18097D02*
X17872D01*
Y32200D01*
X18310D01*
X18303Y32235D01*
X18254Y32307D01*
X18182Y32355D01*
X18097Y32372D01*
D02*
G37*
G36*
X17772D02*
X17546D01*
X17461Y32355D01*
X17389Y32307D01*
X17341Y32235D01*
X17334Y32200D01*
X17772D01*
Y32372D01*
D02*
G37*
G36*
X18310Y32100D02*
X17872D01*
Y31928D01*
X18097D01*
X18182Y31945D01*
X18254Y31993D01*
X18303Y32065D01*
X18310Y32100D01*
D02*
G37*
G36*
X17772D02*
X17334D01*
X17341Y32065D01*
X17389Y31993D01*
X17461Y31945D01*
X17546Y31928D01*
X17772D01*
Y32100D01*
D02*
G37*
G36*
X14554Y31872D02*
X14003D01*
X13918Y31855D01*
X13877Y31828D01*
X13200D01*
X13200Y31828D01*
X13132Y31815D01*
X13074Y31776D01*
X13074Y31776D01*
X13002Y31704D01*
X13000Y31705D01*
X12902Y31686D01*
X12820Y31630D01*
X12765Y31548D01*
X12745Y31450D01*
X12765Y31352D01*
X12820Y31270D01*
X12902Y31214D01*
X13000Y31195D01*
X13098Y31214D01*
X13180Y31270D01*
X13235Y31352D01*
X13255Y31450D01*
X13297Y31472D01*
X13877D01*
X13918Y31445D01*
X14003Y31428D01*
X14554D01*
X14639Y31445D01*
X14711Y31493D01*
X14759Y31565D01*
X14776Y31650D01*
X14759Y31735D01*
X14711Y31807D01*
X14639Y31855D01*
X14554Y31872D01*
D02*
G37*
G36*
X18097D02*
X17872D01*
Y31700D01*
X18310D01*
X18303Y31735D01*
X18254Y31807D01*
X18182Y31855D01*
X18097Y31872D01*
D02*
G37*
G36*
X17772D02*
X17546D01*
X17461Y31855D01*
X17389Y31807D01*
X17341Y31735D01*
X17334Y31700D01*
X17772D01*
Y31872D01*
D02*
G37*
G36*
X18310Y31600D02*
X17872D01*
Y31428D01*
X18097D01*
X18182Y31445D01*
X18254Y31493D01*
X18303Y31565D01*
X18310Y31600D01*
D02*
G37*
G36*
X17772D02*
X17334D01*
X17341Y31565D01*
X17389Y31493D01*
X17461Y31445D01*
X17546Y31428D01*
X17772D01*
Y31600D01*
D02*
G37*
G36*
X17004Y29818D02*
X16985D01*
X16939Y29809D01*
X16899Y29782D01*
X16873Y29743D01*
X16863Y29696D01*
Y29451D01*
X17004D01*
Y29818D01*
D02*
G37*
G36*
X5727Y29215D02*
X5600D01*
Y29026D01*
X5829D01*
Y29113D01*
X5821Y29152D01*
X5799Y29185D01*
X5766Y29208D01*
X5727Y29215D01*
D02*
G37*
G36*
X5500D02*
X5373D01*
X5334Y29208D01*
X5301Y29185D01*
X5279Y29152D01*
X5271Y29113D01*
Y29026D01*
X5500D01*
Y29215D01*
D02*
G37*
G36*
X17004Y29351D02*
X16863D01*
Y29105D01*
X16873Y29059D01*
X16899Y29019D01*
X16939Y28993D01*
X16985Y28983D01*
X17004D01*
Y29351D01*
D02*
G37*
G36*
X5829Y28926D02*
X5600D01*
Y28736D01*
X5727D01*
X5766Y28744D01*
X5799Y28766D01*
X5821Y28799D01*
X5829Y28838D01*
Y28926D01*
D02*
G37*
G36*
X5500D02*
X5271D01*
Y28838D01*
X5279Y28799D01*
X5301Y28766D01*
X5334Y28744D01*
X5373Y28736D01*
X5500D01*
Y28926D01*
D02*
G37*
G36*
X11030Y30855D02*
X10932Y30835D01*
X10850Y30780D01*
X10795Y30698D01*
X10783Y30642D01*
X10130Y29989D01*
X10086Y29922D01*
X10070Y29844D01*
Y27503D01*
X10065Y27499D01*
X10042Y27466D01*
X10040Y27454D01*
X9647D01*
X9645Y27455D01*
X9560Y27472D01*
X8930D01*
X8845Y27455D01*
X8773Y27407D01*
X8724Y27335D01*
X8708Y27250D01*
X8724Y27165D01*
X8773Y27093D01*
X8845Y27045D01*
X8930Y27028D01*
X9560D01*
X9645Y27045D01*
X9647Y27046D01*
X10040D01*
X10042Y27034D01*
X10065Y27001D01*
X10098Y26979D01*
X10137Y26971D01*
X10412D01*
X10451Y26979D01*
X10484Y27001D01*
X10506Y27034D01*
X10514Y27073D01*
Y27427D01*
X10506Y27466D01*
X10484Y27499D01*
X10478Y27503D01*
Y29760D01*
X11072Y30353D01*
X11128Y30364D01*
X11210Y30420D01*
X11265Y30502D01*
X11285Y30600D01*
X11265Y30698D01*
X11210Y30780D01*
X11128Y30835D01*
X11030Y30855D01*
D02*
G37*
G36*
X5727Y28664D02*
X5373D01*
X5334Y28656D01*
X5301Y28634D01*
X5279Y28601D01*
X5271Y28562D01*
Y28287D01*
X5279Y28248D01*
X5301Y28215D01*
X5334Y28192D01*
X5346Y28190D01*
Y27960D01*
X5334Y27958D01*
X5301Y27935D01*
X5279Y27902D01*
X5271Y27863D01*
Y27588D01*
X5279Y27549D01*
X5280Y27546D01*
X5293Y27508D01*
X5267Y27482D01*
X5229Y27456D01*
X5211Y27429D01*
X4846D01*
X4800Y27461D01*
X4721Y27476D01*
X4446D01*
X4368Y27461D01*
X4344Y27445D01*
X2974D01*
X2877Y27425D01*
X2869Y27420D01*
X2719D01*
X2701Y27448D01*
X2635Y27492D01*
X2557Y27507D01*
X2203D01*
X2100Y27610D01*
X2018Y27666D01*
X1920Y27685D01*
X1439D01*
X1363Y27783D01*
X1260Y27863D01*
X1139Y27913D01*
X1010Y27930D01*
X881Y27913D01*
X760Y27863D01*
X657Y27783D01*
X577Y27680D01*
X527Y27559D01*
X510Y27430D01*
X527Y27301D01*
X577Y27180D01*
X657Y27077D01*
X760Y26997D01*
X804Y26979D01*
X794Y26929D01*
X715D01*
X637Y26914D01*
X571Y26869D01*
X526Y26803D01*
X511Y26725D01*
Y26135D01*
X526Y26057D01*
X571Y25991D01*
X637Y25946D01*
X715Y25931D01*
X1305D01*
X1383Y25946D01*
X1449Y25991D01*
X1494Y26057D01*
X1509Y26135D01*
Y26175D01*
X1890D01*
X1988Y26195D01*
X2070Y26250D01*
X2115Y26295D01*
X2125Y26288D01*
X2203Y26273D01*
X2557D01*
X2635Y26288D01*
X2671Y26312D01*
X2784Y26200D01*
X2867Y26144D01*
X2964Y26125D01*
X4330D01*
X4368Y26099D01*
X4446Y26084D01*
X4721D01*
X4800Y26099D01*
X4866Y26144D01*
X4877Y26161D01*
X5191D01*
X5209Y26134D01*
X5247Y26108D01*
X5273Y26082D01*
X5260Y26044D01*
X5259Y26041D01*
X5251Y26002D01*
Y25727D01*
X5259Y25688D01*
X5281Y25655D01*
X5314Y25632D01*
X5326Y25630D01*
Y25498D01*
X5324Y25498D01*
X5291Y25475D01*
X5269Y25442D01*
X5261Y25403D01*
Y25128D01*
X5269Y25089D01*
X5291Y25056D01*
X5324Y25034D01*
X5363Y25026D01*
X5717D01*
X5756Y25034D01*
X5789Y25056D01*
X5811Y25089D01*
X5819Y25128D01*
Y25403D01*
X5811Y25442D01*
X5789Y25475D01*
X5756Y25498D01*
X5734Y25502D01*
Y25630D01*
X5746Y25632D01*
X5779Y25655D01*
X5801Y25688D01*
X5809Y25727D01*
Y26002D01*
X5801Y26041D01*
X5800Y26044D01*
X5787Y26082D01*
X5813Y26108D01*
X5851Y26134D01*
X5888Y26189D01*
X6244D01*
X6341Y26208D01*
X6424Y26263D01*
X6656Y26495D01*
X6850D01*
X6880Y26472D01*
X6893Y26467D01*
X6898Y26417D01*
X6883Y26407D01*
X6835Y26335D01*
X6818Y26250D01*
X6835Y26165D01*
X6883Y26093D01*
X6955Y26045D01*
X7040Y26028D01*
X7177D01*
Y25815D01*
X7173D01*
X7134Y25808D01*
X7101Y25785D01*
X7079Y25752D01*
X7071Y25713D01*
Y25438D01*
X7079Y25399D01*
X7101Y25366D01*
X7134Y25344D01*
X7173Y25336D01*
X7527D01*
X7566Y25344D01*
X7599Y25366D01*
X7621Y25399D01*
X7629Y25438D01*
Y25713D01*
X7621Y25752D01*
X7599Y25785D01*
X7566Y25808D01*
X7534Y25814D01*
Y26028D01*
X7670D01*
X7708Y26035D01*
X7747Y26004D01*
Y24513D01*
X7291Y24057D01*
X7258Y24007D01*
X7246Y23949D01*
Y23776D01*
X7222Y23771D01*
X7189Y23749D01*
X7167Y23716D01*
X7159Y23677D01*
Y23323D01*
X7167Y23284D01*
X7189Y23251D01*
X7222Y23229D01*
X7261Y23221D01*
X7537D01*
X7576Y23229D01*
X7578Y23230D01*
X7617Y23243D01*
X7642Y23217D01*
X7668Y23179D01*
X7695Y23161D01*
Y22989D01*
X7668Y22971D01*
X7642Y22933D01*
X7617Y22907D01*
X7578Y22920D01*
X7576Y22921D01*
X7537Y22929D01*
X7449D01*
Y22650D01*
Y22371D01*
X7537D01*
X7576Y22379D01*
X7578Y22380D01*
X7617Y22393D01*
X7642Y22367D01*
X7668Y22329D01*
X7695Y22311D01*
Y21408D01*
X7670Y21374D01*
X7633Y21361D01*
X7606Y21367D01*
X7543Y21409D01*
X7450Y21427D01*
X7357Y21409D01*
X7279Y21356D01*
X7226Y21278D01*
X7225Y21275D01*
X7175D01*
X7174Y21278D01*
X7121Y21356D01*
X7043Y21409D01*
X6950Y21427D01*
X6857Y21409D01*
X6779Y21356D01*
X6726Y21278D01*
X6725Y21275D01*
X6675D01*
X6674Y21278D01*
X6621Y21356D01*
X6543Y21409D01*
X6450Y21427D01*
X6357Y21409D01*
X6279Y21356D01*
X6226Y21278D01*
X6225Y21275D01*
X6175D01*
X6174Y21278D01*
X6121Y21356D01*
X6043Y21409D01*
X5950Y21427D01*
X5857Y21409D01*
X5779Y21356D01*
X5726Y21278D01*
X5725Y21275D01*
X5675D01*
X5674Y21278D01*
X5628Y21346D01*
Y21624D01*
X5651Y21629D01*
X5684Y21651D01*
X5706Y21684D01*
X5714Y21723D01*
Y22077D01*
X5706Y22116D01*
X5684Y22149D01*
X5653Y22170D01*
Y23026D01*
X5639Y23094D01*
X5601Y23152D01*
X5601Y23152D01*
X5411Y23341D01*
X5361Y23375D01*
Y23451D01*
X5353Y23490D01*
X5331Y23523D01*
X5298Y23545D01*
X5259Y23553D01*
X4707D01*
X4668Y23545D01*
X4635Y23523D01*
X4613Y23490D01*
X4606Y23451D01*
Y22979D01*
X4613Y22940D01*
X4614Y22939D01*
X4632Y22900D01*
X4614Y22861D01*
X4613Y22860D01*
X4606Y22821D01*
Y22635D01*
X4983D01*
Y22585D01*
X5033D01*
Y22247D01*
X5258D01*
X5295Y22213D01*
X5294Y22169D01*
X5265Y22149D01*
X5242Y22116D01*
X5235Y22077D01*
Y21723D01*
X5242Y21684D01*
X5265Y21651D01*
X5272Y21646D01*
Y21346D01*
X5226Y21278D01*
X5225Y21275D01*
X5175D01*
X5174Y21278D01*
X5128Y21346D01*
Y21600D01*
X5128Y21600D01*
X5115Y21668D01*
X5076Y21726D01*
X5076Y21726D01*
X4876Y21926D01*
X4818Y21965D01*
X4750Y21978D01*
X4365D01*
Y22077D01*
X4358Y22116D01*
X4335Y22149D01*
X4302Y22171D01*
X4295Y22173D01*
Y22247D01*
X4393D01*
X4432Y22255D01*
X4465Y22277D01*
X4487Y22310D01*
X4494Y22349D01*
Y22821D01*
X4487Y22860D01*
X4486Y22861D01*
X4468Y22900D01*
X4486Y22939D01*
X4487Y22940D01*
X4494Y22979D01*
Y23165D01*
X3739D01*
Y22979D01*
X3747Y22940D01*
X3748Y22939D01*
X3766Y22900D01*
X3748Y22861D01*
X3747Y22860D01*
X3739Y22821D01*
Y22349D01*
X3747Y22310D01*
X3769Y22277D01*
X3802Y22255D01*
X3841Y22247D01*
X3938D01*
Y22164D01*
X3916Y22149D01*
X3894Y22116D01*
X3886Y22077D01*
Y21723D01*
X3894Y21684D01*
X3916Y21651D01*
X3949Y21629D01*
X3988Y21621D01*
X4263D01*
X4267Y21622D01*
X4676D01*
X4772Y21526D01*
Y21346D01*
X4726Y21278D01*
X4725Y21275D01*
X4675D01*
X4674Y21278D01*
X4621Y21356D01*
X4543Y21409D01*
X4500Y21418D01*
Y20811D01*
Y20205D01*
X4543Y20213D01*
X4621Y20266D01*
X4674Y20344D01*
X4675Y20347D01*
X4725D01*
X4726Y20344D01*
X4779Y20266D01*
X4857Y20213D01*
X4950Y20195D01*
X5043Y20213D01*
X5121Y20266D01*
X5174Y20344D01*
X5175Y20347D01*
X5225D01*
X5226Y20344D01*
X5279Y20266D01*
X5357Y20213D01*
X5450Y20195D01*
X5543Y20213D01*
X5621Y20266D01*
X5674Y20344D01*
X5675Y20347D01*
X5725D01*
X5726Y20344D01*
X5779Y20266D01*
X5857Y20213D01*
X5950Y20195D01*
X6043Y20213D01*
X6121Y20266D01*
X6174Y20344D01*
X6175Y20347D01*
X6225D01*
X6226Y20344D01*
X6279Y20266D01*
X6357Y20213D01*
X6450Y20195D01*
X6543Y20213D01*
X6621Y20266D01*
X6674Y20344D01*
X6675Y20347D01*
X6725D01*
X6726Y20344D01*
X6779Y20266D01*
X6857Y20213D01*
X6950Y20195D01*
X7043Y20213D01*
X7121Y20266D01*
X7174Y20344D01*
X7175Y20347D01*
X7225D01*
X7226Y20344D01*
X7279Y20266D01*
X7357Y20213D01*
X7450Y20195D01*
X7543Y20213D01*
X7606Y20255D01*
X7633Y20261D01*
X7670Y20248D01*
X7709Y20196D01*
X7780Y20142D01*
X7862Y20108D01*
X7950Y20096D01*
X8038Y20108D01*
X8120Y20142D01*
X8191Y20196D01*
X8209D01*
X8280Y20142D01*
X8362Y20108D01*
X8450Y20096D01*
X8538Y20108D01*
X8620Y20142D01*
X8691Y20196D01*
X8745Y20267D01*
X8779Y20349D01*
X8791Y20437D01*
Y21185D01*
X8779Y21273D01*
X8745Y21355D01*
X8727Y21378D01*
Y24285D01*
X9441Y24999D01*
X9485Y25056D01*
X9513Y25123D01*
X9522Y25195D01*
Y25929D01*
X9560D01*
X9643Y25940D01*
X9720Y25972D01*
X9787Y26023D01*
X9838Y26090D01*
X9870Y26167D01*
X9881Y26250D01*
X9870Y26333D01*
X9838Y26410D01*
X9787Y26477D01*
X9720Y26528D01*
X9707Y26533D01*
X9702Y26583D01*
X9717Y26593D01*
X9765Y26665D01*
X9772Y26700D01*
X9245D01*
X8717D01*
X8724Y26665D01*
X8773Y26593D01*
X8787Y26583D01*
X8782Y26533D01*
X8769Y26528D01*
X8703Y26477D01*
X8652Y26410D01*
X8620Y26333D01*
X8609Y26250D01*
X8620Y26167D01*
X8652Y26090D01*
X8703Y26023D01*
X8769Y25972D01*
X8847Y25940D01*
X8930Y25929D01*
X8968D01*
Y25310D01*
X8254Y24596D01*
X8210Y24539D01*
X8182Y24472D01*
X8173Y24400D01*
Y23915D01*
X8123Y23874D01*
X8088Y23881D01*
X7812D01*
X7734Y23866D01*
X7668Y23821D01*
X7642Y23783D01*
X7617Y23757D01*
X7578Y23770D01*
X7576Y23771D01*
X7552Y23776D01*
Y23885D01*
X8008Y24342D01*
X8041Y24391D01*
X8053Y24450D01*
Y25999D01*
X8146Y26093D01*
X8179Y26142D01*
X8191Y26201D01*
Y27075D01*
X8713Y27597D01*
X8770D01*
X8773Y27593D01*
X8845Y27545D01*
X8930Y27528D01*
X9560D01*
X9645Y27545D01*
X9717Y27593D01*
X9765Y27665D01*
X9782Y27750D01*
X9765Y27835D01*
X9717Y27907D01*
X9645Y27955D01*
X9560Y27972D01*
X8930D01*
X8845Y27955D01*
X8773Y27907D01*
X8770Y27903D01*
X8650D01*
X8591Y27891D01*
X8542Y27858D01*
X8026Y27342D01*
X7970Y27357D01*
X7948Y27410D01*
X7897Y27477D01*
X7831Y27528D01*
X7818Y27533D01*
X7813Y27583D01*
X7827Y27593D01*
X7876Y27665D01*
X7892Y27750D01*
X7876Y27835D01*
X7827Y27907D01*
X7755Y27955D01*
X7670Y27972D01*
X7040D01*
X6955Y27955D01*
X6883Y27907D01*
X6835Y27835D01*
X6818Y27750D01*
X6835Y27665D01*
X6883Y27593D01*
X6898Y27583D01*
X6893Y27533D01*
X6880Y27528D01*
X6850Y27505D01*
X6600D01*
X6502Y27485D01*
X6420Y27430D01*
X6418Y27429D01*
X6250D01*
X6242Y27431D01*
X6234Y27429D01*
X5890D01*
X5871Y27456D01*
X5833Y27482D01*
X5807Y27508D01*
X5820Y27546D01*
X5821Y27549D01*
X5829Y27588D01*
Y27863D01*
X5821Y27902D01*
X5799Y27935D01*
X5766Y27958D01*
X5754Y27960D01*
Y28190D01*
X5766Y28192D01*
X5799Y28215D01*
X5821Y28248D01*
X5829Y28287D01*
Y28562D01*
X5821Y28601D01*
X5799Y28634D01*
X5766Y28656D01*
X5727Y28664D01*
D02*
G37*
G36*
X10963Y27529D02*
X10876D01*
Y27300D01*
X11065D01*
Y27427D01*
X11058Y27466D01*
X11035Y27499D01*
X11002Y27521D01*
X10963Y27529D01*
D02*
G37*
G36*
X10776D02*
X10688D01*
X10649Y27521D01*
X10616Y27499D01*
X10594Y27466D01*
X10586Y27427D01*
Y27300D01*
X10776D01*
Y27529D01*
D02*
G37*
G36*
X11065Y27200D02*
X10876D01*
Y26971D01*
X10963D01*
X11002Y26979D01*
X11035Y27001D01*
X11058Y27034D01*
X11065Y27073D01*
Y27200D01*
D02*
G37*
G36*
X10776D02*
X10586D01*
Y27073D01*
X10594Y27034D01*
X10616Y27001D01*
X10649Y26979D01*
X10688Y26971D01*
X10776D01*
Y27200D01*
D02*
G37*
G36*
X9560Y26972D02*
X9295D01*
Y26800D01*
X9772D01*
X9765Y26835D01*
X9717Y26907D01*
X9645Y26955D01*
X9560Y26972D01*
D02*
G37*
G36*
X9195D02*
X8930D01*
X8845Y26955D01*
X8773Y26907D01*
X8724Y26835D01*
X8717Y26800D01*
X9195D01*
Y26972D01*
D02*
G37*
G36*
X7527Y25264D02*
X7400D01*
Y25074D01*
X7629D01*
Y25162D01*
X7621Y25201D01*
X7599Y25234D01*
X7566Y25256D01*
X7527Y25264D01*
D02*
G37*
G36*
X7300D02*
X7173D01*
X7134Y25256D01*
X7101Y25234D01*
X7079Y25201D01*
X7071Y25162D01*
Y25074D01*
X7300D01*
Y25264D01*
D02*
G37*
G36*
X7629Y24974D02*
X7400D01*
Y24785D01*
X7527D01*
X7566Y24792D01*
X7599Y24815D01*
X7621Y24848D01*
X7629Y24887D01*
Y24974D01*
D02*
G37*
G36*
X7300D02*
X7071D01*
Y24887D01*
X7079Y24848D01*
X7101Y24815D01*
X7134Y24792D01*
X7173Y24785D01*
X7300D01*
Y24974D01*
D02*
G37*
G36*
X5717Y24954D02*
X5590D01*
Y24764D01*
X5819D01*
Y24852D01*
X5811Y24891D01*
X5789Y24924D01*
X5756Y24946D01*
X5717Y24954D01*
D02*
G37*
G36*
X5490D02*
X5363D01*
X5324Y24946D01*
X5291Y24924D01*
X5269Y24891D01*
X5261Y24852D01*
Y24764D01*
X5490D01*
Y24954D01*
D02*
G37*
G36*
X5819Y24664D02*
X5590D01*
Y24475D01*
X5717D01*
X5756Y24482D01*
X5789Y24505D01*
X5811Y24538D01*
X5819Y24577D01*
Y24664D01*
D02*
G37*
G36*
X5490D02*
X5261D01*
Y24577D01*
X5269Y24538D01*
X5291Y24505D01*
X5324Y24482D01*
X5363Y24475D01*
X5490D01*
Y24664D01*
D02*
G37*
G36*
X4393Y23553D02*
X4167D01*
Y23265D01*
X4494D01*
Y23451D01*
X4487Y23490D01*
X4465Y23523D01*
X4432Y23545D01*
X4393Y23553D01*
D02*
G37*
G36*
X4067D02*
X3841D01*
X3802Y23545D01*
X3769Y23523D01*
X3747Y23490D01*
X3739Y23451D01*
Y23265D01*
X4067D01*
Y23553D01*
D02*
G37*
G36*
X7349Y22929D02*
X7261D01*
X7222Y22921D01*
X7189Y22899D01*
X7167Y22866D01*
X7159Y22827D01*
Y22700D01*
X7349D01*
Y22929D01*
D02*
G37*
G36*
Y22600D02*
X7159D01*
Y22473D01*
X7167Y22434D01*
X7189Y22401D01*
X7222Y22379D01*
X7261Y22371D01*
X7349D01*
Y22600D01*
D02*
G37*
G36*
X4933Y22535D02*
X4606D01*
Y22349D01*
X4613Y22310D01*
X4635Y22277D01*
X4668Y22255D01*
X4707Y22247D01*
X4933D01*
Y22535D01*
D02*
G37*
G36*
X6163Y22179D02*
X6076D01*
Y21950D01*
X6265D01*
Y22077D01*
X6258Y22116D01*
X6235Y22149D01*
X6202Y22171D01*
X6163Y22179D01*
D02*
G37*
G36*
X3712D02*
X3624D01*
Y21950D01*
X3814D01*
Y22077D01*
X3806Y22116D01*
X3784Y22149D01*
X3751Y22171D01*
X3712Y22179D01*
D02*
G37*
G36*
X5976D02*
X5888D01*
X5849Y22171D01*
X5816Y22149D01*
X5794Y22116D01*
X5786Y22077D01*
Y21950D01*
X5976D01*
Y22179D01*
D02*
G37*
G36*
X3524D02*
X3437D01*
X3398Y22171D01*
X3365Y22149D01*
X3342Y22116D01*
X3335Y22077D01*
Y21950D01*
X3524D01*
Y22179D01*
D02*
G37*
G36*
X6265Y21850D02*
X6076D01*
Y21621D01*
X6163D01*
X6202Y21629D01*
X6235Y21651D01*
X6258Y21684D01*
X6265Y21723D01*
Y21850D01*
D02*
G37*
G36*
X5976D02*
X5786D01*
Y21723D01*
X5794Y21684D01*
X5816Y21651D01*
X5849Y21629D01*
X5888Y21621D01*
X5976D01*
Y21850D01*
D02*
G37*
G36*
X3814D02*
X3624D01*
Y21621D01*
X3712D01*
X3751Y21629D01*
X3784Y21651D01*
X3806Y21684D01*
X3814Y21723D01*
Y21850D01*
D02*
G37*
G36*
X3524D02*
X3335D01*
Y21723D01*
X3342Y21684D01*
X3365Y21651D01*
X3398Y21629D01*
X3437Y21621D01*
X3524D01*
Y21850D01*
D02*
G37*
G36*
X4400Y21418D02*
X4357Y21409D01*
X4279Y21356D01*
X4226Y21278D01*
X4208Y21185D01*
Y20861D01*
X4400D01*
Y21418D01*
D02*
G37*
G36*
Y20761D02*
X4208D01*
Y20437D01*
X4226Y20344D01*
X4279Y20266D01*
X4357Y20213D01*
X4400Y20205D01*
Y20761D01*
D02*
G37*
G36*
X10027Y17975D02*
X9900D01*
Y17786D01*
X10129D01*
Y17873D01*
X10121Y17912D01*
X10099Y17945D01*
X10066Y17968D01*
X10027Y17975D01*
D02*
G37*
G36*
X9800D02*
X9673D01*
X9634Y17968D01*
X9601Y17945D01*
X9579Y17912D01*
X9571Y17873D01*
Y17786D01*
X9800D01*
Y17975D01*
D02*
G37*
G36*
X34802Y829D02*
X34714D01*
Y600D01*
X34904D01*
Y727D01*
X34896Y766D01*
X34874Y799D01*
X34841Y821D01*
X34802Y829D01*
D02*
G37*
G36*
X34614D02*
X34527D01*
X34488Y821D01*
X34455Y799D01*
X34432Y766D01*
X34425Y727D01*
Y600D01*
X34614D01*
Y829D01*
D02*
G37*
G36*
X34904Y500D02*
X34714D01*
Y271D01*
X34802D01*
X34841Y279D01*
X34874Y301D01*
X34896Y334D01*
X34904Y373D01*
Y500D01*
D02*
G37*
G36*
X34614D02*
X34425D01*
Y373D01*
X34432Y334D01*
X34455Y301D01*
X34488Y279D01*
X34527Y271D01*
X34614D01*
Y500D01*
D02*
G37*
%LPD*%
G36*
X4302Y26892D02*
X4368Y26848D01*
X4446Y26832D01*
X4721D01*
X4800Y26848D01*
X4866Y26892D01*
X4884Y26920D01*
X5211D01*
X5229Y26892D01*
X5295Y26848D01*
X5373Y26833D01*
X5727D01*
X5805Y26848D01*
X5871Y26892D01*
X5889Y26919D01*
X6293D01*
X6312Y26873D01*
X6138Y26699D01*
X5850D01*
X5785Y26742D01*
X5707Y26757D01*
X5353D01*
X5275Y26742D01*
X5209Y26698D01*
X5191Y26670D01*
X4862D01*
X4800Y26712D01*
X4721Y26728D01*
X4446D01*
X4368Y26712D01*
X4302Y26668D01*
X4279Y26635D01*
X4058D01*
X4036Y26662D01*
Y26730D01*
X3796D01*
Y26830D01*
X4036D01*
Y26898D01*
X4066Y26935D01*
X4273D01*
X4302Y26892D01*
D02*
G37*
G36*
X2004Y26985D02*
X2008Y26983D01*
X2014Y26950D01*
X2043Y26907D01*
X2019Y26858D01*
X1977Y26850D01*
X1894Y26795D01*
X1784Y26685D01*
X1509D01*
Y26725D01*
X1494Y26803D01*
X1449Y26869D01*
X1383Y26914D01*
X1305Y26929D01*
X1226D01*
X1216Y26979D01*
X1260Y26997D01*
X1363Y27077D01*
X1439Y27175D01*
X1814D01*
X2004Y26985D01*
D02*
G37*
%LPC*%
G36*
X27345Y39297D02*
X26755D01*
X26716Y39289D01*
X26683Y39267D01*
X26661Y39234D01*
X26653Y39195D01*
Y38605D01*
X26661Y38566D01*
X26683Y38533D01*
X26716Y38511D01*
X26755Y38503D01*
X27345D01*
X27384Y38511D01*
X27417Y38533D01*
X27439Y38566D01*
X27447Y38605D01*
Y39195D01*
X27439Y39234D01*
X27417Y39267D01*
X27384Y39289D01*
X27345Y39297D01*
D02*
G37*
G36*
X26050Y39299D02*
X25947Y39285D01*
X25851Y39245D01*
X25768Y39182D01*
X25705Y39099D01*
X25665Y39003D01*
X25651Y38900D01*
X25665Y38797D01*
X25705Y38701D01*
X25768Y38618D01*
X25851Y38555D01*
X25947Y38515D01*
X26050Y38501D01*
X26153Y38515D01*
X26249Y38555D01*
X26332Y38618D01*
X26395Y38701D01*
X26435Y38797D01*
X26449Y38900D01*
X26435Y39003D01*
X26395Y39099D01*
X26332Y39182D01*
X26249Y39245D01*
X26153Y39285D01*
X26050Y39299D01*
D02*
G37*
G36*
X25050D02*
X24947Y39285D01*
X24851Y39245D01*
X24768Y39182D01*
X24705Y39099D01*
X24665Y39003D01*
X24651Y38900D01*
X24665Y38797D01*
X24705Y38701D01*
X24768Y38618D01*
X24851Y38555D01*
X24947Y38515D01*
X25050Y38501D01*
X25153Y38515D01*
X25249Y38555D01*
X25332Y38618D01*
X25395Y38701D01*
X25435Y38797D01*
X25449Y38900D01*
X25435Y39003D01*
X25395Y39099D01*
X25332Y39182D01*
X25249Y39245D01*
X25153Y39285D01*
X25050Y39299D01*
D02*
G37*
G36*
X24050D02*
X23947Y39285D01*
X23851Y39245D01*
X23768Y39182D01*
X23705Y39099D01*
X23665Y39003D01*
X23651Y38900D01*
X23665Y38797D01*
X23705Y38701D01*
X23768Y38618D01*
X23851Y38555D01*
X23947Y38515D01*
X24050Y38501D01*
X24153Y38515D01*
X24249Y38555D01*
X24332Y38618D01*
X24395Y38701D01*
X24435Y38797D01*
X24449Y38900D01*
X24435Y39003D01*
X24395Y39099D01*
X24332Y39182D01*
X24249Y39245D01*
X24153Y39285D01*
X24050Y39299D01*
D02*
G37*
G36*
X23050D02*
X22947Y39285D01*
X22851Y39245D01*
X22768Y39182D01*
X22705Y39099D01*
X22665Y39003D01*
X22651Y38900D01*
X22665Y38797D01*
X22705Y38701D01*
X22768Y38618D01*
X22851Y38555D01*
X22947Y38515D01*
X23050Y38501D01*
X23153Y38515D01*
X23249Y38555D01*
X23332Y38618D01*
X23395Y38701D01*
X23435Y38797D01*
X23449Y38900D01*
X23435Y39003D01*
X23395Y39099D01*
X23332Y39182D01*
X23249Y39245D01*
X23153Y39285D01*
X23050Y39299D01*
D02*
G37*
G36*
X22050D02*
X21947Y39285D01*
X21851Y39245D01*
X21768Y39182D01*
X21705Y39099D01*
X21665Y39003D01*
X21651Y38900D01*
X21665Y38797D01*
X21705Y38701D01*
X21768Y38618D01*
X21851Y38555D01*
X21947Y38515D01*
X22050Y38501D01*
X22153Y38515D01*
X22249Y38555D01*
X22332Y38618D01*
X22395Y38701D01*
X22435Y38797D01*
X22449Y38900D01*
X22435Y39003D01*
X22395Y39099D01*
X22332Y39182D01*
X22249Y39245D01*
X22153Y39285D01*
X22050Y39299D01*
D02*
G37*
G36*
X21050D02*
X20947Y39285D01*
X20851Y39245D01*
X20768Y39182D01*
X20705Y39099D01*
X20665Y39003D01*
X20651Y38900D01*
X20665Y38797D01*
X20705Y38701D01*
X20768Y38618D01*
X20851Y38555D01*
X20947Y38515D01*
X21050Y38501D01*
X21153Y38515D01*
X21249Y38555D01*
X21332Y38618D01*
X21395Y38701D01*
X21435Y38797D01*
X21449Y38900D01*
X21435Y39003D01*
X21395Y39099D01*
X21332Y39182D01*
X21249Y39245D01*
X21153Y39285D01*
X21050Y39299D01*
D02*
G37*
G36*
X20050D02*
X19947Y39285D01*
X19851Y39245D01*
X19768Y39182D01*
X19705Y39099D01*
X19665Y39003D01*
X19651Y38900D01*
X19665Y38797D01*
X19705Y38701D01*
X19768Y38618D01*
X19851Y38555D01*
X19947Y38515D01*
X20050Y38501D01*
X20153Y38515D01*
X20249Y38555D01*
X20332Y38618D01*
X20395Y38701D01*
X20435Y38797D01*
X20449Y38900D01*
X20435Y39003D01*
X20395Y39099D01*
X20332Y39182D01*
X20249Y39245D01*
X20153Y39285D01*
X20050Y39299D01*
D02*
G37*
G36*
X27345Y38297D02*
X27100D01*
Y37950D01*
X27447D01*
Y38195D01*
X27439Y38234D01*
X27417Y38267D01*
X27384Y38289D01*
X27345Y38297D01*
D02*
G37*
G36*
X22100Y38292D02*
Y37950D01*
X22442D01*
X22435Y38003D01*
X22395Y38099D01*
X22332Y38182D01*
X22249Y38245D01*
X22153Y38285D01*
X22100Y38292D01*
D02*
G37*
G36*
X26100D02*
Y37950D01*
X26442D01*
X26435Y38003D01*
X26395Y38099D01*
X26332Y38182D01*
X26249Y38245D01*
X26153Y38285D01*
X26100Y38292D01*
D02*
G37*
G36*
X25100D02*
Y37950D01*
X25442D01*
X25435Y38003D01*
X25395Y38099D01*
X25332Y38182D01*
X25249Y38245D01*
X25153Y38285D01*
X25100Y38292D01*
D02*
G37*
G36*
X24100D02*
Y37950D01*
X24442D01*
X24435Y38003D01*
X24395Y38099D01*
X24332Y38182D01*
X24249Y38245D01*
X24153Y38285D01*
X24100Y38292D01*
D02*
G37*
G36*
X21100D02*
Y37950D01*
X21442D01*
X21435Y38003D01*
X21395Y38099D01*
X21332Y38182D01*
X21249Y38245D01*
X21153Y38285D01*
X21100Y38292D01*
D02*
G37*
G36*
X20100D02*
Y37950D01*
X20442D01*
X20435Y38003D01*
X20395Y38099D01*
X20332Y38182D01*
X20249Y38245D01*
X20153Y38285D01*
X20100Y38292D01*
D02*
G37*
G36*
X23100D02*
Y37950D01*
X23442D01*
X23435Y38003D01*
X23395Y38099D01*
X23332Y38182D01*
X23249Y38245D01*
X23153Y38285D01*
X23100Y38292D01*
D02*
G37*
G36*
X22000D02*
X21947Y38285D01*
X21851Y38245D01*
X21768Y38182D01*
X21705Y38099D01*
X21665Y38003D01*
X21658Y37950D01*
X22000D01*
Y38292D01*
D02*
G37*
G36*
X24000D02*
X23947Y38285D01*
X23851Y38245D01*
X23768Y38182D01*
X23705Y38099D01*
X23665Y38003D01*
X23658Y37950D01*
X24000D01*
Y38292D01*
D02*
G37*
G36*
X20000D02*
X19947Y38285D01*
X19851Y38245D01*
X19768Y38182D01*
X19705Y38099D01*
X19665Y38003D01*
X19658Y37950D01*
X20000D01*
Y38292D01*
D02*
G37*
G36*
X26000D02*
X25947Y38285D01*
X25851Y38245D01*
X25768Y38182D01*
X25705Y38099D01*
X25665Y38003D01*
X25658Y37950D01*
X26000D01*
Y38292D01*
D02*
G37*
G36*
X25000D02*
X24947Y38285D01*
X24851Y38245D01*
X24768Y38182D01*
X24705Y38099D01*
X24665Y38003D01*
X24658Y37950D01*
X25000D01*
Y38292D01*
D02*
G37*
G36*
X21000D02*
X20947Y38285D01*
X20851Y38245D01*
X20768Y38182D01*
X20705Y38099D01*
X20665Y38003D01*
X20658Y37950D01*
X21000D01*
Y38292D01*
D02*
G37*
G36*
X23000D02*
X22947Y38285D01*
X22851Y38245D01*
X22768Y38182D01*
X22705Y38099D01*
X22665Y38003D01*
X22658Y37950D01*
X23000D01*
Y38292D01*
D02*
G37*
G36*
X27000Y38297D02*
X26755D01*
X26716Y38289D01*
X26683Y38267D01*
X26661Y38234D01*
X26653Y38195D01*
Y37950D01*
X27000D01*
Y38297D01*
D02*
G37*
G36*
X26442Y37850D02*
X26100D01*
Y37508D01*
X26153Y37515D01*
X26249Y37555D01*
X26332Y37618D01*
X26395Y37701D01*
X26435Y37797D01*
X26442Y37850D01*
D02*
G37*
G36*
X25442D02*
X25100D01*
Y37508D01*
X25153Y37515D01*
X25249Y37555D01*
X25332Y37618D01*
X25395Y37701D01*
X25435Y37797D01*
X25442Y37850D01*
D02*
G37*
G36*
X24442D02*
X24100D01*
Y37508D01*
X24153Y37515D01*
X24249Y37555D01*
X24332Y37618D01*
X24395Y37701D01*
X24435Y37797D01*
X24442Y37850D01*
D02*
G37*
G36*
X23442D02*
X23100D01*
Y37508D01*
X23153Y37515D01*
X23249Y37555D01*
X23332Y37618D01*
X23395Y37701D01*
X23435Y37797D01*
X23442Y37850D01*
D02*
G37*
G36*
X22442D02*
X22100D01*
Y37508D01*
X22153Y37515D01*
X22249Y37555D01*
X22332Y37618D01*
X22395Y37701D01*
X22435Y37797D01*
X22442Y37850D01*
D02*
G37*
G36*
X26000D02*
X25658D01*
X25665Y37797D01*
X25705Y37701D01*
X25768Y37618D01*
X25851Y37555D01*
X25947Y37515D01*
X26000Y37508D01*
Y37850D01*
D02*
G37*
G36*
X25000D02*
X24658D01*
X24665Y37797D01*
X24705Y37701D01*
X24768Y37618D01*
X24851Y37555D01*
X24947Y37515D01*
X25000Y37508D01*
Y37850D01*
D02*
G37*
G36*
X24000D02*
X23658D01*
X23665Y37797D01*
X23705Y37701D01*
X23768Y37618D01*
X23851Y37555D01*
X23947Y37515D01*
X24000Y37508D01*
Y37850D01*
D02*
G37*
G36*
X23000D02*
X22658D01*
X22665Y37797D01*
X22705Y37701D01*
X22768Y37618D01*
X22851Y37555D01*
X22947Y37515D01*
X23000Y37508D01*
Y37850D01*
D02*
G37*
G36*
X22000D02*
X21658D01*
X21665Y37797D01*
X21705Y37701D01*
X21768Y37618D01*
X21851Y37555D01*
X21947Y37515D01*
X22000Y37508D01*
Y37850D01*
D02*
G37*
G36*
X27447D02*
X27100D01*
Y37503D01*
X27345D01*
X27384Y37511D01*
X27417Y37533D01*
X27439Y37566D01*
X27447Y37605D01*
Y37850D01*
D02*
G37*
G36*
X27000D02*
X26653D01*
Y37605D01*
X26661Y37566D01*
X26683Y37533D01*
X26716Y37511D01*
X26755Y37503D01*
X27000D01*
Y37850D01*
D02*
G37*
G36*
X27345Y37297D02*
X26755D01*
X26716Y37289D01*
X26683Y37267D01*
X26661Y37234D01*
X26653Y37195D01*
Y36605D01*
X26661Y36566D01*
X26683Y36533D01*
X26716Y36511D01*
X26755Y36503D01*
X27345D01*
X27384Y36511D01*
X27417Y36533D01*
X27439Y36566D01*
X27447Y36605D01*
Y37195D01*
X27439Y37234D01*
X27417Y37267D01*
X27384Y37289D01*
X27345Y37297D01*
D02*
G37*
G36*
X35050Y36192D02*
X35040Y36190D01*
X35030D01*
X34966Y36177D01*
X34963Y36176D01*
X34962Y36176D01*
X34938Y36171D01*
X34902Y36156D01*
X34902Y36156D01*
X34882Y36143D01*
X34881Y36143D01*
X34879Y36141D01*
X34824Y36104D01*
X34796Y36076D01*
X34796Y36076D01*
X34759Y36021D01*
X34757Y36019D01*
X34757Y36018D01*
X34744Y35998D01*
X34744Y35998D01*
X34729Y35962D01*
X34724Y35938D01*
X34724Y35937D01*
X34723Y35934D01*
X34710Y35870D01*
Y35830D01*
X34723Y35766D01*
X34724Y35763D01*
X34724Y35762D01*
X34729Y35738D01*
X34744Y35702D01*
X34744Y35702D01*
X34757Y35682D01*
X34757Y35681D01*
X34759Y35679D01*
X34796Y35624D01*
X34824Y35596D01*
X34824Y35596D01*
X34879Y35559D01*
X34881Y35557D01*
X34882Y35557D01*
X34902Y35544D01*
X34902Y35544D01*
X34938Y35529D01*
X34962Y35524D01*
X34963Y35524D01*
X34966Y35523D01*
X35030Y35510D01*
X35040D01*
X35050Y35508D01*
X35060Y35510D01*
X35070D01*
X35134Y35523D01*
X35137Y35524D01*
X35138Y35524D01*
X35162Y35529D01*
X35198Y35544D01*
X35198Y35544D01*
X35218Y35557D01*
X35219Y35557D01*
X35221Y35559D01*
X35276Y35596D01*
X35304Y35624D01*
X35304Y35624D01*
X35341Y35679D01*
X35343Y35681D01*
X35343Y35682D01*
X35356Y35702D01*
X35356Y35702D01*
X35371Y35738D01*
X35376Y35762D01*
X35376Y35763D01*
X35377Y35766D01*
X35390Y35830D01*
Y35870D01*
X35377Y35934D01*
X35376Y35937D01*
X35376Y35938D01*
X35371Y35962D01*
X35356Y35998D01*
X35356Y35998D01*
X35343Y36018D01*
X35343Y36019D01*
X35341Y36021D01*
X35304Y36076D01*
X35276Y36104D01*
X35276Y36104D01*
X35221Y36141D01*
X35219Y36143D01*
X35218Y36143D01*
X35198Y36156D01*
X35198Y36156D01*
X35162Y36171D01*
X35138Y36176D01*
X35137Y36176D01*
X35134Y36177D01*
X35070Y36190D01*
X35060D01*
X35050Y36192D01*
D02*
G37*
G36*
Y33092D02*
X35040Y33090D01*
X35030D01*
X34966Y33077D01*
X34963Y33076D01*
X34962Y33076D01*
X34938Y33071D01*
X34902Y33056D01*
X34902Y33056D01*
X34882Y33043D01*
X34881Y33043D01*
X34879Y33041D01*
X34824Y33004D01*
X34796Y32976D01*
X34796Y32976D01*
X34759Y32921D01*
X34757Y32919D01*
X34757Y32918D01*
X34744Y32898D01*
X34744Y32898D01*
X34729Y32862D01*
X34724Y32838D01*
X34724Y32837D01*
X34723Y32834D01*
X34710Y32770D01*
Y32730D01*
X34723Y32666D01*
X34724Y32663D01*
X34724Y32662D01*
X34729Y32638D01*
X34744Y32602D01*
X34744Y32602D01*
X34757Y32582D01*
X34757Y32581D01*
X34759Y32579D01*
X34796Y32524D01*
X34824Y32496D01*
X34824Y32496D01*
X34879Y32459D01*
X34881Y32457D01*
X34882Y32457D01*
X34902Y32444D01*
X34902Y32444D01*
X34938Y32429D01*
X34962Y32424D01*
X34963Y32424D01*
X34966Y32423D01*
X35030Y32410D01*
X35040D01*
X35050Y32408D01*
X35060Y32410D01*
X35070D01*
X35134Y32423D01*
X35137Y32424D01*
X35138Y32424D01*
X35162Y32429D01*
X35198Y32444D01*
X35198Y32444D01*
X35218Y32457D01*
X35219Y32457D01*
X35221Y32459D01*
X35276Y32496D01*
X35304Y32524D01*
X35304Y32524D01*
X35341Y32579D01*
X35343Y32581D01*
X35343Y32582D01*
X35356Y32602D01*
X35356Y32602D01*
X35371Y32638D01*
X35376Y32662D01*
X35376Y32663D01*
X35377Y32666D01*
X35390Y32730D01*
Y32770D01*
X35377Y32834D01*
X35376Y32837D01*
X35376Y32838D01*
X35371Y32862D01*
X35356Y32898D01*
X35356Y32898D01*
X35343Y32918D01*
X35343Y32919D01*
X35341Y32921D01*
X35304Y32976D01*
X35276Y33004D01*
X35276Y33004D01*
X35221Y33041D01*
X35219Y33043D01*
X35218Y33043D01*
X35198Y33056D01*
X35198Y33056D01*
X35162Y33071D01*
X35138Y33076D01*
X35137Y33076D01*
X35134Y33077D01*
X35070Y33090D01*
X35060D01*
X35050Y33092D01*
D02*
G37*
G36*
Y29992D02*
X35040Y29990D01*
X35030D01*
X34966Y29977D01*
X34963Y29976D01*
X34962Y29976D01*
X34938Y29971D01*
X34902Y29956D01*
X34902Y29956D01*
X34882Y29943D01*
X34881Y29943D01*
X34879Y29941D01*
X34824Y29904D01*
X34796Y29876D01*
X34796Y29876D01*
X34759Y29821D01*
X34757Y29819D01*
X34757Y29818D01*
X34744Y29798D01*
X34744Y29798D01*
X34729Y29762D01*
X34724Y29738D01*
X34724Y29737D01*
X34723Y29734D01*
X34710Y29670D01*
Y29630D01*
X34723Y29566D01*
X34724Y29563D01*
X34724Y29562D01*
X34729Y29538D01*
X34744Y29502D01*
X34744Y29502D01*
X34757Y29482D01*
X34757Y29481D01*
X34759Y29479D01*
X34796Y29424D01*
X34824Y29396D01*
X34824Y29396D01*
X34879Y29359D01*
X34881Y29357D01*
X34882Y29357D01*
X34902Y29344D01*
X34902Y29344D01*
X34938Y29329D01*
X34962Y29324D01*
X34963Y29324D01*
X34966Y29323D01*
X35030Y29310D01*
X35040D01*
X35050Y29308D01*
X35060Y29310D01*
X35070D01*
X35134Y29323D01*
X35137Y29324D01*
X35138Y29324D01*
X35162Y29329D01*
X35198Y29344D01*
X35198Y29344D01*
X35218Y29357D01*
X35219Y29357D01*
X35221Y29359D01*
X35276Y29396D01*
X35304Y29424D01*
X35304Y29424D01*
X35341Y29479D01*
X35343Y29481D01*
X35343Y29482D01*
X35356Y29502D01*
X35356Y29502D01*
X35371Y29538D01*
X35376Y29562D01*
X35376Y29563D01*
X35377Y29566D01*
X35390Y29630D01*
Y29670D01*
X35377Y29734D01*
X35376Y29737D01*
X35376Y29738D01*
X35371Y29762D01*
X35356Y29798D01*
X35356Y29798D01*
X35343Y29818D01*
X35343Y29819D01*
X35341Y29821D01*
X35304Y29876D01*
X35276Y29904D01*
X35276Y29904D01*
X35221Y29941D01*
X35219Y29943D01*
X35218Y29943D01*
X35198Y29956D01*
X35198Y29956D01*
X35162Y29971D01*
X35138Y29976D01*
X35137Y29976D01*
X35134Y29977D01*
X35070Y29990D01*
X35060D01*
X35050Y29992D01*
D02*
G37*
G36*
X35060Y26912D02*
X35050Y26910D01*
X35040D01*
X34976Y26897D01*
X34973Y26896D01*
X34972Y26896D01*
X34948Y26891D01*
X34912Y26876D01*
X34912Y26876D01*
X34892Y26863D01*
X34891Y26863D01*
X34889Y26861D01*
X34834Y26824D01*
X34806Y26796D01*
X34806Y26796D01*
X34769Y26741D01*
X34767Y26739D01*
X34767Y26738D01*
X34754Y26718D01*
X34754Y26718D01*
X34748Y26705D01*
X34744Y26698D01*
X34744Y26698D01*
X34729Y26662D01*
X34724Y26638D01*
X34724Y26637D01*
X34723Y26634D01*
X34710Y26570D01*
Y26530D01*
X34723Y26466D01*
X34724Y26463D01*
X34724Y26462D01*
X34729Y26438D01*
X34744Y26402D01*
X34744Y26402D01*
X34757Y26382D01*
X34757Y26381D01*
X34759Y26379D01*
X34796Y26324D01*
X34824Y26296D01*
X34824Y26296D01*
X34879Y26259D01*
X34881Y26257D01*
X34882Y26257D01*
X34902Y26244D01*
X34902Y26244D01*
X34938Y26229D01*
X34962Y26224D01*
X34963Y26224D01*
X34966Y26223D01*
X35030Y26210D01*
X35040D01*
X35050Y26208D01*
X35060Y26210D01*
X35070D01*
X35134Y26223D01*
X35137Y26224D01*
X35138Y26224D01*
X35162Y26229D01*
X35198Y26244D01*
X35198Y26244D01*
X35218Y26257D01*
X35219Y26257D01*
X35221Y26259D01*
X35276Y26296D01*
X35304Y26324D01*
X35304Y26324D01*
X35341Y26379D01*
X35343Y26381D01*
X35343Y26382D01*
X35356Y26402D01*
X35356Y26402D01*
X35362Y26415D01*
X35366Y26422D01*
X35366Y26422D01*
X35381Y26458D01*
X35386Y26482D01*
X35386Y26483D01*
X35387Y26486D01*
X35400Y26550D01*
Y26590D01*
X35387Y26654D01*
X35386Y26657D01*
X35386Y26658D01*
X35381Y26682D01*
X35366Y26718D01*
X35366Y26718D01*
X35353Y26738D01*
X35353Y26739D01*
X35351Y26741D01*
X35314Y26796D01*
X35286Y26824D01*
X35286Y26824D01*
X35231Y26861D01*
X35229Y26863D01*
X35228Y26863D01*
X35208Y26876D01*
X35208Y26876D01*
X35172Y26891D01*
X35148Y26896D01*
X35147Y26896D01*
X35144Y26897D01*
X35080Y26910D01*
X35070D01*
X35060Y26912D01*
D02*
G37*
G36*
Y23812D02*
X35050Y23810D01*
X35040D01*
X34976Y23797D01*
X34973Y23796D01*
X34972Y23796D01*
X34948Y23791D01*
X34912Y23776D01*
X34912Y23776D01*
X34892Y23763D01*
X34891Y23763D01*
X34889Y23761D01*
X34834Y23724D01*
X34806Y23696D01*
X34806Y23696D01*
X34769Y23641D01*
X34767Y23639D01*
X34767Y23638D01*
X34754Y23618D01*
X34754Y23618D01*
X34739Y23582D01*
X34734Y23558D01*
X34734Y23557D01*
X34733Y23554D01*
X34720Y23490D01*
Y23450D01*
X34733Y23386D01*
X34734Y23383D01*
X34734Y23382D01*
X34739Y23358D01*
X34754Y23322D01*
X34754Y23322D01*
X34767Y23302D01*
X34767Y23301D01*
X34769Y23299D01*
X34806Y23244D01*
X34834Y23216D01*
X34834Y23216D01*
X34889Y23179D01*
X34891Y23177D01*
X34892Y23177D01*
X34912Y23164D01*
X34912Y23164D01*
X34948Y23149D01*
X34972Y23144D01*
X34973Y23144D01*
X34976Y23143D01*
X35040Y23130D01*
X35050D01*
X35060Y23128D01*
X35070Y23130D01*
X35080D01*
X35144Y23143D01*
X35147Y23144D01*
X35148Y23144D01*
X35172Y23149D01*
X35208Y23164D01*
X35208Y23164D01*
X35228Y23177D01*
X35229Y23177D01*
X35231Y23179D01*
X35286Y23216D01*
X35314Y23244D01*
X35314Y23244D01*
X35351Y23299D01*
X35353Y23301D01*
X35353Y23302D01*
X35366Y23322D01*
X35366Y23322D01*
X35381Y23358D01*
X35386Y23382D01*
X35386Y23383D01*
X35387Y23386D01*
X35400Y23450D01*
Y23490D01*
X35387Y23554D01*
X35386Y23557D01*
X35386Y23558D01*
X35381Y23582D01*
X35366Y23618D01*
X35366Y23618D01*
X35353Y23638D01*
X35353Y23639D01*
X35351Y23641D01*
X35314Y23696D01*
X35286Y23724D01*
X35286Y23724D01*
X35231Y23761D01*
X35229Y23763D01*
X35228Y23763D01*
X35208Y23776D01*
X35208Y23776D01*
X35172Y23791D01*
X35148Y23796D01*
X35147Y23796D01*
X35144Y23797D01*
X35080Y23810D01*
X35070D01*
X35060Y23812D01*
D02*
G37*
G36*
X37241Y22577D02*
X37034Y22560D01*
X36832Y22512D01*
X36640Y22432D01*
X36463Y22324D01*
X36305Y22189D01*
X36170Y22031D01*
X36061Y21853D01*
X35982Y21661D01*
X35933Y21459D01*
X35917Y21252D01*
X35933Y21045D01*
X35982Y20843D01*
X36061Y20651D01*
X36170Y20473D01*
X36305Y20315D01*
X36463Y20180D01*
X36640Y20072D01*
X36832Y19992D01*
X37034Y19944D01*
X37241Y19927D01*
X37449Y19944D01*
X37651Y19992D01*
X37843Y20072D01*
X38020Y20180D01*
X38178Y20315D01*
X38313Y20473D01*
X38422Y20651D01*
X38501Y20843D01*
X38550Y21045D01*
X38566Y21252D01*
X38550Y21459D01*
X38501Y21661D01*
X38422Y21853D01*
X38313Y22031D01*
X38178Y22189D01*
X38020Y22324D01*
X37843Y22432D01*
X37651Y22512D01*
X37449Y22560D01*
X37241Y22577D01*
D02*
G37*
G36*
X35040Y19512D02*
X35030Y19510D01*
X35020D01*
X34956Y19497D01*
X34953Y19496D01*
X34952Y19496D01*
X34928Y19491D01*
X34892Y19476D01*
X34892Y19476D01*
X34872Y19463D01*
X34871Y19463D01*
X34869Y19461D01*
X34814Y19424D01*
X34786Y19396D01*
X34786Y19396D01*
X34749Y19341D01*
X34747Y19339D01*
X34747Y19338D01*
X34734Y19318D01*
X34734Y19318D01*
X34719Y19282D01*
X34714Y19258D01*
X34714Y19257D01*
X34713Y19254D01*
X34700Y19190D01*
Y19150D01*
X34713Y19086D01*
X34714Y19083D01*
X34714Y19082D01*
X34719Y19058D01*
X34734Y19022D01*
X34734Y19022D01*
X34747Y19002D01*
X34747Y19001D01*
X34749Y18999D01*
X34786Y18944D01*
X34814Y18916D01*
X34814Y18916D01*
X34869Y18879D01*
X34871Y18877D01*
X34872Y18877D01*
X34892Y18864D01*
X34892Y18864D01*
X34928Y18849D01*
X34952Y18844D01*
X34953Y18844D01*
X34956Y18843D01*
X35020Y18830D01*
X35030D01*
X35040Y18828D01*
X35050Y18830D01*
X35060D01*
X35124Y18843D01*
X35127Y18844D01*
X35128Y18844D01*
X35152Y18849D01*
X35188Y18864D01*
X35188Y18864D01*
X35208Y18877D01*
X35209Y18877D01*
X35211Y18879D01*
X35266Y18916D01*
X35294Y18944D01*
X35294Y18944D01*
X35331Y18999D01*
X35333Y19001D01*
X35333Y19002D01*
X35346Y19022D01*
X35346Y19022D01*
X35361Y19058D01*
X35366Y19082D01*
X35366Y19083D01*
X35367Y19086D01*
X35380Y19150D01*
Y19190D01*
X35367Y19254D01*
X35366Y19257D01*
X35366Y19258D01*
X35361Y19282D01*
X35346Y19318D01*
X35346Y19318D01*
X35333Y19338D01*
X35333Y19339D01*
X35331Y19341D01*
X35294Y19396D01*
X35266Y19424D01*
X35266Y19424D01*
X35211Y19461D01*
X35209Y19463D01*
X35208Y19463D01*
X35188Y19476D01*
X35188Y19476D01*
X35152Y19491D01*
X35128Y19496D01*
X35127Y19496D01*
X35124Y19497D01*
X35060Y19510D01*
X35050D01*
X35040Y19512D01*
D02*
G37*
G36*
Y16412D02*
X35030Y16410D01*
X35020D01*
X34956Y16397D01*
X34953Y16396D01*
X34952Y16396D01*
X34928Y16391D01*
X34892Y16376D01*
X34892Y16376D01*
X34872Y16363D01*
X34871Y16363D01*
X34869Y16361D01*
X34814Y16324D01*
X34786Y16296D01*
X34786Y16296D01*
X34749Y16241D01*
X34747Y16239D01*
X34747Y16238D01*
X34734Y16218D01*
X34734Y16218D01*
X34719Y16182D01*
X34714Y16158D01*
X34714Y16157D01*
X34713Y16154D01*
X34700Y16090D01*
Y16050D01*
X34713Y15986D01*
X34714Y15983D01*
X34714Y15982D01*
X34719Y15958D01*
X34734Y15922D01*
X34734Y15922D01*
X34738Y15915D01*
X34744Y15902D01*
X34744Y15902D01*
X34757Y15882D01*
X34757Y15881D01*
X34759Y15879D01*
X34796Y15824D01*
X34824Y15796D01*
X34824Y15796D01*
X34879Y15759D01*
X34881Y15757D01*
X34882Y15757D01*
X34902Y15744D01*
X34902Y15744D01*
X34938Y15729D01*
X34962Y15724D01*
X34963Y15724D01*
X34966Y15723D01*
X35030Y15710D01*
X35040D01*
X35050Y15708D01*
X35060Y15710D01*
X35070D01*
X35134Y15723D01*
X35137Y15724D01*
X35138Y15724D01*
X35162Y15729D01*
X35198Y15744D01*
X35198Y15744D01*
X35208Y15750D01*
X35218Y15757D01*
X35219Y15757D01*
X35221Y15759D01*
X35276Y15796D01*
X35304Y15824D01*
X35304Y15824D01*
X35341Y15879D01*
X35343Y15881D01*
X35343Y15882D01*
X35356Y15902D01*
X35356Y15902D01*
X35371Y15938D01*
X35376Y15962D01*
X35376Y15963D01*
X35377Y15966D01*
X35390Y16030D01*
Y16070D01*
X35377Y16134D01*
X35376Y16137D01*
X35376Y16138D01*
X35371Y16162D01*
X35356Y16198D01*
X35356Y16198D01*
X35352Y16205D01*
X35346Y16218D01*
X35346Y16218D01*
X35333Y16238D01*
X35333Y16239D01*
X35331Y16241D01*
X35294Y16296D01*
X35266Y16324D01*
X35266Y16324D01*
X35211Y16361D01*
X35209Y16363D01*
X35208Y16363D01*
X35188Y16376D01*
X35188Y16376D01*
X35152Y16391D01*
X35128Y16396D01*
X35127Y16396D01*
X35124Y16397D01*
X35060Y16410D01*
X35050D01*
X35040Y16412D01*
D02*
G37*
G36*
X25350Y15103D02*
X25232Y15091D01*
X25119Y15057D01*
X25015Y15001D01*
X24957Y14954D01*
X23980D01*
X23863Y14938D01*
X23753Y14893D01*
X23659Y14821D01*
X23339Y14501D01*
X23267Y14407D01*
X23222Y14297D01*
X23206Y14180D01*
Y13581D01*
X23188Y13578D01*
X23155Y13556D01*
X23133Y13523D01*
X23125Y13484D01*
Y12696D01*
X23133Y12657D01*
X23155Y12624D01*
X23188Y12602D01*
X23227Y12594D01*
X24093D01*
X24132Y12602D01*
X24165Y12624D01*
X24187Y12657D01*
X24195Y12696D01*
Y13484D01*
X24187Y13523D01*
X24165Y13556D01*
X24132Y13578D01*
X24114Y13581D01*
Y13992D01*
X24168Y14046D01*
X24957D01*
X25015Y13999D01*
X25119Y13943D01*
X25232Y13909D01*
X25350Y13897D01*
X25468Y13909D01*
X25581Y13943D01*
X25685Y13999D01*
X25776Y14074D01*
X25851Y14165D01*
X25907Y14269D01*
X25941Y14382D01*
X25953Y14500D01*
X25941Y14618D01*
X25907Y14731D01*
X25851Y14835D01*
X25776Y14926D01*
X25685Y15001D01*
X25581Y15057D01*
X25468Y15091D01*
X25350Y15103D01*
D02*
G37*
G36*
X35050Y13292D02*
X35040Y13290D01*
X35030D01*
X34966Y13277D01*
X34963Y13276D01*
X34962Y13276D01*
X34938Y13271D01*
X34902Y13256D01*
X34902Y13256D01*
X34882Y13243D01*
X34881Y13243D01*
X34879Y13241D01*
X34824Y13204D01*
X34796Y13176D01*
X34796Y13176D01*
X34759Y13121D01*
X34757Y13119D01*
X34757Y13118D01*
X34744Y13098D01*
X34744Y13098D01*
X34729Y13062D01*
X34724Y13038D01*
X34724Y13037D01*
X34723Y13034D01*
X34710Y12970D01*
Y12930D01*
X34723Y12866D01*
X34724Y12863D01*
X34724Y12862D01*
X34729Y12838D01*
X34744Y12802D01*
X34744Y12802D01*
X34757Y12782D01*
X34757Y12781D01*
X34759Y12779D01*
X34796Y12724D01*
X34824Y12696D01*
X34824Y12696D01*
X34879Y12659D01*
X34881Y12657D01*
X34882Y12657D01*
X34902Y12644D01*
X34902Y12644D01*
X34938Y12629D01*
X34962Y12624D01*
X34963Y12624D01*
X34966Y12623D01*
X35030Y12610D01*
X35040D01*
X35050Y12608D01*
X35060Y12610D01*
X35070D01*
X35134Y12623D01*
X35137Y12624D01*
X35138Y12624D01*
X35162Y12629D01*
X35198Y12644D01*
X35198Y12644D01*
X35218Y12657D01*
X35219Y12657D01*
X35221Y12659D01*
X35276Y12696D01*
X35304Y12724D01*
X35304Y12724D01*
X35341Y12779D01*
X35343Y12781D01*
X35343Y12782D01*
X35356Y12802D01*
X35356Y12802D01*
X35371Y12838D01*
X35376Y12862D01*
X35376Y12863D01*
X35377Y12866D01*
X35390Y12930D01*
Y12970D01*
X35377Y13034D01*
X35376Y13037D01*
X35376Y13038D01*
X35371Y13062D01*
X35356Y13098D01*
X35356Y13098D01*
X35343Y13118D01*
X35343Y13119D01*
X35341Y13121D01*
X35304Y13176D01*
X35276Y13204D01*
X35276Y13204D01*
X35221Y13241D01*
X35219Y13243D01*
X35218Y13243D01*
X35198Y13256D01*
X35198Y13256D01*
X35162Y13271D01*
X35138Y13276D01*
X35137Y13276D01*
X35134Y13277D01*
X35070Y13290D01*
X35060D01*
X35050Y13292D01*
D02*
G37*
G36*
X24093Y12326D02*
X23710D01*
Y11880D01*
X24195D01*
Y12224D01*
X24187Y12263D01*
X24165Y12296D01*
X24132Y12318D01*
X24093Y12326D01*
D02*
G37*
G36*
X23610D02*
X23227D01*
X23188Y12318D01*
X23155Y12296D01*
X23133Y12263D01*
X23125Y12224D01*
Y11880D01*
X23610D01*
Y12326D01*
D02*
G37*
G36*
X24195Y11780D02*
X23710D01*
Y11334D01*
X24093D01*
X24132Y11342D01*
X24165Y11364D01*
X24187Y11397D01*
X24195Y11436D01*
Y11780D01*
D02*
G37*
G36*
X23610D02*
X23125D01*
Y11436D01*
X23133Y11397D01*
X23155Y11364D01*
X23188Y11342D01*
X23227Y11334D01*
X23610D01*
Y11780D01*
D02*
G37*
G36*
X36024Y11375D02*
X35690D01*
Y11126D01*
X36146D01*
Y11253D01*
X36137Y11299D01*
X36110Y11339D01*
X36071Y11365D01*
X36024Y11375D01*
D02*
G37*
G36*
X35590D02*
X35256D01*
X35209Y11365D01*
X35170Y11339D01*
X35143Y11299D01*
X35134Y11253D01*
Y11126D01*
X35590D01*
Y11375D01*
D02*
G37*
G36*
X34543Y11349D02*
X34456D01*
Y11120D01*
X34645D01*
Y11247D01*
X34638Y11286D01*
X34615Y11319D01*
X34582Y11341D01*
X34543Y11349D01*
D02*
G37*
G36*
X34356D02*
X34268D01*
X34229Y11341D01*
X34196Y11319D01*
X34174Y11286D01*
X34166Y11247D01*
Y11120D01*
X34356D01*
Y11349D01*
D02*
G37*
G36*
X34645Y11020D02*
X34456D01*
Y10791D01*
X34543D01*
X34582Y10799D01*
X34615Y10821D01*
X34638Y10854D01*
X34645Y10893D01*
Y11020D01*
D02*
G37*
G36*
X34356D02*
X34166D01*
Y10893D01*
X34174Y10854D01*
X34196Y10821D01*
X34229Y10799D01*
X34268Y10791D01*
X34356D01*
Y11020D01*
D02*
G37*
G36*
X36146Y11026D02*
X35690D01*
Y10776D01*
X36024D01*
X36071Y10786D01*
X36110Y10812D01*
X36137Y10852D01*
X36146Y10898D01*
Y11026D01*
D02*
G37*
G36*
X35590D02*
X35134D01*
Y10898D01*
X35143Y10852D01*
X35170Y10812D01*
X35209Y10786D01*
X35256Y10776D01*
X35590D01*
Y11026D01*
D02*
G37*
G36*
X28598Y11129D02*
X27147D01*
Y8970D01*
X28715D01*
Y11011D01*
X28706Y11056D01*
X28681Y11094D01*
X28643Y11120D01*
X28598Y11129D01*
D02*
G37*
G36*
X27047D02*
X25596D01*
X25552Y11120D01*
X25513Y11094D01*
X25488Y11056D01*
X25479Y11011D01*
Y8970D01*
X27047D01*
Y11129D01*
D02*
G37*
G36*
X32091Y8870D02*
X31281D01*
Y8631D01*
X31968D01*
X32015Y8640D01*
X32055Y8667D01*
X32082Y8707D01*
X32091Y8754D01*
Y8870D01*
D02*
G37*
G36*
X31181D02*
X30371D01*
Y8754D01*
X30380Y8707D01*
X30407Y8667D01*
X30447Y8640D01*
X30494Y8631D01*
X31181D01*
Y8870D01*
D02*
G37*
G36*
X36024Y9564D02*
X35256D01*
X35209Y9554D01*
X35170Y9528D01*
X35143Y9488D01*
X35134Y9442D01*
Y9087D01*
X35143Y9041D01*
X35170Y9001D01*
X35209Y8975D01*
X35256Y8965D01*
X35363D01*
Y8085D01*
X35246D01*
X35207Y8077D01*
X35174Y8055D01*
X35152Y8022D01*
X35144Y7983D01*
Y7827D01*
X33640D01*
X33568Y7818D01*
X33501Y7790D01*
X33444Y7746D01*
X33400Y7689D01*
X33372Y7622D01*
X33363Y7550D01*
X33372Y7478D01*
X33400Y7411D01*
X33444Y7354D01*
X33501Y7310D01*
X33568Y7282D01*
X33640Y7273D01*
X35144D01*
Y7117D01*
X35152Y7078D01*
X35174Y7045D01*
X35207Y7023D01*
X35246Y7015D01*
X36034D01*
X36073Y7023D01*
X36106Y7045D01*
X36128Y7078D01*
X36136Y7117D01*
Y7983D01*
X36128Y8022D01*
X36106Y8055D01*
X36073Y8077D01*
X36034Y8085D01*
X35917D01*
Y8965D01*
X36024D01*
X36071Y8975D01*
X36110Y9001D01*
X36137Y9041D01*
X36146Y9087D01*
Y9442D01*
X36137Y9488D01*
X36110Y9528D01*
X36071Y9554D01*
X36024Y9564D01*
D02*
G37*
G36*
X28715Y8870D02*
X27147D01*
Y6711D01*
X28598D01*
X28643Y6720D01*
X28681Y6746D01*
X28706Y6784D01*
X28715Y6829D01*
Y8870D01*
D02*
G37*
G36*
X27047D02*
X25479D01*
Y6829D01*
X25488Y6784D01*
X25513Y6746D01*
X25552Y6720D01*
X25596Y6711D01*
X27047D01*
Y8870D01*
D02*
G37*
%LPD*%
G36*
X24831Y14802D02*
X24793Y14731D01*
X24759Y14618D01*
X24752Y14550D01*
X25350D01*
Y14450D01*
X24752D01*
X24759Y14382D01*
X24793Y14269D01*
X24831Y14198D01*
X24801Y14148D01*
X24168D01*
X24129Y14140D01*
X24096Y14118D01*
X24042Y14064D01*
X24020Y14031D01*
X24012Y13992D01*
Y13586D01*
X23710D01*
Y13090D01*
X23610D01*
Y13586D01*
X23308D01*
Y14173D01*
X23321Y14271D01*
X23356Y14356D01*
X23416Y14434D01*
X23726Y14744D01*
X23804Y14804D01*
X23889Y14839D01*
X23987Y14852D01*
X24801D01*
X24831Y14802D01*
D02*
G37*
%LPC*%
G36*
X18540Y27417D02*
X18521D01*
X18474Y27407D01*
X18435Y27381D01*
X18422Y27362D01*
X18403Y27366D01*
X18265D01*
X18238Y27360D01*
X18215Y27345D01*
X18197D01*
X18174Y27360D01*
X18147Y27366D01*
X18009D01*
X17982Y27360D01*
X17959Y27345D01*
X17941D01*
X17918Y27360D01*
X17891Y27366D01*
X17753D01*
X17726Y27360D01*
X17703Y27345D01*
X17685D01*
X17662Y27360D01*
X17635Y27366D01*
X17497D01*
X17470Y27360D01*
X17447Y27345D01*
X17429D01*
X17406Y27360D01*
X17379Y27366D01*
X17241D01*
X17222Y27362D01*
X17210Y27381D01*
X17170Y27407D01*
X17123Y27417D01*
X17104D01*
Y26999D01*
Y26582D01*
X17123D01*
X17170Y26591D01*
X17210Y26618D01*
X17222Y26637D01*
X17241Y26633D01*
X17379D01*
X17406Y26638D01*
X17429Y26654D01*
X17447D01*
X17470Y26638D01*
X17497Y26633D01*
X17635D01*
X17662Y26638D01*
X17685Y26654D01*
X17703D01*
X17726Y26638D01*
X17753Y26633D01*
X17891D01*
X17918Y26638D01*
X17941Y26654D01*
X17959D01*
X17982Y26638D01*
X18009Y26633D01*
X18147D01*
X18174Y26638D01*
X18197Y26654D01*
X18215D01*
X18238Y26638D01*
X18265Y26633D01*
X18403D01*
X18422Y26637D01*
X18435Y26618D01*
X18474Y26591D01*
X18521Y26582D01*
X18540D01*
Y26999D01*
Y27417D01*
D02*
G37*
G36*
X17004D02*
X16985D01*
X16939Y27407D01*
X16899Y27381D01*
X16873Y27341D01*
X16863Y27295D01*
Y27049D01*
X17004D01*
Y27417D01*
D02*
G37*
G36*
Y26949D02*
X16863D01*
Y26704D01*
X16873Y26657D01*
X16899Y26618D01*
X16939Y26591D01*
X16985Y26582D01*
X17004D01*
Y26949D01*
D02*
G37*
G36*
X14407Y22577D02*
X14199Y22560D01*
X13997Y22512D01*
X13805Y22432D01*
X13628Y22324D01*
X13470Y22189D01*
X13335Y22031D01*
X13226Y21853D01*
X13147Y21661D01*
X13098Y21459D01*
X13082Y21252D01*
X13098Y21045D01*
X13147Y20843D01*
X13226Y20651D01*
X13335Y20473D01*
X13470Y20315D01*
X13628Y20180D01*
X13805Y20072D01*
X13997Y19992D01*
X14199Y19944D01*
X14407Y19927D01*
X14614Y19944D01*
X14816Y19992D01*
X15008Y20072D01*
X15185Y20180D01*
X15343Y20315D01*
X15478Y20473D01*
X15587Y20651D01*
X15666Y20843D01*
X15715Y21045D01*
X15731Y21252D01*
X15715Y21459D01*
X15666Y21661D01*
X15587Y21853D01*
X15478Y22031D01*
X15343Y22189D01*
X15185Y22324D01*
X15008Y22432D01*
X14816Y22512D01*
X14614Y22560D01*
X14407Y22577D01*
D02*
G37*
G36*
X11100Y14892D02*
Y14550D01*
X11442D01*
X11435Y14603D01*
X11395Y14699D01*
X11332Y14782D01*
X11249Y14845D01*
X11153Y14885D01*
X11100Y14892D01*
D02*
G37*
G36*
X11000D02*
X10947Y14885D01*
X10851Y14845D01*
X10768Y14782D01*
X10705Y14699D01*
X10665Y14603D01*
X10658Y14550D01*
X11000D01*
Y14892D01*
D02*
G37*
G36*
X11442Y14450D02*
X11100D01*
Y14108D01*
X11153Y14115D01*
X11249Y14155D01*
X11332Y14218D01*
X11395Y14301D01*
X11435Y14397D01*
X11442Y14450D01*
D02*
G37*
G36*
X11000D02*
X10658D01*
X10665Y14397D01*
X10705Y14301D01*
X10768Y14218D01*
X10851Y14155D01*
X10947Y14115D01*
X11000Y14108D01*
Y14450D01*
D02*
G37*
G36*
X10050Y14899D02*
X9947Y14885D01*
X9851Y14845D01*
X9768Y14782D01*
X9705Y14699D01*
X9665Y14603D01*
X9651Y14500D01*
X9665Y14397D01*
X9705Y14301D01*
X9768Y14218D01*
X9851Y14155D01*
X9947Y14115D01*
X10050Y14101D01*
X10153Y14115D01*
X10249Y14155D01*
X10332Y14218D01*
X10395Y14301D01*
X10435Y14397D01*
X10449Y14500D01*
X10435Y14603D01*
X10395Y14699D01*
X10332Y14782D01*
X10249Y14845D01*
X10153Y14885D01*
X10050Y14899D01*
D02*
G37*
G36*
X9050D02*
X8947Y14885D01*
X8851Y14845D01*
X8768Y14782D01*
X8705Y14699D01*
X8665Y14603D01*
X8651Y14500D01*
X8665Y14397D01*
X8705Y14301D01*
X8768Y14218D01*
X8851Y14155D01*
X8947Y14115D01*
X9050Y14101D01*
X9153Y14115D01*
X9249Y14155D01*
X9332Y14218D01*
X9395Y14301D01*
X9435Y14397D01*
X9449Y14500D01*
X9435Y14603D01*
X9395Y14699D01*
X9332Y14782D01*
X9249Y14845D01*
X9153Y14885D01*
X9050Y14899D01*
D02*
G37*
G36*
X9345Y12897D02*
X8755D01*
X8716Y12889D01*
X8683Y12867D01*
X8661Y12834D01*
X8653Y12795D01*
Y12205D01*
X8661Y12166D01*
X8683Y12133D01*
X8716Y12111D01*
X8755Y12103D01*
X9345D01*
X9384Y12111D01*
X9417Y12133D01*
X9439Y12166D01*
X9447Y12205D01*
Y12795D01*
X9439Y12834D01*
X9417Y12867D01*
X9384Y12889D01*
X9345Y12897D01*
D02*
G37*
G36*
X9050Y11899D02*
X8947Y11885D01*
X8851Y11845D01*
X8768Y11782D01*
X8705Y11699D01*
X8665Y11603D01*
X8651Y11500D01*
X8665Y11397D01*
X8705Y11301D01*
X8768Y11218D01*
X8851Y11155D01*
X8947Y11115D01*
X9050Y11101D01*
X9153Y11115D01*
X9249Y11155D01*
X9332Y11218D01*
X9395Y11301D01*
X9435Y11397D01*
X9449Y11500D01*
X9435Y11603D01*
X9395Y11699D01*
X9332Y11782D01*
X9249Y11845D01*
X9153Y11885D01*
X9050Y11899D01*
D02*
G37*
G36*
Y10899D02*
X8947Y10885D01*
X8851Y10845D01*
X8768Y10782D01*
X8705Y10699D01*
X8665Y10603D01*
X8651Y10500D01*
X8665Y10397D01*
X8705Y10301D01*
X8768Y10218D01*
X8851Y10155D01*
X8947Y10115D01*
X9050Y10101D01*
X9153Y10115D01*
X9249Y10155D01*
X9332Y10218D01*
X9395Y10301D01*
X9435Y10397D01*
X9449Y10500D01*
X9435Y10603D01*
X9395Y10699D01*
X9332Y10782D01*
X9249Y10845D01*
X9153Y10885D01*
X9050Y10899D01*
D02*
G37*
G36*
X9100Y8892D02*
Y8550D01*
X9442D01*
X9435Y8603D01*
X9395Y8699D01*
X9332Y8782D01*
X9249Y8845D01*
X9153Y8885D01*
X9100Y8892D01*
D02*
G37*
G36*
X9000D02*
X8947Y8885D01*
X8851Y8845D01*
X8768Y8782D01*
X8705Y8699D01*
X8665Y8603D01*
X8658Y8550D01*
X9000D01*
Y8892D01*
D02*
G37*
G36*
X9442Y8450D02*
X9100D01*
Y8108D01*
X9153Y8115D01*
X9249Y8155D01*
X9332Y8218D01*
X9395Y8301D01*
X9435Y8397D01*
X9442Y8450D01*
D02*
G37*
G36*
X9000D02*
X8658D01*
X8665Y8397D01*
X8705Y8301D01*
X8768Y8218D01*
X8851Y8155D01*
X8947Y8115D01*
X9000Y8108D01*
Y8450D01*
D02*
G37*
G36*
X23545Y31900D02*
X23300D01*
Y31552D01*
X23647D01*
Y31798D01*
X23639Y31837D01*
X23617Y31870D01*
X23584Y31892D01*
X23545Y31900D01*
D02*
G37*
G36*
X23200D02*
X22955D01*
X22916Y31892D01*
X22883Y31870D01*
X22861Y31837D01*
X22853Y31798D01*
Y31552D01*
X23200D01*
Y31900D01*
D02*
G37*
G36*
X25400Y31798D02*
Y31250D01*
X25948D01*
X25941Y31318D01*
X25907Y31431D01*
X25851Y31535D01*
X25776Y31626D01*
X25685Y31701D01*
X25581Y31757D01*
X25468Y31791D01*
X25400Y31798D01*
D02*
G37*
G36*
X25300D02*
X25232Y31791D01*
X25119Y31757D01*
X25015Y31701D01*
X24924Y31626D01*
X24849Y31535D01*
X24793Y31431D01*
X24759Y31318D01*
X24752Y31250D01*
X25300D01*
Y31798D01*
D02*
G37*
G36*
X23647Y31452D02*
X23300D01*
Y31105D01*
X23545D01*
X23584Y31113D01*
X23617Y31135D01*
X23639Y31168D01*
X23647Y31207D01*
Y31452D01*
D02*
G37*
G36*
X23200D02*
X22853D01*
Y31207D01*
X22861Y31168D01*
X22883Y31135D01*
X22916Y31113D01*
X22955Y31105D01*
X23200D01*
Y31452D01*
D02*
G37*
G36*
X25948Y31150D02*
X25400D01*
Y30602D01*
X25468Y30609D01*
X25581Y30643D01*
X25685Y30699D01*
X25776Y30774D01*
X25851Y30865D01*
X25907Y30969D01*
X25941Y31082D01*
X25948Y31150D01*
D02*
G37*
G36*
X25300D02*
X24752D01*
X24759Y31082D01*
X24793Y30969D01*
X24849Y30865D01*
X24924Y30774D01*
X25015Y30699D01*
X25119Y30643D01*
X25232Y30609D01*
X25300Y30602D01*
Y31150D01*
D02*
G37*
G36*
X23645Y25700D02*
X23400D01*
Y25352D01*
X23747D01*
Y25598D01*
X23739Y25637D01*
X23717Y25670D01*
X23684Y25692D01*
X23645Y25700D01*
D02*
G37*
G36*
X23300D02*
X23055D01*
X23016Y25692D01*
X22983Y25670D01*
X22961Y25637D01*
X22953Y25598D01*
Y25352D01*
X23300D01*
Y25700D01*
D02*
G37*
G36*
X25410Y25618D02*
Y25070D01*
X25958D01*
X25951Y25138D01*
X25917Y25251D01*
X25861Y25355D01*
X25786Y25446D01*
X25695Y25521D01*
X25591Y25577D01*
X25478Y25611D01*
X25410Y25618D01*
D02*
G37*
G36*
X25310D02*
X25242Y25611D01*
X25129Y25577D01*
X25025Y25521D01*
X24934Y25446D01*
X24859Y25355D01*
X24803Y25251D01*
X24769Y25138D01*
X24762Y25070D01*
X25310D01*
Y25618D01*
D02*
G37*
G36*
X23747Y25252D02*
X23400D01*
Y24905D01*
X23645D01*
X23684Y24913D01*
X23717Y24935D01*
X23739Y24968D01*
X23747Y25007D01*
Y25252D01*
D02*
G37*
G36*
X23300D02*
X22953D01*
Y25007D01*
X22961Y24968D01*
X22983Y24935D01*
X23016Y24913D01*
X23055Y24905D01*
X23300D01*
Y25252D01*
D02*
G37*
G36*
X25958Y24970D02*
X25410D01*
Y24422D01*
X25478Y24429D01*
X25591Y24463D01*
X25695Y24519D01*
X25786Y24594D01*
X25861Y24685D01*
X25917Y24789D01*
X25951Y24902D01*
X25958Y24970D01*
D02*
G37*
G36*
X25310D02*
X24762D01*
X24769Y24902D01*
X24803Y24789D01*
X24859Y24685D01*
X24934Y24594D01*
X25025Y24519D01*
X25129Y24463D01*
X25242Y24429D01*
X25310Y24422D01*
Y24970D01*
D02*
G37*
G36*
X25390Y18218D02*
Y17670D01*
X25938D01*
X25931Y17738D01*
X25897Y17851D01*
X25841Y17955D01*
X25766Y18046D01*
X25675Y18121D01*
X25571Y18177D01*
X25458Y18211D01*
X25390Y18218D01*
D02*
G37*
G36*
X25290D02*
X25222Y18211D01*
X25109Y18177D01*
X25005Y18121D01*
X24914Y18046D01*
X24839Y17955D01*
X24783Y17851D01*
X24749Y17738D01*
X24742Y17670D01*
X25290D01*
Y18218D01*
D02*
G37*
G36*
X25938Y17570D02*
X25390D01*
Y17022D01*
X25458Y17029D01*
X25571Y17063D01*
X25675Y17119D01*
X25766Y17194D01*
X25841Y17285D01*
X25897Y17389D01*
X25931Y17502D01*
X25938Y17570D01*
D02*
G37*
G36*
X25290D02*
X24742D01*
X24749Y17502D01*
X24783Y17389D01*
X24839Y17285D01*
X24914Y17194D01*
X25005Y17119D01*
X25109Y17063D01*
X25222Y17029D01*
X25290Y17022D01*
Y17570D01*
D02*
G37*
G36*
X32166Y12467D02*
X31940D01*
X31901Y12459D01*
X31868Y12437D01*
X31846Y12404D01*
X31838Y12365D01*
Y12120D01*
X32166D01*
Y12467D01*
D02*
G37*
G36*
Y12020D02*
X31838D01*
Y11775D01*
X31846Y11736D01*
X31868Y11703D01*
X31901Y11681D01*
X31940Y11673D01*
X32166D01*
Y12020D01*
D02*
G37*
G36*
X32106Y11327D02*
X31880D01*
X31841Y11319D01*
X31808Y11297D01*
X31786Y11264D01*
X31778Y11225D01*
Y10980D01*
X32106D01*
Y11327D01*
D02*
G37*
G36*
Y10880D02*
X31778D01*
Y10635D01*
X31786Y10596D01*
X31808Y10563D01*
X31841Y10541D01*
X31880Y10533D01*
X32106D01*
Y10880D01*
D02*
G37*
G36*
X31968Y10209D02*
X31281D01*
Y9970D01*
X32091D01*
Y10086D01*
X32082Y10133D01*
X32055Y10173D01*
X32015Y10200D01*
X31968Y10209D01*
D02*
G37*
G36*
X31181D02*
X30494D01*
X30447Y10200D01*
X30407Y10173D01*
X30380Y10133D01*
X30371Y10086D01*
Y9970D01*
X31181D01*
Y10209D01*
D02*
G37*
G36*
X32091Y9870D02*
X31281D01*
Y9631D01*
X31968D01*
X32015Y9640D01*
X32055Y9667D01*
X32082Y9707D01*
X32091Y9754D01*
Y9870D01*
D02*
G37*
G36*
X31181D02*
X30371D01*
Y9754D01*
X30380Y9707D01*
X30407Y9667D01*
X30447Y9640D01*
X30494Y9631D01*
X31181D01*
Y9870D01*
D02*
G37*
G36*
X38170Y12715D02*
Y12520D01*
X38365D01*
X38356Y12568D01*
X38300Y12650D01*
X38218Y12706D01*
X38170Y12715D01*
D02*
G37*
G36*
X38365Y12420D02*
X38170D01*
Y12225D01*
X38218Y12234D01*
X38300Y12290D01*
X38356Y12372D01*
X38365Y12420D01*
D02*
G37*
G36*
X38180Y9105D02*
Y8910D01*
X38375D01*
X38365Y8958D01*
X38310Y9040D01*
X38228Y9095D01*
X38180Y9105D01*
D02*
G37*
G36*
X38375Y8810D02*
X38180D01*
Y8615D01*
X38228Y8625D01*
X38310Y8680D01*
X38365Y8762D01*
X38375Y8810D01*
D02*
G37*
G36*
X38020Y8165D02*
Y7970D01*
X38215D01*
X38205Y8018D01*
X38150Y8100D01*
X38068Y8155D01*
X38020Y8165D01*
D02*
G37*
G36*
X37920D02*
X37872Y8155D01*
X37790Y8100D01*
X37734Y8018D01*
X37725Y7970D01*
X37920D01*
Y8165D01*
D02*
G37*
G36*
Y7870D02*
X37725D01*
X37734Y7822D01*
X37790Y7740D01*
X37872Y7685D01*
X37920Y7675D01*
Y7870D01*
D02*
G37*
G36*
X35963Y4179D02*
X35876D01*
Y3950D01*
X36065D01*
Y4077D01*
X36058Y4116D01*
X36035Y4149D01*
X36002Y4171D01*
X35963Y4179D01*
D02*
G37*
G36*
X35776D02*
X35688D01*
X35649Y4171D01*
X35616Y4149D01*
X35594Y4116D01*
X35586Y4077D01*
Y3950D01*
X35776D01*
Y4179D01*
D02*
G37*
G36*
X36065Y3850D02*
X35876D01*
Y3621D01*
X35963D01*
X36002Y3629D01*
X36035Y3651D01*
X36058Y3684D01*
X36065Y3723D01*
Y3850D01*
D02*
G37*
G36*
X35776D02*
X35586D01*
Y3723D01*
X35594Y3684D01*
X35616Y3651D01*
X35649Y3629D01*
X35688Y3621D01*
X35776D01*
Y3850D01*
D02*
G37*
G36*
X31300Y3042D02*
Y2700D01*
X31642D01*
X31635Y2753D01*
X31595Y2849D01*
X31532Y2932D01*
X31449Y2995D01*
X31353Y3035D01*
X31300Y3042D01*
D02*
G37*
G36*
X23300D02*
Y2700D01*
X23642D01*
X23635Y2753D01*
X23595Y2849D01*
X23532Y2932D01*
X23449Y2995D01*
X23353Y3035D01*
X23300Y3042D01*
D02*
G37*
G36*
X31200D02*
X31147Y3035D01*
X31051Y2995D01*
X30968Y2932D01*
X30905Y2849D01*
X30865Y2753D01*
X30858Y2700D01*
X31200D01*
Y3042D01*
D02*
G37*
G36*
X23200D02*
X23147Y3035D01*
X23051Y2995D01*
X22968Y2932D01*
X22905Y2849D01*
X22865Y2753D01*
X22858Y2700D01*
X23200D01*
Y3042D01*
D02*
G37*
G36*
X31642Y2600D02*
X31300D01*
Y2258D01*
X31353Y2265D01*
X31449Y2305D01*
X31532Y2368D01*
X31595Y2451D01*
X31635Y2547D01*
X31642Y2600D01*
D02*
G37*
G36*
X23642D02*
X23300D01*
Y2258D01*
X23353Y2265D01*
X23449Y2305D01*
X23532Y2368D01*
X23595Y2451D01*
X23635Y2547D01*
X23642Y2600D01*
D02*
G37*
G36*
X31200D02*
X30858D01*
X30865Y2547D01*
X30905Y2451D01*
X30968Y2368D01*
X31051Y2305D01*
X31147Y2265D01*
X31200Y2258D01*
Y2600D01*
D02*
G37*
G36*
X23200D02*
X22858D01*
X22865Y2547D01*
X22905Y2451D01*
X22968Y2368D01*
X23051Y2305D01*
X23147Y2265D01*
X23200Y2258D01*
Y2600D01*
D02*
G37*
G36*
X16200D02*
X15858D01*
X15865Y2547D01*
X15905Y2451D01*
X15968Y2368D01*
X16051Y2305D01*
X16147Y2265D01*
X16200Y2258D01*
Y2600D01*
D02*
G37*
G36*
X35412Y4179D02*
X35137D01*
X35098Y4171D01*
X35065Y4149D01*
X35042Y4116D01*
X35035Y4077D01*
Y3723D01*
X35042Y3684D01*
X35065Y3651D01*
X35070Y3647D01*
Y3047D01*
X34955D01*
X34916Y3039D01*
X34883Y3017D01*
X34861Y2984D01*
X34853Y2945D01*
Y2355D01*
X34861Y2316D01*
X34883Y2283D01*
X34916Y2261D01*
X34955Y2253D01*
X35545D01*
X35584Y2261D01*
X35617Y2283D01*
X35639Y2316D01*
X35647Y2355D01*
Y2945D01*
X35639Y2984D01*
X35617Y3017D01*
X35584Y3039D01*
X35545Y3047D01*
X35478D01*
Y3647D01*
X35484Y3651D01*
X35506Y3684D01*
X35514Y3723D01*
Y4077D01*
X35506Y4116D01*
X35484Y4149D01*
X35451Y4171D01*
X35412Y4179D01*
D02*
G37*
G36*
X30250Y3049D02*
X30147Y3035D01*
X30051Y2995D01*
X29968Y2932D01*
X29905Y2849D01*
X29865Y2753D01*
X29851Y2650D01*
X29865Y2547D01*
X29905Y2451D01*
X29968Y2368D01*
X30051Y2305D01*
X30147Y2265D01*
X30250Y2251D01*
X30353Y2265D01*
X30449Y2305D01*
X30532Y2368D01*
X30595Y2451D01*
X30635Y2547D01*
X30649Y2650D01*
X30635Y2753D01*
X30595Y2849D01*
X30532Y2932D01*
X30449Y2995D01*
X30353Y3035D01*
X30250Y3049D01*
D02*
G37*
G36*
X29250D02*
X29147Y3035D01*
X29051Y2995D01*
X28968Y2932D01*
X28905Y2849D01*
X28865Y2753D01*
X28851Y2650D01*
X28865Y2547D01*
X28905Y2451D01*
X28968Y2368D01*
X29051Y2305D01*
X29147Y2265D01*
X29250Y2251D01*
X29353Y2265D01*
X29449Y2305D01*
X29532Y2368D01*
X29595Y2451D01*
X29635Y2547D01*
X29649Y2650D01*
X29635Y2753D01*
X29595Y2849D01*
X29532Y2932D01*
X29449Y2995D01*
X29353Y3035D01*
X29250Y3049D01*
D02*
G37*
G36*
X28250D02*
X28147Y3035D01*
X28051Y2995D01*
X27968Y2932D01*
X27905Y2849D01*
X27865Y2753D01*
X27851Y2650D01*
X27865Y2547D01*
X27905Y2451D01*
X27968Y2368D01*
X28051Y2305D01*
X28147Y2265D01*
X28250Y2251D01*
X28353Y2265D01*
X28449Y2305D01*
X28532Y2368D01*
X28595Y2451D01*
X28635Y2547D01*
X28649Y2650D01*
X28635Y2753D01*
X28595Y2849D01*
X28532Y2932D01*
X28449Y2995D01*
X28353Y3035D01*
X28250Y3049D01*
D02*
G37*
G36*
X26250D02*
X26147Y3035D01*
X26051Y2995D01*
X25968Y2932D01*
X25905Y2849D01*
X25865Y2753D01*
X25851Y2650D01*
X25865Y2547D01*
X25905Y2451D01*
X25968Y2368D01*
X26051Y2305D01*
X26147Y2265D01*
X26250Y2251D01*
X26353Y2265D01*
X26449Y2305D01*
X26532Y2368D01*
X26595Y2451D01*
X26635Y2547D01*
X26649Y2650D01*
X26635Y2753D01*
X26595Y2849D01*
X26532Y2932D01*
X26449Y2995D01*
X26353Y3035D01*
X26250Y3049D01*
D02*
G37*
G36*
X25250D02*
X25147Y3035D01*
X25051Y2995D01*
X24968Y2932D01*
X24905Y2849D01*
X24865Y2753D01*
X24851Y2650D01*
X24865Y2547D01*
X24905Y2451D01*
X24968Y2368D01*
X25051Y2305D01*
X25147Y2265D01*
X25250Y2251D01*
X25353Y2265D01*
X25449Y2305D01*
X25532Y2368D01*
X25595Y2451D01*
X25635Y2547D01*
X25649Y2650D01*
X25635Y2753D01*
X25595Y2849D01*
X25532Y2932D01*
X25449Y2995D01*
X25353Y3035D01*
X25250Y3049D01*
D02*
G37*
G36*
X24250D02*
X24147Y3035D01*
X24051Y2995D01*
X23968Y2932D01*
X23905Y2849D01*
X23865Y2753D01*
X23851Y2650D01*
X23865Y2547D01*
X23905Y2451D01*
X23968Y2368D01*
X24051Y2305D01*
X24147Y2265D01*
X24250Y2251D01*
X24353Y2265D01*
X24449Y2305D01*
X24532Y2368D01*
X24595Y2451D01*
X24635Y2547D01*
X24649Y2650D01*
X24635Y2753D01*
X24595Y2849D01*
X24532Y2932D01*
X24449Y2995D01*
X24353Y3035D01*
X24250Y3049D01*
D02*
G37*
G36*
X22250D02*
X22147Y3035D01*
X22051Y2995D01*
X21968Y2932D01*
X21905Y2849D01*
X21865Y2753D01*
X21851Y2650D01*
X21865Y2547D01*
X21905Y2451D01*
X21968Y2368D01*
X22051Y2305D01*
X22147Y2265D01*
X22250Y2251D01*
X22353Y2265D01*
X22449Y2305D01*
X22532Y2368D01*
X22595Y2451D01*
X22635Y2547D01*
X22649Y2650D01*
X22635Y2753D01*
X22595Y2849D01*
X22532Y2932D01*
X22449Y2995D01*
X22353Y3035D01*
X22250Y3049D01*
D02*
G37*
G36*
X21250D02*
X21147Y3035D01*
X21051Y2995D01*
X20968Y2932D01*
X20905Y2849D01*
X20865Y2753D01*
X20851Y2650D01*
X20865Y2547D01*
X20905Y2451D01*
X20968Y2368D01*
X21051Y2305D01*
X21147Y2265D01*
X21250Y2251D01*
X21353Y2265D01*
X21449Y2305D01*
X21532Y2368D01*
X21595Y2451D01*
X21635Y2547D01*
X21649Y2650D01*
X21635Y2753D01*
X21595Y2849D01*
X21532Y2932D01*
X21449Y2995D01*
X21353Y3035D01*
X21250Y3049D01*
D02*
G37*
G36*
X20250D02*
X20147Y3035D01*
X20051Y2995D01*
X19968Y2932D01*
X19905Y2849D01*
X19865Y2753D01*
X19851Y2650D01*
X19865Y2547D01*
X19905Y2451D01*
X19968Y2368D01*
X20051Y2305D01*
X20147Y2265D01*
X20250Y2251D01*
X20353Y2265D01*
X20449Y2305D01*
X20532Y2368D01*
X20595Y2451D01*
X20635Y2547D01*
X20649Y2650D01*
X20635Y2753D01*
X20595Y2849D01*
X20532Y2932D01*
X20449Y2995D01*
X20353Y3035D01*
X20250Y3049D01*
D02*
G37*
G36*
X19250D02*
X19147Y3035D01*
X19051Y2995D01*
X18968Y2932D01*
X18905Y2849D01*
X18865Y2753D01*
X18851Y2650D01*
X18865Y2547D01*
X18905Y2451D01*
X18968Y2368D01*
X19051Y2305D01*
X19147Y2265D01*
X19250Y2251D01*
X19353Y2265D01*
X19449Y2305D01*
X19532Y2368D01*
X19595Y2451D01*
X19635Y2547D01*
X19649Y2650D01*
X19635Y2753D01*
X19595Y2849D01*
X19532Y2932D01*
X19449Y2995D01*
X19353Y3035D01*
X19250Y3049D01*
D02*
G37*
G36*
X18250D02*
X18147Y3035D01*
X18051Y2995D01*
X17968Y2932D01*
X17905Y2849D01*
X17865Y2753D01*
X17851Y2650D01*
X17865Y2547D01*
X17905Y2451D01*
X17968Y2368D01*
X18051Y2305D01*
X18147Y2265D01*
X18250Y2251D01*
X18353Y2265D01*
X18449Y2305D01*
X18532Y2368D01*
X18595Y2451D01*
X18635Y2547D01*
X18649Y2650D01*
X18635Y2753D01*
X18595Y2849D01*
X18532Y2932D01*
X18449Y2995D01*
X18353Y3035D01*
X18250Y3049D01*
D02*
G37*
G36*
X26300Y2042D02*
Y1700D01*
X26642D01*
X26635Y1753D01*
X26595Y1849D01*
X26532Y1932D01*
X26449Y1995D01*
X26353Y2035D01*
X26300Y2042D01*
D02*
G37*
G36*
X29300D02*
Y1700D01*
X29642D01*
X29635Y1753D01*
X29595Y1849D01*
X29532Y1932D01*
X29449Y1995D01*
X29353Y2035D01*
X29300Y2042D01*
D02*
G37*
G36*
X21300D02*
Y1700D01*
X21642D01*
X21635Y1753D01*
X21595Y1849D01*
X21532Y1932D01*
X21449Y1995D01*
X21353Y2035D01*
X21300Y2042D01*
D02*
G37*
G36*
X19300D02*
Y1700D01*
X19642D01*
X19635Y1753D01*
X19595Y1849D01*
X19532Y1932D01*
X19449Y1995D01*
X19353Y2035D01*
X19300Y2042D01*
D02*
G37*
G36*
X33200D02*
X33147Y2035D01*
X33051Y1995D01*
X32968Y1932D01*
X32905Y1849D01*
X32865Y1753D01*
X32858Y1700D01*
X33200D01*
Y2042D01*
D02*
G37*
G36*
X26200D02*
X26147Y2035D01*
X26051Y1995D01*
X25968Y1932D01*
X25905Y1849D01*
X25865Y1753D01*
X25858Y1700D01*
X26200D01*
Y2042D01*
D02*
G37*
G36*
X29200D02*
X29147Y2035D01*
X29051Y1995D01*
X28968Y1932D01*
X28905Y1849D01*
X28865Y1753D01*
X28858Y1700D01*
X29200D01*
Y2042D01*
D02*
G37*
G36*
X21200D02*
X21147Y2035D01*
X21051Y1995D01*
X20968Y1932D01*
X20905Y1849D01*
X20865Y1753D01*
X20858Y1700D01*
X21200D01*
Y2042D01*
D02*
G37*
G36*
X19200D02*
X19147Y2035D01*
X19051Y1995D01*
X18968Y1932D01*
X18905Y1849D01*
X18865Y1753D01*
X18858Y1700D01*
X19200D01*
Y2042D01*
D02*
G37*
G36*
X29642Y1600D02*
X29300D01*
Y1258D01*
X29353Y1265D01*
X29449Y1305D01*
X29532Y1368D01*
X29595Y1451D01*
X29635Y1547D01*
X29642Y1600D01*
D02*
G37*
G36*
X26642D02*
X26300D01*
Y1258D01*
X26353Y1265D01*
X26449Y1305D01*
X26532Y1368D01*
X26595Y1451D01*
X26635Y1547D01*
X26642Y1600D01*
D02*
G37*
G36*
X21642D02*
X21300D01*
Y1258D01*
X21353Y1265D01*
X21449Y1305D01*
X21532Y1368D01*
X21595Y1451D01*
X21635Y1547D01*
X21642Y1600D01*
D02*
G37*
G36*
X19642D02*
X19300D01*
Y1258D01*
X19353Y1265D01*
X19449Y1305D01*
X19532Y1368D01*
X19595Y1451D01*
X19635Y1547D01*
X19642Y1600D01*
D02*
G37*
G36*
X33200D02*
X32858D01*
X32865Y1547D01*
X32905Y1451D01*
X32968Y1368D01*
X33051Y1305D01*
X33147Y1265D01*
X33200Y1258D01*
Y1600D01*
D02*
G37*
G36*
X29200D02*
X28858D01*
X28865Y1547D01*
X28905Y1451D01*
X28968Y1368D01*
X29051Y1305D01*
X29147Y1265D01*
X29200Y1258D01*
Y1600D01*
D02*
G37*
G36*
X26200D02*
X25858D01*
X25865Y1547D01*
X25905Y1451D01*
X25968Y1368D01*
X26051Y1305D01*
X26147Y1265D01*
X26200Y1258D01*
Y1600D01*
D02*
G37*
G36*
X21200D02*
X20858D01*
X20865Y1547D01*
X20905Y1451D01*
X20968Y1368D01*
X21051Y1305D01*
X21147Y1265D01*
X21200Y1258D01*
Y1600D01*
D02*
G37*
G36*
X19200D02*
X18858D01*
X18865Y1547D01*
X18905Y1451D01*
X18968Y1368D01*
X19051Y1305D01*
X19147Y1265D01*
X19200Y1258D01*
Y1600D01*
D02*
G37*
G36*
X32250Y2049D02*
X32147Y2035D01*
X32051Y1995D01*
X31968Y1932D01*
X31905Y1849D01*
X31865Y1753D01*
X31851Y1650D01*
X31865Y1547D01*
X31905Y1451D01*
X31968Y1368D01*
X32051Y1305D01*
X32147Y1265D01*
X32250Y1251D01*
X32353Y1265D01*
X32449Y1305D01*
X32532Y1368D01*
X32595Y1451D01*
X32635Y1547D01*
X32649Y1650D01*
X32635Y1753D01*
X32595Y1849D01*
X32532Y1932D01*
X32449Y1995D01*
X32353Y2035D01*
X32250Y2049D01*
D02*
G37*
G36*
X31250D02*
X31147Y2035D01*
X31051Y1995D01*
X30968Y1932D01*
X30905Y1849D01*
X30865Y1753D01*
X30851Y1650D01*
X30865Y1547D01*
X30905Y1451D01*
X30968Y1368D01*
X31051Y1305D01*
X31147Y1265D01*
X31250Y1251D01*
X31353Y1265D01*
X31449Y1305D01*
X31532Y1368D01*
X31595Y1451D01*
X31635Y1547D01*
X31649Y1650D01*
X31635Y1753D01*
X31595Y1849D01*
X31532Y1932D01*
X31449Y1995D01*
X31353Y2035D01*
X31250Y2049D01*
D02*
G37*
G36*
X30250D02*
X30147Y2035D01*
X30051Y1995D01*
X29968Y1932D01*
X29905Y1849D01*
X29865Y1753D01*
X29851Y1650D01*
X29865Y1547D01*
X29905Y1451D01*
X29968Y1368D01*
X30051Y1305D01*
X30147Y1265D01*
X30250Y1251D01*
X30353Y1265D01*
X30449Y1305D01*
X30532Y1368D01*
X30595Y1451D01*
X30635Y1547D01*
X30649Y1650D01*
X30635Y1753D01*
X30595Y1849D01*
X30532Y1932D01*
X30449Y1995D01*
X30353Y2035D01*
X30250Y2049D01*
D02*
G37*
G36*
X28250D02*
X28147Y2035D01*
X28051Y1995D01*
X27968Y1932D01*
X27905Y1849D01*
X27865Y1753D01*
X27851Y1650D01*
X27865Y1547D01*
X27905Y1451D01*
X27968Y1368D01*
X28051Y1305D01*
X28147Y1265D01*
X28250Y1251D01*
X28353Y1265D01*
X28449Y1305D01*
X28532Y1368D01*
X28595Y1451D01*
X28635Y1547D01*
X28649Y1650D01*
X28635Y1753D01*
X28595Y1849D01*
X28532Y1932D01*
X28449Y1995D01*
X28353Y2035D01*
X28250Y2049D01*
D02*
G37*
G36*
X27250D02*
X27147Y2035D01*
X27051Y1995D01*
X26968Y1932D01*
X26905Y1849D01*
X26865Y1753D01*
X26851Y1650D01*
X26865Y1547D01*
X26905Y1451D01*
X26968Y1368D01*
X27051Y1305D01*
X27147Y1265D01*
X27250Y1251D01*
X27353Y1265D01*
X27449Y1305D01*
X27532Y1368D01*
X27595Y1451D01*
X27635Y1547D01*
X27649Y1650D01*
X27635Y1753D01*
X27595Y1849D01*
X27532Y1932D01*
X27449Y1995D01*
X27353Y2035D01*
X27250Y2049D01*
D02*
G37*
G36*
X25250D02*
X25147Y2035D01*
X25051Y1995D01*
X24968Y1932D01*
X24905Y1849D01*
X24865Y1753D01*
X24851Y1650D01*
X24865Y1547D01*
X24905Y1451D01*
X24968Y1368D01*
X25051Y1305D01*
X25147Y1265D01*
X25250Y1251D01*
X25353Y1265D01*
X25449Y1305D01*
X25532Y1368D01*
X25595Y1451D01*
X25635Y1547D01*
X25649Y1650D01*
X25635Y1753D01*
X25595Y1849D01*
X25532Y1932D01*
X25449Y1995D01*
X25353Y2035D01*
X25250Y2049D01*
D02*
G37*
G36*
X24250D02*
X24147Y2035D01*
X24051Y1995D01*
X23968Y1932D01*
X23905Y1849D01*
X23865Y1753D01*
X23851Y1650D01*
X23865Y1547D01*
X23905Y1451D01*
X23968Y1368D01*
X24051Y1305D01*
X24147Y1265D01*
X24250Y1251D01*
X24353Y1265D01*
X24449Y1305D01*
X24532Y1368D01*
X24595Y1451D01*
X24635Y1547D01*
X24649Y1650D01*
X24635Y1753D01*
X24595Y1849D01*
X24532Y1932D01*
X24449Y1995D01*
X24353Y2035D01*
X24250Y2049D01*
D02*
G37*
G36*
X23250D02*
X23147Y2035D01*
X23051Y1995D01*
X22968Y1932D01*
X22905Y1849D01*
X22865Y1753D01*
X22851Y1650D01*
X22865Y1547D01*
X22905Y1451D01*
X22968Y1368D01*
X23051Y1305D01*
X23147Y1265D01*
X23250Y1251D01*
X23353Y1265D01*
X23449Y1305D01*
X23532Y1368D01*
X23595Y1451D01*
X23635Y1547D01*
X23649Y1650D01*
X23635Y1753D01*
X23595Y1849D01*
X23532Y1932D01*
X23449Y1995D01*
X23353Y2035D01*
X23250Y2049D01*
D02*
G37*
G36*
X22250D02*
X22147Y2035D01*
X22051Y1995D01*
X21968Y1932D01*
X21905Y1849D01*
X21865Y1753D01*
X21851Y1650D01*
X21865Y1547D01*
X21905Y1451D01*
X21968Y1368D01*
X22051Y1305D01*
X22147Y1265D01*
X22250Y1251D01*
X22353Y1265D01*
X22449Y1305D01*
X22532Y1368D01*
X22595Y1451D01*
X22635Y1547D01*
X22649Y1650D01*
X22635Y1753D01*
X22595Y1849D01*
X22532Y1932D01*
X22449Y1995D01*
X22353Y2035D01*
X22250Y2049D01*
D02*
G37*
G36*
X20250D02*
X20147Y2035D01*
X20051Y1995D01*
X19968Y1932D01*
X19905Y1849D01*
X19865Y1753D01*
X19851Y1650D01*
X19865Y1547D01*
X19905Y1451D01*
X19968Y1368D01*
X20051Y1305D01*
X20147Y1265D01*
X20250Y1251D01*
X20353Y1265D01*
X20449Y1305D01*
X20532Y1368D01*
X20595Y1451D01*
X20635Y1547D01*
X20649Y1650D01*
X20635Y1753D01*
X20595Y1849D01*
X20532Y1932D01*
X20449Y1995D01*
X20353Y2035D01*
X20250Y2049D01*
D02*
G37*
G36*
X18250D02*
X18147Y2035D01*
X18051Y1995D01*
X17968Y1932D01*
X17905Y1849D01*
X17865Y1753D01*
X17851Y1650D01*
X17865Y1547D01*
X17905Y1451D01*
X17968Y1368D01*
X18051Y1305D01*
X18147Y1265D01*
X18250Y1251D01*
X18353Y1265D01*
X18449Y1305D01*
X18532Y1368D01*
X18595Y1451D01*
X18635Y1547D01*
X18649Y1650D01*
X18635Y1753D01*
X18595Y1849D01*
X18532Y1932D01*
X18449Y1995D01*
X18353Y2035D01*
X18250Y2049D01*
D02*
G37*
G36*
X16250D02*
X16147Y2035D01*
X16051Y1995D01*
X15968Y1932D01*
X15905Y1849D01*
X15865Y1753D01*
X15851Y1650D01*
X15865Y1547D01*
X15905Y1451D01*
X15968Y1368D01*
X16051Y1305D01*
X16147Y1265D01*
X16250Y1251D01*
X16353Y1265D01*
X16449Y1305D01*
X16532Y1368D01*
X16595Y1451D01*
X16635Y1547D01*
X16649Y1650D01*
X16635Y1753D01*
X16595Y1849D01*
X16532Y1932D01*
X16449Y1995D01*
X16353Y2035D01*
X16250Y2049D01*
D02*
G37*
%LPD*%
D14*
X7399Y23500D02*
Y23949D01*
X7900Y24450D01*
Y26063D01*
X8038Y26201D01*
Y27138D01*
X8650Y27750D01*
X9245D01*
X6244Y26444D02*
X6550Y26750D01*
X7355D01*
X6600Y27250D02*
X7355D01*
X6524Y27174D02*
X6600Y27250D01*
X6244Y27174D02*
X6524D01*
X7950Y22650D02*
Y23500D01*
Y20811D02*
Y22650D01*
X6242Y27176D02*
X6244Y27174D01*
X5568Y26444D02*
X6244D01*
X5550Y27174D02*
X6244D01*
X5550Y27174D02*
X5550Y27174D01*
X19806Y33150D02*
X19820Y33164D01*
X17822Y33150D02*
X19806D01*
X4593Y26416D02*
X5530D01*
X4584Y26406D02*
X4593Y26416D01*
X5500Y26376D02*
X5568Y26444D01*
X4604Y27174D02*
X5550D01*
X4584Y27154D02*
X4604Y27174D01*
X1920Y27430D02*
X2184Y27166D01*
X1010Y27430D02*
X1920D01*
X1890Y26430D02*
X2074Y26614D01*
X1010Y26430D02*
X1890D01*
X4548Y27190D02*
X4584Y27154D01*
X18380Y26300D02*
X18600Y26520D01*
Y26750D01*
X18900Y26800D02*
X18940Y26760D01*
X19040D01*
X18846Y26999D02*
X18900Y26945D01*
Y26800D02*
Y26945D01*
X2964Y26380D02*
X4558D01*
X4584Y26406D01*
X2074Y26614D02*
X2730D01*
X2964Y26380D01*
X2184Y27166D02*
X2950D01*
X2974Y27190D01*
X4548D01*
D17*
X33854Y11070D02*
D03*
X34406D02*
D03*
X4126Y21900D02*
D03*
X3574D02*
D03*
X6026D02*
D03*
X5474D02*
D03*
X10826Y27250D02*
D03*
X10274D02*
D03*
X35826Y3900D02*
D03*
X35274D02*
D03*
X34664Y550D02*
D03*
X35216D02*
D03*
X12616Y15620D02*
D03*
X12064D02*
D03*
X8526Y15900D02*
D03*
X7974D02*
D03*
X7399Y23500D02*
D03*
X7950D02*
D03*
Y22650D02*
D03*
X7399D02*
D03*
D18*
X23660Y13090D02*
D03*
Y11830D02*
D03*
D19*
X21950Y32835D02*
D03*
Y32165D02*
D03*
Y26535D02*
D03*
Y25865D02*
D03*
D20*
Y33585D02*
D03*
Y34215D02*
D03*
Y27485D02*
D03*
Y28115D02*
D03*
D21*
X5550Y28976D02*
D03*
Y28424D02*
D03*
X5540Y25266D02*
D03*
Y24714D02*
D03*
X9850Y17736D02*
D03*
Y17184D02*
D03*
X13000Y33604D02*
D03*
Y34156D02*
D03*
X7350Y25024D02*
D03*
Y25576D02*
D03*
X5530Y26416D02*
D03*
Y25864D02*
D03*
X5550Y27726D02*
D03*
Y27174D02*
D03*
X2380Y26614D02*
D03*
Y27166D02*
D03*
X19820Y33164D02*
D03*
Y33716D02*
D03*
X19080Y33176D02*
D03*
Y32624D02*
D03*
D22*
X32156Y10930D02*
D03*
X32904D02*
D03*
X32216Y12070D02*
D03*
X32964D02*
D03*
D24*
X20480Y29625D02*
D03*
Y30125D02*
D03*
Y30375D02*
D03*
Y29875D02*
D03*
X21020Y30375D02*
D03*
Y30125D02*
D03*
Y29875D02*
D03*
Y29625D02*
D03*
D25*
X18846Y29401D02*
D03*
X18590D02*
D03*
X18334D02*
D03*
X18078D02*
D03*
X17822D02*
D03*
X17566D02*
D03*
X17310D02*
D03*
X17054D02*
D03*
X18846Y26999D02*
D03*
X18590D02*
D03*
X18334D02*
D03*
X18078D02*
D03*
X17822D02*
D03*
X17566D02*
D03*
X17310D02*
D03*
X17054D02*
D03*
D26*
X4450Y17189D02*
D03*
X4950D02*
D03*
X5450D02*
D03*
X5950D02*
D03*
X6450D02*
D03*
X6950D02*
D03*
X7450D02*
D03*
X7950D02*
D03*
X8450D02*
D03*
X4450Y20811D02*
D03*
X4950D02*
D03*
X5450D02*
D03*
X5950D02*
D03*
X6450D02*
D03*
X6950D02*
D03*
X7450D02*
D03*
X7950D02*
D03*
X8450D02*
D03*
D27*
X7355Y27750D02*
D03*
Y27250D02*
D03*
Y26750D02*
D03*
Y26250D02*
D03*
X9245Y27750D02*
D03*
Y27250D02*
D03*
Y26750D02*
D03*
Y26250D02*
D03*
D28*
X17822Y31650D02*
D03*
Y32150D02*
D03*
Y32650D02*
D03*
Y33150D02*
D03*
Y33650D02*
D03*
Y34150D02*
D03*
Y34650D02*
D03*
Y35150D02*
D03*
Y35650D02*
D03*
Y36150D02*
D03*
Y36650D02*
D03*
Y37150D02*
D03*
Y37650D02*
D03*
Y38150D02*
D03*
X14278Y31650D02*
D03*
Y32150D02*
D03*
Y32650D02*
D03*
Y33150D02*
D03*
Y33650D02*
D03*
Y34150D02*
D03*
Y34650D02*
D03*
Y35150D02*
D03*
Y35650D02*
D03*
Y36150D02*
D03*
Y36650D02*
D03*
Y37150D02*
D03*
Y37650D02*
D03*
Y38150D02*
D03*
D29*
X4117Y22585D02*
D03*
X4983D02*
D03*
Y23215D02*
D03*
X4117D02*
D03*
D30*
X36900Y7550D02*
D03*
X35640D02*
D03*
D31*
X38140Y10170D02*
D03*
D32*
X35640Y9264D02*
D03*
Y10170D02*
D03*
Y11076D02*
D03*
D33*
X27097Y8920D02*
D03*
D34*
X31231Y9920D02*
D03*
Y8920D02*
D03*
Y7920D02*
D03*
D35*
X20930Y29750D02*
D03*
Y30250D02*
D03*
D62*
X4584Y27154D02*
D03*
Y26406D02*
D03*
X3796Y26780D02*
D03*
D63*
X31231Y9920D02*
X32100D01*
X30040D02*
X31231D01*
X20950Y28520D02*
Y29720D01*
Y28520D02*
X21355Y28115D01*
X25348Y28098D02*
X25350Y28100D01*
X23350Y28098D02*
X25348D01*
X23333Y28115D02*
X23350Y28098D01*
X21950Y28115D02*
X23333D01*
X21355D02*
X21950D01*
X20940Y30240D02*
Y33940D01*
X21215Y34215D01*
X21950D01*
X22033Y34298D01*
X23250D01*
X25348D02*
X25350Y34300D01*
X23250Y34298D02*
X25348D01*
X22038Y25302D02*
X23350D01*
X21950Y25390D02*
X22038Y25302D01*
X21950Y25390D02*
Y25865D01*
Y31800D02*
Y32165D01*
Y31800D02*
X22248Y31502D01*
X23250D01*
X35640Y7550D02*
Y9264D01*
Y7550D02*
X35640Y7550D01*
X12050Y12150D02*
Y14500D01*
X10050Y10150D02*
X12050Y12150D01*
X10050Y8500D02*
Y10150D01*
X12050Y14500D02*
Y16620D01*
X10020Y8470D02*
X10050Y8500D01*
X8501Y17240D02*
X11380D01*
X11340Y17330D02*
X12050Y16620D01*
X18710Y28010D02*
X18730Y27990D01*
X17390Y28010D02*
X18710D01*
X11380Y17240D02*
Y18330D01*
X11700Y18650D01*
Y27100D01*
X33640Y7550D02*
X35640D01*
X27097Y8920D02*
X31231D01*
X27097D02*
Y11883D01*
X24790Y8920D02*
X27097D01*
Y6093D02*
Y8920D01*
X11700Y27100D02*
X12610Y28010D01*
X17390D01*
D64*
X13011Y23111D02*
Y27261D01*
X12490Y22590D02*
X13011Y23111D01*
X12490Y19891D02*
Y22590D01*
X13011Y10761D02*
Y19370D01*
X12490Y19891D02*
X13011Y19370D01*
X18086Y29311D02*
Y30166D01*
X18170Y30250D01*
X17822Y29401D02*
X17836Y29414D01*
X4950Y20811D02*
Y21600D01*
X4750Y21800D02*
X4950Y21600D01*
X4226Y21800D02*
X4750D01*
X4126Y21900D02*
X4226Y21800D01*
X4117Y21909D02*
X4126Y21900D01*
X4117Y21909D02*
Y22585D01*
X4983Y23215D02*
X5285D01*
X5474Y23026D01*
Y21900D02*
Y23026D01*
X5450Y21876D02*
X5474Y21900D01*
X5450Y20811D02*
Y21876D01*
X7350Y25576D02*
X7355Y25581D01*
Y26250D01*
X9245Y25195D02*
Y26250D01*
X8450Y24400D02*
X9245Y25195D01*
X8450Y20811D02*
Y24400D01*
X8430Y20831D02*
X8450Y20811D01*
X12300Y38150D02*
X14278D01*
X11050Y36900D02*
X12300Y38150D01*
X12709Y37150D02*
X14278D01*
X12563Y36650D02*
X14278D01*
X12416Y36150D02*
X14278D01*
X18097Y34650D02*
X18347Y34900D01*
X17822Y34650D02*
X18097D01*
X21330Y36180D02*
X22050Y36900D01*
X20580Y36430D02*
X21050Y36900D01*
X6950Y16802D02*
Y17189D01*
X7950Y15824D02*
Y17189D01*
X19030Y34330D02*
X20000D01*
X18850Y34150D02*
X19030Y34330D01*
X17822Y34150D02*
X18850D01*
X17566Y28774D02*
Y29401D01*
X18336Y28884D02*
Y29401D01*
Y28884D02*
X18480Y28740D01*
X17566Y28774D02*
X17950Y28390D01*
X19320D01*
X13810Y32150D02*
X14278D01*
X13770Y32110D02*
X13810Y32150D01*
Y32650D02*
X14278D01*
X13770Y32610D02*
X13810Y32650D01*
X7450Y17189D02*
Y18440D01*
X7530Y18520D01*
X5950Y17189D02*
Y18340D01*
X6950Y17189D02*
Y18750D01*
X13000Y31450D02*
X13200Y31650D01*
X14278D01*
X16209Y3356D02*
X16780Y2785D01*
X9560Y3730D02*
X23590D01*
X23770Y3550D01*
X16780Y2120D02*
X17250Y1650D01*
X16780Y2120D02*
Y2785D01*
X33250Y2650D02*
Y4060D01*
X34210Y2650D02*
X34250D01*
X33720Y2160D02*
X34210Y2650D01*
X33720Y1260D02*
Y2160D01*
X33025Y565D02*
X33720Y1260D01*
X11140Y620D02*
X11195Y565D01*
X33025D01*
X17310Y28090D02*
Y29401D01*
X18590D02*
X18649Y29460D01*
X13011Y27261D02*
X13030Y27280D01*
X16660Y33650D02*
X17822D01*
X16000Y32990D02*
X16660Y33650D01*
X16000Y28900D02*
Y32990D01*
X7450Y6030D02*
Y17189D01*
Y6030D02*
X8735Y4745D01*
X6450Y6130D02*
Y17189D01*
Y6130D02*
X8100Y4480D01*
X5950Y5800D02*
Y17189D01*
Y5800D02*
X7695Y4055D01*
X5450Y5580D02*
Y17189D01*
Y5580D02*
X7674Y3356D01*
X16209D01*
X7695Y4055D02*
X24035D01*
X24290Y3800D01*
X8100Y4480D02*
X24160D01*
X24960Y3680D01*
X26260D01*
X8735Y4745D02*
X24475D01*
X25165Y4055D01*
X24550Y5200D02*
X25310Y4440D01*
X26140Y4380D02*
X32930D01*
X33250Y4060D01*
X24970Y5550D02*
X26140Y4380D01*
X12230Y5550D02*
X24970D01*
X19320Y28390D02*
X20055Y27655D01*
X18480Y28740D02*
X19324D01*
X21419Y6041D02*
X21520Y5940D01*
X19324Y28740D02*
X21419Y26644D01*
X20630Y5960D02*
Y6610D01*
X21419Y6041D02*
Y6630D01*
X16590Y9260D02*
X19890Y5960D01*
X17260Y9980D02*
X20630Y6610D01*
X17930Y10119D02*
X21419Y6630D01*
X15980Y7690D02*
Y27150D01*
Y7690D02*
X17730Y5940D01*
X12050Y5730D02*
X12230Y5550D01*
X12050Y5730D02*
Y8500D01*
X11050Y5260D02*
Y8500D01*
X11560Y9310D02*
X13011Y10761D01*
X11560Y5530D02*
Y9310D01*
Y5530D02*
X11890Y5200D01*
X24550D01*
X23870Y35720D02*
X25050Y36900D01*
X21640Y35930D02*
X22030Y36320D01*
X22470D01*
X23050Y36900D01*
X21880Y35680D02*
X22270Y36070D01*
X23220D02*
X24050Y36900D01*
X18347Y34900D02*
X18980D01*
X17822Y35650D02*
X18121D01*
X18341Y35430D01*
X17822Y36150D02*
X18097D01*
X18568Y35680D01*
X17822Y36650D02*
X18097D01*
X17822Y37150D02*
X18097D01*
X17822Y37650D02*
X18097D01*
X17822Y35150D02*
X18770D01*
X18845Y35225D01*
X19115D01*
X19190Y35150D01*
X18341Y35430D02*
X18697D01*
X18742Y35475D01*
X19218D01*
X19263Y35430D01*
X21983D01*
X18568Y35680D02*
X18593D01*
X18638Y35725D01*
X19322D01*
X19367Y35680D01*
X21880D01*
X18097Y36650D02*
X18772Y35975D01*
X19425D01*
X19471Y35930D01*
X21640D01*
X18097Y37150D02*
X19022Y36225D01*
X19529D01*
X19574Y36180D01*
X21330D01*
X18097Y37650D02*
X19272Y36475D01*
X19632D01*
X19678Y36430D01*
X20580D01*
X21983Y35430D02*
X22274Y35720D01*
X22270Y36070D02*
X23220D01*
X19190Y35150D02*
X22080D01*
X22310Y35380D01*
X24530D01*
X26050Y36900D01*
X22274Y35720D02*
X23870D01*
X12855Y37650D02*
X14278D01*
X5050Y36900D02*
X6800Y35150D01*
X4050Y36900D02*
X6300Y34650D01*
X11635Y36430D02*
X12855Y37650D01*
X6050Y36900D02*
X7520Y35430D01*
X12270Y35650D02*
X14278D01*
X12049Y35430D02*
X12270Y35650D01*
X11946Y35680D02*
X12416Y36150D01*
X7050Y36900D02*
X8270Y35680D01*
X11842Y35930D02*
X12563Y36650D01*
X8050Y36900D02*
X9020Y35930D01*
X11739Y36180D02*
X12709Y37150D01*
X9050Y36900D02*
X9770Y36180D01*
X7530Y33080D02*
X7600Y33150D01*
X5990Y32600D02*
X7920D01*
X7930Y32610D01*
X7120Y32110D02*
X13770D01*
X7930Y32610D02*
X13770D01*
X7600Y33150D02*
X14278D01*
X6300Y34650D02*
X14278D01*
X6800Y35150D02*
X14278D01*
X7520Y35430D02*
X12049D01*
X8270Y35680D02*
X11946D01*
X9020Y35930D02*
X11842D01*
X9770Y36180D02*
X11739D01*
X10050Y36900D02*
X10520Y36430D01*
X11635D01*
X25165Y4055D02*
X32055D01*
X32250Y3860D01*
Y2650D02*
Y3860D01*
X18649Y29460D02*
X19135D01*
X19390Y29205D01*
X18170Y30250D02*
X18910D01*
X20116Y29518D02*
X20223Y29625D01*
X20480D01*
X20213Y30125D02*
X20480D01*
X19838Y30500D02*
X20213Y30125D01*
X17836Y29414D02*
Y30269D01*
X18066Y30500D01*
X19838D01*
X18910Y30250D02*
X19642Y29518D01*
X20116D01*
X19885Y29875D02*
X20480D01*
X19760Y30000D02*
X19885Y29875D01*
X17822Y38150D02*
X18240D01*
X19490Y36900D01*
X20050D01*
X17930Y10119D02*
Y16900D01*
X21419Y20389D01*
Y26644D01*
X17260Y9980D02*
Y17460D01*
X20630Y20830D01*
Y26770D01*
X16590Y9260D02*
Y17740D01*
X20055Y21205D01*
Y27655D01*
X17310Y28090D02*
X17390Y28010D01*
X3130Y26780D02*
X3796D01*
D65*
X35250Y2650D02*
X35274Y2674D01*
Y3900D01*
X21950Y26535D02*
Y27485D01*
Y32835D02*
Y33585D01*
X5550Y27726D02*
Y28424D01*
X5530Y25276D02*
Y25864D01*
Y25276D02*
X5540Y25266D01*
X8526Y15900D02*
Y17113D01*
X11050Y34210D02*
X11110Y34150D01*
X9245Y27250D02*
X10274D01*
Y29844D01*
X11030Y30600D01*
X34250Y1650D02*
X35250D01*
X38950Y490D02*
X39150Y690D01*
Y6070D01*
X35250Y490D02*
Y1650D01*
Y490D02*
X38950D01*
X27250Y2650D02*
Y3300D01*
X27570Y3620D01*
X31710D01*
X11110Y34150D02*
X14278D01*
X19056Y33716D02*
X19820D01*
X19040Y33700D02*
X19056Y33716D01*
X19081Y26029D02*
X19095Y26015D01*
X19040Y26760D02*
X19081Y26719D01*
Y26029D02*
Y26719D01*
D66*
X30400Y12060D02*
X32216D01*
X30340Y10920D02*
X32156D01*
X19081Y26029D02*
X19640Y25470D01*
D67*
X33854Y10286D02*
Y11070D01*
Y10286D02*
X33970Y10170D01*
X35640D01*
X32904Y10930D02*
X32964Y10990D01*
Y11070D01*
Y12070D01*
Y11070D02*
X33854D01*
X35640Y10170D02*
X38140D01*
D68*
X36900Y7550D02*
X37520D01*
X38140Y8170D01*
Y10170D01*
Y12680D01*
X36900Y6470D02*
Y7550D01*
X36630Y6200D02*
X36900Y6470D01*
X31680Y6200D02*
X36630D01*
X31231Y6649D02*
X31680Y6200D01*
X31231Y6649D02*
Y7750D01*
D69*
X23980Y14500D02*
X25350D01*
X23660Y14180D02*
X23980Y14500D01*
X23660Y13090D02*
Y14180D01*
D70*
X25350Y34300D02*
D03*
Y31200D02*
D03*
Y28100D02*
D03*
X25360Y25020D02*
D03*
X25350Y14500D02*
D03*
X25340Y17620D02*
D03*
D71*
X35050Y35850D02*
D03*
Y32750D02*
D03*
D03*
Y29650D02*
D03*
D03*
Y26550D02*
D03*
X35060Y26570D02*
D03*
Y23470D02*
D03*
X35050Y16050D02*
D03*
Y12950D02*
D03*
X35040Y19170D02*
D03*
Y16070D02*
D03*
D72*
X9050Y14500D02*
D03*
X10050D02*
D03*
X11050D02*
D03*
X10050Y36900D02*
D03*
X9050D02*
D03*
X8050D02*
D03*
X4050D02*
D03*
X5050D02*
D03*
X6050D02*
D03*
X7050D02*
D03*
X26050D02*
D03*
X25050D02*
D03*
X24050D02*
D03*
X23050D02*
D03*
X22050D02*
D03*
X21050D02*
D03*
X20050D02*
D03*
X10050Y37900D02*
D03*
X9050D02*
D03*
X8050D02*
D03*
X7050D02*
D03*
X6050D02*
D03*
X5050D02*
D03*
X4050D02*
D03*
X26050D02*
D03*
X25050D02*
D03*
X24050D02*
D03*
X23050D02*
D03*
X22050D02*
D03*
X21050D02*
D03*
X20050D02*
D03*
X10050Y38900D02*
D03*
X9050D02*
D03*
X8050D02*
D03*
X7050D02*
D03*
X6050D02*
D03*
X5050D02*
D03*
X4050D02*
D03*
X23250Y34298D02*
D03*
X23350Y28098D02*
D03*
X26050Y38900D02*
D03*
X25050D02*
D03*
X24050D02*
D03*
X23050D02*
D03*
X22050D02*
D03*
X21050D02*
D03*
X20050D02*
D03*
X9050Y8500D02*
D03*
X10050D02*
D03*
X11050D02*
D03*
X9050Y11500D02*
D03*
Y10500D02*
D03*
X16250Y1650D02*
D03*
Y2650D02*
D03*
X17250Y1650D02*
D03*
Y2650D02*
D03*
X18250Y1650D02*
D03*
Y2650D02*
D03*
X19250Y1650D02*
D03*
Y2650D02*
D03*
X20250Y1650D02*
D03*
Y2650D02*
D03*
X21250Y1650D02*
D03*
Y2650D02*
D03*
X22250Y1650D02*
D03*
Y2650D02*
D03*
X23250Y1650D02*
D03*
Y2650D02*
D03*
X24250Y1650D02*
D03*
Y2650D02*
D03*
X25250Y1650D02*
D03*
Y2650D02*
D03*
X26250Y1650D02*
D03*
Y2650D02*
D03*
X27250Y1650D02*
D03*
Y2650D02*
D03*
X28250Y1650D02*
D03*
Y2650D02*
D03*
X29250Y1650D02*
D03*
Y2650D02*
D03*
X30250Y1650D02*
D03*
Y2650D02*
D03*
X31250Y1650D02*
D03*
Y2650D02*
D03*
X32250Y1650D02*
D03*
Y2650D02*
D03*
X33250Y1650D02*
D03*
Y2650D02*
D03*
X34250Y1650D02*
D03*
Y2650D02*
D03*
X35250Y1650D02*
D03*
X1010Y27430D02*
D03*
D73*
X12050Y14500D02*
D03*
X11050Y36900D02*
D03*
X27050D02*
D03*
X11050Y37900D02*
D03*
X27050D02*
D03*
X11050Y38900D02*
D03*
X27050D02*
D03*
X12050Y8500D02*
D03*
X35250Y2650D02*
D03*
D74*
X23250Y31502D02*
D03*
X23350Y25302D02*
D03*
X9050Y12500D02*
D03*
X1010Y26430D02*
D03*
D75*
X37241Y1961D02*
D03*
X14407D02*
D03*
Y21252D02*
D03*
X37241D02*
D03*
D76*
X20000Y34330D02*
D03*
X7530Y18520D02*
D03*
Y33080D02*
D03*
X5950Y18340D02*
D03*
X5990Y32600D02*
D03*
X7120Y32110D02*
D03*
X6950Y18750D02*
D03*
X23770Y3550D02*
D03*
X13000Y31450D02*
D03*
X9560Y3730D02*
D03*
X11140Y620D02*
D03*
X18730Y27990D02*
D03*
X20630Y26770D02*
D03*
X19630Y25460D02*
D03*
X13030Y27280D02*
D03*
X16000Y28900D02*
D03*
X15980Y27150D02*
D03*
X24290Y3800D02*
D03*
X26260Y3680D02*
D03*
X25310Y4440D02*
D03*
X17730Y5940D02*
D03*
X19890Y5960D02*
D03*
X21520Y5940D02*
D03*
X20630Y5960D02*
D03*
X33640Y7550D02*
D03*
X11050Y5260D02*
D03*
X18980Y34900D02*
D03*
X11050Y34210D02*
D03*
X11030Y30600D02*
D03*
X31710Y3620D02*
D03*
X19390Y29205D02*
D03*
X19760Y30000D02*
D03*
X19040Y33700D02*
D03*
X15900Y34440D02*
D03*
X37970Y7920D02*
D03*
X38130Y8860D02*
D03*
X38120Y12470D02*
D03*
X38140Y11470D02*
D03*
X3130Y26780D02*
D03*
M02*
