M48
;Layer_Color=9474304
;FILE_FORMAT=4:4
METRIC,LZ
;TYPE=PLATED
T01F00S00C0.2540
T02F00S00C0.5080
T03F00S00C0.7112
T04F00S00C0.7620
T05F00S00C0.9000
T06F00S00C1.7780
;TYPE=NON_PLATED
T07F00S00C1.1938
%
T01
X00402353Y00051161
X00697Y00168
X00798869Y00469884
X00801Y00517
X00626Y00526
X006096Y0047752
X0066294Y0046228
X00543741Y00458289
X00549Y00531
X0056261Y0037592
X0057785Y0035687
X00541Y00351
X005Y0035
X00489Y00416
X0045212Y0044069
X0036449Y0040767
X00373Y0039
X0036195Y0030353
X00364Y00254
X0041Y00235
X0043942Y0020447
X00457Y00205
X0048006Y0020828
X0051816Y0024892
X00543304Y0022922
X00558Y00199263
X00542Y00177
X00624
X0061722Y002286
X00629666Y0026416
X00613Y00314
X00537Y00294
X00538Y00278
X0029083Y0030607
X00498Y00592
X00514Y00661
X0069977Y0066929
X00729Y00686
X00732Y0070584
X0074422Y0067183
X0076Y00661
X00702Y00611
X00700124Y00563124
X0073025Y0055372
X00745661Y00563443
T02
X00694Y00318
X00712Y0046
X00711779Y00479969
X00713287Y005
Y00521
X00315Y00546
X00713287Y00541
X00804Y00587
Y00612
Y00639
Y00663
T03
X0075438Y0063881
T04
X00403606Y00334518
X0041275Y004064
X0042799Y004953
T05
X00315Y000266
Y00052
Y000774
Y001028
Y001282
X003404
Y001028
Y000774
Y00052
Y000266
X003762Y00028
X004016
X00427
X004524
X004922Y00027
X005176
X00543
X005684
X0060452Y0002667
X0062992
X0065532
X0068072
X006806Y00063
X006552
X006298
X006044
X005584Y0009
X00533
X005076
X00706Y00063
X007314
X007568
X007822
X0078232Y0002667
X0075692
X0073152
X0070612
X00819Y000274
Y000528
Y000782
Y001036
Y00129
X00854Y001288
Y001034
Y00078
Y000526
Y000272
Y001542
Y001796
Y00205
X00819Y002052
Y001798
Y001544
X0083693Y0025781
Y0028321
Y0030861
Y0033401
Y0035941
Y0038481
Y0041021
Y0043561
X0083566Y0048641
Y0051181
Y0053721
X00783Y002834
Y00258
X003404Y002552
Y002806
Y00306
Y003314
Y003568
Y003822
Y004076
Y00433
Y004584
Y004838
Y005092
X00315
Y004838
Y004584
Y00433
Y004076
Y003822
Y003568
Y003314
Y00306
Y002806
Y002552
Y002298
X003404
Y002044
X00315
Y00179
X003404
Y001536
X00315
X005935Y00586
X006645
X006695Y00688
X005985
X0083566Y0066421
Y0063881
Y0061341
Y0058801
Y0056261
T06
X0040262Y0015337
Y00260022
Y00366674
Y00473326
Y00579978
Y0068663
T07
X00649Y00114
Y0019274
Y00220652
Y00299392
Y00327304
Y00406044
Y00433956
Y00512696
Y00540608
Y00619348
Y0064726
Y00726
M30
