M48
;Layer_Color=9474304
;FILE_FORMAT=2:4
INCH,LZ
;TYPE=PLATED
T1F00S00C0.0160
T2F00S00C0.0354
T3F00S00C0.0700
T4F00S00C0.1083
;TYPE=NON_PLATED
T5F00S00C0.0470
%
T01
X01114Y00062
X00956Y00373
X01105Y00526
X02377Y00355
X02429Y0038
X02531Y00444
X02626Y00368
X03171Y00362
X03797Y00792
X03813Y00886
X03814Y01147
X03812Y01247
X03364Y00755
X02152Y00594
X02063Y00596
X01989
X01773Y00594
X00753Y01852
X00695Y01875
X00595Y01834
X00313Y02678
X00599Y0326
X00712Y03211
X00753Y03308
X01105Y03421
X01103Y0306
X013Y03145
X01303Y02728
X01598Y02715
X016Y0289
X01873Y02799
X01939Y029205
X01976Y03
X02063Y02677
X01963Y02546
X01904Y0337
X01898Y0349
X02Y03433
X0159Y03444
T02
X01625Y00165
Y00265
X01725
Y00165
X01825
Y00265
X01925
Y00165
X02025
Y00265
X02125
Y00165
X02225
Y00265
X02325
Y00165
X02425
Y00265
X02525
Y00165
X02625
Y00265
X02725
Y00165
X02825
Y00265
X02925
Y00165
X03025
Y00265
X03125
Y00165
X03225
Y00265
X03325
Y00165
X03425
Y00265
X03525
Y00165
X01205Y0085
X01105
X01005
X00905
Y0105
Y0115
Y0125
Y0145
X01005
X01105
X01205
X00101Y02643
Y02743
X02335Y028098
Y025302
X02325Y031502
Y034298
X02305Y0369
X02405
X02505
X02605
X02705
Y0379
X02605
X02505
X02405
X02305
X02205
Y0369
Y0389
X02305
X02405
X02505
X02605
X02705
X02105
Y0379
Y0369
X02005
Y0379
Y0389
X01105
Y0379
Y0369
X01005
X00905
X00805
X00705
X00605
Y0379
X00705
X00805
X00905
X01005
Y0389
X00905
X00805
X00705
X00605
X00505
Y0379
Y0369
X00405
Y0379
Y0389
T03
X02535Y0145
X02534Y01762
X02536Y02502
X02535Y0281
Y0312
Y0343
T04
X014407Y001961
X037241
X014407Y021252
X037241
T05
X03505Y01295
Y01605
X03504Y01607
Y01917
X03506Y02347
X03505Y02655
X03506Y02657
X03505Y02965
Y03275
Y03585
M30
